999
dxfrw 0.6.3
  0
SECTION
  2
HEADER
  9
$ACADVER
  1
AC1021
  9
$DWGCODEPAGE
  3
ANSI_1252
  9
$INSBASE
 10
0
 20
0
 30
0
  9
$EXTMIN
 10
10000000000
 20
10000000000
 30
0
  9
$EXTMAX
 10
-10000000000
 20
-10000000000
 30
0
  9
$LIMMIN
 10
0
 20
0
  9
$LIMMAX
 10
12
 20
9
  9
$ORTHOMODE
 70
    0
  9
$REGENMODE
 70
    1
  9
$FILLMODE
 70
    1
  9
$QTEXTMODE
 70
    0
  9
$MIRRTEXT
 70
    0
  9
$LTSCALE
 40
1
  9
$ATTMODE
 70
    1
  9
$TEXTSIZE
 40
0.2
  9
$TRACEWID
 40
0.05
  9
$TEXTSTYLE
  7
Standard
  9
$CLAYER
  8
0
  9
$CELTYPE
  6
ByLayer
  9
$CECOLOR
 62
  256
  9
$CELTSCALE
 40
1
  9
$DISPSILH
 70
    0
  9
$DIMSCALE
 40
1
  9
$DIMASZ
 40
0.18
  9
$DIMEXO
 40
0.0625
  9
$DIMDLI
 40
0.38
  9
$DIMRND
 40
0
  9
$DIMDLE
 40
0
  9
$DIMEXE
 40
0.18
  9
$DIMTP
 40
0
  9
$DIMTM
 40
0
  9
$DIMTXT
 40
0.18
  9
$DIMCEN
 40
0.09
  9
$DIMTSZ
 40
0
  9
$DIMTOL
 70
    0
  9
$DIMLIM
 70
    0
  9
$DIMTIH
 70
    1
  9
$DIMTOH
 70
    1
  9
$DIMSE1
 70
    0
  9
$DIMSE2
 70
    0
  9
$DIMTAD
 70
    0
  9
$DIMZIN
 70
    0
  9
$DIMBLK
  1

  9
$DIMASO
 70
    1
  9
$DIMSHO
 70
    1
  9
$DIMPOST
  1

  9
$DIMAPOST
  1

  9
$DIMALT
 70
    0
  9
$DIMALTD
 70
    2
  9
$DIMALTF
 40
25.4
  9
$DIMLFAC
 40
1
  9
$DIMTOFL
 70
    0
  9
$DIMTVP
 40
0
  9
$DIMTIX
 70
    0
  9
$DIMSOXD
 70
    0
  9
$DIMSAH
 70
    0
  9
$DIMBLK1
  1

  9
$DIMBLK2
  1

  9
$DIMSTYLE
  2
Standard
  9
$DIMCLRD
 70
    0
  9
$DIMCLRE
 70
    0
  9
$DIMCLRT
 70
    0
  9
$DIMTFAC
 40
1
  9
$DIMGAP
 40
0.09
  9
$DIMJUST
 70
    0
  9
$DIMSD1
 70
    0
  9
$DIMSD2
 70
    0
  9
$DIMTOLJ
 70
    1
  9
$DIMTZIN
 70
    0
  9
$DIMALTZ
 70
    0
  9
$DIMALTTZ
 70
    0
  9
$DIMUPT
 70
    0
  9
$DIMDEC
 70
    4
  9
$DIMTDEC
 70
    4
  9
$DIMALTU
 70
    2
  9
$DIMALTTD
 70
    2
  9
$DIMTXSTY
  7
Standard
  9
$DIMAUNIT
 70
    0
  9
$DIMADEC
 70
    0
  9
$DIMALTRND
 40
0
  9
$DIMAZIN
 70
    0
  9
$DIMDSEP
 70
   46
  9
$DIMATFIT
 70
    3
  9
$DIMFRAC
 70
    0
  9
$DIMLDRBLK
  1

  9
$DIMLUNIT
 70
    2
  9
$DIMLWD
 70
   -2
  9
$DIMLWE
 70
   -2
  9
$DIMTMOVE
 70
    0
  9
$DIMFXL
 40
1
  9
$DIMFXLON
 70
    0
  9
$DIMJOGANG
 40
0.7854
  9
$DIMTFILL
 70
    0
  9
$DIMTFILLCLR
 70
    0
  9
$DIMARCSYM
 70
    0
  9
$DIMLTYPE
  6

  9
$DIMLTEX1
  6

  9
$DIMLTEX2
  6

  9
$LUNITS
 70
    2
  9
$LUPREC
 70
    4
  9
$SKETCHINC
 40
0.1
  9
$FILLETRAD
 40
0
  9
$AUNITS
 70
    0
  9
$AUPREC
 70
    0
  9
$MENU
  1
.
  9
$ELEVATION
 40
0
  9
$PELEVATION
 40
0
  9
$THICKNESS
 40
0
  9
$LIMCHECK
 70
    0
  9
$CHAMFERA
 40
0
  9
$CHAMFERB
 40
0
  9
$CHAMFERC
 40
0
  9
$CHAMFERD
 40
0
  9
$SKPOLY
 70
    0
  9
$USRTIMER
 70
    1
  9
$ANGBASE
 50
0
  9
$ANGDIR
 70
    0
  9
$PDMODE
 70
   35
  9
$PDSIZE
 40
3
  9
$PLINEWID
 40
0
  9
$SPLFRAME
 70
    0
  9
$SPLINETYPE
 70
    6
  9
$SPLINESEGS
 70
    8
  9
$HANDSEED
  5
20000
  9
$SURFTAB1
 70
    6
  9
$SURFTAB2
 70
    6
  9
$SURFTYPE
 70
    6
  9
$SURFU
 70
    6
  9
$SURFV
 70
    6
  9
$UCSBASE
  2

  9
$UCSNAME
  2

  9
$UCSORG
 10
0
 20
0
 30
0
  9
$UCSXDIR
 10
1
 20
0
 30
0
  9
$UCSYDIR
 10
0
 20
1
 30
0
  9
$UCSORTHOREF
  2

  9
$UCSORTHOVIEW
 70
    0
  9
$UCSORGTOP
 10
0
 20
0
 30
0
  9
$UCSORGBOTTOM
 10
0
 20
0
 30
0
  9
$UCSORGLEFT
 10
0
 20
0
 30
0
  9
$UCSORGRIGHT
 10
0
 20
0
 30
0
  9
$UCSORGFRONT
 10
0
 20
0
 30
0
  9
$UCSORGBACK
 10
0
 20
0
 30
0
  9
$PUCSBASE
  2

  9
$PUCSNAME
  2

  9
$PUCSORG
 10
0
 20
0
 30
0
  9
$PUCSXDIR
 10
1
 20
0
 30
0
  9
$PUCSYDIR
 10
0
 20
1
 30
0
  9
$PUCSORTHOREF
  2

  9
$PUCSORTHOVIEW
 70
    0
  9
$PUCSORGTOP
 10
0
 20
0
 30
0
  9
$PUCSORGBOTTOM
 10
0
 20
0
 30
0
  9
$PUCSORGLEFT
 10
0
 20
0
 30
0
  9
$PUCSORGRIGHT
 10
0
 20
0
 30
0
  9
$PUCSORGFRONT
 10
0
 20
0
 30
0
  9
$PUCSORGBACK
 10
0
 20
0
 30
0
  9
$USERI1
 70
    0
  9
$USERI2
 70
    0
  9
$USERI3
 70
    0
  9
$USERI4
 70
    0
  9
$USERI5
 70
    0
  9
$USERR1
 40
0
  9
$USERR2
 40
0
  9
$USERR3
 40
0
  9
$USERR4
 40
0
  9
$USERR5
 40
0
  9
$WORLDVIEW
 70
    1
  9
$SHADEDGE
 70
    3
  9
$SHADEDIF
 70
   70
  9
$TILEMODE
 70
    1
  9
$MAXACTVP
 70
   64
  9
$PINSBASE
 10
0
 20
0
 30
0
  9
$PLIMCHECK
 70
    0
  9
$PEXTMIN
 10
1e+20
 20
1e+20
 30
1e+20
  9
$PEXTMAX
 10
-1e+20
 20
-1e+20
 30
-1e+20
  9
$GRIDMODE
 70
    0
  9
$SNAPSTYLE
 70
    0
  9
$PLIMMIN
 10
0
 20
0
  9
$PLIMMAX
 10
12
 20
9
  9
$UNITMODE
 70
    0
  9
$VISRETAIN
 70
    1
  9
$PLINEGEN
 70
    0
  9
$PSLTSCALE
 70
    1
  9
$TREEDEPTH
 70
 3020
  9
$CMLSTYLE
  2
STANDARD
  9
$CMLJUST
 70
    0
  9
$CMLSCALE
 40
1
  9
$PROXYGRAPHICS
 70
    0
  9
$MEASUREMENT
 70
    1
  9
$CELWEIGHT
370
   -1
  9
$ENDCAPS
280
    0
  9
$JOINSTYLE
280
    0
  9
$LWDISPLAY
290
    0
  9
$INSUNITS
 70
    0
  9
$HYPERLINKBASE
  1

  9
$STYLESHEET
  1

  9
$XEDIT
290
    1
  9
$CEPSNTYPE
380
    0
  9
$PSTYLEMODE
290
    1
  9
$EXTNAMES
290
    1
  9
$PSVPSCALE
 40
0
  9
$OLESTARTUP
290
    0
  9
$SORTENTS
280
  127
  9
$INDEXCTL
280
    0
  9
$HIDETEXT
280
    1
  9
$XCLIPFRAME
290
    0
  9
$HALOGAP
280
    0
  9
$OBSCOLOR
 70
    0
  9
$OBSLTYPE
280
    0
  9
$INTERSECTIONDISPLAY
280
    0
  9
$INTERSECTIONCOLOR
 70
    0
  9
$DIMASSOC
280
    2
  9
$PROJECTNAME
  1

  9
$CAMERADISPLAY
290
    0
  9
$LENSLENGTH
 40
50
  9
$CAMERAHEIGHT
 40
0
  9
$STEPSPERSEC
 40
2
  9
$STEPSIZE
 40
50
  9
$3DDWFPREC
 40
2
  9
$PSOLWIDTH
 40
5
  9
$PSOLHEIGHT
 40
80
  9
$LOFTANG1
 40
1.570796326794897
  9
$LOFTANG2
 40
1.570796326794897
  9
$LOFTMAG1
 40
0
  9
$LOFTMAG2
 40
0
  9
$LOFTPARAM
 70
    7
  9
$LOFTNORMALS
280
    1
  9
$LATITUDE
 40
1
  9
$LONGITUDE
 40
1
  9
$NORTHDIRECTION
 40
0
  9
$TIMEZONE
 70
-8000
  9
$LIGHTGLYPHDISPLAY
280
    1
  9
$TILEMODELIGHTSYNCH
280
    1
  9
$SOLIDHIST
280
    1
  9
$SHOWHIST
280
    1
  9
$DWFFRAME
280
    2
  9
$DGNFRAME
280
    0
  9
$REALWORLDSCALE
290
    1
  9
$INTERFERECOLOR
 62
    1
  9
$CSHADOW
280
    0
  9
$SHADOWPLANELOCATION
 40
0
  0
ENDSEC
  0
SECTION
  2
CLASSES
  0
ENDSEC
  0
SECTION
  2
TABLES
  0
TABLE
  2
VPORT
  5
8
330
0
100
AcDbSymbolTable
 70
    1
  0
VPORT
  5
31
330
2
100
AcDbSymbolTableRecord
100
AcDbViewportTableRecord
  2
*ACTIVE
 70
    0
 10
0
 20
0
 11
1
 21
1
 12
66.68708654913738
 22
15.17219429424819
 13
0
 23
0
 14
10
 24
10
 15
10
 25
10
 16
0
 26
0
 36
1
 17
0
 27
0
 37
0
 40
146.2528961619971
 41
1.90832328106152
 42
50
 43
0
 44
0
 50
0
 51
0
 71
    0
 72
  100
 73
    1
 74
    3
 75
    0
 76
    0
 77
    0
 78
    0
281
    0
 65
    1
110
0
120
0
130
0
111
1
121
0
131
0
112
0
122
1
132
0
 79
    0
146
0
348
10020
 60
    7
 61
    5
292
1
282
    1
141
0
142
0
 63
  250
421
3358443
  0
ENDTAB
  0
TABLE
  2
LTYPE
  5
5
330
0
100
AcDbSymbolTable
 70
    4
  0
LTYPE
  5
14
330
5
100
AcDbSymbolTableRecord
100
AcDbLinetypeTableRecord
  2
ByBlock
 70
    0
  3

 72
   65
 73
    0
 40
0
  0
LTYPE
  5
15
330
5
100
AcDbSymbolTableRecord
100
AcDbLinetypeTableRecord
  2
ByLayer
 70
    0
  3

 72
   65
 73
    0
 40
0
  0
LTYPE
  5
16
330
5
100
AcDbSymbolTableRecord
100
AcDbLinetypeTableRecord
  2
Continuous
 70
    0
  3
Solid line
 72
   65
 73
    0
 40
0
  0
LTYPE
  5
32
330
5
100
AcDbSymbolTableRecord
100
AcDbLinetypeTableRecord
  2
DOT
 70
    0
  3
Dot . . . . . . . . . . . . . . . . . . . . . .
 72
   65
 73
    2
 40
6.35
 49
0
 74
    0
 49
-6.35
 74
    0
  0
LTYPE
  5
33
330
5
100
AcDbSymbolTableRecord
100
AcDbLinetypeTableRecord
  2
DOTTINY
 70
    0
  3
Dot (.15x) .....................................
 72
   65
 73
    2
 40
0.9525
 49
0
 74
    0
 49
-0.9525
 74
    0
  0
LTYPE
  5
34
330
5
100
AcDbSymbolTableRecord
100
AcDbLinetypeTableRecord
  2
DOT2
 70
    0
  3
Dot (.5x) .....................................
 72
   65
 73
    2
 40
3.175
 49
0
 74
    0
 49
-3.175
 74
    0
  0
LTYPE
  5
35
330
5
100
AcDbSymbolTableRecord
100
AcDbLinetypeTableRecord
  2
DOTX2
 70
    0
  3
Dot (2x) .  .  .  .  .  .  .  .  .  .  .  .  .
 72
   65
 73
    2
 40
12.7
 49
0
 74
    0
 49
-12.7
 74
    0
  0
LTYPE
  5
36
330
5
100
AcDbSymbolTableRecord
100
AcDbLinetypeTableRecord
  2
DASHED
 70
    0
  3
Dashed _ _ _ _ _ _ _ _ _ _ _ _ _ _ _ _ _
 72
   65
 73
    2
 40
19.05
 49
12.7
 74
    0
 49
-6.35
 74
    0
  0
LTYPE
  5
37
330
5
100
AcDbSymbolTableRecord
100
AcDbLinetypeTableRecord
  2
DASHEDTINY
 70
    0
  3
Dashed (.15x) _ _ _ _ _ _ _ _ _ _ _ _ _ _ _ _ _
 72
   65
 73
    2
 40
2.8575
 49
1.905
 74
    0
 49
-0.9525
 74
    0
  0
LTYPE
  5
38
330
5
100
AcDbSymbolTableRecord
100
AcDbLinetypeTableRecord
  2
DASHED2
 70
    0
  3
Dashed (.5x) _ _ _ _ _ _ _ _ _ _ _ _ _ _ _ _ _
 72
   65
 73
    2
 40
9.524999999999999
 49
6.35
 74
    0
 49
-3.175
 74
    0
  0
LTYPE
  5
39
330
5
100
AcDbSymbolTableRecord
100
AcDbLinetypeTableRecord
  2
DASHEDX2
 70
    0
  3
Dashed (2x) ____  ____  ____  ____  ____  ___
 72
   65
 73
    2
 40
38.09999999999999
 49
25.4
 74
    0
 49
-12.7
 74
    0
  0
LTYPE
  5
3A
330
5
100
AcDbSymbolTableRecord
100
AcDbLinetypeTableRecord
  2
DASHDOT
 70
    0
  3
Dash dot __ . __ . __ . __ . __ . __ . __ . __
 72
   65
 73
    4
 40
25.4
 49
12.7
 74
    0
 49
-6.35
 74
    0
 49
0
 74
    0
 49
-6.35
 74
    0
  0
LTYPE
  5
3B
330
5
100
AcDbSymbolTableRecord
100
AcDbLinetypeTableRecord
  2
DASHDOTTINY
 70
    0
  3
Dash dot (.15x) _._._._._._._._._._._._._._._.
 72
   65
 73
    4
 40
3.81
 49
1.905
 74
    0
 49
-0.9525
 74
    0
 49
0
 74
    0
 49
-0.9525
 74
    0
  0
LTYPE
  5
3C
330
5
100
AcDbSymbolTableRecord
100
AcDbLinetypeTableRecord
  2
DASHDOT2
 70
    0
  3
Dash dot (.5x) _._._._._._._._._._._._._._._.
 72
   65
 73
    4
 40
12.7
 49
6.35
 74
    0
 49
-3.175
 74
    0
 49
0
 74
    0
 49
-3.175
 74
    0
  0
LTYPE
  5
3D
330
5
100
AcDbSymbolTableRecord
100
AcDbLinetypeTableRecord
  2
DASHDOTX2
 70
    0
  3
Dash dot (2x) ____  .  ____  .  ____  .  ___
 72
   65
 73
    4
 40
50.8
 49
25.4
 74
    0
 49
-12.7
 74
    0
 49
0
 74
    0
 49
-12.7
 74
    0
  0
LTYPE
  5
3E
330
5
100
AcDbSymbolTableRecord
100
AcDbLinetypeTableRecord
  2
DIVIDE
 70
    0
  3
Divide ____ . . ____ . . ____ . . ____ . . ____
 72
   65
 73
    6
 40
31.75
 49
12.7
 74
    0
 49
-6.35
 74
    0
 49
0
 74
    0
 49
-6.35
 74
    0
 49
0
 74
    0
 49
-6.35
 74
    0
  0
LTYPE
  5
3F
330
5
100
AcDbSymbolTableRecord
100
AcDbLinetypeTableRecord
  2
DIVIDETINY
 70
    0
  3
Divide (.15x) __..__..__..__..__..__..__..__.._
 72
   65
 73
    6
 40
4.7625
 49
1.905
 74
    0
 49
-0.9525
 74
    0
 49
0
 74
    0
 49
-0.9525
 74
    0
 49
0
 74
    0
 49
-0.9525
 74
    0
  0
LTYPE
  5
40
330
5
100
AcDbSymbolTableRecord
100
AcDbLinetypeTableRecord
  2
DIVIDE2
 70
    0
  3
Divide (.5x) __..__..__..__..__..__..__..__.._
 72
   65
 73
    6
 40
15.875
 49
6.35
 74
    0
 49
-3.175
 74
    0
 49
0
 74
    0
 49
-3.175
 74
    0
 49
0
 74
    0
 49
-3.175
 74
    0
  0
LTYPE
  5
41
330
5
100
AcDbSymbolTableRecord
100
AcDbLinetypeTableRecord
  2
DIVIDEX2
 70
    0
  3
Divide (2x) ________  .  .  ________  .  .  _
 72
   65
 73
    6
 40
63.5
 49
25.4
 74
    0
 49
-12.7
 74
    0
 49
0
 74
    0
 49
-12.7
 74
    0
 49
0
 74
    0
 49
-12.7
 74
    0
  0
LTYPE
  5
42
330
5
100
AcDbSymbolTableRecord
100
AcDbLinetypeTableRecord
  2
BORDER
 70
    0
  3
Border __ __ . __ __ . __ __ . __ __ . __ __ .
 72
   65
 73
    6
 40
44.45
 49
12.7
 74
    0
 49
-6.35
 74
    0
 49
12.7
 74
    0
 49
-6.35
 74
    0
 49
0
 74
    0
 49
-6.35
 74
    0
  0
LTYPE
  5
43
330
5
100
AcDbSymbolTableRecord
100
AcDbLinetypeTableRecord
  2
BORDERTINY
 70
    0
  3
Border (.15x) __.__.__.__.__.__.__.__.__.__.__.
 72
   65
 73
    6
 40
6.6675
 49
1.905
 74
    0
 49
-0.9525
 74
    0
 49
1.905
 74
    0
 49
-0.9525
 74
    0
 49
0
 74
    0
 49
-0.9525
 74
    0
  0
LTYPE
  5
44
330
5
100
AcDbSymbolTableRecord
100
AcDbLinetypeTableRecord
  2
BORDER2
 70
    0
  3
Border (.5x) __.__.__.__.__.__.__.__.__.__.__.
 72
   65
 73
    6
 40
22.225
 49
6.35
 74
    0
 49
-3.175
 74
    0
 49
6.35
 74
    0
 49
-3.175
 74
    0
 49
0
 74
    0
 49
-3.175
 74
    0
  0
LTYPE
  5
45
330
5
100
AcDbSymbolTableRecord
100
AcDbLinetypeTableRecord
  2
BORDERX2
 70
    0
  3
Border (2x) ____  ____  .  ____  ____  .  ___
 72
   65
 73
    6
 40
88.89999999999999
 49
25.4
 74
    0
 49
-12.7
 74
    0
 49
25.4
 74
    0
 49
-12.7
 74
    0
 49
0
 74
    0
 49
-12.7
 74
    0
  0
LTYPE
  5
46
330
5
100
AcDbSymbolTableRecord
100
AcDbLinetypeTableRecord
  2
CENTER
 70
    0
  3
Center ____ _ ____ _ ____ _ ____ _ ____ _ ____
 72
   65
 73
    4
 40
50.8
 49
31.75
 74
    0
 49
-6.35
 74
    0
 49
6.35
 74
    0
 49
-6.35
 74
    0
  0
LTYPE
  5
47
330
5
100
AcDbSymbolTableRecord
100
AcDbLinetypeTableRecord
  2
CENTERTINY
 70
    0
  3
Center (.15x) ___ _ ___ _ ___ _ ___ _ ___ _ ___
 72
   65
 73
    4
 40
7.62
 49
4.7625
 74
    0
 49
-0.9525
 74
    0
 49
0.9525
 74
    0
 49
-0.9525
 74
    0
  0
LTYPE
  5
48
330
5
100
AcDbSymbolTableRecord
100
AcDbLinetypeTableRecord
  2
CENTER2
 70
    0
  3
Center (.5x) ___ _ ___ _ ___ _ ___ _ ___ _ ___
 72
   65
 73
    4
 40
28.575
 49
19.05
 74
    0
 49
-3.175
 74
    0
 49
3.175
 74
    0
 49
-3.175
 74
    0
  0
LTYPE
  5
49
330
5
100
AcDbSymbolTableRecord
100
AcDbLinetypeTableRecord
  2
CENTERX2
 70
    0
  3
Center (2x) ________  __  ________  __  _____
 72
   65
 73
    4
 40
101.6
 49
63.5
 74
    0
 49
-12.7
 74
    0
 49
12.7
 74
    0
 49
-12.7
 74
    0
  0
ENDTAB
  0
TABLE
  2
LAYER
  5
2
330
0
100
AcDbSymbolTable
 70
    1
  0
LAYER
  5
10
330
2
100
AcDbSymbolTableRecord
100
AcDbLayerTableRecord
  2
0
 70
    0
 62
    7
  6
CONTINUOUS
370
   -3
390
F
  0
LAYER
  5
4A
330
2
100
AcDbSymbolTableRecord
100
AcDbLayerTableRecord
  2
0S-Profile Aluminium
 70
    0
 62
  254
  6
CONTINUOUS
370
   35
390
F
  0
LAYER
  5
4B
330
2
100
AcDbSymbolTableRecord
100
AcDbLayerTableRecord
  2
0S-Profile Isolator
 70
    0
 62
   91
  6
CONTINUOUS
370
   50
390
F
  0
LAYER
  5
4C
330
2
100
AcDbSymbolTableRecord
100
AcDbLayerTableRecord
  2
0S-Profile PVC-U
 70
    0
 62
  254
  6
CONTINUOUS
370
   25
390
F
  0
LAYER
  5
4D
330
2
100
AcDbSymbolTableRecord
100
AcDbLayerTableRecord
  2
0S-Shading Aluminium
 70
    0
 62
  252
  6
CONTINUOUS
370
   20
390
F
  0
LAYER
  5
4E
330
2
100
AcDbSymbolTableRecord
100
AcDbLayerTableRecord
  2
0S-Shading Isolator
 70
    0
 62
  103
  6
CONTINUOUS
370
   25
390
F
  0
LAYER
  5
4F
330
2
100
AcDbSymbolTableRecord
100
AcDbLayerTableRecord
  2
0S-Shading PVC-U
 70
    0
 62
  253
  6
CONTINUOUS
370
   13
390
F
  0
LAYER
  5
50
330
2
100
AcDbSymbolTableRecord
100
AcDbLayerTableRecord
  2
DEFPOINTS
 70
    0
 62
    7
  6
CONTINUOUS
290
0
370
   -3
390
F
  0
LAYER
  5
51
330
2
100
AcDbSymbolTableRecord
100
AcDbLayerTableRecord
  2
FANGPUNKTE
 70
    0
 62
  256
  6
CONTINUOUS
370
  100
390
F
  0
ENDTAB
  0
TABLE
  2
STYLE
  5
3
330
0
100
AcDbSymbolTable
 70
    3
  0
STYLE
  5
52
330
2
100
AcDbSymbolTableRecord
100
AcDbTextStyleTableRecord
  2
Standard
 70
    0
 40
0
 41
1
 50
0
 71
    0
 42
1
  3
txt
  4

  0
ENDTAB
  0
TABLE
  2
VIEW
  5
6
330
0
100
AcDbSymbolTable
 70
    0
  0
ENDTAB
  0
TABLE
  2
UCS
  5
7
330
0
100
AcDbSymbolTable
 70
    0
  0
ENDTAB
  0
TABLE
  2
APPID
  5
9
330
0
100
AcDbSymbolTable
 70
    1
  0
APPID
  5
12
330
9
100
AcDbSymbolTableRecord
100
AcDbRegAppTableRecord
  2
ACAD
 70
    0
  0
APPID
  5
53
330
9
100
AcDbSymbolTableRecord
100
AcDbRegAppTableRecord
  2
LibreCad
 70
    0
  0
ENDTAB
  0
TABLE
  2
DIMSTYLE
  5
A
330
0
100
AcDbSymbolTable
 70
    1
100
AcDbDimStyleTable
 71
    1
  0
DIMSTYLE
105
54
330
A
100
AcDbSymbolTableRecord
100
AcDbDimStyleTableRecord
  2
Standard
 70
    0
 40
1
 41
0.18
 42
0.0625
 43
0.38
 44
0.18
 45
0
 46
0
 47
0
 48
0
 49
1
140
0.18
141
0.09
142
0
143
25.4
144
1
145
0
146
1
147
0.09
148
0
 71
    0
 72
    0
 73
    1
 74
    1
 75
    0
 76
    0
 77
    0
 78
    0
 79
    0
170
    0
171
    2
172
    0
173
    0
174
    0
175
    0
176
    0
177
    0
178
    0
179
    0
271
    4
272
    4
273
    2
274
    2
275
    0
276
    0
277
    2
278
   46
279
    0
280
    0
281
    0
282
    0
283
    1
284
    0
285
    0
286
    0
288
    0
289
    3
340
Standard
341

371
   -2
372
   -2
  0
ENDTAB
  0
TABLE
  2
BLOCK_RECORD
  5
1
330
0
100
AcDbSymbolTable
 70
    2
  0
BLOCK_RECORD
  5
1F
330
1
100
AcDbSymbolTableRecord
100
AcDbBlockTableRecord
  2
*Model_Space
 70
    0
280
    1
281
    0
  0
BLOCK_RECORD
  5
1E
330
1
100
AcDbSymbolTableRecord
100
AcDbBlockTableRecord
  2
*Paper_Space
 70
    0
280
    1
281
    0
  0
BLOCK_RECORD
  5
55
330
1
100
AcDbSymbolTableRecord
100
AcDbBlockTableRecord
  2
381960__CEAE08F4_A16E_4144_8168_BB8908B75485_
 70
    0
280
    1
281
    0
  0
BLOCK_RECORD
  5
58
330
1
100
AcDbSymbolTableRecord
100
AcDbBlockTableRecord
  2
398120__CE6BF811_5E59_4BA6_BB72_379DCDD1173E_
 70
    0
280
    1
281
    0
  0
BLOCK_RECORD
  5
5B
330
1
100
AcDbSymbolTableRecord
100
AcDbBlockTableRecord
  2
284683__A13EEFCA_A504_437F_A6C2_D0EDC7EA3DFC___53DE9958_757D_45C2_A124_FBBC7CD3BB5C_
 70
    0
280
    1
281
    0
  0
BLOCK_RECORD
  5
5E
330
1
100
AcDbSymbolTableRecord
100
AcDbBlockTableRecord
  2
284683__539354DE_D317_4AC2_8AFB_6AC17A80A4B3___AE2E302E_A3E2_496D_9E39_D4E8E0329E2F_
 70
    0
280
    1
281
    0
  0
BLOCK_RECORD
  5
61
330
1
100
AcDbSymbolTableRecord
100
AcDbBlockTableRecord
  2
284683__04FF606A_0A57_4530_9DB1_DE3668886C92___77A466A9_B496_4305_B83F_0B5F7033292D_
 70
    0
280
    1
281
    0
  0
BLOCK_RECORD
  5
64
330
1
100
AcDbSymbolTableRecord
100
AcDbBlockTableRecord
  2
284683__44BDE50A_9B96_4A11_A827_B27FD869C2D8___A14B931F_26B5_49CE_8C6A_C9A7F089D132_
 70
    0
280
    1
281
    0
  0
BLOCK_RECORD
  5
67
330
1
100
AcDbSymbolTableRecord
100
AcDbBlockTableRecord
  2
381960__0E699657_352F_4CA2_BEB9_47EE7F2C9AC4_
 70
    0
280
    1
281
    0
  0
BLOCK_RECORD
  5
6A
330
1
100
AcDbSymbolTableRecord
100
AcDbBlockTableRecord
  2
381960__0FC692AF_19FE_41FB_A357_EC00BE1FC95A_
 70
    0
280
    1
281
    0
  0
BLOCK_RECORD
  5
6D
330
1
100
AcDbSymbolTableRecord
100
AcDbBlockTableRecord
  2
398130__6DA5FED2_3960_48D5_96D9_563AD5B5A194_
 70
    0
280
    1
281
    0
  0
ENDTAB
  0
ENDSEC
  0
SECTION
  2
BLOCKS
  0
BLOCK
  5
20
330
1F
100
AcDbEntity
  8
0
100
AcDbBlockBegin
  2
*Model_Space
 70
    0
 10
0
 20
0
 30
0
  3
*Model_Space
  1

  0
ENDBLK
  5
21
330
1F
100
AcDbEntity
  8
0
100
AcDbBlockEnd
  0
BLOCK
  5
1C
330
1B
100
AcDbEntity
  8
0
100
AcDbBlockBegin
  2
*Paper_Space
 70
    0
 10
0
 20
0
 30
0
  3
*Paper_Space
  1

  0
ENDBLK
  5
1D
330
1F
100
AcDbEntity
  8
0
100
AcDbBlockEnd
  0
BLOCK
  5
56
330
55
100
AcDbEntity
  8
0
100
AcDbBlockBegin
  2
381960__CEAE08F4_A16E_4144_8168_BB8908B75485_
 70
    0
 10
0
 20
0
  3
381960__CEAE08F4_A16E_4144_8168_BB8908B75485_
  1

  0
INSERT
  5
70
100
AcDbEntity
  8
0S-Profile Aluminium
  6
ByLayer
 62
  174
370
   -1
100
AcDbBlockReference
  2
398120__CE6BF811_5E59_4BA6_BB72_379DCDD1173E_
 10
0
 20
0
 30
0
 41
1
 42
0.9999999999999999
 43
0
 50
180
 70
    1
 71
    1
 44
0
 45
0
  0
INSERT
  5
71
100
AcDbEntity
  8
0S-Profile PVC-U
  6
ByLayer
 62
  174
370
   -1
100
AcDbBlockReference
  2
284683__A13EEFCA_A504_437F_A6C2_D0EDC7EA3DFC___53DE9958_757D_45C2_A124_FBBC7CD3BB5C_
 10
0
 20
0
 30
0
 41
1
 42
0.9999999999999999
 43
0
 50
180
 70
    1
 71
    1
 44
0
 45
0
  0
INSERT
  5
72
100
AcDbEntity
  8
0S-Profile PVC-U
  6
ByLayer
 62
  174
370
   -1
100
AcDbBlockReference
  2
284683__539354DE_D317_4AC2_8AFB_6AC17A80A4B3___AE2E302E_A3E2_496D_9E39_D4E8E0329E2F_
 10
0
 20
0
 30
0
 41
1
 42
0.9999999999999999
 43
0
 50
180
 70
    1
 71
    1
 44
0
 45
0
  0
INSERT
  5
73
100
AcDbEntity
  8
0S-Profile PVC-U
  6
ByLayer
 62
  174
370
   -1
100
AcDbBlockReference
  2
284683__04FF606A_0A57_4530_9DB1_DE3668886C92___77A466A9_B496_4305_B83F_0B5F7033292D_
 10
0
 20
0
 30
0
 41
1
 42
0.9999999999999999
 43
0
 50
180
 70
    1
 71
    1
 44
0
 45
0
  0
INSERT
  5
74
100
AcDbEntity
  8
0S-Profile PVC-U
  6
ByLayer
 62
  174
370
   -1
100
AcDbBlockReference
  2
284683__44BDE50A_9B96_4A11_A827_B27FD869C2D8___A14B931F_26B5_49CE_8C6A_C9A7F089D132_
 10
0
 20
0
 30
0
 41
1
 42
0.9999999999999999
 43
0
 50
180
 70
    1
 71
    1
 44
0
 45
0
  0
INSERT
  5
75
100
AcDbEntity
  8
0S-Profile Isolator
  6
ByLayer
 62
  174
370
   -1
100
AcDbBlockReference
  2
381960__0E699657_352F_4CA2_BEB9_47EE7F2C9AC4_
 10
0
 20
0
 30
0
 41
1
 42
0.9999999999999999
 43
0
 50
180
 70
    1
 71
    1
 44
0
 45
0
  0
INSERT
  5
76
100
AcDbEntity
  8
0S-Profile Isolator
  6
ByLayer
 62
  174
370
   -1
100
AcDbBlockReference
  2
381960__0FC692AF_19FE_41FB_A357_EC00BE1FC95A_
 10
0
 20
0
 30
0
 41
1
 42
0.9999999999999999
 43
0
 50
180
 70
    1
 71
    1
 44
0
 45
0
  0
INSERT
  5
77
100
AcDbEntity
  8
0S-Profile Aluminium
  6
ByLayer
 62
  174
370
   -1
100
AcDbBlockReference
  2
398130__6DA5FED2_3960_48D5_96D9_563AD5B5A194_
 10
0
 20
0
 30
0
 41
1
 42
0.9999999999999999
 43
0
 50
180
 70
    1
 71
    1
 44
0
 45
0
  0
ENDBLK
  5
57
330
55
100
AcDbEntity
  8
0
100
AcDbBlockEnd
  0
BLOCK
  5
59
330
58
100
AcDbEntity
  8
0
100
AcDbBlockBegin
  2
398120__CE6BF811_5E59_4BA6_BB72_379DCDD1173E_
 70
    0
 10
0
 20
0
  3
398120__CE6BF811_5E59_4BA6_BB72_379DCDD1173E_
  1

  0
LWPOLYLINE
  5
78
100
AcDbEntity
  8
0S-Profile Aluminium
  6
ByLayer
 62
  174
370
   -1
100
AcDbPolyline
 90
    2
 70
    0
 43
0
 10
20.00000000010595
 20
-74.49995422165425
 10
20.00000000010595
 20
-70.50000000011666
  0
ARC
  5
79
100
AcDbEntity
  8
0S-Profile Aluminium
  6
ByLayer
 62
  174
370
   -1
100
AcDbCircle
 10
19.49996948252765
 20
-70.50003051768437
 40
0.5000305185095542
100
AcDbArc
 50
0.003496842154915772
 51
89.99650315597721
  0
LWPOLYLINE
  5
7A
100
AcDbEntity
  8
0S-Profile Aluminium
  6
ByLayer
 62
  174
370
   -1
100
AcDbPolyline
 90
    2
 70
    0
 43
0
 10
19.50000000011104
 20
-70.0000000001061
 10
18.19999694835328
 20
-70.00000000010597
  0
ARC
  5
7B
100
AcDbEntity
  8
0S-Profile Aluminium
  6
ByLayer
 62
  174
370
   -1
100
AcDbCircle
 10
18.1999664289077
 20
-70.49996948345905
 40
0.4999694842845912
100
AcDbArc
 50
89.99650251569238
 51
-179.9930054593597
  0
LWPOLYLINE
  5
7C
100
AcDbEntity
  8
0S-Profile Aluminium
  6
ByLayer
 62
  174
370
   -1
100
AcDbPolyline
 90
    4
 70
    0
 43
0
 10
17.69999694834864
 20
-70.50003051861553
 10
17.69999694834826
 20
-71.00000000010678
 10
18.6999969483483
 20
-71.00000000010644
 10
18.69999694834823
 20
-72.50000000010618
  0
ARC
  5
7D
100
AcDbEntity
  8
0S-Profile Aluminium
  6
ByLayer
 62
  174
370
   -1
100
AcDbCircle
 10
17.69993187325075
 20
-72.49993492500874
 40
1.000065077214721
100
AcDbArc
 50
-89.99627171416557
 51
-0.003728285814404108
  0
LWPOLYLINE
  5
7E
100
AcDbEntity
  8
0S-Profile Aluminium
  6
ByLayer
 62
  174
370
   -1
100
AcDbPolyline
 90
    2
 70
    0
 43
0
 10
17.69999694834861
 20
-73.50000000010621
 10
13.69999694834865
 20
-73.50000000010643
  0
ARC
  5
7F
100
AcDbEntity
  8
0S-Profile Aluminium
  6
ByLayer
 62
  174
370
   -1
100
AcDbCircle
 10
13.70001368624637
 20
-72.49998326220833
 40
1.000016738038177
100
AcDbArc
 50
-179.9990410054264
 51
-90.00095899484587
  0
LWPOLYLINE
  5
80
100
AcDbEntity
  8
0S-Profile Aluminium
  6
ByLayer
 62
  174
370
   -1
100
AcDbPolyline
 90
    4
 70
    0
 43
0
 10
12.69999694834828
 20
-72.50000000010131
 10
12.69999694834828
 20
-71.00000000010631
 10
13.69999694834828
 20
-71.00000000010631
 10
13.69999694834829
 20
-70.50000000010618
  0
ARC
  5
81
100
AcDbEntity
  8
0S-Profile Aluminium
  6
ByLayer
 62
  174
370
   -1
100
AcDbCircle
 10
13.19998621839262
 20
-70.50001073006166
 40
0.5000107300708017
100
AcDbArc
 50
0.001229535728464257
 51
89.99877046405298
  0
LWPOLYLINE
  5
82
100
AcDbEntity
  8
0S-Profile Aluminium
  6
ByLayer
 62
  174
370
   -1
100
AcDbPolyline
 90
    2
 70
    0
 43
0
 10
13.19999694834815
 20
-70.00000000010597
 10
11.89999389659092
 20
-70.00000000010628
  0
ARC
  5
83
100
AcDbEntity
  8
0S-Profile Aluminium
  6
ByLayer
 62
  174
370
   -1
100
AcDbCircle
 10
11.89998357647996
 20
-70.49998967999583
 40
0.4999896799960695
100
AcDbArc
 50
89.9988173779864
 51
-179.9988173780283
  0
LWPOLYLINE
  5
84
100
AcDbEntity
  8
0S-Profile Aluminium
  6
ByLayer
 62
  174
370
   -1
100
AcDbPolyline
 90
    2
 70
    0
 43
0
 10
11.39999389659042
 20
-70.50000000010643
 10
11.39999389659021
 20
-72.50000000010643
  0
ARC
  5
85
100
AcDbEntity
  8
0S-Profile Aluminium
  6
ByLayer
 62
  174
370
   -1
100
AcDbCircle
 10
10.89998573463271
 20
-72.49999183814907
 40
0.5000081620241126
100
AcDbArc
 50
-89.99906472384966
 51
-0.0009352761990014379
  0
LWPOLYLINE
  5
86
100
AcDbEntity
  8
0S-Profile Aluminium
  6
ByLayer
 62
  174
370
   -1
100
AcDbPolyline
 90
    2
 70
    0
 43
0
 10
10.89999389659006
 20
-73.00000000010655
 10
5.499984741322265
 20
-73.00000000010618
  0
ARC
  5
87
100
AcDbEntity
  8
0S-Profile Aluminium
  6
ByLayer
 62
  174
370
   -1
100
AcDbCircle
 10
5.499969481596189
 20
-72.50003051512411
 40
0.4999694852149705
100
AcDbArc
 50
179.9930054594639
 51
-89.99825125747415
  0
LWPOLYLINE
  5
88
100
AcDbEntity
  8
0S-Profile Aluminium
  6
ByLayer
 62
  174
370
   -1
100
AcDbPolyline
 90
    2
 70
    0
 43
0
 10
5.000000000106752
 20
-72.49996947996843
 10
5.000000000106031
 20
-65.69967314122644
  0
ARC
  5
89
100
AcDbEntity
  8
0S-Profile Aluminium
  6
ByLayer
 62
  174
370
   -1
100
AcDbCircle
 10
4.499991838148489
 20
-65.69968130318375
 40
0.5000081620241721
100
AcDbArc
 50
0.0009352761988996602
 51
89.99906472383493
  0
LWPOLYLINE
  5
8A
100
AcDbEntity
  8
0S-Profile Aluminium
  6
ByLayer
 62
  174
370
   -1
100
AcDbPolyline
 90
    3
 70
    0
 43
0
 10
4.500000000105967
 20
-65.19967314122619
 10
2.000000000106009
 20
-65.19968840001538
 10
2.00000000010629
 20
-58.50017020392127
  0
ARC
  5
8B
100
AcDbEntity
  8
0S-Profile Aluminium
  6
ByLayer
 62
  174
370
   -1
100
AcDbCircle
 10
2.525024219977492
 20
-58.00016275945978
 40
0.7250226727270355
100
AcDbArc
 50
136.3989482371448
 51
-136.3980750144304
  0
LWPOLYLINE
  5
8C
100
AcDbEntity
  8
0S-Profile Aluminium
  6
ByLayer
 62
  174
370
   -1
100
AcDbPolyline
 90
    2
 70
    0
 43
0
 10
1.999992379748093
 20
-57.5001633167465
 10
2.00000000010612
 20
-50.70000762950121
  0
ARC
  5
8D
100
AcDbEntity
  8
0S-Profile Aluminium
  6
ByLayer
 62
  174
370
   -1
100
AcDbCircle
 10
2.078836446649177
 20
-50.43248703750807
 40
0.2788950563274408
100
AcDbArc
 50
178.8354106259018
 51
-106.4198764194931
  0
LWPOLYLINE
  5
8E
100
AcDbEntity
  8
0S-Profile Aluminium
  6
ByLayer
 62
  174
370
   -1
100
AcDbPolyline
 90
    2
 70
    0
 43
0
 10
1.799999000106112
 20
-50.42681862950971
 10
1.799999000106126
 20
-49.97322462950972
  0
ARC
  5
8F
100
AcDbEntity
  8
0S-Profile Aluminium
  6
ByLayer
 62
  174
370
   -1
100
AcDbCircle
 10
2.078867095749295
 20
-49.96756397003265
 40
0.2789255417371526
100
AcDbArc
 50
106.4245945553536
 51
-178.8371299271119
  0
LWPOLYLINE
  5
90
100
AcDbEntity
  8
0S-Profile Aluminium
  6
ByLayer
 62
  174
370
   -1
100
AcDbPolyline
 90
    2
 70
    0
 43
0
 10
2.00000000010612
 20
-49.70002062950971
 10
2.000000000106123
 20
-47.8200096295012
  0
ARC
  5
91
100
AcDbEntity
  8
0S-Profile Aluminium
  6
ByLayer
 62
  174
370
   -1
100
AcDbCircle
 10
1.700000000106105
 20
-47.8200096295012
 40
0.2999999999999945
100
AcDbArc
 50
-3.246091501560079e-14
 51
89.99999999999994
  0
LWPOLYLINE
  5
92
100
AcDbEntity
  8
0S-Profile Aluminium
  6
ByLayer
 62
  174
370
   -1
100
AcDbPolyline
 90
    2
 70
    0
 43
0
 10
1.700000000106122
 20
-47.52000962950119
 10
0.7200256810633476
 20
-47.5200096295012
  0
ARC
  5
93
100
AcDbEntity
  8
0S-Profile Aluminium
  6
ByLayer
 62
  174
370
   -1
100
AcDbCircle
 10
0.7200256810633476
 20
-47.8200096295012
 40
0.300000000000012
100
AcDbArc
 50
89.99999999999994
 51
180
  0
LWPOLYLINE
  5
94
100
AcDbEntity
  8
0S-Profile Aluminium
  6
ByLayer
 62
  174
370
   -1
100
AcDbPolyline
 90
    2
 70
    0
 43
0
 10
0.4200256810633363
 20
-47.82000962950121
 10
0.4200256810633149
 20
-50.58000762950121
  0
ARC
  5
95
100
AcDbEntity
  8
0S-Profile Aluminium
  6
ByLayer
 62
  174
370
   -1
100
AcDbCircle
 10
0.3000256810633388
 20
-50.58000762950121
 40
0.1199999999999842
100
AcDbArc
 50
-90.00000000000004
 51
-3.246091501560079e-14
  0
LWPOLYLINE
  5
96
100
AcDbEntity
  8
0S-Profile Aluminium
  6
ByLayer
 62
  174
370
   -1
100
AcDbPolyline
 90
    2
 70
    0
 43
0
 10
0.3000256810633317
 20
-50.70000762950119
 10
-3.999999999894001
 20
-50.70000762950066
  0
ARC
  5
97
100
AcDbEntity
  8
0S-Profile Aluminium
  6
ByLayer
 62
  174
370
   -1
100
AcDbCircle
 10
-4.000010320004819
 20
-50.20001794961159
 40
0.4999896799955668
100
AcDbArc
 50
179.9988173777201
 51
-89.99881737800433
  0
LWPOLYLINE
  5
98
100
AcDbEntity
  8
0S-Profile Aluminium
  6
ByLayer
 62
  174
370
   -1
100
AcDbPolyline
 90
    3
 70
    0
 43
0
 10
-4.49999999989388
 20
-50.200007629501
 10
-4.49999999989382
 20
-49.49999542247036
 10
-3.111755370987311
 20
-47.09548492442244
  0
ARC
  5
99
100
AcDbEntity
  8
0S-Profile Aluminium
  6
ByLayer
 62
  174
370
   -1
100
AcDbCircle
 10
-3.23870596653293
 20
-47.03879453790539
 40
0.1390332824644536
100
AcDbArc
 50
-24.06337541540909
 51
86.60974348814726
  0
LWPOLYLINE
  5
9A
100
AcDbEntity
  8
0S-Profile Aluminium
  6
ByLayer
 62
  174
370
   -1
100
AcDbPolyline
 90
    2
 70
    0
 43
0
 10
-3.230484008682964
 20
-46.90000457774273
 10
-4.599999999893356
 20
-46.90000457774315
  0
ARC
  5
9B
100
AcDbEntity
  8
0S-Profile Aluminium
  6
ByLayer
 62
  174
370
   -1
100
AcDbCircle
 10
-4.599999999893768
 20
-46.40000457774277
 40
0.5000000000003659
100
AcDbArc
 50
180
 51
-89.99999999995117
  0
LWPOLYLINE
  5
9C
100
AcDbEntity
  8
0S-Profile Aluminium
  6
ByLayer
 62
  174
370
   -1
100
AcDbPolyline
 90
    2
 70
    0
 43
0
 10
-5.099999999894141
 20
-46.40000457774276
 10
-5.099999999893662
 20
-44.30290475068993
  0
ARC
  5
9D
100
AcDbEntity
  8
0S-Profile Aluminium
  6
ByLayer
 62
  174
370
   -1
100
AcDbCircle
 10
-7.099999999893477
 20
-44.30290475069003
 40
1.999999999999801
100
AcDbArc
 50
-3.246091501560079e-14
 51
90.00000000000765
  0
LWPOLYLINE
  5
9E
100
AcDbEntity
  8
0S-Profile Aluminium
  6
ByLayer
 62
  174
370
   -1
100
AcDbPolyline
 90
    2
 70
    0
 43
0
 10
-7.099999999893747
 20
-42.30290475069021
 10
-43.70000305165077
 20
-42.30290475069044
  0
ARC
  5
9F
100
AcDbEntity
  8
0S-Profile Aluminium
  6
ByLayer
 62
  174
370
   -1
100
AcDbCircle
 10
-43.70000305165146
 20
-44.30290475069019
 40
1.999999999999773
100
AcDbArc
 50
89.99999999998039
 51
180
  0
LWPOLYLINE
  5
A0
100
AcDbEntity
  8
0S-Profile Aluminium
  6
ByLayer
 62
  174
370
   -1
100
AcDbPolyline
 90
    2
 70
    0
 43
0
 10
-45.70000305165123
 20
-44.30290475069019
 10
-45.70000305165141
 20
-46.40000457774359
  0
ARC
  5
A1
100
AcDbEntity
  8
0S-Profile Aluminium
  6
ByLayer
 62
  174
370
   -1
100
AcDbCircle
 10
-46.20000305165123
 20
-46.40000457774337
 40
0.4999999999998224
100
AcDbArc
 50
-90.00000000000082
 51
-3.246091501560079e-14
  0
LWPOLYLINE
  5
A2
100
AcDbEntity
  8
0S-Profile Aluminium
  6
ByLayer
 62
  174
370
   -1
100
AcDbPolyline
 90
    2
 70
    0
 43
0
 10
-46.20000305165124
 20
-46.9000045777432
 10
-47.56953430165215
 20
-46.90000457774293
  0
ARC
  5
A3
100
AcDbEntity
  8
0S-Profile Aluminium
  6
ByLayer
 62
  174
370
   -1
100
AcDbCircle
 10
-47.561297532464
 20
-47.03880353384777
 40
0.1390431392858389
100
AcDbArc
 50
93.39612994963194
 51
-155.9424980219129
  0
LWPOLYLINE
  5
A4
100
AcDbEntity
  8
0S-Profile Aluminium
  6
ByLayer
 62
  174
370
   -1
100
AcDbPolyline
 90
    3
 70
    0
 43
0
 10
-47.68826293934688
 20
-47.09548492442285
 10
-46.30001831044105
 20
-49.49999542246996
 10
-46.3000183104408
 20
-50.2000076295113
  0
ARC
  5
A5
100
AcDbEntity
  8
0S-Profile Aluminium
  6
ByLayer
 62
  174
370
   -1
100
AcDbCircle
 10
-46.80000305374688
 20
-50.20002288968707
 40
0.4999847435389668
100
AcDbArc
 50
-90.00699432653582
 51
0.001748740815888245
  0
LWPOLYLINE
  5
A6
100
AcDbEntity
  8
0S-Profile Aluminium
  6
ByLayer
 62
  174
370
   -1
100
AcDbPolyline
 90
    2
 70
    0
 43
0
 10
-46.80006408889781
 20
-50.70000762950064
 10
-51.10002873260851
 20
-50.6999867869379
  0
ARC
  5
A7
100
AcDbEntity
  8
0S-Profile Aluminium
  6
ByLayer
 62
  174
370
   -1
100
AcDbCircle
 10
-51.10002873260852
 20
-50.57998678693789
 40
0.1200000000000045
100
AcDbArc
 50
180
 51
-90.00000000000004
  0
LWPOLYLINE
  5
A8
100
AcDbEntity
  8
0S-Profile Aluminium
  6
ByLayer
 62
  174
370
   -1
100
AcDbPolyline
 90
    2
 70
    0
 43
0
 10
-51.22002873260851
 20
-50.5799867869379
 10
-51.2200287326085
 20
-47.81998878693791
  0
ARC
  5
A9
100
AcDbEntity
  8
0S-Profile Aluminium
  6
ByLayer
 62
  174
370
   -1
100
AcDbCircle
 10
-51.52002873260851
 20
-47.81998878693789
 40
0.3000000000000043
100
AcDbArc
 50
-3.246091501560079e-14
 51
89.99999999999994
  0
LWPOLYLINE
  5
AA
100
AcDbEntity
  8
0S-Profile Aluminium
  6
ByLayer
 62
  174
370
   -1
100
AcDbPolyline
 90
    2
 70
    0
 43
0
 10
-51.5200287326085
 20
-47.5199887869379
 10
-52.5000030516513
 20
-47.51998878693789
  0
ARC
  5
AB
100
AcDbEntity
  8
0S-Profile Aluminium
  6
ByLayer
 62
  174
370
   -1
100
AcDbCircle
 10
-52.5000030516513
 20
-47.81998878693789
 40
0.3000000000000114
100
AcDbArc
 50
89.99999999999994
 51
180
  0
LWPOLYLINE
  5
AC
100
AcDbEntity
  8
0S-Profile Aluminium
  6
ByLayer
 62
  174
370
   -1
100
AcDbPolyline
 90
    2
 70
    0
 43
0
 10
-52.80000305165129
 20
-47.81998878693788
 10
-52.80000305165129
 20
-49.69999978694643
  0
ARC
  5
AD
100
AcDbEntity
  8
0S-Profile Aluminium
  6
ByLayer
 62
  174
370
   -1
100
AcDbCircle
 10
-52.87887014729446
 20
-49.96754312746936
 40
0.2789255417371379
100
AcDbArc
 50
-1.162870072888121
 51
73.57540544464328
  0
LWPOLYLINE
  5
AE
100
AcDbEntity
  8
0S-Profile Aluminium
  6
ByLayer
 62
  174
370
   -1
100
AcDbPolyline
 90
    2
 70
    0
 43
0
 10
-52.60000205165132
 20
-49.97320378694641
 10
-52.6000020516513
 20
-50.42679778694642
  0
ARC
  5
AF
100
AcDbEntity
  8
0S-Profile Aluminium
  6
ByLayer
 62
  174
370
   -1
100
AcDbCircle
 10
-52.87883949819434
 20
-50.43246619494476
 40
0.2788950563274426
100
AcDbArc
 50
-73.58012358050611
 51
1.164589374096856
  0
LWPOLYLINE
  5
B0
100
AcDbEntity
  8
0S-Profile Aluminium
  6
ByLayer
 62
  174
370
   -1
100
AcDbPolyline
 90
    2
 70
    0
 43
0
 10
-52.8000030516513
 20
-50.69998678693788
 10
-52.8000030516522
 20
-59.50001525889511
  0
ARC
  5
B1
100
AcDbEntity
  8
0S-Profile Aluminium
  6
ByLayer
 62
  174
370
   -1
100
AcDbCircle
 10
-51.80000305153536
 20
-59.50001525889493
 40
1.000000000116842
100
AcDbArc
 50
180
 51
-89.99912573517483
  0
LWPOLYLINE
  5
B2
100
AcDbEntity
  8
0S-Profile Aluminium
  6
ByLayer
 62
  174
370
   -1
100
AcDbPolyline
 90
    3
 70
    0
 43
0
 10
-51.79998779273561
 20
-60.50001525889536
 10
-51.30000305165175
 20
-60.50001525889489
 10
-51.30000305165173
 20
-58.00001525889558
  0
ARC
  5
B3
100
AcDbEntity
  8
0S-Profile Aluminium
  6
ByLayer
 62
  174
370
   -1
100
AcDbCircle
 10
-50.29991565417837
 20
-58.00010265635828
 40
1.000087401292177
100
AcDbArc
 50
90.0050138983212
 51
179.9949929317879
  0
LWPOLYLINE
  5
B4
100
AcDbEntity
  8
0S-Profile Aluminium
  6
ByLayer
 62
  174
370
   -1
100
AcDbPolyline
 90
    2
 70
    0
 43
0
 10
-50.30000317086073
 20
-57.00001525889535
 10
-48.99995434273613
 20
-57.00001525889569
  0
ARC
  5
B5
100
AcDbEntity
  8
0S-Profile Aluminium
  6
ByLayer
 62
  174
370
   -1
100
AcDbCircle
 10
-49.00001314046467
 20
-58.00007405662429
 40
1.000058799457079
100
AcDbArc
 50
0.003368663974393072
 51
89.99663133638241
  0
LWPOLYLINE
  5
B6
100
AcDbEntity
  8
0S-Profile Aluminium
  6
ByLayer
 62
  174
370
   -1
100
AcDbPolyline
 90
    2
 70
    0
 43
0
 10
-47.9999543427361
 20
-58.00001525889328
 10
-47.99995434273623
 20
-65.00001526055669
  0
ARC
  5
B7
100
AcDbEntity
  8
0S-Profile Aluminium
  6
ByLayer
 62
  174
370
   -1
100
AcDbCircle
 10
-48.52492478348504
 20
-65.49998366338346
 40
0.7249568038753011
100
AcDbArc
 50
-43.60785378746193
 51
43.60262178277227
  0
LWPOLYLINE
  5
B8
100
AcDbEntity
  8
0S-Profile Aluminium
  6
ByLayer
 62
  174
370
   -1
100
AcDbPolyline
 90
    2
 70
    0
 43
0
 10
-47.99999999989375
 20
-66.00000000217328
 10
-47.99999999989391
 20
-72.0000000001062
  0
ARC
  5
B9
100
AcDbEntity
  8
0S-Profile Aluminium
  6
ByLayer
 62
  174
370
   -1
100
AcDbCircle
 10
-49.00005492730682
 20
-71.99994507269318
 40
1.000054928921323
100
AcDbArc
 50
-89.99685306394899
 51
-0.003146936002591412
  0
LWPOLYLINE
  5
BA
100
AcDbEntity
  8
0S-Profile Aluminium
  6
ByLayer
 62
  174
370
   -1
100
AcDbPolyline
 90
    2
 70
    0
 43
0
 10
-48.99999999989448
 20
-73.00000000010608
 10
-50.30000305165201
 20
-73.00000000010641
  0
ARC
  5
BB
100
AcDbEntity
  8
0S-Profile Aluminium
  6
ByLayer
 62
  174
370
   -1
100
AcDbCircle
 10
-50.29997722364431
 20
-71.99997417209894
 40
1.000025828341023
100
AcDbArc
 50
-179.9985202026309
 51
-90.00147979761437
  0
LWPOLYLINE
  5
BC
100
AcDbEntity
  8
0S-Profile Aluminium
  6
ByLayer
 62
  174
370
   -1
100
AcDbPolyline
 90
    6
 70
    0
 43
0
 10
-51.3000030516518
 20
-72.00000000010235
 10
-51.30000305165179
 20
-70.50000000010618
 10
-51.89999389637811
 20
-70.50000000010651
 10
-52.99999999989374
 20
-71.60000610362179
 10
-52.99999999989418
 20
-75.00000000010654
 10
19.50000000011158
 20
-75.00000000010643
  0
ARC
  5
BD
100
AcDbEntity
  8
0S-Profile Aluminium
  6
ByLayer
 62
  174
370
   -1
100
AcDbCircle
 10
19.50001526029225
 20
-74.50001525680022
 40
0.4999847435390627
100
AcDbArc
 50
-90.00174874125405
 51
0.006994325956070965
  0
ARC
  5
BE
100
AcDbEntity
  8
0S-Profile Aluminium
  6
ByLayer
 62
  174
370
   -1
100
AcDbCircle
 10
2.799996947882221
 20
-72.50000305139838
 40
0.499984741909218
100
AcDbArc
 50
270.0017485824311
 51
0.001748527176954608
  0
LWPOLYLINE
  5
BF
100
AcDbEntity
  8
0S-Profile Aluminium
  6
ByLayer
 62
  174
370
   -1
100
AcDbPolyline
 90
    2
 70
    0
 43
0
 10
2.800012206676897
 20
-72.99998779307477
 10
-45.79995434273154
 20
-72.99998779307511
  0
ARC
  5
C0
100
AcDbEntity
  8
0S-Profile Aluminium
  6
ByLayer
 62
  174
370
   -1
100
AcDbCircle
 10
-45.79998486217784
 20
-72.50001830972289
 40
0.4999694842836888
100
AcDbArc
 50
179.9930054594118
 51
270.0034974843906
  0
LWPOLYLINE
  5
C1
100
AcDbEntity
  8
0S-Profile Aluminium
  6
ByLayer
 62
  174
370
   -1
100
AcDbPolyline
 90
    2
 70
    0
 43
0
 10
-46.29995434273602
 20
-72.49995727456678
 10
-46.29995434273599
 20
-56.80001068125826
  0
ARC
  5
C2
100
AcDbEntity
  8
0S-Profile Aluminium
  6
ByLayer
 62
  174
370
   -1
100
AcDbCircle
 10
-47.79995434273582
 20
-56.80001068125826
 40
1.499999999999829
100
AcDbArc
 50
-3.246091501560079e-14
 51
90.00000000000368
  0
LWPOLYLINE
  5
C3
100
AcDbEntity
  8
0S-Profile Aluminium
  6
ByLayer
 62
  174
370
   -1
100
AcDbPolyline
 90
    2
 70
    0
 43
0
 10
-47.79995434273592
 20
-55.30001068125842
 10
-50.30000305165154
 20
-55.30001068125851
  0
ARC
  5
C4
100
AcDbEntity
  8
0S-Profile Aluminium
  6
ByLayer
 62
  174
370
   -1
100
AcDbCircle
 10
-50.30000305165171
 20
-54.80001068125874
 40
0.4999999999997655
100
AcDbArc
 50
180
 51
270.0000000000203
  0
LWPOLYLINE
  5
C5
100
AcDbEntity
  8
0S-Profile Aluminium
  6
ByLayer
 62
  174
370
   -1
100
AcDbPolyline
 90
    2
 70
    0
 43
0
 10
-50.80000305165149
 20
-54.80001068125877
 10
-50.80000305165176
 20
-52.90001068125871
  0
ARC
  5
C6
100
AcDbEntity
  8
0S-Profile Aluminium
  6
ByLayer
 62
  174
370
   -1
100
AcDbCircle
 10
-50.30000305165217
 20
-52.9000106812587
 40
0.4999999999996021
100
AcDbArc
 50
89.99999999996258
 51
180
  0
LWPOLYLINE
  5
C7
100
AcDbEntity
  8
0S-Profile Aluminium
  6
ByLayer
 62
  174
370
   -1
100
AcDbPolyline
 90
    2
 70
    0
 43
0
 10
-50.30000305165186
 20
-52.40001068125912
 10
-45.00001831044421
 20
-52.40001068125875
  0
ARC
  5
C8
100
AcDbEntity
  8
0S-Profile Aluminium
  6
ByLayer
 62
  174
370
   -1
100
AcDbCircle
 10
-45.00001831044418
 20
-51.40001068125883
 40
0.9999999999999289
100
AcDbArc
 50
-90.00000000000126
 51
-0.0001650435222246885
  0
LWPOLYLINE
  5
C9
100
AcDbEntity
  8
0S-Profile Aluminium
  6
ByLayer
 62
  174
370
   -1
100
AcDbPolyline
 90
    2
 70
    0
 43
0
 10
-44.00001831044841
 20
-51.40001356183186
 10
-44.00000305165123
 20
-44.50287423311114
  0
ARC
  5
CA
100
AcDbEntity
  8
0S-Profile Aluminium
  6
ByLayer
 62
  174
370
   -1
100
AcDbCircle
 10
-43.49999232057917
 20
-44.5029154833486
 40
0.5000107327736103
100
AcDbArc
 50
90.00122966388037
 51
179.9952731724382
  0
LWPOLYLINE
  5
CB
100
AcDbEntity
  8
0S-Profile Aluminium
  6
ByLayer
 62
  174
370
   -1
100
AcDbPolyline
 90
    2
 70
    0
 43
0
 10
-43.50000305165121
 20
-44.00290475069015
 10
-7.299999999893938
 20
-44.00290475068992
  0
ARC
  5
CC
100
AcDbEntity
  8
0S-Profile Aluminium
  6
ByLayer
 62
  174
370
   -1
100
AcDbCircle
 10
-7.300010730966932
 20
-44.50291548334956
 40
0.50001073277478
100
AcDbArc
 50
0.004726827407647123
 51
89.99877033601136
  0
LWPOLYLINE
  5
CD
100
AcDbEntity
  8
0S-Profile Aluminium
  6
ByLayer
 62
  174
370
   -1
100
AcDbPolyline
 90
    2
 70
    0
 43
0
 10
-6.799999999893682
 20
-44.50287423311308
 10
-6.799984741113089
 20
-51.40001068125741
  0
ARC
  5
CE
100
AcDbEntity
  8
0S-Profile Aluminium
  6
ByLayer
 62
  174
370
   -1
100
AcDbCircle
 10
-5.799986788268924
 20
-51.40001272841462
 40
0.9999979528462575
100
AcDbArc
 50
179.9998827062908
 51
-89.99988270593597
  0
LWPOLYLINE
  5
CF
100
AcDbEntity
  8
0S-Profile Aluminium
  6
ByLayer
 62
  174
370
   -1
100
AcDbPolyline
 90
    2
 70
    0
 43
0
 10
-5.799984741105497
 20
-52.40001068125881
 10
-0.2000032606901918
 20
-52.40001068125856
  0
ARC
  5
D0
100
AcDbEntity
  8
0S-Profile Aluminium
  6
ByLayer
 62
  174
370
   -1
100
AcDbCircle
 10
-0.200003260689904
 20
-52.90001068125882
 40
0.5000000000002652
100
AcDbArc
 50
360
 51
90.00000000003092
  0
LWPOLYLINE
  5
D1
100
AcDbEntity
  8
0S-Profile Aluminium
  6
ByLayer
 62
  174
370
   -1
100
AcDbPolyline
 90
    6
 70
    0
 43
0
 10
0.2999967393103589
 20
-52.90001068125865
 10
0.2999967393104654
 20
-54.20015538540126
 10
-0.5000076202521839
 20
-55.00015974496398
 10
-0.5000076202521235
 20
-61.00016574332643
 10
0.2999967393105969
 20
-61.80017010288898
 10
0.2999818985836527
 20
-65.8996764020165
  0
ARC
  5
D2
100
AcDbEntity
  8
0S-Profile Aluminium
  6
ByLayer
 62
  174
370
   -1
100
AcDbCircle
 10
1.29997005415332
 20
-65.89967277868649
 40
0.9999881555762453
100
AcDbArc
 50
-179.9997923960238
 51
-89.99933333245696
  0
LWPOLYLINE
  5
D3
100
AcDbEntity
  8
0S-Profile Aluminium
  6
ByLayer
 62
  174
370
   -1
100
AcDbPolyline
 90
    2
 70
    0
 43
0
 10
1.299981689559147
 20
-66.89966093419503
 10
2.799981689558521
 20
-66.89966093419517
  0
ARC
  5
D4
100
AcDbEntity
  8
0S-Profile Aluminium
  6
ByLayer
 62
  174
370
   -1
100
AcDbCircle
 10
2.799992009669239
 20
-67.39965061419142
 40
0.4999896801027455
100
AcDbArc
 50
359.9988173780283
 51
90.00118262198727
  0
LWPOLYLINE
  5
D5
100
AcDbEntity
  8
0S-Profile Aluminium
  6
ByLayer
 62
  174
370
   -1
100
AcDbPolyline
 90
    2
 70
    0
 43
0
 10
3.299981689665472
 20
-67.39966093430179
 10
3.299981689558635
 20
-72.49998779308586
  0
HATCH
  5
D6
100
AcDbEntity
  8
0S-Shading Aluminium
  6
ByLayer
 62
  174
370
   -1
100
AcDbHatch
 10
0
 20
0
 30
0
210
0
220
0
230
1
  2
SOLID
 70
    1
 71
    0
 91
    2
 92
    0
 93
   82
 72
    1
 10
20.00000000010595
 20
-74.49995422165425
 11
20.00000000010595
 21
-70.50000000011666
 72
    2
 10
19.49996948252765
 20
-70.50003051768437
 40
0.5000305185095606
 50
0.003496842154915775
 51
89.99650315597721
 73
    1
 72
    1
 10
19.50000000011104
 20
-70.0000000001061
 11
18.19999694835328
 21
-70.00000000010597
 72
    2
 10
18.1999664289077
 20
-70.49996948345905
 40
0.4999694842845764
 50
89.99650251569238
 51
180.0069945406402
 73
    1
 72
    1
 10
17.69999694834864
 20
-70.50003051861553
 11
17.69999694834826
 21
-71.00000000010678
 72
    1
 10
17.69999694834826
 20
-71.00000000010678
 11
18.6999969483483
 21
-71.00000000010644
 72
    1
 10
18.6999969483483
 20
-71.00000000010644
 11
18.69999694834823
 21
-72.50000000010618
 72
    2
 10
17.69993187325075
 20
-72.49993492500874
 40
1.000065077214713
 50
0.003728285814295313
 51
89.99627171416556
 73
    0
 72
    1
 10
17.69999694834861
 20
-73.50000000010621
 11
13.69999694834865
 21
-73.50000000010643
 72
    2
 10
13.70001368624637
 20
-72.49998326220833
 40
1.000016738038172
 50
90.00095899484577
 51
179.9990410054264
 73
    0
 72
    1
 10
12.69999694834828
 20
-72.50000000010131
 11
12.69999694834828
 21
-71.00000000010631
 72
    1
 10
12.69999694834828
 20
-71.00000000010631
 11
13.69999694834828
 21
-71.00000000010631
 72
    1
 10
13.69999694834828
 20
-71.00000000010631
 11
13.69999694834829
 21
-70.50000000010618
 72
    2
 10
13.19998621839262
 20
-70.50001073006166
 40
0.5000107300708053
 50
0.00122953572846426
 51
89.99877046405298
 73
    1
 72
    1
 10
13.19999694834815
 20
-70.00000000010597
 11
11.89999389659092
 21
-70.00000000010628
 72
    2
 10
11.89998357647996
 20
-70.49998967999583
 40
0.4999896799960634
 50
89.9988173779864
 51
180.0011826219717
 73
    1
 72
    1
 10
11.39999389659042
 20
-70.50000000010643
 11
11.39999389659021
 21
-72.50000000010643
 72
    2
 10
10.89998573463271
 20
-72.49999183814907
 40
0.5000081620241051
 50
0.0009352761989180881
 51
89.99906472384963
 73
    0
 72
    1
 10
10.89999389659006
 20
-73.00000000010655
 11
5.499984741322265
 21
-73.00000000010618
 72
    2
 10
5.499969481596189
 20
-72.50003051512411
 40
0.4999694852149636
 50
89.99825125747408
 51
180.0069945405361
 73
    0
 72
    1
 10
5.000000000106752
 20
-72.49996947996843
 11
5.000000000106031
 21
-65.69967314122644
 72
    2
 10
4.499991838148489
 20
-65.69968130318375
 40
0.500008162024169
 50
0.0009352761988996633
 51
89.99906472383493
 73
    1
 72
    1
 10
4.500000000105967
 20
-65.19967314122619
 11
2.000000000106009
 21
-65.19968840001538
 72
    1
 10
2.000000000106009
 20
-65.19968840001538
 11
2.00000000010629
 21
-58.50017020392127
 72
    2
 10
2.525024219977492
 20
-58.00016275945978
 40
0.725022672727051
 50
136.3980750144304
 51
223.6010517628551
 73
    0
 72
    1
 10
1.999992379748093
 20
-57.5001633167465
 11
2.00000000010612
 21
-50.70000762950121
 72
    2
 10
2.078836446649177
 20
-50.43248703750807
 40
0.2788950563274398
 50
106.4198764194932
 51
181.1645893740982
 73
    0
 72
    1
 10
1.799999000106112
 20
-50.42681862950971
 11
1.799999000106126
 21
-49.97322462950972
 72
    2
 10
2.078867095749295
 20
-49.96756397003265
 40
0.2789255417371506
 50
178.8371299271118
 51
253.5754054446463
 73
    0
 72
    1
 10
2.00000000010612
 20
-49.70002062950971
 11
2.000000000106123
 21
-47.8200096295012
 72
    2
 10
1.700000000106105
 20
-47.8200096295012
 40
0.3000000000000043
 50
359.9999999999999
 51
89.99999999999994
 73
    1
 72
    1
 10
1.700000000106122
 20
-47.52000962950119
 11
0.7200256810633476
 21
-47.5200096295012
 72
    2
 10
0.7200256810633476
 20
-47.8200096295012
 40
0.3000000000000114
 50
89.99999999999994
 51
180
 73
    1
 72
    1
 10
0.4200256810633363
 20
-47.82000962950121
 11
0.4200256810633149
 21
-50.58000762950121
 72
    2
 10
0.3000256810633388
 20
-50.58000762950121
 40
0.1199999999999903
 50
359.9999999999999
 51
89.99999999999994
 73
    0
 72
    1
 10
0.3000256810633317
 20
-50.70000762950119
 11
-3.999999999894001
 21
-50.70000762950066
 72
    2
 10
-4.000010320004819
 20
-50.20001794961159
 40
0.4999896799955688
 50
89.99881737800422
 51
180.0011826222798
 73
    0
 72
    1
 10
-4.49999999989388
 20
-50.200007629501
 11
-4.49999999989382
 21
-49.49999542247036
 72
    1
 10
-4.49999999989382
 20
-49.49999542247036
 11
-3.111755370987311
 21
-47.09548492442244
 72
    2
 10
-3.23870596653293
 20
-47.03879453790539
 40
0.1390332824644504
 50
335.9366245845909
 51
86.60974348814726
 73
    1
 72
    1
 10
-3.230484008682964
 20
-46.90000457774273
 11
-4.599999999893356
 21
-46.90000457774315
 72
    2
 10
-4.599999999893768
 20
-46.40000457774277
 40
0.500000000000366
 50
89.9999999999512
 51
180
 73
    0
 72
    1
 10
-5.099999999894141
 20
-46.40000457774276
 11
-5.099999999893662
 21
-44.30290475068993
 72
    2
 10
-7.099999999893477
 20
-44.30290475069003
 40
1.999999999999808
 50
359.9999999999999
 51
90.00000000000765
 73
    1
 72
    1
 10
-7.099999999893747
 20
-42.30290475069021
 11
-43.70000305165077
 21
-42.30290475069044
 72
    2
 10
-43.70000305165146
 20
-44.30290475069019
 40
1.999999999999765
 50
89.99999999998039
 51
180
 73
    1
 72
    1
 10
-45.70000305165123
 20
-44.30290475069019
 11
-45.70000305165141
 21
-46.40000457774359
 72
    2
 10
-46.20000305165123
 20
-46.40000457774337
 40
0.4999999999998135
 50
359.9999999999999
 51
90.00000000000077
 73
    0
 72
    1
 10
-46.20000305165124
 20
-46.9000045777432
 11
-47.56953430165215
 21
-46.90000457774293
 72
    2
 10
-47.561297532464
 20
-47.03880353384777
 40
0.1390431392858201
 50
93.39612994963194
 51
204.057501978087
 73
    1
 72
    1
 10
-47.68826293934688
 20
-47.09548492442285
 11
-46.30001831044105
 21
-49.49999542246996
 72
    1
 10
-46.30001831044105
 20
-49.49999542246996
 11
-46.3000183104408
 21
-50.2000076295113
 72
    2
 10
-46.80000305374688
 20
-50.20002288968707
 40
0.4999847435389675
 50
359.9982512591841
 51
90.00699432653582
 73
    0
 72
    1
 10
-46.80006408889781
 20
-50.70000762950064
 11
-51.10002873260851
 21
-50.6999867869379
 72
    2
 10
-51.10002873260852
 20
-50.57998678693789
 40
0.1200000000000045
 50
89.99999999999994
 51
180
 73
    0
 72
    1
 10
-51.22002873260851
 20
-50.5799867869379
 11
-51.2200287326085
 21
-47.81998878693791
 72
    2
 10
-51.52002873260851
 20
-47.81998878693789
 40
0.2999999999999971
 50
359.9999999999999
 51
89.99999999999994
 73
    1
 72
    1
 10
-51.5200287326085
 20
-47.5199887869379
 11
-52.5000030516513
 21
-47.51998878693789
 72
    2
 10
-52.5000030516513
 20
-47.81998878693789
 40
0.2999999999999971
 50
89.99999999999994
 51
180
 73
    1
 72
    1
 10
-52.80000305165129
 20
-47.81998878693788
 11
-52.80000305165129
 21
-49.69999978694643
 72
    2
 10
-52.87887014729446
 20
-49.96754312746936
 40
0.2789255417371514
 50
286.4245945553567
 51
1.162870072888063
 73
    0
 72
    1
 10
-52.60000205165132
 20
-49.97320378694641
 11
-52.6000020516513
 21
-50.42679778694642
 72
    2
 10
-52.87883949819434
 20
-50.43246619494476
 40
0.2788950563274306
 50
358.8354106259031
 51
73.58012358050604
 73
    0
 72
    1
 10
-52.8000030516513
 20
-50.69998678693788
 11
-52.8000030516522
 21
-59.50001525889511
 72
    2
 10
-51.80000305153536
 20
-59.50001525889493
 40
1.000000000116848
 50
180
 51
270.0008742648251
 73
    1
 72
    1
 10
-51.79998779273561
 20
-60.50001525889536
 11
-51.30000305165175
 21
-60.50001525889489
 72
    1
 10
-51.30000305165175
 20
-60.50001525889489
 11
-51.30000305165173
 21
-58.00001525889558
 72
    2
 10
-50.29991565417837
 20
-58.00010265635828
 40
1.000087401292182
 50
180.005007068212
 51
269.9949861016788
 73
    0
 72
    1
 10
-50.30000317086073
 20
-57.00001525889535
 11
-48.99995434273613
 21
-57.00001525889569
 72
    2
 10
-49.00001314046467
 20
-58.00007405662429
 40
1.00005879945709
 50
270.0033686636176
 51
359.9966313360255
 73
    0
 72
    1
 10
-47.9999543427361
 20
-58.00001525889328
 11
-47.99995434273623
 21
-65.00001526055669
 72
    2
 10
-48.52492478348504
 20
-65.49998366338346
 40
0.7249568038753234
 50
316.3973782172276
 51
43.60785378746185
 73
    0
 72
    1
 10
-47.99999999989375
 20
-66.00000000217328
 11
-47.99999999989391
 21
-72.0000000001062
 72
    2
 10
-49.00005492730682
 20
-71.99994507269318
 40
1.000054928921324
 50
0.003146936002457173
 51
89.99685306394885
 73
    0
 72
    1
 10
-48.99999999989448
 20
-73.00000000010608
 11
-50.30000305165201
 21
-73.00000000010641
 72
    2
 10
-50.29997722364431
 20
-71.99997417209894
 40
1.000025828341021
 50
90.00147979761428
 51
179.9985202026309
 73
    0
 72
    1
 10
-51.3000030516518
 20
-72.00000000010235
 11
-51.30000305165179
 21
-70.50000000010618
 72
    1
 10
-51.30000305165179
 20
-70.50000000010618
 11
-51.89999389637811
 21
-70.50000000010651
 72
    1
 10
-51.89999389637811
 20
-70.50000000010651
 11
-52.99999999989374
 21
-71.60000610362179
 72
    1
 10
-52.99999999989374
 20
-71.60000610362179
 11
-52.99999999989418
 21
-75.00000000010654
 72
    1
 10
-52.99999999989418
 20
-75.00000000010654
 11
19.50000000011158
 21
-75.00000000010643
 72
    2
 10
19.50001526029225
 20
-74.50001525680022
 40
0.4999847435390949
 50
269.9982512587459
 51
0.006994325956070969
 73
    1
 97
    0
 92
    0
 93
   28
 72
    1
 10
2.800012206676897
 20
-72.99998779307477
 11
-45.79995434273154
 21
-72.99998779307511
 72
    3
 10
-45.79998486217784
 20
-72.50001830972289
 11
0.4999694842837122
 21
-1.665334536937735e-16
 40
1
 50
89.99650251560939
 51
180.0069945405882
 73
    1
 72
    1
 10
-46.29995434273602
 20
-72.49995727456678
 11
-46.29995434273599
 21
-56.80001068125826
 72
    2
 10
-47.79995434273582
 20
-56.80001068125826
 40
1.499999999999836
 50
359.9999999999999
 51
90.00000000000368
 73
    1
 72
    1
 10
-47.79995434273592
 20
-55.30001068125842
 11
-50.30000305165154
 21
-55.30001068125851
 72
    3
 10
-50.30000305165171
 20
-54.80001068125874
 11
0.4999999999997798
 21
-1.665334536937735e-16
 40
1
 50
89.99999999997965
 51
180
 73
    1
 72
    1
 10
-50.80000305165149
 20
-54.80001068125877
 11
-50.80000305165176
 21
-52.90001068125871
 72
    3
 10
-50.30000305165217
 20
-52.9000106812587
 11
0.4999999999995782
 21
-1.665334536937735e-16
 40
1
 50
180
 51
270.0000000000375
 73
    1
 72
    1
 10
-50.30000305165186
 20
-52.40001068125912
 11
-45.00001831044421
 21
-52.40001068125875
 72
    2
 10
-45.00001831044418
 20
-51.40001068125883
 40
0.9999999999999253
 50
269.9999999999987
 51
359.9998349564778
 73
    1
 72
    1
 10
-44.00001831044841
 20
-51.40001356183186
 11
-44.00000305165123
 21
-44.50287423311114
 72
    3
 10
-43.49999232057917
 20
-44.5029154833486
 11
0.5000107327736103
 21
-1.665334536937735e-16
 40
1
 50
180.004726827562
 51
269.9987703361196
 73
    1
 72
    1
 10
-43.50000305165121
 20
-44.00290475069015
 11
-7.299999999893938
 21
-44.00290475068992
 72
    3
 10
-7.300010730966932
 20
-44.50291548334956
 11
0.5000107327747856
 21
-1.110223024625157e-16
 40
1
 50
270.0012296639885
 51
359.9952731725927
 73
    1
 72
    1
 10
-6.799999999893682
 20
-44.50287423311308
 11
-6.799984741113089
 21
-51.40001068125741
 72
    2
 10
-5.799986788268924
 20
-51.40001272841462
 40
0.9999979528462566
 50
179.9998827062908
 51
270.000117294064
 73
    1
 72
    1
 10
-5.799984741105497
 20
-52.40001068125881
 11
-0.2000032606901918
 21
-52.40001068125856
 72
    3
 10
-0.200003260689904
 20
-52.90001068125882
 11
0.5000000000002629
 21
-1.110223024625157e-16
 40
1
 50
269.9999999999691
 51
0
 73
    1
 72
    1
 10
0.2999967393103589
 20
-52.90001068125865
 11
0.2999967393104654
 21
-54.20015538540126
 72
    1
 10
0.2999967393104654
 20
-54.20015538540126
 11
-0.5000076202521839
 21
-55.00015974496398
 72
    1
 10
-0.5000076202521839
 20
-55.00015974496398
 11
-0.5000076202521235
 21
-61.00016574332643
 72
    1
 10
-0.5000076202521235
 20
-61.00016574332643
 11
0.2999967393105969
 21
-61.80017010288898
 72
    1
 10
0.2999967393105969
 20
-61.80017010288898
 11
0.2999818985836527
 21
-65.8996764020165
 72
    2
 10
1.29997005415332
 20
-65.89967277868649
 40
0.9999881555762387
 50
180.0002076039762
 51
270.000666667543
 73
    1
 72
    1
 10
1.299981689559147
 20
-66.89966093419503
 11
2.799981689558521
 21
-66.89966093419517
 72
    3
 10
2.799992009669239
 20
-67.39965061419142
 11
0.4999896801027469
 21
-1.665334536937735e-16
 40
1
 50
269.9988173780127
 51
180.001182621971
 73
    1
 72
    1
 10
3.299981689665472
 20
-67.39966093430179
 11
3.299981689558635
 21
-72.49998779308586
 72
    3
 10
2.799996947882221
 20
-72.50000305139838
 11
0.4999847419092301
 21
-1.387778780781446e-16
 40
1
 50
359.9982514728237
 51
269.9982514175687
 73
    1
 97
    0
 75
    0
 76
    1
 98
    0
  0
ENDBLK
  5
5A
330
58
100
AcDbEntity
  8
0
100
AcDbBlockEnd
  0
BLOCK
  5
5C
330
5B
100
AcDbEntity
  8
0
100
AcDbBlockBegin
  2
284683__A13EEFCA_A504_437F_A6C2_D0EDC7EA3DFC___53DE9958_757D_45C2_A124_FBBC7CD3BB5C_
 70
    0
 10
0
 20
0
  3
284683__A13EEFCA_A504_437F_A6C2_D0EDC7EA3DFC___53DE9958_757D_45C2_A124_FBBC7CD3BB5C_
  1

  0
LWPOLYLINE
  5
D7
100
AcDbEntity
  8
0S-Profile PVC-U
  6
ByLayer
 62
  174
370
   -1
100
AcDbPolyline
 90
    2
 70
    0
 43
0
 10
2.000000000106464
 20
-46.99000289580002
 10
2.000000000106471
 20
-44.10749725004807
  0
ARC
  5
D8
100
AcDbEntity
  8
0S-Profile PVC-U
  6
ByLayer
 62
  174
370
   -1
100
AcDbCircle
 10
1.799595988858474
 20
-44.10788902379231
 40
0.2004043941907225
100
AcDbArc
 50
0.1120085038914118
 51
89.88362027509075
  0
LWPOLYLINE
  5
D9
100
AcDbEntity
  8
0S-Profile PVC-U
  6
ByLayer
 62
  174
370
   -1
100
AcDbPolyline
 90
    2
 70
    0
 43
0
 10
1.800003051864284
 20
-43.90748504301682
 10
1.064677235262934e-10
 20
-43.74998382231369
  0
ARC
  5
DA
100
AcDbEntity
  8
0S-Profile PVC-U
  6
ByLayer
 62
  174
370
   -1
100
AcDbCircle
 10
0.000404257552148124
 20
-43.5495826468843
 40
0.200401583171303
100
AcDbArc
 50
-179.8887919884801
 51
-90.11557923254165
  0
LWPOLYLINE
  5
DB
100
AcDbEntity
  8
0S-Profile PVC-U
  6
ByLayer
 62
  174
370
   -1
100
AcDbPolyline
 90
    2
 70
    0
 43
0
 10
-0.1999969481357198
 20
-43.54997161528244
 10
-0.1999969481357198
 20
-42.14997581144944
  0
ARC
  5
DC
100
AcDbEntity
  8
0S-Profile PVC-U
  6
ByLayer
 62
  174
370
   -1
100
AcDbCircle
 10
0.000407042059922702
 20
-42.15036757952389
 40
0.2004043731273268
100
AcDbArc
 50
90.11419246348714
 51
179.8879931053385
  0
LWPOLYLINE
  5
DD
100
AcDbEntity
  8
0S-Profile PVC-U
  6
ByLayer
 62
  174
370
   -1
100
AcDbPolyline
 90
    2
 70
    0
 43
0
 10
7.62950100252624e-06
 20
-41.94996360441819
 10
0.2709960882825548
 20
-41.84637202135343
  0
ARC
  5
DE
100
AcDbEntity
  8
0S-Profile PVC-U
  6
ByLayer
 62
  174
370
   -1
100
AcDbCircle
 10
-0.9995038472486613
 20
-41.03202722474644
 40
1.509081685643846
100
AcDbArc
 50
-32.65841189917784
 51
-148.1038496157126
  0
LWPOLYLINE
  5
DF
100
AcDbEntity
  8
0S-Profile PVC-U
  6
ByLayer
 62
  174
370
   -1
100
AcDbPolyline
 90
    2
 70
    0
 43
0
 10
-2.280725049677145
 20
-41.8293977561767
 10
-1.999999999893529
 20
-41.94996360441819
  0
ARC
  5
E0
100
AcDbEntity
  8
0S-Profile PVC-U
  6
ByLayer
 62
  174
370
   -1
100
AcDbCircle
 10
-2.000396591728929
 20
-42.15036475890795
 40
0.2004015469149767
100
AcDbArc
 50
0.1112020448921755
 51
89.88661238628416
  0
LWPOLYLINE
  5
E1
100
AcDbEntity
  8
0S-Profile PVC-U
  6
ByLayer
 62
  174
370
   -1
100
AcDbPolyline
 90
    2
 70
    0
 43
0
 10
-1.799995422256814
 20
-42.14997581144943
 10
-1.799995422256814
 20
-43.44999602934494
  0
ARC
  5
E2
100
AcDbEntity
  8
0S-Profile PVC-U
  6
ByLayer
 62
  174
370
   -1
100
AcDbCircle
 10
-2.000357586934395
 20
-43.44961552567202
 40
0.2003625259805943
100
AcDbArc
 50
-89.89556244690863
 51
-0.1088091076223098
  0
LWPOLYLINE
  5
E3
100
AcDbEntity
  8
0S-Profile PVC-U
  6
ByLayer
 62
  174
370
   -1
100
AcDbPolyline
 90
    2
 70
    0
 43
0
 10
-1.999992370498997
 20
-43.64997771879806
 10
-4.099990844620105
 20
-43.64997771879806
  0
ARC
  5
E4
100
AcDbEntity
  8
0S-Profile PVC-U
  6
ByLayer
 62
  174
370
   -1
100
AcDbCircle
 10
-4.099594252784716
 20
-43.85037887328782
 40
0.2004015469149767
100
AcDbArc
 50
90.1133876137158
 51
179.8887979551078
  0
LWPOLYLINE
  5
E5
100
AcDbEntity
  8
0S-Profile PVC-U
  6
ByLayer
 62
  174
370
   -1
100
AcDbPolyline
 90
    2
 70
    0
 43
0
 10
-4.29999542225681
 20
-43.84998992582929
 10
-4.299995422256814
 20
-44.74998382231368
  0
ARC
  5
E6
100
AcDbEntity
  8
0S-Profile PVC-U
  6
ByLayer
 62
  174
370
   -1
100
AcDbCircle
 10
-4.099573298662424
 20
-44.74957392153216
 40
0.2004225427558968
100
AcDbArc
 50
-179.882819562859
 51
-90.11936600596093
  0
LWPOLYLINE
  5
E7
100
AcDbEntity
  8
0S-Profile PVC-U
  6
ByLayer
 62
  174
370
   -1
100
AcDbPolyline
 90
    2
 70
    0
 43
0
 10
-4.099990844620098
 20
-44.94999602934493
 10
-2.212425701737875
 20
-44.94999602934493
  0
ARC
  5
E8
100
AcDbEntity
  8
0S-Profile PVC-U
  6
ByLayer
 62
  174
370
   -1
100
AcDbCircle
 10
-2.212425701737864
 20
-45.14999602934493
 40
0.2000000000000095
100
AcDbArc
 50
-29.87984018382574
 51
89.99999999999994
  0
LWPOLYLINE
  5
E9
100
AcDbEntity
  8
0S-Profile PVC-U
  6
ByLayer
 62
  174
370
   -1
100
AcDbPolyline
 90
    2
 70
    0
 43
0
 10
-2.039011283586269
 20
-45.2496325667052
 10
-4.285481497992983
 20
-49.15954689580002
  0
ARC
  5
EA
100
AcDbEntity
  8
0S-Profile PVC-U
  6
ByLayer
 62
  174
370
   -1
100
AcDbCircle
 10
-3.44422884900165
 20
-49.70018182107717
 40
0.9999960709244888
100
AcDbArc
 50
147.2729839001592
 51
-98.18160805189981
  0
LWPOLYLINE
  5
EB
100
AcDbEntity
  8
0S-Profile PVC-U
  6
ByLayer
 62
  174
370
   -1
100
AcDbPolyline
 90
    2
 70
    0
 43
0
 10
-3.586539497993012
 20
-50.68999989580002
 10
-0.1099979998932561
 20
-50.69000000138589
  0
ARC
  5
EC
100
AcDbEntity
  8
0S-Profile PVC-U
  6
ByLayer
 62
  174
370
   -1
100
AcDbCircle
 10
-0.10999536026819
 20
-50.19000402394727
 40
0.4999959774455935
100
AcDbArc
 50
-90.0003024811851
 51
0.0003024817732788342
  0
LWPOLYLINE
  5
ED
100
AcDbEntity
  8
0S-Profile PVC-U
  6
ByLayer
 62
  174
370
   -1
100
AcDbPolyline
 90
    2
 70
    0
 43
0
 10
0.3900006171704398
 20
-50.19000138431707
 10
0.3896686725125491
 20
-47.79004449521305
  0
ARC
  5
EE
100
AcDbEntity
  8
0S-Profile PVC-U
  6
ByLayer
 62
  174
370
   -1
100
AcDbCircle
 10
0.6896686696429732
 20
-47.79000300138587
 40
0.3000000000000095
100
AcDbArc
 50
90.00000746561773
 51
-179.9920752627072
  0
LWPOLYLINE
  5
EF
100
AcDbEntity
  8
0S-Profile PVC-U
  6
ByLayer
 62
  174
370
   -1
100
AcDbPolyline
 90
    2
 70
    0
 43
0
 10
0.6896686305531006
 20
-47.49000300138589
 10
1.500000065256273
 20
-47.49000289580002
  0
ARC
  5
F0
100
AcDbEntity
  8
0S-Profile PVC-U
  6
ByLayer
 62
  174
370
   -1
100
AcDbCircle
 10
1.500000000106457
 20
-46.99000289580002
 40
0.5000000000000067
100
AcDbArc
 50
-89.99999253438224
 51
-3.246091501560079e-14
  0
HATCH
  5
F1
100
AcDbEntity
  8
0S-Shading PVC-U
  6
ByLayer
 62
  174
370
   -1
100
AcDbHatch
 10
0
 20
0
 30
0
210
0
220
0
230
1
  2
ANSI31
 70
    0
 71
    0
 91
    1
 92
    0
 93
   26
 72
    1
 10
2.000000000106464
 20
-46.99000289580002
 11
2.000000000106471
 21
-44.10749725004807
 72
    2
 10
1.799595988858474
 20
-44.10788902379231
 40
0.2004043941907311
 50
0.1120085038914118
 51
89.88362027509075
 73
    1
 72
    1
 10
1.800003051864284
 20
-43.90748504301682
 11
1.064677235262934e-10
 21
-43.74998382231369
 72
    2
 10
0.000404257552148124
 20
-43.5495826468843
 40
0.200401583171306
 50
90.11557923254144
 51
179.88879198848
 73
    0
 72
    1
 10
-0.1999969481357198
 20
-43.54997161528244
 11
-0.1999969481357198
 21
-42.14997581144944
 72
    2
 10
0.000407042059922702
 20
-42.15036757952389
 40
0.2004043731273311
 50
180.1120068946615
 51
269.8858075365129
 73
    0
 72
    1
 10
7.62950100252624e-06
 20
-41.94996360441819
 11
0.2709960882825548
 21
-41.84637202135343
 72
    2
 10
-0.9995038472486613
 20
-41.03202722474644
 40
1.509081685643854
 50
327.3415881008222
 51
211.8961503842875
 73
    1
 72
    1
 10
-2.280725049677145
 20
-41.8293977561767
 11
-1.999999999893529
 21
-41.94996360441819
 72
    2
 10
-2.000396591728929
 20
-42.15036475890795
 40
0.2004015469149805
 50
270.1133876137158
 51
359.8887979551077
 73
    0
 72
    1
 10
-1.799995422256814
 20
-42.14997581144943
 11
-1.799995422256814
 21
-43.44999602934494
 72
    2
 10
-2.000357586934395
 20
-43.44961552567202
 40
0.2003625259806077
 50
0.1088091076222774
 51
89.89556244690856
 73
    0
 72
    1
 10
-1.999992370498997
 20
-43.64997771879806
 11
-4.099990844620105
 21
-43.64997771879806
 72
    2
 10
-4.099594252784716
 20
-43.85037887328782
 40
0.2004015469149663
 50
90.1133876137158
 51
179.8887979551078
 73
    1
 72
    1
 10
-4.29999542225681
 20
-43.84998992582929
 11
-4.299995422256814
 21
-44.74998382231368
 72
    2
 10
-4.099573298662424
 20
-44.74957392153216
 40
0.2004225427558994
 50
180.117180437141
 51
269.8806339940391
 73
    1
 72
    1
 10
-4.099990844620098
 20
-44.94999602934493
 11
-2.212425701737875
 21
-44.94999602934493
 72
    2
 10
-2.212425701737864
 20
-45.14999602934493
 40
0.2000000000000059
 50
269.9999999999999
 51
29.87984018382568
 73
    0
 72
    1
 10
-2.039011283586269
 20
-45.2496325667052
 11
-4.285481497992983
 21
-49.15954689580002
 72
    2
 10
-3.44422884900165
 20
-49.70018182107717
 40
0.9999960709244813
 50
147.2729839001592
 51
261.8183919481002
 73
    1
 72
    1
 10
-3.586539497993012
 20
-50.68999989580002
 11
-0.1099979998932561
 21
-50.69000000138589
 72
    2
 10
-0.10999536026819
 20
-50.19000402394727
 40
0.4999959774455975
 50
269.9996975188149
 51
0.0003024817732788373
 73
    1
 72
    1
 10
0.3900006171704398
 20
-50.19000138431707
 11
0.3896686725125491
 21
-47.79004449521305
 72
    2
 10
0.6896686696429732
 20
-47.79000300138587
 40
0.2999999999999997
 50
179.9920752627073
 51
269.999992534382
 73
    0
 72
    1
 10
0.6896686305531006
 20
-47.49000300138589
 11
1.500000065256273
 21
-47.49000289580002
 72
    2
 10
1.500000000106457
 20
-46.99000289580002
 40
0.5
 50
270.0000074656177
 51
359.9999999999999
 73
    1
 97
    0
 75
    0
 76
    1
 52
-135
 41
0.4680000000000001
 77
    0
 78
    0
 98
    0
  0
ENDBLK
  5
5D
330
5B
100
AcDbEntity
  8
0
100
AcDbBlockEnd
  0
BLOCK
  5
5F
330
5E
100
AcDbEntity
  8
0
100
AcDbBlockBegin
  2
284683__539354DE_D317_4AC2_8AFB_6AC17A80A4B3___AE2E302E_A3E2_496D_9E39_D4E8E0329E2F_
 70
    0
 10
0
 20
0
  3
284683__539354DE_D317_4AC2_8AFB_6AC17A80A4B3___AE2E302E_A3E2_496D_9E39_D4E8E0329E2F_
  1

  0
LWPOLYLINE
  5
F2
100
AcDbEntity
  8
0S-Profile PVC-U
  6
ByLayer
 62
  174
370
   -1
100
AcDbPolyline
 90
    2
 70
    0
 43
0
 10
2.000006103625267
 20
-43.09995264610942
 10
1.99999998517799
 20
-14.40999689476239
  0
ARC
  5
F3
100
AcDbEntity
  8
0S-Profile PVC-U
  6
ByLayer
 62
  174
370
   -1
100
AcDbCircle
 10
1.499999985177991
 20
-14.40999700139286
 40
0.4999999999999991
100
AcDbArc
 50
1.219432678028114e-05
 51
89.99999999999841
  0
LWPOLYLINE
  5
F4
100
AcDbEntity
  8
0S-Profile PVC-U
  6
ByLayer
 62
  174
370
   -1
100
AcDbPolyline
 90
    2
 70
    0
 43
0
 10
1.499999985178003
 20
-13.90999700139287
 10
0.6896686667731542
 20
-13.90999700139287
  0
ARC
  5
F5
100
AcDbEntity
  8
0S-Profile PVC-U
  6
ByLayer
 62
  174
370
   -1
100
AcDbCircle
 10
0.6896686667731693
 20
-13.60999700139287
 40
0.3000000000000095
100
AcDbArc
 50
180
 51
-90.00000000000274
  0
LWPOLYLINE
  5
F6
100
AcDbEntity
  8
0S-Profile PVC-U
  6
ByLayer
 62
  174
370
   -1
100
AcDbPolyline
 90
    2
 70
    0
 43
0
 10
0.3896686667731579
 20
-13.60999700139287
 10
0.3900006171701831
 20
-11.20999861845656
  0
ARC
  5
F7
100
AcDbEntity
  8
0S-Profile PVC-U
  6
ByLayer
 62
  174
370
   -1
100
AcDbCircle
 10
-0.1099953602684174
 20
-11.20999597883148
 40
0.4999959774455778
100
AcDbArc
 50
-0.0003024817733042786
 51
90.00030248118829
  0
LWPOLYLINE
  5
F8
100
AcDbEntity
  8
0S-Profile PVC-U
  6
ByLayer
 62
  174
370
   -1
100
AcDbPolyline
 90
    2
 70
    0
 43
0
 10
-0.109997999893511
 20
-10.71000000139286
 10
-3.586539497992975
 20
-10.71000000139286
  0
ARC
  5
F9
100
AcDbEntity
  8
0S-Profile PVC-U
  6
ByLayer
 62
  174
370
   -1
100
AcDbCircle
 10
-3.444228849001632
 20
-11.69981807611572
 40
0.999996070924472
100
AcDbArc
 50
98.18160805189898
 51
-147.2729839001594
  0
LWPOLYLINE
  5
FA
100
AcDbEntity
  8
0S-Profile PVC-U
  6
ByLayer
 62
  174
370
   -1
100
AcDbPolyline
 90
    3
 70
    0
 43
0
 10
-4.285481497992979
 20
-12.24045300139287
 10
-2.900003051651344
 20
-14.64017239217537
 10
-2.90000305165134
 20
-14.99996490638846
  0
ARC
  5
FB
100
AcDbEntity
  8
0S-Profile PVC-U
  6
ByLayer
 62
  174
370
   -1
100
AcDbCircle
 10
-3.100003051651332
 20
-14.99996490638851
 40
0.1999999999999846
100
AcDbArc
 50
-89.99999999998376
 51
-3.246091501560079e-14
  0
LWPOLYLINE
  5
FC
100
AcDbEntity
  8
0S-Profile PVC-U
  6
ByLayer
 62
  174
370
   -1
100
AcDbPolyline
 90
    2
 70
    0
 43
0
 10
-3.100003051651275
 20
-15.1999649063885
 10
-8.199990844620093
 20
-15.19996490638853
  0
ARC
  5
FD
100
AcDbEntity
  8
0S-Profile PVC-U
  6
ByLayer
 62
  174
370
   -1
100
AcDbCircle
 10
-8.199990844620096
 20
-15.59995880287289
 40
0.3999938964843661
100
AcDbArc
 50
89.99999999999994
 51
-90.00000000000004
  0
LWPOLYLINE
  5
FE
100
AcDbEntity
  8
0S-Profile PVC-U
  6
ByLayer
 62
  174
370
   -1
100
AcDbPolyline
 90
    2
 70
    0
 43
0
 10
-8.199990844620093
 20
-15.99995269935725
 10
-6.199987792862235
 20
-15.99995269935737
  0
ARC
  5
FF
100
AcDbEntity
  8
0S-Profile PVC-U
  6
ByLayer
 62
  174
370
   -1
100
AcDbCircle
 10
-6.199987792862262
 20
-16.29995269935735
 40
0.2999999999999794
100
AcDbArc
 50
-3.246091501560079e-14
 51
89.99999999999447
  0
LWPOLYLINE
  5
100
100
AcDbEntity
  8
0S-Profile PVC-U
  6
ByLayer
 62
  174
370
   -1
100
AcDbPolyline
 90
    2
 70
    0
 43
0
 10
-5.899987792862281
 20
-16.29995269935735
 10
-5.89998779286228
 20
-16.49995269935728
  0
ARC
  5
101
100
AcDbEntity
  8
0S-Profile PVC-U
  6
ByLayer
 62
  174
370
   -1
100
AcDbCircle
 10
-5.599992370499001
 20
-16.49995269935716
 40
0.2999954223632804
100
AcDbArc
 50
180
 51
-3.246091501560079e-14
  0
LWPOLYLINE
  5
102
100
AcDbEntity
  8
0S-Profile PVC-U
  6
ByLayer
 62
  174
370
   -1
100
AcDbPolyline
 90
    2
 70
    0
 43
0
 10
-5.299996948135717
 20
-16.49995269935716
 10
-5.299996948135719
 20
-16.29995269935732
  0
ARC
  5
103
100
AcDbEntity
  8
0S-Profile PVC-U
  6
ByLayer
 62
  174
370
   -1
100
AcDbCircle
 10
-4.999996948135594
 20
-16.29995269935726
 40
0.3000000000001251
100
AcDbArc
 50
90.00000000001074
 51
180
  0
LWPOLYLINE
  5
104
100
AcDbEntity
  8
0S-Profile PVC-U
  6
ByLayer
 62
  174
370
   -1
100
AcDbPolyline
 90
    3
 70
    0
 43
0
 10
-4.999996948135649
 20
-15.99995269935714
 10
-2.473779296768646
 20
-15.99995269935725
 10
-0.3000762938388917
 20
-17.25468444695197
  0
ARC
  5
105
100
AcDbEntity
  8
0S-Profile PVC-U
  6
ByLayer
 62
  174
370
   -1
100
AcDbCircle
 10
-0.8000825695573379
 20
-18.12079276048732
 40
1.000074940458408
100
AcDbArc
 50
0.001114110164551613
 51
60.00206363611167
  0
LWPOLYLINE
  5
106
100
AcDbEntity
  8
0S-Profile PVC-U
  6
ByLayer
 62
  174
370
   -1
100
AcDbPolyline
 90
    2
 70
    0
 43
0
 10
0.1999923707120033
 20
-18.12077331413951
 10
0.2000049807670266
 20
-34.89997603228808
  0
ARC
  5
107
100
AcDbEntity
  8
0S-Profile PVC-U
  6
ByLayer
 62
  174
370
   -1
100
AcDbCircle
 10
-0.7999950192324796
 20
-34.89997711341978
 40
1.000000000000088
100
AcDbArc
 50
-89.99999999999517
 51
6.194420528260958e-05
  0
LWPOLYLINE
  5
108
100
AcDbEntity
  8
0S-Profile PVC-U
  6
ByLayer
 62
  174
370
   -1
100
AcDbPolyline
 90
    2
 70
    0
 43
0
 10
-0.7999950192323944
 20
-35.89997711341985
 10
-4.999996948135642
 20
-35.89997711341964
  0
ARC
  5
109
100
AcDbEntity
  8
0S-Profile PVC-U
  6
ByLayer
 62
  174
370
   -1
100
AcDbCircle
 10
-4.999996948135729
 20
-35.59997711341964
 40
0.2999999999999945
100
AcDbArc
 50
180
 51
-89.99999999998376
  0
LWPOLYLINE
  5
10A
100
AcDbEntity
  8
0S-Profile PVC-U
  6
ByLayer
 62
  174
370
   -1
100
AcDbPolyline
 90
    2
 70
    0
 43
0
 10
-5.299996948135728
 20
-35.59997711341964
 10
-5.299996948135721
 20
-35.39997711341975
  0
ARC
  5
10B
100
AcDbEntity
  8
0S-Profile PVC-U
  6
ByLayer
 62
  174
370
   -1
100
AcDbCircle
 10
-5.599992370499002
 20
-35.39997711341975
 40
0.2999954223632777
100
AcDbArc
 50
-3.246091501560079e-14
 51
180
  0
LWPOLYLINE
  5
10C
100
AcDbEntity
  8
0S-Profile PVC-U
  6
ByLayer
 62
  174
370
   -1
100
AcDbPolyline
 90
    2
 70
    0
 43
0
 10
-5.899987792862284
 20
-35.39997711341975
 10
-5.899987792862284
 20
-35.59997711341963
  0
ARC
  5
10D
100
AcDbEntity
  8
0S-Profile PVC-U
  6
ByLayer
 62
  174
370
   -1
100
AcDbCircle
 10
-6.199987792862471
 20
-35.59997711341957
 40
0.3000000000001828
100
AcDbArc
 50
-90.00000000000004
 51
-3.246091501560079e-14
  0
LWPOLYLINE
  5
10E
100
AcDbEntity
  8
0S-Profile PVC-U
  6
ByLayer
 62
  174
370
   -1
100
AcDbPolyline
 90
    2
 70
    0
 43
0
 10
-6.199987792862469
 20
-35.89997711341975
 10
-8.199990844620105
 20
-35.89997711341967
  0
ARC
  5
10F
100
AcDbEntity
  8
0S-Profile PVC-U
  6
ByLayer
 62
  174
370
   -1
100
AcDbCircle
 10
-8.199990844620103
 20
-36.29997100990408
 40
0.399993896484407
100
AcDbArc
 50
89.99999999999994
 51
-90.00000000000004
  0
LWPOLYLINE
  5
110
100
AcDbEntity
  8
0S-Profile PVC-U
  6
ByLayer
 62
  174
370
   -1
100
AcDbPolyline
 90
    2
 70
    0
 43
0
 10
-8.199990844620103
 20
-36.6999649063885
 10
-3.10718394607208
 20
-36.6999649063885
  0
ARC
  5
111
100
AcDbEntity
  8
0S-Profile PVC-U
  6
ByLayer
 62
  174
370
   -1
100
AcDbCircle
 10
-3.107183946072066
 20
-37.69996490638845
 40
0.9999999999999556
100
AcDbArc
 50
-58.21166935638963
 51
90.00000000000078
  0
ARC
  5
112
100
AcDbEntity
  8
0S-Profile PVC-U
  6
ByLayer
 62
  174
370
   -1
100
AcDbCircle
 10
-1.000053193925375
 20
-41.09996490541178
 40
3.000000000000185
100
AcDbArc
 50
121.7883306436115
 51
-179.9960029132582
  0
LWPOLYLINE
  5
113
100
AcDbEntity
  8
0S-Profile PVC-U
  6
ByLayer
 62
  174
370
   -1
100
AcDbPolyline
 90
    2
 70
    0
 43
0
 10
-4.000053186625379
 20
-41.10017419238402
 10
-3.999993896378026
 20
-42.79995269935719
  0
ARC
  5
114
100
AcDbEntity
  8
0S-Profile PVC-U
  6
ByLayer
 62
  174
370
   -1
100
AcDbCircle
 10
-3.499993896377852
 20
-42.79995269935712
 40
0.500000000000175
100
AcDbArc
 50
180
 51
-89.99999999999352
  0
LWPOLYLINE
  5
115
100
AcDbEntity
  8
0S-Profile PVC-U
  6
ByLayer
 62
  174
370
   -1
100
AcDbPolyline
 90
    2
 70
    0
 43
0
 10
-3.499993896377802
 20
-43.2999526993573
 10
-2.173978524893439
 20
-43.29995269935729
  0
ARC
  5
116
100
AcDbEntity
  8
0S-Profile PVC-U
  6
ByLayer
 62
  174
370
   -1
100
AcDbCircle
 10
-2.173978524893439
 20
-43.0999526993573
 40
0.1999999999999895
100
AcDbArc
 50
-90.00000000000004
 51
-5.000156552638991
  0
LWPOLYLINE
  5
117
100
AcDbEntity
  8
0S-Profile PVC-U
  6
ByLayer
 62
  174
370
   -1
100
AcDbPolyline
 90
    2
 70
    0
 43
0
 10
-1.974739632903994
 20
-43.11738439229907
 10
-1.901135558390518
 20
-42.27611244580133
  0
ARC
  5
118
100
AcDbEntity
  8
0S-Profile PVC-U
  6
ByLayer
 62
  174
370
   -1
100
AcDbCircle
 10
-2.199993896374764
 20
-42.24996490638862
 40
0.3000000000000673
100
AcDbArc
 50
-5.000156552647922
 51
90.00000000000266
  0
LWPOLYLINE
  5
119
100
AcDbEntity
  8
0S-Profile PVC-U
  6
ByLayer
 62
  174
370
   -1
100
AcDbPolyline
 90
    2
 70
    0
 43
0
 10
-2.199993896374771
 20
-41.94996490638856
 10
-2.586716358664532
 20
-41.9499649063885
  0
ARC
  5
11A
100
AcDbEntity
  8
0S-Profile PVC-U
  6
ByLayer
 62
  174
370
   -1
100
AcDbCircle
 10
-1.000053193925552
 20
-41.09996490541181
 40
1.799999999999966
100
AcDbArc
 50
-28.17864277579923
 51
-151.8213572242008
  0
LWPOLYLINE
  5
11B
100
AcDbEntity
  8
0S-Profile PVC-U
  6
ByLayer
 62
  174
370
   -1
100
AcDbPolyline
 90
    2
 70
    0
 43
0
 10
0.5866099708134271
 20
-41.9499649063885
 10
0.2000061036252205
 20
-41.9499649063886
  0
ARC
  5
11C
100
AcDbEntity
  8
0S-Profile PVC-U
  6
ByLayer
 62
  174
370
   -1
100
AcDbCircle
 10
0.2000061036251566
 20
-42.24996490638867
 40
0.3000000000000371
100
AcDbArc
 50
89.9999999999891
 51
-174.9998434473624
  0
LWPOLYLINE
  5
11D
100
AcDbEntity
  8
0S-Profile PVC-U
  6
ByLayer
 62
  174
370
   -1
100
AcDbPolyline
 90
    2
 70
    0
 43
0
 10
-0.09885223435905743
 20
-42.27611244580133
 10
-0.02524815984570239
 20
-43.11738439229901
  0
ARC
  5
11E
100
AcDbEntity
  8
0S-Profile PVC-U
  6
ByLayer
 62
  174
370
   -1
100
AcDbCircle
 10
0.1739907321439631
 20
-43.0999526993571
 40
0.2000000000002207
100
AcDbArc
 50
-174.9998434473279
 51
-89.99999999999191
  0
LWPOLYLINE
  5
11F
100
AcDbEntity
  8
0S-Profile PVC-U
  6
ByLayer
 62
  174
370
   -1
100
AcDbPolyline
 90
    2
 70
    0
 43
0
 10
0.1739907321439915
 20
-43.29995269935732
 10
1.800006103625222
 20
-43.29995269935731
  0
ARC
  5
120
100
AcDbEntity
  8
0S-Profile PVC-U
  6
ByLayer
 62
  174
370
   -1
100
AcDbCircle
 10
1.800006103625236
 20
-43.09995269935728
 40
0.2000000000000397
100
AcDbArc
 50
-90.00000000000408
 51
-1.527276733647471e-05
  0
HATCH
  5
121
100
AcDbEntity
  8
0S-Shading PVC-U
  6
ByLayer
 62
  174
370
   -1
100
AcDbHatch
 10
0
 20
0
 30
0
210
0
220
0
230
1
  2
ANSI31
 70
    0
 71
    0
 91
    1
 92
    0
 93
   49
 72
    1
 10
2.000006103625267
 20
-43.09995264610942
 11
1.99999998517799
 21
-14.40999689476239
 72
    2
 10
1.499999985177991
 20
-14.40999700139286
 40
0.4999999999999983
 50
1.219432678028424e-05
 51
89.99999999999841
 73
    1
 72
    1
 10
1.499999985178003
 20
-13.90999700139287
 11
0.6896686667731542
 21
-13.90999700139287
 72
    2
 10
0.6896686667731693
 20
-13.60999700139287
 40
0.3000000000000114
 50
90.00000000000264
 51
180
 73
    0
 72
    1
 10
0.3896686667731579
 20
-13.60999700139287
 11
0.3900006171701831
 21
-11.20999861845656
 72
    2
 10
-0.1099953602684174
 20
-11.20999597883148
 40
0.4999959774455815
 50
359.9996975182267
 51
90.00030248118829
 73
    1
 72
    1
 10
-0.109997999893511
 20
-10.71000000139286
 11
-3.586539497992975
 21
-10.71000000139286
 72
    2
 10
-3.444228849001632
 20
-11.69981807611572
 40
0.9999960709244718
 50
98.18160805189898
 51
212.7270160998406
 73
    1
 72
    1
 10
-4.285481497992979
 20
-12.24045300139287
 11
-2.900003051651344
 21
-14.64017239217537
 72
    1
 10
-2.900003051651344
 20
-14.64017239217537
 11
-2.90000305165134
 21
-14.99996490638846
 72
    2
 10
-3.100003051651332
 20
-14.99996490638851
 40
0.1999999999999886
 50
359.9999999999999
 51
89.99999999998381
 73
    0
 72
    1
 10
-3.100003051651275
 20
-15.1999649063885
 11
-8.199990844620093
 21
-15.19996490638853
 72
    2
 10
-8.199990844620096
 20
-15.59995880287289
 40
0.3999938964843626
 50
89.99999999999994
 51
269.9999999999999
 73
    1
 72
    1
 10
-8.199990844620093
 20
-15.99995269935725
 11
-6.199987792862235
 21
-15.99995269935737
 72
    2
 10
-6.199987792862262
 20
-16.29995269935735
 40
0.2999999999999829
 50
270.0000000000054
 51
359.9999999999999
 73
    0
 72
    1
 10
-5.899987792862281
 20
-16.29995269935735
 11
-5.89998779286228
 21
-16.49995269935728
 72
    2
 10
-5.599992370499001
 20
-16.49995269935716
 40
0.2999954223632812
 50
180
 51
359.9999999999999
 73
    1
 72
    1
 10
-5.299996948135717
 20
-16.49995269935716
 11
-5.299996948135719
 21
-16.29995269935732
 72
    2
 10
-4.999996948135594
 20
-16.29995269935726
 40
0.300000000000125
 50
180
 51
269.9999999999891
 73
    0
 72
    1
 10
-4.999996948135649
 20
-15.99995269935714
 11
-2.473779296768646
 21
-15.99995269935725
 72
    1
 10
-2.473779296768646
 20
-15.99995269935725
 11
-0.3000762938388917
 21
-17.25468444695197
 72
    2
 10
-0.8000825695573379
 20
-18.12079276048732
 40
1.000074940458409
 50
299.9979363638882
 51
359.9988858898354
 73
    0
 72
    1
 10
0.1999923707120033
 20
-18.12077331413951
 11
0.2000049807670266
 21
-34.89997603228808
 72
    2
 10
-0.7999950192324796
 20
-34.89997711341978
 40
1.000000000000085
 50
359.9999380557946
 51
89.99999999999507
 73
    0
 72
    1
 10
-0.7999950192323944
 20
-35.89997711341985
 11
-4.999996948135642
 21
-35.89997711341964
 72
    2
 10
-4.999996948135729
 20
-35.59997711341964
 40
0.2999999999999971
 50
89.99999999998381
 51
180
 73
    0
 72
    1
 10
-5.299996948135728
 20
-35.59997711341964
 11
-5.299996948135721
 21
-35.39997711341975
 72
    2
 10
-5.599992370499002
 20
-35.39997711341975
 40
0.2999954223632812
 50
359.9999999999999
 51
180
 73
    1
 72
    1
 10
-5.899987792862284
 20
-35.39997711341975
 11
-5.899987792862284
 21
-35.59997711341963
 72
    2
 10
-6.199987792862471
 20
-35.59997711341957
 40
0.3000000000001819
 50
359.9999999999999
 51
89.99999999999994
 73
    0
 72
    1
 10
-6.199987792862469
 20
-35.89997711341975
 11
-8.199990844620105
 21
-35.89997711341967
 72
    2
 10
-8.199990844620103
 20
-36.29997100990408
 40
0.3999938964844106
 50
89.99999999999994
 51
269.9999999999999
 73
    1
 72
    1
 10
-8.199990844620103
 20
-36.6999649063885
 11
-3.10718394607208
 21
-36.6999649063885
 72
    2
 10
-3.107183946072066
 20
-37.69996490638845
 40
0.9999999999999504
 50
269.9999999999992
 51
58.2116693563896
 73
    0
 72
    2
 10
-1.000053193925375
 20
-41.09996490541178
 40
3.000000000000184
 50
121.7883306436115
 51
180.0039970867417
 73
    1
 72
    1
 10
-4.000053186625379
 20
-41.10017419238402
 11
-3.999993896378026
 21
-42.79995269935719
 72
    2
 10
-3.499993896377852
 20
-42.79995269935712
 40
0.5000000000001706
 50
180
 51
270.0000000000065
 73
    1
 72
    1
 10
-3.499993896377802
 20
-43.2999526993573
 11
-2.173978524893439
 21
-43.29995269935729
 72
    2
 10
-2.173978524893439
 20
-43.0999526993573
 40
0.2000000000000026
 50
269.9999999999999
 51
354.999843447361
 73
    1
 72
    1
 10
-1.974739632903994
 20
-43.11738439229907
 11
-1.901135558390518
 21
-42.27611244580133
 72
    2
 10
-2.199993896374764
 20
-42.24996490638862
 40
0.3000000000000682
 50
354.9998434473521
 51
90.00000000000266
 73
    1
 72
    1
 10
-2.199993896374771
 20
-41.94996490638856
 11
-2.586716358664532
 21
-41.9499649063885
 72
    2
 10
-1.000053193925552
 20
-41.09996490541181
 40
1.799999999999962
 50
151.8213572242008
 51
28.17864277579907
 73
    0
 72
    1
 10
0.5866099708134271
 20
-41.9499649063885
 11
0.2000061036252205
 21
-41.9499649063886
 72
    2
 10
0.2000061036251566
 20
-42.24996490638867
 40
0.300000000000039
 50
89.9999999999891
 51
185.0001565526376
 73
    1
 72
    1
 10
-0.09885223435905743
 20
-42.27611244580133
 11
-0.02524815984570239
 21
-43.11738439229901
 72
    2
 10
0.1739907321439631
 20
-43.0999526993571
 40
0.2000000000002231
 50
185.0001565526721
 51
270.0000000000081
 73
    1
 72
    1
 10
0.1739907321439915
 20
-43.29995269935732
 11
1.800006103625222
 21
-43.29995269935731
 72
    2
 10
1.800006103625236
 20
-43.09995269935728
 40
0.2000000000000384
 50
269.9999999999959
 51
359.9999847272326
 73
    1
 97
    0
 75
    0
 76
    1
 52
-135
 41
0.4680000000000001
 77
    0
 78
    0
 98
    0
  0
ENDBLK
  5
60
330
5E
100
AcDbEntity
  8
0
100
AcDbBlockEnd
  0
BLOCK
  5
62
330
61
100
AcDbEntity
  8
0
100
AcDbBlockBegin
  2
284683__04FF606A_0A57_4530_9DB1_DE3668886C92___77A466A9_B496_4305_B83F_0B5F7033292D_
 70
    0
 10
0
 20
0
  3
284683__04FF606A_0A57_4530_9DB1_DE3668886C92___77A466A9_B496_4305_B83F_0B5F7033292D_
  1

  0
LWPOLYLINE
  5
122
100
AcDbEntity
  8
0S-Profile PVC-U
  6
ByLayer
 62
  174
370
   -1
100
AcDbPolyline
 90
    2
 70
    0
 43
0
 10
-52.80000305071474
 20
-46.9900028958
 10
-52.80000305071472
 20
-44.10749725004804
  0
ARC
  5
123
100
AcDbEntity
  8
0S-Profile PVC-U
  6
ByLayer
 62
  174
370
   -1
100
AcDbCircle
 10
-52.59959903946673
 20
-44.1078890237923
 40
0.200404394190727
100
AcDbArc
 50
90.11637972490918
 51
179.8879914961086
  0
LWPOLYLINE
  5
124
100
AcDbEntity
  8
0S-Profile PVC-U
  6
ByLayer
 62
  174
370
   -1
100
AcDbPolyline
 90
    2
 70
    0
 43
0
 10
-52.60000610247253
 20
-43.9074850430168
 10
-50.80000305071474
 20
-43.74998382231367
  0
ARC
  5
125
100
AcDbEntity
  8
0S-Profile PVC-U
  6
ByLayer
 62
  174
370
   -1
100
AcDbCircle
 10
-50.8004073081604
 20
-43.54958264688427
 40
0.2004015831713133
100
AcDbArc
 50
-89.8844207674564
 51
-0.111208011523219
  0
LWPOLYLINE
  5
126
100
AcDbEntity
  8
0S-Profile PVC-U
  6
ByLayer
 62
  174
370
   -1
100
AcDbPolyline
 90
    2
 70
    0
 43
0
 10
-50.60000610247256
 20
-43.54997161528242
 10
-50.60000610247256
 20
-42.14997581144943
  0
ARC
  5
127
100
AcDbEntity
  8
0S-Profile PVC-U
  6
ByLayer
 62
  174
370
   -1
100
AcDbCircle
 10
-50.80041009266818
 20
-42.15036757952386
 40
0.2004043731273413
100
AcDbArc
 50
0.1120068946614765
 51
89.88580753651286
  0
LWPOLYLINE
  5
128
100
AcDbEntity
  8
0S-Profile PVC-U
  6
ByLayer
 62
  174
370
   -1
100
AcDbPolyline
 90
    2
 70
    0
 43
0
 10
-50.80001068010927
 20
-41.94996360441817
 10
-51.09403093417621
 20
-41.83270317468468
  0
ARC
  5
129
100
AcDbEntity
  8
0S-Profile PVC-U
  6
ByLayer
 62
  174
370
   -1
100
AcDbCircle
 10
-49.79603562657049
 20
-41.04329896913048
 40
1.519194134504588
100
AcDbArc
 50
-32.45255162831469
 51
-148.693210448462
  0
LWPOLYLINE
  5
12A
100
AcDbEntity
  8
0S-Profile PVC-U
  6
ByLayer
 62
  174
370
   -1
100
AcDbPolyline
 90
    2
 70
    0
 43
0
 10
-48.51408475678063
 20
-41.85850003988428
 10
-48.80000305071474
 20
-41.94996360441818
  0
ARC
  5
12B
100
AcDbEntity
  8
0S-Profile PVC-U
  6
ByLayer
 62
  174
370
   -1
100
AcDbCircle
 10
-48.79960645887933
 20
-42.15036475890794
 40
0.2004015469149962
100
AcDbArc
 50
90.11338761371564
 51
179.8887979551078
  0
LWPOLYLINE
  5
12C
100
AcDbEntity
  8
0S-Profile PVC-U
  6
ByLayer
 62
  174
370
   -1
100
AcDbPolyline
 90
    2
 70
    0
 43
0
 10
-49.00000762835145
 20
-42.14997581144942
 10
-49.00000762835144
 20
-43.44999602934491
  0
ARC
  5
12D
100
AcDbEntity
  8
0S-Profile PVC-U
  6
ByLayer
 62
  174
370
   -1
100
AcDbCircle
 10
-48.79964546367387
 20
-43.44961552567198
 40
0.2003625259806228
100
AcDbArc
 50
-179.8911908923777
 51
-90.1044375530894
  0
LWPOLYLINE
  5
12E
100
AcDbEntity
  8
0S-Profile PVC-U
  6
ByLayer
 62
  174
370
   -1
100
AcDbPolyline
 90
    2
 70
    0
 43
0
 10
-48.80001068010926
 20
-43.64997771879804
 10
-46.70001220598814
 20
-43.64997771879805
  0
ARC
  5
12F
100
AcDbEntity
  8
0S-Profile PVC-U
  6
ByLayer
 62
  174
370
   -1
100
AcDbCircle
 10
-46.70040879782356
 20
-43.85037887328782
 40
0.2004015469149678
100
AcDbArc
 50
0.111202044895407
 51
89.88661238628207
  0
LWPOLYLINE
  5
130
100
AcDbEntity
  8
0S-Profile PVC-U
  6
ByLayer
 62
  174
370
   -1
100
AcDbPolyline
 90
    2
 70
    0
 43
0
 10
-46.50000762835145
 20
-43.84998992582928
 10
-46.50000762835145
 20
-44.74998382231367
  0
ARC
  5
131
100
AcDbEntity
  8
0S-Profile PVC-U
  6
ByLayer
 62
  174
370
   -1
100
AcDbCircle
 10
-46.70042975194583
 20
-44.74957392153214
 40
0.2004225427558808
100
AcDbArc
 50
-89.88063399403916
 51
-0.117180437141078
  0
LWPOLYLINE
  5
132
100
AcDbEntity
  8
0S-Profile PVC-U
  6
ByLayer
 62
  174
370
   -1
100
AcDbPolyline
 90
    2
 70
    0
 43
0
 10
-46.70001220598817
 20
-44.94999602934492
 10
-48.58757734887038
 20
-44.94999602934491
  0
ARC
  5
133
100
AcDbEntity
  8
0S-Profile PVC-U
  6
ByLayer
 62
  174
370
   -1
100
AcDbCircle
 10
-48.5875773488704
 20
-45.14999602934493
 40
0.2000000000000028
100
AcDbArc
 50
89.99999999999994
 51
-150.1201598161733
  0
LWPOLYLINE
  5
134
100
AcDbEntity
  8
0S-Profile PVC-U
  6
ByLayer
 62
  174
370
   -1
100
AcDbPolyline
 90
    2
 70
    0
 43
0
 10
-48.76099176702199
 20
-45.24963256670517
 10
-46.51452155261526
 20
-49.1595468958
  0
ARC
  5
135
100
AcDbEntity
  8
0S-Profile PVC-U
  6
ByLayer
 62
  174
370
   -1
100
AcDbCircle
 10
-47.35577420160663
 20
-49.70018182107715
 40
0.9999960709244817
100
AcDbArc
 50
-81.81839194810023
 51
32.7270160998408
  0
LWPOLYLINE
  5
136
100
AcDbEntity
  8
0S-Profile PVC-U
  6
ByLayer
 62
  174
370
   -1
100
AcDbPolyline
 90
    2
 70
    0
 43
0
 10
-47.21346355261527
 20
-50.68999989580001
 10
-50.69000505071501
 20
-50.69000000138587
  0
ARC
  5
137
100
AcDbEntity
  8
0S-Profile PVC-U
  6
ByLayer
 62
  174
370
   -1
100
AcDbCircle
 10
-50.69000769034009
 20
-50.19000402394726
 40
0.4999959774455789
100
AcDbArc
 50
179.9996975182267
 51
-89.99969751881419
  0
LWPOLYLINE
  5
138
100
AcDbEntity
  8
0S-Profile PVC-U
  6
ByLayer
 62
  174
370
   -1
100
AcDbPolyline
 90
    2
 70
    0
 43
0
 10
-51.19000366777871
 20
-50.19000138431706
 10
-51.1896717231208
 20
-47.79004449521305
  0
ARC
  5
139
100
AcDbEntity
  8
0S-Profile PVC-U
  6
ByLayer
 62
  174
370
   -1
100
AcDbCircle
 10
-51.48967172025124
 20
-47.79000300138586
 40
0.3000000000000043
100
AcDbArc
 50
-0.007924737292819256
 51
89.99999253438347
  0
LWPOLYLINE
  5
13A
100
AcDbEntity
  8
0S-Profile PVC-U
  6
ByLayer
 62
  174
370
   -1
100
AcDbPolyline
 90
    2
 70
    0
 43
0
 10
-51.48967168116135
 20
-47.49000300138586
 10
-52.30000311586453
 20
-47.4900028958
  0
ARC
  5
13B
100
AcDbEntity
  8
0S-Profile PVC-U
  6
ByLayer
 62
  174
370
   -1
100
AcDbCircle
 10
-52.30000305071473
 20
-46.99000289580002
 40
0.5000000000000071
100
AcDbArc
 50
180
 51
-90.00000746561783
  0
HATCH
  5
13C
100
AcDbEntity
  8
0S-Shading PVC-U
  6
ByLayer
 62
  174
370
   -1
100
AcDbHatch
 10
0
 20
0
 30
0
210
0
220
0
230
1
  2
ANSI31
 70
    0
 71
    0
 91
    1
 92
    0
 93
   26
 72
    1
 10
-52.80000305071474
 20
-46.9900028958
 11
-52.80000305071472
 21
-44.10749725004804
 72
    2
 10
-52.59959903946673
 20
-44.1078890237923
 40
0.2004043941907305
 50
180.1120085038914
 51
269.8836202750907
 73
    0
 72
    1
 10
-52.60000610247253
 20
-43.9074850430168
 11
-50.80000305071474
 21
-43.74998382231367
 72
    2
 10
-50.8004073081604
 20
-43.54958264688427
 40
0.2004015831713134
 50
270.1155792325436
 51
359.8887919884768
 73
    1
 72
    1
 10
-50.60000610247256
 20
-43.54997161528242
 11
-50.60000610247256
 21
-42.14997581144943
 72
    2
 10
-50.80041009266818
 20
-42.15036757952386
 40
0.2004043731273281
 50
0.1120068946614765
 51
89.88580753651286
 73
    1
 72
    1
 10
-50.80001068010927
 20
-41.94996360441817
 11
-51.09403093417621
 21
-41.83270317468468
 72
    2
 10
-49.79603562657049
 20
-41.04329896913048
 40
1.51919413450459
 50
148.693210448462
 51
32.45255162831441
 73
    0
 72
    1
 10
-48.51408475678063
 20
-41.85850003988428
 11
-48.80000305071474
 21
-41.94996360441818
 72
    2
 10
-48.79960645887933
 20
-42.15036475890794
 40
0.2004015469149797
 50
90.11338761371564
 51
179.8887979551078
 73
    1
 72
    1
 10
-49.00000762835145
 20
-42.14997581144942
 11
-49.00000762835144
 21
-43.44999602934491
 72
    2
 10
-48.79964546367387
 20
-43.44961552567198
 40
0.2003625259806087
 50
180.1088091076223
 51
269.8955624469106
 73
    1
 72
    1
 10
-48.80001068010926
 20
-43.64997771879804
 11
-46.70001220598814
 21
-43.64997771879805
 72
    2
 10
-46.70040879782356
 20
-43.85037887328782
 40
0.2004015469149722
 50
270.1133876137178
 51
359.8887979551045
 73
    0
 72
    1
 10
-46.50000762835145
 20
-43.84998992582928
 11
-46.50000762835145
 21
-44.74998382231367
 72
    2
 10
-46.70042975194583
 20
-44.74957392153214
 40
0.2004225427558973
 50
0.1171804371409692
 51
89.88063399403904
 73
    0
 72
    1
 10
-46.70001220598817
 20
-44.94999602934492
 11
-48.58757734887038
 21
-44.94999602934491
 72
    2
 10
-48.5875773488704
 20
-45.14999602934493
 40
0.2000000000000011
 50
89.99999999999994
 51
209.8798401838267
 73
    1
 72
    1
 10
-48.76099176702199
 20
-45.24963256670517
 11
-46.51452155261526
 21
-49.1595468958
 72
    2
 10
-47.35577420160663
 20
-49.70018182107715
 40
0.9999960709244818
 50
327.2729839001591
 51
81.81839194810021
 73
    0
 72
    1
 10
-47.21346355261527
 20
-50.68999989580001
 11
-50.69000505071501
 21
-50.69000000138587
 72
    2
 10
-50.69000769034009
 20
-50.19000402394726
 40
0.4999959774455866
 50
89.99969751881406
 51
180.0003024817732
 73
    0
 72
    1
 10
-51.19000366777871
 20
-50.19000138431706
 11
-51.1896717231208
 21
-47.79004449521305
 72
    2
 10
-51.48967172025124
 20
-47.79000300138586
 40
0.2999999999999989
 50
359.9920752627072
 51
89.99999253438347
 73
    1
 72
    1
 10
-51.48967168116135
 20
-47.49000300138586
 11
-52.30000311586453
 21
-47.4900028958
 72
    2
 10
-52.30000305071473
 20
-46.99000289580002
 40
0.4999999999999971
 50
90.00000746561774
 51
180
 73
    0
 97
    0
 75
    0
 76
    1
 52
-135
 41
0.4680000000000001
 77
    0
 78
    0
 98
    0
  0
ENDBLK
  5
63
330
61
100
AcDbEntity
  8
0
100
AcDbBlockEnd
  0
BLOCK
  5
65
330
64
100
AcDbEntity
  8
0
100
AcDbBlockBegin
  2
284683__44BDE50A_9B96_4A11_A827_B27FD869C2D8___A14B931F_26B5_49CE_8C6A_C9A7F089D132_
 70
    0
 10
0
 20
0
  3
284683__44BDE50A_9B96_4A11_A827_B27FD869C2D8___A14B931F_26B5_49CE_8C6A_C9A7F089D132_
  1

  0
LWPOLYLINE
  5
13D
100
AcDbEntity
  8
0S-Profile PVC-U
  6
ByLayer
 62
  174
370
   -1
100
AcDbPolyline
 90
    2
 70
    0
 43
0
 10
-52.80000915423353
 20
-43.0999526461094
 10
-52.80000303578625
 20
-14.40999689476238
  0
ARC
  5
13E
100
AcDbEntity
  8
0S-Profile PVC-U
  6
ByLayer
 62
  174
370
   -1
100
AcDbCircle
 10
-52.30000303578624
 20
-14.40999700139284
 40
0.4999999999999929
100
AcDbArc
 50
89.99999999999994
 51
179.9999877758217
  0
LWPOLYLINE
  5
13F
100
AcDbEntity
  8
0S-Profile PVC-U
  6
ByLayer
 62
  174
370
   -1
100
AcDbPolyline
 90
    2
 70
    0
 43
0
 10
-52.30000303578623
 20
-13.90999700139285
 10
-51.4896717173814
 20
-13.90999700139285
  0
ARC
  5
140
100
AcDbEntity
  8
0S-Profile PVC-U
  6
ByLayer
 62
  174
370
   -1
100
AcDbCircle
 10
-51.4896717173814
 20
-13.60999700139284
 40
0.3000000000000114
100
AcDbArc
 50
-90.00000000000141
 51
-3.246091501560079e-14
  0
LWPOLYLINE
  5
141
100
AcDbEntity
  8
0S-Profile PVC-U
  6
ByLayer
 62
  174
370
   -1
100
AcDbPolyline
 90
    2
 70
    0
 43
0
 10
-51.18967171738139
 20
-13.60999700139286
 10
-51.19000366777843
 20
-11.20999861845654
  0
ARC
  5
142
100
AcDbEntity
  8
0S-Profile PVC-U
  6
ByLayer
 62
  174
370
   -1
100
AcDbCircle
 10
-50.69000769033981
 20
-11.20999597883146
 40
0.4999959774455789
100
AcDbArc
 50
89.9996975188124
 51
-179.9996975182267
  0
LWPOLYLINE
  5
143
100
AcDbEntity
  8
0S-Profile PVC-U
  6
ByLayer
 62
  174
370
   -1
100
AcDbPolyline
 90
    2
 70
    0
 43
0
 10
-50.69000505071472
 20
-10.71000000139284
 10
-47.21346355261526
 20
-10.71000000139284
  0
ARC
  5
144
100
AcDbEntity
  8
0S-Profile PVC-U
  6
ByLayer
 62
  174
370
   -1
100
AcDbCircle
 10
-47.35577420160661
 20
-11.6998180761157
 40
0.9999960709244746
100
AcDbArc
 50
-32.7270160998408
 51
81.81839194810064
  0
LWPOLYLINE
  5
145
100
AcDbEntity
  8
0S-Profile PVC-U
  6
ByLayer
 62
  174
370
   -1
100
AcDbPolyline
 90
    3
 70
    0
 43
0
 10
-46.51452155261526
 20
-12.24045300139287
 10
-47.8999999989569
 20
-14.64017239217535
 10
-47.8999999989569
 20
-14.99996490638844
  0
ARC
  5
146
100
AcDbEntity
  8
0S-Profile PVC-U
  6
ByLayer
 62
  174
370
   -1
100
AcDbCircle
 10
-47.69999999895691
 20
-14.99996490638849
 40
0.1999999999999886
100
AcDbArc
 50
180
 51
-90.00000000001633
  0
LWPOLYLINE
  5
147
100
AcDbEntity
  8
0S-Profile PVC-U
  6
ByLayer
 62
  174
370
   -1
100
AcDbPolyline
 90
    2
 70
    0
 43
0
 10
-47.69999999895697
 20
-15.1999649063885
 10
-42.60001220598815
 20
-15.19996490638852
  0
ARC
  5
148
100
AcDbEntity
  8
0S-Profile PVC-U
  6
ByLayer
 62
  174
370
   -1
100
AcDbCircle
 10
-42.60001220598815
 20
-15.59995880287288
 40
0.3999938964843537
100
AcDbArc
 50
-90.00000000000004
 51
89.99999999999994
  0
LWPOLYLINE
  5
149
100
AcDbEntity
  8
0S-Profile PVC-U
  6
ByLayer
 62
  174
370
   -1
100
AcDbPolyline
 90
    2
 70
    0
 43
0
 10
-42.60001220598815
 20
-15.99995269935724
 10
-44.60001525774601
 20
-15.99995269935736
  0
ARC
  5
14A
100
AcDbEntity
  8
0S-Profile PVC-U
  6
ByLayer
 62
  174
370
   -1
100
AcDbCircle
 10
-44.60001525774585
 20
-16.29995269935711
 40
0.2999999999999829
100
AcDbArc
 50
90.00000000002709
 51
180
  0
LWPOLYLINE
  5
14B
100
AcDbEntity
  8
0S-Profile PVC-U
  6
ByLayer
 62
  174
370
   -1
100
AcDbPolyline
 90
    2
 70
    0
 43
0
 10
-44.90001525774585
 20
-16.2999526993571
 10
-44.90001525774585
 20
-16.49995269935712
  0
ARC
  5
14C
100
AcDbEntity
  8
0S-Profile PVC-U
  6
ByLayer
 62
  174
370
   -1
100
AcDbCircle
 10
-45.2000106801092
 20
-16.49995269935713
 40
0.2999954223633381
100
AcDbArc
 50
180
 51
-3.246091501560079e-14
  0
LWPOLYLINE
  5
14D
100
AcDbEntity
  8
0S-Profile PVC-U
  6
ByLayer
 62
  174
370
   -1
100
AcDbPolyline
 90
    2
 70
    0
 43
0
 10
-45.50000610247252
 20
-16.49995269935713
 10
-45.50000610247252
 20
-16.29995269935719
  0
ARC
  5
14E
100
AcDbEntity
  8
0S-Profile PVC-U
  6
ByLayer
 62
  174
370
   -1
100
AcDbCircle
 10
-45.80000610247259
 20
-16.29995269935718
 40
0.3000000000000753
100
AcDbArc
 50
-3.246091501560079e-14
 51
89.99999999999994
  0
LWPOLYLINE
  5
14F
100
AcDbEntity
  8
0S-Profile PVC-U
  6
ByLayer
 62
  174
370
   -1
100
AcDbPolyline
 90
    3
 70
    0
 43
0
 10
-45.80000610247259
 20
-15.99995269935712
 10
-48.32622375383971
 20
-15.99995269935712
 10
-50.49992675676937
 20
-17.25468444695187
  0
ARC
  5
150
100
AcDbEntity
  8
0S-Profile PVC-U
  6
ByLayer
 62
  174
370
   -1
100
AcDbCircle
 10
-49.99992048105101
 20
-18.12079276048705
 40
1.000074940458191
100
AcDbArc
 50
119.9979363638887
 51
179.9988858904896
  0
LWPOLYLINE
  5
151
100
AcDbEntity
  8
0S-Profile PVC-U
  6
ByLayer
 62
  174
370
   -1
100
AcDbPolyline
 90
    2
 70
    0
 43
0
 10
-50.99999542132014
 20
-18.12077331413923
 10
-51.00000803137529
 20
-34.89997603228803
  0
ARC
  5
152
100
AcDbEntity
  8
0S-Profile PVC-U
  6
ByLayer
 62
  174
370
   -1
100
AcDbCircle
 10
-50.00000803137588
 20
-34.89997711341964
 40
0.9999999999999787
100
AcDbArc
 50
179.9999380557947
 51
-89.99999999999882
  0
LWPOLYLINE
  5
153
100
AcDbEntity
  8
0S-Profile PVC-U
  6
ByLayer
 62
  174
370
   -1
100
AcDbPolyline
 90
    2
 70
    0
 43
0
 10
-50.00000803137586
 20
-35.89997711341962
 10
-45.80000610247249
 20
-35.89997711341962
  0
ARC
  5
154
100
AcDbEntity
  8
0S-Profile PVC-U
  6
ByLayer
 62
  174
370
   -1
100
AcDbCircle
 10
-45.80000610247258
 20
-35.59997711341957
 40
0.3000000000000469
100
AcDbArc
 50
-89.99999999998103
 51
-3.246091501560079e-14
  0
LWPOLYLINE
  5
155
100
AcDbEntity
  8
0S-Profile PVC-U
  6
ByLayer
 62
  174
370
   -1
100
AcDbPolyline
 90
    2
 70
    0
 43
0
 10
-45.50000610247253
 20
-35.59997711341958
 10
-45.50000610247241
 20
-35.39997711341961
  0
ARC
  5
156
100
AcDbEntity
  8
0S-Profile PVC-U
  6
ByLayer
 62
  174
370
   -1
100
AcDbCircle
 10
-45.2000106801092
 20
-35.39997711341963
 40
0.2999954223632173
100
AcDbArc
 50
-3.246091501560079e-14
 51
180
  0
LWPOLYLINE
  5
157
100
AcDbEntity
  8
0S-Profile PVC-U
  6
ByLayer
 62
  174
370
   -1
100
AcDbPolyline
 90
    2
 70
    0
 43
0
 10
-44.90001525774598
 20
-35.39997711341963
 10
-44.90001525774598
 20
-35.59997711341966
  0
ARC
  5
158
100
AcDbEntity
  8
0S-Profile PVC-U
  6
ByLayer
 62
  174
370
   -1
100
AcDbCircle
 10
-44.60001525774602
 20
-35.59997711341956
 40
0.2999999999999545
100
AcDbArc
 50
180
 51
-89.99999999997831
  0
LWPOLYLINE
  5
159
100
AcDbEntity
  8
0S-Profile PVC-U
  6
ByLayer
 62
  174
370
   -1
100
AcDbPolyline
 90
    2
 70
    0
 43
0
 10
-44.60001525774589
 20
-35.89997711341952
 10
-42.60001220598816
 20
-35.89997711341966
  0
ARC
  5
15A
100
AcDbEntity
  8
0S-Profile PVC-U
  6
ByLayer
 62
  174
370
   -1
100
AcDbCircle
 10
-42.60001220598816
 20
-36.29997100990406
 40
0.3999938964844247
100
AcDbArc
 50
-90.00000000000004
 51
89.99999999999994
  0
LWPOLYLINE
  5
15B
100
AcDbEntity
  8
0S-Profile PVC-U
  6
ByLayer
 62
  174
370
   -1
100
AcDbPolyline
 90
    2
 70
    0
 43
0
 10
-42.60001220598816
 20
-36.69996490638849
 10
-47.69281910453617
 20
-36.69996490638848
  0
ARC
  5
15C
100
AcDbEntity
  8
0S-Profile PVC-U
  6
ByLayer
 62
  174
370
   -1
100
AcDbCircle
 10
-47.69281910453618
 20
-37.69996490638843
 40
0.9999999999999503
100
AcDbArc
 50
89.99999999999918
 51
-121.7883306436107
  0
ARC
  5
15D
100
AcDbEntity
  8
0S-Profile PVC-U
  6
ByLayer
 62
  174
370
   -1
100
AcDbCircle
 10
-49.79994985668289
 20
-41.09996490541177
 40
3.000000000000185
100
AcDbArc
 50
-0.003997086741904
 51
58.21166935638848
  0
LWPOLYLINE
  5
15E
100
AcDbEntity
  8
0S-Profile PVC-U
  6
ByLayer
 62
  174
370
   -1
100
AcDbPolyline
 90
    2
 70
    0
 43
0
 10
-46.7999498639829
 20
-41.100174192384
 10
-46.80000915423023
 20
-42.79995269935718
  0
ARC
  5
15F
100
AcDbEntity
  8
0S-Profile PVC-U
  6
ByLayer
 62
  174
370
   -1
100
AcDbCircle
 10
-47.30000915423039
 20
-42.79995269935711
 40
0.5000000000001776
100
AcDbArc
 50
-90.00000000000654
 51
-3.246091501560079e-14
  0
LWPOLYLINE
  5
160
100
AcDbEntity
  8
0S-Profile PVC-U
  6
ByLayer
 62
  174
370
   -1
100
AcDbPolyline
 90
    2
 70
    0
 43
0
 10
-47.30000915423045
 20
-43.29995269935728
 10
-48.62602452571482
 20
-43.29995269935728
  0
ARC
  5
161
100
AcDbEntity
  8
0S-Profile PVC-U
  6
ByLayer
 62
  174
370
   -1
100
AcDbCircle
 10
-48.62602452571485
 20
-43.09995269935729
 40
0.1999999999999886
100
AcDbArc
 50
-174.9998434473608
 51
-89.99999999999594
  0
LWPOLYLINE
  5
162
100
AcDbEntity
  8
0S-Profile PVC-U
  6
ByLayer
 62
  174
370
   -1
100
AcDbPolyline
 90
    2
 70
    0
 43
0
 10
-48.82526341770427
 20
-43.11738439229907
 10
-48.89886749221774
 20
-42.27611244580132
  0
ARC
  5
163
100
AcDbEntity
  8
0S-Profile PVC-U
  6
ByLayer
 62
  174
370
   -1
100
AcDbCircle
 10
-48.6000091542335
 20
-42.24996490638862
 40
0.3000000000000682
100
AcDbArc
 50
89.99999999999731
 51
-174.9998434473534
  0
LWPOLYLINE
  5
164
100
AcDbEntity
  8
0S-Profile PVC-U
  6
ByLayer
 62
  174
370
   -1
100
AcDbPolyline
 90
    2
 70
    0
 43
0
 10
-48.6000091542335
 20
-41.94996490638854
 10
-48.21328669194373
 20
-41.94996490638847
  0
ARC
  5
165
100
AcDbEntity
  8
0S-Profile PVC-U
  6
ByLayer
 62
  174
370
   -1
100
AcDbCircle
 10
-49.79994985668272
 20
-41.0999649054118
 40
1.799999999999969
100
AcDbArc
 50
-28.17864277579923
 51
-151.8213572242008
  0
LWPOLYLINE
  5
166
100
AcDbEntity
  8
0S-Profile PVC-U
  6
ByLayer
 62
  174
370
   -1
100
AcDbPolyline
 90
    2
 70
    0
 43
0
 10
-51.3866130214217
 20
-41.94996490638848
 10
-51.00000915423347
 20
-41.94996490638858
  0
ARC
  5
167
100
AcDbEntity
  8
0S-Profile PVC-U
  6
ByLayer
 62
  174
370
   -1
100
AcDbCircle
 10
-51.00000915423342
 20
-42.24996490638865
 40
0.3000000000000469
100
AcDbArc
 50
-5.000156552637643
 51
90.00000000000931
  0
LWPOLYLINE
  5
168
100
AcDbEntity
  8
0S-Profile PVC-U
  6
ByLayer
 62
  174
370
   -1
100
AcDbPolyline
 90
    2
 70
    0
 43
0
 10
-50.7011508162492
 20
-42.27611244580131
 10
-50.77475489076257
 20
-43.117384392299
  0
ARC
  5
169
100
AcDbEntity
  8
0S-Profile PVC-U
  6
ByLayer
 62
  174
370
   -1
100
AcDbCircle
 10
-50.97399378275224
 20
-43.09995269935707
 40
0.2000000000002231
100
AcDbArc
 50
-90.00000000000819
 51
-5.000156552672145
  0
LWPOLYLINE
  5
16A
100
AcDbEntity
  8
0S-Profile PVC-U
  6
ByLayer
 62
  174
370
   -1
100
AcDbPolyline
 90
    2
 70
    0
 43
0
 10
-50.97399378275225
 20
-43.29995269935731
 10
-52.60000915423349
 20
-43.2999526993573
  0
ARC
  5
16B
100
AcDbEntity
  8
0S-Profile PVC-U
  6
ByLayer
 62
  174
370
   -1
100
AcDbCircle
 10
-52.60000915423351
 20
-43.09995269935726
 40
0.2000000000000313
100
AcDbArc
 50
-179.9999847272327
 51
-89.9999999999939
  0
HATCH
  5
16C
100
AcDbEntity
  8
0S-Shading PVC-U
  6
ByLayer
 62
  174
370
   -1
100
AcDbHatch
 10
0
 20
0
 30
0
210
0
220
0
230
1
  2
ANSI31
 70
    0
 71
    0
 91
    1
 92
    0
 93
   49
 72
    1
 10
-52.80000915423353
 20
-43.0999526461094
 11
-52.80000303578625
 21
-14.40999689476238
 72
    2
 10
-52.30000303578624
 20
-14.40999700139284
 40
0.5
 50
180.0000122241782
 51
269.9999999999999
 73
    0
 72
    1
 10
-52.30000303578623
 20
-13.90999700139285
 11
-51.4896717173814
 21
-13.90999700139285
 72
    2
 10
-51.4896717173814
 20
-13.60999700139284
 40
0.3000000000000024
 50
269.9999999999986
 51
359.9999999999999
 73
    1
 72
    1
 10
-51.18967171738139
 20
-13.60999700139286
 11
-51.19000366777843
 21
-11.20999861845654
 72
    2
 10
-50.69000769033981
 20
-11.20999597883146
 40
0.4999959774455817
 50
179.9996975182267
 51
270.0003024811874
 73
    0
 72
    1
 10
-50.69000505071472
 20
-10.71000000139284
 11
-47.21346355261526
 21
-10.71000000139284
 72
    2
 10
-47.35577420160661
 20
-11.6998180761157
 40
0.9999960709244763
 50
278.1816080518994
 51
32.72701609984068
 73
    0
 72
    1
 10
-46.51452155261526
 20
-12.24045300139287
 11
-47.8999999989569
 21
-14.64017239217535
 72
    1
 10
-47.8999999989569
 20
-14.64017239217535
 11
-47.8999999989569
 21
-14.99996490638844
 72
    2
 10
-47.69999999895691
 20
-14.99996490638849
 40
0.1999999999999887
 50
180
 51
269.9999999999837
 73
    1
 72
    1
 10
-47.69999999895697
 20
-15.1999649063885
 11
-42.60001220598815
 21
-15.19996490638852
 72
    2
 10
-42.60001220598815
 20
-15.59995880287288
 40
0.3999938964843617
 50
269.9999999999999
 51
89.99999999999994
 73
    0
 72
    1
 10
-42.60001220598815
 20
-15.99995269935724
 11
-44.60001525774601
 21
-15.99995269935736
 72
    2
 10
-44.60001525774585
 20
-16.29995269935711
 40
0.2999999999999829
 50
90.00000000002709
 51
180
 73
    1
 72
    1
 10
-44.90001525774585
 20
-16.2999526993571
 11
-44.90001525774585
 21
-16.49995269935712
 72
    2
 10
-45.2000106801092
 20
-16.49995269935713
 40
0.2999954223633381
 50
359.9999999999999
 51
180
 73
    0
 72
    1
 10
-45.50000610247252
 20
-16.49995269935713
 11
-45.50000610247252
 21
-16.29995269935719
 72
    2
 10
-45.80000610247259
 20
-16.29995269935718
 40
0.3000000000000682
 50
359.9999999999999
 51
89.99999999999994
 73
    1
 72
    1
 10
-45.80000610247259
 20
-15.99995269935712
 11
-48.32622375383971
 21
-15.99995269935712
 72
    1
 10
-48.32622375383971
 20
-15.99995269935712
 11
-50.49992675676937
 21
-17.25468444695187
 72
    2
 10
-49.99992048105101
 20
-18.12079276048705
 40
1.000074940458192
 50
119.9979363638887
 51
179.9988858904896
 73
    1
 72
    1
 10
-50.99999542132014
 20
-18.12077331413923
 11
-51.00000803137529
 21
-34.89997603228803
 72
    2
 10
-50.00000803137588
 20
-34.89997711341964
 40
0.9999999999999939
 50
179.9999380557947
 51
270.0000000000012
 73
    1
 72
    1
 10
-50.00000803137586
 20
-35.89997711341962
 11
-45.80000610247249
 21
-35.89997711341962
 72
    2
 10
-45.80000610247258
 20
-35.59997711341957
 40
0.300000000000054
 50
270.000000000019
 51
359.9999999999999
 73
    1
 72
    1
 10
-45.50000610247253
 20
-35.59997711341958
 11
-45.50000610247241
 21
-35.39997711341961
 72
    2
 10
-45.2000106801092
 20
-35.39997711341963
 40
0.2999954223632244
 50
180
 51
359.9999999999999
 73
    0
 72
    1
 10
-44.90001525774598
 20
-35.39997711341963
 11
-44.90001525774598
 21
-35.59997711341966
 72
    2
 10
-44.60001525774602
 20
-35.59997711341956
 40
0.2999999999999545
 50
180
 51
270.0000000000217
 73
    1
 72
    1
 10
-44.60001525774589
 20
-35.89997711341952
 11
-42.60001220598816
 21
-35.89997711341966
 72
    2
 10
-42.60001220598816
 20
-36.29997100990406
 40
0.3999938964844141
 50
269.9999999999999
 51
89.99999999999994
 73
    0
 72
    1
 10
-42.60001220598816
 20
-36.69996490638849
 11
-47.69281910453617
 21
-36.69996490638848
 72
    2
 10
-47.69281910453618
 20
-37.69996490638843
 40
0.9999999999999452
 50
89.99999999999918
 51
238.2116693563893
 73
    1
 72
    2
 10
-49.79994985668289
 20
-41.09996490541177
 40
3.00000000000018
 50
301.7883306436115
 51
0.00399708674182065
 73
    0
 72
    1
 10
-46.7999498639829
 20
-41.100174192384
 11
-46.80000915423023
 21
-42.79995269935718
 72
    2
 10
-47.30000915423039
 20
-42.79995269935711
 40
0.5000000000001618
 50
359.9999999999999
 51
90.00000000000647
 73
    0
 72
    1
 10
-47.30000915423045
 20
-43.29995269935728
 11
-48.62602452571482
 21
-43.29995269935728
 72
    2
 10
-48.62602452571485
 20
-43.09995269935729
 40
0.199999999999989
 50
89.99999999999592
 51
174.9998434473607
 73
    0
 72
    1
 10
-48.82526341770427
 20
-43.11738439229907
 11
-48.89886749221774
 21
-42.27611244580132
 72
    2
 10
-48.6000091542335
 20
-42.24996490638862
 40
0.3000000000000708
 50
174.9998434473533
 51
270.0000000000027
 73
    0
 72
    1
 10
-48.6000091542335
 20
-41.94996490638854
 11
-48.21328669194373
 21
-41.94996490638847
 72
    2
 10
-49.79994985668272
 20
-41.0999649054118
 40
1.799999999999962
 50
331.8213572242008
 51
208.1786427757991
 73
    1
 72
    1
 10
-51.3866130214217
 20
-41.94996490638848
 11
-51.00000915423347
 21
-41.94996490638858
 72
    2
 10
-51.00000915423342
 20
-42.24996490638865
 40
0.300000000000048
 50
269.9999999999905
 51
5.000156552637457
 73
    0
 72
    1
 10
-50.7011508162492
 20
-42.27611244580131
 11
-50.77475489076257
 21
-43.117384392299
 72
    2
 10
-50.97399378275224
 20
-43.09995269935707
 40
0.2000000000002296
 50
5.000156552672113
 51
90.00000000000804
 73
    0
 72
    1
 10
-50.97399378275225
 20
-43.29995269935731
 11
-52.60000915423349
 21
-43.2999526993573
 72
    2
 10
-52.60000915423351
 20
-43.09995269935726
 40
0.2000000000000324
 50
89.99999999999389
 51
179.9999847272327
 73
    0
 97
    0
 75
    0
 76
    1
 52
-135
 41
0.4680000000000001
 77
    0
 78
    0
 98
    0
  0
ENDBLK
  5
66
330
64
100
AcDbEntity
  8
0
100
AcDbBlockEnd
  0
BLOCK
  5
68
330
67
100
AcDbEntity
  8
0
100
AcDbBlockBegin
  2
381960__0E699657_352F_4CA2_BEB9_47EE7F2C9AC4_
 70
    0
 10
0
 20
0
  3
381960__0E699657_352F_4CA2_BEB9_47EE7F2C9AC4_
  1

  0
ARC
  5
16D
100
AcDbEntity
  8
0S-Profile Isolator
  6
ByLayer
 62
  174
370
   -1
100
AcDbCircle
 10
-20.9999641149509
 20
-35.39995496133266
 40
0.4500221525778123
100
AcDbArc
 50
-179.997179647569
 51
-90.00252348053864
  0
LWPOLYLINE
  5
16E
100
AcDbEntity
  8
0S-Profile Isolator
  6
ByLayer
 62
  174
370
   -1
100
AcDbPolyline
 90
    2
 70
    0
 43
0
 10
-21.4499862669835
 20
-35.3999771134193
 10
-21.44998626703775
 20
-16.49995503104413
  0
ARC
  5
16F
100
AcDbEntity
  8
0S-Profile Isolator
  6
ByLayer
 62
  174
370
   -1
100
AcDbCircle
 10
-20.99996411489646
 20
-16.49997485138955
 40
0.4500221525777555
100
AcDbArc
 50
90.00282035246563
 51
179.9974765193579
  0
LWPOLYLINE
  5
170
100
AcDbEntity
  8
0S-Profile Isolator
  6
ByLayer
 62
  174
370
   -1
100
AcDbPolyline
 90
    2
 70
    0
 43
0
 10
-20.99998626698338
 20
-16.04995269935701
 10
-6.199987792862347
 20
-16.04995269935714
  0
ARC
  5
171
100
AcDbEntity
  8
0S-Profile Isolator
  6
ByLayer
 62
  174
370
   -1
100
AcDbCircle
 10
-6.199987792862379
 20
-16.29995269935712
 40
0.2499999999999911
100
AcDbArc
 50
-3.246091501560079e-14
 51
89.99999999999351
  0
LWPOLYLINE
  5
172
100
AcDbEntity
  8
0S-Profile Isolator
  6
ByLayer
 62
  174
370
   -1
100
AcDbPolyline
 90
    2
 70
    0
 43
0
 10
-5.949987792862392
 20
-16.29995269935711
 10
-5.949987792862391
 20
-16.49995269935714
  0
ARC
  5
173
100
AcDbEntity
  8
0S-Profile Isolator
  6
ByLayer
 62
  174
370
   -1
100
AcDbCircle
 10
-5.599992370499058
 20
-16.49995269935714
 40
0.3499954223633335
100
AcDbArc
 50
180
 51
-3.246091501560079e-14
  0
LWPOLYLINE
  5
174
100
AcDbEntity
  8
0S-Profile Isolator
  6
ByLayer
 62
  174
370
   -1
100
AcDbPolyline
 90
    2
 70
    0
 43
0
 10
-5.24999694813572
 20
-16.49995269935714
 10
-5.249996948135721
 20
-16.29995269935719
  0
ARC
  5
175
100
AcDbEntity
  8
0S-Profile Isolator
  6
ByLayer
 62
  174
370
   -1
100
AcDbCircle
 10
-4.999996948135649
 20
-16.2999526993572
 40
0.2500000000000675
100
AcDbArc
 50
89.99999999999994
 51
180
  0
LWPOLYLINE
  5
176
100
AcDbEntity
  8
0S-Profile Isolator
  6
ByLayer
 62
  174
370
   -1
100
AcDbPolyline
 90
    3
 70
    0
 43
0
 10
-4.999996948135649
 20
-16.04995269935714
 10
-2.487174387079424
 20
-16.04995269935714
 10
-0.3250747342302311
 20
-17.29798661754413
  0
ARC
  5
177
100
AcDbEntity
  8
0S-Profile Isolator
  6
ByLayer
 62
  174
370
   -1
100
AcDbCircle
 10
-0.8000817601311265
 20
-18.12079229314484
 40
0.9500741310318572
100
AcDbArc
 50
0.001142293941971707
 51
60.00209181991488
  0
LWPOLYLINE
  5
178
100
AcDbEntity
  8
0S-Profile Isolator
  6
ByLayer
 62
  174
370
   -1
100
AcDbPolyline
 90
    2
 70
    0
 43
0
 10
0.1499923707119066
 20
-18.12077335171611
 10
0.1500049807670507
 20
-34.89997608634463
  0
ARC
  5
179
100
AcDbEntity
  8
0S-Profile Isolator
  6
ByLayer
 62
  174
370
   -1
100
AcDbCircle
 10
-0.7999950192323766
 20
-34.89997711341965
 40
0.9499999999999957
100
AcDbArc
 50
-90.00000000000175
 51
6.194420528260958e-05
  0
LWPOLYLINE
  5
17A
100
AcDbEntity
  8
0S-Profile Isolator
  6
ByLayer
 62
  174
370
   -1
100
AcDbPolyline
 90
    2
 70
    0
 43
0
 10
-0.7999950192324086
 20
-35.84997711341964
 10
-4.999996948135756
 20
-35.84997711341963
  0
ARC
  5
17B
100
AcDbEntity
  8
0S-Profile Isolator
  6
ByLayer
 62
  174
370
   -1
100
AcDbCircle
 10
-4.999996948135642
 20
-35.59997711341956
 40
0.2500000000000977
100
AcDbArc
 50
180
 51
-90.00000000002606
  0
LWPOLYLINE
  5
17C
100
AcDbEntity
  8
0S-Profile Isolator
  6
ByLayer
 62
  174
370
   -1
100
AcDbPolyline
 90
    2
 70
    0
 43
0
 10
-5.249996948135724
 20
-35.59997711341956
 10
-5.249996948135843
 20
-35.39997711341963
  0
ARC
  5
17D
100
AcDbEntity
  8
0S-Profile Isolator
  6
ByLayer
 62
  174
370
   -1
100
AcDbCircle
 10
-5.599992370499061
 20
-35.39997711341964
 40
0.3499954223632198
100
AcDbArc
 50
-3.246091501560079e-14
 51
180
  0
LWPOLYLINE
  5
17E
100
AcDbEntity
  8
0S-Profile Isolator
  6
ByLayer
 62
  174
370
   -1
100
AcDbPolyline
 90
    2
 70
    0
 43
0
 10
-5.949987792862281
 20
-35.39997711341963
 10
-5.949987792862281
 20
-35.59997711341966
  0
ARC
  5
17F
100
AcDbEntity
  8
0S-Profile Isolator
  6
ByLayer
 62
  174
370
   -1
100
AcDbCircle
 10
-6.199987792862252
 20
-35.59997711341957
 40
0.2499999999999591
100
AcDbArc
 50
-90.00000000002284
 51
-3.246091501560079e-14
  0
LWPOLYLINE
  5
180
100
AcDbEntity
  8
0S-Profile Isolator
  6
ByLayer
 62
  174
370
   -1
100
AcDbPolyline
 90
    2
 70
    0
 43
0
 10
-6.199987792862352
 20
-35.84997711341953
 10
-20.99998393529637
 20
-35.84997711347399
  0
ENDBLK
  5
69
330
67
100
AcDbEntity
  8
0
100
AcDbBlockEnd
  0
BLOCK
  5
6B
330
6A
100
AcDbEntity
  8
0
100
AcDbBlockBegin
  2
381960__0FC692AF_19FE_41FB_A357_EC00BE1FC95A_
 70
    0
 10
0
 20
0
  3
381960__0FC692AF_19FE_41FB_A357_EC00BE1FC95A_
  1

  0
LWPOLYLINE
  5
181
100
AcDbEntity
  8
0S-Profile Isolator
  6
ByLayer
 62
  174
370
   -1
100
AcDbPolyline
 90
    2
 70
    0
 43
0
 10
-29.35001678308107
 20
-35.39995379546197
 10
-29.35001678308117
 20
-16.49997601730166
  0
ARC
  5
182
100
AcDbEntity
  8
0S-Profile Isolator
  6
ByLayer
 62
  174
370
   -1
100
AcDbCircle
 10
-29.80004010158156
 20
-16.49997601731369
 40
0.4500233185003779
100
AcDbArc
 50
-3.246091501560079e-14
 51
89.99999999988327
  0
LWPOLYLINE
  5
183
100
AcDbEntity
  8
0S-Profile Isolator
  6
ByLayer
 62
  174
370
   -1
100
AcDbPolyline
 90
    2
 70
    0
 43
0
 10
-29.80004010158064
 20
-16.0499526988133
 10
-44.60001525774588
 20
-16.04995269935711
  0
ARC
  5
184
100
AcDbEntity
  8
0S-Profile Isolator
  6
ByLayer
 62
  174
370
   -1
100
AcDbCircle
 10
-44.6000152577458
 20
-16.29995269935728
 40
0.2500000000001634
100
AcDbArc
 50
90.00000000001633
 51
180
  0
LWPOLYLINE
  5
185
100
AcDbEntity
  8
0S-Profile Isolator
  6
ByLayer
 62
  174
370
   -1
100
AcDbPolyline
 90
    2
 70
    0
 43
0
 10
-44.85001525774596
 20
-16.29995269935728
 10
-44.85001525774596
 20
-16.49995269935721
  0
ARC
  5
186
100
AcDbEntity
  8
0S-Profile Isolator
  6
ByLayer
 62
  174
370
   -1
100
AcDbCircle
 10
-45.20001068010924
 20
-16.49995269935717
 40
0.3499954223632855
100
AcDbArc
 50
180
 51
-3.246091501560079e-14
  0
LWPOLYLINE
  5
187
100
AcDbEntity
  8
0S-Profile Isolator
  6
ByLayer
 62
  174
370
   -1
100
AcDbPolyline
 90
    2
 70
    0
 43
0
 10
-45.55000610247252
 20
-16.49995269935717
 10
-45.55000610247253
 20
-16.29995269935725
  0
ARC
  5
188
100
AcDbEntity
  8
0S-Profile Isolator
  6
ByLayer
 62
  174
370
   -1
100
AcDbCircle
 10
-45.80000610247265
 20
-16.29995269935724
 40
0.2500000000001208
100
AcDbArc
 50
-3.246091501560079e-14
 51
90.00000000000327
  0
LWPOLYLINE
  5
189
100
AcDbEntity
  8
0S-Profile Isolator
  6
ByLayer
 62
  174
370
   -1
100
AcDbPolyline
 90
    3
 70
    0
 43
0
 10
-45.80000610247267
 20
-16.04995269935711
 10
-48.31282866354336
 20
-16.04995269935723
 10
-50.47488519436423
 20
-17.29796172461528
  0
ARC
  5
18A
100
AcDbEntity
  8
0S-Profile Isolator
  6
ByLayer
 62
  174
370
   -1
100
AcDbCircle
 10
-49.9999204810514
 20
-18.12079276048703
 40
0.9500749404579452
100
AcDbArc
 50
119.9949336249641
 51
-179.9999569372958
  0
LWPOLYLINE
  5
18B
100
AcDbEntity
  8
0S-Profile Isolator
  6
ByLayer
 62
  174
370
   -1
100
AcDbPolyline
 90
    2
 70
    0
 43
0
 10
-50.94999542150906
 20
-18.12079347455003
 10
-50.9500080313756
 20
-34.89997639946735
  0
ARC
  5
18C
100
AcDbEntity
  8
0S-Profile Isolator
  6
ByLayer
 62
  174
370
   -1
100
AcDbCircle
 10
-50.00000803137577
 20
-34.89997711341975
 40
0.950000000000081
100
AcDbArc
 50
179.9999569457602
 51
-89.9999999999966
  0
LWPOLYLINE
  5
18D
100
AcDbEntity
  8
0S-Profile Isolator
  6
ByLayer
 62
  174
370
   -1
100
AcDbPolyline
 90
    2
 70
    0
 43
0
 10
-50.00000803137572
 20
-35.84997711341985
 10
-45.80000610247252
 20
-35.84997711341964
  0
ARC
  5
18E
100
AcDbEntity
  8
0S-Profile Isolator
  6
ByLayer
 62
  174
370
   -1
100
AcDbCircle
 10
-45.80000610247251
 20
-35.59997711341963
 40
0.25
100
AcDbArc
 50
-89.99999999999844
 51
-3.246091501560079e-14
  0
LWPOLYLINE
  5
18F
100
AcDbEntity
  8
0S-Profile Isolator
  6
ByLayer
 62
  174
370
   -1
100
AcDbPolyline
 90
    2
 70
    0
 43
0
 10
-45.55000610247252
 20
-35.59997711341963
 10
-45.55000610247253
 20
-35.39997711341972
  0
ARC
  5
190
100
AcDbEntity
  8
0S-Profile Isolator
  6
ByLayer
 62
  174
370
   -1
100
AcDbCircle
 10
-45.20001068010925
 20
-35.39997711341974
 40
0.3499954223632784
100
AcDbArc
 50
-3.246091501560079e-14
 51
180
  0
LWPOLYLINE
  5
191
100
AcDbEntity
  8
0S-Profile Isolator
  6
ByLayer
 62
  174
370
   -1
100
AcDbPolyline
 90
    2
 70
    0
 43
0
 10
-44.85001525774597
 20
-35.39997711341974
 10
-44.85001525774597
 20
-35.59997711341956
  0
ARC
  5
192
100
AcDbEntity
  8
0S-Profile Isolator
  6
ByLayer
 62
  174
370
   -1
100
AcDbCircle
 10
-44.6000152577458
 20
-35.59997711341956
 40
0.2500000000001847
100
AcDbArc
 50
180
 51
-90.00000000210399
  0
LWPOLYLINE
  5
193
100
AcDbEntity
  8
0S-Profile Isolator
  6
ByLayer
 62
  174
370
   -1
100
AcDbPolyline
 90
    2
 70
    0
 43
0
 10
-44.60001525775497
 20
-35.84997711341975
 10
-29.80004010158243
 20
-35.84997711396333
  0
ARC
  5
194
100
AcDbEntity
  8
0S-Profile Isolator
  6
ByLayer
 62
  174
370
   -1
100
AcDbCircle
 10
-29.80004010158242
 20
-35.39995379546198
 40
0.4500233185013691
100
AcDbArc
 50
-90.00000000000092
 51
-3.246091501560079e-14
  0
ENDBLK
  5
6C
330
6A
100
AcDbEntity
  8
0
100
AcDbBlockEnd
  0
BLOCK
  5
6E
330
6D
100
AcDbEntity
  8
0
100
AcDbBlockBegin
  2
398130__6DA5FED2_3960_48D5_96D9_563AD5B5A194_
 70
    0
 10
0
 20
0
  3
398130__6DA5FED2_3960_48D5_96D9_563AD5B5A194_
  1

  0
LWPOLYLINE
  5
195
100
AcDbEntity
  8
0S-Profile Aluminium
  6
ByLayer
 62
  174
370
   -1
100
AcDbPolyline
 90
    2
 70
    0
 43
0
 10
4.500000000111964
 20
-8.500000000106567
 10
-4.499999999888105
 20
-8.500000000106793
  0
ARC
  5
196
100
AcDbEntity
  8
0S-Profile Aluminium
  6
ByLayer
 62
  174
370
   -1
100
AcDbCircle
 10
-4.500030519799937
 20
-8.000030516230037
 40
0.4999694848082656
100
AcDbArc
 50
179.9921311418369
 51
-89.99650246226368
  0
LWPOLYLINE
  5
197
100
AcDbEntity
  8
0S-Profile Aluminium
  6
ByLayer
 62
  174
370
   -1
100
AcDbPolyline
 90
    2
 70
    0
 43
0
 10
-4.999999999893094
 20
-7.999961851679474
 10
-4.999999999893049
 20
-0.5000000001170366
  0
ARC
  5
198
100
AcDbEntity
  8
0S-Profile Aluminium
  6
ByLayer
 62
  174
370
   -1
100
AcDbCircle
 10
-5.500030517471287
 20
-0.5000305176848157
 40
0.5000305185095018
100
AcDbArc
 50
0.003496842154915772
 51
89.99650315599177
  0
LWPOLYLINE
  5
199
100
AcDbEntity
  8
0S-Profile Aluminium
  6
ByLayer
 62
  174
370
   -1
100
AcDbPolyline
 90
    2
 70
    0
 43
0
 10
-5.499999999888032
 20
-1.065796340071756e-10
 10
-77.50000000010652
 20
-1.064961452357238e-10
  0
ARC
  5
19A
100
AcDbEntity
  8
0S-Profile Aluminium
  6
ByLayer
 62
  174
370
   -1
100
AcDbCircle
 10
-77.50000000010651
 20
-0.4999999999999858
 40
0.4999999998935039
100
AcDbArc
 50
89.99999999999994
 51
180
  0
LWPOLYLINE
  5
19B
100
AcDbEntity
  8
0S-Profile Aluminium
  6
ByLayer
 62
  174
370
   -1
100
AcDbPolyline
 90
    2
 70
    0
 43
0
 10
-78
 20
-0.4999999999999858
 10
-78
 20
-4.499999999999972
  0
ARC
  5
19C
100
AcDbEntity
  8
0S-Profile Aluminium
  6
ByLayer
 62
  174
370
   -1
100
AcDbCircle
 10
-77.5
 20
-4.499999999999972
 40
0.5
100
AcDbArc
 50
180
 51
-90.00000000000004
  0
LWPOLYLINE
  5
19D
100
AcDbEntity
  8
0S-Profile Aluminium
  6
ByLayer
 62
  174
370
   -1
100
AcDbPolyline
 90
    2
 70
    0
 43
0
 10
-77.5
 20
-4.999999999999972
 10
-76.20000000000002
 20
-4.999999999999979
  0
ARC
  5
19E
100
AcDbEntity
  8
0S-Profile Aluminium
  6
ByLayer
 62
  174
370
   -1
100
AcDbCircle
 10
-76.2
 20
-4.499999999999972
 40
0.5000000000000142
100
AcDbArc
 50
-90.00000000000004
 51
-3.246091501560079e-14
  0
LWPOLYLINE
  5
19F
100
AcDbEntity
  8
0S-Profile Aluminium
  6
ByLayer
 62
  174
370
   -1
100
AcDbPolyline
 90
    4
 70
    0
 43
0
 10
-75.7
 20
-4.499999999999972
 10
-75.69999999999999
 20
-3.999999999999979
 10
-76.7
 20
-3.999999999999972
 10
-76.69999999999999
 20
-2.499999999999979
  0
ARC
  5
1A0
100
AcDbEntity
  8
0S-Profile Aluminium
  6
ByLayer
 62
  174
370
   -1
100
AcDbCircle
 10
-75.69999999999999
 20
-2.499999999999979
 40
1.000000000000014
100
AcDbArc
 50
89.99999999999994
 51
180
  0
LWPOLYLINE
  5
1A1
100
AcDbEntity
  8
0S-Profile Aluminium
  6
ByLayer
 62
  174
370
   -1
100
AcDbPolyline
 90
    2
 70
    0
 43
0
 10
-75.69999999999999
 20
-1.499999999999986
 10
-71.69999999999999
 20
-1.499999999999979
  0
ARC
  5
1A2
100
AcDbEntity
  8
0S-Profile Aluminium
  6
ByLayer
 62
  174
370
   -1
100
AcDbCircle
 10
-71.69999999999999
 20
-2.499999999999979
 40
1.000000000000014
100
AcDbArc
 50
-3.246091501560079e-14
 51
89.99999999999994
  0
LWPOLYLINE
  5
1A3
100
AcDbEntity
  8
0S-Profile Aluminium
  6
ByLayer
 62
  174
370
   -1
100
AcDbPolyline
 90
    4
 70
    0
 43
0
 10
-70.7
 20
-2.499999999999979
 10
-70.69999999999999
 20
-3.999999999999986
 10
-71.69999999999999
 20
-3.999999999999979
 10
-71.69999999999999
 20
-4.499999999999972
  0
ARC
  5
1A4
100
AcDbEntity
  8
0S-Profile Aluminium
  6
ByLayer
 62
  174
370
   -1
100
AcDbCircle
 10
-71.2
 20
-4.499999999999972
 40
0.5000000000000142
100
AcDbArc
 50
180
 51
-90.00000000000004
  0
LWPOLYLINE
  5
1A5
100
AcDbEntity
  8
0S-Profile Aluminium
  6
ByLayer
 62
  174
370
   -1
100
AcDbPolyline
 90
    2
 70
    0
 43
0
 10
-71.2
 20
-4.999999999999979
 10
-68.40000000000001
 20
-4.999999999999979
  0
ARC
  5
1A6
100
AcDbEntity
  8
0S-Profile Aluminium
  6
ByLayer
 62
  174
370
   -1
100
AcDbCircle
 10
-68.40000000000001
 20
-4.499999999999975
 40
0.5
100
AcDbArc
 50
-90.00000000000004
 51
-3.246091501560079e-14
  0
LWPOLYLINE
  5
1A7
100
AcDbEntity
  8
0S-Profile Aluminium
  6
ByLayer
 62
  174
370
   -1
100
AcDbPolyline
 90
    2
 70
    0
 43
0
 10
-67.90000000000001
 20
-4.499999999999975
 10
-67.90000000000001
 20
-4.299999999999979
  0
ARC
  5
1A8
100
AcDbEntity
  8
0S-Profile Aluminium
  6
ByLayer
 62
  174
370
   -1
100
AcDbCircle
 10
-68.40000000000001
 20
-4.299999999999976
 40
0.5
100
AcDbArc
 50
-3.246091501560079e-14
 51
89.99999999999994
  0
LWPOLYLINE
  5
1A9
100
AcDbEntity
  8
0S-Profile Aluminium
  6
ByLayer
 62
  174
370
   -1
100
AcDbPolyline
 90
    2
 70
    0
 43
0
 10
-68.40000000000001
 20
-3.799999999999983
 10
-68.90000000000001
 20
-3.799999999999983
  0
ARC
  5
1AA
100
AcDbEntity
  8
0S-Profile Aluminium
  6
ByLayer
 62
  174
370
   -1
100
AcDbCircle
 10
-68.90000000000001
 20
-3.299999999999976
 40
0.5
100
AcDbArc
 50
180
 51
-90.00000000000004
  0
LWPOLYLINE
  5
1AB
100
AcDbEntity
  8
0S-Profile Aluminium
  6
ByLayer
 62
  174
370
   -1
100
AcDbPolyline
 90
    2
 70
    0
 43
0
 10
-69.40000000000001
 20
-3.299999999999976
 10
-69.40000000000001
 20
-2.499999999999979
  0
ARC
  5
1AC
100
AcDbEntity
  8
0S-Profile Aluminium
  6
ByLayer
 62
  174
370
   -1
100
AcDbCircle
 10
-68.90000000010656
 20
-2.499999999999986
 40
0.499999999893447
100
AcDbArc
 50
89.99999999999994
 51
180
  0
LWPOLYLINE
  5
1AD
100
AcDbEntity
  8
0S-Profile Aluminium
  6
ByLayer
 62
  174
370
   -1
100
AcDbPolyline
 90
    3
 70
    0
 43
0
 10
-68.90000000010656
 20
-2.000000000106525
 10
-57.80000305164963
 20
-2.000000000106734
 10
-51.72875707059367
 20
-2.433653887857513
  0
ARC
  5
1AE
100
AcDbEntity
  8
0S-Profile Aluminium
  6
ByLayer
 62
  174
370
   -1
100
AcDbCircle
 10
-51.80000305165132
 20
-3.431112664039841
 40
0.9999999999999929
100
AcDbArc
 50
-3.246091501560079e-14
 51
85.91444462125493
  0
LWPOLYLINE
  5
1AF
100
AcDbEntity
  8
0S-Profile Aluminium
  6
ByLayer
 62
  174
370
   -1
100
AcDbPolyline
 90
    2
 70
    0
 43
0
 10
-50.8000030516513
 20
-3.431112664039851
 10
-50.8000030516513
 20
-8.200000000106691
  0
ARC
  5
1B0
100
AcDbEntity
  8
0S-Profile Aluminium
  6
ByLayer
 62
  174
370
   -1
100
AcDbCircle
 10
-51.3000030516513
 20
-8.200000000106694
 40
0.5000000000000071
100
AcDbArc
 50
-90.0000000000033
 51
-3.246091501560079e-14
  0
LWPOLYLINE
  5
1B1
100
AcDbEntity
  8
0S-Profile Aluminium
  6
ByLayer
 62
  174
370
   -1
100
AcDbPolyline
 90
    2
 70
    0
 43
0
 10
-51.30000305165133
 20
-8.700000000106694
 10
-52.30000305165123
 20
-8.700000000106623
  0
ARC
  5
1B2
100
AcDbEntity
  8
0S-Profile Aluminium
  6
ByLayer
 62
  174
370
   -1
100
AcDbCircle
 10
-52.30000305165126
 20
-9.20000000010663
 40
0.5000000000000071
100
AcDbArc
 50
89.99999999999679
 51
180
  0
LWPOLYLINE
  5
1B3
100
AcDbEntity
  8
0S-Profile Aluminium
  6
ByLayer
 62
  174
370
   -1
100
AcDbPolyline
 90
    2
 70
    0
 43
0
 10
-52.80000305165127
 20
-9.20000000010663
 10
-52.80000305165127
 20
-10.70000000010658
  0
ARC
  5
1B4
100
AcDbEntity
  8
0S-Profile Aluminium
  6
ByLayer
 62
  174
370
   -1
100
AcDbCircle
 10
-52.87883949819431
 20
-10.96752059209969
 40
0.2788950563274071
100
AcDbArc
 50
-1.164589374096907
 51
73.58012358050945
  0
LWPOLYLINE
  5
1B5
100
AcDbEntity
  8
0S-Profile Aluminium
  6
ByLayer
 62
  174
370
   -1
100
AcDbPolyline
 90
    2
 70
    0
 43
0
 10
-52.60000205165129
 20
-10.97318900009805
 10
-52.60000205165129
 20
-11.42678300009808
  0
ARC
  5
1B6
100
AcDbEntity
  8
0S-Profile Aluminium
  6
ByLayer
 62
  174
370
   -1
100
AcDbCircle
 10
-52.87887014729446
 20
-11.43244365957514
 40
0.2789255417371663
100
AcDbArc
 50
-73.57540544464413
 51
1.162870072887994
  0
LWPOLYLINE
  5
1B7
100
AcDbEntity
  8
0S-Profile Aluminium
  6
ByLayer
 62
  174
370
   -1
100
AcDbPolyline
 90
    2
 70
    0
 43
0
 10
-52.80000305165128
 20
-11.69998700009809
 10
-52.80000305165128
 20
-13.57999800010657
  0
ARC
  5
1B8
100
AcDbEntity
  8
0S-Profile Aluminium
  6
ByLayer
 62
  174
370
   -1
100
AcDbCircle
 10
-52.50000305165126
 20
-13.57999800010658
 40
0.3000000000000327
100
AcDbArc
 50
180
 51
-90.00000000000004
  0
LWPOLYLINE
  5
1B9
100
AcDbEntity
  8
0S-Profile Aluminium
  6
ByLayer
 62
  174
370
   -1
100
AcDbPolyline
 90
    2
 70
    0
 43
0
 10
-52.50000305165127
 20
-13.8799980001066
 10
-51.52002873260851
 20
-13.8799980001066
  0
ARC
  5
1BA
100
AcDbEntity
  8
0S-Profile Aluminium
  6
ByLayer
 62
  174
370
   -1
100
AcDbCircle
 10
-51.52002873260851
 20
-13.5799980001066
 40
0.2999999999999972
100
AcDbArc
 50
-90.00000000000004
 51
-3.246091501560079e-14
  0
LWPOLYLINE
  5
1BB
100
AcDbEntity
  8
0S-Profile Aluminium
  6
ByLayer
 62
  174
370
   -1
100
AcDbPolyline
 90
    2
 70
    0
 43
0
 10
-51.2200287326085
 20
-13.5799980001066
 10
-51.2200287326085
 20
-10.8200000001066
  0
ARC
  5
1BC
100
AcDbEntity
  8
0S-Profile Aluminium
  6
ByLayer
 62
  174
370
   -1
100
AcDbCircle
 10
-51.10002873260848
 20
-10.82000000010658
 40
0.1200000000000188
100
AcDbArc
 50
89.99999999999994
 51
180
  0
LWPOLYLINE
  5
1BD
100
AcDbEntity
  8
0S-Profile Aluminium
  6
ByLayer
 62
  174
370
   -1
100
AcDbPolyline
 90
    2
 70
    0
 43
0
 10
-51.10002873260848
 20
-10.70000000010656
 10
-46.80000305165132
 20
-10.70000000010658
  0
ARC
  5
1BE
100
AcDbEntity
  8
0S-Profile Aluminium
  6
ByLayer
 62
  174
370
   -1
100
AcDbCircle
 10
-46.79999273154078
 20
-11.19998967999608
 40
0.4999896799960055
100
AcDbArc
 50
-0.001182622279949632
 51
90.00118262196622
  0
LWPOLYLINE
  5
1BF
100
AcDbEntity
  8
0S-Profile Aluminium
  6
ByLayer
 62
  174
370
   -1
100
AcDbPolyline
 90
    3
 70
    0
 43
0
 10
-46.30000305165129
 20
-11.20000000010666
 10
-46.30000305165131
 20
-11.90001220713785
 10
-47.68824768055755
 20
-14.30452270518453
  0
ARC
  5
1C0
100
AcDbEntity
  8
0S-Profile Aluminium
  6
ByLayer
 62
  174
370
   -1
100
AcDbCircle
 10
-47.56129708501204
 20
-14.36121309170177
 40
0.1390332824644105
100
AcDbArc
 50
155.9366245844966
 51
-84.36821201457155
  0
ARC
  5
1C1
100
AcDbEntity
  8
0S-Profile Aluminium
  6
ByLayer
 62
  174
370
   -1
100
AcDbCircle
 10
-48.03832825730906
 20
-9.523709738767959
 40
5.000000000000021
100
AcDbArc
 50
-84.36821201457356
 51
-17.74493152881495
  0
ARC
  5
1C2
100
AcDbEntity
  8
0S-Profile Aluminium
  6
ByLayer
 62
  174
370
   -1
100
AcDbCircle
 10
-42.80000305071997
 20
-11.20000000010668
 40
0.5000000009314078
100
AcDbArc
 50
89.99650294255568
 51
162.2550684711799
  0
LWPOLYLINE
  5
1C3
100
AcDbEntity
  8
0S-Profile Aluminium
  6
ByLayer
 62
  174
370
   -1
100
AcDbPolyline
 90
    2
 70
    0
 43
0
 10
-42.79997253313665
 20
-10.70000000010659
 10
-8.000030517471576
 20
-10.70000000010661
  0
ARC
  5
1C4
100
AcDbEntity
  8
0S-Profile Aluminium
  6
ByLayer
 62
  174
370
   -1
100
AcDbCircle
 10
-8.000010727789789
 20
-11.20001072772653
 40
0.5000107280115405
100
AcDbArc
 50
17.7450163316179
 51
90.00226768183367
  0
ARC
  5
1C5
100
AcDbEntity
  8
0S-Profile Aluminium
  6
ByLayer
 62
  174
370
   -1
100
AcDbCircle
 10
-2.76167778555322
 20
-9.523709443792169
 40
4.999999999999883
100
AcDbArc
 50
-162.254983668388
 51
-95.63175255601915
  0
ARC
  5
1C6
100
AcDbEntity
  8
0S-Profile Aluminium
  6
ByLayer
 62
  174
370
   -1
100
AcDbCircle
 10
-3.238705966532482
 20
-14.36121309170179
 40
0.139033282464446
100
AcDbArc
 50
-95.63175255601674
 51
24.06337541538655
  0
LWPOLYLINE
  5
1C7
100
AcDbEntity
  8
0S-Profile Aluminium
  6
ByLayer
 62
  174
370
   -1
100
AcDbPolyline
 90
    3
 70
    0
 43
0
 10
-3.111755370986846
 20
-14.30452270518479
 10
-4.499999999893008
 20
-11.90001220713778
 10
-4.499999999893022
 20
-11.20000000010655
  0
ARC
  5
1C8
100
AcDbEntity
  8
0S-Profile Aluminium
  6
ByLayer
 62
  174
370
   -1
100
AcDbCircle
 10
-4.000010320003785
 20
-11.19998967999584
 40
0.4999896799957497
100
AcDbArc
 50
89.99881737806619
 51
-179.9988173777202
  0
LWPOLYLINE
  5
1C9
100
AcDbEntity
  8
0S-Profile Aluminium
  6
ByLayer
 62
  174
370
   -1
100
AcDbPolyline
 90
    2
 70
    0
 43
0
 10
-3.999999999893521
 20
-10.7000000001066
 10
0.3000256810345929
 20
-10.70000000135683
  0
ARC
  5
1CA
100
AcDbEntity
  8
0S-Profile Aluminium
  6
ByLayer
 62
  174
370
   -1
100
AcDbCircle
 10
0.3000256810346222
 20
-10.82000000138586
 40
0.1200000000290221
100
AcDbArc
 50
-3.246091501560079e-14
 51
90.00000000001343
  0
LWPOLYLINE
  5
1CB
100
AcDbEntity
  8
0S-Profile Aluminium
  6
ByLayer
 62
  174
370
   -1
100
AcDbPolyline
 90
    2
 70
    0
 43
0
 10
0.4200256810636454
 20
-10.82000000138586
 10
0.4200256810636862
 20
-13.57999800138588
  0
ARC
  5
1CC
100
AcDbEntity
  8
0S-Profile Aluminium
  6
ByLayer
 62
  174
370
   -1
100
AcDbCircle
 10
0.7200256810636843
 20
-13.57999800138589
 40
0.2999999999999994
100
AcDbArc
 50
180
 51
-90.00000000000274
  0
LWPOLYLINE
  5
1CD
100
AcDbEntity
  8
0S-Profile Aluminium
  6
ByLayer
 62
  174
370
   -1
100
AcDbPolyline
 90
    2
 70
    0
 43
0
 10
0.7200256810636683
 20
-13.87999800138589
 10
1.700000000106464
 20
-13.87999800138589
  0
ARC
  5
1CE
100
AcDbEntity
  8
0S-Profile Aluminium
  6
ByLayer
 62
  174
370
   -1
100
AcDbCircle
 10
1.700000000106437
 20
-13.57999800138588
 40
0.3000000000000163
100
AcDbArc
 50
-89.9999999999946
 51
-3.246091501560079e-14
  0
LWPOLYLINE
  5
1CF
100
AcDbEntity
  8
0S-Profile Aluminium
  6
ByLayer
 62
  174
370
   -1
100
AcDbPolyline
 90
    2
 70
    0
 43
0
 10
2.000000000106448
 20
-13.57999800138588
 10
2.000000000106476
 20
-11.69998700137737
  0
ARC
  5
1D0
100
AcDbEntity
  8
0S-Profile Aluminium
  6
ByLayer
 62
  174
370
   -1
100
AcDbCircle
 10
2.078867095749652
 20
-11.43244366085441
 40
0.2789255417371725
100
AcDbArc
 50
178.8371299271138
 51
-106.4245945553551
  0
LWPOLYLINE
  5
1D1
100
AcDbEntity
  8
0S-Profile Aluminium
  6
ByLayer
 62
  174
370
   -1
100
AcDbPolyline
 90
    2
 70
    0
 43
0
 10
1.799999000106465
 20
-11.42678300137735
 10
1.799999000106462
 20
-10.97318900137736
  0
ARC
  5
1D2
100
AcDbEntity
  8
0S-Profile Aluminium
  6
ByLayer
 62
  174
370
   -1
100
AcDbCircle
 10
2.078836446649486
 20
-10.967520593379
 40
0.2788950563274124
100
AcDbArc
 50
106.4198764194859
 51
-178.8354106259059
  0
LWPOLYLINE
  5
1D3
100
AcDbEntity
  8
0S-Profile Aluminium
  6
ByLayer
 62
  174
370
   -1
100
AcDbPolyline
 90
    2
 70
    0
 43
0
 10
2.000000000106478
 20
-10.7000000013859
 10
2.00000000010699
 20
-10.30000305186448
  0
ARC
  5
1D4
100
AcDbEntity
  8
0S-Profile Aluminium
  6
ByLayer
 62
  174
370
   -1
100
AcDbCircle
 10
2.499984741550629
 20
-10.29998779354083
 40
0.4999847416764678
100
AcDbArc
 50
89.99999999943167
 51
-179.9982514715724
  0
LWPOLYLINE
  5
1D5
100
AcDbEntity
  8
0S-Profile Aluminium
  6
ByLayer
 62
  174
370
   -1
100
AcDbPolyline
 90
    2
 70
    0
 43
0
 10
2.499984741555588
 20
-9.800003051864364
 10
4.500000000112092
 20
-9.800003051864392
  0
ARC
  5
1D6
100
AcDbEntity
  8
0S-Profile Aluminium
  6
ByLayer
 62
  174
370
   -1
100
AcDbCircle
 10
4.499938970537212
 20
-9.299942014611508
 40
0.5000610409770445
100
AcDbArc
 50
-89.99300737952325
 51
-0.01223820368923637
  0
LWPOLYLINE
  5
1D7
100
AcDbEntity
  8
0S-Profile Aluminium
  6
ByLayer
 62
  174
370
   -1
100
AcDbPolyline
 90
    2
 70
    0
 43
0
 10
5.000000000106947
 20
-9.300048826123318
 10
5.000000000106962
 20
-9.000000000116954
  0
ARC
  5
1D8
100
AcDbEntity
  8
0S-Profile Aluminium
  6
ByLayer
 62
  174
370
   -1
100
AcDbCircle
 10
4.499969482528765
 20
-9.000030517684767
 40
0.5000305185094653
100
AcDbArc
 50
0.003496842154915772
 51
89.99650315599838
  0
ARC
  5
1D9
100
AcDbEntity
  8
0S-Profile Aluminium
  6
ByLayer
 62
  174
370
   -1
100
AcDbCircle
 10
-7.200018866108776
 20
-2.500015814564713
 40
0.5000158147080418
100
AcDbArc
 50
0.001812146179045816
 51
89.99818785392486
  0
LWPOLYLINE
  5
1DA
100
AcDbEntity
  8
0S-Profile Aluminium
  6
ByLayer
 62
  174
370
   -1
100
AcDbPolyline
 90
    2
 70
    0
 43
0
 10
-6.700003051650825
 20
-2.500000000105853
 10
-6.700003051650824
 20
-8.50000000009592
  0
ARC
  5
1DB
100
AcDbEntity
  8
0S-Profile Aluminium
  6
ByLayer
 62
  174
370
   -1
100
AcDbCircle
 10
-7.200064088903817
 20
-8.499938970536817
 40
0.5000610409771467
100
AcDbArc
 50
270.0122382054793
 51
359.9930073813309
  0
LWPOLYLINE
  5
1DC
100
AcDbEntity
  8
0S-Profile Aluminium
  6
ByLayer
 62
  174
370
   -1
100
AcDbPolyline
 90
    2
 70
    0
 43
0
 10
-7.199957277376386
 20
-9.000000000106649
 10
-48.60001525868246
 20
-9.000000000106425
  0
ARC
  5
1DD
100
AcDbEntity
  8
0S-Profile Aluminium
  6
ByLayer
 62
  174
370
   -1
100
AcDbCircle
 10
-48.60001525868246
 20
-8.500000000106429
 40
0.5000000000000071
100
AcDbArc
 50
180
 51
270
  0
LWPOLYLINE
  5
1DE
100
AcDbEntity
  8
0S-Profile Aluminium
  6
ByLayer
 62
  174
370
   -1
100
AcDbPolyline
 90
    2
 70
    0
 43
0
 10
-49.10001525868246
 20
-8.500000000106422
 10
-49.10001525868246
 20
-2.500000000106759
  0
ARC
  5
1DF
100
AcDbEntity
  8
0S-Profile Aluminium
  6
ByLayer
 62
  174
370
   -1
100
AcDbCircle
 10
-48.60001525868246
 20
-2.500000000106773
 40
0.5000000000000071
100
AcDbArc
 50
89.99999999999999
 51
180
  0
LWPOLYLINE
  5
1E0
100
AcDbEntity
  8
0S-Profile Aluminium
  6
ByLayer
 62
  174
370
   -1
100
AcDbPolyline
 90
    2
 70
    0
 43
0
 10
-48.60001525868246
 20
-2.00000000010678
 10
-7.200003051650825
 20
-2.00000000010676
  0
HATCH
  5
1E1
100
AcDbEntity
  8
0S-Shading Aluminium
  6
ByLayer
 62
  174
370
   -1
100
AcDbHatch
 10
0
 20
0
 30
0
210
0
220
0
230
1
  2
SOLID
 70
    1
 71
    0
 91
    2
 92
    0
 93
   75
 72
    1
 10
4.500000000111964
 20
-8.500000000106567
 11
-4.499999999888105
 21
-8.500000000106793
 72
    2
 10
-4.500030519799937
 20
-8.000030516230037
 40
0.4999694848082648
 50
89.99650246226356
 51
180.007868858163
 73
    0
 72
    1
 10
-4.999999999893094
 20
-7.999961851679474
 11
-4.999999999893049
 21
-0.5000000001170366
 72
    2
 10
-5.500030517471287
 20
-0.5000305176848157
 40
0.500030518509502
 50
0.003496842154915775
 51
89.99650315599177
 73
    1
 72
    1
 10
-5.499999999888032
 20
-1.065796340071756e-10
 11
-77.50000000010652
 21
-1.064961452357238e-10
 72
    2
 10
-77.50000000010651
 20
-0.4999999999999858
 40
0.4999999998934898
 50
89.99999999999994
 51
180
 73
    1
 72
    1
 10
-78
 20
-0.4999999999999858
 11
-78
 21
-4.499999999999972
 72
    2
 10
-77.5
 20
-4.499999999999972
 40
0.5
 50
180
 51
269.9999999999999
 73
    1
 72
    1
 10
-77.5
 20
-4.999999999999972
 11
-76.20000000000002
 21
-4.999999999999979
 72
    2
 10
-76.2
 20
-4.499999999999972
 40
0.5
 50
269.9999999999999
 51
359.9999999999999
 73
    1
 72
    1
 10
-75.7
 20
-4.499999999999972
 11
-75.69999999999999
 21
-3.999999999999979
 72
    1
 10
-75.69999999999999
 20
-3.999999999999979
 11
-76.7
 21
-3.999999999999972
 72
    1
 10
-76.7
 20
-3.999999999999972
 11
-76.69999999999999
 21
-2.499999999999979
 72
    2
 10
-75.69999999999999
 20
-2.499999999999979
 40
1
 50
180
 51
269.9999999999999
 73
    0
 72
    1
 10
-75.69999999999999
 20
-1.499999999999986
 11
-71.69999999999999
 21
-1.499999999999979
 72
    2
 10
-71.69999999999999
 20
-2.499999999999979
 40
1
 50
269.9999999999999
 51
359.9999999999999
 73
    0
 72
    1
 10
-70.7
 20
-2.499999999999979
 11
-70.69999999999999
 21
-3.999999999999986
 72
    1
 10
-70.69999999999999
 20
-3.999999999999986
 11
-71.69999999999999
 21
-3.999999999999979
 72
    1
 10
-71.69999999999999
 20
-3.999999999999979
 11
-71.69999999999999
 21
-4.499999999999972
 72
    2
 10
-71.2
 20
-4.499999999999972
 40
0.5000000000000018
 50
180
 51
269.9999999999999
 73
    1
 72
    1
 10
-71.2
 20
-4.999999999999979
 11
-68.40000000000001
 21
-4.999999999999979
 72
    2
 10
-68.40000000000001
 20
-4.499999999999975
 40
0.5
 50
269.9999999999999
 51
359.9999999999999
 73
    1
 72
    1
 10
-67.90000000000001
 20
-4.499999999999975
 11
-67.90000000000001
 21
-4.299999999999979
 72
    2
 10
-68.40000000000001
 20
-4.299999999999976
 40
0.5
 50
359.9999999999999
 51
89.99999999999994
 73
    1
 72
    1
 10
-68.40000000000001
 20
-3.799999999999983
 11
-68.90000000000001
 21
-3.799999999999983
 72
    2
 10
-68.90000000000001
 20
-3.299999999999976
 40
0.5
 50
89.99999999999994
 51
180
 73
    0
 72
    1
 10
-69.40000000000001
 20
-3.299999999999976
 11
-69.40000000000001
 21
-2.499999999999979
 72
    2
 10
-68.90000000010656
 20
-2.499999999999986
 40
0.4999999998934461
 50
180
 51
269.9999999999999
 73
    0
 72
    1
 10
-68.90000000010656
 20
-2.000000000106525
 11
-57.80000305164963
 21
-2.000000000106734
 72
    1
 10
-57.80000305164963
 20
-2.000000000106734
 11
-51.72875707059367
 21
-2.433653887857513
 72
    2
 10
-51.80000305165132
 20
-3.431112664039841
 40
1
 50
274.0855553787449
 51
359.9999999999999
 73
    0
 72
    1
 10
-50.8000030516513
 20
-3.431112664039851
 11
-50.8000030516513
 21
-8.200000000106691
 72
    2
 10
-51.3000030516513
 20
-8.200000000106694
 40
0.5
 50
359.9999999999999
 51
90.00000000000325
 73
    0
 72
    1
 10
-51.30000305165133
 20
-8.700000000106694
 11
-52.30000305165123
 21
-8.700000000106623
 72
    2
 10
-52.30000305165126
 20
-9.20000000010663
 40
0.5000000000000036
 50
89.99999999999679
 51
180
 73
    1
 72
    1
 10
-52.80000305165127
 20
-9.20000000010663
 11
-52.80000305165127
 21
-10.70000000010658
 72
    2
 10
-52.87883949819431
 20
-10.96752059209969
 40
0.2788950563274129
 50
286.4198764194905
 51
1.164589374096874
 73
    0
 72
    1
 10
-52.60000205165129
 20
-10.97318900009805
 11
-52.60000205165129
 21
-11.42678300009808
 72
    2
 10
-52.87887014729446
 20
-11.43244365957514
 40
0.2789255417371583
 50
358.8371299271119
 51
73.57540544464412
 73
    0
 72
    1
 10
-52.80000305165128
 20
-11.69998700009809
 11
-52.80000305165128
 21
-13.57999800010657
 72
    2
 10
-52.50000305165126
 20
-13.57999800010658
 40
0.3000000000000167
 50
180
 51
269.9999999999999
 73
    1
 72
    1
 10
-52.50000305165127
 20
-13.8799980001066
 11
-51.52002873260851
 21
-13.8799980001066
 72
    2
 10
-51.52002873260851
 20
-13.5799980001066
 40
0.2999999999999971
 50
269.9999999999999
 51
359.9999999999999
 73
    1
 72
    1
 10
-51.2200287326085
 20
-13.5799980001066
 11
-51.2200287326085
 21
-10.8200000001066
 72
    2
 10
-51.10002873260848
 20
-10.82000000010658
 40
0.1200000000000188
 50
180
 51
269.9999999999999
 73
    0
 72
    1
 10
-51.10002873260848
 20
-10.70000000010656
 11
-46.80000305165132
 21
-10.70000000010658
 72
    2
 10
-46.79999273154078
 20
-11.19998967999608
 40
0.499989679995995
 50
269.9988173780336
 51
0.001182622279840838
 73
    0
 72
    1
 10
-46.30000305165129
 20
-11.20000000010666
 11
-46.30000305165131
 21
-11.90001220713785
 72
    1
 10
-46.30000305165131
 20
-11.90001220713785
 11
-47.68824768055755
 21
-14.30452270518453
 72
    2
 10
-47.56129708501204
 20
-14.36121309170177
 40
0.1390332824644133
 50
155.9366245844966
 51
275.6317879854285
 73
    1
 72
    2
 10
-48.03832825730906
 20
-9.523709738767959
 40
5.000000000000036
 50
275.6317879854265
 51
342.255068471185
 73
    1
 72
    2
 10
-42.80000305071997
 20
-11.20000000010668
 40
0.5000000009314065
 50
197.74493152882
 51
270.0034970574442
 73
    0
 72
    1
 10
-42.79997253313665
 20
-10.70000000010659
 11
-8.000030517471576
 21
-10.70000000010661
 72
    2
 10
-8.000010727789789
 20
-11.20001072772653
 40
0.5000107280115412
 50
269.9977323181663
 51
342.254983668382
 73
    0
 72
    2
 10
-2.76167778555322
 20
-9.523709443792169
 40
4.999999999999884
 50
197.745016331612
 51
264.3682474439809
 73
    1
 72
    2
 10
-3.238705966532482
 20
-14.36121309170179
 40
0.1390332824644445
 50
264.3682474439833
 51
24.06337541538655
 73
    1
 72
    1
 10
-3.111755370986846
 20
-14.30452270518479
 11
-4.499999999893008
 21
-11.90001220713778
 72
    1
 10
-4.499999999893008
 20
-11.90001220713778
 11
-4.499999999893022
 21
-11.20000000010655
 72
    2
 10
-4.000010320003785
 20
-11.19998967999584
 40
0.4999896799957481
 50
179.9988173777201
 51
270.0011826219338
 73
    0
 72
    1
 10
-3.999999999893521
 20
-10.7000000001066
 11
0.3000256810345929
 21
-10.70000000135683
 72
    2
 10
0.3000256810346222
 20
-10.82000000138586
 40
0.1200000000290231
 50
269.9999999999865
 51
359.9999999999999
 73
    0
 72
    1
 10
0.4200256810636454
 20
-10.82000000138586
 11
0.4200256810636862
 21
-13.57999800138588
 72
    2
 10
0.7200256810636843
 20
-13.57999800138589
 40
0.2999999999999954
 50
180
 51
269.9999999999973
 73
    1
 72
    1
 10
0.7200256810636683
 20
-13.87999800138589
 11
1.700000000106464
 21
-13.87999800138589
 72
    2
 10
1.700000000106437
 20
-13.57999800138588
 40
0.3000000000000114
 50
270.0000000000054
 51
359.9999999999999
 73
    1
 72
    1
 10
2.000000000106448
 20
-13.57999800138588
 11
2.000000000106476
 21
-11.69998700137737
 72
    2
 10
2.078867095749652
 20
-11.43244366085441
 40
0.2789255417371717
 50
106.4245945553551
 51
181.1628700728861
 73
    0
 72
    1
 10
1.799999000106465
 20
-11.42678300137735
 11
1.799999000106462
 21
-10.97318900137736
 72
    2
 10
2.078836446649486
 20
-10.967520593379
 40
0.2788950563274124
 50
178.8354106259059
 51
253.5801235805141
 73
    0
 72
    1
 10
2.000000000106478
 20
-10.7000000013859
 11
2.00000000010699
 21
-10.30000305186448
 72
    2
 10
2.499984741550629
 20
-10.29998779354083
 40
0.4999847416764673
 50
179.9982514715724
 51
270.0000000005683
 73
    0
 72
    1
 10
2.499984741555588
 20
-9.800003051864364
 11
4.500000000112092
 21
-9.800003051864392
 72
    2
 10
4.499938970537212
 20
-9.299942014611508
 40
0.5000610409770423
 50
270.0069926204768
 51
359.9877617963108
 73
    1
 72
    1
 10
5.000000000106947
 20
-9.300048826123318
 11
5.000000000106962
 21
-9.000000000116954
 72
    2
 10
4.499969482528765
 20
-9.000030517684767
 40
0.500030518509464
 50
0.003496842154915775
 51
89.99650315599838
 73
    1
 97
    0
 92
    0
 93
    8
 72
    1
 10
-6.700003051650825
 20
-2.500000000105853
 11
-6.700003051650824
 21
-8.50000000009592
 72
    3
 10
-7.200064088903817
 20
-8.499938970536817
 11
0.500061040977145
 21
-1.110223024625157e-16
 40
1
 50
0.006992618669042596
 51
89.98776179452072
 73
    1
 72
    1
 10
-7.199957277376386
 20
-9.000000000106649
 11
-48.60001525868246
 21
-9.000000000106425
 72
    3
 10
-48.60001525868246
 20
-8.500000000106429
 11
0.4999999999999964
 21
-1.665334536937735e-16
 40
1
 50
90
 51
180
 73
    1
 72
    1
 10
-49.10001525868246
 20
-8.500000000106422
 11
-49.10001525868246
 21
-2.500000000106759
 72
    3
 10
-48.60001525868246
 20
-2.500000000106773
 11
0.5
 21
-1.387778780781446e-16
 40
1
 50
180
 51
270
 73
    1
 72
    1
 10
-48.60001525868246
 20
-2.00000000010678
 11
-7.200003051650825
 21
-2.00000000010676
 72
    3
 10
-7.200018866108776
 20
-2.500015814564713
 11
0.5000158147080422
 21
-1.110223024625157e-16
 40
1
 50
270.0018121460751
 51
359.998187853821
 73
    1
 97
    0
 75
    0
 76
    1
 98
    0
  0
ENDBLK
  5
6F
330
6D
100
AcDbEntity
  8
0
100
AcDbBlockEnd
  0
ENDSEC
  0
SECTION
  2
ENTITIES
  0
POINT
  5
1E2
100
AcDbEntity
  8
FANGPUNKTE
  6
ByLayer
 62
  174
370
   -1
100
AcDbPoint
 10
19.99999999999998
 20
-75
  0
POINT
  5
1E3
100
AcDbEntity
  8
FANGPUNKTE
  6
ByLayer
 62
  174
370
   -1
100
AcDbPoint
 10
-53.00000000000001
 20
-74.99999999999997
  0
POINT
  5
1E4
100
AcDbEntity
  8
FANGPUNKTE
  6
ByLayer
 62
  174
370
   -1
100
AcDbPoint
 10
-53
 20
-4.999999999999979
  0
POINT
  5
1E5
100
AcDbEntity
  8
FANGPUNKTE
  6
ByLayer
 62
  174
370
   -1
100
AcDbPoint
 10
-78
 20
-4.999999999999979
  0
POINT
  5
1E6
100
AcDbEntity
  8
FANGPUNKTE
  6
ByLayer
 62
  174
370
   -1
100
AcDbPoint
 10
-78
 20
2.131628207280301e-14
  0
POINT
  5
1E7
100
AcDbEntity
  8
FANGPUNKTE
  6
ByLayer
 62
  174
370
   -1
100
AcDbPoint
 10
-5
 20
1.332267629550188e-15
  0
POINT
  5
1E8
100
AcDbEntity
  8
FANGPUNKTE
  6
ByLayer
 62
  174
370
   -1
100
AcDbPoint
 10
-5.000000000000004
 20
-8.5
  0
POINT
  5
1E9
100
AcDbEntity
  8
FANGPUNKTE
  6
ByLayer
 62
  174
370
   -1
100
AcDbPoint
 10
4.999999999999996
 20
-8.500000000000002
  0
POINT
  5
1EA
100
AcDbEntity
  8
FANGPUNKTE
  6
ByLayer
 62
  174
370
   -1
100
AcDbPoint
 10
4.999999999999979
 20
-70
  0
POINT
  5
1EB
100
AcDbEntity
  8
FANGPUNKTE
  6
ByLayer
 62
  174
370
   -1
100
AcDbPoint
 10
19.99999999999998
 20
-70
  0
INSERT
  5
1EC
100
AcDbEntity
  8
0S-Profile Aluminium
  6
ByLayer
 62
  174
370
   -1
100
AcDbBlockReference
  2
381960__CEAE08F4_A16E_4144_8168_BB8908B75485_
 10
0
 20
0
 30
0
 41
1
 42
0.9999999999999999
 43
0
 50
180
 70
    1
 71
    1
 44
0
 45
0
  0
ENDSEC
  0
SECTION
  2
OBJECTS
  0
DICTIONARY
  5
C
330
0
100
AcDbDictionary
281
    1
  3
ACAD_GROUP
350
D
  0
DICTIONARY
  5
D
330
C
100
AcDbDictionary
281
    1
  0
PLOTSETTINGS
  5
1ED
100
AcDbPlotSettings
  6
1x1
 40
0
 41
0
 42
0
 43
0
  0
ENDSEC
  0
EOF
