999
dxfrw 0.6.3
  0
SECTION
  2
HEADER
  9
$ACADVER
  1
AC1021
  9
$DWGCODEPAGE
  3
ANSI_1252
  9
$INSBASE
 10
0
 20
0
 30
0
  9
$EXTMIN
 10
-75
 20
0
 30
0
  9
$EXTMAX
 10
2.131628207280301e-14
 20
70
 30
0
  9
$LIMMIN
 10
-10
 20
-10
  9
$LIMMAX
 10
85
 20
80
  9
$ORTHOMODE
 70
    1
  9
$REGENMODE
 70
    1
  9
$FILLMODE
 70
    1
  9
$QTEXTMODE
 70
    0
  9
$MIRRTEXT
 70
    1
  9
$LTSCALE
 40
1
  9
$ATTMODE
 70
    1
  9
$TEXTSIZE
 40
0.2
  9
$TRACEWID
 40
0.05
  9
$TEXTSTYLE
  7
STANDARD
  9
$CLAYER
  8
0
  9
$CELTYPE
  6
ByLayer
  9
$CECOLOR
 62
  256
  9
$CELTSCALE
 40
1
  9
$DISPSILH
 70
    0
  9
$DIMSCALE
 40
1
  9
$DIMASZ
 40
0.18
  9
$DIMEXO
 40
0.0625
  9
$DIMDLI
 40
0.38
  9
$DIMRND
 40
0
  9
$DIMDLE
 40
0
  9
$DIMEXE
 40
0.18
  9
$DIMTP
 40
0
  9
$DIMTM
 40
0
  9
$DIMTXT
 40
0.18
  9
$DIMCEN
 40
0.09
  9
$DIMTSZ
 40
0
  9
$DIMTOL
 70
    0
  9
$DIMLIM
 70
    0
  9
$DIMTIH
 70
    1
  9
$DIMTOH
 70
    1
  9
$DIMSE1
 70
    0
  9
$DIMSE2
 70
    0
  9
$DIMTAD
 70
    0
  9
$DIMZIN
 70
    0
  9
$DIMBLK
  1

  9
$DIMASO
 70
    1
  9
$DIMSHO
 70
    1
  9
$DIMPOST
  1

  9
$DIMAPOST
  1

  9
$DIMALT
 70
    0
  9
$DIMALTD
 70
    2
  9
$DIMALTF
 40
25.4
  9
$DIMLFAC
 40
1
  9
$DIMTOFL
 70
    0
  9
$DIMTVP
 40
0
  9
$DIMTIX
 70
    0
  9
$DIMSOXD
 70
    0
  9
$DIMSAH
 70
    0
  9
$DIMBLK1
  1

  9
$DIMBLK2
  1

  9
$DIMSTYLE
  2
STANDARD
  9
$DIMCLRD
 70
    0
  9
$DIMCLRE
 70
    0
  9
$DIMCLRT
 70
    0
  9
$DIMTFAC
 40
1
  9
$DIMGAP
 40
0.09
  9
$DIMJUST
 70
    0
  9
$DIMSD1
 70
    0
  9
$DIMSD2
 70
    0
  9
$DIMTOLJ
 70
    0
  9
$DIMTZIN
 70
    8
  9
$DIMALTZ
 70
    0
  9
$DIMALTTZ
 70
    0
  9
$DIMUPT
 70
    0
  9
$DIMDEC
 70
    4
  9
$DIMTDEC
 70
    2
  9
$DIMALTU
 70
    2
  9
$DIMALTTD
 70
    3
  9
$DIMTXSTY
  7
STANDARD
  9
$DIMAUNIT
 70
    0
  9
$DIMADEC
 70
    0
  9
$DIMALTRND
 40
0
  9
$DIMAZIN
 70
    0
  9
$DIMDSEP
 70
   44
  9
$DIMATFIT
 70
    3
  9
$DIMFRAC
 70
    0
  9
$DIMLDRBLK
  1
STANDARD
  9
$DIMLUNIT
 70
    2
  9
$DIMLWD
 70
   -2
  9
$DIMLWE
 70
   -2
  9
$DIMTMOVE
 70
    0
  9
$DIMFXL
 40
1
  9
$DIMFXLON
 70
    0
  9
$DIMJOGANG
 40
0.7854
  9
$DIMTFILL
 70
    0
  9
$DIMTFILLCLR
 70
    0
  9
$DIMARCSYM
 70
    0
  9
$DIMLTYPE
  6

  9
$DIMLTEX1
  6

  9
$DIMLTEX2
  6

  9
$LUNITS
 70
    2
  9
$LUPREC
 70
    4
  9
$SKETCHINC
 40
0.1
  9
$FILLETRAD
 40
0
  9
$AUNITS
 70
    0
  9
$AUPREC
 70
    0
  9
$MENU
  1
acad
  9
$ELEVATION
 40
0
  9
$PELEVATION
 40
0
  9
$THICKNESS
 40
0
  9
$LIMCHECK
 70
    0
  9
$CHAMFERA
 40
0
  9
$CHAMFERB
 40
0
  9
$CHAMFERC
 40
0
  9
$CHAMFERD
 40
0
  9
$SKPOLY
 70
    0
  9
$USRTIMER
 70
    1
  9
$ANGBASE
 50
0
  9
$ANGDIR
 70
    0
  9
$PDMODE
 70
    0
  9
$PDSIZE
 40
0
  9
$PLINEWID
 40
0
  9
$SPLFRAME
 70
    0
  9
$SPLINETYPE
 70
    6
  9
$SPLINESEGS
 70
    8
  9
$HANDSEED
  5
20000
  9
$SURFTAB1
 70
    6
  9
$SURFTAB2
 70
    6
  9
$SURFTYPE
 70
    6
  9
$SURFU
 70
    6
  9
$SURFV
 70
    6
  9
$UCSBASE
  2

  9
$UCSNAME
  2

  9
$UCSORG
 10
0
 20
0
 30
0
  9
$UCSXDIR
 10
1
 20
0
 30
0
  9
$UCSYDIR
 10
0
 20
1
 30
0
  9
$UCSORTHOREF
  2

  9
$UCSORTHOVIEW
 70
    0
  9
$UCSORGTOP
 10
0
 20
0
 30
0
  9
$UCSORGBOTTOM
 10
0
 20
0
 30
0
  9
$UCSORGLEFT
 10
0
 20
0
 30
0
  9
$UCSORGRIGHT
 10
0
 20
0
 30
0
  9
$UCSORGFRONT
 10
0
 20
0
 30
0
  9
$UCSORGBACK
 10
0
 20
0
 30
0
  9
$PUCSBASE
  2

  9
$PUCSNAME
  2

  9
$PUCSORG
 10
0
 20
0
 30
0
  9
$PUCSXDIR
 10
1
 20
0
 30
0
  9
$PUCSYDIR
 10
0
 20
1
 30
0
  9
$PUCSORTHOREF
  2

  9
$PUCSORTHOVIEW
 70
    0
  9
$PUCSORGTOP
 10
0
 20
0
 30
0
  9
$PUCSORGBOTTOM
 10
0
 20
0
 30
0
  9
$PUCSORGLEFT
 10
0
 20
0
 30
0
  9
$PUCSORGRIGHT
 10
0
 20
0
 30
0
  9
$PUCSORGFRONT
 10
0
 20
0
 30
0
  9
$PUCSORGBACK
 10
0
 20
0
 30
0
  9
$USERI1
 70
    0
  9
$USERI2
 70
    0
  9
$USERI3
 70
    0
  9
$USERI4
 70
    0
  9
$USERI5
 70
    0
  9
$USERR1
 40
0
  9
$USERR2
 40
0
  9
$USERR3
 40
0
  9
$USERR4
 40
0
  9
$USERR5
 40
0
  9
$WORLDVIEW
 70
    1
  9
$SHADEDGE
 70
    3
  9
$SHADEDIF
 70
   70
  9
$TILEMODE
 70
    1
  9
$MAXACTVP
 70
   16
  9
$PINSBASE
 10
0
 20
0
 30
0
  9
$PLIMCHECK
 70
    0
  9
$PEXTMIN
 10
1e+20
 20
1e+20
 30
1e+20
  9
$PEXTMAX
 10
-1e+20
 20
-1e+20
 30
-1e+20
  9
$GRIDMODE
 70
    0
  9
$SNAPSTYLE
 70
    0
  9
$PLIMMIN
 10
0
 20
0
  9
$PLIMMAX
 10
12
 20
9
  9
$UNITMODE
 70
    0
  9
$VISRETAIN
 70
    0
  9
$PLINEGEN
 70
    0
  9
$PSLTSCALE
 70
    1
  9
$TREEDEPTH
 70
 3020
  9
$CMLSTYLE
  2
Standard
  9
$CMLJUST
 70
    0
  9
$CMLSCALE
 40
20
  9
$PROXYGRAPHICS
 70
    1
  9
$MEASUREMENT
 70
    1
  9
$CELWEIGHT
370
   -1
  9
$ENDCAPS
280
    0
  9
$JOINSTYLE
280
    0
  9
$LWDISPLAY
290
    0
  9
$INSUNITS
 70
    4
  9
$HYPERLINKBASE
  1

  9
$STYLESHEET
  1

  9
$XEDIT
290
    1
  9
$CEPSNTYPE
380
    0
  9
$PSTYLEMODE
290
    1
  9
$EXTNAMES
290
    1
  9
$PSVPSCALE
 40
1
  9
$OLESTARTUP
290
    0
  9
$SORTENTS
280
  127
  9
$INDEXCTL
280
    0
  9
$HIDETEXT
280
    1
  9
$XCLIPFRAME
290
    0
  9
$HALOGAP
280
    0
  9
$OBSCOLOR
 70
  257
  9
$OBSLTYPE
280
    0
  9
$INTERSECTIONDISPLAY
280
    0
  9
$INTERSECTIONCOLOR
 70
  257
  9
$DIMASSOC
280
    1
  9
$PROJECTNAME
  1

  9
$CAMERADISPLAY
290
    0
  9
$LENSLENGTH
 40
50
  9
$CAMERAHEIGHT
 40
0
  9
$STEPSPERSEC
 40
2
  9
$STEPSIZE
 40
50
  9
$3DDWFPREC
 40
2
  9
$PSOLWIDTH
 40
5
  9
$PSOLHEIGHT
 40
80
  9
$LOFTANG1
 40
1.570796326794897
  9
$LOFTANG2
 40
1.570796326794897
  9
$LOFTMAG1
 40
0
  9
$LOFTMAG2
 40
0
  9
$LOFTPARAM
 70
    7
  9
$LOFTNORMALS
280
    1
  9
$LATITUDE
 40
1
  9
$LONGITUDE
 40
1
  9
$NORTHDIRECTION
 40
0
  9
$TIMEZONE
 70
-8000
  9
$LIGHTGLYPHDISPLAY
280
    1
  9
$TILEMODELIGHTSYNCH
280
    1
  9
$SOLIDHIST
280
    1
  9
$SHOWHIST
280
    1
  9
$DWFFRAME
280
    2
  9
$DGNFRAME
280
    0
  9
$REALWORLDSCALE
290
    1
  9
$INTERFERECOLOR
 62
    1
  9
$CSHADOW
280
    0
  9
$SHADOWPLANELOCATION
 40
0
  0
ENDSEC
  0
SECTION
  2
CLASSES
  0
ENDSEC
  0
SECTION
  2
TABLES
  0
TABLE
  2
VPORT
  5
8
330
0
100
AcDbSymbolTable
 70
    1
  0
VPORT
  5
31
330
2
100
AcDbSymbolTableRecord
100
AcDbViewportTableRecord
  2
*ACTIVE
 70
    0
 10
0
 20
0
 11
1
 21
1
 12
211.2250434861279
 22
110.6416894451146
 13
0
 23
0
 14
10
 24
10
 15
10
 25
10
 16
0
 26
0
 36
1
 17
0
 27
0
 37
0
 40
387.8307
 41
1.90832328106152
 42
50
 43
0
 44
0
 50
0
 51
0
 71
    0
 72
  100
 73
    1
 74
    3
 75
    0
 76
    0
 77
    0
 78
    0
281
    0
 65
    1
110
0
120
0
130
0
111
1
121
0
131
0
112
0
122
1
132
0
 79
    0
146
0
348
10020
 60
    7
 61
    5
292
1
282
    1
141
0
142
0
 63
  250
421
3358443
  0
ENDTAB
  0
TABLE
  2
LTYPE
  5
5
330
0
100
AcDbSymbolTable
 70
    4
  0
LTYPE
  5
14
330
5
100
AcDbSymbolTableRecord
100
AcDbLinetypeTableRecord
  2
ByBlock
 70
    0
  3

 72
   65
 73
    0
 40
0
  0
LTYPE
  5
15
330
5
100
AcDbSymbolTableRecord
100
AcDbLinetypeTableRecord
  2
ByLayer
 70
    0
  3

 72
   65
 73
    0
 40
0
  0
LTYPE
  5
16
330
5
100
AcDbSymbolTableRecord
100
AcDbLinetypeTableRecord
  2
Continuous
 70
    0
  3
Solid line
 72
   65
 73
    0
 40
0
  0
LTYPE
  5
32
330
5
100
AcDbSymbolTableRecord
100
AcDbLinetypeTableRecord
  2
DOT
 70
    0
  3
Dot . . . . . . . . . . . . . . . . . . . . . .
 72
   65
 73
    2
 40
6.35
 49
0
 74
    0
 49
-6.35
 74
    0
  0
LTYPE
  5
33
330
5
100
AcDbSymbolTableRecord
100
AcDbLinetypeTableRecord
  2
DOTTINY
 70
    0
  3
Dot (.15x) .....................................
 72
   65
 73
    2
 40
0.9525
 49
0
 74
    0
 49
-0.9525
 74
    0
  0
LTYPE
  5
34
330
5
100
AcDbSymbolTableRecord
100
AcDbLinetypeTableRecord
  2
DOT2
 70
    0
  3
Dot (.5x) .....................................
 72
   65
 73
    2
 40
3.175
 49
0
 74
    0
 49
-3.175
 74
    0
  0
LTYPE
  5
35
330
5
100
AcDbSymbolTableRecord
100
AcDbLinetypeTableRecord
  2
DOTX2
 70
    0
  3
Dot (2x) .  .  .  .  .  .  .  .  .  .  .  .  .
 72
   65
 73
    2
 40
12.7
 49
0
 74
    0
 49
-12.7
 74
    0
  0
LTYPE
  5
36
330
5
100
AcDbSymbolTableRecord
100
AcDbLinetypeTableRecord
  2
DASHED
 70
    0
  3
Dashed _ _ _ _ _ _ _ _ _ _ _ _ _ _ _ _ _
 72
   65
 73
    2
 40
19.05
 49
12.7
 74
    0
 49
-6.35
 74
    0
  0
LTYPE
  5
37
330
5
100
AcDbSymbolTableRecord
100
AcDbLinetypeTableRecord
  2
DASHEDTINY
 70
    0
  3
Dashed (.15x) _ _ _ _ _ _ _ _ _ _ _ _ _ _ _ _ _
 72
   65
 73
    2
 40
2.8575
 49
1.905
 74
    0
 49
-0.9525
 74
    0
  0
LTYPE
  5
38
330
5
100
AcDbSymbolTableRecord
100
AcDbLinetypeTableRecord
  2
DASHED2
 70
    0
  3
Dashed (.5x) _ _ _ _ _ _ _ _ _ _ _ _ _ _ _ _ _
 72
   65
 73
    2
 40
9.524999999999999
 49
6.35
 74
    0
 49
-3.175
 74
    0
  0
LTYPE
  5
39
330
5
100
AcDbSymbolTableRecord
100
AcDbLinetypeTableRecord
  2
DASHEDX2
 70
    0
  3
Dashed (2x) ____  ____  ____  ____  ____  ___
 72
   65
 73
    2
 40
38.09999999999999
 49
25.4
 74
    0
 49
-12.7
 74
    0
  0
LTYPE
  5
3A
330
5
100
AcDbSymbolTableRecord
100
AcDbLinetypeTableRecord
  2
DASHDOT
 70
    0
  3
Dash dot __ . __ . __ . __ . __ . __ . __ . __
 72
   65
 73
    4
 40
25.4
 49
12.7
 74
    0
 49
-6.35
 74
    0
 49
0
 74
    0
 49
-6.35
 74
    0
  0
LTYPE
  5
3B
330
5
100
AcDbSymbolTableRecord
100
AcDbLinetypeTableRecord
  2
DASHDOTTINY
 70
    0
  3
Dash dot (.15x) _._._._._._._._._._._._._._._.
 72
   65
 73
    4
 40
3.81
 49
1.905
 74
    0
 49
-0.9525
 74
    0
 49
0
 74
    0
 49
-0.9525
 74
    0
  0
LTYPE
  5
3C
330
5
100
AcDbSymbolTableRecord
100
AcDbLinetypeTableRecord
  2
DASHDOT2
 70
    0
  3
Dash dot (.5x) _._._._._._._._._._._._._._._.
 72
   65
 73
    4
 40
12.7
 49
6.35
 74
    0
 49
-3.175
 74
    0
 49
0
 74
    0
 49
-3.175
 74
    0
  0
LTYPE
  5
3D
330
5
100
AcDbSymbolTableRecord
100
AcDbLinetypeTableRecord
  2
DASHDOTX2
 70
    0
  3
Dash dot (2x) ____  .  ____  .  ____  .  ___
 72
   65
 73
    4
 40
50.8
 49
25.4
 74
    0
 49
-12.7
 74
    0
 49
0
 74
    0
 49
-12.7
 74
    0
  0
LTYPE
  5
3E
330
5
100
AcDbSymbolTableRecord
100
AcDbLinetypeTableRecord
  2
DIVIDE
 70
    0
  3
Divide ____ . . ____ . . ____ . . ____ . . ____
 72
   65
 73
    6
 40
31.75
 49
12.7
 74
    0
 49
-6.35
 74
    0
 49
0
 74
    0
 49
-6.35
 74
    0
 49
0
 74
    0
 49
-6.35
 74
    0
  0
LTYPE
  5
3F
330
5
100
AcDbSymbolTableRecord
100
AcDbLinetypeTableRecord
  2
DIVIDETINY
 70
    0
  3
Divide (.15x) __..__..__..__..__..__..__..__.._
 72
   65
 73
    6
 40
4.7625
 49
1.905
 74
    0
 49
-0.9525
 74
    0
 49
0
 74
    0
 49
-0.9525
 74
    0
 49
0
 74
    0
 49
-0.9525
 74
    0
  0
LTYPE
  5
40
330
5
100
AcDbSymbolTableRecord
100
AcDbLinetypeTableRecord
  2
DIVIDE2
 70
    0
  3
Divide (.5x) __..__..__..__..__..__..__..__.._
 72
   65
 73
    6
 40
15.875
 49
6.35
 74
    0
 49
-3.175
 74
    0
 49
0
 74
    0
 49
-3.175
 74
    0
 49
0
 74
    0
 49
-3.175
 74
    0
  0
LTYPE
  5
41
330
5
100
AcDbSymbolTableRecord
100
AcDbLinetypeTableRecord
  2
DIVIDEX2
 70
    0
  3
Divide (2x) ________  .  .  ________  .  .  _
 72
   65
 73
    6
 40
63.5
 49
25.4
 74
    0
 49
-12.7
 74
    0
 49
0
 74
    0
 49
-12.7
 74
    0
 49
0
 74
    0
 49
-12.7
 74
    0
  0
LTYPE
  5
42
330
5
100
AcDbSymbolTableRecord
100
AcDbLinetypeTableRecord
  2
BORDER
 70
    0
  3
Border __ __ . __ __ . __ __ . __ __ . __ __ .
 72
   65
 73
    6
 40
44.45
 49
12.7
 74
    0
 49
-6.35
 74
    0
 49
12.7
 74
    0
 49
-6.35
 74
    0
 49
0
 74
    0
 49
-6.35
 74
    0
  0
LTYPE
  5
43
330
5
100
AcDbSymbolTableRecord
100
AcDbLinetypeTableRecord
  2
BORDERTINY
 70
    0
  3
Border (.15x) __.__.__.__.__.__.__.__.__.__.__.
 72
   65
 73
    6
 40
6.6675
 49
1.905
 74
    0
 49
-0.9525
 74
    0
 49
1.905
 74
    0
 49
-0.9525
 74
    0
 49
0
 74
    0
 49
-0.9525
 74
    0
  0
LTYPE
  5
44
330
5
100
AcDbSymbolTableRecord
100
AcDbLinetypeTableRecord
  2
BORDER2
 70
    0
  3
Border (.5x) __.__.__.__.__.__.__.__.__.__.__.
 72
   65
 73
    6
 40
22.225
 49
6.35
 74
    0
 49
-3.175
 74
    0
 49
6.35
 74
    0
 49
-3.175
 74
    0
 49
0
 74
    0
 49
-3.175
 74
    0
  0
LTYPE
  5
45
330
5
100
AcDbSymbolTableRecord
100
AcDbLinetypeTableRecord
  2
BORDERX2
 70
    0
  3
Border (2x) ____  ____  .  ____  ____  .  ___
 72
   65
 73
    6
 40
88.89999999999999
 49
25.4
 74
    0
 49
-12.7
 74
    0
 49
25.4
 74
    0
 49
-12.7
 74
    0
 49
0
 74
    0
 49
-12.7
 74
    0
  0
LTYPE
  5
46
330
5
100
AcDbSymbolTableRecord
100
AcDbLinetypeTableRecord
  2
CENTER
 70
    0
  3
Center ____ _ ____ _ ____ _ ____ _ ____ _ ____
 72
   65
 73
    4
 40
50.8
 49
31.75
 74
    0
 49
-6.35
 74
    0
 49
6.35
 74
    0
 49
-6.35
 74
    0
  0
LTYPE
  5
47
330
5
100
AcDbSymbolTableRecord
100
AcDbLinetypeTableRecord
  2
CENTERTINY
 70
    0
  3
Center (.15x) ___ _ ___ _ ___ _ ___ _ ___ _ ___
 72
   65
 73
    4
 40
7.62
 49
4.7625
 74
    0
 49
-0.9525
 74
    0
 49
0.9525
 74
    0
 49
-0.9525
 74
    0
  0
LTYPE
  5
48
330
5
100
AcDbSymbolTableRecord
100
AcDbLinetypeTableRecord
  2
CENTER2
 70
    0
  3
Center (.5x) ___ _ ___ _ ___ _ ___ _ ___ _ ___
 72
   65
 73
    4
 40
28.575
 49
19.05
 74
    0
 49
-3.175
 74
    0
 49
3.175
 74
    0
 49
-3.175
 74
    0
  0
LTYPE
  5
49
330
5
100
AcDbSymbolTableRecord
100
AcDbLinetypeTableRecord
  2
CENTERX2
 70
    0
  3
Center (2x) ________  __  ________  __  _____
 72
   65
 73
    4
 40
101.6
 49
63.5
 74
    0
 49
-12.7
 74
    0
 49
12.7
 74
    0
 49
-12.7
 74
    0
  0
ENDTAB
  0
TABLE
  2
LAYER
  5
2
330
0
100
AcDbSymbolTable
 70
    1
  0
LAYER
  5
10
330
2
100
AcDbSymbolTableRecord
100
AcDbLayerTableRecord
  2
0
 70
    0
 62
    7
  6
CONTINUOUS
370
   -3
390
F
  0
LAYER
  5
4A
330
2
100
AcDbSymbolTableRecord
100
AcDbLayerTableRecord
  2
DEFPOINTS
 70
    0
 62
    7
  6
CONTINUOUS
370
   -3
390
F
  0
ENDTAB
  0
TABLE
  2
STYLE
  5
3
330
0
100
AcDbSymbolTable
 70
    3
  0
STYLE
  5
4B
330
2
100
AcDbSymbolTableRecord
100
AcDbTextStyleTableRecord
  2
Standard
 70
    0
 40
0
 41
1
 50
0
 71
    0
 42
1
  3
txt
  4

  0
ENDTAB
  0
TABLE
  2
VIEW
  5
6
330
0
100
AcDbSymbolTable
 70
    0
  0
ENDTAB
  0
TABLE
  2
UCS
  5
7
330
0
100
AcDbSymbolTable
 70
    0
  0
ENDTAB
  0
TABLE
  2
APPID
  5
9
330
0
100
AcDbSymbolTable
 70
    1
  0
APPID
  5
12
330
9
100
AcDbSymbolTableRecord
100
AcDbRegAppTableRecord
  2
ACAD
 70
    0
  0
APPID
  5
4C
330
9
100
AcDbSymbolTableRecord
100
AcDbRegAppTableRecord
  2
LibreCad
 70
    0
  0
ENDTAB
  0
TABLE
  2
DIMSTYLE
  5
A
330
0
100
AcDbSymbolTable
 70
    1
100
AcDbDimStyleTable
 71
    1
  0
DIMSTYLE
105
4D
330
A
100
AcDbSymbolTableRecord
100
AcDbDimStyleTableRecord
  2
Standard
 70
    0
 40
1
 41
0.18
 42
0.0625
 43
0.38
 44
0.18
 45
0
 46
0
 47
0
 48
0
 49
1
140
0.18
141
0.09
142
0
143
25.4
144
1
145
0
146
1
147
0.09
148
0
 71
    0
 72
    0
 73
    1
 74
    1
 75
    0
 76
    0
 77
    0
 78
    0
 79
    0
170
    0
171
    2
172
    0
173
    0
174
    0
175
    0
176
    0
177
    0
178
    0
179
    0
271
    4
272
    4
273
    2
274
    2
275
    0
276
    0
277
    2
278
    0
279
    0
280
    0
281
    0
282
    0
283
    1
284
    0
285
    0
286
    0
288
    0
289
    3
340
standard
341

371
   -2
372
   -2
  0
ENDTAB
  0
TABLE
  2
BLOCK_RECORD
  5
1
330
0
100
AcDbSymbolTable
 70
    2
  0
BLOCK_RECORD
  5
1F
330
1
100
AcDbSymbolTableRecord
100
AcDbBlockTableRecord
  2
*Model_Space
 70
    0
280
    1
281
    0
  0
BLOCK_RECORD
  5
1E
330
1
100
AcDbSymbolTableRecord
100
AcDbBlockTableRecord
  2
*Paper_Space
 70
    0
280
    1
281
    0
  0
ENDTAB
  0
ENDSEC
  0
SECTION
  2
BLOCKS
  0
BLOCK
  5
20
330
1F
100
AcDbEntity
  8
0
100
AcDbBlockBegin
  2
*Model_Space
 70
    0
 10
0
 20
0
 30
0
  3
*Model_Space
  1

  0
ENDBLK
  5
21
330
1F
100
AcDbEntity
  8
0
100
AcDbBlockEnd
  0
BLOCK
  5
1C
330
1B
100
AcDbEntity
  8
0
100
AcDbBlockBegin
  2
*Paper_Space
 70
    0
 10
0
 20
0
 30
0
  3
*Paper_Space
  1

  0
ENDBLK
  5
1D
330
1F
100
AcDbEntity
  8
0
100
AcDbBlockEnd
  0
ENDSEC
  0
SECTION
  2
ENTITIES
  0
LINE
  5
4E
100
AcDbEntity
  8
0
  6
ByLayer
 62
  174
370
   -1
100
AcDbLine
 10
-13.71999999999999
 20
39.89
 11
-14.60999999999999
 21
39.89
  0
LINE
  5
4F
100
AcDbEntity
  8
0
  6
ByLayer
 62
  174
370
   -1
100
AcDbLine
 10
-12.15999999999999
 20
40.78999999999999
 11
-13.71999999999999
 21
39.89
  0
LINE
  5
50
100
AcDbEntity
  8
0
  6
ByLayer
 62
  174
370
   -1
100
AcDbLine
 10
-11.49999999999999
 20
40.79000000000001
 11
-12.15999999999999
 21
40.78999999999999
  0
LINE
  5
51
100
AcDbEntity
  8
0
  6
ByLayer
 62
  174
370
   -1
100
AcDbLine
 10
-11.49999999999999
 20
40.79000000000001
 11
-11.49999999999999
 21
36.59
  0
LINE
  5
52
100
AcDbEntity
  8
0
  6
ByLayer
 62
  174
370
   -1
100
AcDbLine
 10
-11.49999999999999
 20
36.59
 11
-12.15999999999999
 21
36.59
  0
LINE
  5
53
100
AcDbEntity
  8
0
  6
ByLayer
 62
  174
370
   -1
100
AcDbLine
 10
-13.71999999999999
 20
37.48
 11
-12.15999999999999
 21
36.59
  0
LINE
  5
54
100
AcDbEntity
  8
0
  6
ByLayer
 62
  174
370
   -1
100
AcDbLine
 10
-48.41999999999999
 20
39.89000000000001
 11
-49.31
 21
39.89000000000003
  0
LINE
  5
55
100
AcDbEntity
  8
0
  6
ByLayer
 62
  174
370
   -1
100
AcDbLine
 10
-50.86999999999998
 20
40.79000000000001
 11
-49.31
 21
39.89000000000003
  0
LINE
  5
56
100
AcDbEntity
  8
0
  6
ByLayer
 62
  174
370
   -1
100
AcDbLine
 10
-50.86999999999998
 20
40.79000000000001
 11
-51.49999999999999
 21
40.79000000000002
  0
LINE
  5
57
100
AcDbEntity
  8
0
  6
ByLayer
 62
  174
370
   -1
100
AcDbLine
 10
-51.49999999999999
 20
40.79000000000002
 11
-51.49999999999998
 21
36.59000000000002
  0
LINE
  5
58
100
AcDbEntity
  8
0
  6
ByLayer
 62
  174
370
   -1
100
AcDbLine
 10
-50.86999999999998
 20
36.59000000000002
 11
-51.49999999999998
 21
36.59000000000002
  0
LINE
  5
59
100
AcDbEntity
  8
0
  6
ByLayer
 62
  174
370
   -1
100
AcDbLine
 10
-49.30999999999998
 20
37.48
 11
-50.86999999999998
 21
36.59000000000002
  0
LINE
  5
5A
100
AcDbEntity
  8
0
  6
ByLayer
 62
  174
370
   -1
100
AcDbLine
 10
-13.72
 20
8.110006000000004
 11
-14.61
 21
8.110003000000004
  0
LINE
  5
5B
100
AcDbEntity
  8
0
  6
ByLayer
 62
  174
370
   -1
100
AcDbLine
 10
-12.16
 20
7.210004000000003
 11
-13.72
 21
8.110006000000004
  0
LINE
  5
5C
100
AcDbEntity
  8
0
  6
ByLayer
 62
  174
370
   -1
100
AcDbLine
 10
-11.5
 20
7.210004000000001
 11
-12.16
 21
7.210004000000003
  0
LINE
  5
5D
100
AcDbEntity
  8
0
  6
ByLayer
 62
  174
370
   -1
100
AcDbLine
 10
-11.5
 20
7.210004000000001
 11
-11.5
 21
11.41
  0
LINE
  5
5E
100
AcDbEntity
  8
0
  6
ByLayer
 62
  174
370
   -1
100
AcDbLine
 10
-11.5
 20
11.41
 11
-12.16
 21
11.41
  0
LINE
  5
5F
100
AcDbEntity
  8
0
  6
ByLayer
 62
  174
370
   -1
100
AcDbLine
 10
-13.72
 20
10.52
 11
-12.16
 21
11.41
  0
LINE
  5
60
100
AcDbEntity
  8
0
  6
ByLayer
 62
  174
370
   -1
100
AcDbLine
 10
-48.42
 20
8.11000300000001
 11
-49.31
 21
8.110003000000017
  0
LINE
  5
61
100
AcDbEntity
  8
0
  6
ByLayer
 62
  174
370
   -1
100
AcDbLine
 10
-50.86999999999999
 20
7.210004000000012
 11
-49.31
 21
8.110003000000017
  0
LINE
  5
62
100
AcDbEntity
  8
0
  6
ByLayer
 62
  174
370
   -1
100
AcDbLine
 10
-50.86999999999999
 20
7.210003000000015
 11
-51.5
 21
7.210004000000019
  0
LINE
  5
63
100
AcDbEntity
  8
0
  6
ByLayer
 62
  174
370
   -1
100
AcDbLine
 10
-51.5
 20
7.210004000000019
 11
-51.5
 21
11.41000000000001
  0
LINE
  5
64
100
AcDbEntity
  8
0
  6
ByLayer
 62
  174
370
   -1
100
AcDbLine
 10
-50.86999999999999
 20
11.41000000000001
 11
-51.5
 21
11.41000000000001
  0
LINE
  5
65
100
AcDbEntity
  8
0
  6
ByLayer
 62
  174
370
   -1
100
AcDbLine
 10
-49.31
 20
10.52000000000002
 11
-50.86999999999999
 21
11.41000000000001
  0
LINE
  5
66
100
AcDbEntity
  8
0
  6
ByLayer
 62
  174
370
   -1
100
AcDbLine
 10
-47.16999999999999
 20
43.00000000000001
 11
-46.74999999999999
 21
42.82000000000002
  0
LINE
  5
67
100
AcDbEntity
  8
0
  6
ByLayer
 62
  174
370
   -1
100
AcDbLine
 10
-46.75999999999999
 20
42.82000000000001
 11
-46.57999999999998
 21
42.40001000000002
  0
LINE
  5
68
100
AcDbEntity
  8
0
  6
ByLayer
 62
  174
370
   -1
100
AcDbLine
 10
-46.56999999999999
 20
5.60000400000002
 11
-46.75
 21
5.180002000000016
  0
LINE
  5
69
100
AcDbEntity
  8
0
  6
ByLayer
 62
  174
370
   -1
100
AcDbLine
 10
-46.76000000000001
 20
5.180003000000013
 11
-47.18000000000001
 21
5.000002000000013
  0
LINE
  5
6A
100
AcDbEntity
  8
0
  6
ByLayer
 62
  174
370
   -1
100
AcDbLine
 10
-15.83
 20
43
 11
-16.24999999999999
 21
42.82000000000001
  0
LINE
  5
6B
100
AcDbEntity
  8
0
  6
ByLayer
 62
  174
370
   -1
100
AcDbLine
 10
-16.23999999999998
 20
42.82
 11
-16.41999999999999
 21
42.40001000000002
  0
LINE
  5
6C
100
AcDbEntity
  8
0
  6
ByLayer
 62
  174
370
   -1
100
AcDbLine
 10
-16.43
 20
5.600004000000004
 11
-16.25
 21
5.180004000000005
  0
LINE
  5
6D
100
AcDbEntity
  8
0
  6
ByLayer
 62
  174
370
   -1
100
AcDbLine
 10
-16.23999999999999
 20
5.180003000000005
 11
-15.82
 21
5.000004000000004
  0
LINE
  5
6E
100
AcDbEntity
  8
0
  6
ByLayer
 62
  174
370
   -1
100
AcDbLine
 10
-47.05999999999999
 20
41.24000000000002
 11
-48.41999999999999
 21
39.89000000000001
  0
LINE
  5
6F
100
AcDbEntity
  8
0
  6
ByLayer
 62
  174
370
   -1
100
AcDbLine
 10
-46.57999999999998
 20
42.40001000000002
 11
-47.06
 21
41.24001000000001
  0
LINE
  5
70
100
AcDbEntity
  8
0
  6
ByLayer
 62
  174
370
   -1
100
AcDbLine
 10
-15.92999999999999
 20
41.21
 11
-14.60999999999999
 21
39.89
  0
LINE
  5
71
100
AcDbEntity
  8
0
  6
ByLayer
 62
  174
370
   -1
100
AcDbLine
 10
-16.41999999999999
 20
42.40000000000001
 11
-15.92999999999999
 21
41.21
  0
LINE
  5
72
100
AcDbEntity
  8
0
  6
ByLayer
 62
  174
370
   -1
100
AcDbLine
 10
-47.06
 20
6.760002000000014
 11
-46.58
 21
5.600002000000021
  0
LINE
  5
73
100
AcDbEntity
  8
0
  6
ByLayer
 62
  174
370
   -1
100
AcDbLine
 10
-48.42
 20
8.11000300000001
 11
-47.06
 21
6.760005000000014
  0
LINE
  5
74
100
AcDbEntity
  8
0
  6
ByLayer
 62
  174
370
   -1
100
AcDbLine
 10
-15.93
 20
6.790000000000004
 11
-16.42
 21
5.600001000000006
  0
LINE
  5
75
100
AcDbEntity
  8
0
  6
ByLayer
 62
  174
370
   -1
100
AcDbLine
 10
-14.61
 20
8.110003000000004
 11
-15.93
 21
6.790007000000004
  0
LINE
  5
76
100
AcDbEntity
  8
0
  6
ByLayer
 62
  174
370
   -1
100
AcDbLine
 10
-13.99999999999999
 20
10.52
 11
-13.99999999999999
 21
12.7
  0
LINE
  5
77
100
AcDbEntity
  8
0
  6
ByLayer
 62
  174
370
   -1
100
AcDbLine
 10
-13.72
 20
10.52
 11
-13.99999999999999
 21
10.52001
  0
LINE
  5
78
100
AcDbEntity
  8
0
  6
ByLayer
 62
  174
370
   -1
100
AcDbLine
 10
-48.99999999999999
 20
10.52001000000001
 11
-49.31
 21
10.52000000000002
  0
LINE
  5
79
100
AcDbEntity
  8
0
  6
ByLayer
 62
  174
370
   -1
100
AcDbLine
 10
-49
 20
12.24000000000002
 11
-48.99999999999999
 21
10.52001000000001
  0
LINE
  5
7A
100
AcDbEntity
  8
0
  6
ByLayer
 62
  174
370
   -1
100
AcDbLine
 10
-48.99999999999999
 20
37.48000000000001
 11
-49.30999999999998
 21
37.48
  0
LINE
  5
7B
100
AcDbEntity
  8
0
  6
ByLayer
 62
  174
370
   -1
100
AcDbLine
 10
-48.99999999999999
 20
35.76000000000001
 11
-48.99999999999999
 21
37.48000000000001
  0
LINE
  5
7C
100
AcDbEntity
  8
0
  6
ByLayer
 62
  174
370
   -1
100
AcDbLine
 10
-13.99999999999999
 20
37.48
 11
-13.99999999999999
 21
35.3
  0
LINE
  5
7D
100
AcDbEntity
  8
0
  6
ByLayer
 62
  174
370
   -1
100
AcDbLine
 10
-13.71999999999999
 20
37.48
 11
-13.99999999999999
 21
37.48
  0
LINE
  5
7E
100
AcDbEntity
  8
0
  6
ByLayer
 62
  174
370
   -1
100
AcDbLine
 10
-53.09999999999999
 20
6.750004000000018
 11
-73
 21
6.750003000000021
  0
LINE
  5
7F
100
AcDbEntity
  8
0
  6
ByLayer
 62
  174
370
   -1
100
AcDbLine
 10
-73
 20
8.000003000000021
 11
-73
 21
6.750003000000021
  0
LINE
  5
80
100
AcDbEntity
  8
0
  6
ByLayer
 62
  174
370
   -1
100
AcDbLine
 10
-73
 20
8.000003000000021
 11
-73.5
 21
8.000003000000028
  0
LINE
  5
81
100
AcDbEntity
  8
0
  6
ByLayer
 62
  174
370
   -1
100
AcDbLine
 10
-73.49999999999997
 20
40.00000000000001
 11
-73.5
 21
8.000003000000028
  0
LINE
  5
82
100
AcDbEntity
  8
0
  6
ByLayer
 62
  174
370
   -1
100
AcDbLine
 10
-73
 20
40.00000000000003
 11
-73.49999999999997
 21
40.00000000000001
  0
LINE
  5
83
100
AcDbEntity
  8
0
  6
ByLayer
 62
  174
370
   -1
100
AcDbLine
 10
-72.99999999999997
 20
41.25000000000001
 11
-73
 21
40.00000000000003
  0
LINE
  5
84
100
AcDbEntity
  8
0
  6
ByLayer
 62
  174
370
   -1
100
AcDbLine
 10
-53.09999999999999
 20
41.25000000000001
 11
-72.99999999999997
 21
41.25000000000001
  0
LINE
  5
85
100
AcDbEntity
  8
0
  6
ByLayer
 62
  174
370
   -1
100
AcDbLine
 10
-53.09999999999999
 20
41.25000000000001
 11
-53.09999999999999
 21
6.750004000000018
  0
LINE
  5
86
100
AcDbEntity
  8
0
  6
ByLayer
 62
  174
370
   -1
100
AcDbLine
 10
-55.7
 20
46.00000000000003
 11
-55.69999999999998
 21
43.00000000000001
  0
LINE
  5
87
100
AcDbEntity
  8
0
  6
ByLayer
 62
  174
370
   -1
100
AcDbLine
 10
-55.7
 20
46.00000000000003
 11
-57.49999999999998
 21
46.00000000000001
  0
LINE
  5
88
100
AcDbEntity
  8
0
  6
ByLayer
 62
  174
370
   -1
100
AcDbLine
 10
-57.49999999999999
 20
46.35000000000002
 11
-57.49999999999998
 21
46.00000000000001
  0
LINE
  5
89
100
AcDbEntity
  8
0
  6
ByLayer
 62
  174
370
   -1
100
AcDbLine
 10
-56.54999999999998
 20
48.00000000000001
 11
-57.49999999999999
 21
46.35000000000002
  0
LINE
  5
8A
100
AcDbEntity
  8
0
  6
ByLayer
 62
  174
370
   -1
100
AcDbLine
 10
-52.41999999999998
 20
48.00000000000001
 11
-56.54999999999998
 21
48.00000000000001
  0
LINE
  5
8B
100
AcDbEntity
  8
0
  6
ByLayer
 62
  174
370
   -1
100
AcDbLine
 10
-52.41999999999998
 20
48.00000000000001
 11
-51.49999999999999
 21
46.40001000000002
  0
LINE
  5
8C
100
AcDbEntity
  8
0
  6
ByLayer
 62
  174
370
   -1
100
AcDbLine
 10
-51.49999999999999
 20
46.40001000000002
 11
-51.49999999999999
 21
46.00000000000001
  0
LINE
  5
8D
100
AcDbEntity
  8
0
  6
ByLayer
 62
  174
370
   -1
100
AcDbLine
 10
-51.49999999999999
 20
46.00000000000001
 11
-52.39999999999998
 21
46.00000000000003
  0
LINE
  5
8E
100
AcDbEntity
  8
0
  6
ByLayer
 62
  174
370
   -1
100
AcDbLine
 10
-52.68999999999998
 20
46.50000000000002
 11
-52.39999999999998
 21
46.00000000000003
  0
LINE
  5
8F
100
AcDbEntity
  8
0
  6
ByLayer
 62
  174
370
   -1
100
AcDbLine
 10
-52.68999999999998
 20
46.50000000000002
 11
-54.29999999999998
 21
46.50000000000002
  0
LINE
  5
90
100
AcDbEntity
  8
0
  6
ByLayer
 62
  174
370
   -1
100
AcDbLine
 10
-54.29999999999998
 20
46.50000000000002
 11
-54.29999999999998
 21
43.00000000000001
  0
LINE
  5
91
100
AcDbEntity
  8
0
  6
ByLayer
 62
  174
370
   -1
100
AcDbLine
 10
-47.17999999999999
 20
43.00000000000001
 11
-54.29999999999998
 21
43.00000000000001
  0
LINE
  5
92
100
AcDbEntity
  8
0
  6
ByLayer
 62
  174
370
   -1
100
AcDbLine
 10
-51.00999999999999
 20
13.81000000000001
 11
-49
 21
12.24000000000002
  0
LINE
  5
93
100
AcDbEntity
  8
0
  6
ByLayer
 62
  174
370
   -1
100
AcDbLine
 10
-47.18000000000001
 20
5.000002000000013
 11
-54.3
 21
5.000003000000017
  0
LINE
  5
94
100
AcDbEntity
  8
0
  6
ByLayer
 62
  174
370
   -1
100
AcDbLine
 10
-54.3
 20
5.000003000000017
 11
-54.3
 21
1.500004000000015
  0
LINE
  5
95
100
AcDbEntity
  8
0
  6
ByLayer
 62
  174
370
   -1
100
AcDbLine
 10
-52.69
 20
1.500003000000021
 11
-54.3
 21
1.500004000000015
  0
LINE
  5
96
100
AcDbEntity
  8
0
  6
ByLayer
 62
  174
370
   -1
100
AcDbLine
 10
-52.40000000000001
 20
2.000003000000024
 11
-52.69
 21
1.500003000000021
  0
LINE
  5
97
100
AcDbEntity
  8
0
  6
ByLayer
 62
  174
370
   -1
100
AcDbLine
 10
-51.5
 20
2.000003000000024
 11
-52.40000000000001
 21
2.000003000000024
  0
LINE
  5
98
100
AcDbEntity
  8
0
  6
ByLayer
 62
  174
370
   -1
100
AcDbLine
 10
-51.5
 20
2.000003000000024
 11
-51.5
 21
1.600005000000017
  0
LINE
  5
99
100
AcDbEntity
  8
0
  6
ByLayer
 62
  174
370
   -1
100
AcDbLine
 10
-51.5
 20
1.600005000000017
 11
-52.42
 21
2.291351020033972e-06
  0
LINE
  5
9A
100
AcDbEntity
  8
0
  6
ByLayer
 62
  174
370
   -1
100
AcDbLine
 10
-52.42
 20
2.291351020033972e-06
 11
-56.55
 21
2.471879000154331e-06
  0
LINE
  5
9B
100
AcDbEntity
  8
0
  6
ByLayer
 62
  174
370
   -1
100
AcDbLine
 10
-57.5
 20
1.650003000000016
 11
-56.55
 21
2.471879000154331e-06
  0
LINE
  5
9C
100
AcDbEntity
  8
0
  6
ByLayer
 62
  174
370
   -1
100
AcDbLine
 10
-57.49999999999999
 20
2.000004000000022
 11
-57.5
 21
1.650003000000016
  0
LINE
  5
9D
100
AcDbEntity
  8
0
  6
ByLayer
 62
  174
370
   -1
100
AcDbLine
 10
-55.7
 20
2.00000200000002
 11
-57.49999999999999
 21
2.000004000000022
  0
LINE
  5
9E
100
AcDbEntity
  8
0
  6
ByLayer
 62
  174
370
   -1
100
AcDbLine
 10
-55.7
 20
5.000005000000019
 11
-55.7
 21
2.00000200000002
  0
LINE
  5
9F
100
AcDbEntity
  8
0
  6
ByLayer
 62
  174
370
   -1
100
AcDbLine
 10
-55.7
 20
5.000005000000019
 11
-64.19999999999999
 21
5.000003000000021
  0
LINE
  5
A0
100
AcDbEntity
  8
0
  6
ByLayer
 62
  174
370
   -1
100
AcDbLine
 10
-64.5
 20
5.300003000000025
 11
-64.19999999999999
 21
5.000003000000021
  0
LINE
  5
A1
100
AcDbEntity
  8
0
  6
ByLayer
 62
  174
370
   -1
100
AcDbLine
 10
-64.5
 20
5.300003000000025
 11
-64.8
 21
5.000003000000021
  0
LINE
  5
A2
100
AcDbEntity
  8
0
  6
ByLayer
 62
  174
370
   -1
100
AcDbLine
 10
-64.8
 20
5.000003000000021
 11
-73.40000000000001
 21
5.000003000000028
  0
LINE
  5
A3
100
AcDbEntity
  8
0
  6
ByLayer
 62
  174
370
   -1
100
AcDbLine
 10
-73.40000000000001
 20
5.000003000000028
 11
-73.40000000000001
 21
2.000003000000028
  0
LINE
  5
A4
100
AcDbEntity
  8
0
  6
ByLayer
 62
  174
370
   -1
100
AcDbLine
 10
-71.5
 20
2.000004000000018
 11
-73.40000000000001
 21
2.000003000000028
  0
LINE
  5
A5
100
AcDbEntity
  8
0
  6
ByLayer
 62
  174
370
   -1
100
AcDbLine
 10
-71.5
 20
2.000004000000018
 11
-71.5
 21
1.600003000000015
  0
LINE
  5
A6
100
AcDbEntity
  8
0
  6
ByLayer
 62
  174
370
   -1
100
AcDbLine
 10
-71.5
 20
1.600003000000015
 11
-72.42
 21
3.165579023800547e-06
  0
LINE
  5
A7
100
AcDbEntity
  8
0
  6
ByLayer
 62
  174
370
   -1
100
AcDbLine
 10
-72.42
 20
3.165579023800547e-06
 11
-75
 21
3.278354022029362e-06
  0
LINE
  5
A8
100
AcDbEntity
  8
0
  6
ByLayer
 62
  174
370
   -1
100
AcDbLine
 10
-74.99999999999997
 20
48.00000000000001
 11
-75
 21
3.278354022029362e-06
  0
LINE
  5
A9
100
AcDbEntity
  8
0
  6
ByLayer
 62
  174
370
   -1
100
AcDbLine
 10
-72.41999999999997
 20
48.00000000000003
 11
-74.99999999999997
 21
48.00000000000001
  0
LINE
  5
AA
100
AcDbEntity
  8
0
  6
ByLayer
 62
  174
370
   -1
100
AcDbLine
 10
-72.41999999999997
 20
48.00000000000003
 11
-71.49999999999999
 21
46.40001000000002
  0
LINE
  5
AB
100
AcDbEntity
  8
0
  6
ByLayer
 62
  174
370
   -1
100
AcDbLine
 10
-71.49999999999999
 20
46.40001000000002
 11
-71.5
 21
46.00000000000003
  0
LINE
  5
AC
100
AcDbEntity
  8
0
  6
ByLayer
 62
  174
370
   -1
100
AcDbLine
 10
-71.5
 20
46.00000000000003
 11
-73.39999999999999
 21
46.00000000000002
  0
LINE
  5
AD
100
AcDbEntity
  8
0
  6
ByLayer
 62
  174
370
   -1
100
AcDbLine
 10
-73.39999999999999
 20
46.00000000000002
 11
-73.39999999999998
 21
43.00000000000001
  0
LINE
  5
AE
100
AcDbEntity
  8
0
  6
ByLayer
 62
  174
370
   -1
100
AcDbLine
 10
-64.79999999999997
 20
43.00000000000003
 11
-73.39999999999998
 21
43.00000000000001
  0
LINE
  5
AF
100
AcDbEntity
  8
0
  6
ByLayer
 62
  174
370
   -1
100
AcDbLine
 10
-64.79999999999997
 20
43.00000000000003
 11
-64.5
 21
42.70000000000003
  0
LINE
  5
B0
100
AcDbEntity
  8
0
  6
ByLayer
 62
  174
370
   -1
100
AcDbLine
 10
-64.19999999999997
 20
43.00000000000001
 11
-64.5
 21
42.70000000000003
  0
LINE
  5
B1
100
AcDbEntity
  8
0
  6
ByLayer
 62
  174
370
   -1
100
AcDbLine
 10
-55.69999999999998
 20
43.00000000000001
 11
-64.19999999999997
 21
43.00000000000001
  0
LINE
  5
B2
100
AcDbEntity
  8
0
  6
ByLayer
 62
  174
370
   -1
100
AcDbLine
 10
2.131628207280301e-14
 20
70
 11
0
 21
0
  0
LINE
  5
B3
100
AcDbEntity
  8
0
  6
ByLayer
 62
  174
370
   -1
100
AcDbLine
 10
2.131628207280301e-14
 20
70
 11
-4.499999999999979
 21
70
  0
LINE
  5
B4
100
AcDbEntity
  8
0
  6
ByLayer
 62
  174
370
   -1
100
AcDbLine
 10
-4.499999999999979
 20
70
 11
-4.499999999999972
 21
67.7
  0
LINE
  5
B5
100
AcDbEntity
  8
0
  6
ByLayer
 62
  174
370
   -1
100
AcDbLine
 10
-4.499999999999972
 20
67.7
 11
-3.860000999999979
 21
67.06
  0
LINE
  5
B6
100
AcDbEntity
  8
0
  6
ByLayer
 62
  174
370
   -1
100
AcDbLine
 10
-3.50000799999998
 20
67.2
 11
-3.860000999999979
 21
67.06
  0
LINE
  5
B7
100
AcDbEntity
  8
0
  6
ByLayer
 62
  174
370
   -1
100
AcDbLine
 10
-3.499999999999972
 20
68.80000000000001
 11
-3.50000799999998
 21
67.2
  0
LINE
  5
B8
100
AcDbEntity
  8
0
  6
ByLayer
 62
  174
370
   -1
100
AcDbLine
 10
-1.400001999999979
 20
68.8
 11
-3.499999999999972
 21
68.80000000000001
  0
LINE
  5
B9
100
AcDbEntity
  8
0
  6
ByLayer
 62
  174
370
   -1
100
AcDbLine
 10
-1.400001999999979
 20
68.8
 11
-1.400001999999969
 21
60.8
  0
LINE
  5
BA
100
AcDbEntity
  8
0
  6
ByLayer
 62
  174
370
   -1
100
AcDbLine
 10
-1.400001999999969
 20
60.8
 11
-3.499999999999964
 21
60.80001
  0
LINE
  5
BB
100
AcDbEntity
  8
0
  6
ByLayer
 62
  174
370
   -1
100
AcDbLine
 10
-3.499999999999979
 20
61.8
 11
-3.499999999999964
 21
60.80001
  0
LINE
  5
BC
100
AcDbEntity
  8
0
  6
ByLayer
 62
  174
370
   -1
100
AcDbLine
 10
-3.860000999999976
 20
61.93999999999999
 11
-3.499999999999979
 21
61.8
  0
LINE
  5
BD
100
AcDbEntity
  8
0
  6
ByLayer
 62
  174
370
   -1
100
AcDbLine
 10
-3.860000999999976
 20
61.93999999999999
 11
-4.499999999999972
 21
61.3
  0
LINE
  5
BE
100
AcDbEntity
  8
0
  6
ByLayer
 62
  174
370
   -1
100
AcDbLine
 10
-4.499999999999972
 20
61.3
 11
-4.499999999999968
 21
59.60001
  0
LINE
  5
BF
100
AcDbEntity
  8
0
  6
ByLayer
 62
  174
370
   -1
100
AcDbLine
 10
-3.999999999999982
 20
59.59999999999999
 11
-4.499999999999968
 21
59.60001
  0
LINE
  5
C0
100
AcDbEntity
  8
0
  6
ByLayer
 62
  174
370
   -1
100
AcDbLine
 10
-3.999999999999982
 20
59.59999999999999
 11
-3.999999999999982
 21
57.6
  0
LINE
  5
C1
100
AcDbEntity
  8
0
  6
ByLayer
 62
  174
370
   -1
100
AcDbLine
 10
-3.199988999999967
 20
57.6
 11
-3.999999999999982
 21
57.6
  0
LINE
  5
C2
100
AcDbEntity
  8
0
  6
ByLayer
 62
  174
370
   -1
100
AcDbLine
 10
-3.199996999999996
 20
59.59999999999999
 11
-3.199988999999967
 21
57.6
  0
LINE
  5
C3
100
AcDbEntity
  8
0
  6
ByLayer
 62
  174
370
   -1
100
AcDbLine
 10
-1.499991999999981
 20
59.59999999999999
 11
-3.199996999999996
 21
59.59999999999999
  0
LINE
  5
C4
100
AcDbEntity
  8
0
  6
ByLayer
 62
  174
370
   -1
100
AcDbLine
 10
-1.499991999999981
 20
59.59999999999999
 11
-1.80000299999999
 21
43
  0
LINE
  5
C5
100
AcDbEntity
  8
0
  6
ByLayer
 62
  174
370
   -1
100
AcDbLine
 10
-1.80000299999999
 20
43
 11
-3.499999999999993
 21
43
  0
LINE
  5
C6
100
AcDbEntity
  8
0
  6
ByLayer
 62
  174
370
   -1
100
AcDbLine
 10
-3.500007999999983
 20
44.50001
 11
-3.499999999999993
 21
43
  0
LINE
  5
C7
100
AcDbEntity
  8
0
  6
ByLayer
 62
  174
370
   -1
100
AcDbLine
 10
-3.500007999999983
 20
44.50001
 11
-4.300002999999979
 21
44.5
  0
LINE
  5
C8
100
AcDbEntity
  8
0
  6
ByLayer
 62
  174
370
   -1
100
AcDbLine
 10
-4.300002999999979
 20
44.5
 11
-4.30000299999999
 21
43.01
  0
LINE
  5
C9
100
AcDbEntity
  8
0
  6
ByLayer
 62
  174
370
   -1
100
AcDbLine
 10
-4.30000299999999
 20
43.01
 11
-15.81999999999999
 21
43
  0
LINE
  5
CA
100
AcDbEntity
  8
0
  6
ByLayer
 62
  174
370
   -1
100
AcDbLine
 10
-12.05
 20
13.83
 11
-13.99999999999999
 21
12.7
  0
LINE
  5
CB
100
AcDbEntity
  8
0
  6
ByLayer
 62
  174
370
   -1
100
AcDbLine
 10
-1.499999999999999
 20
5.000002000000001
 11
-15.82
 21
5.000004000000004
  0
LINE
  5
CC
100
AcDbEntity
  8
0
  6
ByLayer
 62
  174
370
   -1
100
AcDbLine
 10
-1.499999999999999
 20
5.000002000000001
 11
-1.499999999999999
 21
2.050006000000001
  0
LINE
  5
CD
100
AcDbEntity
  8
0
  6
ByLayer
 62
  174
370
   -1
100
AcDbLine
 10
-1.499999999999999
 20
2.050006000000001
 11
-1.660003999999999
 21
1.660001000000001
  0
LINE
  5
CE
100
AcDbEntity
  8
0
  6
ByLayer
 62
  174
370
   -1
100
AcDbLine
 10
-1.660003999999999
 20
1.660001000000001
 11
-2.050002999999999
 21
1.500004000000001
  0
LINE
  5
CF
100
AcDbEntity
  8
0
  6
ByLayer
 62
  174
370
   -1
100
AcDbLine
 10
-2.440001999999999
 20
1.660001
 11
-2.050002999999999
 21
1.500004000000001
  0
LINE
  5
D0
100
AcDbEntity
  8
0
  6
ByLayer
 62
  174
370
   -1
100
AcDbLine
 10
-2.600006
 20
2.000004
 11
-2.440001999999999
 21
1.660001
  0
LINE
  5
D1
100
AcDbEntity
  8
0
  6
ByLayer
 62
  174
370
   -1
100
AcDbLine
 10
-2.599997999999998
 20
2.000004000000001
 11
-3.499999999999999
 21
2.000007000000001
  0
LINE
  5
D2
100
AcDbEntity
  8
0
  6
ByLayer
 62
  174
370
   -1
100
AcDbLine
 10
-3.499999999999999
 20
2.000007000000001
 11
-3.499999999999999
 21
1.600002000000001
  0
LINE
  5
D3
100
AcDbEntity
  8
0
  6
ByLayer
 62
  174
370
   -1
100
AcDbLine
 10
-3.499999999999999
 20
1.600002000000001
 11
-2.580001999999999
 21
1.12775300653567e-07
  0
LINE
  5
D4
100
AcDbEntity
  8
0
  6
ByLayer
 62
  174
370
   -1
100
AcDbLine
 10
0
 20
0
 11
-2.580001999999999
 21
1.12775300653567e-07
  0
LINE
  5
D5
100
AcDbEntity
  8
0
  6
ByLayer
 62
  174
370
   -1
100
AcDbLine
 10
-1.499999999999989
 20
39.25
 11
-1.499999999999996
 21
8.750000999999999
  0
LINE
  5
D6
100
AcDbEntity
  8
0
  6
ByLayer
 62
  174
370
   -1
100
AcDbLine
 10
-1.499999999999989
 20
39.25
 11
-2.199996999999993
 21
39.25
  0
LINE
  5
D7
100
AcDbEntity
  8
0
  6
ByLayer
 62
  174
370
   -1
100
AcDbLine
 10
-2.199996999999993
 20
41.25
 11
-2.199996999999993
 21
39.25
  0
LINE
  5
D8
100
AcDbEntity
  8
0
  6
ByLayer
 62
  174
370
   -1
100
AcDbLine
 10
-2.20000499999999
 20
41.25
 11
-9.900001999999988
 21
41.25
  0
LINE
  5
D9
100
AcDbEntity
  8
0
  6
ByLayer
 62
  174
370
   -1
100
AcDbLine
 10
-9.900001999999988
 20
41.25
 11
-9.900001999999999
 21
6.750004000000002
  0
LINE
  5
DA
100
AcDbEntity
  8
0
  6
ByLayer
 62
  174
370
   -1
100
AcDbLine
 10
-2.200011999999997
 20
6.750004000000001
 11
-9.900001999999999
 21
6.750004000000002
  0
LINE
  5
DB
100
AcDbEntity
  8
0
  6
ByLayer
 62
  174
370
   -1
100
AcDbLine
 10
-2.199996999999997
 20
8.750003
 11
-2.200004999999998
 21
6.750005
  0
LINE
  5
DC
100
AcDbEntity
  8
0
  6
ByLayer
 62
  174
370
   -1
100
AcDbLine
 10
-1.499999999999996
 20
8.750000999999999
 11
-2.199996999999997
 21
8.750003
  0
LINE
  5
DD
100
AcDbEntity
  8
0
  6
ByLayer
 62
  174
370
   -1
100
AcDbLine
 10
-12.03999999999999
 20
34.17
 11
-12.04
 21
13.83001
  0
LINE
  5
DE
100
AcDbEntity
  8
0
  6
ByLayer
 62
  174
370
   -1
100
AcDbLine
 10
-13.99000999999999
 20
35.3
 11
-12.03999999999999
 21
34.17
  0
LINE
  5
DF
100
AcDbEntity
  8
0
  6
ByLayer
 62
  174
370
   -1
100
AcDbLine
 10
-51.00999999999998
 20
34.19000000000001
 11
-51.00999999999999
 21
13.81000000000001
  0
LINE
  5
E0
100
AcDbEntity
  8
0
  6
ByLayer
 62
  174
370
   -1
100
AcDbLine
 10
-48.99999999999999
 20
35.76000000000001
 11
-51.00999999999998
 21
34.19000000000001
  0
LINE
  5
E1
100
AcDbEntity
  8
0
  6
ByLayer
 62
  174
370
   -1
100
AcDbLine
 10
-36.79999999999998
 20
42.20000000000002
 11
-36.79999999999998
 21
37.30000000000001
  0
LINE
  5
E2
100
AcDbEntity
  8
0
  6
ByLayer
 62
  174
370
   -1
100
AcDbLine
 10
-26.19999999999999
 20
42.20001000000001
 11
-36.79999999999998
 21
42.20000000000002
  0
LINE
  5
E3
100
AcDbEntity
  8
0
  6
ByLayer
 62
  174
370
   -1
100
AcDbLine
 10
-26.19999999999999
 20
37.3
 11
-26.19999999999999
 21
42.20001000000001
  0
LINE
  5
E4
100
AcDbEntity
  8
0
  6
ByLayer
 62
  174
370
   -1
100
AcDbLine
 10
-36.79999999999998
 20
37.30000000000001
 11
-26.19999999999999
 21
37.3
  0
LINE
  5
E5
100
AcDbEntity
  8
0
  6
ByLayer
 62
  174
370
   -1
100
AcDbLine
 10
-14.62999999999999
 20
37.55
 11
-17.17999999999999
 21
35
  0
LINE
  5
E6
100
AcDbEntity
  8
0
  6
ByLayer
 62
  174
370
   -1
100
AcDbLine
 10
-13.79999999999999
 20
37.55
 11
-14.62999999999999
 21
37.55
  0
LINE
  5
E7
100
AcDbEntity
  8
0
  6
ByLayer
 62
  174
370
   -1
100
AcDbLine
 10
-12.23999999999999
 20
36.65000999999999
 11
-13.79999999999999
 21
37.55
  0
LINE
  5
E8
100
AcDbEntity
  8
0
  6
ByLayer
 62
  174
370
   -1
100
AcDbLine
 10
-11.54999999999999
 20
36.65001
 11
-12.23999999999999
 21
36.65000999999999
  0
LINE
  5
E9
100
AcDbEntity
  8
0
  6
ByLayer
 62
  174
370
   -1
100
AcDbLine
 10
-11.54999999999999
 20
40.75
 11
-11.54999999999999
 21
36.65001
  0
LINE
  5
EA
100
AcDbEntity
  8
0
  6
ByLayer
 62
  174
370
   -1
100
AcDbLine
 10
-12.24999999999998
 20
40.75
 11
-11.54999999999999
 21
40.75
  0
LINE
  5
EB
100
AcDbEntity
  8
0
  6
ByLayer
 62
  174
370
   -1
100
AcDbLine
 10
-13.81
 20
39.85000000000001
 11
-12.24999999999998
 21
40.75
  0
LINE
  5
EC
100
AcDbEntity
  8
0
  6
ByLayer
 62
  174
370
   -1
100
AcDbLine
 10
-14.61999999999999
 20
39.85000000000001
 11
-13.81
 21
39.85000000000001
  0
LINE
  5
ED
100
AcDbEntity
  8
0
  6
ByLayer
 62
  174
370
   -1
100
AcDbLine
 10
-17.76999999999998
 20
43.00001
 11
-14.61999999999999
 21
39.85000000000001
  0
LINE
  5
EE
100
AcDbEntity
  8
0
  6
ByLayer
 62
  174
370
   -1
100
AcDbLine
 10
-18.39999999999999
 20
43
 11
-17.76999999999998
 21
43.00001
  0
LINE
  5
EF
100
AcDbEntity
  8
0
  6
ByLayer
 62
  174
370
   -1
100
AcDbLine
 10
-18.40000999999999
 20
46
 11
-18.39999999999999
 21
43
  0
LINE
  5
F0
100
AcDbEntity
  8
0
  6
ByLayer
 62
  174
370
   -1
100
AcDbLine
 10
-17.49999999999999
 20
46
 11
-18.40000999999999
 21
46
  0
LINE
  5
F1
100
AcDbEntity
  8
0
  6
ByLayer
 62
  174
370
   -1
100
AcDbLine
 10
-17.49999999999999
 20
46.40001000000001
 11
-17.49999999999999
 21
46
  0
LINE
  5
F2
100
AcDbEntity
  8
0
  6
ByLayer
 62
  174
370
   -1
100
AcDbLine
 10
-18.41999999999998
 20
48.00001
 11
-17.49999999999999
 21
46.40001000000001
  0
LINE
  5
F3
100
AcDbEntity
  8
0
  6
ByLayer
 62
  174
370
   -1
100
AcDbLine
 10
-19.76999999999999
 20
48.00000000000001
 11
-18.41999999999998
 21
48.00001
  0
LINE
  5
F4
100
AcDbEntity
  8
0
  6
ByLayer
 62
  174
370
   -1
100
AcDbLine
 10
-20.68999999999999
 20
46.40001000000001
 11
-19.76999999999999
 21
48.00000000000001
  0
LINE
  5
F5
100
AcDbEntity
  8
0
  6
ByLayer
 62
  174
370
   -1
100
AcDbLine
 10
-20.68999999999998
 20
46.00000000000001
 11
-20.68999999999999
 21
46.40001000000001
  0
LINE
  5
F6
100
AcDbEntity
  8
0
  6
ByLayer
 62
  174
370
   -1
100
AcDbLine
 10
-19.78999999999999
 20
46
 11
-20.68999999999998
 21
46.00000000000001
  0
LINE
  5
F7
100
AcDbEntity
  8
0
  6
ByLayer
 62
  174
370
   -1
100
AcDbLine
 10
-19.78999999999998
 20
43
 11
-19.78999999999999
 21
46
  0
LINE
  5
F8
100
AcDbEntity
  8
0
  6
ByLayer
 62
  174
370
   -1
100
AcDbLine
 10
-28.28999999999999
 20
43.00000000000001
 11
-19.78999999999998
 21
43
  0
LINE
  5
F9
100
AcDbEntity
  8
0
  6
ByLayer
 62
  174
370
   -1
100
AcDbLine
 10
-28.28999999999998
 20
46
 11
-28.28999999999999
 21
43.00000000000001
  0
LINE
  5
FA
100
AcDbEntity
  8
0
  6
ByLayer
 62
  174
370
   -1
100
AcDbLine
 10
-26.88999999999999
 20
46.00000000000001
 11
-28.28999999999998
 21
46
  0
LINE
  5
FB
100
AcDbEntity
  8
0
  6
ByLayer
 62
  174
370
   -1
100
AcDbLine
 10
-26.88999999999998
 20
46.40001000000001
 11
-26.88999999999999
 21
46.00000000000001
  0
LINE
  5
FC
100
AcDbEntity
  8
0
  6
ByLayer
 62
  174
370
   -1
100
AcDbLine
 10
-27.80999999999998
 20
48.00000000000001
 11
-26.88999999999998
 21
46.40001000000001
  0
LINE
  5
FD
100
AcDbEntity
  8
0
  6
ByLayer
 62
  174
370
   -1
100
AcDbLine
 10
-30.15999999999999
 20
48.00000000000001
 11
-27.80999999999998
 21
48.00000000000001
  0
LINE
  5
FE
100
AcDbEntity
  8
0
  6
ByLayer
 62
  174
370
   -1
100
AcDbLine
 10
-31.08
 20
46.40001
 11
-30.15999999999999
 21
48.00000000000001
  0
LINE
  5
FF
100
AcDbEntity
  8
0
  6
ByLayer
 62
  174
370
   -1
100
AcDbLine
 10
-31.07999999999999
 20
46.00000000000001
 11
-31.08
 21
46.40001
  0
LINE
  5
100
100
AcDbEntity
  8
0
  6
ByLayer
 62
  174
370
   -1
100
AcDbLine
 10
-29.67999999999999
 20
46.00000000000001
 11
-31.07999999999999
 21
46.00000000000001
  0
LINE
  5
101
100
AcDbEntity
  8
0
  6
ByLayer
 62
  174
370
   -1
100
AcDbLine
 10
-29.67999999999999
 20
43.00000000000001
 11
-29.67999999999999
 21
46.00000000000001
  0
LINE
  5
102
100
AcDbEntity
  8
0
  6
ByLayer
 62
  174
370
   -1
100
AcDbLine
 10
-38.17999999999999
 20
43.00000000000001
 11
-29.67999999999999
 21
43.00000000000001
  0
LINE
  5
103
100
AcDbEntity
  8
0
  6
ByLayer
 62
  174
370
   -1
100
AcDbLine
 10
-38.18
 20
46.00000000000001
 11
-38.17999999999999
 21
43.00000000000001
  0
LINE
  5
104
100
AcDbEntity
  8
0
  6
ByLayer
 62
  174
370
   -1
100
AcDbLine
 10
-37.27999999999999
 20
46.00000000000001
 11
-38.18
 21
46.00000000000001
  0
LINE
  5
105
100
AcDbEntity
  8
0
  6
ByLayer
 62
  174
370
   -1
100
AcDbLine
 10
-37.27999999999999
 20
46.40000000000001
 11
-37.27999999999999
 21
46.00000000000001
  0
LINE
  5
106
100
AcDbEntity
  8
0
  6
ByLayer
 62
  174
370
   -1
100
AcDbLine
 10
-38.19999999999997
 20
48.00000000000001
 11
-37.27999999999999
 21
46.40000000000001
  0
LINE
  5
107
100
AcDbEntity
  8
0
  6
ByLayer
 62
  174
370
   -1
100
AcDbLine
 10
-39.54999999999997
 20
48.00000000000001
 11
-38.19999999999997
 21
48.00000000000001
  0
LINE
  5
108
100
AcDbEntity
  8
0
  6
ByLayer
 62
  174
370
   -1
100
AcDbLine
 10
-40.46999999999998
 20
46.40001000000002
 11
-39.54999999999997
 21
48.00000000000001
  0
LINE
  5
109
100
AcDbEntity
  8
0
  6
ByLayer
 62
  174
370
   -1
100
AcDbLine
 10
-40.47
 20
46
 11
-40.46999999999998
 21
46.40001000000002
  0
LINE
  5
10A
100
AcDbEntity
  8
0
  6
ByLayer
 62
  174
370
   -1
100
AcDbLine
 10
-39.56999999999999
 20
46.00000000000001
 11
-40.47
 21
46
  0
LINE
  5
10B
100
AcDbEntity
  8
0
  6
ByLayer
 62
  174
370
   -1
100
AcDbLine
 10
-39.56999999999998
 20
43.00000000000001
 11
-39.56999999999999
 21
46.00000000000001
  0
LINE
  5
10C
100
AcDbEntity
  8
0
  6
ByLayer
 62
  174
370
   -1
100
AcDbLine
 10
-45.19999999999999
 20
43.00000000000001
 11
-39.56999999999998
 21
43.00000000000001
  0
LINE
  5
10D
100
AcDbEntity
  8
0
  6
ByLayer
 62
  174
370
   -1
100
AcDbLine
 10
-48.34999999999998
 20
39.85000000000002
 11
-45.19999999999999
 21
43.00000000000001
  0
LINE
  5
10E
100
AcDbEntity
  8
0
  6
ByLayer
 62
  174
370
   -1
100
AcDbLine
 10
-49.15999999999998
 20
39.85000000000002
 11
-48.34999999999998
 21
39.85000000000002
  0
LINE
  5
10F
100
AcDbEntity
  8
0
  6
ByLayer
 62
  174
370
   -1
100
AcDbLine
 10
-50.71999999999998
 20
40.75000000000003
 11
-49.15999999999998
 21
39.85000000000002
  0
LINE
  5
110
100
AcDbEntity
  8
0
  6
ByLayer
 62
  174
370
   -1
100
AcDbLine
 10
-51.41999999999998
 20
40.75000000000001
 11
-50.71999999999998
 21
40.75000000000003
  0
LINE
  5
111
100
AcDbEntity
  8
0
  6
ByLayer
 62
  174
370
   -1
100
AcDbLine
 10
-51.41999999999999
 20
36.65001000000002
 11
-51.41999999999998
 21
40.75000000000001
  0
LINE
  5
112
100
AcDbEntity
  8
0
  6
ByLayer
 62
  174
370
   -1
100
AcDbLine
 10
-50.72999999999999
 20
36.65001000000002
 11
-51.41999999999999
 21
36.65001000000002
  0
LINE
  5
113
100
AcDbEntity
  8
0
  6
ByLayer
 62
  174
370
   -1
100
AcDbLine
 10
-49.17
 20
37.55000000000003
 11
-50.72999999999999
 21
36.65001000000002
  0
LINE
  5
114
100
AcDbEntity
  8
0
  6
ByLayer
 62
  174
370
   -1
100
AcDbLine
 10
-48.33999999999999
 20
37.55
 11
-49.17
 21
37.55000000000003
  0
LINE
  5
115
100
AcDbEntity
  8
0
  6
ByLayer
 62
  174
370
   -1
100
AcDbLine
 10
-45.78999999999998
 20
35.00000000000001
 11
-48.33999999999999
 21
37.55
  0
LINE
  5
116
100
AcDbEntity
  8
0
  6
ByLayer
 62
  174
370
   -1
100
AcDbLine
 10
-45.35999999999999
 20
35.00000000000001
 11
-45.78999999999998
 21
35.00000000000001
  0
LINE
  5
117
100
AcDbEntity
  8
0
  6
ByLayer
 62
  174
370
   -1
100
AcDbLine
 10
-45.36
 20
36.5
 11
-45.35999999999999
 21
35.00000000000001
  0
LINE
  5
118
100
AcDbEntity
  8
0
  6
ByLayer
 62
  174
370
   -1
100
AcDbLine
 10
-37.65999999999998
 20
36.50000000000001
 11
-45.36
 21
36.5
  0
LINE
  5
119
100
AcDbEntity
  8
0
  6
ByLayer
 62
  174
370
   -1
100
AcDbLine
 10
-37.66
 20
35
 11
-37.65999999999998
 21
36.50000000000001
  0
LINE
  5
11A
100
AcDbEntity
  8
0
  6
ByLayer
 62
  174
370
   -1
100
AcDbLine
 10
-36.86
 20
35
 11
-37.66
 21
35
  0
LINE
  5
11B
100
AcDbEntity
  8
0
  6
ByLayer
 62
  174
370
   -1
100
AcDbLine
 10
-36.85999999999999
 20
36.50000000000001
 11
-36.86
 21
35
  0
LINE
  5
11C
100
AcDbEntity
  8
0
  6
ByLayer
 62
  174
370
   -1
100
AcDbLine
 10
-26.05999999999998
 20
36.50000000000001
 11
-36.85999999999999
 21
36.50000000000001
  0
LINE
  5
11D
100
AcDbEntity
  8
0
  6
ByLayer
 62
  174
370
   -1
100
AcDbLine
 10
-26.05999999999999
 20
35
 11
-26.05999999999998
 21
36.50000000000001
  0
LINE
  5
11E
100
AcDbEntity
  8
0
  6
ByLayer
 62
  174
370
   -1
100
AcDbLine
 10
-25.26
 20
35.00000000000001
 11
-26.05999999999999
 21
35
  0
LINE
  5
11F
100
AcDbEntity
  8
0
  6
ByLayer
 62
  174
370
   -1
100
AcDbLine
 10
-25.25999999999999
 20
36.50000000000001
 11
-25.26
 21
35.00000000000001
  0
LINE
  5
120
100
AcDbEntity
  8
0
  6
ByLayer
 62
  174
370
   -1
100
AcDbLine
 10
-17.55999999999998
 20
36.5
 11
-25.25999999999999
 21
36.50000000000001
  0
LINE
  5
121
100
AcDbEntity
  8
0
  6
ByLayer
 62
  174
370
   -1
100
AcDbLine
 10
-17.55999999999999
 20
35
 11
-17.55999999999998
 21
36.5
  0
LINE
  5
122
100
AcDbEntity
  8
0
  6
ByLayer
 62
  174
370
   -1
100
AcDbLine
 10
-17.12999999999999
 20
35.00001000000001
 11
-17.55999999999999
 21
35
  0
LINE
  5
123
100
AcDbEntity
  8
0
  6
ByLayer
 62
  174
370
   -1
100
AcDbLine
 10
-14.74999999999999
 20
38.91
 11
-18.03999999999998
 21
42.2
  0
LINE
  5
124
100
AcDbEntity
  8
0
  6
ByLayer
 62
  174
370
   -1
100
AcDbLine
 10
-14.74999999999999
 20
38.5
 11
-14.74999999999999
 21
38.91
  0
LINE
  5
125
100
AcDbEntity
  8
0
  6
ByLayer
 62
  174
370
   -1
100
AcDbLine
 10
-15.93999999999999
 20
37.31
 11
-14.74999999999999
 21
38.5
  0
LINE
  5
126
100
AcDbEntity
  8
0
  6
ByLayer
 62
  174
370
   -1
100
AcDbLine
 10
-25.21000999999999
 20
37.31001000000001
 11
-15.93999999999999
 21
37.31
  0
LINE
  5
127
100
AcDbEntity
  8
0
  6
ByLayer
 62
  174
370
   -1
100
AcDbLine
 10
-25.20999999999999
 20
42.21000000000001
 11
-25.21000999999999
 21
37.31001000000001
  0
LINE
  5
128
100
AcDbEntity
  8
0
  6
ByLayer
 62
  174
370
   -1
100
AcDbLine
 10
-18.03999999999998
 20
42.21
 11
-25.20999999999999
 21
42.21000000000001
  0
LINE
  5
129
100
AcDbEntity
  8
0
  6
ByLayer
 62
  174
370
   -1
100
AcDbLine
 10
-47.08
 20
37.30001
 11
-48.26999999999999
 21
38.49001000000001
  0
LINE
  5
12A
100
AcDbEntity
  8
0
  6
ByLayer
 62
  174
370
   -1
100
AcDbLine
 10
-37.81
 20
37.30001000000001
 11
-47.08
 21
37.30001
  0
LINE
  5
12B
100
AcDbEntity
  8
0
  6
ByLayer
 62
  174
370
   -1
100
AcDbLine
 10
-37.80999999999997
 20
42.20000000000001
 11
-37.81
 21
37.30001000000001
  0
LINE
  5
12C
100
AcDbEntity
  8
0
  6
ByLayer
 62
  174
370
   -1
100
AcDbLine
 10
-44.97999999999998
 20
42.20000000000001
 11
-37.80999999999997
 21
42.20000000000001
  0
LINE
  5
12D
100
AcDbEntity
  8
0
  6
ByLayer
 62
  174
370
   -1
100
AcDbLine
 10
-48.26999999999998
 20
38.91001000000001
 11
-44.97999999999998
 21
42.20000000000001
  0
LINE
  5
12E
100
AcDbEntity
  8
0
  6
ByLayer
 62
  174
370
   -1
100
AcDbLine
 10
-48.26999999999998
 20
38.50000000000001
 11
-48.26999999999998
 21
38.91001000000001
  0
LINE
  5
12F
100
AcDbEntity
  8
0
  6
ByLayer
 62
  174
370
   -1
100
AcDbLine
 10
-36.8
 20
5.810005000000013
 11
-36.79999999999999
 21
10.71000000000001
  0
LINE
  5
130
100
AcDbEntity
  8
0
  6
ByLayer
 62
  174
370
   -1
100
AcDbLine
 10
-26.2
 20
5.810005000000007
 11
-36.8
 21
5.810005000000013
  0
LINE
  5
131
100
AcDbEntity
  8
0
  6
ByLayer
 62
  174
370
   -1
100
AcDbLine
 10
-26.19999999999999
 20
10.71000000000001
 11
-26.2
 21
5.810005000000007
  0
LINE
  5
132
100
AcDbEntity
  8
0
  6
ByLayer
 62
  174
370
   -1
100
AcDbLine
 10
-36.79999999999999
 20
10.71000000000001
 11
-26.19999999999999
 21
10.71000000000001
  0
LINE
  5
133
100
AcDbEntity
  8
0
  6
ByLayer
 62
  174
370
   -1
100
AcDbLine
 10
-14.63
 20
10.46
 11
-17.18
 21
13.01001
  0
LINE
  5
134
100
AcDbEntity
  8
0
  6
ByLayer
 62
  174
370
   -1
100
AcDbLine
 10
-13.8
 20
10.46
 11
-14.63
 21
10.46
  0
LINE
  5
135
100
AcDbEntity
  8
0
  6
ByLayer
 62
  174
370
   -1
100
AcDbLine
 10
-12.24
 20
11.36
 11
-13.8
 21
10.46
  0
LINE
  5
136
100
AcDbEntity
  8
0
  6
ByLayer
 62
  174
370
   -1
100
AcDbLine
 10
-11.55
 20
11.36
 11
-12.24
 21
11.36
  0
LINE
  5
137
100
AcDbEntity
  8
0
  6
ByLayer
 62
  174
370
   -1
100
AcDbLine
 10
-11.55
 20
7.260007000000003
 11
-11.55
 21
11.36
  0
LINE
  5
138
100
AcDbEntity
  8
0
  6
ByLayer
 62
  174
370
   -1
100
AcDbLine
 10
-12.25
 20
7.260004000000005
 11
-11.55
 21
7.260007000000003
  0
LINE
  5
139
100
AcDbEntity
  8
0
  6
ByLayer
 62
  174
370
   -1
100
AcDbLine
 10
-13.81
 20
8.160004000000004
 11
-12.25
 21
7.260004000000005
  0
LINE
  5
13A
100
AcDbEntity
  8
0
  6
ByLayer
 62
  174
370
   -1
100
AcDbLine
 10
-14.61999999999999
 20
8.160003000000001
 11
-13.81
 21
8.160004000000004
  0
LINE
  5
13B
100
AcDbEntity
  8
0
  6
ByLayer
 62
  174
370
   -1
100
AcDbLine
 10
-17.77
 20
5.010001000000006
 11
-14.61999999999999
 21
8.160003000000001
  0
LINE
  5
13C
100
AcDbEntity
  8
0
  6
ByLayer
 62
  174
370
   -1
100
AcDbLine
 10
-18.4
 20
5.010001000000004
 11
-17.77
 21
5.010001000000006
  0
LINE
  5
13D
100
AcDbEntity
  8
0
  6
ByLayer
 62
  174
370
   -1
100
AcDbLine
 10
-18.4
 20
2.010006000000004
 11
-18.4
 21
5.010001000000004
  0
LINE
  5
13E
100
AcDbEntity
  8
0
  6
ByLayer
 62
  174
370
   -1
100
AcDbLine
 10
-17.5
 20
2.010006000000004
 11
-18.4
 21
2.010006000000004
  0
LINE
  5
13F
100
AcDbEntity
  8
0
  6
ByLayer
 62
  174
370
   -1
100
AcDbLine
 10
-17.5
 20
1.610003000000007
 11
-17.5
 21
2.010006000000004
  0
LINE
  5
140
100
AcDbEntity
  8
0
  6
ByLayer
 62
  174
370
   -1
100
AcDbLine
 10
-18.42
 20
0.0100034300000047
 11
-17.5
 21
1.610003000000007
  0
LINE
  5
141
100
AcDbEntity
  8
0
  6
ByLayer
 62
  174
370
   -1
100
AcDbLine
 10
-19.77
 20
0.01000185000000542
 11
-18.42
 21
0.0100034300000047
  0
LINE
  5
142
100
AcDbEntity
  8
0
  6
ByLayer
 62
  174
370
   -1
100
AcDbLine
 10
-20.69
 20
1.610005000000006
 11
-19.77
 21
0.01000185000000542
  0
LINE
  5
143
100
AcDbEntity
  8
0
  6
ByLayer
 62
  174
370
   -1
100
AcDbLine
 10
-20.69
 20
2.01000300000001
 11
-20.69
 21
1.610005000000006
  0
LINE
  5
144
100
AcDbEntity
  8
0
  6
ByLayer
 62
  174
370
   -1
100
AcDbLine
 10
-19.79
 20
2.010004000000006
 11
-20.69
 21
2.01000300000001
  0
LINE
  5
145
100
AcDbEntity
  8
0
  6
ByLayer
 62
  174
370
   -1
100
AcDbLine
 10
-19.79
 20
5.010005000000004
 11
-19.79
 21
2.010004000000006
  0
LINE
  5
146
100
AcDbEntity
  8
0
  6
ByLayer
 62
  174
370
   -1
100
AcDbLine
 10
-28.29
 20
5.010002000000009
 11
-19.79
 21
5.010005000000004
  0
LINE
  5
147
100
AcDbEntity
  8
0
  6
ByLayer
 62
  174
370
   -1
100
AcDbLine
 10
-28.29
 20
2.010004000000009
 11
-28.29
 21
5.010002000000009
  0
LINE
  5
148
100
AcDbEntity
  8
0
  6
ByLayer
 62
  174
370
   -1
100
AcDbLine
 10
-26.89
 20
2.01000100000001
 11
-28.29
 21
2.010004000000009
  0
LINE
  5
149
100
AcDbEntity
  8
0
  6
ByLayer
 62
  174
370
   -1
100
AcDbLine
 10
-26.89
 20
1.610002000000007
 11
-26.89
 21
2.01000100000001
  0
LINE
  5
14A
100
AcDbEntity
  8
0
  6
ByLayer
 62
  174
370
   -1
100
AcDbLine
 10
-27.81
 20
0.01000333000001064
 11
-26.89
 21
1.610002000000007
  0
LINE
  5
14B
100
AcDbEntity
  8
0
  6
ByLayer
 62
  174
370
   -1
100
AcDbLine
 10
-30.16
 20
0.01000246000001148
 11
-27.81
 21
0.01000333000001064
  0
LINE
  5
14C
100
AcDbEntity
  8
0
  6
ByLayer
 62
  174
370
   -1
100
AcDbLine
 10
-31.08
 20
1.610005000000013
 11
-30.16
 21
0.01000246000001148
  0
LINE
  5
14D
100
AcDbEntity
  8
0
  6
ByLayer
 62
  174
370
   -1
100
AcDbLine
 10
-31.08
 20
2.010006000000011
 11
-31.08
 21
1.610005000000013
  0
LINE
  5
14E
100
AcDbEntity
  8
0
  6
ByLayer
 62
  174
370
   -1
100
AcDbLine
 10
-29.68
 20
2.010002000000013
 11
-31.08
 21
2.010006000000011
  0
LINE
  5
14F
100
AcDbEntity
  8
0
  6
ByLayer
 62
  174
370
   -1
100
AcDbLine
 10
-29.68
 20
5.010006000000011
 11
-29.68
 21
2.010002000000013
  0
LINE
  5
150
100
AcDbEntity
  8
0
  6
ByLayer
 62
  174
370
   -1
100
AcDbLine
 10
-38.18
 20
5.010003000000012
 11
-29.68
 21
5.010006000000011
  0
LINE
  5
151
100
AcDbEntity
  8
0
  6
ByLayer
 62
  174
370
   -1
100
AcDbLine
 10
-38.18
 20
2.010005000000014
 11
-38.18
 21
5.010003000000012
  0
LINE
  5
152
100
AcDbEntity
  8
0
  6
ByLayer
 62
  174
370
   -1
100
AcDbLine
 10
-37.28
 20
2.010004000000009
 11
-38.18
 21
2.010005000000014
  0
LINE
  5
153
100
AcDbEntity
  8
0
  6
ByLayer
 62
  174
370
   -1
100
AcDbLine
 10
-37.28
 20
1.610006000000013
 11
-37.28
 21
2.010004000000009
  0
LINE
  5
154
100
AcDbEntity
  8
0
  6
ByLayer
 62
  174
370
   -1
100
AcDbLine
 10
-38.2
 20
0.01000381000001482
 11
-37.28
 21
1.610006000000013
  0
LINE
  5
155
100
AcDbEntity
  8
0
  6
ByLayer
 62
  174
370
   -1
100
AcDbLine
 10
-39.55
 20
0.01000460000000913
 11
-38.2
 21
0.01000381000001482
  0
LINE
  5
156
100
AcDbEntity
  8
0
  6
ByLayer
 62
  174
370
   -1
100
AcDbLine
 10
-40.47
 20
1.610005000000012
 11
-39.55
 21
0.01000460000000913
  0
LINE
  5
157
100
AcDbEntity
  8
0
  6
ByLayer
 62
  174
370
   -1
100
AcDbLine
 10
-40.47
 20
2.010004000000009
 11
-40.47
 21
1.610005000000012
  0
LINE
  5
158
100
AcDbEntity
  8
0
  6
ByLayer
 62
  174
370
   -1
100
AcDbLine
 10
-39.56999999999999
 20
2.010004000000009
 11
-40.47
 21
2.010004000000009
  0
LINE
  5
159
100
AcDbEntity
  8
0
  6
ByLayer
 62
  174
370
   -1
100
AcDbLine
 10
-39.56999999999999
 20
5.01000500000001
 11
-39.56999999999999
 21
2.010004000000009
  0
LINE
  5
15A
100
AcDbEntity
  8
0
  6
ByLayer
 62
  174
370
   -1
100
AcDbLine
 10
-45.2
 20
5.01000500000001
 11
-39.56999999999999
 21
5.01000500000001
  0
LINE
  5
15B
100
AcDbEntity
  8
0
  6
ByLayer
 62
  174
370
   -1
100
AcDbLine
 10
-48.34999999999999
 20
8.160002000000024
 11
-45.2
 21
5.01000500000001
  0
LINE
  5
15C
100
AcDbEntity
  8
0
  6
ByLayer
 62
  174
370
   -1
100
AcDbLine
 10
-49.16
 20
8.16000200000002
 11
-48.34999999999999
 21
8.160002000000024
  0
LINE
  5
15D
100
AcDbEntity
  8
0
  6
ByLayer
 62
  174
370
   -1
100
AcDbLine
 10
-50.71999999999998
 20
7.260003000000019
 11
-49.16
 21
8.16000200000002
  0
LINE
  5
15E
100
AcDbEntity
  8
0
  6
ByLayer
 62
  174
370
   -1
100
AcDbLine
 10
-51.42
 20
7.26000400000002
 11
-50.71999999999998
 21
7.260003000000019
  0
LINE
  5
15F
100
AcDbEntity
  8
0
  6
ByLayer
 62
  174
370
   -1
100
AcDbLine
 10
-51.41999999999999
 20
11.36000000000001
 11
-51.42
 21
7.26000400000002
  0
LINE
  5
160
100
AcDbEntity
  8
0
  6
ByLayer
 62
  174
370
   -1
100
AcDbLine
 10
-50.72999999999998
 20
11.36000000000002
 11
-51.41999999999999
 21
11.36000000000001
  0
LINE
  5
161
100
AcDbEntity
  8
0
  6
ByLayer
 62
  174
370
   -1
100
AcDbLine
 10
-49.17
 20
10.46000000000002
 11
-50.72999999999998
 21
11.36000000000002
  0
LINE
  5
162
100
AcDbEntity
  8
0
  6
ByLayer
 62
  174
370
   -1
100
AcDbLine
 10
-48.34
 20
10.46000000000001
 11
-49.17
 21
10.46000000000002
  0
LINE
  5
163
100
AcDbEntity
  8
0
  6
ByLayer
 62
  174
370
   -1
100
AcDbLine
 10
-45.78999999999999
 20
13.01000000000002
 11
-48.34
 21
10.46000000000001
  0
LINE
  5
164
100
AcDbEntity
  8
0
  6
ByLayer
 62
  174
370
   -1
100
AcDbLine
 10
-45.36
 20
13.01000000000002
 11
-45.78999999999999
 21
13.01000000000002
  0
LINE
  5
165
100
AcDbEntity
  8
0
  6
ByLayer
 62
  174
370
   -1
100
AcDbLine
 10
-45.36
 20
11.51000000000002
 11
-45.36
 21
13.01000000000002
  0
LINE
  5
166
100
AcDbEntity
  8
0
  6
ByLayer
 62
  174
370
   -1
100
AcDbLine
 10
-37.66
 20
11.51000000000001
 11
-45.36
 21
11.51000000000002
  0
LINE
  5
167
100
AcDbEntity
  8
0
  6
ByLayer
 62
  174
370
   -1
100
AcDbLine
 10
-37.65999999999999
 20
13.01000000000001
 11
-37.66
 21
11.51000000000001
  0
LINE
  5
168
100
AcDbEntity
  8
0
  6
ByLayer
 62
  174
370
   -1
100
AcDbLine
 10
-36.86
 20
13.01000000000001
 11
-37.65999999999999
 21
13.01000000000001
  0
LINE
  5
169
100
AcDbEntity
  8
0
  6
ByLayer
 62
  174
370
   -1
100
AcDbLine
 10
-36.86
 20
11.51000000000001
 11
-36.86
 21
13.01000000000001
  0
LINE
  5
16A
100
AcDbEntity
  8
0
  6
ByLayer
 62
  174
370
   -1
100
AcDbLine
 10
-26.06000999999999
 20
11.51000000000001
 11
-36.86
 21
11.51000000000001
  0
LINE
  5
16B
100
AcDbEntity
  8
0
  6
ByLayer
 62
  174
370
   -1
100
AcDbLine
 10
-26.06
 20
13.01000000000001
 11
-26.06000999999999
 21
11.51000000000001
  0
LINE
  5
16C
100
AcDbEntity
  8
0
  6
ByLayer
 62
  174
370
   -1
100
AcDbLine
 10
-25.26
 20
13.01000000000001
 11
-26.06
 21
13.01000000000001
  0
LINE
  5
16D
100
AcDbEntity
  8
0
  6
ByLayer
 62
  174
370
   -1
100
AcDbLine
 10
-25.25999999999999
 20
11.51000000000001
 11
-25.26
 21
13.01000000000001
  0
LINE
  5
16E
100
AcDbEntity
  8
0
  6
ByLayer
 62
  174
370
   -1
100
AcDbLine
 10
-17.56000999999999
 20
11.51001
 11
-25.25999999999999
 21
11.51000000000001
  0
LINE
  5
16F
100
AcDbEntity
  8
0
  6
ByLayer
 62
  174
370
   -1
100
AcDbLine
 10
-17.55999999999999
 20
13.01
 11
-17.56000999999999
 21
11.51001
  0
LINE
  5
170
100
AcDbEntity
  8
0
  6
ByLayer
 62
  174
370
   -1
100
AcDbLine
 10
-17.13
 20
13.01000000000001
 11
-17.55999999999999
 21
13.01
  0
LINE
  5
171
100
AcDbEntity
  8
0
  6
ByLayer
 62
  174
370
   -1
100
AcDbLine
 10
-14.75
 20
9.100004000000006
 11
-18.04
 21
5.810003000000004
  0
LINE
  5
172
100
AcDbEntity
  8
0
  6
ByLayer
 62
  174
370
   -1
100
AcDbLine
 10
-14.75
 20
9.510002000000007
 11
-14.75
 21
9.100004000000006
  0
LINE
  5
173
100
AcDbEntity
  8
0
  6
ByLayer
 62
  174
370
   -1
100
AcDbLine
 10
-15.94001
 20
10.70000000000001
 11
-14.75
 21
9.510002000000007
  0
LINE
  5
174
100
AcDbEntity
  8
0
  6
ByLayer
 62
  174
370
   -1
100
AcDbLine
 10
-25.21
 20
10.70001000000001
 11
-15.94001
 21
10.70000000000001
  0
LINE
  5
175
100
AcDbEntity
  8
0
  6
ByLayer
 62
  174
370
   -1
100
AcDbLine
 10
-25.21
 20
5.800005000000009
 11
-25.21
 21
10.70001000000001
  0
LINE
  5
176
100
AcDbEntity
  8
0
  6
ByLayer
 62
  174
370
   -1
100
AcDbLine
 10
-18.04
 20
5.800000000000005
 11
-25.21
 21
5.800005000000009
  0
LINE
  5
177
100
AcDbEntity
  8
0
  6
ByLayer
 62
  174
370
   -1
100
AcDbLine
 10
-47.08
 20
10.70000000000001
 11
-48.27
 21
9.510002000000011
  0
LINE
  5
178
100
AcDbEntity
  8
0
  6
ByLayer
 62
  174
370
   -1
100
AcDbLine
 10
-37.80999999999999
 20
10.70000000000001
 11
-47.08
 21
10.70000000000001
  0
LINE
  5
179
100
AcDbEntity
  8
0
  6
ByLayer
 62
  174
370
   -1
100
AcDbLine
 10
-37.81
 20
5.800004000000008
 11
-37.80999999999999
 21
10.70000000000001
  0
LINE
  5
17A
100
AcDbEntity
  8
0
  6
ByLayer
 62
  174
370
   -1
100
AcDbLine
 10
-44.97999999999999
 20
5.800002000000006
 11
-37.81
 21
5.800004000000008
  0
LINE
  5
17B
100
AcDbEntity
  8
0
  6
ByLayer
 62
  174
370
   -1
100
AcDbLine
 10
-48.27
 20
9.090004000000015
 11
-44.97999999999999
 21
5.800002000000006
  0
LINE
  5
17C
100
AcDbEntity
  8
0
  6
ByLayer
 62
  174
370
   -1
100
AcDbLine
 10
-48.27
 20
9.500002000000013
 11
-48.27
 21
9.090004000000015
  0
ENDSEC
  0
SECTION
  2
OBJECTS
  0
DICTIONARY
  5
C
330
0
100
AcDbDictionary
281
    1
  3
ACAD_GROUP
350
D
  0
DICTIONARY
  5
D
330
C
100
AcDbDictionary
281
    1
  0
PLOTSETTINGS
  5
17D
100
AcDbPlotSettings
  6
1x1
 40
0
 41
0
 42
0
 43
0
  0
ENDSEC
  0
EOF
