999
dxfrw 0.6.3
  0
SECTION
  2
HEADER
  9
$ACADVER
  1
AC1021
  9
$DWGCODEPAGE
  3
ANSI_1252
  9
$INSBASE
 10
0
 20
0
 30
0
  9
$EXTMIN
 10
-145.2500000000001
 20
-217.14
 30
0
  9
$EXTMAX
 10
-63.25000000000003
 20
-142.14
 30
0
  9
$LIMMIN
 10
63.25
 20
142.14
  9
$LIMMAX
 10
153.95
 20
224.64
  9
$ORTHOMODE
 70
    0
  9
$REGENMODE
 70
    1
  9
$FILLMODE
 70
    1
  9
$QTEXTMODE
 70
    0
  9
$MIRRTEXT
 70
    1
  9
$LTSCALE
 40
1
  9
$ATTMODE
 70
    1
  9
$TEXTSIZE
 40
0.2
  9
$TRACEWID
 40
0.05
  9
$TEXTSTYLE
  7
Standard
  9
$CLAYER
  8
0
  9
$CELTYPE
  6
CONTINUOUS
  9
$CECOLOR
 62
  256
  9
$CELTSCALE
 40
1
  9
$DISPSILH
 70
    0
  9
$DIMSCALE
 40
1
  9
$DIMASZ
 40
0.18
  9
$DIMEXO
 40
0.0625
  9
$DIMDLI
 40
0.38
  9
$DIMRND
 40
0
  9
$DIMDLE
 40
0
  9
$DIMEXE
 40
0.18
  9
$DIMTP
 40
0
  9
$DIMTM
 40
0
  9
$DIMTXT
 40
0.18
  9
$DIMCEN
 40
0.09
  9
$DIMTSZ
 40
0
  9
$DIMTOL
 70
    0
  9
$DIMLIM
 70
    0
  9
$DIMTIH
 70
    1
  9
$DIMTOH
 70
    1
  9
$DIMSE1
 70
    0
  9
$DIMSE2
 70
    0
  9
$DIMTAD
 70
    0
  9
$DIMZIN
 70
    0
  9
$DIMBLK
  1

  9
$DIMASO
 70
    1
  9
$DIMSHO
 70
    1
  9
$DIMPOST
  1

  9
$DIMAPOST
  1

  9
$DIMALT
 70
    0
  9
$DIMALTD
 70
    2
  9
$DIMALTF
 40
1
  9
$DIMLFAC
 40
1
  9
$DIMTOFL
 70
    0
  9
$DIMTVP
 40
0
  9
$DIMTIX
 70
    0
  9
$DIMSOXD
 70
    0
  9
$DIMSAH
 70
    0
  9
$DIMBLK1
  1

  9
$DIMBLK2
  1

  9
$DIMSTYLE
  2
Standard
  9
$DIMCLRD
 70
    0
  9
$DIMCLRE
 70
    0
  9
$DIMCLRT
 70
    0
  9
$DIMTFAC
 40
1
  9
$DIMGAP
 40
0.09
  9
$DIMJUST
 70
    0
  9
$DIMSD1
 70
    0
  9
$DIMSD2
 70
    0
  9
$DIMTOLJ
 70
    0
  9
$DIMTZIN
 70
    8
  9
$DIMALTZ
 70
    0
  9
$DIMALTTZ
 70
    0
  9
$DIMUPT
 70
    0
  9
$DIMDEC
 70
    4
  9
$DIMTDEC
 70
    2
  9
$DIMALTU
 70
    2
  9
$DIMALTTD
 70
    3
  9
$DIMTXSTY
  7
STANDARD
  9
$DIMAUNIT
 70
    0
  9
$DIMADEC
 70
    0
  9
$DIMALTRND
 40
0
  9
$DIMAZIN
 70
    0
  9
$DIMDSEP
 70
   44
  9
$DIMATFIT
 70
    3
  9
$DIMFRAC
 70
    0
  9
$DIMLDRBLK
  1
STANDARD
  9
$DIMLUNIT
 70
    2
  9
$DIMLWD
 70
   -2
  9
$DIMLWE
 70
   -2
  9
$DIMTMOVE
 70
    0
  9
$DIMFXL
 40
1
  9
$DIMFXLON
 70
    0
  9
$DIMJOGANG
 40
0.7854
  9
$DIMTFILL
 70
    0
  9
$DIMTFILLCLR
 70
    0
  9
$DIMARCSYM
 70
    0
  9
$DIMLTYPE
  6

  9
$DIMLTEX1
  6

  9
$DIMLTEX2
  6

  9
$LUNITS
 70
    2
  9
$LUPREC
 70
    4
  9
$SKETCHINC
 40
0.1
  9
$FILLETRAD
 40
0
  9
$AUNITS
 70
    0
  9
$AUPREC
 70
    0
  9
$MENU
  1
.
  9
$ELEVATION
 40
0
  9
$PELEVATION
 40
0
  9
$THICKNESS
 40
0
  9
$LIMCHECK
 70
    0
  9
$CHAMFERA
 40
0.5
  9
$CHAMFERB
 40
0.5
  9
$CHAMFERC
 40
0
  9
$CHAMFERD
 40
0
  9
$SKPOLY
 70
    0
  9
$USRTIMER
 70
    1
  9
$ANGBASE
 50
0
  9
$ANGDIR
 70
    1
  9
$PDMODE
 70
    0
  9
$PDSIZE
 40
0
  9
$PLINEWID
 40
0
  9
$SPLFRAME
 70
    0
  9
$SPLINETYPE
 70
    6
  9
$SPLINESEGS
 70
    8
  9
$HANDSEED
  5
20000
  9
$SURFTAB1
 70
    6
  9
$SURFTAB2
 70
    6
  9
$SURFTYPE
 70
    6
  9
$SURFU
 70
    6
  9
$SURFV
 70
    6
  9
$UCSBASE
  2

  9
$UCSNAME
  2

  9
$UCSORG
 10
0
 20
0
 30
0
  9
$UCSXDIR
 10
1
 20
0
 30
0
  9
$UCSYDIR
 10
0
 20
1
 30
0
  9
$UCSORTHOREF
  2

  9
$UCSORTHOVIEW
 70
    0
  9
$UCSORGTOP
 10
0
 20
0
 30
0
  9
$UCSORGBOTTOM
 10
0
 20
0
 30
0
  9
$UCSORGLEFT
 10
0
 20
0
 30
0
  9
$UCSORGRIGHT
 10
0
 20
0
 30
0
  9
$UCSORGFRONT
 10
0
 20
0
 30
0
  9
$UCSORGBACK
 10
0
 20
0
 30
0
  9
$PUCSBASE
  2

  9
$PUCSNAME
  2

  9
$PUCSORG
 10
0
 20
0
 30
0
  9
$PUCSXDIR
 10
1
 20
0
 30
0
  9
$PUCSYDIR
 10
0
 20
1
 30
0
  9
$PUCSORTHOREF
  2

  9
$PUCSORTHOVIEW
 70
    0
  9
$PUCSORGTOP
 10
0
 20
0
 30
0
  9
$PUCSORGBOTTOM
 10
0
 20
0
 30
0
  9
$PUCSORGLEFT
 10
0
 20
0
 30
0
  9
$PUCSORGRIGHT
 10
0
 20
0
 30
0
  9
$PUCSORGFRONT
 10
0
 20
0
 30
0
  9
$PUCSORGBACK
 10
0
 20
0
 30
0
  9
$USERI1
 70
    0
  9
$USERI2
 70
    0
  9
$USERI3
 70
    0
  9
$USERI4
 70
    0
  9
$USERI5
 70
    0
  9
$USERR1
 40
0
  9
$USERR2
 40
0
  9
$USERR3
 40
0
  9
$USERR4
 40
0
  9
$USERR5
 40
0
  9
$WORLDVIEW
 70
    1
  9
$SHADEDGE
 70
    3
  9
$SHADEDIF
 70
   70
  9
$TILEMODE
 70
    1
  9
$MAXACTVP
 70
   48
  9
$PINSBASE
 10
0
 20
0
 30
0
  9
$PLIMCHECK
 70
    0
  9
$PEXTMIN
 10
1e+20
 20
1e+20
 30
1e+20
  9
$PEXTMAX
 10
-1e+20
 20
-1e+20
 30
-1e+20
  9
$GRIDMODE
 70
    1
  9
$SNAPSTYLE
 70
    0
  9
$PLIMMIN
 10
0
 20
0
  9
$PLIMMAX
 10
0
 20
0
  9
$UNITMODE
 70
    0
  9
$VISRETAIN
 70
    1
  9
$PLINEGEN
 70
    1
  9
$PSLTSCALE
 70
    1
  9
$TREEDEPTH
 70
 3020
  9
$CMLSTYLE
  2
Standard
  9
$CMLJUST
 70
    0
  9
$CMLSCALE
 40
20
  9
$PROXYGRAPHICS
 70
    1
  9
$MEASUREMENT
 70
    1
  9
$CELWEIGHT
370
   -1
  9
$ENDCAPS
280
    0
  9
$JOINSTYLE
280
    0
  9
$LWDISPLAY
290
    0
  9
$INSUNITS
 70
    4
  9
$HYPERLINKBASE
  1

  9
$STYLESHEET
  1

  9
$XEDIT
290
    1
  9
$CEPSNTYPE
380
    0
  9
$PSTYLEMODE
290
    1
  9
$EXTNAMES
290
    1
  9
$PSVPSCALE
 40
1
  9
$OLESTARTUP
290
    0
  9
$SORTENTS
280
  127
  9
$INDEXCTL
280
    0
  9
$HIDETEXT
280
    1
  9
$XCLIPFRAME
290
    0
  9
$HALOGAP
280
    0
  9
$OBSCOLOR
 70
  257
  9
$OBSLTYPE
280
    0
  9
$INTERSECTIONDISPLAY
280
    0
  9
$INTERSECTIONCOLOR
 70
  257
  9
$DIMASSOC
280
    1
  9
$PROJECTNAME
  1

  9
$CAMERADISPLAY
290
    0
  9
$LENSLENGTH
 40
50
  9
$CAMERAHEIGHT
 40
0
  9
$STEPSPERSEC
 40
2
  9
$STEPSIZE
 40
50
  9
$3DDWFPREC
 40
2
  9
$PSOLWIDTH
 40
5
  9
$PSOLHEIGHT
 40
80
  9
$LOFTANG1
 40
1.570796326794897
  9
$LOFTANG2
 40
1.570796326794897
  9
$LOFTMAG1
 40
0
  9
$LOFTMAG2
 40
0
  9
$LOFTPARAM
 70
    7
  9
$LOFTNORMALS
280
    1
  9
$LATITUDE
 40
1
  9
$LONGITUDE
 40
1
  9
$NORTHDIRECTION
 40
0
  9
$TIMEZONE
 70
-8000
  9
$LIGHTGLYPHDISPLAY
280
    1
  9
$TILEMODELIGHTSYNCH
280
    1
  9
$SOLIDHIST
280
    1
  9
$SHOWHIST
280
    1
  9
$DWFFRAME
280
    2
  9
$DGNFRAME
280
    0
  9
$REALWORLDSCALE
290
    1
  9
$INTERFERECOLOR
 62
    1
  9
$CSHADOW
280
    0
  9
$SHADOWPLANELOCATION
 40
0
  0
ENDSEC
  0
SECTION
  2
CLASSES
  0
ENDSEC
  0
SECTION
  2
TABLES
  0
TABLE
  2
VPORT
  5
8
330
0
100
AcDbSymbolTable
 70
    1
  0
VPORT
  5
31
330
2
100
AcDbSymbolTableRecord
100
AcDbViewportTableRecord
  2
*ACTIVE
 70
    0
 10
0
 20
0
 11
1
 21
1
 12
37.91841997819829
 22
-46.00312814171804
 13
0
 23
0
 14
10
 24
10
 15
10
 25
10
 16
0
 26
0
 36
1
 17
0
 27
0
 37
0
 40
188.7950159875458
 41
1.90832328106152
 42
50
 43
0
 44
0
 50
0
 51
0
 71
    0
 72
  100
 73
    1
 74
    3
 75
    0
 76
    1
 77
    0
 78
    0
281
    0
 65
    1
110
0
120
0
130
0
111
1
121
0
131
0
112
0
122
1
132
0
 79
    0
146
0
348
10020
 60
    7
 61
    5
292
1
282
    1
141
0
142
0
 63
  250
421
3358443
  0
ENDTAB
  0
TABLE
  2
LTYPE
  5
5
330
0
100
AcDbSymbolTable
 70
    4
  0
LTYPE
  5
14
330
5
100
AcDbSymbolTableRecord
100
AcDbLinetypeTableRecord
  2
ByBlock
 70
    0
  3

 72
   65
 73
    0
 40
0
  0
LTYPE
  5
15
330
5
100
AcDbSymbolTableRecord
100
AcDbLinetypeTableRecord
  2
ByLayer
 70
    0
  3

 72
   65
 73
    0
 40
0
  0
LTYPE
  5
16
330
5
100
AcDbSymbolTableRecord
100
AcDbLinetypeTableRecord
  2
Continuous
 70
    0
  3
Solid line
 72
   65
 73
    0
 40
0
  0
LTYPE
  5
32
330
5
100
AcDbSymbolTableRecord
100
AcDbLinetypeTableRecord
  2
DOT
 70
    0
  3
Dot . . . . . . . . . . . . . . . . . . . . . .
 72
   65
 73
    2
 40
6.35
 49
0
 74
    0
 49
-6.35
 74
    0
  0
LTYPE
  5
33
330
5
100
AcDbSymbolTableRecord
100
AcDbLinetypeTableRecord
  2
DOTTINY
 70
    0
  3
Dot (.15x) .....................................
 72
   65
 73
    2
 40
0.9525
 49
0
 74
    0
 49
-0.9525
 74
    0
  0
LTYPE
  5
34
330
5
100
AcDbSymbolTableRecord
100
AcDbLinetypeTableRecord
  2
DOT2
 70
    0
  3
Dot (.5x) .....................................
 72
   65
 73
    2
 40
3.175
 49
0
 74
    0
 49
-3.175
 74
    0
  0
LTYPE
  5
35
330
5
100
AcDbSymbolTableRecord
100
AcDbLinetypeTableRecord
  2
DOTX2
 70
    0
  3
Dot (2x) .  .  .  .  .  .  .  .  .  .  .  .  .
 72
   65
 73
    2
 40
12.7
 49
0
 74
    0
 49
-12.7
 74
    0
  0
LTYPE
  5
36
330
5
100
AcDbSymbolTableRecord
100
AcDbLinetypeTableRecord
  2
DASHED
 70
    0
  3
Dashed _ _ _ _ _ _ _ _ _ _ _ _ _ _ _ _ _
 72
   65
 73
    2
 40
19.05
 49
12.7
 74
    0
 49
-6.35
 74
    0
  0
LTYPE
  5
37
330
5
100
AcDbSymbolTableRecord
100
AcDbLinetypeTableRecord
  2
DASHEDTINY
 70
    0
  3
Dashed (.15x) _ _ _ _ _ _ _ _ _ _ _ _ _ _ _ _ _
 72
   65
 73
    2
 40
2.8575
 49
1.905
 74
    0
 49
-0.9525
 74
    0
  0
LTYPE
  5
38
330
5
100
AcDbSymbolTableRecord
100
AcDbLinetypeTableRecord
  2
DASHED2
 70
    0
  3
Dashed (.5x) _ _ _ _ _ _ _ _ _ _ _ _ _ _ _ _ _
 72
   65
 73
    2
 40
9.524999999999999
 49
6.35
 74
    0
 49
-3.175
 74
    0
  0
LTYPE
  5
39
330
5
100
AcDbSymbolTableRecord
100
AcDbLinetypeTableRecord
  2
DASHEDX2
 70
    0
  3
Dashed (2x) ____  ____  ____  ____  ____  ___
 72
   65
 73
    2
 40
38.09999999999999
 49
25.4
 74
    0
 49
-12.7
 74
    0
  0
LTYPE
  5
3A
330
5
100
AcDbSymbolTableRecord
100
AcDbLinetypeTableRecord
  2
DASHDOT
 70
    0
  3
Dash dot __ . __ . __ . __ . __ . __ . __ . __
 72
   65
 73
    4
 40
25.4
 49
12.7
 74
    0
 49
-6.35
 74
    0
 49
0
 74
    0
 49
-6.35
 74
    0
  0
LTYPE
  5
3B
330
5
100
AcDbSymbolTableRecord
100
AcDbLinetypeTableRecord
  2
DASHDOTTINY
 70
    0
  3
Dash dot (.15x) _._._._._._._._._._._._._._._.
 72
   65
 73
    4
 40
3.81
 49
1.905
 74
    0
 49
-0.9525
 74
    0
 49
0
 74
    0
 49
-0.9525
 74
    0
  0
LTYPE
  5
3C
330
5
100
AcDbSymbolTableRecord
100
AcDbLinetypeTableRecord
  2
DASHDOT2
 70
    0
  3
Dash dot (.5x) _._._._._._._._._._._._._._._.
 72
   65
 73
    4
 40
12.7
 49
6.35
 74
    0
 49
-3.175
 74
    0
 49
0
 74
    0
 49
-3.175
 74
    0
  0
LTYPE
  5
3D
330
5
100
AcDbSymbolTableRecord
100
AcDbLinetypeTableRecord
  2
DASHDOTX2
 70
    0
  3
Dash dot (2x) ____  .  ____  .  ____  .  ___
 72
   65
 73
    4
 40
50.8
 49
25.4
 74
    0
 49
-12.7
 74
    0
 49
0
 74
    0
 49
-12.7
 74
    0
  0
LTYPE
  5
3E
330
5
100
AcDbSymbolTableRecord
100
AcDbLinetypeTableRecord
  2
DIVIDE
 70
    0
  3
Divide ____ . . ____ . . ____ . . ____ . . ____
 72
   65
 73
    6
 40
31.75
 49
12.7
 74
    0
 49
-6.35
 74
    0
 49
0
 74
    0
 49
-6.35
 74
    0
 49
0
 74
    0
 49
-6.35
 74
    0
  0
LTYPE
  5
3F
330
5
100
AcDbSymbolTableRecord
100
AcDbLinetypeTableRecord
  2
DIVIDETINY
 70
    0
  3
Divide (.15x) __..__..__..__..__..__..__..__.._
 72
   65
 73
    6
 40
4.7625
 49
1.905
 74
    0
 49
-0.9525
 74
    0
 49
0
 74
    0
 49
-0.9525
 74
    0
 49
0
 74
    0
 49
-0.9525
 74
    0
  0
LTYPE
  5
40
330
5
100
AcDbSymbolTableRecord
100
AcDbLinetypeTableRecord
  2
DIVIDE2
 70
    0
  3
Divide (.5x) __..__..__..__..__..__..__..__.._
 72
   65
 73
    6
 40
15.875
 49
6.35
 74
    0
 49
-3.175
 74
    0
 49
0
 74
    0
 49
-3.175
 74
    0
 49
0
 74
    0
 49
-3.175
 74
    0
  0
LTYPE
  5
41
330
5
100
AcDbSymbolTableRecord
100
AcDbLinetypeTableRecord
  2
DIVIDEX2
 70
    0
  3
Divide (2x) ________  .  .  ________  .  .  _
 72
   65
 73
    6
 40
63.5
 49
25.4
 74
    0
 49
-12.7
 74
    0
 49
0
 74
    0
 49
-12.7
 74
    0
 49
0
 74
    0
 49
-12.7
 74
    0
  0
LTYPE
  5
42
330
5
100
AcDbSymbolTableRecord
100
AcDbLinetypeTableRecord
  2
BORDER
 70
    0
  3
Border __ __ . __ __ . __ __ . __ __ . __ __ .
 72
   65
 73
    6
 40
44.45
 49
12.7
 74
    0
 49
-6.35
 74
    0
 49
12.7
 74
    0
 49
-6.35
 74
    0
 49
0
 74
    0
 49
-6.35
 74
    0
  0
LTYPE
  5
43
330
5
100
AcDbSymbolTableRecord
100
AcDbLinetypeTableRecord
  2
BORDERTINY
 70
    0
  3
Border (.15x) __.__.__.__.__.__.__.__.__.__.__.
 72
   65
 73
    6
 40
6.6675
 49
1.905
 74
    0
 49
-0.9525
 74
    0
 49
1.905
 74
    0
 49
-0.9525
 74
    0
 49
0
 74
    0
 49
-0.9525
 74
    0
  0
LTYPE
  5
44
330
5
100
AcDbSymbolTableRecord
100
AcDbLinetypeTableRecord
  2
BORDER2
 70
    0
  3
Border (.5x) __.__.__.__.__.__.__.__.__.__.__.
 72
   65
 73
    6
 40
22.225
 49
6.35
 74
    0
 49
-3.175
 74
    0
 49
6.35
 74
    0
 49
-3.175
 74
    0
 49
0
 74
    0
 49
-3.175
 74
    0
  0
LTYPE
  5
45
330
5
100
AcDbSymbolTableRecord
100
AcDbLinetypeTableRecord
  2
BORDERX2
 70
    0
  3
Border (2x) ____  ____  .  ____  ____  .  ___
 72
   65
 73
    6
 40
88.89999999999999
 49
25.4
 74
    0
 49
-12.7
 74
    0
 49
25.4
 74
    0
 49
-12.7
 74
    0
 49
0
 74
    0
 49
-12.7
 74
    0
  0
LTYPE
  5
46
330
5
100
AcDbSymbolTableRecord
100
AcDbLinetypeTableRecord
  2
CENTER
 70
    0
  3
Center ____ _ ____ _ ____ _ ____ _ ____ _ ____
 72
   65
 73
    4
 40
50.8
 49
31.75
 74
    0
 49
-6.35
 74
    0
 49
6.35
 74
    0
 49
-6.35
 74
    0
  0
LTYPE
  5
47
330
5
100
AcDbSymbolTableRecord
100
AcDbLinetypeTableRecord
  2
CENTERTINY
 70
    0
  3
Center (.15x) ___ _ ___ _ ___ _ ___ _ ___ _ ___
 72
   65
 73
    4
 40
7.62
 49
4.7625
 74
    0
 49
-0.9525
 74
    0
 49
0.9525
 74
    0
 49
-0.9525
 74
    0
  0
LTYPE
  5
48
330
5
100
AcDbSymbolTableRecord
100
AcDbLinetypeTableRecord
  2
CENTER2
 70
    0
  3
Center (.5x) ___ _ ___ _ ___ _ ___ _ ___ _ ___
 72
   65
 73
    4
 40
28.575
 49
19.05
 74
    0
 49
-3.175
 74
    0
 49
3.175
 74
    0
 49
-3.175
 74
    0
  0
LTYPE
  5
49
330
5
100
AcDbSymbolTableRecord
100
AcDbLinetypeTableRecord
  2
CENTERX2
 70
    0
  3
Center (2x) ________  __  ________  __  _____
 72
   65
 73
    4
 40
101.6
 49
63.5
 74
    0
 49
-12.7
 74
    0
 49
12.7
 74
    0
 49
-12.7
 74
    0
  0
ENDTAB
  0
TABLE
  2
LAYER
  5
2
330
0
100
AcDbSymbolTable
 70
    1
  0
LAYER
  5
10
330
2
100
AcDbSymbolTableRecord
100
AcDbLayerTableRecord
  2
0
 70
    0
 62
    7
  6
CONTINUOUS
370
   -3
390
F
  0
LAYER
  5
4A
330
2
100
AcDbSymbolTableRecord
100
AcDbLayerTableRecord
  2
DEFPOINTS
 70
    0
 62
    7
  6
CONTINUOUS
370
   -3
390
F
  0
LAYER
  5
4B
330
2
100
AcDbSymbolTableRecord
100
AcDbLayerTableRecord
  2
Profile
 70
    0
 62
    7
  6
CONTINUOUS
370
   -3
390
F
  0
ENDTAB
  0
TABLE
  2
STYLE
  5
3
330
0
100
AcDbSymbolTable
 70
    3
  0
STYLE
  5
4C
330
2
100
AcDbSymbolTableRecord
100
AcDbTextStyleTableRecord
  2
Standard
 70
    0
 40
0
 41
1
 50
0
 71
    0
 42
1
  3
txt
  4

  0
ENDTAB
  0
TABLE
  2
VIEW
  5
6
330
0
100
AcDbSymbolTable
 70
    0
  0
ENDTAB
  0
TABLE
  2
UCS
  5
7
330
0
100
AcDbSymbolTable
 70
    0
  0
ENDTAB
  0
TABLE
  2
APPID
  5
9
330
0
100
AcDbSymbolTable
 70
    1
  0
APPID
  5
12
330
9
100
AcDbSymbolTableRecord
100
AcDbRegAppTableRecord
  2
ACAD
 70
    0
  0
APPID
  5
4D
330
9
100
AcDbSymbolTableRecord
100
AcDbRegAppTableRecord
  2
LibreCad
 70
    0
  0
ENDTAB
  0
TABLE
  2
DIMSTYLE
  5
A
330
0
100
AcDbSymbolTable
 70
    1
100
AcDbDimStyleTable
 71
    1
  0
DIMSTYLE
105
4E
330
A
100
AcDbSymbolTableRecord
100
AcDbDimStyleTableRecord
  2
Standard
 70
    0
 40
1
 41
0.18
 42
0.0625
 43
0.38
 44
0.18
 45
0
 46
0
 47
0
 48
0
 49
1
140
0.18
141
0.09
142
0
143
25.4
144
1
145
0
146
1
147
0.09
148
0
 71
    0
 72
    0
 73
    1
 74
    1
 75
    0
 76
    0
 77
    0
 78
    0
 79
    0
170
    0
171
    2
172
    0
173
    0
174
    0
175
    0
176
    0
177
    0
178
    0
179
    0
271
    4
272
    4
273
    2
274
    2
275
    0
276
    0
277
    2
278
    0
279
    0
280
    0
281
    0
282
    0
283
    1
284
    0
285
    0
286
    0
288
    0
289
    3
340
standard
341

371
   -2
372
   -2
  0
ENDTAB
  0
TABLE
  2
BLOCK_RECORD
  5
1
330
0
100
AcDbSymbolTable
 70
    2
  0
BLOCK_RECORD
  5
1F
330
1
100
AcDbSymbolTableRecord
100
AcDbBlockTableRecord
  2
*Model_Space
 70
    0
280
    1
281
    0
  0
BLOCK_RECORD
  5
1E
330
1
100
AcDbSymbolTableRecord
100
AcDbBlockTableRecord
  2
*Paper_Space
 70
    0
280
    1
281
    0
  0
ENDTAB
  0
ENDSEC
  0
SECTION
  2
BLOCKS
  0
BLOCK
  5
20
330
1F
100
AcDbEntity
  8
0
100
AcDbBlockBegin
  2
*Model_Space
 70
    0
 10
0
 20
0
 30
0
  3
*Model_Space
  1

  0
ENDBLK
  5
21
330
1F
100
AcDbEntity
  8
0
100
AcDbBlockEnd
  0
BLOCK
  5
1C
330
1B
100
AcDbEntity
  8
0
100
AcDbBlockBegin
  2
*Paper_Space
 70
    0
 10
0
 20
0
 30
0
  3
*Paper_Space
  1

  0
ENDBLK
  5
1D
330
1F
100
AcDbEntity
  8
0
100
AcDbBlockEnd
  0
ENDSEC
  0
SECTION
  2
ENTITIES
  0
LINE
  5
4F
100
AcDbEntity
  8
Profile
  6
CONTINUOUS
 62
  174
370
   -1
100
AcDbLine
 10
-115.14
 20
-202.5299999999999
 11
-115.14
 21
-203.4199999999999
  0
LINE
  5
50
100
AcDbEntity
  8
Profile
  6
CONTINUOUS
 62
  174
370
   -1
100
AcDbLine
 10
-115.14
 20
-203.4199999999999
 11
-116.0400000000001
 21
-204.9799999999999
  0
LINE
  5
51
100
AcDbEntity
  8
Profile
  6
CONTINUOUS
 62
  174
370
   -1
100
AcDbLine
 10
-116.0400000000001
 20
-204.9799999999999
 11
-116.04
 21
-205.6399999999999
  0
LINE
  5
52
100
AcDbEntity
  8
Profile
  6
CONTINUOUS
 62
  174
370
   -1
100
AcDbLine
 10
-111.8400000000001
 20
-205.6399999999999
 11
-116.04
 21
-205.6399999999999
  0
LINE
  5
53
100
AcDbEntity
  8
Profile
  6
CONTINUOUS
 62
  174
370
   -1
100
AcDbLine
 10
-111.8400000000001
 20
-204.98
 11
-111.8400000000001
 21
-205.6399999999999
  0
LINE
  5
54
100
AcDbEntity
  8
Profile
  6
CONTINUOUS
 62
  174
370
   -1
100
AcDbLine
 10
-111.8400000000001
 20
-204.98
 11
-112.7300000000001
 21
-203.4199999999999
  0
LINE
  5
55
100
AcDbEntity
  8
Profile
  6
CONTINUOUS
 62
  174
370
   -1
100
AcDbLine
 10
-115.14
 20
-167.83
 11
-115.14
 21
-168.7199999999999
  0
LINE
  5
56
100
AcDbEntity
  8
Profile
  6
CONTINUOUS
 62
  174
370
   -1
100
AcDbLine
 10
-115.14
 20
-167.83
 11
-116.04
 21
-166.27
  0
LINE
  5
57
100
AcDbEntity
  8
Profile
  6
CONTINUOUS
 62
  174
370
   -1
100
AcDbLine
 10
-116.04
 20
-165.6399999999999
 11
-116.04
 21
-166.27
  0
LINE
  5
58
100
AcDbEntity
  8
Profile
  6
CONTINUOUS
 62
  174
370
   -1
100
AcDbLine
 10
-111.8400000000001
 20
-165.6399999999999
 11
-116.04
 21
-165.6399999999999
  0
LINE
  5
59
100
AcDbEntity
  8
Profile
  6
CONTINUOUS
 62
  174
370
   -1
100
AcDbLine
 10
-111.8400000000001
 20
-165.6399999999999
 11
-111.84
 21
-166.27
  0
LINE
  5
5A
100
AcDbEntity
  8
Profile
  6
CONTINUOUS
 62
  174
370
   -1
100
AcDbLine
 10
-111.84
 20
-166.27
 11
-112.73
 21
-167.83
  0
LINE
  5
5B
100
AcDbEntity
  8
Profile
  6
CONTINUOUS
 62
  174
370
   -1
100
AcDbLine
 10
-93.36000000000008
 20
-202.5299999999999
 11
-93.36000000000008
 21
-203.4199999999999
  0
LINE
  5
5C
100
AcDbEntity
  8
Profile
  6
CONTINUOUS
 62
  174
370
   -1
100
AcDbLine
 10
-93.36000000000008
 20
-203.4199999999999
 11
-92.46000000000004
 21
-204.98
  0
LINE
  5
5D
100
AcDbEntity
  8
Profile
  6
CONTINUOUS
 62
  174
370
   -1
100
AcDbLine
 10
-92.46000000000004
 20
-204.98
 11
-92.46000000000006
 21
-205.6399999999999
  0
LINE
  5
5E
100
AcDbEntity
  8
Profile
  6
CONTINUOUS
 62
  174
370
   -1
100
AcDbLine
 10
-96.66000000000008
 20
-205.64
 11
-92.46000000000006
 21
-205.6399999999999
  0
LINE
  5
5F
100
AcDbEntity
  8
Profile
  6
CONTINUOUS
 62
  174
370
   -1
100
AcDbLine
 10
-96.66000000000008
 20
-204.9799999999999
 11
-96.66000000000008
 21
-205.64
  0
LINE
  5
60
100
AcDbEntity
  8
Profile
  6
CONTINUOUS
 62
  174
370
   -1
100
AcDbLine
 10
-96.66000000000008
 20
-204.9799999999999
 11
-95.77000000000005
 21
-203.4199999999999
  0
LINE
  5
61
100
AcDbEntity
  8
Profile
  6
CONTINUOUS
 62
  174
370
   -1
100
AcDbLine
 10
-93.36000000000004
 20
-167.8299999999999
 11
-93.36000000000007
 21
-168.7199999999999
  0
LINE
  5
62
100
AcDbEntity
  8
Profile
  6
CONTINUOUS
 62
  174
370
   -1
100
AcDbLine
 10
-93.36000000000004
 20
-167.8299999999999
 11
-92.46000000000004
 21
-166.27
  0
LINE
  5
63
100
AcDbEntity
  8
Profile
  6
CONTINUOUS
 62
  174
370
   -1
100
AcDbLine
 10
-92.46000000000006
 20
-165.6399999999999
 11
-92.46000000000004
 21
-166.27
  0
LINE
  5
64
100
AcDbEntity
  8
Profile
  6
CONTINUOUS
 62
  174
370
   -1
100
AcDbLine
 10
-96.66000000000005
 20
-165.6399999999999
 11
-92.46000000000006
 21
-165.6399999999999
  0
LINE
  5
65
100
AcDbEntity
  8
Profile
  6
CONTINUOUS
 62
  174
370
   -1
100
AcDbLine
 10
-96.66000000000005
 20
-165.6399999999999
 11
-96.66000000000004
 21
-166.27
  0
LINE
  5
66
100
AcDbEntity
  8
Profile
  6
CONTINUOUS
 62
  174
370
   -1
100
AcDbLine
 10
-96.66000000000004
 20
-166.27
 11
-95.77000000000004
 21
-167.83
  0
LINE
  5
67
100
AcDbEntity
  8
Profile
  6
CONTINUOUS
 62
  174
370
   -1
100
AcDbLine
 10
-118.0700000000001
 20
-170.39
 11
-118.2500000000001
 21
-169.9699999999999
  0
LINE
  5
68
100
AcDbEntity
  8
Profile
  6
CONTINUOUS
 62
  174
370
   -1
100
AcDbLine
 10
-117.65
 20
-170.56
 11
-118.0700000000001
 21
-170.38
  0
LINE
  5
69
100
AcDbEntity
  8
Profile
  6
CONTINUOUS
 62
  174
370
   -1
100
AcDbLine
 10
-90.43000000000006
 20
-170.39
 11
-90.85000000000005
 21
-170.5699999999999
  0
LINE
  5
6A
100
AcDbEntity
  8
Profile
  6
CONTINUOUS
 62
  174
370
   -1
100
AcDbLine
 10
-90.25000000000006
 20
-169.96
 11
-90.43000000000001
 21
-170.38
  0
LINE
  5
6B
100
AcDbEntity
  8
Profile
  6
CONTINUOUS
 62
  174
370
   -1
100
AcDbLine
 10
-118.0700000000001
 20
-200.8899999999999
 11
-118.2500000000001
 21
-201.3099999999999
  0
LINE
  5
6C
100
AcDbEntity
  8
Profile
  6
CONTINUOUS
 62
  174
370
   -1
100
AcDbLine
 10
-117.6500000000001
 20
-200.7199999999999
 11
-118.0700000000001
 21
-200.8999999999999
  0
LINE
  5
6D
100
AcDbEntity
  8
Profile
  6
CONTINUOUS
 62
  174
370
   -1
100
AcDbLine
 10
-90.43000000000006
 20
-200.8899999999999
 11
-90.85000000000008
 21
-200.71
  0
LINE
  5
6E
100
AcDbEntity
  8
Profile
  6
CONTINUOUS
 62
  174
370
   -1
100
AcDbLine
 10
-90.25000000000009
 20
-201.32
 11
-90.43000000000005
 21
-200.9
  0
LINE
  5
6F
100
AcDbEntity
  8
Profile
  6
CONTINUOUS
 62
  174
370
   -1
100
AcDbLine
 10
-115.14
 20
-168.7199999999999
 11
-116.49
 21
-170.08
  0
LINE
  5
70
100
AcDbEntity
  8
Profile
  6
CONTINUOUS
 62
  174
370
   -1
100
AcDbLine
 10
-116.49
 20
-170.08
 11
-117.65
 21
-170.56
  0
LINE
  5
71
100
AcDbEntity
  8
Profile
  6
CONTINUOUS
 62
  174
370
   -1
100
AcDbLine
 10
-115.14
 20
-202.5299999999999
 11
-116.46
 21
-201.21
  0
LINE
  5
72
100
AcDbEntity
  8
Profile
  6
CONTINUOUS
 62
  174
370
   -1
100
AcDbLine
 10
-116.46
 20
-201.21
 11
-117.6500000000001
 21
-200.7199999999999
  0
LINE
  5
73
100
AcDbEntity
  8
Profile
  6
CONTINUOUS
 62
  174
370
   -1
100
AcDbLine
 10
-90.85000000000005
 20
-170.56
 11
-92.01000000000005
 21
-170.08
  0
LINE
  5
74
100
AcDbEntity
  8
Profile
  6
CONTINUOUS
 62
  174
370
   -1
100
AcDbLine
 10
-92.01000000000005
 20
-170.08
 11
-93.36000000000007
 21
-168.7199999999999
  0
LINE
  5
75
100
AcDbEntity
  8
Profile
  6
CONTINUOUS
 62
  174
370
   -1
100
AcDbLine
 10
-90.85000000000005
 20
-200.72
 11
-92.04000000000005
 21
-201.2099999999999
  0
LINE
  5
76
100
AcDbEntity
  8
Profile
  6
CONTINUOUS
 62
  174
370
   -1
100
AcDbLine
 10
-92.04000000000005
 20
-201.2099999999999
 11
-93.36000000000008
 21
-202.5299999999999
  0
LINE
  5
77
100
AcDbEntity
  8
Profile
  6
CONTINUOUS
 62
  174
370
   -1
100
AcDbLine
 10
-97.49000000000004
 20
-168.1399999999999
 11
-99.06000000000006
 21
-166.13
  0
LINE
  5
78
100
AcDbEntity
  8
Profile
  6
CONTINUOUS
 62
  174
370
   -1
100
AcDbLine
 10
-97.95000000000007
 20
-203.1399999999999
 11
-99.08000000000003
 21
-205.09
  0
LINE
  5
79
100
AcDbEntity
  8
Profile
  6
CONTINUOUS
 62
  174
370
   -1
100
AcDbLine
 10
-99.08000000000007
 20
-205.1
 11
-109.42
 21
-205.0999999999999
  0
LINE
  5
7A
100
AcDbEntity
  8
Profile
  6
CONTINUOUS
 62
  174
370
   -1
100
AcDbLine
 10
-109.42
 20
-205.0999999999999
 11
-110.5500000000001
 21
-203.15
  0
LINE
  5
7B
100
AcDbEntity
  8
Profile
  6
CONTINUOUS
 62
  174
370
   -1
100
AcDbLine
 10
-99.06000000000006
 20
-166.13
 11
-109.4400000000001
 21
-166.13
  0
LINE
  5
7C
100
AcDbEntity
  8
Profile
  6
CONTINUOUS
 62
  174
370
   -1
100
AcDbLine
 10
-109.4400000000001
 20
-166.13
 11
-111.01
 21
-168.14
  0
LINE
  5
7D
100
AcDbEntity
  8
Profile
  6
CONTINUOUS
 62
  174
370
   -1
100
AcDbLine
 10
-97.95000000000007
 20
-203.1399999999999
 11
-95.77000000000005
 21
-203.14
  0
LINE
  5
7E
100
AcDbEntity
  8
Profile
  6
CONTINUOUS
 62
  174
370
   -1
100
AcDbLine
 10
-95.77000000000005
 20
-203.14
 11
-95.77000000000005
 21
-203.4199999999999
  0
LINE
  5
7F
100
AcDbEntity
  8
Profile
  6
CONTINUOUS
 62
  174
370
   -1
100
AcDbLine
 10
-95.77000000000004
 20
-167.83
 11
-95.77000000000002
 21
-168.14
  0
LINE
  5
80
100
AcDbEntity
  8
Profile
  6
CONTINUOUS
 62
  174
370
   -1
100
AcDbLine
 10
-95.77000000000002
 20
-168.14
 11
-97.49000000000004
 21
-168.1399999999999
  0
LINE
  5
81
100
AcDbEntity
  8
Profile
  6
CONTINUOUS
 62
  174
370
   -1
100
AcDbLine
 10
-112.73
 20
-167.83
 11
-112.73
 21
-168.1399999999999
  0
LINE
  5
82
100
AcDbEntity
  8
Profile
  6
CONTINUOUS
 62
  174
370
   -1
100
AcDbLine
 10
-112.73
 20
-168.1399999999999
 11
-111.01
 21
-168.14
  0
LINE
  5
83
100
AcDbEntity
  8
Profile
  6
CONTINUOUS
 62
  174
370
   -1
100
AcDbLine
 10
-110.5500000000001
 20
-203.14
 11
-112.73
 21
-203.1399999999999
  0
LINE
  5
84
100
AcDbEntity
  8
Profile
  6
CONTINUOUS
 62
  174
370
   -1
100
AcDbLine
 10
-112.73
 20
-203.1399999999999
 11
-112.7300000000001
 21
-203.4199999999999
  0
LINE
  5
85
100
AcDbEntity
  8
Profile
  6
CONTINUOUS
 62
  174
370
   -1
100
AcDbLine
 10
-115.25
 20
-143.6399999999999
 11
-93.25000000000004
 21
-143.64
  0
LINE
  5
86
100
AcDbEntity
  8
Profile
  6
CONTINUOUS
 62
  174
370
   -1
100
AcDbLine
 10
-93.25000000000004
 20
-143.64
 11
-93.25000000000003
 21
-144.14
  0
LINE
  5
87
100
AcDbEntity
  8
Profile
  6
CONTINUOUS
 62
  174
370
   -1
100
AcDbLine
 10
-93.25000000000003
 20
-144.14
 11
-92.00000000000006
 21
-144.14
  0
LINE
  5
88
100
AcDbEntity
  8
Profile
  6
CONTINUOUS
 62
  174
370
   -1
100
AcDbLine
 10
-92.00000000000006
 20
-144.14
 11
-92.00000000000003
 21
-164.0399999999999
  0
LINE
  5
89
100
AcDbEntity
  8
Profile
  6
CONTINUOUS
 62
  174
370
   -1
100
AcDbLine
 10
-116.5000000000001
 20
-164.0399999999999
 11
-92.00000000000003
 21
-164.0399999999999
  0
LINE
  5
8A
100
AcDbEntity
  8
Profile
  6
CONTINUOUS
 62
  174
370
   -1
100
AcDbLine
 10
-90.25000000000003
 20
-161.4399999999999
 11
-87.25000000000006
 21
-161.44
  0
LINE
  5
8B
100
AcDbEntity
  8
Profile
  6
CONTINUOUS
 62
  174
370
   -1
100
AcDbLine
 10
-87.25000000000003
 20
-159.64
 11
-87.25000000000006
 21
-161.44
  0
LINE
  5
8C
100
AcDbEntity
  8
Profile
  6
CONTINUOUS
 62
  174
370
   -1
100
AcDbLine
 10
-87.25000000000003
 20
-159.64
 11
-86.90000000000003
 21
-159.6399999999999
  0
LINE
  5
8D
100
AcDbEntity
  8
Profile
  6
CONTINUOUS
 62
  174
370
   -1
100
AcDbLine
 10
-86.90000000000003
 20
-159.6399999999999
 11
-85.25000000000006
 21
-160.5899999999999
  0
LINE
  5
8E
100
AcDbEntity
  8
Profile
  6
CONTINUOUS
 62
  174
370
   -1
100
AcDbLine
 10
-85.25000000000006
 20
-160.5899999999999
 11
-85.25000000000004
 21
-164.72
  0
LINE
  5
8F
100
AcDbEntity
  8
Profile
  6
CONTINUOUS
 62
  174
370
   -1
100
AcDbLine
 10
-86.85000000000002
 20
-165.6399999999999
 11
-85.25000000000004
 21
-164.72
  0
LINE
  5
90
100
AcDbEntity
  8
Profile
  6
CONTINUOUS
 62
  174
370
   -1
100
AcDbLine
 10
-87.25000000000003
 20
-165.6399999999999
 11
-86.85000000000002
 21
-165.6399999999999
  0
LINE
  5
91
100
AcDbEntity
  8
Profile
  6
CONTINUOUS
 62
  174
370
   -1
100
AcDbLine
 10
-87.25000000000004
 20
-164.74
 11
-87.25000000000003
 21
-165.6399999999999
  0
LINE
  5
92
100
AcDbEntity
  8
Profile
  6
CONTINUOUS
 62
  174
370
   -1
100
AcDbLine
 10
-87.25000000000004
 20
-164.74
 11
-86.75000000000006
 21
-164.4499999999999
  0
LINE
  5
93
100
AcDbEntity
  8
Profile
  6
CONTINUOUS
 62
  174
370
   -1
100
AcDbLine
 10
-86.75000000000003
 20
-162.84
 11
-86.75000000000006
 21
-164.4499999999999
  0
LINE
  5
94
100
AcDbEntity
  8
Profile
  6
CONTINUOUS
 62
  174
370
   -1
100
AcDbLine
 10
-90.25000000000004
 20
-162.84
 11
-86.75000000000003
 21
-162.84
  0
LINE
  5
95
100
AcDbEntity
  8
Profile
  6
CONTINUOUS
 62
  174
370
   -1
100
AcDbLine
 10
-90.25000000000004
 20
-162.84
 11
-90.25000000000006
 21
-169.96
  0
LINE
  5
96
100
AcDbEntity
  8
Profile
  6
CONTINUOUS
 62
  174
370
   -1
100
AcDbLine
 10
-123.25
 20
-142.14
 11
-85.25000000000004
 21
-142.14
  0
LINE
  5
97
100
AcDbEntity
  8
Profile
  6
CONTINUOUS
 62
  174
370
   -1
100
AcDbLine
 10
-85.25000000000004
 20
-142.14
 11
-85.25000000000004
 21
-144.72
  0
LINE
  5
98
100
AcDbEntity
  8
Profile
  6
CONTINUOUS
 62
  174
370
   -1
100
AcDbLine
 10
-86.85000000000001
 20
-145.6399999999999
 11
-85.25000000000004
 21
-144.72
  0
LINE
  5
99
100
AcDbEntity
  8
Profile
  6
CONTINUOUS
 62
  174
370
   -1
100
AcDbLine
 10
-87.25000000000003
 20
-145.6399999999999
 11
-86.85000000000001
 21
-145.6399999999999
  0
LINE
  5
9A
100
AcDbEntity
  8
Profile
  6
CONTINUOUS
 62
  174
370
   -1
100
AcDbLine
 10
-87.25000000000004
 20
-143.74
 11
-87.25000000000003
 21
-145.6399999999999
  0
LINE
  5
9B
100
AcDbEntity
  8
Profile
  6
CONTINUOUS
 62
  174
370
   -1
100
AcDbLine
 10
-90.25000000000003
 20
-143.74
 11
-87.25000000000004
 21
-143.74
  0
LINE
  5
9C
100
AcDbEntity
  8
Profile
  6
CONTINUOUS
 62
  174
370
   -1
100
AcDbLine
 10
-90.25000000000003
 20
-143.74
 11
-90.25000000000004
 21
-152.34
  0
LINE
  5
9D
100
AcDbEntity
  8
Profile
  6
CONTINUOUS
 62
  174
370
   -1
100
AcDbLine
 10
-90.55000000000007
 20
-152.6399999999999
 11
-90.25000000000004
 21
-152.34
  0
LINE
  5
9E
100
AcDbEntity
  8
Profile
  6
CONTINUOUS
 62
  174
370
   -1
100
AcDbLine
 10
-90.55000000000007
 20
-152.6399999999999
 11
-90.25000000000006
 21
-152.9399999999999
  0
LINE
  5
9F
100
AcDbEntity
  8
Profile
  6
CONTINUOUS
 62
  174
370
   -1
100
AcDbLine
 10
-90.25000000000006
 20
-152.9399999999999
 11
-90.25000000000003
 21
-161.4399999999999
  0
LINE
  5
A0
100
AcDbEntity
  8
Profile
  6
CONTINUOUS
 62
  174
370
   -1
100
AcDbLine
 10
-65.55000000000007
 20
-212.64
 11
-63.25000000000003
 21
-212.64
  0
LINE
  5
A1
100
AcDbEntity
  8
Profile
  6
CONTINUOUS
 62
  174
370
   -1
100
AcDbLine
 10
-66.19000000000005
 20
-213.28
 11
-65.55000000000007
 21
-212.64
  0
LINE
  5
A2
100
AcDbEntity
  8
Profile
  6
CONTINUOUS
 62
  174
370
   -1
100
AcDbLine
 10
-66.19000000000005
 20
-213.28
 11
-66.05000000000008
 21
-213.64
  0
LINE
  5
A3
100
AcDbEntity
  8
Profile
  6
CONTINUOUS
 62
  174
370
   -1
100
AcDbLine
 10
-66.05000000000008
 20
-213.64
 11
-64.45000000000009
 21
-213.64
  0
LINE
  5
A4
100
AcDbEntity
  8
Profile
  6
CONTINUOUS
 62
  174
370
   -1
100
AcDbLine
 10
-64.45000000000009
 20
-213.64
 11
-64.45000000000007
 21
-215.74
  0
LINE
  5
A5
100
AcDbEntity
  8
Profile
  6
CONTINUOUS
 62
  174
370
   -1
100
AcDbLine
 10
-72.45000000000003
 20
-215.74
 11
-64.45000000000007
 21
-215.74
  0
LINE
  5
A6
100
AcDbEntity
  8
Profile
  6
CONTINUOUS
 62
  174
370
   -1
100
AcDbLine
 10
-72.45000000000009
 20
-213.64
 11
-72.45000000000003
 21
-215.74
  0
LINE
  5
A7
100
AcDbEntity
  8
Profile
  6
CONTINUOUS
 62
  174
370
   -1
100
AcDbLine
 10
-72.45000000000009
 20
-213.64
 11
-71.45000000000006
 21
-213.64
  0
LINE
  5
A8
100
AcDbEntity
  8
Profile
  6
CONTINUOUS
 62
  174
370
   -1
100
AcDbLine
 10
-71.45000000000006
 20
-213.64
 11
-71.31000000000003
 21
-213.28
  0
LINE
  5
A9
100
AcDbEntity
  8
Profile
  6
CONTINUOUS
 62
  174
370
   -1
100
AcDbLine
 10
-71.95000000000006
 20
-212.64
 11
-71.31000000000003
 21
-213.28
  0
LINE
  5
AA
100
AcDbEntity
  8
Profile
  6
CONTINUOUS
 62
  174
370
   -1
100
AcDbLine
 10
-73.65000000000006
 20
-212.6399999999999
 11
-71.95000000000006
 21
-212.64
  0
LINE
  5
AB
100
AcDbEntity
  8
Profile
  6
CONTINUOUS
 62
  174
370
   -1
100
AcDbLine
 10
-73.65000000000006
 20
-212.6399999999999
 11
-73.65000000000005
 21
-213.14
  0
LINE
  5
AC
100
AcDbEntity
  8
Profile
  6
CONTINUOUS
 62
  174
370
   -1
100
AcDbLine
 10
-75.65000000000011
 20
-213.14
 11
-73.65000000000005
 21
-213.14
  0
LINE
  5
AD
100
AcDbEntity
  8
Profile
  6
CONTINUOUS
 62
  174
370
   -1
100
AcDbLine
 10
-75.65000000000011
 20
-213.14
 11
-75.65000000000008
 21
-213.9399999999999
  0
LINE
  5
AE
100
AcDbEntity
  8
Profile
  6
CONTINUOUS
 62
  174
370
   -1
100
AcDbLine
 10
-75.65000000000008
 20
-213.9399999999999
 11
-73.65000000000006
 21
-213.9399999999999
  0
LINE
  5
AF
100
AcDbEntity
  8
Profile
  6
CONTINUOUS
 62
  174
370
   -1
100
AcDbLine
 10
-73.65000000000006
 20
-213.9399999999999
 11
-73.65000000000009
 21
-215.64
  0
LINE
  5
B0
100
AcDbEntity
  8
Profile
  6
CONTINUOUS
 62
  174
370
   -1
100
AcDbLine
 10
-90.25000000000009
 20
-215.34
 11
-73.65000000000009
 21
-215.64
  0
LINE
  5
B1
100
AcDbEntity
  8
Profile
  6
CONTINUOUS
 62
  174
370
   -1
100
AcDbLine
 10
-90.25000000000009
 20
-213.64
 11
-90.25000000000009
 21
-215.34
  0
LINE
  5
B2
100
AcDbEntity
  8
Profile
  6
CONTINUOUS
 62
  174
370
   -1
100
AcDbLine
 10
-90.25000000000009
 20
-213.64
 11
-88.75000000000006
 21
-213.64
  0
LINE
  5
B3
100
AcDbEntity
  8
Profile
  6
CONTINUOUS
 62
  174
370
   -1
100
AcDbLine
 10
-88.75000000000006
 20
-212.84
 11
-88.75000000000006
 21
-213.64
  0
LINE
  5
B4
100
AcDbEntity
  8
Profile
  6
CONTINUOUS
 62
  174
370
   -1
100
AcDbLine
 10
-90.24000000000007
 20
-212.84
 11
-88.75000000000006
 21
-212.84
  0
LINE
  5
B5
100
AcDbEntity
  8
Profile
  6
CONTINUOUS
 62
  174
370
   -1
100
AcDbLine
 10
-90.25000000000009
 20
-201.32
 11
-90.24000000000007
 21
-212.84
  0
LINE
  5
B6
100
AcDbEntity
  8
Profile
  6
CONTINUOUS
 62
  174
370
   -1
100
AcDbLine
 10
-114.5
 20
-215.64
 11
-94.00000000000004
 21
-215.64
  0
LINE
  5
B7
100
AcDbEntity
  8
Profile
  6
CONTINUOUS
 62
  174
370
   -1
100
AcDbLine
 10
-94.0000000000001
 20
-214.94
 11
-94.00000000000004
 21
-215.64
  0
LINE
  5
B8
100
AcDbEntity
  8
Profile
  6
CONTINUOUS
 62
  174
370
   -1
100
AcDbLine
 10
-94.0000000000001
 20
-214.94
 11
-92.00000000000004
 21
-214.9399999999999
  0
LINE
  5
B9
100
AcDbEntity
  8
Profile
  6
CONTINUOUS
 62
  174
370
   -1
100
AcDbLine
 10
-92.00000000000006
 20
-207.24
 11
-92.00000000000004
 21
-214.9399999999999
  0
LINE
  5
BA
100
AcDbEntity
  8
Profile
  6
CONTINUOUS
 62
  174
370
   -1
100
AcDbLine
 10
-116.5000000000001
 20
-207.2399999999999
 11
-92.00000000000006
 21
-207.24
  0
LINE
  5
BB
100
AcDbEntity
  8
Profile
  6
CONTINUOUS
 62
  174
370
   -1
100
AcDbLine
 10
-116.5
 20
-144.14
 11
-116.5000000000001
 21
-164.0399999999999
  0
LINE
  5
BC
100
AcDbEntity
  8
Profile
  6
CONTINUOUS
 62
  174
370
   -1
100
AcDbLine
 10
-116.5
 20
-144.14
 11
-115.25
 21
-144.14
  0
LINE
  5
BD
100
AcDbEntity
  8
Profile
  6
CONTINUOUS
 62
  174
370
   -1
100
AcDbLine
 10
-115.25
 20
-143.6399999999999
 11
-115.25
 21
-144.14
  0
LINE
  5
BE
100
AcDbEntity
  8
Profile
  6
CONTINUOUS
 62
  174
370
   -1
100
AcDbLine
 10
-118.2500000000001
 20
-162.8399999999999
 11
-118.2500000000001
 21
-169.96
  0
LINE
  5
BF
100
AcDbEntity
  8
Profile
  6
CONTINUOUS
 62
  174
370
   -1
100
AcDbLine
 10
-121.75
 20
-162.84
 11
-118.2500000000001
 21
-162.8399999999999
  0
LINE
  5
C0
100
AcDbEntity
  8
Profile
  6
CONTINUOUS
 62
  174
370
   -1
100
AcDbLine
 10
-121.75
 20
-162.84
 11
-121.7500000000001
 21
-164.45
  0
LINE
  5
C1
100
AcDbEntity
  8
Profile
  6
CONTINUOUS
 62
  174
370
   -1
100
AcDbLine
 10
-121.7500000000001
 20
-164.45
 11
-121.2500000000001
 21
-164.74
  0
LINE
  5
C2
100
AcDbEntity
  8
Profile
  6
CONTINUOUS
 62
  174
370
   -1
100
AcDbLine
 10
-121.2500000000001
 20
-164.74
 11
-121.2500000000001
 21
-165.64
  0
LINE
  5
C3
100
AcDbEntity
  8
Profile
  6
CONTINUOUS
 62
  174
370
   -1
100
AcDbLine
 10
-121.6500000000001
 20
-165.6399999999999
 11
-121.2500000000001
 21
-165.64
  0
LINE
  5
C4
100
AcDbEntity
  8
Profile
  6
CONTINUOUS
 62
  174
370
   -1
100
AcDbLine
 10
-123.2500000000001
 20
-164.7199999999999
 11
-121.6500000000001
 21
-165.6399999999999
  0
LINE
  5
C5
100
AcDbEntity
  8
Profile
  6
CONTINUOUS
 62
  174
370
   -1
100
AcDbLine
 10
-123.2500000000001
 20
-160.5899999999999
 11
-123.2500000000001
 21
-164.7199999999999
  0
LINE
  5
C6
100
AcDbEntity
  8
Profile
  6
CONTINUOUS
 62
  174
370
   -1
100
AcDbLine
 10
-123.2500000000001
 20
-160.5899999999999
 11
-121.6000000000001
 21
-159.6399999999999
  0
LINE
  5
C7
100
AcDbEntity
  8
Profile
  6
CONTINUOUS
 62
  174
370
   -1
100
AcDbLine
 10
-121.6000000000001
 20
-159.6399999999999
 11
-121.25
 21
-159.64
  0
LINE
  5
C8
100
AcDbEntity
  8
Profile
  6
CONTINUOUS
 62
  174
370
   -1
100
AcDbLine
 10
-121.25
 20
-159.64
 11
-121.25
 21
-161.44
  0
LINE
  5
C9
100
AcDbEntity
  8
Profile
  6
CONTINUOUS
 62
  174
370
   -1
100
AcDbLine
 10
-121.25
 20
-161.44
 11
-118.25
 21
-161.4399999999999
  0
LINE
  5
CA
100
AcDbEntity
  8
Profile
  6
CONTINUOUS
 62
  174
370
   -1
100
AcDbLine
 10
-118.2500000000001
 20
-152.9399999999999
 11
-118.25
 21
-161.4399999999999
  0
LINE
  5
CB
100
AcDbEntity
  8
Profile
  6
CONTINUOUS
 62
  174
370
   -1
100
AcDbLine
 10
-118.2500000000001
 20
-152.9399999999999
 11
-117.9500000000001
 21
-152.6399999999999
  0
LINE
  5
CC
100
AcDbEntity
  8
Profile
  6
CONTINUOUS
 62
  174
370
   -1
100
AcDbLine
 10
-118.25
 20
-152.3399999999999
 11
-117.9500000000001
 21
-152.6399999999999
  0
LINE
  5
CD
100
AcDbEntity
  8
Profile
  6
CONTINUOUS
 62
  174
370
   -1
100
AcDbLine
 10
-118.2500000000001
 20
-143.74
 11
-118.25
 21
-152.3399999999999
  0
LINE
  5
CE
100
AcDbEntity
  8
Profile
  6
CONTINUOUS
 62
  174
370
   -1
100
AcDbLine
 10
-121.25
 20
-143.74
 11
-118.2500000000001
 21
-143.74
  0
LINE
  5
CF
100
AcDbEntity
  8
Profile
  6
CONTINUOUS
 62
  174
370
   -1
100
AcDbLine
 10
-121.25
 20
-143.74
 11
-121.2500000000001
 21
-145.6399999999999
  0
LINE
  5
D0
100
AcDbEntity
  8
Profile
  6
CONTINUOUS
 62
  174
370
   -1
100
AcDbLine
 10
-121.65
 20
-145.6399999999999
 11
-121.2500000000001
 21
-145.6399999999999
  0
LINE
  5
D1
100
AcDbEntity
  8
Profile
  6
CONTINUOUS
 62
  174
370
   -1
100
AcDbLine
 10
-123.2500000000001
 20
-144.7199999999999
 11
-121.65
 21
-145.6399999999999
  0
LINE
  5
D2
100
AcDbEntity
  8
Profile
  6
CONTINUOUS
 62
  174
370
   -1
100
AcDbLine
 10
-123.25
 20
-142.14
 11
-123.2500000000001
 21
-144.7199999999999
  0
LINE
  5
D3
100
AcDbEntity
  8
Profile
  6
CONTINUOUS
 62
  174
370
   -1
100
AcDbLine
 10
-116.5000000000001
 20
-207.2399999999999
 11
-116.5000000000001
 21
-214.94
  0
LINE
  5
D4
100
AcDbEntity
  8
Profile
  6
CONTINUOUS
 62
  174
370
   -1
100
AcDbLine
 10
-116.5000000000001
 20
-214.94
 11
-114.5000000000001
 21
-214.94
  0
LINE
  5
D5
100
AcDbEntity
  8
Profile
  6
CONTINUOUS
 62
  174
370
   -1
100
AcDbLine
 10
-114.5000000000001
 20
-214.94
 11
-114.5
 21
-215.64
  0
LINE
  5
D6
100
AcDbEntity
  8
Profile
  6
CONTINUOUS
 62
  174
370
   -1
100
AcDbLine
 10
-145.2500000000001
 20
-212.64
 11
-145.2500000000001
 21
-217.1399999999999
  0
LINE
  5
D7
100
AcDbEntity
  8
Profile
  6
CONTINUOUS
 62
  174
370
   -1
100
AcDbLine
 10
-142.95
 20
-212.6399999999999
 11
-145.2500000000001
 21
-212.64
  0
LINE
  5
D8
100
AcDbEntity
  8
Profile
  6
CONTINUOUS
 62
  174
370
   -1
100
AcDbLine
 10
-142.3100000000001
 20
-213.28
 11
-142.95
 21
-212.6399999999999
  0
LINE
  5
D9
100
AcDbEntity
  8
Profile
  6
CONTINUOUS
 62
  174
370
   -1
100
AcDbLine
 10
-142.3100000000001
 20
-213.28
 11
-142.45
 21
-213.6399999999999
  0
LINE
  5
DA
100
AcDbEntity
  8
Profile
  6
CONTINUOUS
 62
  174
370
   -1
100
AcDbLine
 10
-142.45
 20
-213.6399999999999
 11
-144.0500000000001
 21
-213.64
  0
LINE
  5
DB
100
AcDbEntity
  8
Profile
  6
CONTINUOUS
 62
  174
370
   -1
100
AcDbLine
 10
-144.0500000000001
 20
-213.64
 11
-144.0500000000001
 21
-215.7399999999999
  0
LINE
  5
DC
100
AcDbEntity
  8
Profile
  6
CONTINUOUS
 62
  174
370
   -1
100
AcDbLine
 10
-136.0500000000001
 20
-215.7399999999999
 11
-144.0500000000001
 21
-215.7399999999999
  0
LINE
  5
DD
100
AcDbEntity
  8
Profile
  6
CONTINUOUS
 62
  174
370
   -1
100
AcDbLine
 10
-136.0500000000001
 20
-213.64
 11
-136.0500000000001
 21
-215.7399999999999
  0
LINE
  5
DE
100
AcDbEntity
  8
Profile
  6
CONTINUOUS
 62
  174
370
   -1
100
AcDbLine
 10
-136.0500000000001
 20
-213.64
 11
-137.05
 21
-213.6399999999999
  0
LINE
  5
DF
100
AcDbEntity
  8
Profile
  6
CONTINUOUS
 62
  174
370
   -1
100
AcDbLine
 10
-137.05
 20
-213.6399999999999
 11
-137.1900000000001
 21
-213.2799999999999
  0
LINE
  5
E0
100
AcDbEntity
  8
Profile
  6
CONTINUOUS
 62
  174
370
   -1
100
AcDbLine
 10
-136.5500000000001
 20
-212.6399999999999
 11
-137.1900000000001
 21
-213.2799999999999
  0
LINE
  5
E1
100
AcDbEntity
  8
Profile
  6
CONTINUOUS
 62
  174
370
   -1
100
AcDbLine
 10
-134.8500000000001
 20
-212.6399999999999
 11
-136.5500000000001
 21
-212.6399999999999
  0
LINE
  5
E2
100
AcDbEntity
  8
Profile
  6
CONTINUOUS
 62
  174
370
   -1
100
AcDbLine
 10
-134.8500000000001
 20
-212.6399999999999
 11
-134.8500000000001
 21
-213.1399999999999
  0
LINE
  5
E3
100
AcDbEntity
  8
Profile
  6
CONTINUOUS
 62
  174
370
   -1
100
AcDbLine
 10
-132.8500000000001
 20
-213.1399999999999
 11
-134.8500000000001
 21
-213.1399999999999
  0
LINE
  5
E4
100
AcDbEntity
  8
Profile
  6
CONTINUOUS
 62
  174
370
   -1
100
AcDbLine
 10
-132.8500000000001
 20
-213.1399999999999
 11
-132.8500000000001
 21
-213.9399999999999
  0
LINE
  5
E5
100
AcDbEntity
  8
Profile
  6
CONTINUOUS
 62
  174
370
   -1
100
AcDbLine
 10
-132.8500000000001
 20
-213.9399999999999
 11
-134.85
 21
-213.9399999999999
  0
LINE
  5
E6
100
AcDbEntity
  8
Profile
  6
CONTINUOUS
 62
  174
370
   -1
100
AcDbLine
 10
-134.85
 20
-213.9399999999999
 11
-134.8500000000001
 21
-215.64
  0
LINE
  5
E7
100
AcDbEntity
  8
Profile
  6
CONTINUOUS
 62
  174
370
   -1
100
AcDbLine
 10
-118.2500000000001
 20
-215.3399999999999
 11
-134.8500000000001
 21
-215.64
  0
LINE
  5
E8
100
AcDbEntity
  8
Profile
  6
CONTINUOUS
 62
  174
370
   -1
100
AcDbLine
 10
-118.2500000000001
 20
-213.64
 11
-118.2500000000001
 21
-215.3399999999999
  0
LINE
  5
E9
100
AcDbEntity
  8
Profile
  6
CONTINUOUS
 62
  174
370
   -1
100
AcDbLine
 10
-118.2500000000001
 20
-213.64
 11
-119.75
 21
-213.6399999999999
  0
LINE
  5
EA
100
AcDbEntity
  8
Profile
  6
CONTINUOUS
 62
  174
370
   -1
100
AcDbLine
 10
-119.7500000000001
 20
-212.84
 11
-119.75
 21
-213.6399999999999
  0
LINE
  5
EB
100
AcDbEntity
  8
Profile
  6
CONTINUOUS
 62
  174
370
   -1
100
AcDbLine
 10
-118.26
 20
-212.8399999999999
 11
-119.7500000000001
 21
-212.84
  0
LINE
  5
EC
100
AcDbEntity
  8
Profile
  6
CONTINUOUS
 62
  174
370
   -1
100
AcDbLine
 10
-118.25
 20
-201.32
 11
-118.26
 21
-212.8399999999999
  0
LINE
  5
ED
100
AcDbEntity
  8
Profile
  6
CONTINUOUS
 62
  174
370
   -1
100
AcDbLine
 10
-63.25000000000003
 20
-212.64
 11
-63.25000000000006
 21
-217.14
  0
LINE
  5
EE
100
AcDbEntity
  8
Profile
  6
CONTINUOUS
 62
  174
370
   -1
100
AcDbLine
 10
-63.25000000000006
 20
-217.14
 11
-145.2500000000001
 21
-217.1399999999999
  0
LINE
  5
EF
100
AcDbEntity
  8
Profile
  6
CONTINUOUS
 62
  174
370
   -1
100
AcDbLine
 10
-112.5500000000001
 20
-180.34
 11
-117.45
 21
-180.34
  0
LINE
  5
F0
100
AcDbEntity
  8
Profile
  6
CONTINUOUS
 62
  174
370
   -1
100
AcDbLine
 10
-117.4500000000001
 20
-190.94
 11
-112.5500000000001
 21
-190.94
  0
LINE
  5
F1
100
AcDbEntity
  8
Profile
  6
CONTINUOUS
 62
  174
370
   -1
100
AcDbLine
 10
-112.5500000000001
 20
-190.94
 11
-112.5500000000001
 21
-180.34
  0
LINE
  5
F2
100
AcDbEntity
  8
Profile
  6
CONTINUOUS
 62
  174
370
   -1
100
AcDbLine
 10
-117.45
 20
-180.34
 11
-117.4500000000001
 21
-190.94
  0
LINE
  5
F3
100
AcDbEntity
  8
Profile
  6
CONTINUOUS
 62
  174
370
   -1
100
AcDbLine
 10
-110.25
 20
-199.96
 11
-112.8
 21
-202.51
  0
LINE
  5
F4
100
AcDbEntity
  8
Profile
  6
CONTINUOUS
 62
  174
370
   -1
100
AcDbLine
 10
-112.8000000000001
 20
-203.3399999999999
 11
-111.9000000000001
 21
-204.8999999999999
  0
LINE
  5
F5
100
AcDbEntity
  8
Profile
  6
CONTINUOUS
 62
  174
370
   -1
100
AcDbLine
 10
-111.9000000000001
 20
-204.8999999999999
 11
-111.9
 21
-205.5899999999999
  0
LINE
  5
F6
100
AcDbEntity
  8
Profile
  6
CONTINUOUS
 62
  174
370
   -1
100
AcDbLine
 10
-111.9
 20
-205.5899999999999
 11
-116.0000000000001
 21
-205.5899999999999
  0
LINE
  5
F7
100
AcDbEntity
  8
Profile
  6
CONTINUOUS
 62
  174
370
   -1
100
AcDbLine
 10
-116.0000000000001
 20
-205.5899999999999
 11
-116.0000000000001
 21
-204.89
  0
LINE
  5
F8
100
AcDbEntity
  8
Profile
  6
CONTINUOUS
 62
  174
370
   -1
100
AcDbLine
 10
-116.0000000000001
 20
-204.89
 11
-115.1
 21
-203.33
  0
LINE
  5
F9
100
AcDbEntity
  8
Profile
  6
CONTINUOUS
 62
  174
370
   -1
100
AcDbLine
 10
-115.1
 20
-203.33
 11
-115.1000000000001
 21
-202.52
  0
LINE
  5
FA
100
AcDbEntity
  8
Profile
  6
CONTINUOUS
 62
  174
370
   -1
100
AcDbLine
 10
-115.1000000000001
 20
-202.52
 11
-118.2500000000001
 21
-199.3699999999999
  0
LINE
  5
FB
100
AcDbEntity
  8
Profile
  6
CONTINUOUS
 62
  174
370
   -1
100
AcDbLine
 10
-118.2500000000001
 20
-199.3699999999999
 11
-118.2500000000001
 21
-198.74
  0
LINE
  5
FC
100
AcDbEntity
  8
Profile
  6
CONTINUOUS
 62
  174
370
   -1
100
AcDbLine
 10
-118.2500000000001
 20
-198.74
 11
-121.25
 21
-198.74
  0
LINE
  5
FD
100
AcDbEntity
  8
Profile
  6
CONTINUOUS
 62
  174
370
   -1
100
AcDbLine
 10
-121.25
 20
-198.74
 11
-121.25
 21
-199.6399999999999
  0
LINE
  5
FE
100
AcDbEntity
  8
Profile
  6
CONTINUOUS
 62
  174
370
   -1
100
AcDbLine
 10
-121.25
 20
-199.6399999999999
 11
-121.6500000000001
 21
-199.6399999999999
  0
LINE
  5
FF
100
AcDbEntity
  8
Profile
  6
CONTINUOUS
 62
  174
370
   -1
100
AcDbLine
 10
-121.6500000000001
 20
-199.6399999999999
 11
-123.2500000000001
 21
-198.72
  0
LINE
  5
100
100
AcDbEntity
  8
Profile
  6
CONTINUOUS
 62
  174
370
   -1
100
AcDbLine
 10
-123.2500000000001
 20
-198.72
 11
-123.25
 21
-197.3699999999999
  0
LINE
  5
101
100
AcDbEntity
  8
Profile
  6
CONTINUOUS
 62
  174
370
   -1
100
AcDbLine
 10
-123.25
 20
-197.3699999999999
 11
-121.65
 21
-196.45
  0
LINE
  5
102
100
AcDbEntity
  8
Profile
  6
CONTINUOUS
 62
  174
370
   -1
100
AcDbLine
 10
-121.65
 20
-196.45
 11
-121.25
 21
-196.4499999999999
  0
LINE
  5
103
100
AcDbEntity
  8
Profile
  6
CONTINUOUS
 62
  174
370
   -1
100
AcDbLine
 10
-121.25
 20
-196.4499999999999
 11
-121.2500000000001
 21
-197.3499999999999
  0
LINE
  5
104
100
AcDbEntity
  8
Profile
  6
CONTINUOUS
 62
  174
370
   -1
100
AcDbLine
 10
-121.2500000000001
 20
-197.3499999999999
 11
-118.25
 21
-197.3499999999999
  0
LINE
  5
105
100
AcDbEntity
  8
Profile
  6
CONTINUOUS
 62
  174
370
   -1
100
AcDbLine
 10
-118.25
 20
-197.3499999999999
 11
-118.25
 21
-188.8499999999999
  0
LINE
  5
106
100
AcDbEntity
  8
Profile
  6
CONTINUOUS
 62
  174
370
   -1
100
AcDbLine
 10
-118.25
 20
-188.8499999999999
 11
-121.2500000000001
 21
-188.8499999999999
  0
LINE
  5
107
100
AcDbEntity
  8
Profile
  6
CONTINUOUS
 62
  174
370
   -1
100
AcDbLine
 10
-121.2500000000001
 20
-188.8499999999999
 11
-121.2500000000001
 21
-190.2499999999999
  0
LINE
  5
108
100
AcDbEntity
  8
Profile
  6
CONTINUOUS
 62
  174
370
   -1
100
AcDbLine
 10
-121.2500000000001
 20
-190.2499999999999
 11
-121.65
 21
-190.2499999999999
  0
LINE
  5
109
100
AcDbEntity
  8
Profile
  6
CONTINUOUS
 62
  174
370
   -1
100
AcDbLine
 10
-121.65
 20
-190.2499999999999
 11
-123.2500000000001
 21
-189.33
  0
LINE
  5
10A
100
AcDbEntity
  8
Profile
  6
CONTINUOUS
 62
  174
370
   -1
100
AcDbLine
 10
-123.2500000000001
 20
-189.33
 11
-123.2500000000001
 21
-186.9799999999999
  0
LINE
  5
10B
100
AcDbEntity
  8
Profile
  6
CONTINUOUS
 62
  174
370
   -1
100
AcDbLine
 10
-123.2500000000001
 20
-186.9799999999999
 11
-121.65
 21
-186.06
  0
LINE
  5
10C
100
AcDbEntity
  8
Profile
  6
CONTINUOUS
 62
  174
370
   -1
100
AcDbLine
 10
-121.65
 20
-186.06
 11
-121.2500000000001
 21
-186.06
  0
LINE
  5
10D
100
AcDbEntity
  8
Profile
  6
CONTINUOUS
 62
  174
370
   -1
100
AcDbLine
 10
-121.2500000000001
 20
-186.06
 11
-121.2500000000001
 21
-187.46
  0
LINE
  5
10E
100
AcDbEntity
  8
Profile
  6
CONTINUOUS
 62
  174
370
   -1
100
AcDbLine
 10
-121.2500000000001
 20
-187.46
 11
-118.2500000000001
 21
-187.46
  0
LINE
  5
10F
100
AcDbEntity
  8
Profile
  6
CONTINUOUS
 62
  174
370
   -1
100
AcDbLine
 10
-118.2500000000001
 20
-187.46
 11
-118.25
 21
-178.96
  0
LINE
  5
110
100
AcDbEntity
  8
Profile
  6
CONTINUOUS
 62
  174
370
   -1
100
AcDbLine
 10
-118.25
 20
-178.96
 11
-121.25
 21
-178.96
  0
LINE
  5
111
100
AcDbEntity
  8
Profile
  6
CONTINUOUS
 62
  174
370
   -1
100
AcDbLine
 10
-121.25
 20
-178.96
 11
-121.2500000000001
 21
-179.8599999999999
  0
LINE
  5
112
100
AcDbEntity
  8
Profile
  6
CONTINUOUS
 62
  174
370
   -1
100
AcDbLine
 10
-121.2500000000001
 20
-179.8599999999999
 11
-121.6500000000001
 21
-179.86
  0
LINE
  5
113
100
AcDbEntity
  8
Profile
  6
CONTINUOUS
 62
  174
370
   -1
100
AcDbLine
 10
-121.6500000000001
 20
-179.86
 11
-123.25
 21
-178.94
  0
LINE
  5
114
100
AcDbEntity
  8
Profile
  6
CONTINUOUS
 62
  174
370
   -1
100
AcDbLine
 10
-123.25
 20
-178.94
 11
-123.2500000000001
 21
-177.5899999999999
  0
LINE
  5
115
100
AcDbEntity
  8
Profile
  6
CONTINUOUS
 62
  174
370
   -1
100
AcDbLine
 10
-123.2500000000001
 20
-177.5899999999999
 11
-121.65
 21
-176.6699999999999
  0
LINE
  5
116
100
AcDbEntity
  8
Profile
  6
CONTINUOUS
 62
  174
370
   -1
100
AcDbLine
 10
-121.65
 20
-176.6699999999999
 11
-121.2500000000001
 21
-176.6699999999999
  0
LINE
  5
117
100
AcDbEntity
  8
Profile
  6
CONTINUOUS
 62
  174
370
   -1
100
AcDbLine
 10
-121.2500000000001
 20
-176.6699999999999
 11
-121.2500000000001
 21
-177.5699999999999
  0
LINE
  5
118
100
AcDbEntity
  8
Profile
  6
CONTINUOUS
 62
  174
370
   -1
100
AcDbLine
 10
-121.2500000000001
 20
-177.5699999999999
 11
-118.2500000000001
 21
-177.57
  0
LINE
  5
119
100
AcDbEntity
  8
Profile
  6
CONTINUOUS
 62
  174
370
   -1
100
AcDbLine
 10
-118.2500000000001
 20
-177.57
 11
-118.25
 21
-171.9399999999999
  0
LINE
  5
11A
100
AcDbEntity
  8
Profile
  6
CONTINUOUS
 62
  174
370
   -1
100
AcDbLine
 10
-118.25
 20
-171.9399999999999
 11
-115.1000000000001
 21
-168.7899999999999
  0
LINE
  5
11B
100
AcDbEntity
  8
Profile
  6
CONTINUOUS
 62
  174
370
   -1
100
AcDbLine
 10
-115.1000000000001
 20
-168.7899999999999
 11
-115.1
 21
-167.9799999999999
  0
LINE
  5
11C
100
AcDbEntity
  8
Profile
  6
CONTINUOUS
 62
  174
370
   -1
100
AcDbLine
 10
-115.1
 20
-167.9799999999999
 11
-116
 21
-166.42
  0
LINE
  5
11D
100
AcDbEntity
  8
Profile
  6
CONTINUOUS
 62
  174
370
   -1
100
AcDbLine
 10
-116
 20
-166.42
 11
-116.0000000000001
 21
-165.7199999999999
  0
LINE
  5
11E
100
AcDbEntity
  8
Profile
  6
CONTINUOUS
 62
  174
370
   -1
100
AcDbLine
 10
-116.0000000000001
 20
-165.7199999999999
 11
-111.9
 21
-165.7199999999999
  0
LINE
  5
11F
100
AcDbEntity
  8
Profile
  6
CONTINUOUS
 62
  174
370
   -1
100
AcDbLine
 10
-111.9
 20
-165.7199999999999
 11
-111.9000000000001
 21
-166.41
  0
LINE
  5
120
100
AcDbEntity
  8
Profile
  6
CONTINUOUS
 62
  174
370
   -1
100
AcDbLine
 10
-111.9000000000001
 20
-166.41
 11
-112.8
 21
-167.9699999999999
  0
LINE
  5
121
100
AcDbEntity
  8
Profile
  6
CONTINUOUS
 62
  174
370
   -1
100
AcDbLine
 10
-112.8
 20
-167.9699999999999
 11
-112.8
 21
-168.8
  0
LINE
  5
122
100
AcDbEntity
  8
Profile
  6
CONTINUOUS
 62
  174
370
   -1
100
AcDbLine
 10
-112.8
 20
-168.8
 11
-110.2500000000001
 21
-171.3499999999999
  0
LINE
  5
123
100
AcDbEntity
  8
Profile
  6
CONTINUOUS
 62
  174
370
   -1
100
AcDbLine
 10
-110.2500000000001
 20
-171.3499999999999
 11
-110.2500000000001
 21
-171.7799999999999
  0
LINE
  5
124
100
AcDbEntity
  8
Profile
  6
CONTINUOUS
 62
  174
370
   -1
100
AcDbLine
 10
-110.2500000000001
 20
-171.7799999999999
 11
-111.75
 21
-171.78
  0
LINE
  5
125
100
AcDbEntity
  8
Profile
  6
CONTINUOUS
 62
  174
370
   -1
100
AcDbLine
 10
-111.75
 20
-171.78
 11
-111.7500000000001
 21
-179.4799999999999
  0
LINE
  5
126
100
AcDbEntity
  8
Profile
  6
CONTINUOUS
 62
  174
370
   -1
100
AcDbLine
 10
-111.7500000000001
 20
-179.4799999999999
 11
-110.2500000000001
 21
-179.4799999999999
  0
LINE
  5
127
100
AcDbEntity
  8
Profile
  6
CONTINUOUS
 62
  174
370
   -1
100
AcDbLine
 10
-110.2500000000001
 20
-179.4799999999999
 11
-110.2500000000001
 21
-180.28
  0
LINE
  5
128
100
AcDbEntity
  8
Profile
  6
CONTINUOUS
 62
  174
370
   -1
100
AcDbLine
 10
-110.2500000000001
 20
-180.28
 11
-111.7500000000001
 21
-180.2799999999999
  0
LINE
  5
129
100
AcDbEntity
  8
Profile
  6
CONTINUOUS
 62
  174
370
   -1
100
AcDbLine
 10
-111.7500000000001
 20
-180.2799999999999
 11
-111.7500000000001
 21
-191.08
  0
LINE
  5
12A
100
AcDbEntity
  8
Profile
  6
CONTINUOUS
 62
  174
370
   -1
100
AcDbLine
 10
-111.7500000000001
 20
-191.08
 11
-110.2500000000001
 21
-191.08
  0
LINE
  5
12B
100
AcDbEntity
  8
Profile
  6
CONTINUOUS
 62
  174
370
   -1
100
AcDbLine
 10
-110.2500000000001
 20
-191.08
 11
-110.2500000000001
 21
-191.8799999999999
  0
LINE
  5
12C
100
AcDbEntity
  8
Profile
  6
CONTINUOUS
 62
  174
370
   -1
100
AcDbLine
 10
-110.2500000000001
 20
-191.8799999999999
 11
-111.7500000000001
 21
-191.8799999999999
  0
LINE
  5
12D
100
AcDbEntity
  8
Profile
  6
CONTINUOUS
 62
  174
370
   -1
100
AcDbLine
 10
-111.7500000000001
 20
-191.8799999999999
 11
-111.7500000000001
 21
-199.58
  0
LINE
  5
12E
100
AcDbEntity
  8
Profile
  6
CONTINUOUS
 62
  174
370
   -1
100
AcDbLine
 10
-111.7500000000001
 20
-199.58
 11
-110.2500000000001
 21
-199.58
  0
LINE
  5
12F
100
AcDbEntity
  8
Profile
  6
CONTINUOUS
 62
  174
370
   -1
100
AcDbLine
 10
-110.2500000000001
 20
-199.58
 11
-110.2500000000001
 21
-200.0099999999999
  0
LINE
  5
130
100
AcDbEntity
  8
Profile
  6
CONTINUOUS
 62
  174
370
   -1
100
AcDbLine
 10
-112.8
 20
-202.51
 11
-112.8000000000001
 21
-203.3399999999999
  0
LINE
  5
131
100
AcDbEntity
  8
Profile
  6
CONTINUOUS
 62
  174
370
   -1
100
AcDbLine
 10
-117.4500000000001
 20
-199.1
 11
-114.1600000000001
 21
-202.3899999999999
  0
LINE
  5
132
100
AcDbEntity
  8
Profile
  6
CONTINUOUS
 62
  174
370
   -1
100
AcDbLine
 10
-113.7500000000001
 20
-202.3899999999999
 11
-112.5600000000001
 21
-201.2
  0
LINE
  5
133
100
AcDbEntity
  8
Profile
  6
CONTINUOUS
 62
  174
370
   -1
100
AcDbLine
 10
-112.5600000000001
 20
-201.2
 11
-112.5600000000001
 21
-191.93
  0
LINE
  5
134
100
AcDbEntity
  8
Profile
  6
CONTINUOUS
 62
  174
370
   -1
100
AcDbLine
 10
-112.5600000000001
 20
-191.93
 11
-117.4600000000001
 21
-191.9299999999999
  0
LINE
  5
135
100
AcDbEntity
  8
Profile
  6
CONTINUOUS
 62
  174
370
   -1
100
AcDbLine
 10
-117.4600000000001
 20
-191.9299999999999
 11
-117.4600000000001
 21
-199.1
  0
LINE
  5
136
100
AcDbEntity
  8
Profile
  6
CONTINUOUS
 62
  174
370
   -1
100
AcDbLine
 10
-114.1600000000001
 20
-202.3899999999999
 11
-113.7500000000001
 21
-202.3899999999999
  0
LINE
  5
137
100
AcDbEntity
  8
Profile
  6
CONTINUOUS
 62
  174
370
   -1
100
AcDbLine
 10
-113.74
 20
-168.87
 11
-112.55
 21
-170.06
  0
LINE
  5
138
100
AcDbEntity
  8
Profile
  6
CONTINUOUS
 62
  174
370
   -1
100
AcDbLine
 10
-112.5500000000001
 20
-179.33
 11
-117.45
 21
-179.33
  0
LINE
  5
139
100
AcDbEntity
  8
Profile
  6
CONTINUOUS
 62
  174
370
   -1
100
AcDbLine
 10
-117.45
 20
-179.33
 11
-117.45
 21
-172.1599999999999
  0
LINE
  5
13A
100
AcDbEntity
  8
Profile
  6
CONTINUOUS
 62
  174
370
   -1
100
AcDbLine
 10
-117.45
 20
-172.1599999999999
 11
-114.16
 21
-168.87
  0
LINE
  5
13B
100
AcDbEntity
  8
Profile
  6
CONTINUOUS
 62
  174
370
   -1
100
AcDbLine
 10
-114.16
 20
-168.87
 11
-113.75
 21
-168.87
  0
LINE
  5
13C
100
AcDbEntity
  8
Profile
  6
CONTINUOUS
 62
  174
370
   -1
100
AcDbLine
 10
-112.55
 20
-170.06
 11
-112.5500000000001
 21
-179.33
  0
LINE
  5
13D
100
AcDbEntity
  8
Profile
  6
CONTINUOUS
 62
  174
370
   -1
100
AcDbLine
 10
-95.96000000000002
 20
-180.34
 11
-91.06000000000003
 21
-180.34
  0
LINE
  5
13E
100
AcDbEntity
  8
Profile
  6
CONTINUOUS
 62
  174
370
   -1
100
AcDbLine
 10
-91.06000000000009
 20
-190.94
 11
-95.96000000000008
 21
-190.94
  0
LINE
  5
13F
100
AcDbEntity
  8
Profile
  6
CONTINUOUS
 62
  174
370
   -1
100
AcDbLine
 10
-95.96000000000008
 20
-190.94
 11
-95.96000000000002
 21
-180.34
  0
LINE
  5
140
100
AcDbEntity
  8
Profile
  6
CONTINUOUS
 62
  174
370
   -1
100
AcDbLine
 10
-91.06000000000003
 20
-180.34
 11
-91.06000000000009
 21
-190.94
  0
LINE
  5
141
100
AcDbEntity
  8
Profile
  6
CONTINUOUS
 62
  174
370
   -1
100
AcDbLine
 10
-98.26000000000005
 20
-199.96
 11
-95.71000000000001
 21
-202.5099999999999
  0
LINE
  5
142
100
AcDbEntity
  8
Profile
  6
CONTINUOUS
 62
  174
370
   -1
100
AcDbLine
 10
-95.71000000000005
 20
-203.3399999999999
 11
-96.61000000000007
 21
-204.8999999999999
  0
LINE
  5
143
100
AcDbEntity
  8
Profile
  6
CONTINUOUS
 62
  174
370
   -1
100
AcDbLine
 10
-96.61000000000007
 20
-204.8999999999999
 11
-96.61000000000004
 21
-205.59
  0
LINE
  5
144
100
AcDbEntity
  8
Profile
  6
CONTINUOUS
 62
  174
370
   -1
100
AcDbLine
 10
-96.61000000000004
 20
-205.59
 11
-92.51000000000005
 21
-205.5899999999999
  0
LINE
  5
145
100
AcDbEntity
  8
Profile
  6
CONTINUOUS
 62
  174
370
   -1
100
AcDbLine
 10
-92.51000000000005
 20
-205.5899999999999
 11
-92.51000000000005
 21
-204.89
  0
LINE
  5
146
100
AcDbEntity
  8
Profile
  6
CONTINUOUS
 62
  174
370
   -1
100
AcDbLine
 10
-92.51000000000005
 20
-204.89
 11
-93.41000000000008
 21
-203.33
  0
LINE
  5
147
100
AcDbEntity
  8
Profile
  6
CONTINUOUS
 62
  174
370
   -1
100
AcDbLine
 10
-93.41000000000008
 20
-203.33
 11
-93.41000000000005
 21
-202.5199999999999
  0
LINE
  5
148
100
AcDbEntity
  8
Profile
  6
CONTINUOUS
 62
  174
370
   -1
100
AcDbLine
 10
-93.41000000000005
 20
-202.5199999999999
 11
-90.26000000000009
 21
-199.37
  0
LINE
  5
149
100
AcDbEntity
  8
Profile
  6
CONTINUOUS
 62
  174
370
   -1
100
AcDbLine
 10
-90.26000000000009
 20
-199.37
 11
-90.26000000000008
 21
-198.74
  0
LINE
  5
14A
100
AcDbEntity
  8
Profile
  6
CONTINUOUS
 62
  174
370
   -1
100
AcDbLine
 10
-90.26000000000008
 20
-198.74
 11
-87.26000000000006
 21
-198.74
  0
LINE
  5
14B
100
AcDbEntity
  8
Profile
  6
CONTINUOUS
 62
  174
370
   -1
100
AcDbLine
 10
-87.26000000000006
 20
-198.74
 11
-87.26000000000006
 21
-199.64
  0
LINE
  5
14C
100
AcDbEntity
  8
Profile
  6
CONTINUOUS
 62
  174
370
   -1
100
AcDbLine
 10
-87.26000000000006
 20
-199.64
 11
-86.86000000000004
 21
-199.6399999999999
  0
LINE
  5
14D
100
AcDbEntity
  8
Profile
  6
CONTINUOUS
 62
  174
370
   -1
100
AcDbLine
 10
-86.86000000000004
 20
-199.6399999999999
 11
-85.26000000000008
 21
-198.72
  0
LINE
  5
14E
100
AcDbEntity
  8
Profile
  6
CONTINUOUS
 62
  174
370
   -1
100
AcDbLine
 10
-85.26000000000008
 20
-198.72
 11
-85.26000000000005
 21
-197.37
  0
LINE
  5
14F
100
AcDbEntity
  8
Profile
  6
CONTINUOUS
 62
  174
370
   -1
100
AcDbLine
 10
-85.26000000000005
 20
-197.37
 11
-86.86000000000004
 21
-196.4499999999999
  0
LINE
  5
150
100
AcDbEntity
  8
Profile
  6
CONTINUOUS
 62
  174
370
   -1
100
AcDbLine
 10
-86.86000000000004
 20
-196.4499999999999
 11
-87.26000000000006
 21
-196.45
  0
LINE
  5
151
100
AcDbEntity
  8
Profile
  6
CONTINUOUS
 62
  174
370
   -1
100
AcDbLine
 10
-87.26000000000006
 20
-196.45
 11
-87.26000000000008
 21
-197.35
  0
LINE
  5
152
100
AcDbEntity
  8
Profile
  6
CONTINUOUS
 62
  174
370
   -1
100
AcDbLine
 10
-87.26000000000008
 20
-197.35
 11
-90.26000000000005
 21
-197.35
  0
LINE
  5
153
100
AcDbEntity
  8
Profile
  6
CONTINUOUS
 62
  174
370
   -1
100
AcDbLine
 10
-90.26000000000005
 20
-197.35
 11
-90.26000000000008
 21
-188.85
  0
LINE
  5
154
100
AcDbEntity
  8
Profile
  6
CONTINUOUS
 62
  174
370
   -1
100
AcDbLine
 10
-90.26000000000008
 20
-188.85
 11
-87.2600000000001
 21
-188.85
  0
LINE
  5
155
100
AcDbEntity
  8
Profile
  6
CONTINUOUS
 62
  174
370
   -1
100
AcDbLine
 10
-87.2600000000001
 20
-188.85
 11
-87.26000000000002
 21
-190.25
  0
LINE
  5
156
100
AcDbEntity
  8
Profile
  6
CONTINUOUS
 62
  174
370
   -1
100
AcDbLine
 10
-87.26000000000002
 20
-190.25
 11
-86.86000000000004
 21
-190.2499999999999
  0
LINE
  5
157
100
AcDbEntity
  8
Profile
  6
CONTINUOUS
 62
  174
370
   -1
100
AcDbLine
 10
-86.86000000000004
 20
-190.2499999999999
 11
-85.26000000000005
 21
-189.33
  0
LINE
  5
158
100
AcDbEntity
  8
Profile
  6
CONTINUOUS
 62
  174
370
   -1
100
AcDbLine
 10
-85.26000000000005
 20
-189.33
 11
-85.26000000000005
 21
-186.9799999999999
  0
LINE
  5
159
100
AcDbEntity
  8
Profile
  6
CONTINUOUS
 62
  174
370
   -1
100
AcDbLine
 10
-85.26000000000005
 20
-186.9799999999999
 11
-86.86000000000001
 21
-186.06
  0
LINE
  5
15A
100
AcDbEntity
  8
Profile
  6
CONTINUOUS
 62
  174
370
   -1
100
AcDbLine
 10
-86.86000000000001
 20
-186.06
 11
-87.26000000000002
 21
-186.0599999999999
  0
LINE
  5
15B
100
AcDbEntity
  8
Profile
  6
CONTINUOUS
 62
  174
370
   -1
100
AcDbLine
 10
-87.26000000000002
 20
-186.0599999999999
 11
-87.26000000000006
 21
-187.46
  0
LINE
  5
15C
100
AcDbEntity
  8
Profile
  6
CONTINUOUS
 62
  174
370
   -1
100
AcDbLine
 10
-87.26000000000006
 20
-187.46
 11
-90.26000000000008
 21
-187.46
  0
LINE
  5
15D
100
AcDbEntity
  8
Profile
  6
CONTINUOUS
 62
  174
370
   -1
100
AcDbLine
 10
-90.26000000000008
 20
-187.46
 11
-90.26000000000005
 21
-178.96
  0
LINE
  5
15E
100
AcDbEntity
  8
Profile
  6
CONTINUOUS
 62
  174
370
   -1
100
AcDbLine
 10
-90.26000000000005
 20
-178.96
 11
-87.26000000000005
 21
-178.96
  0
LINE
  5
15F
100
AcDbEntity
  8
Profile
  6
CONTINUOUS
 62
  174
370
   -1
100
AcDbLine
 10
-87.26000000000005
 20
-178.96
 11
-87.26000000000008
 21
-179.86
  0
LINE
  5
160
100
AcDbEntity
  8
Profile
  6
CONTINUOUS
 62
  174
370
   -1
100
AcDbLine
 10
-87.26000000000008
 20
-179.86
 11
-86.86000000000004
 21
-179.86
  0
LINE
  5
161
100
AcDbEntity
  8
Profile
  6
CONTINUOUS
 62
  174
370
   -1
100
AcDbLine
 10
-86.86000000000004
 20
-179.86
 11
-85.26000000000008
 21
-178.9399999999999
  0
LINE
  5
162
100
AcDbEntity
  8
Profile
  6
CONTINUOUS
 62
  174
370
   -1
100
AcDbLine
 10
-85.26000000000008
 20
-178.9399999999999
 11
-85.26000000000006
 21
-177.5899999999999
  0
LINE
  5
163
100
AcDbEntity
  8
Profile
  6
CONTINUOUS
 62
  174
370
   -1
100
AcDbLine
 10
-85.26000000000006
 20
-177.5899999999999
 11
-86.86000000000007
 21
-176.6699999999999
  0
LINE
  5
164
100
AcDbEntity
  8
Profile
  6
CONTINUOUS
 62
  174
370
   -1
100
AcDbLine
 10
-86.86000000000007
 20
-176.6699999999999
 11
-87.26000000000005
 21
-176.6699999999999
  0
LINE
  5
165
100
AcDbEntity
  8
Profile
  6
CONTINUOUS
 62
  174
370
   -1
100
AcDbLine
 10
-87.26000000000005
 20
-176.6699999999999
 11
-87.26000000000006
 21
-177.57
  0
LINE
  5
166
100
AcDbEntity
  8
Profile
  6
CONTINUOUS
 62
  174
370
   -1
100
AcDbLine
 10
-87.26000000000006
 20
-177.57
 11
-90.26000000000005
 21
-177.57
  0
LINE
  5
167
100
AcDbEntity
  8
Profile
  6
CONTINUOUS
 62
  174
370
   -1
100
AcDbLine
 10
-90.26000000000005
 20
-177.57
 11
-90.26000000000005
 21
-171.94
  0
LINE
  5
168
100
AcDbEntity
  8
Profile
  6
CONTINUOUS
 62
  174
370
   -1
100
AcDbLine
 10
-90.26000000000005
 20
-171.94
 11
-93.41000000000003
 21
-168.79
  0
LINE
  5
169
100
AcDbEntity
  8
Profile
  6
CONTINUOUS
 62
  174
370
   -1
100
AcDbLine
 10
-93.41000000000003
 20
-168.79
 11
-93.41000000000003
 21
-167.9799999999999
  0
LINE
  5
16A
100
AcDbEntity
  8
Profile
  6
CONTINUOUS
 62
  174
370
   -1
100
AcDbLine
 10
-93.41000000000003
 20
-167.9799999999999
 11
-92.51000000000003
 21
-166.42
  0
LINE
  5
16B
100
AcDbEntity
  8
Profile
  6
CONTINUOUS
 62
  174
370
   -1
100
AcDbLine
 10
-92.51000000000003
 20
-166.42
 11
-92.51000000000008
 21
-165.72
  0
LINE
  5
16C
100
AcDbEntity
  8
Profile
  6
CONTINUOUS
 62
  174
370
   -1
100
AcDbLine
 10
-92.51000000000008
 20
-165.72
 11
-96.61000000000007
 21
-165.72
  0
LINE
  5
16D
100
AcDbEntity
  8
Profile
  6
CONTINUOUS
 62
  174
370
   -1
100
AcDbLine
 10
-96.61000000000007
 20
-165.72
 11
-96.61000000000004
 21
-166.41
  0
LINE
  5
16E
100
AcDbEntity
  8
Profile
  6
CONTINUOUS
 62
  174
370
   -1
100
AcDbLine
 10
-96.61000000000004
 20
-166.41
 11
-95.71000000000004
 21
-167.97
  0
LINE
  5
16F
100
AcDbEntity
  8
Profile
  6
CONTINUOUS
 62
  174
370
   -1
100
AcDbLine
 10
-95.71000000000004
 20
-167.97
 11
-95.71000000000005
 21
-168.8
  0
LINE
  5
170
100
AcDbEntity
  8
Profile
  6
CONTINUOUS
 62
  174
370
   -1
100
AcDbLine
 10
-95.71000000000005
 20
-168.8
 11
-98.26000000000005
 21
-171.3499999999999
  0
LINE
  5
171
100
AcDbEntity
  8
Profile
  6
CONTINUOUS
 62
  174
370
   -1
100
AcDbLine
 10
-98.26000000000005
 20
-171.3499999999999
 11
-98.26000000000005
 21
-171.7799999999999
  0
LINE
  5
172
100
AcDbEntity
  8
Profile
  6
CONTINUOUS
 62
  174
370
   -1
100
AcDbLine
 10
-98.26000000000005
 20
-171.7799999999999
 11
-96.76000000000005
 21
-171.7799999999999
  0
LINE
  5
173
100
AcDbEntity
  8
Profile
  6
CONTINUOUS
 62
  174
370
   -1
100
AcDbLine
 10
-96.76000000000005
 20
-171.7799999999999
 11
-96.76000000000009
 21
-179.48
  0
LINE
  5
174
100
AcDbEntity
  8
Profile
  6
CONTINUOUS
 62
  174
370
   -1
100
AcDbLine
 10
-96.76000000000009
 20
-179.48
 11
-98.26000000000002
 21
-179.4799999999999
  0
LINE
  5
175
100
AcDbEntity
  8
Profile
  6
CONTINUOUS
 62
  174
370
   -1
100
AcDbLine
 10
-98.26000000000002
 20
-179.4799999999999
 11
-98.26000000000005
 21
-180.2799999999999
  0
LINE
  5
176
100
AcDbEntity
  8
Profile
  6
CONTINUOUS
 62
  174
370
   -1
100
AcDbLine
 10
-98.26000000000005
 20
-180.2799999999999
 11
-96.76000000000005
 21
-180.2799999999999
  0
LINE
  5
177
100
AcDbEntity
  8
Profile
  6
CONTINUOUS
 62
  174
370
   -1
100
AcDbLine
 10
-96.76000000000005
 20
-180.2799999999999
 11
-96.76000000000005
 21
-191.08
  0
LINE
  5
178
100
AcDbEntity
  8
Profile
  6
CONTINUOUS
 62
  174
370
   -1
100
AcDbLine
 10
-96.76000000000005
 20
-191.08
 11
-98.26000000000003
 21
-191.08
  0
LINE
  5
179
100
AcDbEntity
  8
Profile
  6
CONTINUOUS
 62
  174
370
   -1
100
AcDbLine
 10
-98.26000000000003
 20
-191.08
 11
-98.26000000000003
 21
-191.88
  0
LINE
  5
17A
100
AcDbEntity
  8
Profile
  6
CONTINUOUS
 62
  174
370
   -1
100
AcDbLine
 10
-98.26000000000003
 20
-191.88
 11
-96.76000000000005
 21
-191.8799999999999
  0
LINE
  5
17B
100
AcDbEntity
  8
Profile
  6
CONTINUOUS
 62
  174
370
   -1
100
AcDbLine
 10
-96.76000000000005
 20
-191.8799999999999
 11
-96.76000000000006
 21
-199.58
  0
LINE
  5
17C
100
AcDbEntity
  8
Profile
  6
CONTINUOUS
 62
  174
370
   -1
100
AcDbLine
 10
-96.76000000000006
 20
-199.58
 11
-98.26000000000006
 21
-199.58
  0
LINE
  5
17D
100
AcDbEntity
  8
Profile
  6
CONTINUOUS
 62
  174
370
   -1
100
AcDbLine
 10
-98.26000000000006
 20
-199.58
 11
-98.26000000000006
 21
-200.01
  0
LINE
  5
17E
100
AcDbEntity
  8
Profile
  6
CONTINUOUS
 62
  174
370
   -1
100
AcDbLine
 10
-95.71000000000001
 20
-202.5099999999999
 11
-95.71000000000005
 21
-203.3399999999999
  0
LINE
  5
17F
100
AcDbEntity
  8
Profile
  6
CONTINUOUS
 62
  174
370
   -1
100
AcDbLine
 10
-91.06000000000006
 20
-199.1
 11
-94.35000000000005
 21
-202.3899999999999
  0
LINE
  5
180
100
AcDbEntity
  8
Profile
  6
CONTINUOUS
 62
  174
370
   -1
100
AcDbLine
 10
-94.76000000000009
 20
-202.3899999999999
 11
-95.95000000000005
 21
-201.1999999999999
  0
LINE
  5
181
100
AcDbEntity
  8
Profile
  6
CONTINUOUS
 62
  174
370
   -1
100
AcDbLine
 10
-95.95000000000005
 20
-201.1999999999999
 11
-95.95000000000007
 21
-191.9299999999999
  0
LINE
  5
182
100
AcDbEntity
  8
Profile
  6
CONTINUOUS
 62
  174
370
   -1
100
AcDbLine
 10
-95.95000000000007
 20
-191.9299999999999
 11
-91.05000000000007
 21
-191.93
  0
LINE
  5
183
100
AcDbEntity
  8
Profile
  6
CONTINUOUS
 62
  174
370
   -1
100
AcDbLine
 10
-91.05000000000007
 20
-191.93
 11
-91.05000000000007
 21
-199.0999999999999
  0
LINE
  5
184
100
AcDbEntity
  8
Profile
  6
CONTINUOUS
 62
  174
370
   -1
100
AcDbLine
 10
-94.35000000000005
 20
-202.3899999999999
 11
-94.76000000000009
 21
-202.3899999999999
  0
LINE
  5
185
100
AcDbEntity
  8
Profile
  6
CONTINUOUS
 62
  174
370
   -1
100
AcDbLine
 10
-94.76000000000006
 20
-168.87
 11
-95.95000000000006
 21
-170.06
  0
LINE
  5
186
100
AcDbEntity
  8
Profile
  6
CONTINUOUS
 62
  174
370
   -1
100
AcDbLine
 10
-95.95000000000005
 20
-179.33
 11
-91.05000000000007
 21
-179.33
  0
LINE
  5
187
100
AcDbEntity
  8
Profile
  6
CONTINUOUS
 62
  174
370
   -1
100
AcDbLine
 10
-91.05000000000007
 20
-179.33
 11
-91.05000000000007
 21
-172.1599999999999
  0
LINE
  5
188
100
AcDbEntity
  8
Profile
  6
CONTINUOUS
 62
  174
370
   -1
100
AcDbLine
 10
-91.05000000000007
 20
-172.1599999999999
 11
-94.34000000000005
 21
-168.87
  0
LINE
  5
189
100
AcDbEntity
  8
Profile
  6
CONTINUOUS
 62
  174
370
   -1
100
AcDbLine
 10
-94.34000000000005
 20
-168.87
 11
-94.75000000000006
 21
-168.87
  0
LINE
  5
18A
100
AcDbEntity
  8
Profile
  6
CONTINUOUS
 62
  174
370
   -1
100
AcDbLine
 10
-95.95000000000006
 20
-170.06
 11
-95.95000000000005
 21
-179.33
  0
ENDSEC
  0
SECTION
  2
OBJECTS
  0
DICTIONARY
  5
C
330
0
100
AcDbDictionary
281
    1
  3
ACAD_GROUP
350
D
  0
DICTIONARY
  5
D
330
C
100
AcDbDictionary
281
    1
  0
PLOTSETTINGS
  5
18B
100
AcDbPlotSettings
  6
1x1
 40
0
 41
0
 42
0
 43
0
  0
ENDSEC
  0
EOF
