999
dxfrw 0.6.3
  0
SECTION
  2
HEADER
  9
$ACADVER
  1
AC1021
  9
$DWGCODEPAGE
  3
ANSI_1252
  9
$INSBASE
 10
0
 20
0
 30
0
  9
$EXTMIN
 10
-85
 20
-97.00001
 30
0
  9
$EXTMAX
 10
1.4210854715202e-14
 20
-1.953992523340276e-14
 30
0
  9
$LIMMIN
 10
0
 20
0
  9
$LIMMAX
 10
85
 20
97.00001
  9
$ORTHOMODE
 70
    0
  9
$REGENMODE
 70
    1
  9
$FILLMODE
 70
    1
  9
$QTEXTMODE
 70
    0
  9
$MIRRTEXT
 70
    1
  9
$LTSCALE
 40
1
  9
$ATTMODE
 70
    1
  9
$TEXTSIZE
 40
0.2
  9
$TRACEWID
 40
0.05
  9
$TEXTSTYLE
  7
Standard
  9
$CLAYER
  8
0
  9
$CELTYPE
  6
CONTINUOUS
  9
$CECOLOR
 62
  256
  9
$CELTSCALE
 40
1
  9
$DISPSILH
 70
    0
  9
$DIMSCALE
 40
1
  9
$DIMASZ
 40
0.18
  9
$DIMEXO
 40
0.0625
  9
$DIMDLI
 40
0.38
  9
$DIMRND
 40
0
  9
$DIMDLE
 40
0
  9
$DIMEXE
 40
0.18
  9
$DIMTP
 40
0
  9
$DIMTM
 40
0
  9
$DIMTXT
 40
0.18
  9
$DIMCEN
 40
0.09
  9
$DIMTSZ
 40
0
  9
$DIMTOL
 70
    0
  9
$DIMLIM
 70
    0
  9
$DIMTIH
 70
    1
  9
$DIMTOH
 70
    1
  9
$DIMSE1
 70
    0
  9
$DIMSE2
 70
    0
  9
$DIMTAD
 70
    0
  9
$DIMZIN
 70
    0
  9
$DIMBLK
  1

  9
$DIMASO
 70
    1
  9
$DIMSHO
 70
    1
  9
$DIMPOST
  1

  9
$DIMAPOST
  1

  9
$DIMALT
 70
    0
  9
$DIMALTD
 70
    2
  9
$DIMALTF
 40
1
  9
$DIMLFAC
 40
1
  9
$DIMTOFL
 70
    0
  9
$DIMTVP
 40
0
  9
$DIMTIX
 70
    0
  9
$DIMSOXD
 70
    0
  9
$DIMSAH
 70
    0
  9
$DIMBLK1
  1

  9
$DIMBLK2
  1

  9
$DIMSTYLE
  2
Standard
  9
$DIMCLRD
 70
    0
  9
$DIMCLRE
 70
    0
  9
$DIMCLRT
 70
    0
  9
$DIMTFAC
 40
1
  9
$DIMGAP
 40
0.09
  9
$DIMJUST
 70
    0
  9
$DIMSD1
 70
    0
  9
$DIMSD2
 70
    0
  9
$DIMTOLJ
 70
    0
  9
$DIMTZIN
 70
    8
  9
$DIMALTZ
 70
    0
  9
$DIMALTTZ
 70
    0
  9
$DIMUPT
 70
    0
  9
$DIMDEC
 70
    4
  9
$DIMTDEC
 70
    2
  9
$DIMALTU
 70
    2
  9
$DIMALTTD
 70
    3
  9
$DIMTXSTY
  7
STANDARD
  9
$DIMAUNIT
 70
    0
  9
$DIMADEC
 70
    0
  9
$DIMALTRND
 40
0
  9
$DIMAZIN
 70
    0
  9
$DIMDSEP
 70
   44
  9
$DIMATFIT
 70
    3
  9
$DIMFRAC
 70
    0
  9
$DIMLDRBLK
  1
STANDARD
  9
$DIMLUNIT
 70
    2
  9
$DIMLWD
 70
   -2
  9
$DIMLWE
 70
   -2
  9
$DIMTMOVE
 70
    0
  9
$DIMFXL
 40
1
  9
$DIMFXLON
 70
    0
  9
$DIMJOGANG
 40
0.7854
  9
$DIMTFILL
 70
    0
  9
$DIMTFILLCLR
 70
    0
  9
$DIMARCSYM
 70
    0
  9
$DIMLTYPE
  6

  9
$DIMLTEX1
  6

  9
$DIMLTEX2
  6

  9
$LUNITS
 70
    2
  9
$LUPREC
 70
    4
  9
$SKETCHINC
 40
0.1
  9
$FILLETRAD
 40
0
  9
$AUNITS
 70
    0
  9
$AUPREC
 70
    0
  9
$MENU
  1
.
  9
$ELEVATION
 40
0
  9
$PELEVATION
 40
0
  9
$THICKNESS
 40
0
  9
$LIMCHECK
 70
    0
  9
$CHAMFERA
 40
0.5
  9
$CHAMFERB
 40
0.5
  9
$CHAMFERC
 40
0
  9
$CHAMFERD
 40
0
  9
$SKPOLY
 70
    0
  9
$USRTIMER
 70
    1
  9
$ANGBASE
 50
0
  9
$ANGDIR
 70
    1
  9
$PDMODE
 70
    0
  9
$PDSIZE
 40
0
  9
$PLINEWID
 40
0
  9
$SPLFRAME
 70
    0
  9
$SPLINETYPE
 70
    6
  9
$SPLINESEGS
 70
    8
  9
$HANDSEED
  5
20000
  9
$SURFTAB1
 70
    6
  9
$SURFTAB2
 70
    6
  9
$SURFTYPE
 70
    6
  9
$SURFU
 70
    6
  9
$SURFV
 70
    6
  9
$UCSBASE
  2

  9
$UCSNAME
  2

  9
$UCSORG
 10
0
 20
0
 30
0
  9
$UCSXDIR
 10
1
 20
0
 30
0
  9
$UCSYDIR
 10
0
 20
1
 30
0
  9
$UCSORTHOREF
  2

  9
$UCSORTHOVIEW
 70
    0
  9
$UCSORGTOP
 10
0
 20
0
 30
0
  9
$UCSORGBOTTOM
 10
0
 20
0
 30
0
  9
$UCSORGLEFT
 10
0
 20
0
 30
0
  9
$UCSORGRIGHT
 10
0
 20
0
 30
0
  9
$UCSORGFRONT
 10
0
 20
0
 30
0
  9
$UCSORGBACK
 10
0
 20
0
 30
0
  9
$PUCSBASE
  2

  9
$PUCSNAME
  2

  9
$PUCSORG
 10
0
 20
0
 30
0
  9
$PUCSXDIR
 10
1
 20
0
 30
0
  9
$PUCSYDIR
 10
0
 20
1
 30
0
  9
$PUCSORTHOREF
  2

  9
$PUCSORTHOVIEW
 70
    0
  9
$PUCSORGTOP
 10
0
 20
0
 30
0
  9
$PUCSORGBOTTOM
 10
0
 20
0
 30
0
  9
$PUCSORGLEFT
 10
0
 20
0
 30
0
  9
$PUCSORGRIGHT
 10
0
 20
0
 30
0
  9
$PUCSORGFRONT
 10
0
 20
0
 30
0
  9
$PUCSORGBACK
 10
0
 20
0
 30
0
  9
$USERI1
 70
    0
  9
$USERI2
 70
    0
  9
$USERI3
 70
    0
  9
$USERI4
 70
    0
  9
$USERI5
 70
    0
  9
$USERR1
 40
0
  9
$USERR2
 40
0
  9
$USERR3
 40
0
  9
$USERR4
 40
0
  9
$USERR5
 40
0
  9
$WORLDVIEW
 70
    1
  9
$SHADEDGE
 70
    3
  9
$SHADEDIF
 70
   70
  9
$TILEMODE
 70
    1
  9
$MAXACTVP
 70
   48
  9
$PINSBASE
 10
0
 20
0
 30
0
  9
$PLIMCHECK
 70
    0
  9
$PEXTMIN
 10
1e+20
 20
1e+20
 30
1e+20
  9
$PEXTMAX
 10
-1e+20
 20
-1e+20
 30
-1e+20
  9
$SNAPSTYLE
 70
    0
  9
$PLIMMIN
 10
0
 20
0
  9
$PLIMMAX
 10
0
 20
0
  9
$UNITMODE
 70
    0
  9
$VISRETAIN
 70
    1
  9
$PLINEGEN
 70
    1
  9
$PSLTSCALE
 70
    1
  9
$TREEDEPTH
 70
 3020
  9
$CMLSTYLE
  2
Standard
  9
$CMLJUST
 70
    0
  9
$CMLSCALE
 40
20
  9
$PROXYGRAPHICS
 70
    1
  9
$MEASUREMENT
 70
    1
  9
$CELWEIGHT
370
   -1
  9
$ENDCAPS
280
    0
  9
$JOINSTYLE
280
    0
  9
$LWDISPLAY
290
    0
  9
$INSUNITS
 70
    4
  9
$HYPERLINKBASE
  1

  9
$STYLESHEET
  1

  9
$XEDIT
290
    1
  9
$CEPSNTYPE
380
    0
  9
$PSTYLEMODE
290
    1
  9
$EXTNAMES
290
    1
  9
$PSVPSCALE
 40
1
  9
$OLESTARTUP
290
    0
  9
$SORTENTS
280
  127
  9
$INDEXCTL
280
    0
  9
$HIDETEXT
280
    1
  9
$XCLIPFRAME
290
    0
  9
$HALOGAP
280
    0
  9
$OBSCOLOR
 70
  257
  9
$OBSLTYPE
280
    0
  9
$INTERSECTIONDISPLAY
280
    0
  9
$INTERSECTIONCOLOR
 70
  257
  9
$DIMASSOC
280
    1
  9
$PROJECTNAME
  1

  9
$CAMERADISPLAY
290
    0
  9
$LENSLENGTH
 40
50
  9
$CAMERAHEIGHT
 40
0
  9
$STEPSPERSEC
 40
2
  9
$STEPSIZE
 40
50
  9
$3DDWFPREC
 40
2
  9
$PSOLWIDTH
 40
5
  9
$PSOLHEIGHT
 40
80
  9
$LOFTANG1
 40
1.570796326794897
  9
$LOFTANG2
 40
1.570796326794897
  9
$LOFTMAG1
 40
0
  9
$LOFTMAG2
 40
0
  9
$LOFTPARAM
 70
    7
  9
$LOFTNORMALS
280
    1
  9
$LATITUDE
 40
1
  9
$LONGITUDE
 40
1
  9
$NORTHDIRECTION
 40
0
  9
$TIMEZONE
 70
-8000
  9
$LIGHTGLYPHDISPLAY
280
    1
  9
$TILEMODELIGHTSYNCH
280
    1
  9
$SOLIDHIST
280
    1
  9
$SHOWHIST
280
    1
  9
$DWFFRAME
280
    2
  9
$DGNFRAME
280
    0
  9
$REALWORLDSCALE
290
    1
  9
$INTERFERECOLOR
 62
    1
  9
$CSHADOW
280
    0
  9
$SHADOWPLANELOCATION
 40
0
  0
ENDSEC
  0
SECTION
  2
CLASSES
  0
ENDSEC
  0
SECTION
  2
TABLES
  0
TABLE
  2
VPORT
  5
8
330
0
100
AcDbSymbolTable
 70
    1
  0
VPORT
  5
31
330
2
100
AcDbSymbolTableRecord
100
AcDbViewportTableRecord
  2
*ACTIVE
 70
    0
 10
0
 20
0
 11
1
 21
1
 12
82.63741598028274
 22
28.62518641323274
 13
0
 23
0
 14
10
 24
10
 15
10
 25
10
 16
0
 26
0
 36
1
 17
0
 27
0
 37
0
 40
214.7536609644338
 41
1.90832328106152
 42
50
 43
0
 44
0
 50
0
 51
0
 71
    0
 72
  100
 73
    1
 74
    3
 75
    0
 76
    1
 77
    0
 78
    0
281
    0
 65
    1
110
0
120
0
130
0
111
1
121
0
131
0
112
0
122
1
132
0
 79
    0
146
0
348
10020
 60
    7
 61
    5
292
1
282
    1
141
0
142
0
 63
  250
421
3358443
  0
ENDTAB
  0
TABLE
  2
LTYPE
  5
5
330
0
100
AcDbSymbolTable
 70
    4
  0
LTYPE
  5
14
330
5
100
AcDbSymbolTableRecord
100
AcDbLinetypeTableRecord
  2
ByBlock
 70
    0
  3

 72
   65
 73
    0
 40
0
  0
LTYPE
  5
15
330
5
100
AcDbSymbolTableRecord
100
AcDbLinetypeTableRecord
  2
ByLayer
 70
    0
  3

 72
   65
 73
    0
 40
0
  0
LTYPE
  5
16
330
5
100
AcDbSymbolTableRecord
100
AcDbLinetypeTableRecord
  2
Continuous
 70
    0
  3
Solid line
 72
   65
 73
    0
 40
0
  0
LTYPE
  5
32
330
5
100
AcDbSymbolTableRecord
100
AcDbLinetypeTableRecord
  2
DOT
 70
    0
  3
Dot . . . . . . . . . . . . . . . . . . . . . .
 72
   65
 73
    2
 40
6.35
 49
0
 74
    0
 49
-6.35
 74
    0
  0
LTYPE
  5
33
330
5
100
AcDbSymbolTableRecord
100
AcDbLinetypeTableRecord
  2
DOTTINY
 70
    0
  3
Dot (.15x) .....................................
 72
   65
 73
    2
 40
0.9525
 49
0
 74
    0
 49
-0.9525
 74
    0
  0
LTYPE
  5
34
330
5
100
AcDbSymbolTableRecord
100
AcDbLinetypeTableRecord
  2
DOT2
 70
    0
  3
Dot (.5x) .....................................
 72
   65
 73
    2
 40
3.175
 49
0
 74
    0
 49
-3.175
 74
    0
  0
LTYPE
  5
35
330
5
100
AcDbSymbolTableRecord
100
AcDbLinetypeTableRecord
  2
DOTX2
 70
    0
  3
Dot (2x) .  .  .  .  .  .  .  .  .  .  .  .  .
 72
   65
 73
    2
 40
12.7
 49
0
 74
    0
 49
-12.7
 74
    0
  0
LTYPE
  5
36
330
5
100
AcDbSymbolTableRecord
100
AcDbLinetypeTableRecord
  2
DASHED
 70
    0
  3
Dashed _ _ _ _ _ _ _ _ _ _ _ _ _ _ _ _ _
 72
   65
 73
    2
 40
19.05
 49
12.7
 74
    0
 49
-6.35
 74
    0
  0
LTYPE
  5
37
330
5
100
AcDbSymbolTableRecord
100
AcDbLinetypeTableRecord
  2
DASHEDTINY
 70
    0
  3
Dashed (.15x) _ _ _ _ _ _ _ _ _ _ _ _ _ _ _ _ _
 72
   65
 73
    2
 40
2.8575
 49
1.905
 74
    0
 49
-0.9525
 74
    0
  0
LTYPE
  5
38
330
5
100
AcDbSymbolTableRecord
100
AcDbLinetypeTableRecord
  2
DASHED2
 70
    0
  3
Dashed (.5x) _ _ _ _ _ _ _ _ _ _ _ _ _ _ _ _ _
 72
   65
 73
    2
 40
9.524999999999999
 49
6.35
 74
    0
 49
-3.175
 74
    0
  0
LTYPE
  5
39
330
5
100
AcDbSymbolTableRecord
100
AcDbLinetypeTableRecord
  2
DASHEDX2
 70
    0
  3
Dashed (2x) ____  ____  ____  ____  ____  ___
 72
   65
 73
    2
 40
38.09999999999999
 49
25.4
 74
    0
 49
-12.7
 74
    0
  0
LTYPE
  5
3A
330
5
100
AcDbSymbolTableRecord
100
AcDbLinetypeTableRecord
  2
DASHDOT
 70
    0
  3
Dash dot __ . __ . __ . __ . __ . __ . __ . __
 72
   65
 73
    4
 40
25.4
 49
12.7
 74
    0
 49
-6.35
 74
    0
 49
0
 74
    0
 49
-6.35
 74
    0
  0
LTYPE
  5
3B
330
5
100
AcDbSymbolTableRecord
100
AcDbLinetypeTableRecord
  2
DASHDOTTINY
 70
    0
  3
Dash dot (.15x) _._._._._._._._._._._._._._._.
 72
   65
 73
    4
 40
3.81
 49
1.905
 74
    0
 49
-0.9525
 74
    0
 49
0
 74
    0
 49
-0.9525
 74
    0
  0
LTYPE
  5
3C
330
5
100
AcDbSymbolTableRecord
100
AcDbLinetypeTableRecord
  2
DASHDOT2
 70
    0
  3
Dash dot (.5x) _._._._._._._._._._._._._._._.
 72
   65
 73
    4
 40
12.7
 49
6.35
 74
    0
 49
-3.175
 74
    0
 49
0
 74
    0
 49
-3.175
 74
    0
  0
LTYPE
  5
3D
330
5
100
AcDbSymbolTableRecord
100
AcDbLinetypeTableRecord
  2
DASHDOTX2
 70
    0
  3
Dash dot (2x) ____  .  ____  .  ____  .  ___
 72
   65
 73
    4
 40
50.8
 49
25.4
 74
    0
 49
-12.7
 74
    0
 49
0
 74
    0
 49
-12.7
 74
    0
  0
LTYPE
  5
3E
330
5
100
AcDbSymbolTableRecord
100
AcDbLinetypeTableRecord
  2
DIVIDE
 70
    0
  3
Divide ____ . . ____ . . ____ . . ____ . . ____
 72
   65
 73
    6
 40
31.75
 49
12.7
 74
    0
 49
-6.35
 74
    0
 49
0
 74
    0
 49
-6.35
 74
    0
 49
0
 74
    0
 49
-6.35
 74
    0
  0
LTYPE
  5
3F
330
5
100
AcDbSymbolTableRecord
100
AcDbLinetypeTableRecord
  2
DIVIDETINY
 70
    0
  3
Divide (.15x) __..__..__..__..__..__..__..__.._
 72
   65
 73
    6
 40
4.7625
 49
1.905
 74
    0
 49
-0.9525
 74
    0
 49
0
 74
    0
 49
-0.9525
 74
    0
 49
0
 74
    0
 49
-0.9525
 74
    0
  0
LTYPE
  5
40
330
5
100
AcDbSymbolTableRecord
100
AcDbLinetypeTableRecord
  2
DIVIDE2
 70
    0
  3
Divide (.5x) __..__..__..__..__..__..__..__.._
 72
   65
 73
    6
 40
15.875
 49
6.35
 74
    0
 49
-3.175
 74
    0
 49
0
 74
    0
 49
-3.175
 74
    0
 49
0
 74
    0
 49
-3.175
 74
    0
  0
LTYPE
  5
41
330
5
100
AcDbSymbolTableRecord
100
AcDbLinetypeTableRecord
  2
DIVIDEX2
 70
    0
  3
Divide (2x) ________  .  .  ________  .  .  _
 72
   65
 73
    6
 40
63.5
 49
25.4
 74
    0
 49
-12.7
 74
    0
 49
0
 74
    0
 49
-12.7
 74
    0
 49
0
 74
    0
 49
-12.7
 74
    0
  0
LTYPE
  5
42
330
5
100
AcDbSymbolTableRecord
100
AcDbLinetypeTableRecord
  2
BORDER
 70
    0
  3
Border __ __ . __ __ . __ __ . __ __ . __ __ .
 72
   65
 73
    6
 40
44.45
 49
12.7
 74
    0
 49
-6.35
 74
    0
 49
12.7
 74
    0
 49
-6.35
 74
    0
 49
0
 74
    0
 49
-6.35
 74
    0
  0
LTYPE
  5
43
330
5
100
AcDbSymbolTableRecord
100
AcDbLinetypeTableRecord
  2
BORDERTINY
 70
    0
  3
Border (.15x) __.__.__.__.__.__.__.__.__.__.__.
 72
   65
 73
    6
 40
6.6675
 49
1.905
 74
    0
 49
-0.9525
 74
    0
 49
1.905
 74
    0
 49
-0.9525
 74
    0
 49
0
 74
    0
 49
-0.9525
 74
    0
  0
LTYPE
  5
44
330
5
100
AcDbSymbolTableRecord
100
AcDbLinetypeTableRecord
  2
BORDER2
 70
    0
  3
Border (.5x) __.__.__.__.__.__.__.__.__.__.__.
 72
   65
 73
    6
 40
22.225
 49
6.35
 74
    0
 49
-3.175
 74
    0
 49
6.35
 74
    0
 49
-3.175
 74
    0
 49
0
 74
    0
 49
-3.175
 74
    0
  0
LTYPE
  5
45
330
5
100
AcDbSymbolTableRecord
100
AcDbLinetypeTableRecord
  2
BORDERX2
 70
    0
  3
Border (2x) ____  ____  .  ____  ____  .  ___
 72
   65
 73
    6
 40
88.89999999999999
 49
25.4
 74
    0
 49
-12.7
 74
    0
 49
25.4
 74
    0
 49
-12.7
 74
    0
 49
0
 74
    0
 49
-12.7
 74
    0
  0
LTYPE
  5
46
330
5
100
AcDbSymbolTableRecord
100
AcDbLinetypeTableRecord
  2
CENTER
 70
    0
  3
Center ____ _ ____ _ ____ _ ____ _ ____ _ ____
 72
   65
 73
    4
 40
50.8
 49
31.75
 74
    0
 49
-6.35
 74
    0
 49
6.35
 74
    0
 49
-6.35
 74
    0
  0
LTYPE
  5
47
330
5
100
AcDbSymbolTableRecord
100
AcDbLinetypeTableRecord
  2
CENTERTINY
 70
    0
  3
Center (.15x) ___ _ ___ _ ___ _ ___ _ ___ _ ___
 72
   65
 73
    4
 40
7.62
 49
4.7625
 74
    0
 49
-0.9525
 74
    0
 49
0.9525
 74
    0
 49
-0.9525
 74
    0
  0
LTYPE
  5
48
330
5
100
AcDbSymbolTableRecord
100
AcDbLinetypeTableRecord
  2
CENTER2
 70
    0
  3
Center (.5x) ___ _ ___ _ ___ _ ___ _ ___ _ ___
 72
   65
 73
    4
 40
28.575
 49
19.05
 74
    0
 49
-3.175
 74
    0
 49
3.175
 74
    0
 49
-3.175
 74
    0
  0
LTYPE
  5
49
330
5
100
AcDbSymbolTableRecord
100
AcDbLinetypeTableRecord
  2
CENTERX2
 70
    0
  3
Center (2x) ________  __  ________  __  _____
 72
   65
 73
    4
 40
101.6
 49
63.5
 74
    0
 49
-12.7
 74
    0
 49
12.7
 74
    0
 49
-12.7
 74
    0
  0
ENDTAB
  0
TABLE
  2
LAYER
  5
2
330
0
100
AcDbSymbolTable
 70
    1
  0
LAYER
  5
10
330
2
100
AcDbSymbolTableRecord
100
AcDbLayerTableRecord
  2
0
 70
    0
 62
    7
  6
CONTINUOUS
370
   -3
390
F
  0
LAYER
  5
4A
330
2
100
AcDbSymbolTableRecord
100
AcDbLayerTableRecord
  2
DEFPOINTS
 70
    0
 62
    7
  6
CONTINUOUS
370
   -3
390
F
  0
ENDTAB
  0
TABLE
  2
STYLE
  5
3
330
0
100
AcDbSymbolTable
 70
    3
  0
STYLE
  5
4B
330
2
100
AcDbSymbolTableRecord
100
AcDbTextStyleTableRecord
  2
Standard
 70
    0
 40
0
 41
1
 50
0
 71
    0
 42
1
  3
txt
  4

  0
ENDTAB
  0
TABLE
  2
VIEW
  5
6
330
0
100
AcDbSymbolTable
 70
    0
  0
ENDTAB
  0
TABLE
  2
UCS
  5
7
330
0
100
AcDbSymbolTable
 70
    0
  0
ENDTAB
  0
TABLE
  2
APPID
  5
9
330
0
100
AcDbSymbolTable
 70
    1
  0
APPID
  5
12
330
9
100
AcDbSymbolTableRecord
100
AcDbRegAppTableRecord
  2
ACAD
 70
    0
  0
APPID
  5
4C
330
9
100
AcDbSymbolTableRecord
100
AcDbRegAppTableRecord
  2
LibreCad
 70
    0
  0
ENDTAB
  0
TABLE
  2
DIMSTYLE
  5
A
330
0
100
AcDbSymbolTable
 70
    1
100
AcDbDimStyleTable
 71
    1
  0
DIMSTYLE
105
4D
330
A
100
AcDbSymbolTableRecord
100
AcDbDimStyleTableRecord
  2
Standard
 70
    0
 40
1
 41
0.18
 42
0.0625
 43
0.38
 44
0.18
 45
0
 46
0
 47
0
 48
0
 49
1
140
0.18
141
0.09
142
0
143
25.4
144
1
145
0
146
1
147
0.09
148
0
 71
    0
 72
    0
 73
    1
 74
    1
 75
    0
 76
    0
 77
    0
 78
    0
 79
    0
170
    0
171
    2
172
    0
173
    0
174
    0
175
    0
176
    0
177
    0
178
    0
179
    0
271
    4
272
    4
273
    2
274
    2
275
    0
276
    0
277
    2
278
    0
279
    0
280
    0
281
    0
282
    0
283
    1
284
    0
285
    0
286
    0
288
    0
289
    3
340
standard
341

371
   -2
372
   -2
  0
ENDTAB
  0
TABLE
  2
BLOCK_RECORD
  5
1
330
0
100
AcDbSymbolTable
 70
    2
  0
BLOCK_RECORD
  5
1F
330
1
100
AcDbSymbolTableRecord
100
AcDbBlockTableRecord
  2
*Model_Space
 70
    0
280
    1
281
    0
  0
BLOCK_RECORD
  5
1E
330
1
100
AcDbSymbolTableRecord
100
AcDbBlockTableRecord
  2
*Paper_Space
 70
    0
280
    1
281
    0
  0
ENDTAB
  0
ENDSEC
  0
SECTION
  2
BLOCKS
  0
BLOCK
  5
20
330
1F
100
AcDbEntity
  8
0
100
AcDbBlockBegin
  2
*Model_Space
 70
    0
 10
0
 20
0
 30
0
  3
*Model_Space
  1

  0
ENDBLK
  5
21
330
1F
100
AcDbEntity
  8
0
100
AcDbBlockEnd
  0
BLOCK
  5
1C
330
1B
100
AcDbEntity
  8
0
100
AcDbBlockBegin
  2
*Paper_Space
 70
    0
 10
0
 20
0
 30
0
  3
*Paper_Space
  1

  0
ENDBLK
  5
1D
330
1F
100
AcDbEntity
  8
0
100
AcDbBlockEnd
  0
ENDSEC
  0
SECTION
  2
ENTITIES
  0
LINE
  5
4E
100
AcDbEntity
  8
0
  6
CONTINUOUS
 62
  174
370
   -1
100
AcDbLine
 10
-6.900001999999988
 20
-28.8
 11
-6.899993999999991
 21
-38.8
  0
LINE
  5
4F
100
AcDbEntity
  8
0
  6
CONTINUOUS
 62
  174
370
   -1
100
AcDbLine
 10
-1.499999999999993
 20
-38.8
 11
-6.899993999999991
 21
-38.8
  0
LINE
  5
50
100
AcDbEntity
  8
0
  6
CONTINUOUS
 62
  174
370
   -1
100
AcDbLine
 10
-1.499999999999993
 20
-38.8
 11
-1.50000799999998
 21
-68.5
  0
LINE
  5
51
100
AcDbEntity
  8
0
  6
CONTINUOUS
 62
  174
370
   -1
100
AcDbLine
 10
-12.19999999999999
 20
-28.8
 11
-12.19999999999998
 21
-68.5
  0
LINE
  5
52
100
AcDbEntity
  8
0
  6
CONTINUOUS
 62
  174
370
   -1
100
AcDbLine
 10
-6.900001999999988
 20
-28.8
 11
-12.19999999999999
 21
-28.8
  0
LINE
  5
53
100
AcDbEntity
  8
0
  6
CONTINUOUS
 62
  174
370
   -1
100
AcDbLine
 10
-4.300002999999975
 20
-70
 11
-4.300002999999982
 21
-71.5
  0
LINE
  5
54
100
AcDbEntity
  8
0
  6
CONTINUOUS
 62
  174
370
   -1
100
AcDbLine
 10
-3.499999999999979
 20
-71.5
 11
-4.300002999999982
 21
-71.5
  0
LINE
  5
55
100
AcDbEntity
  8
0
  6
CONTINUOUS
 62
  174
370
   -1
100
AcDbLine
 10
-3.499999999999979
 20
-70
 11
-3.499999999999979
 21
-71.5
  0
LINE
  5
56
100
AcDbEntity
  8
0
  6
CONTINUOUS
 62
  174
370
   -1
100
AcDbLine
 10
-1.800002999999975
 20
-70.00001
 11
-3.499999999999979
 21
-70
  0
LINE
  5
57
100
AcDbEntity
  8
0
  6
CONTINUOUS
 62
  174
370
   -1
100
AcDbLine
 10
-1.499999999999972
 20
-86.59999999999999
 11
-1.800002999999975
 21
-70.00001
  0
LINE
  5
58
100
AcDbEntity
  8
0
  6
CONTINUOUS
 62
  174
370
   -1
100
AcDbLine
 10
-1.499999999999972
 20
-86.59999999999999
 11
-3.199996999999968
 21
-86.59999999999999
  0
LINE
  5
59
100
AcDbEntity
  8
0
  6
CONTINUOUS
 62
  174
370
   -1
100
AcDbLine
 10
-3.199996999999968
 20
-84.59999999999999
 11
-3.199996999999968
 21
-86.59999999999999
  0
LINE
  5
5A
100
AcDbEntity
  8
0
  6
CONTINUOUS
 62
  174
370
   -1
100
AcDbLine
 10
-3.199996999999968
 20
-84.59999999999999
 11
-3.999999999999964
 21
-84.59999999999999
  0
LINE
  5
5B
100
AcDbEntity
  8
0
  6
CONTINUOUS
 62
  174
370
   -1
100
AcDbLine
 10
-3.999999999999964
 20
-84.59999999999999
 11
-3.999999999999972
 21
-84.99999
  0
LINE
  5
5C
100
AcDbEntity
  8
0
  6
CONTINUOUS
 62
  174
370
   -1
100
AcDbLine
 10
-3.999999999999972
 20
-84.99999
 11
-4.300002999999968
 21
-85.3
  0
LINE
  5
5D
100
AcDbEntity
  8
0
  6
CONTINUOUS
 62
  174
370
   -1
100
AcDbLine
 10
-3.999999999999964
 20
-85.59999999999999
 11
-4.300002999999968
 21
-85.3
  0
LINE
  5
5E
100
AcDbEntity
  8
0
  6
CONTINUOUS
 62
  174
370
   -1
100
AcDbLine
 10
-3.999999999999964
 20
-85.59999999999999
 11
-4.300002999999968
 21
-85.90000000000001
  0
LINE
  5
5F
100
AcDbEntity
  8
0
  6
CONTINUOUS
 62
  174
370
   -1
100
AcDbLine
 10
-3.999999999999964
 20
-86.19999999999999
 11
-4.300002999999975
 21
-85.89999
  0
LINE
  5
60
100
AcDbEntity
  8
0
  6
CONTINUOUS
 62
  174
370
   -1
100
AcDbLine
 10
-3.999999999999964
 20
-86.19999999999999
 11
-3.999999999999972
 21
-86.59999999999999
  0
LINE
  5
61
100
AcDbEntity
  8
0
  6
CONTINUOUS
 62
  174
370
   -1
100
AcDbLine
 10
-3.999999999999972
 20
-86.59999999999999
 11
-4.499999999999979
 21
-86.59999999999999
  0
LINE
  5
62
100
AcDbEntity
  8
0
  6
CONTINUOUS
 62
  174
370
   -1
100
AcDbLine
 10
-4.499999999999979
 20
-86.59999999999999
 11
-4.499999999999972
 21
-88.3
  0
LINE
  5
63
100
AcDbEntity
  8
0
  6
CONTINUOUS
 62
  174
370
   -1
100
AcDbLine
 10
-3.799994999999988
 20
-89
 11
-4.499999999999972
 21
-88.3
  0
LINE
  5
64
100
AcDbEntity
  8
0
  6
CONTINUOUS
 62
  174
370
   -1
100
AcDbLine
 10
-3.499999999999972
 20
-89
 11
-3.799994999999988
 21
-89
  0
LINE
  5
65
100
AcDbEntity
  8
0
  6
CONTINUOUS
 62
  174
370
   -1
100
AcDbLine
 10
-3.499999999999986
 20
-94.00000000000001
 11
-3.800002999999954
 21
-94
  0
LINE
  5
66
100
AcDbEntity
  8
0
  6
CONTINUOUS
 62
  174
370
   -1
100
AcDbLine
 10
-3.800002999999954
 20
-94
 11
-4.499999999999972
 21
-94.69999999999999
  0
LINE
  5
67
100
AcDbEntity
  8
0
  6
CONTINUOUS
 62
  174
370
   -1
100
AcDbLine
 10
-6.900001999999986
 20
-27.3
 11
-12.19999999999999
 21
-27.3
  0
LINE
  5
68
100
AcDbEntity
  8
0
  6
CONTINUOUS
 62
  174
370
   -1
100
AcDbLine
 10
-18.54999999999999
 20
-25.68000000000001
 11
-18.72999999999999
 21
-26.1
  0
LINE
  5
69
100
AcDbEntity
  8
0
  6
CONTINUOUS
 62
  174
370
   -1
100
AcDbLine
 10
-16.3
 20
-32.74000000000001
 11
-13.8
 21
-34.65000000000001
  0
LINE
  5
6A
100
AcDbEntity
  8
0
  6
CONTINUOUS
 62
  174
370
   -1
100
AcDbLine
 10
-13.8
 20
-34.63999
 11
-13.79999999999999
 21
-60.85999999999999
  0
LINE
  5
6B
100
AcDbEntity
  8
0
  6
CONTINUOUS
 62
  174
370
   -1
100
AcDbLine
 10
-13.79999999999999
 20
-60.85999999999999
 11
-16.29999999999999
 21
-62.77
  0
LINE
  5
6C
100
AcDbEntity
  8
0
  6
CONTINUOUS
 62
  174
370
   -1
100
AcDbLine
 10
-16.29999999999998
 20
-62.76
 11
-16.29999999999998
 21
-64.49999
  0
LINE
  5
6D
100
AcDbEntity
  8
0
  6
CONTINUOUS
 62
  174
370
   -1
100
AcDbLine
 10
-18.71998999999998
 20
-69.40000000000003
 11
-18.53999999999998
 21
-69.81999999999999
  0
LINE
  5
6E
100
AcDbEntity
  8
0
  6
CONTINUOUS
 62
  174
370
   -1
100
AcDbLine
 10
-18.71999999999998
 20
-26.1
 11
-18.23999999999999
 21
-27.25999000000001
  0
LINE
  5
6F
100
AcDbEntity
  8
0
  6
CONTINUOUS
 62
  174
370
   -1
100
AcDbLine
 10
-18.23999999999999
 20
-27.25999000000001
 11
-16.90999999999999
 21
-28.59
  0
LINE
  5
70
100
AcDbEntity
  8
0
  6
CONTINUOUS
 62
  174
370
   -1
100
AcDbLine
 10
-16.90999999999999
 20
-28.59
 11
-16.11999999999999
 21
-28.59
  0
LINE
  5
71
100
AcDbEntity
  8
0
  6
CONTINUOUS
 62
  174
370
   -1
100
AcDbLine
 10
-16.10999999999999
 20
-28.59000000000001
 11
-14.54999999999999
 21
-27.69001
  0
LINE
  5
72
100
AcDbEntity
  8
0
  6
CONTINUOUS
 62
  174
370
   -1
100
AcDbLine
 10
-14.56000999999999
 20
-27.69
 11
-13.80999999999999
 21
-27.69
  0
LINE
  5
73
100
AcDbEntity
  8
0
  6
CONTINUOUS
 62
  174
370
   -1
100
AcDbLine
 10
-13.80999999999999
 20
-27.69
 11
-13.80999999999999
 21
-31.89001
  0
LINE
  5
74
100
AcDbEntity
  8
0
  6
CONTINUOUS
 62
  174
370
   -1
100
AcDbLine
 10
-13.80999999999999
 20
-31.89001
 11
-14.55999999999999
 21
-31.89000000000001
  0
LINE
  5
75
100
AcDbEntity
  8
0
  6
CONTINUOUS
 62
  174
370
   -1
100
AcDbLine
 10
-14.55999999999999
 20
-31.89000000000001
 11
-16.11999999999999
 21
-30.99000000000001
  0
LINE
  5
76
100
AcDbEntity
  8
0
  6
CONTINUOUS
 62
  174
370
   -1
100
AcDbLine
 10
-16.10999999999999
 20
-31.00000000000001
 11
-16.30000999999999
 21
-31.00000000000001
  0
LINE
  5
77
100
AcDbEntity
  8
0
  6
CONTINUOUS
 62
  174
370
   -1
100
AcDbLine
 10
-16.29999999999999
 20
-30.99
 11
-16.3
 21
-32.74000000000001
  0
LINE
  5
78
100
AcDbEntity
  8
0
  6
CONTINUOUS
 62
  174
370
   -1
100
AcDbLine
 10
-18.71998999999998
 20
-69.40000000000003
 11
-18.22999999999998
 21
-68.22
  0
LINE
  5
79
100
AcDbEntity
  8
0
  6
CONTINUOUS
 62
  174
370
   -1
100
AcDbLine
 10
-18.22999999999998
 20
-68.22
 11
-16.89999999999998
 21
-66.89
  0
LINE
  5
7A
100
AcDbEntity
  8
0
  6
CONTINUOUS
 62
  174
370
   -1
100
AcDbLine
 10
-16.89999999999998
 20
-66.89
 11
-16.10999999999998
 21
-66.89
  0
LINE
  5
7B
100
AcDbEntity
  8
0
  6
CONTINUOUS
 62
  174
370
   -1
100
AcDbLine
 10
-16.10999999999998
 20
-66.89
 11
-14.54999999999998
 21
-67.79000000000001
  0
LINE
  5
7C
100
AcDbEntity
  8
0
  6
CONTINUOUS
 62
  174
370
   -1
100
AcDbLine
 10
-14.54999999999998
 20
-67.79999999999998
 11
-13.79999999999998
 21
-67.79999999999998
  0
LINE
  5
7D
100
AcDbEntity
  8
0
  6
CONTINUOUS
 62
  174
370
   -1
100
AcDbLine
 10
-13.80999999999998
 20
-67.8
 11
-13.80999999999998
 21
-63.59999999999999
  0
LINE
  5
7E
100
AcDbEntity
  8
0
  6
CONTINUOUS
 62
  174
370
   -1
100
AcDbLine
 10
-13.80999999999998
 20
-63.59
 11
-14.56000999999998
 21
-63.59
  0
LINE
  5
7F
100
AcDbEntity
  8
0
  6
CONTINUOUS
 62
  174
370
   -1
100
AcDbLine
 10
-14.56000999999998
 20
-63.59
 11
-16.11999999999998
 21
-64.48999999999999
  0
LINE
  5
80
100
AcDbEntity
  8
0
  6
CONTINUOUS
 62
  174
370
   -1
100
AcDbLine
 10
-16.10999999999998
 20
-64.5
 11
-16.29999999999998
 21
-64.49999
  0
LINE
  5
81
100
AcDbEntity
  8
0
  6
CONTINUOUS
 62
  174
370
   -1
100
AcDbLine
 10
-3.499999999999972
 20
-89
 11
-3.499999999999964
 21
-87.79999999999998
  0
LINE
  5
82
100
AcDbEntity
  8
0
  6
CONTINUOUS
 62
  174
370
   -1
100
AcDbLine
 10
-3.499999999999964
 20
-87.79999999999998
 11
-1.400001999999972
 21
-87.8
  0
LINE
  5
83
100
AcDbEntity
  8
0
  6
CONTINUOUS
 62
  174
370
   -1
100
AcDbLine
 10
-1.400001999999972
 20
-87.8
 11
-1.399993999999964
 21
-95.79999999999998
  0
LINE
  5
84
100
AcDbEntity
  8
0
  6
CONTINUOUS
 62
  174
370
   -1
100
AcDbLine
 10
-1.399993999999964
 20
-95.79999999999998
 11
-3.499999999999979
 21
-95.79999999999998
  0
LINE
  5
85
100
AcDbEntity
  8
0
  6
CONTINUOUS
 62
  174
370
   -1
100
AcDbLine
 10
-3.499999999999979
 20
-95.79999999999998
 11
-3.499999999999986
 21
-94.00000000000001
  0
LINE
  5
86
100
AcDbEntity
  8
0
  6
CONTINUOUS
 62
  174
370
   -1
100
AcDbLine
 10
-4.499999999999972
 20
-94.69999999999999
 11
-4.499999999999972
 21
-96.99999
  0
LINE
  5
87
100
AcDbEntity
  8
0
  6
CONTINUOUS
 62
  174
370
   -1
100
AcDbLine
 10
-4.499999999999972
 20
-96.99999
 11
7.105427357601002e-15
 21
-97.00001
  0
LINE
  5
88
100
AcDbEntity
  8
0
  6
CONTINUOUS
 62
  174
370
   -1
100
AcDbLine
 10
7.105427357601002e-15
 20
-97.00001
 11
1.4210854715202e-14
 21
-34.8
  0
LINE
  5
89
100
AcDbEntity
  8
0
  6
CONTINUOUS
 62
  174
370
   -1
100
AcDbLine
 10
-12.19999999999999
 20
-27.3
 11
-12.19999999999999
 21
-25.5
  0
LINE
  5
8A
100
AcDbEntity
  8
0
  6
CONTINUOUS
 62
  174
370
   -1
100
AcDbLine
 10
-12.19999999999999
 20
-25.5
 11
-18.11999999999999
 21
-25.50000000000001
  0
LINE
  5
8B
100
AcDbEntity
  8
0
  6
CONTINUOUS
 62
  174
370
   -1
100
AcDbLine
 10
-18.11999999999999
 20
-25.50000000000001
 11
-18.54999999999999
 21
-25.68000000000001
  0
LINE
  5
8C
100
AcDbEntity
  8
0
  6
CONTINUOUS
 62
  174
370
   -1
100
AcDbLine
 10
-18.54999999999998
 20
-69.81999999999999
 11
-18.12999999999997
 21
-70
  0
LINE
  5
8D
100
AcDbEntity
  8
0
  6
CONTINUOUS
 62
  174
370
   -1
100
AcDbLine
 10
-18.12999999999997
 20
-70
 11
-4.299994999999974
 21
-70
  0
LINE
  5
8E
100
AcDbEntity
  8
0
  6
CONTINUOUS
 62
  174
370
   -1
100
AcDbLine
 10
-6.900001999999983
 20
-67
 11
-6.900001999999976
 21
-68.49999
  0
LINE
  5
8F
100
AcDbEntity
  8
0
  6
CONTINUOUS
 62
  174
370
   -1
100
AcDbLine
 10
-6.900001999999976
 20
-68.49999
 11
-12.19999999999998
 21
-68.5
  0
LINE
  5
90
100
AcDbEntity
  8
0
  6
CONTINUOUS
 62
  174
370
   -1
100
AcDbLine
 10
-5.900001999999972
 20
-67
 11
-5.900001999999983
 21
-68.5
  0
LINE
  5
91
100
AcDbEntity
  8
0
  6
CONTINUOUS
 62
  174
370
   -1
100
AcDbLine
 10
-5.900001999999983
 20
-68.5
 11
-1.50000799999998
 21
-68.5
  0
LINE
  5
92
100
AcDbEntity
  8
0
  6
CONTINUOUS
 62
  174
370
   -1
100
AcDbLine
 10
-17.01999999999999
 20
-66.95
 11
-19.91999999999998
 21
-69.84999999999999
  0
LINE
  5
93
100
AcDbEntity
  8
0
  6
CONTINUOUS
 62
  174
370
   -1
100
AcDbLine
 10
-16.19999999999998
 20
-66.85001
 11
-16.77999999999998
 21
-66.84999999999999
  0
LINE
  5
94
100
AcDbEntity
  8
0
  6
CONTINUOUS
 62
  174
370
   -1
100
AcDbLine
 10
-14.54999999999998
 20
-67.75
 11
-16.03000999999998
 21
-66.90000000000001
  0
LINE
  5
95
100
AcDbEntity
  8
0
  6
CONTINUOUS
 62
  174
370
   -1
100
AcDbLine
 10
-14.09999999999997
 20
-67.75
 11
-14.54999999999998
 21
-67.74999
  0
LINE
  5
96
100
AcDbEntity
  8
0
  6
CONTINUOUS
 62
  174
370
   -1
100
AcDbLine
 10
-13.84999999999998
 20
-63.9
 11
-13.84999999999998
 21
-67.50001
  0
LINE
  5
97
100
AcDbEntity
  8
0
  6
CONTINUOUS
 62
  174
370
   -1
100
AcDbLine
 10
-14.09999999999997
 20
-63.65000000000001
 11
-14.54999999999998
 21
-63.65000000000001
  0
LINE
  5
98
100
AcDbEntity
  8
0
  6
CONTINUOUS
 62
  174
370
   -1
100
AcDbLine
 10
-14.54999999999998
 20
-63.65001000000001
 11
-16.03000999999998
 21
-64.5
  0
LINE
  5
99
100
AcDbEntity
  8
0
  6
CONTINUOUS
 62
  174
370
   -1
100
AcDbLine
 10
-16.19999999999998
 20
-64.55
 11
-16.48999999999997
 21
-64.55
  0
LINE
  5
9A
100
AcDbEntity
  8
0
  6
CONTINUOUS
 62
  174
370
   -1
100
AcDbLine
 10
-17.22999999999998
 20
-64.23999999999999
 11
-17.37999999999999
 21
-64.09
  0
LINE
  5
9B
100
AcDbEntity
  8
0
  6
CONTINUOUS
 62
  174
370
   -1
100
AcDbLine
 10
-18.08000999999998
 20
-63.8
 11
-49.50999999999998
 21
-63.8
  0
LINE
  5
9C
100
AcDbEntity
  8
0
  6
CONTINUOUS
 62
  174
370
   -1
100
AcDbLine
 10
-50.21999999999996
 20
-64.09000000000002
 11
-50.36999999999998
 21
-64.24000000000001
  0
LINE
  5
9D
100
AcDbEntity
  8
0
  6
CONTINUOUS
 62
  174
370
   -1
100
AcDbLine
 10
-51.10999999999997
 20
-64.55000000000001
 11
-51.40000999999998
 21
-64.55000000000001
  0
LINE
  5
9E
100
AcDbEntity
  8
0
  6
CONTINUOUS
 62
  174
370
   -1
100
AcDbLine
 10
-51.56999999999998
 20
-64.50000000000001
 11
-53.04999999999997
 21
-63.65000000000001
  0
LINE
  5
9F
100
AcDbEntity
  8
0
  6
CONTINUOUS
 62
  174
370
   -1
100
AcDbLine
 10
-53.04999999999997
 20
-63.65000000000001
 11
-53.49999999999999
 21
-63.65000000000001
  0
LINE
  5
A0
100
AcDbEntity
  8
0
  6
CONTINUOUS
 62
  174
370
   -1
100
AcDbLine
 10
-53.74999999999999
 20
-63.90000000000001
 11
-53.74999999999997
 21
-67.5
  0
LINE
  5
A1
100
AcDbEntity
  8
0
  6
CONTINUOUS
 62
  174
370
   -1
100
AcDbLine
 10
-53.04999999999998
 20
-67.75000000000001
 11
-53.49999999999999
 21
-67.75
  0
LINE
  5
A2
100
AcDbEntity
  8
0
  6
CONTINUOUS
 62
  174
370
   -1
100
AcDbLine
 10
-51.56999999999997
 20
-66.90000000000002
 11
-53.04999999999998
 21
-67.75000000000001
  0
LINE
  5
A3
100
AcDbEntity
  8
0
  6
CONTINUOUS
 62
  174
370
   -1
100
AcDbLine
 10
-50.81999999999999
 20
-66.85000000000001
 11
-51.40000999999998
 21
-66.85000000000001
  0
LINE
  5
A4
100
AcDbEntity
  8
0
  6
CONTINUOUS
 62
  174
370
   -1
100
AcDbLine
 10
-47.67999999999998
 20
-69.84999999999999
 11
-50.57999999999998
 21
-66.95
  0
LINE
  5
A5
100
AcDbEntity
  8
0
  6
CONTINUOUS
 62
  174
370
   -1
100
AcDbLine
 10
-20.27999999999998
 20
-70
 11
-47.31999999999997
 21
-70
  0
LINE
  5
A6
100
AcDbEntity
  8
0
  6
CONTINUOUS
 62
  174
370
   -1
100
AcDbLine
 10
-27.49999999999997
 20
-65.59999999999999
 11
-27.49999999999998
 21
-68.2
  0
LINE
  5
A7
100
AcDbEntity
  8
0
  6
CONTINUOUS
 62
  174
370
   -1
100
AcDbLine
 10
-21.15999999999998
 20
-69.19999999999999
 11
-26.49999999999998
 21
-69.2
  0
LINE
  5
A8
100
AcDbEntity
  8
0
  6
CONTINUOUS
 62
  174
370
   -1
100
AcDbLine
 10
-17.77999999999998
 20
-66.65000000000002
 11
-19.74999999999997
 21
-68.62
  0
LINE
  5
A9
100
AcDbEntity
  8
0
  6
CONTINUOUS
 62
  174
370
   -1
100
AcDbLine
 10
-18.62999999999998
 20
-64.60000000000001
 11
-26.49999999999999
 21
-64.60000000000001
  0
LINE
  5
AA
100
AcDbEntity
  8
0
  6
CONTINUOUS
 62
  174
370
   -1
100
AcDbLine
 10
-28.49999999999999
 20
-65.60000000000001
 11
-28.49999999999998
 21
-68.20000000000002
  0
LINE
  5
AB
100
AcDbEntity
  8
0
  6
CONTINUOUS
 62
  174
370
   -1
100
AcDbLine
 10
-29.49999999999999
 20
-64.60000000000001
 11
-38.09999999999999
 21
-64.60000000000001
  0
LINE
  5
AC
100
AcDbEntity
  8
0
  6
CONTINUOUS
 62
  174
370
   -1
100
AcDbLine
 10
-39.09998999999998
 20
-65.60000000000001
 11
-39.09999999999997
 21
-68.2
  0
LINE
  5
AD
100
AcDbEntity
  8
0
  6
CONTINUOUS
 62
  174
370
   -1
100
AcDbLine
 10
-29.49999999999998
 20
-69.2
 11
-38.09999999999997
 21
-69.2
  0
LINE
  5
AE
100
AcDbEntity
  8
0
  6
CONTINUOUS
 62
  174
370
   -1
100
AcDbLine
 10
-41.09999999999998
 20
-64.60000000000001
 11
-48.96999999999996
 21
-64.60000000000001
  0
LINE
  5
AF
100
AcDbEntity
  8
0
  6
CONTINUOUS
 62
  174
370
   -1
100
AcDbLine
 10
-47.84999999999998
 20
-68.61000000000001
 11
-49.81999999999998
 21
-66.63999000000001
  0
LINE
  5
B0
100
AcDbEntity
  8
0
  6
CONTINUOUS
 62
  174
370
   -1
100
AcDbLine
 10
-41.09999999999997
 20
-69.2
 11
-46.43999999999998
 21
-69.20000000000002
  0
LINE
  5
B1
100
AcDbEntity
  8
0
  6
CONTINUOUS
 62
  174
370
   -1
100
AcDbLine
 10
-40.09999999999999
 20
-65.59999000000002
 11
-40.09999999999998
 21
-68.20000000000002
  0
LINE
  5
B2
100
AcDbEntity
  8
0
  6
CONTINUOUS
 62
  174
370
   -1
100
AcDbLine
 10
-19.95
 20
-20.50000000000001
 11
-19.94999999999999
 21
-24.79000000000001
  0
LINE
  5
B3
100
AcDbEntity
  8
0
  6
CONTINUOUS
 62
  174
370
   -1
100
AcDbLine
 10
-17.01999999999999
 20
-28.55
 11
-19.35998999999999
 21
-26.21
  0
LINE
  5
B4
100
AcDbEntity
  8
0
  6
CONTINUOUS
 62
  174
370
   -1
100
AcDbLine
 10
-16.19999999999999
 20
-28.65
 11
-16.77999999999999
 21
-28.65000000000001
  0
LINE
  5
B5
100
AcDbEntity
  8
0
  6
CONTINUOUS
 62
  174
370
   -1
100
AcDbLine
 10
-14.54999999999999
 20
-27.75
 11
-16.03000999999999
 21
-28.60000000000001
  0
LINE
  5
B6
100
AcDbEntity
  8
0
  6
CONTINUOUS
 62
  174
370
   -1
100
AcDbLine
 10
-14.09999999999999
 20
-27.75000000000001
 11
-14.54999999999999
 21
-27.75
  0
LINE
  5
B7
100
AcDbEntity
  8
0
  6
CONTINUOUS
 62
  174
370
   -1
100
AcDbLine
 10
-13.84999999999999
 20
-28
 11
-13.84999999999999
 21
-31.6
  0
LINE
  5
B8
100
AcDbEntity
  8
0
  6
CONTINUOUS
 62
  174
370
   -1
100
AcDbLine
 10
-14.09999999999999
 20
-31.85000000000001
 11
-14.54999999999998
 21
-31.85
  0
LINE
  5
B9
100
AcDbEntity
  8
0
  6
CONTINUOUS
 62
  174
370
   -1
100
AcDbLine
 10
-14.54999999999998
 20
-31.85
 11
-16.08999999999999
 21
-30.96000000000001
  0
LINE
  5
BA
100
AcDbEntity
  8
0
  6
CONTINUOUS
 62
  174
370
   -1
100
AcDbLine
 10
-16.68999999999999
 20
-30.80000000000001
 11
-17.49999999999999
 21
-30.8
  0
LINE
  5
BB
100
AcDbEntity
  8
0
  6
CONTINUOUS
 62
  174
370
   -1
100
AcDbLine
 10
-17.79999999999999
 20
-31.10000000000001
 11
-17.79999999999999
 21
-31.4
  0
LINE
  5
BC
100
AcDbEntity
  8
0
  6
CONTINUOUS
 62
  174
370
   -1
100
AcDbLine
 10
-18.6
 20
-31.10000000000001
 11
-18.6
 21
-31.40000000000001
  0
LINE
  5
BD
100
AcDbEntity
  8
0
  6
CONTINUOUS
 62
  174
370
   -1
100
AcDbLine
 10
-18.89999999999999
 20
-30.80000000000001
 11
-27.29999999999999
 21
-30.8
  0
LINE
  5
BE
100
AcDbEntity
  8
0
  6
CONTINUOUS
 62
  174
370
   -1
100
AcDbLine
 10
-27.59999999999999
 20
-31.10000000000001
 11
-27.59999999999999
 21
-31.4
  0
LINE
  5
BF
100
AcDbEntity
  8
0
  6
CONTINUOUS
 62
  174
370
   -1
100
AcDbLine
 10
-28.39999999999999
 20
-31.10000000000001
 11
-28.39999999999999
 21
-31.40000000000001
  0
LINE
  5
C0
100
AcDbEntity
  8
0
  6
CONTINUOUS
 62
  174
370
   -1
100
AcDbLine
 10
-28.69999999999999
 20
-30.80000000000001
 11
-38.9
 21
-30.80000000000002
  0
LINE
  5
C1
100
AcDbEntity
  8
0
  6
CONTINUOUS
 62
  174
370
   -1
100
AcDbLine
 10
-39.2
 20
-31.1
 11
-39.19999999999998
 21
-31.40000000000001
  0
LINE
  5
C2
100
AcDbEntity
  8
0
  6
CONTINUOUS
 62
  174
370
   -1
100
AcDbLine
 10
-39.99999999999999
 20
-31.1
 11
-39.99999999999998
 21
-31.40000000000001
  0
LINE
  5
C3
100
AcDbEntity
  8
0
  6
CONTINUOUS
 62
  174
370
   -1
100
AcDbLine
 10
-40.29999999999999
 20
-30.80000000000001
 11
-48.69999999999999
 21
-30.80000000000002
  0
LINE
  5
C4
100
AcDbEntity
  8
0
  6
CONTINUOUS
 62
  174
370
   -1
100
AcDbLine
 10
-48.99999999999999
 20
-31.10000000000002
 11
-48.99999999999999
 21
-31.40000000000002
  0
LINE
  5
C5
100
AcDbEntity
  8
0
  6
CONTINUOUS
 62
  174
370
   -1
100
AcDbLine
 10
-49.8
 20
-31.10000000000001
 11
-49.79999999999998
 21
-31.40000000000001
  0
LINE
  5
C6
100
AcDbEntity
  8
0
  6
CONTINUOUS
 62
  174
370
   -1
100
AcDbLine
 10
-50.09999999999999
 20
-30.80000000000001
 11
-50.90999999999998
 21
-30.80000000000002
  0
LINE
  5
C7
100
AcDbEntity
  8
0
  6
CONTINUOUS
 62
  174
370
   -1
100
AcDbLine
 10
-51.50999999999998
 20
-30.96000000000002
 11
-53.04999999999999
 21
-31.85000000000002
  0
LINE
  5
C8
100
AcDbEntity
  8
0
  6
CONTINUOUS
 62
  174
370
   -1
100
AcDbLine
 10
-53.04999999999999
 20
-31.85000000000002
 11
-53.49999999999999
 21
-31.85000000000002
  0
LINE
  5
C9
100
AcDbEntity
  8
0
  6
CONTINUOUS
 62
  174
370
   -1
100
AcDbLine
 10
-53.74999999999998
 20
-28.00000000000001
 11
-53.74999999999999
 21
-31.60000000000002
  0
LINE
  5
CA
100
AcDbEntity
  8
0
  6
CONTINUOUS
 62
  174
370
   -1
100
AcDbLine
 10
-53.04999999999999
 20
-27.75000000000002
 11
-53.49999999999999
 21
-27.75000000000001
  0
LINE
  5
CB
100
AcDbEntity
  8
0
  6
CONTINUOUS
 62
  174
370
   -1
100
AcDbLine
 10
-51.56999999999999
 20
-28.60000000000001
 11
-53.04999999999999
 21
-27.75000000000002
  0
LINE
  5
CC
100
AcDbEntity
  8
0
  6
CONTINUOUS
 62
  174
370
   -1
100
AcDbLine
 10
-50.82
 20
-28.65000000000001
 11
-51.39999999999998
 21
-28.65000000000001
  0
LINE
  5
CD
100
AcDbEntity
  8
0
  6
CONTINUOUS
 62
  174
370
   -1
100
AcDbLine
 10
-48.23999999999999
 20
-26.21000000000002
 11
-50.57999999999998
 21
-28.55000000000001
  0
LINE
  5
CE
100
AcDbEntity
  8
0
  6
CONTINUOUS
 62
  174
370
   -1
100
AcDbLine
 10
-47.64999999999999
 20
-20.50000000000001
 11
-47.64999999999999
 21
-24.79000000000001
  0
LINE
  5
CF
100
AcDbEntity
  8
0
  6
CONTINUOUS
 62
  174
370
   -1
100
AcDbLine
 10
-20.44999999999999
 20
-20.00000000000001
 11
-47.14999999999999
 21
-20.00000000000002
  0
LINE
  5
D0
100
AcDbEntity
  8
0
  6
CONTINUOUS
 62
  174
370
   -1
100
AcDbLine
 10
-29.49999999999999
 20
-21.00000000000001
 11
-38.09999999999999
 21
-21.00000000000001
  0
LINE
  5
D1
100
AcDbEntity
  8
0
  6
CONTINUOUS
 62
  174
370
   -1
100
AcDbLine
 10
-28.5
 20
-22.00000000000001
 11
-28.49999999999999
 21
-28.80000000000001
  0
LINE
  5
D2
100
AcDbEntity
  8
0
  6
CONTINUOUS
 62
  174
370
   -1
100
AcDbLine
 10
-29.49999999999999
 20
-29.80000000000001
 11
-38.09999999999999
 21
-29.80000000000001
  0
LINE
  5
D3
100
AcDbEntity
  8
0
  6
CONTINUOUS
 62
  174
370
   -1
100
AcDbLine
 10
-39.09999999999999
 20
-22.00000000000001
 11
-39.09999999999999
 21
-28.80000000000001
  0
LINE
  5
D4
100
AcDbEntity
  8
0
  6
CONTINUOUS
 62
  174
370
   -1
100
AcDbLine
 10
-21.95
 20
-21
 11
-26.5
 21
-21.00000000000001
  0
LINE
  5
D5
100
AcDbEntity
  8
0
  6
CONTINUOUS
 62
  174
370
   -1
100
AcDbLine
 10
-20.94999999999999
 20
-22.00000000000001
 11
-20.94999999999998
 21
-25.14
  0
LINE
  5
D6
100
AcDbEntity
  8
0
  6
CONTINUOUS
 62
  174
370
   -1
100
AcDbLine
 10
-18.31000999999999
 20
-28.61000000000001
 11
-20.35999999999999
 21
-26.56000000000001
  0
LINE
  5
D7
100
AcDbEntity
  8
0
  6
CONTINUOUS
 62
  174
370
   -1
100
AcDbLine
 10
-18.80999999999998
 20
-29.8
 11
-26.49999999999999
 21
-29.80000000000001
  0
LINE
  5
D8
100
AcDbEntity
  8
0
  6
CONTINUOUS
 62
  174
370
   -1
100
AcDbLine
 10
-27.49999999999999
 20
-22.00000000000001
 11
-27.49999999999999
 21
-28.80000000000001
  0
LINE
  5
D9
100
AcDbEntity
  8
0
  6
CONTINUOUS
 62
  174
370
   -1
100
AcDbLine
 10
-41.1
 20
-29.80000000000001
 11
-48.78999999999998
 21
-29.80000000000001
  0
LINE
  5
DA
100
AcDbEntity
  8
0
  6
CONTINUOUS
 62
  174
370
   -1
100
AcDbLine
 10
-47.24
 20
-26.55
 11
-49.28999999999999
 21
-28.60000000000001
  0
LINE
  5
DB
100
AcDbEntity
  8
0
  6
CONTINUOUS
 62
  174
370
   -1
100
AcDbLine
 10
-46.64999999999999
 20
-22.00000000000001
 11
-46.64999999999998
 21
-25.14000000000001
  0
LINE
  5
DC
100
AcDbEntity
  8
0
  6
CONTINUOUS
 62
  174
370
   -1
100
AcDbLine
 10
-41.09999999999999
 20
-21.00000000000001
 11
-45.64999999999998
 21
-21.00000000000002
  0
LINE
  5
DD
100
AcDbEntity
  8
0
  6
CONTINUOUS
 62
  174
370
   -1
100
AcDbLine
 10
-40.09999999999999
 20
-22.00000000000001
 11
-40.09998999999998
 21
-28.80000000000001
  0
LINE
  5
DE
100
AcDbEntity
  8
0
  6
CONTINUOUS
 62
  174
370
   -1
100
AcDbLine
 10
-55.39999999999999
 20
-23.75
 11
-55.39999999999999
 21
-32.90000000000002
  0
LINE
  5
DF
100
AcDbEntity
  8
0
  6
CONTINUOUS
 62
  174
370
   -1
100
AcDbLine
 10
-55.39999999999999
 20
-23.75
 11
-56.89999999999998
 21
-23.75000000000002
  0
LINE
  5
E0
100
AcDbEntity
  8
0
  6
CONTINUOUS
 62
  174
370
   -1
100
AcDbLine
 10
-56.89999999999998
 20
-23.60000000000002
 11
-56.89999999999998
 21
-23.75000000000002
  0
LINE
  5
E1
100
AcDbEntity
  8
0
  6
CONTINUOUS
 62
  174
370
   -1
100
AcDbLine
 10
-56.89999999999998
 20
-23.60000000000002
 11
-59.8
 21
-23.60000000000001
  0
LINE
  5
E2
100
AcDbEntity
  8
0
  6
CONTINUOUS
 62
  174
370
   -1
100
AcDbLine
 10
-59.8
 20
-23.60000000000001
 11
-59.8
 21
-23.75000000000002
  0
LINE
  5
E3
100
AcDbEntity
  8
0
  6
CONTINUOUS
 62
  174
370
   -1
100
AcDbLine
 10
-59.8
 20
-23.75000000000002
 11
-70.19999999999999
 21
-23.75000000000002
  0
LINE
  5
E4
100
AcDbEntity
  8
0
  6
CONTINUOUS
 62
  174
370
   -1
100
AcDbLine
 10
-70.19999999999999
 20
-23.60000000000002
 11
-70.19999999999999
 21
-23.75000000000002
  0
LINE
  5
E5
100
AcDbEntity
  8
0
  6
CONTINUOUS
 62
  174
370
   -1
100
AcDbLine
 10
-70.19999999999999
 20
-23.60000000000002
 11
-81.79999999999998
 21
-23.60000000000002
  0
LINE
  5
E6
100
AcDbEntity
  8
0
  6
CONTINUOUS
 62
  174
370
   -1
100
AcDbLine
 10
-81.79999999999998
 20
-23.60000000000002
 11
-81.79999999999998
 21
-23.75000000000002
  0
LINE
  5
E7
100
AcDbEntity
  8
0
  6
CONTINUOUS
 62
  174
370
   -1
100
AcDbLine
 10
-81.79999999999998
 20
-23.75000000000002
 11
-83.29999999999997
 21
-23.75000000000002
  0
LINE
  5
E8
100
AcDbEntity
  8
0
  6
CONTINUOUS
 62
  174
370
   -1
100
AcDbLine
 10
-83.29999999999997
 20
-23.75000000000002
 11
-83.29999999999995
 21
-68.40000000000002
  0
LINE
  5
E9
100
AcDbEntity
  8
0
  6
CONTINUOUS
 62
  174
370
   -1
100
AcDbLine
 10
-79.69999999999997
 20
-68.40000000000003
 11
-83.29999999999995
 21
-68.40000000000002
  0
LINE
  5
EA
100
AcDbEntity
  8
0
  6
CONTINUOUS
 62
  174
370
   -1
100
AcDbLine
 10
-79.69999999999997
 20
-68.25000000000003
 11
-79.69999999999997
 21
-68.40000000000003
  0
LINE
  5
EB
100
AcDbEntity
  8
0
  6
CONTINUOUS
 62
  174
370
   -1
100
AcDbLine
 10
-69.29999999999997
 20
-68.25000000000003
 11
-79.69999999999997
 21
-68.25000000000003
  0
LINE
  5
EC
100
AcDbEntity
  8
0
  6
CONTINUOUS
 62
  174
370
   -1
100
AcDbLine
 10
-69.29999999999997
 20
-68.25000000000003
 11
-69.29999999999997
 21
-68.40000000000003
  0
LINE
  5
ED
100
AcDbEntity
  8
0
  6
CONTINUOUS
 62
  174
370
   -1
100
AcDbLine
 10
-56.89999999999998
 20
-68.40000000000002
 11
-69.29999999999997
 21
-68.40000000000003
  0
LINE
  5
EE
100
AcDbEntity
  8
0
  6
CONTINUOUS
 62
  174
370
   -1
100
AcDbLine
 10
-56.89999999999998
 20
-68.25000000000001
 11
-56.89999999999998
 21
-68.40000000000002
  0
LINE
  5
EF
100
AcDbEntity
  8
0
  6
CONTINUOUS
 62
  174
370
   -1
100
AcDbLine
 10
-55.39999999999999
 20
-68.25000000000003
 11
-56.89999999999998
 21
-68.25000000000001
  0
LINE
  5
F0
100
AcDbEntity
  8
0
  6
CONTINUOUS
 62
  174
370
   -1
100
AcDbLine
 10
-55.39999999999996
 20
-62.60000000000002
 11
-55.39999999999999
 21
-68.25000000000003
  0
LINE
  5
F1
100
AcDbEntity
  8
0
  6
CONTINUOUS
 62
  174
370
   -1
100
AcDbLine
 10
-52.89999999999998
 20
-61.60000000000002
 11
-54.39999999999998
 21
-61.60000000000002
  0
LINE
  5
F2
100
AcDbEntity
  8
0
  6
CONTINUOUS
 62
  174
370
   -1
100
AcDbLine
 10
-52.89999999999998
 20
-33.90000000000001
 11
-52.89999999999998
 21
-61.60000000000002
  0
LINE
  5
F3
100
AcDbEntity
  8
0
  6
CONTINUOUS
 62
  174
370
   -1
100
AcDbLine
 10
-52.89999999999998
 20
-33.90000000000001
 11
-54.39999999999999
 21
-33.90000000000001
  0
LINE
  5
F4
100
AcDbEntity
  8
0
  6
CONTINUOUS
 62
  174
370
   -1
100
AcDbLine
 10
-50.82999999999999
 20
-28.60000000000002
 11
-51.41999999999999
 21
-28.60000000000002
  0
LINE
  5
F5
100
AcDbEntity
  8
0
  6
CONTINUOUS
 62
  174
370
   -1
100
AcDbLine
 10
-49.31
 20
-27.21000000000002
 11
-50.61999999999998
 21
-28.52000000000001
  0
LINE
  5
F6
100
AcDbEntity
  8
0
  6
CONTINUOUS
 62
  174
370
   -1
100
AcDbLine
 10
-50.01999999999999
 20
-25.50000000000001
 11
-53.79999999999999
 21
-25.50000000000001
  0
LINE
  5
F7
100
AcDbEntity
  8
0
  6
CONTINUOUS
 62
  174
370
   -1
100
AcDbLine
 10
-53.8
 20
-22.00000000000001
 11
-53.79999999999999
 21
-25.50000000000001
  0
LINE
  5
F8
100
AcDbEntity
  8
0
  6
CONTINUOUS
 62
  174
370
   -1
100
AcDbLine
 10
-53.49999999999999
 20
-22.00000000000001
 11
-53.8
 21
-22.00000000000001
  0
LINE
  5
F9
100
AcDbEntity
  8
0
  6
CONTINUOUS
 62
  174
370
   -1
100
AcDbLine
 10
-53.5
 20
-17.5
 11
-53.49999999999999
 21
-22.00000000000001
  0
LINE
  5
FA
100
AcDbEntity
  8
0
  6
CONTINUOUS
 62
  174
370
   -1
100
AcDbLine
 10
-53.5
 20
-17.5
 11
-57.49999999999999
 21
-17.50000000000002
  0
LINE
  5
FB
100
AcDbEntity
  8
0
  6
CONTINUOUS
 62
  174
370
   -1
100
AcDbLine
 10
-57.49999999999999
 20
-17.50000000000002
 11
-57.49999999999999
 21
-19.00000000000001
  0
LINE
  5
FC
100
AcDbEntity
  8
0
  6
CONTINUOUS
 62
  174
370
   -1
100
AcDbLine
 10
-54.99999999999999
 20
-19.00000000000001
 11
-57.49999999999999
 21
-19.00000000000001
  0
LINE
  5
FD
100
AcDbEntity
  8
0
  6
CONTINUOUS
 62
  174
370
   -1
100
AcDbLine
 10
-54.99999999999999
 20
-19.00000000000001
 11
-54.99999999999999
 21
-22.00000000000001
  0
LINE
  5
FE
100
AcDbEntity
  8
0
  6
CONTINUOUS
 62
  174
370
   -1
100
AcDbLine
 10
-54.99999999999999
 20
-22.00000000000001
 11
-64.69999999999999
 21
-22.00000000000002
  0
LINE
  5
FF
100
AcDbEntity
  8
0
  6
CONTINUOUS
 62
  174
370
   -1
100
AcDbLine
 10
-64.69999999999999
 20
-22.00000000000002
 11
-65
 21
-22.30000000000003
  0
LINE
  5
100
100
AcDbEntity
  8
0
  6
CONTINUOUS
 62
  174
370
   -1
100
AcDbLine
 10
-65
 20
-22.30000000000003
 11
-65.29999999999998
 21
-22.00000000000001
  0
LINE
  5
101
100
AcDbEntity
  8
0
  6
CONTINUOUS
 62
  174
370
   -1
100
AcDbLine
 10
-65.29999999999998
 20
-22.00000000000001
 11
-74.99999999999997
 21
-22.00000000000002
  0
LINE
  5
102
100
AcDbEntity
  8
0
  6
CONTINUOUS
 62
  174
370
   -1
100
AcDbLine
 10
-74.99999999999997
 20
-19.00000000000002
 11
-74.99999999999997
 21
-22.00000000000002
  0
LINE
  5
103
100
AcDbEntity
  8
0
  6
CONTINUOUS
 62
  174
370
   -1
100
AcDbLine
 10
-72.49999999999997
 20
-19.00000000000002
 11
-74.99999999999997
 21
-19.00000000000002
  0
LINE
  5
104
100
AcDbEntity
  8
0
  6
CONTINUOUS
 62
  174
370
   -1
100
AcDbLine
 10
-72.5
 20
-17.50000000000002
 11
-72.49999999999997
 21
-19.00000000000002
  0
LINE
  5
105
100
AcDbEntity
  8
0
  6
CONTINUOUS
 62
  174
370
   -1
100
AcDbLine
 10
-72.5
 20
-17.50000000000002
 11
-76.99999999999997
 21
-17.50000000000002
  0
LINE
  5
106
100
AcDbEntity
  8
0
  6
CONTINUOUS
 62
  174
370
   -1
100
AcDbLine
 10
-76.99999999999997
 20
-17.50000000000002
 11
-77
 21
-19.00000000000004
  0
LINE
  5
107
100
AcDbEntity
  8
0
  6
CONTINUOUS
 62
  174
370
   -1
100
AcDbLine
 10
-76.5
 20
-19.00000000000002
 11
-77
 21
-19.00000000000004
  0
LINE
  5
108
100
AcDbEntity
  8
0
  6
CONTINUOUS
 62
  174
370
   -1
100
AcDbLine
 10
-76.5
 20
-19.00000000000002
 11
-76.5
 21
-21.00000000000002
  0
LINE
  5
109
100
AcDbEntity
  8
0
  6
CONTINUOUS
 62
  174
370
   -1
100
AcDbLine
 10
-76.5
 20
-21.00000000000002
 11
-77
 21
-21.00000000000003
  0
LINE
  5
10A
100
AcDbEntity
  8
0
  6
CONTINUOUS
 62
  174
370
   -1
100
AcDbLine
 10
-77
 20
-21.00000000000003
 11
-76.99999999999997
 21
-22.00000000000002
  0
LINE
  5
10B
100
AcDbEntity
  8
0
  6
CONTINUOUS
 62
  174
370
   -1
100
AcDbLine
 10
-76.99999999999997
 20
-22.00000000000002
 11
-82.12999999999998
 21
-22.00000000000004
  0
LINE
  5
10C
100
AcDbEntity
  8
0
  6
CONTINUOUS
 62
  174
370
   -1
100
AcDbLine
 10
-83.12999999999997
 20
-21.03000000000002
 11
-83.5
 21
-6.600000000000016
  0
LINE
  5
10D
100
AcDbEntity
  8
0
  6
CONTINUOUS
 62
  174
370
   -1
100
AcDbLine
 10
-81.81
 20
-6.600000000000023
 11
-83.51000000000001
 21
-6.600000000000023
  0
LINE
  5
10E
100
AcDbEntity
  8
0
  6
CONTINUOUS
 62
  174
370
   -1
100
AcDbLine
 10
-81.81
 20
-6.600000000000023
 11
-81.81
 21
-7.000000000000028
  0
LINE
  5
10F
100
AcDbEntity
  8
0
  6
CONTINUOUS
 62
  174
370
   -1
100
AcDbLine
 10
-80.3
 20
-7.000000000000028
 11
-81.79999999999998
 21
-7.000000000000014
  0
LINE
  5
110
100
AcDbEntity
  8
0
  6
CONTINUOUS
 62
  174
370
   -1
100
AcDbLine
 10
-80
 20
-5.100000000000016
 11
-80
 21
-6.69999900000002
  0
LINE
  5
111
100
AcDbEntity
  8
0
  6
CONTINUOUS
 62
  174
370
   -1
100
AcDbLine
 10
-80.29999999999998
 20
-4.800000000000026
 11
-80.90000000000001
 21
-4.800000000000018
  0
LINE
  5
112
100
AcDbEntity
  8
0
  6
CONTINUOUS
 62
  174
370
   -1
100
AcDbLine
 10
-81.19999999999999
 20
-5.100000000000016
 11
-81.20000000000002
 21
-5.510000000000026
  0
LINE
  5
113
100
AcDbEntity
  8
0
  6
CONTINUOUS
 62
  174
370
   -1
100
AcDbLine
 10
-81.47
 20
-5.700000000000024
 11
-83.26999999999998
 21
-5.040000000000035
  0
LINE
  5
114
100
AcDbEntity
  8
0
  6
CONTINUOUS
 62
  174
370
   -1
100
AcDbLine
 10
-83.59999999999999
 20
-1.700000000000024
 11
-83.59999999999999
 21
-4.580000000000027
  0
LINE
  5
115
100
AcDbEntity
  8
0
  6
CONTINUOUS
 62
  174
370
   -1
100
AcDbLine
 10
-81.20000000000002
 20
-1.200000000000017
 11
-83.09999999999999
 21
-1.200000000000017
  0
LINE
  5
116
100
AcDbEntity
  8
0
  6
CONTINUOUS
 62
  174
370
   -1
100
AcDbLine
 10
-81.20000000000002
 20
-1.200000000000017
 11
-81.20000000000002
 21
-1.90000000000002
  0
LINE
  5
117
100
AcDbEntity
  8
0
  6
CONTINUOUS
 62
  174
370
   -1
100
AcDbLine
 10
-80.3
 20
-2.200000000000031
 11
-80.90000000000001
 21
-2.200001000000022
  0
LINE
  5
118
100
AcDbEntity
  8
0
  6
CONTINUOUS
 62
  174
370
   -1
100
AcDbLine
 10
-80
 20
-0.3000001000000196
 11
-80
 21
-1.90000000000002
  0
LINE
  5
119
100
AcDbEntity
  8
0
  6
CONTINUOUS
 62
  174
370
   -1
100
AcDbLine
 10
-80.3
 20
-2.842170943040401e-14
 11
-83.5
 21
-1.398764268856212e-07
  0
LINE
  5
11A
100
AcDbEntity
  8
0
  6
CONTINUOUS
 62
  174
370
   -1
100
AcDbLine
 10
-85
 20
-1.500000000000021
 11
-84.99999999999997
 21
-74.73000000000003
  0
LINE
  5
11B
100
AcDbEntity
  8
0
  6
CONTINUOUS
 62
  174
370
   -1
100
AcDbLine
 10
-82.42999999999998
 20
-75.00000000000001
 11
-84.70999999999997
 21
-75.00000000000003
  0
LINE
  5
11C
100
AcDbEntity
  8
0
  6
CONTINUOUS
 62
  174
370
   -1
100
AcDbLine
 10
-81.49999999999997
 20
-73.40000000000001
 11
-82.41999999999997
 21
-75.00000000000003
  0
LINE
  5
11D
100
AcDbEntity
  8
0
  6
CONTINUOUS
 62
  174
370
   -1
100
AcDbLine
 10
-81.5
 20
-73
 11
-81.49999999999997
 21
-73.40000000000001
  0
LINE
  5
11E
100
AcDbEntity
  8
0
  6
CONTINUOUS
 62
  174
370
   -1
100
AcDbLine
 10
-81.5
 20
-73
 11
-83.39999999999998
 21
-73.00000000000004
  0
LINE
  5
11F
100
AcDbEntity
  8
0
  6
CONTINUOUS
 62
  174
370
   -1
100
AcDbLine
 10
-83.40000000000001
 20
-70
 11
-83.39999999999998
 21
-73.00000000000004
  0
LINE
  5
120
100
AcDbEntity
  8
0
  6
CONTINUOUS
 62
  174
370
   -1
100
AcDbLine
 10
-74.79999999999997
 20
-70.00000000000003
 11
-83.40000000000001
 21
-70
  0
LINE
  5
121
100
AcDbEntity
  8
0
  6
CONTINUOUS
 62
  174
370
   -1
100
AcDbLine
 10
-74.49999999999997
 20
-69.70000000000003
 11
-74.79999999999997
 21
-70.00000000000003
  0
LINE
  5
122
100
AcDbEntity
  8
0
  6
CONTINUOUS
 62
  174
370
   -1
100
AcDbLine
 10
-74.19999999999997
 20
-70.00000000000003
 11
-74.49999999999997
 21
-69.70000000000003
  0
LINE
  5
123
100
AcDbEntity
  8
0
  6
CONTINUOUS
 62
  174
370
   -1
100
AcDbLine
 10
-65.69999999999999
 20
-70.00000000000003
 11
-74.19999999999997
 21
-70.00000000000003
  0
LINE
  5
124
100
AcDbEntity
  8
0
  6
CONTINUOUS
 62
  174
370
   -1
100
AcDbLine
 10
-65.69999999999999
 20
-70.00000000000003
 11
-65.69999999999997
 21
-73.00000000000003
  0
LINE
  5
125
100
AcDbEntity
  8
0
  6
CONTINUOUS
 62
  174
370
   -1
100
AcDbLine
 10
-65.69999999999997
 20
-73.00000000000003
 11
-67.49999999999999
 21
-73.00000000000004
  0
LINE
  5
126
100
AcDbEntity
  8
0
  6
CONTINUOUS
 62
  174
370
   -1
100
AcDbLine
 10
-67.49999999999999
 20
-73.00000000000004
 11
-67.49999999999997
 21
-73.40000000000002
  0
LINE
  5
127
100
AcDbEntity
  8
0
  6
CONTINUOUS
 62
  174
370
   -1
100
AcDbLine
 10
-66.57999999999997
 20
-75.00000000000003
 11
-67.49999999999997
 21
-73.40000000000002
  0
LINE
  5
128
100
AcDbEntity
  8
0
  6
CONTINUOUS
 62
  174
370
   -1
100
AcDbLine
 10
-64.59999999999997
 20
-75.00000000000001
 11
-66.56999999999996
 21
-75
  0
LINE
  5
129
100
AcDbEntity
  8
0
  6
CONTINUOUS
 62
  174
370
   -1
100
AcDbLine
 10
-64.29999999999997
 20
-70.00000000000003
 11
-64.29999999999997
 21
-74.70000000000002
  0
LINE
  5
12A
100
AcDbEntity
  8
0
  6
CONTINUOUS
 62
  174
370
   -1
100
AcDbLine
 10
-50.01999999999999
 20
-70.00000000000001
 11
-64.30999999999997
 21
-69.99999000000001
  0
LINE
  5
12B
100
AcDbEntity
  8
0
  6
CONTINUOUS
 62
  174
370
   -1
100
AcDbLine
 10
-49.30999999999998
 20
-68.29000000000003
 11
-50.61999999999998
 21
-66.98000000000003
  0
LINE
  5
12C
100
AcDbEntity
  8
0
  6
CONTINUOUS
 62
  174
370
   -1
100
AcDbLine
 10
-50.82999999999998
 20
-66.90000000000003
 11
-51.41999999999999
 21
-66.90000000000003
  0
LINE
  5
12D
100
AcDbEntity
  8
0
  6
CONTINUOUS
 62
  174
370
   -1
100
AcDbLine
 10
-51.55999999999999
 20
-66.94000000000001
 11
-53.04999999999997
 21
-67.80000000000003
  0
LINE
  5
12E
100
AcDbEntity
  8
0
  6
CONTINUOUS
 62
  174
370
   -1
100
AcDbLine
 10
-53.04999999999997
 20
-67.80000000000003
 11
-53.49999999999999
 21
-67.8
  0
LINE
  5
12F
100
AcDbEntity
  8
0
  6
CONTINUOUS
 62
  174
370
   -1
100
AcDbLine
 10
-53.79999999999998
 20
-63.90000000000001
 11
-53.79999999999998
 21
-67.50000000000001
  0
LINE
  5
130
100
AcDbEntity
  8
0
  6
CONTINUOUS
 62
  174
370
   -1
100
AcDbLine
 10
-53.04999999999997
 20
-63.60000000000002
 11
-53.49999999999999
 21
-63.60000000000002
  0
LINE
  5
131
100
AcDbEntity
  8
0
  6
CONTINUOUS
 62
  174
370
   -1
100
AcDbLine
 10
-51.70999999999998
 20
-64.38000000000001
 11
-53.04999999999997
 21
-63.60000000000002
  0
LINE
  5
132
100
AcDbEntity
  8
0
  6
CONTINUOUS
 62
  174
370
   -1
100
AcDbLine
 10
-51.56000999999998
 20
-64.45999999999999
 11
-51.70999999999998
 21
-64.38000000000001
  0
LINE
  5
133
100
AcDbEntity
  8
0
  6
CONTINUOUS
 62
  174
370
   -1
100
AcDbLine
 10
-51.30999999999997
 20
-64.50000000000001
 11
-51.41999999999997
 21
-64.50000000000003
  0
LINE
  5
134
100
AcDbEntity
  8
0
  6
CONTINUOUS
 62
  174
370
   -1
100
AcDbLine
 10
-51.30999999999998
 20
-31.00000000000001
 11
-51.30999999999997
 21
-64.50000000000001
  0
LINE
  5
135
100
AcDbEntity
  8
0
  6
CONTINUOUS
 62
  174
370
   -1
100
AcDbLine
 10
-51.30999999999998
 20
-31.00000000000001
 11
-51.41999999999999
 21
-31.00000000000002
  0
LINE
  5
136
100
AcDbEntity
  8
0
  6
CONTINUOUS
 62
  174
370
   -1
100
AcDbLine
 10
-51.55999999999999
 20
-31.04000000000001
 11
-53.04999999999999
 21
-31.90000000000002
  0
LINE
  5
137
100
AcDbEntity
  8
0
  6
CONTINUOUS
 62
  174
370
   -1
100
AcDbLine
 10
-53.04999999999999
 20
-31.90000000000002
 11
-53.49999999999999
 21
-31.90000000000001
  0
LINE
  5
138
100
AcDbEntity
  8
0
  6
CONTINUOUS
 62
  174
370
   -1
100
AcDbLine
 10
-53.79999999999999
 20
-28.00000000000001
 11
-53.79999999999998
 21
-31.60000000000002
  0
LINE
  5
139
100
AcDbEntity
  8
0
  6
CONTINUOUS
 62
  174
370
   -1
100
AcDbLine
 10
-53.04999999999999
 20
-27.70000000000002
 11
-53.49999999999999
 21
-27.70000000000001
  0
LINE
  5
13A
100
AcDbEntity
  8
0
  6
CONTINUOUS
 62
  174
370
   -1
100
AcDbLine
 10
-51.56
 20
-28.56000000000001
 11
-53.04999999999999
 21
-27.70000000000002
  0
LINE
  5
13B
100
AcDbEntity
  8
0
  6
CONTINUOUS
 62
  174
370
   -1
100
AcDbLine
 10
-0.2300033999999869
 20
-34.23
 11
1.4210854715202e-14
 21
-34.8
  0
LINE
  5
13C
100
AcDbEntity
  8
0
  6
CONTINUOUS
 62
  174
370
   -1
100
AcDbLine
 10
-0.8000030999999908
 20
-34
 11
-0.2300033999999869
 21
-34.23
  0
LINE
  5
13D
100
AcDbEntity
  8
0
  6
CONTINUOUS
 62
  174
370
   -1
100
AcDbLine
 10
-0.8000030999999908
 20
-34
 11
-1.37000299999999
 21
-34.22999999999999
  0
LINE
  5
13E
100
AcDbEntity
  8
0
  6
CONTINUOUS
 62
  174
370
   -1
100
AcDbLine
 10
-1.37000299999999
 20
-34.22999999999999
 11
-1.600005999999986
 21
-34.8
  0
LINE
  5
13F
100
AcDbEntity
  8
0
  6
CONTINUOUS
 62
  174
370
   -1
100
AcDbLine
 10
-1.599990999999989
 20
-34.8
 11
-1.599997999999985
 21
-37.3
  0
LINE
  5
140
100
AcDbEntity
  8
0
  6
CONTINUOUS
 62
  174
370
   -1
100
AcDbLine
 10
-5.499999999999986
 20
-37.3
 11
-1.599997999999985
 21
-37.3
  0
LINE
  5
141
100
AcDbEntity
  8
0
  6
CONTINUOUS
 62
  174
370
   -1
100
AcDbLine
 10
-5.499999999999989
 20
-25.7
 11
-5.499999999999986
 21
-37.3
  0
LINE
  5
142
100
AcDbEntity
  8
0
  6
CONTINUOUS
 62
  174
370
   -1
100
AcDbLine
 10
-5.699996999999989
 20
-25.21
 11
-5.489997999999989
 21
-25.71
  0
LINE
  5
143
100
AcDbEntity
  8
0
  6
CONTINUOUS
 62
  174
370
   -1
100
AcDbLine
 10
-6.199996999999991
 20
-25
 11
-5.71000699999999
 21
-25.21
  0
LINE
  5
144
100
AcDbEntity
  8
0
  6
CONTINUOUS
 62
  174
370
   -1
100
AcDbLine
 10
-6.199996999999991
 20
-25
 11
-6.689994999999993
 21
-25.21000000000001
  0
LINE
  5
145
100
AcDbEntity
  8
0
  6
CONTINUOUS
 62
  174
370
   -1
100
AcDbLine
 10
-6.690001999999993
 20
-25.21
 11
-6.900001999999988
 21
-25.7
  0
LINE
  5
146
100
AcDbEntity
  8
0
  6
CONTINUOUS
 62
  174
370
   -1
100
AcDbLine
 10
-6.900001999999988
 20
-25.7
 11
-6.900001999999986
 21
-27.3
  0
LINE
  5
147
100
AcDbEntity
  8
0
  6
CONTINUOUS
 62
  174
370
   -1
100
AcDbLine
 10
-16.77999999999998
 20
-66.84999999999999
 11
-17.02999999999998
 21
-66.95
  0
LINE
  5
148
100
AcDbEntity
  8
0
  6
CONTINUOUS
 62
  174
370
   -1
100
AcDbLine
 10
-16.02999999999997
 20
-66.89999
 11
-16.19998999999998
 21
-66.85518000000002
  0
LINE
  5
149
100
AcDbEntity
  8
0
  6
CONTINUOUS
 62
  174
370
   -1
100
AcDbLine
 10
-14.09999999999997
 20
-67.75
 11
-13.84999999999998
 21
-67.50001
  0
LINE
  5
14A
100
AcDbEntity
  8
0
  6
CONTINUOUS
 62
  174
370
   -1
100
AcDbLine
 10
-13.84999999999998
 20
-63.9
 11
-14.09999999999997
 21
-63.65000000000001
  0
LINE
  5
14B
100
AcDbEntity
  8
0
  6
CONTINUOUS
 62
  174
370
   -1
100
AcDbLine
 10
-16.19999999999998
 20
-64.55
 11
-16.02999999999998
 21
-64.5
  0
ARC
  5
14C
100
AcDbEntity
  8
0
  6
CONTINUOUS
 62
  174
370
   -1
100
AcDbCircle
 10
-16.48999999999997
 20
-63.5
 40
1.046518000000009
100
AcDbArc
 50
-134.9999987477609
 51
-89.99999749552178
  0
ARC
  5
14D
100
AcDbEntity
  8
0
  6
CONTINUOUS
 62
  174
370
   -1
100
AcDbCircle
 10
-18.07999999999998
 20
-64.80000000000001
 40
1.004091999999994
100
AcDbArc
 50
44.999996015912
 51
90.00000068324499
  0
ARC
  5
14E
100
AcDbEntity
  8
0
  6
CONTINUOUS
 62
  174
370
   -1
100
AcDbCircle
 10
-49.51999999999997
 20
-64.80000000000001
 40
1.000000000000008
100
AcDbArc
 50
90.00000068324499
 51
134.999991690201
  0
ARC
  5
14F
100
AcDbEntity
  8
0
  6
CONTINUOUS
 62
  174
370
   -1
100
AcDbCircle
 10
-51.10999999999998
 20
-63.5
 40
1.05
100
AcDbArc
 50
-89.99999749552178
 51
-44.99969913005399
  0
LINE
  5
150
100
AcDbEntity
  8
0
  6
CONTINUOUS
 62
  174
370
   -1
100
AcDbLine
 10
-51.56999999999998
 20
-64.50000000000001
 11
-51.39999999999997
 21
-64.55000000000001
  0
LINE
  5
151
100
AcDbEntity
  8
0
  6
CONTINUOUS
 62
  174
370
   -1
100
AcDbLine
 10
-53.49999999999999
 20
-63.65000000000001
 11
-53.74999999999999
 21
-63.90000000000001
  0
LINE
  5
152
100
AcDbEntity
  8
0
  6
CONTINUOUS
 62
  174
370
   -1
100
AcDbLine
 10
-53.74999999999997
 20
-67.5
 11
-53.49999999999999
 21
-67.75
  0
LINE
  5
153
100
AcDbEntity
  8
0
  6
CONTINUOUS
 62
  174
370
   -1
100
AcDbLine
 10
-51.40000999999998
 20
-66.85000000000001
 11
-51.56999999999996
 21
-66.89999000000003
  0
LINE
  5
154
100
AcDbEntity
  8
0
  6
CONTINUOUS
 62
  174
370
   -1
100
AcDbLine
 10
-50.56999999999999
 20
-66.95000000000003
 11
-50.81999999999999
 21
-66.85000000000001
  0
LINE
  5
155
100
AcDbEntity
  8
0
  6
CONTINUOUS
 62
  174
370
   -1
100
AcDbLine
 10
-47.66999999999998
 20
-69.84999999999999
 11
-47.31999999999997
 21
-69.99497
  0
LINE
  5
156
100
AcDbEntity
  8
0
  6
CONTINUOUS
 62
  174
370
   -1
100
AcDbLine
 10
-20.27999999999998
 20
-70
 11
-19.92999999999998
 21
-69.84999999999999
  0
ARC
  5
157
100
AcDbEntity
  8
0
  6
CONTINUOUS
 62
  174
370
   -1
100
AcDbCircle
 10
-26.49999999999998
 20
-68.20000000000002
 40
1.000000000000006
100
AcDbArc
 50
-180
 51
-89.99999749552178
  0
ARC
  5
158
100
AcDbEntity
  8
0
  6
CONTINUOUS
 62
  174
370
   -1
100
AcDbCircle
 10
-21.15999999999999
 20
-67.2
 40
1.999999999999991
100
AcDbArc
 50
-89.99999749552178
 51
-45.00008162064698
  0
ARC
  5
159
100
AcDbEntity
  8
0
  6
CONTINUOUS
 62
  174
370
   -1
100
AcDbCircle
 10
-18.62999999999998
 20
-65.8
 40
1.202082000000004
100
AcDbArc
 50
-44.99999965837696
 51
5.008956019655923e-06
  0
ARC
  5
15A
100
AcDbEntity
  8
0
  6
CONTINUOUS
 62
  174
370
   -1
100
AcDbCircle
 10
-18.62999999999998
 20
-65.8
 40
1.202082000000004
100
AcDbArc
 50
5.008956019655923e-06
 51
90.00000068324499
  0
ARC
  5
15B
100
AcDbEntity
  8
0
  6
CONTINUOUS
 62
  174
370
   -1
100
AcDbCircle
 10
-26.49999999999999
 20
-65.60000000000001
 40
0.9999999999999905
100
AcDbArc
 50
90.00000068324499
 51
-179.999989982087
  0
ARC
  5
15C
100
AcDbEntity
  8
0
  6
CONTINUOUS
 62
  174
370
   -1
100
AcDbCircle
 10
-29.49999999999998
 20
-65.60000000000001
 40
0.9999999999999905
100
AcDbArc
 50
5.008956019655923e-06
 51
90.00000068324499
  0
ARC
  5
15D
100
AcDbEntity
  8
0
  6
CONTINUOUS
 62
  174
370
   -1
100
AcDbCircle
 10
-38.09999999999998
 20
-65.59999999999999
 40
1.000000000000008
100
AcDbArc
 50
90.00021924929898
 51
-179.999989982087
  0
ARC
  5
15E
100
AcDbEntity
  8
0
  6
CONTINUOUS
 62
  174
370
   -1
100
AcDbCircle
 10
-38.09999999999998
 20
-68.2
 40
1.000000000000003
100
AcDbArc
 50
-180
 51
-89.99999749552178
  0
ARC
  5
15F
100
AcDbEntity
  8
0
  6
CONTINUOUS
 62
  174
370
   -1
100
AcDbCircle
 10
-29.49999999999998
 20
-68.20000000000002
 40
0.9999999999999905
100
AcDbArc
 50
-89.99978575965758
 51
5.008956019655923e-06
  0
ARC
  5
160
100
AcDbEntity
  8
0
  6
CONTINUOUS
 62
  174
370
   -1
100
AcDbCircle
 10
-48.97000999999997
 20
-65.80000000000003
 40
1.199999999999998
100
AcDbArc
 50
-179.999989982087
 51
-134.999753088322
  0
ARC
  5
161
100
AcDbEntity
  8
0
  6
CONTINUOUS
 62
  174
370
   -1
100
AcDbCircle
 10
-48.97000999999997
 20
-65.80000000000003
 40
1.199999999999998
100
AcDbArc
 50
90.00000068324499
 51
-179.999989982087
  0
ARC
  5
162
100
AcDbEntity
  8
0
  6
CONTINUOUS
 62
  174
370
   -1
100
AcDbCircle
 10
-46.43999999999998
 20
-67.20000000000002
 40
1.994041000000007
100
AcDbArc
 50
-134.9999202005855
 51
-89.99999749552178
  0
ARC
  5
163
100
AcDbEntity
  8
0
  6
CONTINUOUS
 62
  174
370
   -1
100
AcDbCircle
 10
-41.09999999999998
 20
-68.2
 40
0.999999999999998
100
AcDbArc
 50
-89.99999749552178
 51
5.008956019655923e-06
  0
ARC
  5
164
100
AcDbEntity
  8
0
  6
CONTINUOUS
 62
  174
370
   -1
100
AcDbCircle
 10
-41.09999999999998
 20
-65.59999999999999
 40
1.000000000000003
100
AcDbArc
 50
0.0004421410629907351
 51
90.00000068324499
  0
ARC
  5
165
100
AcDbEntity
  8
0
  6
CONTINUOUS
 62
  174
370
   -1
100
AcDbCircle
 10
-17.94999999999999
 20
-24.79
 40
2.000000000000011
100
AcDbArc
 50
-179.9998907169733
 51
-134.9999611817205
  0
LINE
  5
166
100
AcDbEntity
  8
0
  6
CONTINUOUS
 62
  174
370
   -1
100
AcDbLine
 10
-17.02999999999999
 20
-28.55
 11
-16.77999999999999
 21
-28.65000000000001
  0
LINE
  5
167
100
AcDbEntity
  8
0
  6
CONTINUOUS
 62
  174
370
   -1
100
AcDbLine
 10
-16.19999999999999
 20
-28.65
 11
-16.02999999999999
 21
-28.6
  0
LINE
  5
168
100
AcDbEntity
  8
0
  6
CONTINUOUS
 62
  174
370
   -1
100
AcDbLine
 10
-13.84999999999999
 20
-28
 11
-14.09999999999999
 21
-27.75000000000001
  0
LINE
  5
169
100
AcDbEntity
  8
0
  6
CONTINUOUS
 62
  174
370
   -1
100
AcDbLine
 10
-14.09999999999999
 20
-31.85000000000001
 11
-13.84999999999999
 21
-31.6
  0
ARC
  5
16A
100
AcDbEntity
  8
0
  6
CONTINUOUS
 62
  174
370
   -1
100
AcDbCircle
 10
-16.68999999999999
 20
-32.00000000000001
 40
1.200666000000004
100
AcDbArc
 50
60.01853015163803
 51
90.00000068324499
  0
LINE
  5
16B
100
AcDbEntity
  8
0
  6
CONTINUOUS
 62
  174
370
   -1
100
AcDbLine
 10
-17.49999999999999
 20
-30.8
 11
-17.79999999999999
 21
-31.10000000000001
  0
LINE
  5
16C
100
AcDbEntity
  8
0
  6
CONTINUOUS
 62
  174
370
   -1
100
AcDbLine
 10
-18.6
 20
-31.40000000000001
 11
-18.19999999999999
 21
-31.80000000000001
  0
LINE
  5
16D
100
AcDbEntity
  8
0
  6
CONTINUOUS
 62
  174
370
   -1
100
AcDbLine
 10
-18.19999999999999
 20
-31.80000000000001
 11
-17.79999999999999
 21
-31.4
  0
LINE
  5
16E
100
AcDbEntity
  8
0
  6
CONTINUOUS
 62
  174
370
   -1
100
AcDbLine
 10
-18.6
 20
-31.10000000000001
 11
-18.89999999999999
 21
-30.80000000000001
  0
LINE
  5
16F
100
AcDbEntity
  8
0
  6
CONTINUOUS
 62
  174
370
   -1
100
AcDbLine
 10
-27.29999999999999
 20
-30.8
 11
-27.59999999999999
 21
-31.10000000000001
  0
LINE
  5
170
100
AcDbEntity
  8
0
  6
CONTINUOUS
 62
  174
370
   -1
100
AcDbLine
 10
-28.39999999999999
 20
-31.40000000000001
 11
-27.99999999999999
 21
-31.8
  0
LINE
  5
171
100
AcDbEntity
  8
0
  6
CONTINUOUS
 62
  174
370
   -1
100
AcDbLine
 10
-27.99999999999999
 20
-31.8
 11
-27.59999999999999
 21
-31.4
  0
LINE
  5
172
100
AcDbEntity
  8
0
  6
CONTINUOUS
 62
  174
370
   -1
100
AcDbLine
 10
-28.39999999999999
 20
-31.10000000000001
 11
-28.69999999999999
 21
-30.80000000000001
  0
LINE
  5
173
100
AcDbEntity
  8
0
  6
CONTINUOUS
 62
  174
370
   -1
100
AcDbLine
 10
-38.90000999999999
 20
-30.80000000000002
 11
-39.2
 21
-31.1
  0
LINE
  5
174
100
AcDbEntity
  8
0
  6
CONTINUOUS
 62
  174
370
   -1
100
AcDbLine
 10
-39.99999999999998
 20
-31.40000000000001
 11
-39.59999999999999
 21
-31.80000000000001
  0
LINE
  5
175
100
AcDbEntity
  8
0
  6
CONTINUOUS
 62
  174
370
   -1
100
AcDbLine
 10
-39.59999999999999
 20
-31.80000000000001
 11
-39.19999999999998
 21
-31.40000000000001
  0
LINE
  5
176
100
AcDbEntity
  8
0
  6
CONTINUOUS
 62
  174
370
   -1
100
AcDbLine
 10
-39.99999999999999
 20
-31.1
 11
-40.29999999999999
 21
-30.80000000000001
  0
LINE
  5
177
100
AcDbEntity
  8
0
  6
CONTINUOUS
 62
  174
370
   -1
100
AcDbLine
 10
-48.69999999999999
 20
-30.80000000000002
 11
-48.99999999999999
 21
-31.10000000000002
  0
LINE
  5
178
100
AcDbEntity
  8
0
  6
CONTINUOUS
 62
  174
370
   -1
100
AcDbLine
 10
-49.79999999999998
 20
-31.40000000000001
 11
-49.39999999999998
 21
-31.80000000000001
  0
LINE
  5
179
100
AcDbEntity
  8
0
  6
CONTINUOUS
 62
  174
370
   -1
100
AcDbLine
 10
-49.39999999999998
 20
-31.80000000000001
 11
-48.99999999999999
 21
-31.40000000000002
  0
LINE
  5
17A
100
AcDbEntity
  8
0
  6
CONTINUOUS
 62
  174
370
   -1
100
AcDbLine
 10
-49.8
 20
-31.10000000000001
 11
-50.09999999999999
 21
-30.80000000000001
  0
ARC
  5
17B
100
AcDbEntity
  8
0
  6
CONTINUOUS
 62
  174
370
   -1
100
AcDbCircle
 10
-50.91
 20
-32.00000000000003
 40
1.199999999999993
100
AcDbArc
 50
90.00000068324499
 51
119.9814985356101
  0
LINE
  5
17C
100
AcDbEntity
  8
0
  6
CONTINUOUS
 62
  174
370
   -1
100
AcDbLine
 10
-53.74999999999999
 20
-31.60000000000002
 11
-53.49999999999999
 21
-31.85000000000002
  0
LINE
  5
17D
100
AcDbEntity
  8
0
  6
CONTINUOUS
 62
  174
370
   -1
100
AcDbLine
 10
-53.49999999999999
 20
-27.75000000000001
 11
-53.74999999999998
 21
-28.00000000000001
  0
LINE
  5
17E
100
AcDbEntity
  8
0
  6
CONTINUOUS
 62
  174
370
   -1
100
AcDbLine
 10
-51.56999999999999
 20
-28.60000000000001
 11
-51.39999999999998
 21
-28.65000000000001
  0
LINE
  5
17F
100
AcDbEntity
  8
0
  6
CONTINUOUS
 62
  174
370
   -1
100
AcDbLine
 10
-50.82
 20
-28.65000000000001
 11
-50.56999999999999
 21
-28.55000000000001
  0
ARC
  5
180
100
AcDbEntity
  8
0
  6
CONTINUOUS
 62
  174
370
   -1
100
AcDbCircle
 10
-49.64999999999998
 20
-24.79000000000002
 40
1.994041000000002
100
AcDbArc
 50
-44.99999965837696
 51
5.008956019655923e-06
  0
LINE
  5
181
100
AcDbEntity
  8
0
  6
CONTINUOUS
 62
  174
370
   -1
100
AcDbLine
 10
-47.14999999999999
 20
-20.00000000000002
 11
-47.64999999999999
 21
-20.50000000000001
  0
LINE
  5
182
100
AcDbEntity
  8
0
  6
CONTINUOUS
 62
  174
370
   -1
100
AcDbLine
 10
-19.95
 20
-20.50000000000001
 11
-20.44999
 21
-20.00000000000001
  0
ARC
  5
183
100
AcDbEntity
  8
0
  6
CONTINUOUS
 62
  174
370
   -1
100
AcDbCircle
 10
-29.49999999999999
 20
-22.00000000000001
 40
1.000000000000003
100
AcDbArc
 50
5.008956019655923e-06
 51
90.00000068324499
  0
ARC
  5
184
100
AcDbEntity
  8
0
  6
CONTINUOUS
 62
  174
370
   -1
100
AcDbCircle
 10
-29.49999999999999
 20
-28.80000000000001
 40
0.9999999999999879
100
AcDbArc
 50
-89.99999749552178
 51
5.008956019655923e-06
  0
ARC
  5
185
100
AcDbEntity
  8
0
  6
CONTINUOUS
 62
  174
370
   -1
100
AcDbCircle
 10
-38.09998999999998
 20
-28.80000000000001
 40
1.000000000000008
100
AcDbArc
 50
-179.999989982087
 51
-90.00022653422999
  0
ARC
  5
186
100
AcDbEntity
  8
0
  6
CONTINUOUS
 62
  174
370
   -1
100
AcDbCircle
 10
-38.09999999999999
 20
-22.00000000000001
 40
0.9999999999999905
100
AcDbArc
 50
90.00000068324499
 51
179.999791451859
  0
ARC
  5
187
100
AcDbEntity
  8
0
  6
CONTINUOUS
 62
  174
370
   -1
100
AcDbCircle
 10
-21.94999999999999
 20
-22.00000000000001
 40
1.000000000000003
100
AcDbArc
 50
5.008956019655923e-06
 51
89.999782117192
  0
ARC
  5
188
100
AcDbEntity
  8
0
  6
CONTINUOUS
 62
  174
370
   -1
100
AcDbCircle
 10
-18.94999999999999
 20
-25.14000000000001
 40
1.999999999999996
100
AcDbArc
 50
-180
 51
-135.0000772949364
  0
ARC
  5
189
100
AcDbEntity
  8
0
  6
CONTINUOUS
 62
  174
370
   -1
100
AcDbCircle
 10
-18.81000999999999
 20
-29.10000000000001
 40
0.6999999999999936
100
AcDbArc
 50
-89.99937594830739
 51
5.008956019655923e-06
  0
ARC
  5
18A
100
AcDbEntity
  8
0
  6
CONTINUOUS
 62
  174
370
   -1
100
AcDbCircle
 10
-18.81000999999999
 20
-29.10000000000001
 40
0.6999999999999936
100
AcDbArc
 50
5.008956019655923e-06
 51
44.999326657373
  0
ARC
  5
18B
100
AcDbEntity
  8
0
  6
CONTINUOUS
 62
  174
370
   -1
100
AcDbCircle
 10
-26.49999999999999
 20
-28.8
 40
0.999999999999998
100
AcDbArc
 50
-179.999989982087
 51
-90.00000796817699
  0
ARC
  5
18C
100
AcDbEntity
  8
0
  6
CONTINUOUS
 62
  174
370
   -1
100
AcDbCircle
 10
-26.49999999999999
 20
-22
 40
1.000000000000003
100
AcDbArc
 50
90.00000068324499
 51
-179.999989982087
  0
ARC
  5
18D
100
AcDbEntity
  8
0
  6
CONTINUOUS
 62
  174
370
   -1
100
AcDbCircle
 10
-48.78999999999999
 20
-29.10000000000002
 40
0.6929646999999899
100
AcDbArc
 50
134.999991690201
 51
-179.999989982087
  0
ARC
  5
18E
100
AcDbEntity
  8
0
  6
CONTINUOUS
 62
  174
370
   -1
100
AcDbCircle
 10
-48.78999999999999
 20
-29.10000000000002
 40
0.6929646999999899
100
AcDbArc
 50
-179.999989982087
 51
-90.00000796817699
  0
ARC
  5
18F
100
AcDbEntity
  8
0
  6
CONTINUOUS
 62
  174
370
   -1
100
AcDbCircle
 10
-48.64999999999999
 20
-25.14000000000001
 40
1.994041000000002
100
AcDbArc
 50
-44.99995867724199
 51
5.008956019655923e-06
  0
ARC
  5
190
100
AcDbEntity
  8
0
  6
CONTINUOUS
 62
  174
370
   -1
100
AcDbCircle
 10
-45.64999999999998
 20
-22.00000000000001
 40
0.999999999999998
100
AcDbArc
 50
90.00000068324499
 51
-179.999989982087
  0
ARC
  5
191
100
AcDbEntity
  8
0
  6
CONTINUOUS
 62
  174
370
   -1
100
AcDbCircle
 10
-41.09998999999998
 20
-22.00000000000001
 40
0.999999999999998
100
AcDbArc
 50
5.008956019655923e-06
 51
90.00000068324499
  0
ARC
  5
192
100
AcDbEntity
  8
0
  6
CONTINUOUS
 62
  174
370
   -1
100
AcDbCircle
 10
-41.09999999999999
 20
-28.80000000000001
 40
0.999999999999998
100
AcDbArc
 50
-89.99999749552178
 51
5.008956019655923e-06
  0
ARC
  5
193
100
AcDbEntity
  8
0
  6
CONTINUOUS
 62
  174
370
   -1
100
AcDbCircle
 10
-54.39999999999998
 20
-32.90000000000001
 40
0.9999999999999879
100
AcDbArc
 50
-180
 51
-89.99999749552178
  0
ARC
  5
194
100
AcDbEntity
  8
0
  6
CONTINUOUS
 62
  174
370
   -1
100
AcDbCircle
 10
-54.39999999999997
 20
-62.60000000000001
 40
1.000000000000008
100
AcDbArc
 50
90.00000068324499
 51
-179.999989982087
  0
LINE
  5
195
100
AcDbEntity
  8
0
  6
CONTINUOUS
 62
  174
370
   -1
100
AcDbLine
 10
-50.82999999999999
 20
-28.60000000000002
 11
-50.61999999999998
 21
-28.51000000000001
  0
ARC
  5
196
100
AcDbEntity
  8
0
  6
CONTINUOUS
 62
  174
370
   -1
100
AcDbCircle
 10
-50.02
 20
-26.50000000000001
 40
1.004091999999994
100
AcDbArc
 50
-44.99991769610698
 51
5.008956019655923e-06
  0
ARC
  5
197
100
AcDbEntity
  8
0
  6
CONTINUOUS
 62
  174
370
   -1
100
AcDbCircle
 10
-50.02
 20
-26.50000000000001
 40
1.004091999999994
100
AcDbArc
 50
5.008956019655923e-06
 51
90.00000068324499
  0
ARC
  5
198
100
AcDbEntity
  8
0
  6
CONTINUOUS
 62
  174
370
   -1
100
AcDbCircle
 10
-82.13
 20
-21.00000000000002
 40
1.000450000000006
100
AcDbArc
 50
-178.28160231167
 51
-89.99999749552178
  0
LINE
  5
199
100
AcDbEntity
  8
0
  6
CONTINUOUS
 62
  174
370
   -1
100
AcDbLine
 10
-80.3
 20
-7.000000000000028
 11
-80
 21
-6.700000000000031
  0
LINE
  5
19A
100
AcDbEntity
  8
0
  6
CONTINUOUS
 62
  174
370
   -1
100
AcDbLine
 10
-80
 20
-5.100000000000016
 11
-80.29999999999998
 21
-4.800000000000026
  0
LINE
  5
19B
100
AcDbEntity
  8
0
  6
CONTINUOUS
 62
  174
370
   -1
100
AcDbLine
 10
-80.90000000000001
 20
-4.800000000000018
 11
-81.19999999999999
 21
-5.100000000000016
  0
LINE
  5
19C
100
AcDbEntity
  8
0
  6
CONTINUOUS
 62
  174
370
   -1
100
AcDbLine
 10
-81.47
 20
-5.700000000000024
 11
-81.40000000000001
 21
-5.712485000000022
  0
LINE
  5
19D
100
AcDbEntity
  8
0
  6
CONTINUOUS
 62
  174
370
   -1
100
AcDbLine
 10
-81.40000000000001
 20
-5.712485000000022
 11
-81.20000000000002
 21
-5.510000000000026
  0
LINE
  5
19E
100
AcDbEntity
  8
0
  6
CONTINUOUS
 62
  174
370
   -1
100
AcDbLine
 10
-83.59999999999999
 20
-4.580000000000027
 11
-83.27
 21
-5.05000000000004
  0
LINE
  5
19F
100
AcDbEntity
  8
0
  6
CONTINUOUS
 62
  174
370
   -1
100
AcDbLine
 10
-83.09999999999999
 20
-1.200000000000017
 11
-83.59999999999999
 21
-1.700000000000024
  0
LINE
  5
1A0
100
AcDbEntity
  8
0
  6
CONTINUOUS
 62
  174
370
   -1
100
AcDbLine
 10
-81.20000000000002
 20
-1.90000000000002
 11
-80.90000000000001
 21
-2.200001000000022
  0
LINE
  5
1A1
100
AcDbEntity
  8
0
  6
CONTINUOUS
 62
  174
370
   -1
100
AcDbLine
 10
-80.3
 20
-2.200000000000031
 11
-80
 21
-1.90000000000002
  0
LINE
  5
1A2
100
AcDbEntity
  8
0
  6
CONTINUOUS
 62
  174
370
   -1
100
AcDbLine
 10
-80
 20
-0.3000001000000196
 11
-80.3
 21
-2.842170943040401e-14
  0
ARC
  5
1A3
100
AcDbEntity
  8
0
  6
CONTINUOUS
 62
  174
370
   -1
100
AcDbCircle
 10
-83.5
 20
-1.500000000000021
 40
1.500000000000002
100
AcDbArc
 50
90.00000068324499
 51
-179.999989982087
  0
LINE
  5
1A4
100
AcDbEntity
  8
0
  6
CONTINUOUS
 62
  174
370
   -1
100
AcDbLine
 10
-84.99999999999997
 20
-74.73000000000003
 11
-84.69999999999997
 21
-75.00000000000003
  0
LINE
  5
1A5
100
AcDbEntity
  8
0
  6
CONTINUOUS
 62
  174
370
   -1
100
AcDbLine
 10
-64.59999999999997
 20
-75.00000000000001
 11
-64.29999999999997
 21
-74.70000000000002
  0
ARC
  5
1A6
100
AcDbEntity
  8
0
  6
CONTINUOUS
 62
  174
370
   -1
100
AcDbCircle
 10
-50.01999999999998
 20
-69
 40
0.999999999999998
100
AcDbArc
 50
-89.99999749552178
 51
5.008956019655923e-06
  0
ARC
  5
1A7
100
AcDbEntity
  8
0
  6
CONTINUOUS
 62
  174
370
   -1
100
AcDbCircle
 10
-50.01999999999998
 20
-69
 40
0.999999999999998
100
AcDbArc
 50
5.008956019655923e-06
 51
44.999996015912
  0
LINE
  5
1A8
100
AcDbEntity
  8
0
  6
CONTINUOUS
 62
  174
370
   -1
100
AcDbLine
 10
-50.62000999999997
 20
-66.98999999999999
 11
-50.82999999999997
 21
-66.90302000000003
  0
LINE
  5
1A9
100
AcDbEntity
  8
0
  6
CONTINUOUS
 62
  174
370
   -1
100
AcDbLine
 10
-51.40999999999996
 20
-66.89999000000002
 11
-51.55999999999999
 21
-66.93999000000001
  0
LINE
  5
1AA
100
AcDbEntity
  8
0
  6
CONTINUOUS
 62
  174
370
   -1
100
AcDbLine
 10
-53.79999999999998
 20
-67.50000000000001
 11
-53.49999999999999
 21
-67.8
  0
LINE
  5
1AB
100
AcDbEntity
  8
0
  6
CONTINUOUS
 62
  174
370
   -1
100
AcDbLine
 10
-53.49999999999999
 20
-63.60000000000002
 11
-53.79999999999998
 21
-63.90000000000001
  0
LINE
  5
1AC
100
AcDbEntity
  8
0
  6
CONTINUOUS
 62
  174
370
   -1
100
AcDbLine
 10
-51.56000999999998
 20
-64.45999999999999
 11
-51.40999999999997
 21
-64.50000000000001
  0
LINE
  5
1AD
100
AcDbEntity
  8
0
  6
CONTINUOUS
 62
  174
370
   -1
100
AcDbLine
 10
-51.40999999999998
 20
-31.00000000000001
 11
-51.55999999999999
 21
-31.04000000000001
  0
LINE
  5
1AE
100
AcDbEntity
  8
0
  6
CONTINUOUS
 62
  174
370
   -1
100
AcDbLine
 10
-53.79999999999998
 20
-31.60000000000002
 11
-53.49999999999999
 21
-31.90000000000001
  0
LINE
  5
1AF
100
AcDbEntity
  8
0
  6
CONTINUOUS
 62
  174
370
   -1
100
AcDbLine
 10
-53.49999999999999
 20
-27.70000000000001
 11
-53.79999999999999
 21
-28.00000000000001
  0
LINE
  5
1B0
100
AcDbEntity
  8
0
  6
CONTINUOUS
 62
  174
370
   -1
100
AcDbLine
 10
-51.56
 20
-28.56000000000001
 11
-51.40999999999998
 21
-28.60000000000002
  0
ENDSEC
  0
SECTION
  2
OBJECTS
  0
DICTIONARY
  5
C
330
0
100
AcDbDictionary
281
    1
  3
ACAD_GROUP
350
D
  0
DICTIONARY
  5
D
330
C
100
AcDbDictionary
281
    1
  0
PLOTSETTINGS
  5
1B1
100
AcDbPlotSettings
  6
1x1
 40
0
 41
0
 42
0
 43
0
  0
ENDSEC
  0
EOF
