999
dxfrw 0.6.3
  0
SECTION
  2
HEADER
  9
$ACADVER
  1
AC1021
  9
$DWGCODEPAGE
  3
ANSI_1252
  9
$INSBASE
 10
0
 20
0
 30
0
  9
$EXTMIN
 10
-71.9985793185602
 20
-34.20000399999999
 30
0
  9
$EXTMAX
 10
14.60001200000021
 20
34.39999200032533
 30
0
  9
$LIMMIN
 10
-24.6000120000002
 20
-44.3999920003253
  9
$LIMMAX
 10
81.9985793185602
 20
44.200004
  9
$ORTHOMODE
 70
    1
  9
$REGENMODE
 70
    1
  9
$FILLMODE
 70
    1
  9
$QTEXTMODE
 70
    0
  9
$MIRRTEXT
 70
    1
  9
$LTSCALE
 40
1
  9
$ATTMODE
 70
    1
  9
$TEXTSIZE
 40
0.2
  9
$TRACEWID
 40
0.05
  9
$TEXTSTYLE
  7
STANDARD
  9
$CLAYER
  8
0
  9
$CELTYPE
  6
ByLayer
  9
$CECOLOR
 62
  256
  9
$CELTSCALE
 40
1
  9
$DISPSILH
 70
    0
  9
$DIMSCALE
 40
1
  9
$DIMASZ
 40
0.18
  9
$DIMEXO
 40
0.0625
  9
$DIMDLI
 40
0.38
  9
$DIMRND
 40
0
  9
$DIMDLE
 40
0
  9
$DIMEXE
 40
0.18
  9
$DIMTP
 40
0
  9
$DIMTM
 40
0
  9
$DIMTXT
 40
0.18
  9
$DIMCEN
 40
0.09
  9
$DIMTSZ
 40
0
  9
$DIMTOL
 70
    0
  9
$DIMLIM
 70
    0
  9
$DIMTIH
 70
    1
  9
$DIMTOH
 70
    1
  9
$DIMSE1
 70
    0
  9
$DIMSE2
 70
    0
  9
$DIMTAD
 70
    0
  9
$DIMZIN
 70
    0
  9
$DIMBLK
  1

  9
$DIMASO
 70
    1
  9
$DIMSHO
 70
    1
  9
$DIMPOST
  1

  9
$DIMAPOST
  1

  9
$DIMALT
 70
    0
  9
$DIMALTD
 70
    2
  9
$DIMALTF
 40
25.4
  9
$DIMLFAC
 40
1
  9
$DIMTOFL
 70
    0
  9
$DIMTVP
 40
0
  9
$DIMTIX
 70
    0
  9
$DIMSOXD
 70
    0
  9
$DIMSAH
 70
    0
  9
$DIMBLK1
  1

  9
$DIMBLK2
  1

  9
$DIMSTYLE
  2
STANDARD
  9
$DIMCLRD
 70
    0
  9
$DIMCLRE
 70
    0
  9
$DIMCLRT
 70
    0
  9
$DIMTFAC
 40
1
  9
$DIMGAP
 40
0.09
  9
$DIMJUST
 70
    0
  9
$DIMSD1
 70
    0
  9
$DIMSD2
 70
    0
  9
$DIMTOLJ
 70
    0
  9
$DIMTZIN
 70
    8
  9
$DIMALTZ
 70
    0
  9
$DIMALTTZ
 70
    0
  9
$DIMUPT
 70
    0
  9
$DIMDEC
 70
    4
  9
$DIMTDEC
 70
    2
  9
$DIMALTU
 70
    2
  9
$DIMALTTD
 70
    3
  9
$DIMTXSTY
  7
STANDARD
  9
$DIMAUNIT
 70
    0
  9
$DIMADEC
 70
    0
  9
$DIMALTRND
 40
0
  9
$DIMAZIN
 70
    0
  9
$DIMDSEP
 70
   44
  9
$DIMATFIT
 70
    3
  9
$DIMFRAC
 70
    0
  9
$DIMLDRBLK
  1
STANDARD
  9
$DIMLUNIT
 70
    2
  9
$DIMLWD
 70
   -2
  9
$DIMLWE
 70
   -2
  9
$DIMTMOVE
 70
    0
  9
$DIMFXL
 40
1
  9
$DIMFXLON
 70
    0
  9
$DIMJOGANG
 40
0.7854
  9
$DIMTFILL
 70
    0
  9
$DIMTFILLCLR
 70
    0
  9
$DIMARCSYM
 70
    0
  9
$DIMLTYPE
  6

  9
$DIMLTEX1
  6

  9
$DIMLTEX2
  6

  9
$LUNITS
 70
    2
  9
$LUPREC
 70
    4
  9
$SKETCHINC
 40
0.1
  9
$FILLETRAD
 40
0
  9
$AUNITS
 70
    0
  9
$AUPREC
 70
    0
  9
$MENU
  1
acad
  9
$ELEVATION
 40
0
  9
$PELEVATION
 40
0
  9
$THICKNESS
 40
0
  9
$LIMCHECK
 70
    0
  9
$CHAMFERA
 40
0
  9
$CHAMFERB
 40
0
  9
$CHAMFERC
 40
0
  9
$CHAMFERD
 40
0
  9
$SKPOLY
 70
    0
  9
$USRTIMER
 70
    1
  9
$ANGBASE
 50
0
  9
$ANGDIR
 70
    0
  9
$PDMODE
 70
    0
  9
$PDSIZE
 40
0
  9
$PLINEWID
 40
0
  9
$SPLFRAME
 70
    0
  9
$SPLINETYPE
 70
    6
  9
$SPLINESEGS
 70
    8
  9
$HANDSEED
  5
20000
  9
$SURFTAB1
 70
    6
  9
$SURFTAB2
 70
    6
  9
$SURFTYPE
 70
    6
  9
$SURFU
 70
    6
  9
$SURFV
 70
    6
  9
$UCSBASE
  2

  9
$UCSNAME
  2

  9
$UCSORG
 10
0
 20
0
 30
0
  9
$UCSXDIR
 10
1
 20
0
 30
0
  9
$UCSYDIR
 10
0
 20
1
 30
0
  9
$UCSORTHOREF
  2

  9
$UCSORTHOVIEW
 70
    0
  9
$UCSORGTOP
 10
0
 20
0
 30
0
  9
$UCSORGBOTTOM
 10
0
 20
0
 30
0
  9
$UCSORGLEFT
 10
0
 20
0
 30
0
  9
$UCSORGRIGHT
 10
0
 20
0
 30
0
  9
$UCSORGFRONT
 10
0
 20
0
 30
0
  9
$UCSORGBACK
 10
0
 20
0
 30
0
  9
$PUCSBASE
  2

  9
$PUCSNAME
  2

  9
$PUCSORG
 10
0
 20
0
 30
0
  9
$PUCSXDIR
 10
1
 20
0
 30
0
  9
$PUCSYDIR
 10
0
 20
1
 30
0
  9
$PUCSORTHOREF
  2

  9
$PUCSORTHOVIEW
 70
    0
  9
$PUCSORGTOP
 10
0
 20
0
 30
0
  9
$PUCSORGBOTTOM
 10
0
 20
0
 30
0
  9
$PUCSORGLEFT
 10
0
 20
0
 30
0
  9
$PUCSORGRIGHT
 10
0
 20
0
 30
0
  9
$PUCSORGFRONT
 10
0
 20
0
 30
0
  9
$PUCSORGBACK
 10
0
 20
0
 30
0
  9
$USERI1
 70
    0
  9
$USERI2
 70
    0
  9
$USERI3
 70
    0
  9
$USERI4
 70
    0
  9
$USERI5
 70
    0
  9
$USERR1
 40
0
  9
$USERR2
 40
0
  9
$USERR3
 40
0
  9
$USERR4
 40
0
  9
$USERR5
 40
0
  9
$WORLDVIEW
 70
    1
  9
$SHADEDGE
 70
    3
  9
$SHADEDIF
 70
   70
  9
$TILEMODE
 70
    1
  9
$MAXACTVP
 70
   16
  9
$PINSBASE
 10
0
 20
0
 30
0
  9
$PLIMCHECK
 70
    0
  9
$PEXTMIN
 10
1e+20
 20
1e+20
 30
1e+20
  9
$PEXTMAX
 10
-1e+20
 20
-1e+20
 30
-1e+20
  9
$GRIDMODE
 70
    0
  9
$SNAPSTYLE
 70
    0
  9
$PLIMMIN
 10
0
 20
0
  9
$PLIMMAX
 10
12
 20
9
  9
$UNITMODE
 70
    0
  9
$VISRETAIN
 70
    0
  9
$PLINEGEN
 70
    0
  9
$PSLTSCALE
 70
    1
  9
$TREEDEPTH
 70
 3020
  9
$CMLSTYLE
  2
Standard
  9
$CMLJUST
 70
    0
  9
$CMLSCALE
 40
20
  9
$PROXYGRAPHICS
 70
    1
  9
$MEASUREMENT
 70
    1
  9
$CELWEIGHT
370
   -1
  9
$ENDCAPS
280
    0
  9
$JOINSTYLE
280
    0
  9
$LWDISPLAY
290
    0
  9
$INSUNITS
 70
    4
  9
$HYPERLINKBASE
  1

  9
$STYLESHEET
  1

  9
$XEDIT
290
    1
  9
$CEPSNTYPE
380
    0
  9
$PSTYLEMODE
290
    1
  9
$EXTNAMES
290
    1
  9
$PSVPSCALE
 40
1
  9
$OLESTARTUP
290
    0
  9
$SORTENTS
280
  127
  9
$INDEXCTL
280
    0
  9
$HIDETEXT
280
    1
  9
$XCLIPFRAME
290
    0
  9
$HALOGAP
280
    0
  9
$OBSCOLOR
 70
  257
  9
$OBSLTYPE
280
    0
  9
$INTERSECTIONDISPLAY
280
    0
  9
$INTERSECTIONCOLOR
 70
  257
  9
$DIMASSOC
280
    1
  9
$PROJECTNAME
  1

  9
$CAMERADISPLAY
290
    0
  9
$LENSLENGTH
 40
50
  9
$CAMERAHEIGHT
 40
0
  9
$STEPSPERSEC
 40
2
  9
$STEPSIZE
 40
50
  9
$3DDWFPREC
 40
2
  9
$PSOLWIDTH
 40
5
  9
$PSOLHEIGHT
 40
80
  9
$LOFTANG1
 40
1.570796326794897
  9
$LOFTANG2
 40
1.570796326794897
  9
$LOFTMAG1
 40
0
  9
$LOFTMAG2
 40
0
  9
$LOFTPARAM
 70
    7
  9
$LOFTNORMALS
280
    1
  9
$LATITUDE
 40
1
  9
$LONGITUDE
 40
1
  9
$NORTHDIRECTION
 40
0
  9
$TIMEZONE
 70
-8000
  9
$LIGHTGLYPHDISPLAY
280
    1
  9
$TILEMODELIGHTSYNCH
280
    1
  9
$SOLIDHIST
280
    1
  9
$SHOWHIST
280
    1
  9
$DWFFRAME
280
    2
  9
$DGNFRAME
280
    0
  9
$REALWORLDSCALE
290
    1
  9
$INTERFERECOLOR
 62
    1
  9
$CSHADOW
280
    0
  9
$SHADOWPLANELOCATION
 40
0
  0
ENDSEC
  0
SECTION
  2
CLASSES
  0
ENDSEC
  0
SECTION
  2
TABLES
  0
TABLE
  2
VPORT
  5
8
330
0
100
AcDbSymbolTable
 70
    1
  0
VPORT
  5
31
330
2
100
AcDbSymbolTableRecord
100
AcDbViewportTableRecord
  2
*ACTIVE
 70
    0
 10
0
 20
0
 11
1
 21
1
 12
90.10863595849661
 22
52.80956943469268
 13
0
 23
0
 14
10
 24
10
 15
10
 25
10
 16
0
 26
0
 36
1
 17
0
 27
0
 37
0
 40
204.0985224305838
 41
1.90832328106152
 42
50
 43
0
 44
0
 50
0
 51
0
 71
    0
 72
  100
 73
    1
 74
    3
 75
    0
 76
    0
 77
    0
 78
    0
281
    0
 65
    1
110
0
120
0
130
0
111
1
121
0
131
0
112
0
122
1
132
0
 79
    0
146
0
348
10020
 60
    7
 61
    5
292
1
282
    1
141
0
142
0
 63
  250
421
3358443
  0
ENDTAB
  0
TABLE
  2
LTYPE
  5
5
330
0
100
AcDbSymbolTable
 70
    4
  0
LTYPE
  5
14
330
5
100
AcDbSymbolTableRecord
100
AcDbLinetypeTableRecord
  2
ByBlock
 70
    0
  3

 72
   65
 73
    0
 40
0
  0
LTYPE
  5
15
330
5
100
AcDbSymbolTableRecord
100
AcDbLinetypeTableRecord
  2
ByLayer
 70
    0
  3

 72
   65
 73
    0
 40
0
  0
LTYPE
  5
16
330
5
100
AcDbSymbolTableRecord
100
AcDbLinetypeTableRecord
  2
Continuous
 70
    0
  3
Solid line
 72
   65
 73
    0
 40
0
  0
LTYPE
  5
32
330
5
100
AcDbSymbolTableRecord
100
AcDbLinetypeTableRecord
  2
DOT
 70
    0
  3
Dot . . . . . . . . . . . . . . . . . . . . . .
 72
   65
 73
    2
 40
6.35
 49
0
 74
    0
 49
-6.35
 74
    0
  0
LTYPE
  5
33
330
5
100
AcDbSymbolTableRecord
100
AcDbLinetypeTableRecord
  2
DOTTINY
 70
    0
  3
Dot (.15x) .....................................
 72
   65
 73
    2
 40
0.9525
 49
0
 74
    0
 49
-0.9525
 74
    0
  0
LTYPE
  5
34
330
5
100
AcDbSymbolTableRecord
100
AcDbLinetypeTableRecord
  2
DOT2
 70
    0
  3
Dot (.5x) .....................................
 72
   65
 73
    2
 40
3.175
 49
0
 74
    0
 49
-3.175
 74
    0
  0
LTYPE
  5
35
330
5
100
AcDbSymbolTableRecord
100
AcDbLinetypeTableRecord
  2
DOTX2
 70
    0
  3
Dot (2x) .  .  .  .  .  .  .  .  .  .  .  .  .
 72
   65
 73
    2
 40
12.7
 49
0
 74
    0
 49
-12.7
 74
    0
  0
LTYPE
  5
36
330
5
100
AcDbSymbolTableRecord
100
AcDbLinetypeTableRecord
  2
DASHED
 70
    0
  3
Dashed _ _ _ _ _ _ _ _ _ _ _ _ _ _ _ _ _
 72
   65
 73
    2
 40
19.05
 49
12.7
 74
    0
 49
-6.35
 74
    0
  0
LTYPE
  5
37
330
5
100
AcDbSymbolTableRecord
100
AcDbLinetypeTableRecord
  2
DASHEDTINY
 70
    0
  3
Dashed (.15x) _ _ _ _ _ _ _ _ _ _ _ _ _ _ _ _ _
 72
   65
 73
    2
 40
2.8575
 49
1.905
 74
    0
 49
-0.9525
 74
    0
  0
LTYPE
  5
38
330
5
100
AcDbSymbolTableRecord
100
AcDbLinetypeTableRecord
  2
DASHED2
 70
    0
  3
Dashed (.5x) _ _ _ _ _ _ _ _ _ _ _ _ _ _ _ _ _
 72
   65
 73
    2
 40
9.524999999999999
 49
6.35
 74
    0
 49
-3.175
 74
    0
  0
LTYPE
  5
39
330
5
100
AcDbSymbolTableRecord
100
AcDbLinetypeTableRecord
  2
DASHEDX2
 70
    0
  3
Dashed (2x) ____  ____  ____  ____  ____  ___
 72
   65
 73
    2
 40
38.09999999999999
 49
25.4
 74
    0
 49
-12.7
 74
    0
  0
LTYPE
  5
3A
330
5
100
AcDbSymbolTableRecord
100
AcDbLinetypeTableRecord
  2
DASHDOT
 70
    0
  3
Dash dot __ . __ . __ . __ . __ . __ . __ . __
 72
   65
 73
    4
 40
25.4
 49
12.7
 74
    0
 49
-6.35
 74
    0
 49
0
 74
    0
 49
-6.35
 74
    0
  0
LTYPE
  5
3B
330
5
100
AcDbSymbolTableRecord
100
AcDbLinetypeTableRecord
  2
DASHDOTTINY
 70
    0
  3
Dash dot (.15x) _._._._._._._._._._._._._._._.
 72
   65
 73
    4
 40
3.81
 49
1.905
 74
    0
 49
-0.9525
 74
    0
 49
0
 74
    0
 49
-0.9525
 74
    0
  0
LTYPE
  5
3C
330
5
100
AcDbSymbolTableRecord
100
AcDbLinetypeTableRecord
  2
DASHDOT2
 70
    0
  3
Dash dot (.5x) _._._._._._._._._._._._._._._.
 72
   65
 73
    4
 40
12.7
 49
6.35
 74
    0
 49
-3.175
 74
    0
 49
0
 74
    0
 49
-3.175
 74
    0
  0
LTYPE
  5
3D
330
5
100
AcDbSymbolTableRecord
100
AcDbLinetypeTableRecord
  2
DASHDOTX2
 70
    0
  3
Dash dot (2x) ____  .  ____  .  ____  .  ___
 72
   65
 73
    4
 40
50.8
 49
25.4
 74
    0
 49
-12.7
 74
    0
 49
0
 74
    0
 49
-12.7
 74
    0
  0
LTYPE
  5
3E
330
5
100
AcDbSymbolTableRecord
100
AcDbLinetypeTableRecord
  2
DIVIDE
 70
    0
  3
Divide ____ . . ____ . . ____ . . ____ . . ____
 72
   65
 73
    6
 40
31.75
 49
12.7
 74
    0
 49
-6.35
 74
    0
 49
0
 74
    0
 49
-6.35
 74
    0
 49
0
 74
    0
 49
-6.35
 74
    0
  0
LTYPE
  5
3F
330
5
100
AcDbSymbolTableRecord
100
AcDbLinetypeTableRecord
  2
DIVIDETINY
 70
    0
  3
Divide (.15x) __..__..__..__..__..__..__..__.._
 72
   65
 73
    6
 40
4.7625
 49
1.905
 74
    0
 49
-0.9525
 74
    0
 49
0
 74
    0
 49
-0.9525
 74
    0
 49
0
 74
    0
 49
-0.9525
 74
    0
  0
LTYPE
  5
40
330
5
100
AcDbSymbolTableRecord
100
AcDbLinetypeTableRecord
  2
DIVIDE2
 70
    0
  3
Divide (.5x) __..__..__..__..__..__..__..__.._
 72
   65
 73
    6
 40
15.875
 49
6.35
 74
    0
 49
-3.175
 74
    0
 49
0
 74
    0
 49
-3.175
 74
    0
 49
0
 74
    0
 49
-3.175
 74
    0
  0
LTYPE
  5
41
330
5
100
AcDbSymbolTableRecord
100
AcDbLinetypeTableRecord
  2
DIVIDEX2
 70
    0
  3
Divide (2x) ________  .  .  ________  .  .  _
 72
   65
 73
    6
 40
63.5
 49
25.4
 74
    0
 49
-12.7
 74
    0
 49
0
 74
    0
 49
-12.7
 74
    0
 49
0
 74
    0
 49
-12.7
 74
    0
  0
LTYPE
  5
42
330
5
100
AcDbSymbolTableRecord
100
AcDbLinetypeTableRecord
  2
BORDER
 70
    0
  3
Border __ __ . __ __ . __ __ . __ __ . __ __ .
 72
   65
 73
    6
 40
44.45
 49
12.7
 74
    0
 49
-6.35
 74
    0
 49
12.7
 74
    0
 49
-6.35
 74
    0
 49
0
 74
    0
 49
-6.35
 74
    0
  0
LTYPE
  5
43
330
5
100
AcDbSymbolTableRecord
100
AcDbLinetypeTableRecord
  2
BORDERTINY
 70
    0
  3
Border (.15x) __.__.__.__.__.__.__.__.__.__.__.
 72
   65
 73
    6
 40
6.6675
 49
1.905
 74
    0
 49
-0.9525
 74
    0
 49
1.905
 74
    0
 49
-0.9525
 74
    0
 49
0
 74
    0
 49
-0.9525
 74
    0
  0
LTYPE
  5
44
330
5
100
AcDbSymbolTableRecord
100
AcDbLinetypeTableRecord
  2
BORDER2
 70
    0
  3
Border (.5x) __.__.__.__.__.__.__.__.__.__.__.
 72
   65
 73
    6
 40
22.225
 49
6.35
 74
    0
 49
-3.175
 74
    0
 49
6.35
 74
    0
 49
-3.175
 74
    0
 49
0
 74
    0
 49
-3.175
 74
    0
  0
LTYPE
  5
45
330
5
100
AcDbSymbolTableRecord
100
AcDbLinetypeTableRecord
  2
BORDERX2
 70
    0
  3
Border (2x) ____  ____  .  ____  ____  .  ___
 72
   65
 73
    6
 40
88.89999999999999
 49
25.4
 74
    0
 49
-12.7
 74
    0
 49
25.4
 74
    0
 49
-12.7
 74
    0
 49
0
 74
    0
 49
-12.7
 74
    0
  0
LTYPE
  5
46
330
5
100
AcDbSymbolTableRecord
100
AcDbLinetypeTableRecord
  2
CENTER
 70
    0
  3
Center ____ _ ____ _ ____ _ ____ _ ____ _ ____
 72
   65
 73
    4
 40
50.8
 49
31.75
 74
    0
 49
-6.35
 74
    0
 49
6.35
 74
    0
 49
-6.35
 74
    0
  0
LTYPE
  5
47
330
5
100
AcDbSymbolTableRecord
100
AcDbLinetypeTableRecord
  2
CENTERTINY
 70
    0
  3
Center (.15x) ___ _ ___ _ ___ _ ___ _ ___ _ ___
 72
   65
 73
    4
 40
7.62
 49
4.7625
 74
    0
 49
-0.9525
 74
    0
 49
0.9525
 74
    0
 49
-0.9525
 74
    0
  0
LTYPE
  5
48
330
5
100
AcDbSymbolTableRecord
100
AcDbLinetypeTableRecord
  2
CENTER2
 70
    0
  3
Center (.5x) ___ _ ___ _ ___ _ ___ _ ___ _ ___
 72
   65
 73
    4
 40
28.575
 49
19.05
 74
    0
 49
-3.175
 74
    0
 49
3.175
 74
    0
 49
-3.175
 74
    0
  0
LTYPE
  5
49
330
5
100
AcDbSymbolTableRecord
100
AcDbLinetypeTableRecord
  2
CENTERX2
 70
    0
  3
Center (2x) ________  __  ________  __  _____
 72
   65
 73
    4
 40
101.6
 49
63.5
 74
    0
 49
-12.7
 74
    0
 49
12.7
 74
    0
 49
-12.7
 74
    0
  0
ENDTAB
  0
TABLE
  2
LAYER
  5
2
330
0
100
AcDbSymbolTable
 70
    1
  0
LAYER
  5
10
330
2
100
AcDbSymbolTableRecord
100
AcDbLayerTableRecord
  2
0
 70
    0
 62
    7
  6
CONTINUOUS
370
   -3
390
F
  0
LAYER
  5
4A
330
2
100
AcDbSymbolTableRecord
100
AcDbLayerTableRecord
  2
DEFPOINTS
 70
    0
 62
    7
  6
CONTINUOUS
370
   -3
390
F
  0
ENDTAB
  0
TABLE
  2
STYLE
  5
3
330
0
100
AcDbSymbolTable
 70
    3
  0
STYLE
  5
4B
330
2
100
AcDbSymbolTableRecord
100
AcDbTextStyleTableRecord
  2
Standard
 70
    0
 40
0
 41
1
 50
0
 71
    0
 42
1
  3
txt
  4

  0
ENDTAB
  0
TABLE
  2
VIEW
  5
6
330
0
100
AcDbSymbolTable
 70
    0
  0
ENDTAB
  0
TABLE
  2
UCS
  5
7
330
0
100
AcDbSymbolTable
 70
    0
  0
ENDTAB
  0
TABLE
  2
APPID
  5
9
330
0
100
AcDbSymbolTable
 70
    1
  0
APPID
  5
12
330
9
100
AcDbSymbolTableRecord
100
AcDbRegAppTableRecord
  2
ACAD
 70
    0
  0
APPID
  5
4C
330
9
100
AcDbSymbolTableRecord
100
AcDbRegAppTableRecord
  2
LibreCad
 70
    0
  0
ENDTAB
  0
TABLE
  2
DIMSTYLE
  5
A
330
0
100
AcDbSymbolTable
 70
    1
100
AcDbDimStyleTable
 71
    1
  0
DIMSTYLE
105
4D
330
A
100
AcDbSymbolTableRecord
100
AcDbDimStyleTableRecord
  2
Standard
 70
    0
 40
1
 41
0.18
 42
0.0625
 43
0.38
 44
0.18
 45
0
 46
0
 47
0
 48
0
 49
1
140
0.18
141
0.09
142
0
143
25.4
144
1
145
0
146
1
147
0.09
148
0
 71
    0
 72
    0
 73
    1
 74
    1
 75
    0
 76
    0
 77
    0
 78
    0
 79
    0
170
    0
171
    2
172
    0
173
    0
174
    0
175
    0
176
    0
177
    0
178
    0
179
    0
271
    4
272
    4
273
    2
274
    2
275
    0
276
    0
277
    2
278
    0
279
    0
280
    0
281
    0
282
    0
283
    1
284
    0
285
    0
286
    0
288
    0
289
    3
340
standard
341

371
   -2
372
   -2
  0
ENDTAB
  0
TABLE
  2
BLOCK_RECORD
  5
1
330
0
100
AcDbSymbolTable
 70
    2
  0
BLOCK_RECORD
  5
1F
330
1
100
AcDbSymbolTableRecord
100
AcDbBlockTableRecord
  2
*Model_Space
 70
    0
280
    1
281
    0
  0
BLOCK_RECORD
  5
1E
330
1
100
AcDbSymbolTableRecord
100
AcDbBlockTableRecord
  2
*Paper_Space
 70
    0
280
    1
281
    0
  0
ENDTAB
  0
ENDSEC
  0
SECTION
  2
BLOCKS
  0
BLOCK
  5
20
330
1F
100
AcDbEntity
  8
0
100
AcDbBlockBegin
  2
*Model_Space
 70
    0
 10
0
 20
0
 30
0
  3
*Model_Space
  1

  0
ENDBLK
  5
21
330
1F
100
AcDbEntity
  8
0
100
AcDbBlockEnd
  0
BLOCK
  5
1C
330
1B
100
AcDbEntity
  8
0
100
AcDbBlockBegin
  2
*Paper_Space
 70
    0
 10
0
 20
0
 30
0
  3
*Paper_Space
  1

  0
ENDBLK
  5
1D
330
1F
100
AcDbEntity
  8
0
100
AcDbBlockEnd
  0
ENDSEC
  0
SECTION
  2
ENTITIES
  0
LINE
  5
4E
100
AcDbEntity
  8
0
  6
ByLayer
 62
  174
370
   -1
100
AcDbLine
 10
-65.7000296587054
 20
-4.650003998495308
 11
-55.70002965870539
 21
-4.650003998495311
  0
LINE
  5
4F
100
AcDbEntity
  8
0
  6
ByLayer
 62
  174
370
   -1
100
AcDbLine
 10
-65.7000296587054
 20
-4.900003998495318
 11
-65.7000296587054
 21
-4.650003998495308
  0
LINE
  5
50
100
AcDbEntity
  8
0
  6
ByLayer
 62
  174
370
   -1
100
AcDbLine
 10
-69.49857931855979
 20
-4.900003998495315
 11
-65.7000296587054
 21
-4.900003998495318
  0
LINE
  5
51
100
AcDbEntity
  8
0
  6
ByLayer
 62
  174
370
   -1
100
AcDbLine
 10
-69.49857931855979
 20
-3.400003998495308
 11
-69.49857931855979
 21
-4.900003998495315
  0
LINE
  5
52
100
AcDbEntity
  8
0
  6
ByLayer
 62
  174
370
   -1
100
AcDbLine
 10
-69.69857931855989
 20
-3.400003998495315
 11
-69.49857931855979
 21
-3.400003998495308
  0
LINE
  5
53
100
AcDbEntity
  8
0
  6
ByLayer
 62
  174
370
   -1
100
AcDbLine
 10
-69.69857931855989
 20
8.59999200000053
 11
-69.69857931855989
 21
-3.400003998495315
  0
LINE
  5
54
100
AcDbEntity
  8
0
  6
ByLayer
 62
  174
370
   -1
100
AcDbLine
 10
-69.49857931855979
 20
8.599992000000526
 11
-69.69857931855989
 21
8.59999200000053
  0
LINE
  5
55
100
AcDbEntity
  8
0
  6
ByLayer
 62
  174
370
   -1
100
AcDbLine
 10
-69.49857931855979
 20
9.84999200032566
 11
-69.49857931855979
 21
8.599992000000526
  0
LINE
  5
56
100
AcDbEntity
  8
0
  6
ByLayer
 62
  174
370
   -1
100
AcDbLine
 10
-67.99857931855982
 20
9.849992000325742
 11
-69.49857931855979
 21
9.84999200032566
  0
LINE
  5
57
100
AcDbEntity
  8
0
  6
ByLayer
 62
  174
370
   -1
100
AcDbLine
 10
-67.99857931855982
 20
10.09999200000048
 11
-67.99857931855982
 21
9.849992000325742
  0
LINE
  5
58
100
AcDbEntity
  8
0
  6
ByLayer
 62
  174
370
   -1
100
AcDbLine
 10
-56.19931123859421
 20
10.09999200000048
 11
-67.99857931855982
 21
10.09999200000048
  0
LINE
  5
59
100
AcDbEntity
  8
0
  6
ByLayer
 62
  174
370
   -1
100
AcDbLine
 10
-56.1993112385942
 20
9.849992000325802
 11
-56.19931123859421
 21
10.09999200000048
  0
LINE
  5
5A
100
AcDbEntity
  8
0
  6
ByLayer
 62
  174
370
   -1
100
AcDbLine
 10
-46.1993112385942
 20
9.849992000325798
 11
-56.1993112385942
 21
9.849992000325802
  0
LINE
  5
5B
100
AcDbEntity
  8
0
  6
ByLayer
 62
  174
370
   -1
100
AcDbLine
 10
-46.1993112385942
 20
10.09999200032578
 11
-46.1993112385942
 21
9.849992000325798
  0
LINE
  5
5C
100
AcDbEntity
  8
0
  6
ByLayer
 62
  174
370
   -1
100
AcDbLine
 10
-43.1000371587059
 20
10.09999200032569
 11
-46.1993112385942
 21
10.09999200032578
  0
LINE
  5
5D
100
AcDbEntity
  8
0
  6
ByLayer
 62
  174
370
   -1
100
AcDbLine
 10
-43.1000371587059
 20
9.849992000325695
 11
-43.1000371587059
 21
10.09999200032569
  0
LINE
  5
5E
100
AcDbEntity
  8
0
  6
ByLayer
 62
  174
370
   -1
100
AcDbLine
 10
-41.6000371587059
 20
9.849992000325692
 11
-43.1000371587059
 21
9.849992000325695
  0
LINE
  5
5F
100
AcDbEntity
  8
0
  6
ByLayer
 62
  174
370
   -1
100
AcDbLine
 10
-41.60003715870539
 20
-4.650003998495304
 11
-41.6000371587059
 21
9.849992000325692
  0
LINE
  5
60
100
AcDbEntity
  8
0
  6
ByLayer
 62
  174
370
   -1
100
AcDbLine
 10
-43.10003715870549
 20
-4.650003998495301
 11
-41.60003715870539
 21
-4.650003998495304
  0
LINE
  5
61
100
AcDbEntity
  8
0
  6
ByLayer
 62
  174
370
   -1
100
AcDbLine
 10
-43.10003715870549
 20
-4.900003998495194
 11
-43.10003715870549
 21
-4.650003998495301
  0
LINE
  5
62
100
AcDbEntity
  8
0
  6
ByLayer
 62
  174
370
   -1
100
AcDbLine
 10
-55.70002965870539
 20
-4.900003998495315
 11
-43.10003715870549
 21
-4.900003998495194
  0
LINE
  5
63
100
AcDbEntity
  8
0
  6
ByLayer
 62
  174
370
   -1
100
AcDbLine
 10
-55.70002965870539
 20
-4.650003998495311
 11
-55.70002965870539
 21
-4.900003998495315
  0
ARC
  5
64
100
AcDbEntity
  8
0
  6
ByLayer
 62
  174
370
   -1
100
AcDbCircle
 10
-66.49857931855981
 20
33.29999200032506
 40
1.099999999999611
100
AcDbArc
 50
-1.966238161345419e-12
 51
89.99999999999901
  0
LINE
  5
65
100
AcDbEntity
  8
0
  6
ByLayer
 62
  174
370
   -1
100
AcDbLine
 10
-69.69857931856001
 20
34.39999200032528
 11
-66.49857931855971
 21
34.39999200032467
  0
ARC
  5
66
100
AcDbEntity
  8
0
  6
ByLayer
 62
  174
370
   -1
100
AcDbCircle
 10
-69.69857931856009
 20
32.09999200032527
 40
2.300000000000054
100
AcDbArc
 50
89.99999999999901
 51
179.999999999999
  0
LINE
  5
67
100
AcDbEntity
  8
0
  6
ByLayer
 62
  174
370
   -1
100
AcDbLine
 10
-71.99857931855979
 20
-11.10000400000012
 11
-71.9985793185602
 21
32.09999200032527
  0
ARC
  5
68
100
AcDbEntity
  8
0
  6
ByLayer
 62
  174
370
   -1
100
AcDbCircle
 10
-70.8985793185598
 20
-11.10000400000012
 40
1.099999999999994
100
AcDbArc
 50
-180
 51
-89.99999999999999
  0
LINE
  5
69
100
AcDbEntity
  8
0
  6
ByLayer
 62
  174
370
   -1
100
AcDbLine
 10
-67.7000281587068
 20
-9.800027999674825
 11
-68.56609032833281
 21
-11.30000817489713
  0
LINE
  5
6A
100
AcDbEntity
  8
0
  6
ByLayer
 62
  174
370
   -1
100
AcDbLine
 10
-67.7000281587068
 20
-9.600003999675021
 11
-67.7000281587068
 21
-9.800027999674825
  0
ARC
  5
6B
100
AcDbEntity
  8
0
  6
ByLayer
 62
  174
370
   -1
100
AcDbCircle
 10
-67.90002815870677
 20
-9.600003999674932
 40
0.2000000000000455
100
AcDbArc
 50
-1.700390069530493e-11
 51
89.99999999998407
  0
LINE
  5
6C
100
AcDbEntity
  8
0
  6
ByLayer
 62
  174
370
   -1
100
AcDbLine
 10
-68.42920776545679
 20
-9.400003999674865
 11
-67.9000281587068
 21
-9.400003999674905
  0
ARC
  5
6D
100
AcDbEntity
  8
0
  6
ByLayer
 62
  174
370
   -1
100
AcDbCircle
 10
-68.42920776545741
 20
-9.600003999675458
 40
0.2000000000005855
100
AcDbArc
 50
89.99999999982502
 51
163.398450400853
  0
ARC
  5
6E
100
AcDbEntity
  8
0
  6
ByLayer
 62
  174
370
   -1
100
AcDbCircle
 10
-69.1000281587078
 20
-9.400003999674897
 40
0.5
100
AcDbArc
 50
-89.99999999999837
 51
-16.60154959901698
  0
LINE
  5
6F
100
AcDbEntity
  8
0
  6
ByLayer
 62
  174
370
   -1
100
AcDbLine
 10
-69.2000281587068
 20
-9.900003999674897
 11
-69.1000281587078
 21
-9.900003999674897
  0
ARC
  5
70
100
AcDbEntity
  8
0
  6
ByLayer
 62
  174
370
   -1
100
AcDbCircle
 10
-69.20002815870677
 20
-9.400003999674897
 40
0.5
100
AcDbArc
 50
-180
 51
-89.99999999999999
  0
LINE
  5
71
100
AcDbEntity
  8
0
  6
ByLayer
 62
  174
370
   -1
100
AcDbLine
 10
-69.7000281587068
 20
-6.600003999675
 11
-69.70002815870677
 21
-9.400003999674897
  0
ARC
  5
72
100
AcDbEntity
  8
0
  6
ByLayer
 62
  174
370
   -1
100
AcDbCircle
 10
-69.5000281587067
 20
-6.600003999675021
 40
0.2000000000001165
100
AcDbArc
 50
89.99999999999605
 51
179.999999999994
  0
LINE
  5
73
100
AcDbEntity
  8
0
  6
ByLayer
 62
  174
370
   -1
100
AcDbLine
 10
-63.2000296587054
 20
-6.400003999549622
 11
-69.5000281587067
 21
-6.400003999674905
  0
LINE
  5
74
100
AcDbEntity
  8
0
  6
ByLayer
 62
  174
370
   -1
100
AcDbLine
 10
-63.20002965870528
 20
-6.147003999533059
 11
-63.2000296587054
 21
-6.400003999549622
  0
LINE
  5
75
100
AcDbEntity
  8
0
  6
ByLayer
 62
  174
370
   -1
100
AcDbLine
 10
-61.0000296587456
 20
-6.147003999234325
 11
-63.20002965870528
 21
-6.147003999533059
  0
LINE
  5
76
100
AcDbEntity
  8
0
  6
ByLayer
 62
  174
370
   -1
100
AcDbLine
 10
-60.70002965874549
 20
-5.84700399923442
 11
-61.0000296587456
 21
-6.147003999234325
  0
LINE
  5
77
100
AcDbEntity
  8
0
  6
ByLayer
 62
  174
370
   -1
100
AcDbLine
 10
-60.40002965876209
 20
-6.147003999217485
 11
-60.70002965874549
 21
-5.84700399923442
  0
LINE
  5
78
100
AcDbEntity
  8
0
  6
ByLayer
 62
  174
370
   -1
100
AcDbLine
 10
-58.20002965870529
 20
-6.147003998970593
 11
-60.40002965876209
 21
-6.147003999217485
  0
LINE
  5
79
100
AcDbEntity
  8
0
  6
ByLayer
 62
  174
370
   -1
100
AcDbLine
 10
-58.2000296587054
 20
-6.400003998999221
 11
-58.20002965870529
 21
-6.147003998970593
  0
LINE
  5
7A
100
AcDbEntity
  8
0
  6
ByLayer
 62
  174
370
   -1
100
AcDbLine
 10
-52.20003115870669
 20
-6.400003999675178
 11
-58.2000296587054
 21
-6.400003998999221
  0
ARC
  5
7B
100
AcDbEntity
  8
0
  6
ByLayer
 62
  174
370
   -1
100
AcDbCircle
 10
-52.20003115870669
 20
-6.600003999674996
 40
0.1999999999998252
100
AcDbArc
 50
7.016477563892661e-15
 51
90.00000000000003
  0
LINE
  5
7C
100
AcDbEntity
  8
0
  6
ByLayer
 62
  174
370
   -1
100
AcDbLine
 10
-52.00003115870669
 20
-9.200003999674902
 11
-52.0000311587069
 21
-6.600003999675
  0
ARC
  5
7D
100
AcDbEntity
  8
0
  6
ByLayer
 62
  174
370
   -1
100
AcDbCircle
 10
-52.20003115870669
 20
-9.200003999674898
 40
0.1999999999999886
100
AcDbArc
 50
-89.99999999999999
 51
7.016477563892661e-15
  0
LINE
  5
7E
100
AcDbEntity
  8
0
  6
ByLayer
 62
  174
370
   -1
100
AcDbLine
 10
-53.5000281587067
 20
-9.400003999674848
 11
-52.20003115870669
 21
-9.400003999674897
  0
ARC
  5
7F
100
AcDbEntity
  8
0
  6
ByLayer
 62
  174
370
   -1
100
AcDbCircle
 10
-53.5000281587067
 20
-9.600003999674978
 40
0.2000000000001094
100
AcDbArc
 50
90.00000000000399
 51
-179.9999999999959
  0
LINE
  5
80
100
AcDbEntity
  8
0
  6
ByLayer
 62
  174
370
   -1
100
AcDbLine
 10
-53.7000281587068
 20
-9.752908999674837
 11
-53.7000281587068
 21
-9.600003999674993
  0
LINE
  5
81
100
AcDbEntity
  8
0
  6
ByLayer
 62
  174
370
   -1
100
AcDbLine
 10
-52.80686536983669
 20
-11.29999976106681
 11
-53.7000281587068
 21
-9.752908999674837
  0
ARC
  5
82
100
AcDbEntity
  8
0
  6
ByLayer
 62
  174
370
   -1
100
AcDbCircle
 10
-52.6336578419873
 20
-11.20000399967462
 40
0.2000000000002302
100
AcDbArc
 50
-150.0014021103216
 51
-89.99999999986768
  0
LINE
  5
83
100
AcDbEntity
  8
0
  6
ByLayer
 62
  174
370
   -1
100
AcDbLine
 10
-50.90002615870779
 20
-11.40000399967492
 11
-52.6336578419869
 21
-11.40000399967492
  0
ARC
  5
84
100
AcDbEntity
  8
0
  6
ByLayer
 62
  174
370
   -1
100
AcDbCircle
 10
-50.90002615870719
 20
-11.10000399967442
 40
0.3000000000004945
100
AcDbArc
 50
-90.00000000011399
 51
-1.12980318763148e-10
  0
LINE
  5
85
100
AcDbEntity
  8
0
  6
ByLayer
 62
  174
370
   -1
100
AcDbLine
 10
-50.6000261587069
 20
-6.400003999999697
 11
-50.6000261587067
 21
-11.10000399967502
  0
LINE
  5
86
100
AcDbEntity
  8
0
  6
ByLayer
 62
  174
370
   -1
100
AcDbLine
 10
-36.214189562374
 20
-6.400024000000402
 11
-50.6000261587069
 21
-6.400003999999697
  0
ARC
  5
87
100
AcDbEntity
  8
0
  6
ByLayer
 62
  174
370
   -1
100
AcDbCircle
 10
-36.214189562374
 20
-5.400024000000402
 40
1
100
AcDbArc
 50
-90.00000000000328
 51
44.99999999999201
  0
LINE
  5
88
100
AcDbEntity
  8
0
  6
ByLayer
 62
  174
370
   -1
100
AcDbLine
 10
-36.8121320343562
 20
-3.387867965644702
 11
-35.5070827811873
 21
-4.69291721881396
  0
ARC
  5
89
100
AcDbEntity
  8
0
  6
ByLayer
 62
  174
370
   -1
100
AcDbCircle
 10
-37.0242640687123
 20
-3.600000000000641
 40
0.3000000000000753
100
AcDbArc
 50
44.99999999997899
 51
89.99999999999605
  0
LINE
  5
8A
100
AcDbEntity
  8
0
  6
ByLayer
 62
  174
370
   -1
100
AcDbLine
 10
-37.61076951545949
 20
-3.300000000000683
 11
-37.0242640687123
 21
-3.300000000000573
  0
ARC
  5
8B
100
AcDbEntity
  8
0
  6
ByLayer
 62
  174
370
   -1
100
AcDbCircle
 10
-37.61076951545949
 20
-3.600000000000541
 40
0.2999999999998693
100
AcDbArc
 50
89.99999999999702
 51
119.999999999995
  0
LINE
  5
8C
100
AcDbEntity
  8
0
  6
ByLayer
 62
  174
370
   -1
100
AcDbLine
 10
-39.2500000000003
 20
-4.200000000000522
 11
-37.7607695154594
 21
-3.340192378865311
  0
LINE
  5
8D
100
AcDbEntity
  8
0
  6
ByLayer
 62
  174
370
   -1
100
AcDbLine
 10
-39.7000000000003
 20
-4.200012000000164
 11
-39.2500000000003
 21
-4.200000000000522
  0
ARC
  5
8E
100
AcDbEntity
  8
0
  6
ByLayer
 62
  174
370
   -1
100
AcDbCircle
 10
-39.7000000000003
 20
-3.90001200000016
 40
0.2999999999999972
100
AcDbArc
 50
179.999999999995
 51
-90.00000000000269
  0
LINE
  5
8F
100
AcDbEntity
  8
0
  6
ByLayer
 62
  174
370
   -1
100
AcDbLine
 10
-40
 20
-0.3000000000000753
 11
-40.0000000000003
 21
-3.900012000000146
  0
ARC
  5
90
100
AcDbEntity
  8
0
  6
ByLayer
 62
  174
370
   -1
100
AcDbCircle
 10
-39.7
 20
-0.3000000000000966
 40
0.2999999999999972
100
AcDbArc
 50
89.99999999999605
 51
179.999999999996
  0
LINE
  5
91
100
AcDbEntity
  8
0
  6
ByLayer
 62
  174
370
   -1
100
AcDbLine
 10
-39.25
 20
-2.238209617644316e-13
 11
-39.7
 21
-9.947598300641403e-14
  0
LINE
  5
92
100
AcDbEntity
  8
0
  6
ByLayer
 62
  174
370
   -1
100
AcDbLine
 10
-37.7607398689259
 20
-0.8598247375693013
 11
-39.25
 21
-2.238209617644316e-13
  0
ARC
  5
93
100
AcDbEntity
  8
0
  6
ByLayer
 62
  174
370
   -1
100
AcDbCircle
 10
-37.6107398689259
 20
-0.6000171164339747
 40
0.3000000000000043
100
AcDbArc
 50
-120.0000000000011
 51
-90.00364686744297
  0
LINE
  5
94
100
AcDbEntity
  8
0
  6
ByLayer
 62
  174
370
   -1
100
AcDbLine
 10
-37.5026020000002
 20
-0.9000240000001938
 11
-37.61075896387909
 21
-0.9000171158262802
  0
LINE
  5
95
100
AcDbEntity
  8
0
  6
ByLayer
 62
  174
370
   -1
100
AcDbLine
 10
-37.50260200000021
 20
2.600016000000782
 11
-37.5026020000002
 21
-0.9000240000001938
  0
LINE
  5
96
100
AcDbEntity
  8
0
  6
ByLayer
 62
  174
370
   -1
100
AcDbLine
 10
-37.61075896387909
 20
2.600009115826868
 11
-37.50260200000021
 21
2.600016000000782
  0
ARC
  5
97
100
AcDbEntity
  8
0
  6
ByLayer
 62
  174
370
   -1
100
AcDbCircle
 10
-37.6107398689259
 20
2.300009116434573
 40
0.2999999999999829
100
AcDbArc
 50
90.00364686744302
 51
120.000000000001
  0
LINE
  5
98
100
AcDbEntity
  8
0
  6
ByLayer
 62
  174
370
   -1
100
AcDbLine
 10
-39.25
 20
1.699992000000801
 11
-37.7607398689259
 21
2.559816737569921
  0
LINE
  5
99
100
AcDbEntity
  8
0
  6
ByLayer
 62
  174
370
   -1
100
AcDbLine
 10
-39.7
 20
1.699992000000684
 11
-39.25
 21
1.699992000000801
  0
ARC
  5
9A
100
AcDbEntity
  8
0
  6
ByLayer
 62
  174
370
   -1
100
AcDbCircle
 10
-39.7
 20
1.999992000000681
 40
0.2999999999999901
100
AcDbArc
 50
-179.9999999999982
 51
-89.99999999999588
  0
LINE
  5
9B
100
AcDbEntity
  8
0
  6
ByLayer
 62
  174
370
   -1
100
AcDbLine
 10
-40.0000000000003
 20
5.60000400000073
 11
-40
 21
1.999992000000681
  0
ARC
  5
9C
100
AcDbEntity
  8
0
  6
ByLayer
 62
  174
370
   -1
100
AcDbCircle
 10
-39.7000000000003
 20
5.600004000000759
 40
0.3000000000000185
100
AcDbArc
 50
90.00000000000104
 51
-179.9999999999956
  0
LINE
  5
9D
100
AcDbEntity
  8
0
  6
ByLayer
 62
  174
370
   -1
100
AcDbLine
 10
-39.2500000000003
 20
5.899992000001124
 11
-39.7000000000003
 21
5.900004000000788
  0
LINE
  5
9E
100
AcDbEntity
  8
0
  6
ByLayer
 62
  174
370
   -1
100
AcDbLine
 10
-37.7607695154594
 20
5.040184378865906
 11
-39.2500000000003
 21
5.899992000001124
  0
ARC
  5
9F
100
AcDbEntity
  8
0
  6
ByLayer
 62
  174
370
   -1
100
AcDbCircle
 10
-37.61076951545949
 20
5.299992000001129
 40
0.299999999999855
100
AcDbArc
 50
-119.9999999999942
 51
-89.99999999999727
  0
LINE
  5
A0
100
AcDbEntity
  8
0
  6
ByLayer
 62
  174
370
   -1
100
AcDbLine
 10
-37.0242640687123
 20
4.999992000001189
 11
-37.61076951545949
 21
4.999992000001242
  0
ARC
  5
A1
100
AcDbEntity
  8
0
  6
ByLayer
 62
  174
370
   -1
100
AcDbCircle
 10
-37.0242640687123
 20
5.299992000001241
 40
0.300000000000054
100
AcDbArc
 50
-89.99999999999588
 51
-44.99999999997896
  0
LINE
  5
A2
100
AcDbEntity
  8
0
  6
ByLayer
 62
  174
370
   -1
100
AcDbLine
 10
-35.5070827811873
 20
6.392909218814522
 11
-36.8121320343562
 21
5.087859965645299
  0
ARC
  5
A3
100
AcDbEntity
  8
0
  6
ByLayer
 62
  174
370
   -1
100
AcDbCircle
 10
-36.214189562374
 20
7.100016000001009
 40
1.000000000000028
100
AcDbArc
 50
-44.99999999999301
 51
90.00000000000399
  0
LINE
  5
A4
100
AcDbEntity
  8
0
  6
ByLayer
 62
  174
370
   -1
100
AcDbLine
 10
-39.9974251587058
 20
8.099994898853705
 11
-36.214189562374
 21
8.100016000000979
  0
LINE
  5
A5
100
AcDbEntity
  8
0
  6
ByLayer
 62
  174
370
   -1
100
AcDbLine
 10
-39.9974251587058
 20
11.59999200000039
 11
-39.9974251587058
 21
8.099994898853705
  0
LINE
  5
A6
100
AcDbEntity
  8
0
  6
ByLayer
 62
  174
370
   -1
100
AcDbLine
 10
-39.897425158706
 20
11.59999200000039
 11
-39.9974251587058
 21
11.59999200000039
  0
ARC
  5
A7
100
AcDbEntity
  8
0
  6
ByLayer
 62
  174
370
   -1
100
AcDbCircle
 10
-39.897425158706
 20
11.79999200000049
 40
0.2000000000000526
100
AcDbArc
 50
-90.00000000002238
 51
-1.59861231972366e-11
  0
LINE
  5
A8
100
AcDbEntity
  8
0
  6
ByLayer
 62
  174
370
   -1
100
AcDbLine
 10
-39.6974251587059
 20
15.89999200032549
 11
-39.6974251587059
 21
11.79999200000039
  0
ARC
  5
A9
100
AcDbEntity
  8
0
  6
ByLayer
 62
  174
370
   -1
100
AcDbCircle
 10
-39.8974251587058
 20
15.89999200032549
 40
0.1999999999998536
100
AcDbArc
 50
2.102412181267481e-11
 51
90.00000000001801
  0
LINE
  5
AA
100
AcDbEntity
  8
0
  6
ByLayer
 62
  174
370
   -1
100
AcDbLine
 10
-43.500043158707
 20
16.09999200032528
 11
-39.89742515870581
 21
16.09999200032529
  0
ARC
  5
AB
100
AcDbEntity
  8
0
  6
ByLayer
 62
  174
370
   -1
100
AcDbCircle
 10
-43.500043158707
 20
15.89999200032548
 40
0.1999999999997897
100
AcDbArc
 50
90.000000000002
 51
179.999999999996
  0
LINE
  5
AC
100
AcDbEntity
  8
0
  6
ByLayer
 62
  174
370
   -1
100
AcDbLine
 10
-43.7000431587068
 20
14.79999200032558
 11
-43.7000431587068
 21
15.8999920003255
  0
ARC
  5
AD
100
AcDbEntity
  8
0
  6
ByLayer
 62
  174
370
   -1
100
AcDbCircle
 10
-43.500043158707
 20
14.79999200032558
 40
0.199999999999811
100
AcDbArc
 50
-179.9999999999914
 51
-89.99999999999189
  0
LINE
  5
AE
100
AcDbEntity
  8
0
  6
ByLayer
 62
  174
370
   -1
100
AcDbLine
 10
-41.40004315870709
 20
14.59999200032529
 11
-43.500043158707
 21
14.59999200032579
  0
ARC
  5
AF
100
AcDbEntity
  8
0
  6
ByLayer
 62
  174
370
   -1
100
AcDbCircle
 10
-41.4000431587069
 20
14.39999200032528
 40
0.2000000000000455
100
AcDbArc
 50
7.600955114581609e-11
 51
90.00000000007495
  0
LINE
  5
B0
100
AcDbEntity
  8
0
  6
ByLayer
 62
  174
370
   -1
100
AcDbLine
 10
-41.2000431587081
 20
11.79999200032539
 11
-41.20004315870681
 21
14.39999200032548
  0
ARC
  5
B1
100
AcDbEntity
  8
0
  6
ByLayer
 62
  174
370
   -1
100
AcDbCircle
 10
-41.4000431587081
 20
11.79999200032558
 40
0.1999999999999105
100
AcDbArc
 50
-90.00589135000837
 51
-4.595967051534878e-11
  0
LINE
  5
B2
100
AcDbEntity
  8
0
  6
ByLayer
 62
  174
370
   -1
100
AcDbLine
 10
-48.69931123859421
 20
11.59999200138309
 11
-41.400063723399
 21
11.59999200138288
  0
LINE
  5
B3
100
AcDbEntity
  8
0
  6
ByLayer
 62
  174
370
   -1
100
AcDbLine
 10
-48.6993112385941
 20
11.34699200081778
 11
-48.69931123859421
 21
11.59999200138309
  0
LINE
  5
B4
100
AcDbEntity
  8
0
  6
ByLayer
 62
  174
370
   -1
100
AcDbLine
 10
-50.8993112386339
 20
11.34699200106488
 11
-48.6993112385941
 21
11.34699200081778
  0
LINE
  5
B5
100
AcDbEntity
  8
0
  6
ByLayer
 62
  174
370
   -1
100
AcDbLine
 10
-51.19931123863421
 20
11.04699200106498
 11
-50.8993112386339
 21
11.34699200106488
  0
LINE
  5
B6
100
AcDbEntity
  8
0
  6
ByLayer
 62
  174
370
   -1
100
AcDbLine
 10
-51.4993112386344
 20
11.34699200106478
 11
-51.19931123863421
 21
11.04699200106498
  0
LINE
  5
B7
100
AcDbEntity
  8
0
  6
ByLayer
 62
  174
370
   -1
100
AcDbLine
 10
-53.6993112385941
 20
11.34699200138508
 11
-51.4993112386344
 21
11.34699200106478
  0
LINE
  5
B8
100
AcDbEntity
  8
0
  6
ByLayer
 62
  174
370
   -1
100
AcDbLine
 10
-53.69931123859421
 20
11.59999200138309
 11
-53.6993112385941
 21
11.34699200138508
  0
LINE
  5
B9
100
AcDbEntity
  8
0
  6
ByLayer
 62
  174
370
   -1
100
AcDbLine
 10
-60.9985998851164
 20
11.59999200138288
 11
-53.69931123859421
 21
11.59999200138309
  0
ARC
  5
BA
100
AcDbEntity
  8
0
  6
ByLayer
 62
  174
370
   -1
100
AcDbCircle
 10
-60.9985793185599
 20
11.79999200032578
 40
0.2000000000003013
100
AcDbArc
 50
-179.9999999999623
 51
-90.00589188443928
  0
LINE
  5
BB
100
AcDbEntity
  8
0
  6
ByLayer
 62
  174
370
   -1
100
AcDbLine
 10
-61.19857931856021
 20
14.39999200032548
 11
-61.19857931856019
 21
11.79999200032558
  0
ARC
  5
BC
100
AcDbEntity
  8
0
  6
ByLayer
 62
  174
370
   -1
100
AcDbCircle
 10
-60.99857931856009
 20
14.39999200032528
 40
0.2000000000001094
100
AcDbArc
 50
89.99999999991202
 51
179.9999999999221
  0
LINE
  5
BD
100
AcDbEntity
  8
0
  6
ByLayer
 62
  174
370
   -1
100
AcDbLine
 10
-58.89857931856
 20
14.59999200032528
 11
-60.99857931855979
 21
14.59999200032539
  0
ARC
  5
BE
100
AcDbEntity
  8
0
  6
ByLayer
 62
  174
370
   -1
100
AcDbCircle
 10
-58.89857931856002
 20
14.79999200032568
 40
0.2000000000003084
100
AcDbArc
 50
-89.999999999998
 51
-2.501889849259299e-11
  0
LINE
  5
BF
100
AcDbEntity
  8
0
  6
ByLayer
 62
  174
370
   -1
100
AcDbLine
 10
-58.6985793185602
 20
15.89999200032548
 11
-58.69857931855969
 21
14.79999200032558
  0
ARC
  5
C0
100
AcDbEntity
  8
0
  6
ByLayer
 62
  174
370
   -1
100
AcDbCircle
 10
-58.89857931856002
 20
15.89999200032558
 40
0.1999999999997968
100
AcDbArc
 50
-1.499379013661998e-11
 51
90.000000000002
  0
LINE
  5
C1
100
AcDbEntity
  8
0
  6
ByLayer
 62
  174
370
   -1
100
AcDbLine
 10
-62.99857931855982
 20
16.09999200032518
 11
-58.89857931856002
 21
16.09999200032528
  0
ARC
  5
C2
100
AcDbEntity
  8
0
  6
ByLayer
 62
  174
370
   -1
100
AcDbCircle
 10
-62.99857931855981
 20
15.89999200032479
 40
0.2000000000003297
100
AcDbArc
 50
89.999999999998
 51
-179.9999999999837
  0
LINE
  5
C3
100
AcDbEntity
  8
0
  6
ByLayer
 62
  174
370
   -1
100
AcDbLine
 10
-63.19857931856021
 20
14.79999200032509
 11
-63.19857931856012
 21
15.89999200032478
  0
ARC
  5
C4
100
AcDbEntity
  8
0
  6
ByLayer
 62
  174
370
   -1
100
AcDbCircle
 10
-62.99857931855982
 20
14.79999200032518
 40
0.2000000000004292
100
AcDbArc
 50
-179.9999999999908
 51
-89.99999999999999
  0
LINE
  5
C5
100
AcDbEntity
  8
0
  6
ByLayer
 62
  174
370
   -1
100
AcDbLine
 10
-62.89857931856
 20
14.59999200032528
 11
-62.99857931855979
 21
14.59999200032479
  0
ARC
  5
C6
100
AcDbEntity
  8
0
  6
ByLayer
 62
  174
370
   -1
100
AcDbCircle
 10
-62.89857931856011
 20
14.39999200032538
 40
0.1999999999999034
100
AcDbArc
 50
3.102378573119611e-11
 51
89.99999999997605
  0
LINE
  5
C7
100
AcDbEntity
  8
0
  6
ByLayer
 62
  174
370
   -1
100
AcDbLine
 10
-62.6985793185592
 20
12.79999200032558
 11
-62.6985793185602
 21
14.39999200032548
  0
ARC
  5
C8
100
AcDbEntity
  8
0
  6
ByLayer
 62
  174
370
   -1
100
AcDbCircle
 10
-62.8985793185593
 20
12.79999200032538
 40
0.2000000000000668
100
AcDbArc
 50
-89.99999999993078
 51
6.600988722729479e-11
  0
LINE
  5
C9
100
AcDbEntity
  8
0
  6
ByLayer
 62
  174
370
   -1
100
AcDbLine
 10
-62.99857931855979
 20
12.59999200032528
 11
-62.8985793185591
 21
12.59999200032528
  0
ARC
  5
CA
100
AcDbEntity
  8
0
  6
ByLayer
 62
  174
370
   -1
100
AcDbCircle
 10
-62.99857931855981
 20
12.39999200032548
 40
0.1999999999997684
100
AcDbArc
 50
90.00000000000003
 51
-179.9999999999954
  0
LINE
  5
CB
100
AcDbEntity
  8
0
  6
ByLayer
 62
  174
370
   -1
100
AcDbLine
 10
-63.19857931856021
 20
11.79999200000019
 11
-63.1985793185596
 21
12.39999200032549
  0
ARC
  5
CC
100
AcDbEntity
  8
0
  6
ByLayer
 62
  174
370
   -1
100
AcDbCircle
 10
-63.39857931856019
 20
11.79999200000018
 40
0.2000000000000099
100
AcDbArc
 50
-89.99999999994299
 51
2.400112099452466e-11
  0
LINE
  5
CD
100
AcDbEntity
  8
0
  6
ByLayer
 62
  174
370
   -1
100
AcDbLine
 10
-68.32421868993799
 20
11.59999199999977
 11
-63.39857931856
 21
11.59999200000018
  0
ARC
  5
CE
100
AcDbEntity
  8
0
  6
ByLayer
 62
  174
370
   -1
100
AcDbCircle
 10
-68.32421868993811
 20
12.59999199999988
 40
1.000000000000028
100
AcDbArc
 50
-178.5119788378734
 51
-89.99999999999018
  0
LINE
  5
CF
100
AcDbEntity
  8
0
  6
ByLayer
 62
  174
370
   -1
100
AcDbLine
 10
-69.6933888292383
 20
26.79858808814079
 11
-69.3238814658848
 21
12.57402405078088
  0
ARC
  5
D0
100
AcDbEntity
  8
0
  6
ByLayer
 62
  174
370
   -1
100
AcDbCircle
 10
-69.4934562740489
 20
26.8037816779847
 40
0.2000000000000028
100
AcDbArc
 50
90.00000000000399
 51
-178.5119788378565
  0
LINE
  5
D1
100
AcDbEntity
  8
0
  6
ByLayer
 62
  174
370
   -1
100
AcDbLine
 10
-68.2025200571664
 20
27.00378167798458
 11
-69.49345627404901
 21
27.00378167798469
  0
ARC
  5
D2
100
AcDbEntity
  8
0
  6
ByLayer
 62
  174
370
   -1
100
AcDbCircle
 10
-68.20252005716659
 20
26.80378167798457
 40
0.2000000000000455
100
AcDbArc
 50
-4.400044883156726e-11
 51
89.99999999995099
  0
LINE
  5
D3
100
AcDbEntity
  8
0
  6
ByLayer
 62
  174
370
   -1
100
AcDbLine
 10
-68.00252005716649
 20
26.60378167798467
 11
-68.00252005716649
 21
26.80378167798437
  0
LINE
  5
D4
100
AcDbEntity
  8
0
  6
ByLayer
 62
  174
370
   -1
100
AcDbLine
 10
-66.49857931855971
 20
26.60378167798468
 11
-68.00252005716649
 21
26.60378167798467
  0
ARC
  5
D5
100
AcDbEntity
  8
0
  6
ByLayer
 62
  174
370
   -1
100
AcDbCircle
 10
-66.49857931855982
 20
26.90378167798459
 40
0.2999999999998835
100
AcDbArc
 50
-89.99999999999727
 51
-2.984015659413744e-12
  0
LINE
  5
D6
100
AcDbEntity
  8
0
  6
ByLayer
 62
  174
370
   -1
100
AcDbLine
 10
-66.19857931856011
 20
28.50000400032528
 11
-66.19857931855991
 21
26.90378167798459
  0
ARC
  5
D7
100
AcDbEntity
  8
0
  6
ByLayer
 62
  174
370
   -1
100
AcDbCircle
 10
-66.49857931855982
 20
28.50000400032518
 40
0.2999999999996277
100
AcDbArc
 50
9.993495381805099e-13
 51
90.00000000000303
  0
LINE
  5
D8
100
AcDbEntity
  8
0
  6
ByLayer
 62
  174
370
   -1
100
AcDbLine
 10
-67.0985613185601
 20
28.80000400032519
 11
-66.49857931855982
 21
28.80000400032489
  0
ARC
  5
D9
100
AcDbEntity
  8
0
  6
ByLayer
 62
  174
370
   -1
100
AcDbCircle
 10
-67.09856131856009
 20
28.50000400032518
 40
0.2999999999999972
100
AcDbArc
 50
89.99999999999702
 51
179.999999999987
  0
LINE
  5
DA
100
AcDbEntity
  8
0
  6
ByLayer
 62
  174
370
   -1
100
AcDbLine
 10
-67.3985613185603
 20
28.08563360167377
 11
-67.39856131856011
 21
28.50000400032528
  0
ARC
  5
DB
100
AcDbEntity
  8
0
  6
ByLayer
 62
  174
370
   -1
100
AcDbCircle
 10
-67.5985613185602
 20
28.08563360167368
 40
0.1999999999999602
100
AcDbArc
 50
-110.0000000000249
 51
2.003178875205819e-11
  0
LINE
  5
DC
100
AcDbEntity
  8
0
  6
ByLayer
 62
  174
370
   -1
100
AcDbLine
 10
-69.4695893902225
 20
28.55379657274018
 11
-67.6669653472254
 21
27.89769507751657
  0
ARC
  5
DD
100
AcDbEntity
  8
0
  6
ByLayer
 62
  174
370
   -1
100
AcDbCircle
 10
-69.2985793185594
 20
29.02364288313309
 40
0.5000000000000853
100
AcDbArc
 50
-179.9999999999996
 51
-110.0000000000201
  0
LINE
  5
DE
100
AcDbEntity
  8
0
  6
ByLayer
 62
  174
370
   -1
100
AcDbLine
 10
-69.79857931855952
 20
31.89998000032517
 11
-69.7985793185595
 21
29.02364288313308
  0
ARC
  5
DF
100
AcDbEntity
  8
0
  6
ByLayer
 62
  174
370
   -1
100
AcDbCircle
 10
-69.29857931855949
 20
31.89998000032517
 40
0.5000000000000853
100
AcDbArc
 50
89.99999999999702
 51
179.999999999996
  0
LINE
  5
E0
100
AcDbEntity
  8
0
  6
ByLayer
 62
  174
370
   -1
100
AcDbLine
 10
-67.5985613185601
 20
32.39998000032517
 11
-69.29857931855949
 21
32.39998000032527
  0
ARC
  5
E1
100
AcDbEntity
  8
0
  6
ByLayer
 62
  174
370
   -1
100
AcDbCircle
 10
-67.59856131856012
 20
32.19998000032538
 40
0.1999999999998323
100
AcDbArc
 50
-2.196556599838801e-11
 51
89.99999999999204
  0
LINE
  5
E2
100
AcDbEntity
  8
0
  6
ByLayer
 62
  174
370
   -1
100
AcDbLine
 10
-67.39856131856033
 20
31.69998000032508
 11
-67.3985613185603
 21
32.19998000032526
  0
ARC
  5
E3
100
AcDbEntity
  8
0
  6
ByLayer
 62
  174
370
   -1
100
AcDbCircle
 10
-67.09856131856009
 20
31.69998000032497
 40
0.3000000000001819
100
AcDbArc
 50
179.9999999999931
 51
-89.99999999999727
  0
LINE
  5
E4
100
AcDbEntity
  8
0
  6
ByLayer
 62
  174
370
   -1
100
AcDbLine
 10
-66.49857931855982
 20
31.39998000032539
 11
-67.09856131856009
 21
31.39998000032487
  0
ARC
  5
E5
100
AcDbEntity
  8
0
  6
ByLayer
 62
  174
370
   -1
100
AcDbCircle
 10
-66.49857931855981
 20
31.69998000032497
 40
0.2999999999995993
100
AcDbArc
 50
-89.99999999999727
 51
-1.966238161345419e-12
  0
LINE
  5
E6
100
AcDbEntity
  8
0
  6
ByLayer
 62
  174
370
   -1
100
AcDbLine
 10
-66.19857931856022
 20
33.29999200032509
 11
-66.19857931856021
 21
31.69998000032497
  0
ARC
  5
E7
100
AcDbEntity
  8
0
  6
ByLayer
 62
  174
370
   -1
100
AcDbCircle
 10
-66.49857931855981
 20
33.29999200032506
 40
0.2999999999995993
100
AcDbArc
 50
-7.996569837400246e-12
 51
90.00000000000303
  0
LINE
  5
E8
100
AcDbEntity
  8
0
  6
ByLayer
 62
  174
370
   -1
100
AcDbLine
 10
-69.69857931856021
 20
33.59999200032527
 11
-66.49857931855982
 21
33.59999200032468
  0
ARC
  5
E9
100
AcDbEntity
  8
0
  6
ByLayer
 62
  174
370
   -1
100
AcDbCircle
 10
-69.69857931856021
 20
32.09999200032527
 40
1.499999999999972
100
AcDbArc
 50
90.00000000000104
 51
-179.9999999999987
  0
LINE
  5
EA
100
AcDbEntity
  8
0
  6
ByLayer
 62
  174
370
   -1
100
AcDbLine
 10
-71.19857931855978
 20
-11.10000400000012
 11
-71.19857931856021
 21
32.09999200032527
  0
ARC
  5
EB
100
AcDbEntity
  8
0
  6
ByLayer
 62
  174
370
   -1
100
AcDbCircle
 10
-70.8985793185598
 20
-11.10000400000012
 40
0.2999999999999972
100
AcDbArc
 50
-180
 51
-89.99999999999999
  0
LINE
  5
EC
100
AcDbEntity
  8
0
  6
ByLayer
 62
  174
370
   -1
100
AcDbLine
 10
-68.7392929984578
 20
-11.40000400000012
 11
-70.8985793185598
 21
-11.40000400000012
  0
ARC
  5
ED
100
AcDbEntity
  8
0
  6
ByLayer
 62
  174
370
   -1
100
AcDbCircle
 10
-68.73929299845778
 20
-11.20000399967492
 40
0.2000000003251472
100
AcDbArc
 50
-90.00000000000408
 51
-30.00138116187501
  0
LINE
  5
EE
100
AcDbEntity
  8
0
  6
ByLayer
 62
  174
370
   -1
100
AcDbLine
 10
-3.223223304703399
 20
-3.352512626584701
 11
-6.124264068711408
 21
-6.253553390593333
  0
ARC
  5
EF
100
AcDbEntity
  8
0
  6
ByLayer
 62
  174
370
   -1
100
AcDbCircle
 10
-2.975735931288088
 20
-3.599999999999961
 40
0.349999999999997
100
AcDbArc
 50
89.99999999999399
 51
135.0000000000061
  0
LINE
  5
F0
100
AcDbEntity
  8
0
  6
ByLayer
 62
  174
370
   -1
100
AcDbLine
 10
-2.399999999999999
 20
-3.250000000000012
 11
-2.975735931288049
 21
-3.24999999999996
  0
ARC
  5
F1
100
AcDbEntity
  8
0
  6
ByLayer
 62
  174
370
   -1
100
AcDbCircle
 10
-2.399999999999949
 20
-3.599999999999981
 40
0.349999999999973
100
AcDbArc
 50
60.00000000000701
 51
90.00000000000807
  0
LINE
  5
F2
100
AcDbEntity
  8
0
  6
ByLayer
 62
  174
370
   -1
100
AcDbLine
 10
-0.7473720558371666
 20
-4.15
 11
-2.225000000000009
 21
-3.29689110867543
  0
LINE
  5
F3
100
AcDbEntity
  8
0
  6
ByLayer
 62
  174
370
   -1
100
AcDbLine
 10
-0.3
 20
-4.14999999999999
 11
-0.7473720558371666
 21
-4.15
  0
ARC
  5
F4
100
AcDbEntity
  8
0
  6
ByLayer
 62
  174
370
   -1
100
AcDbCircle
 10
-0.3000000000000005
 20
-3.89999999999999
 40
0.2500000000000013
100
AcDbArc
 50
-89.99999999999957
 51
7.016477563892661e-15
  0
LINE
  5
F5
100
AcDbEntity
  8
0
  6
ByLayer
 62
  174
370
   -1
100
AcDbLine
 10
-0.04999999999999971
 20
-0.300000000000001
 11
-0.04999999999999871
 21
-3.89999999999999
  0
ARC
  5
F6
100
AcDbEntity
  8
0
  6
ByLayer
 62
  174
370
   -1
100
AcDbCircle
 10
-0.3000000000000019
 20
-0.3000000000000021
 40
0.2500000000000021
100
AcDbArc
 50
7.016477563892661e-15
 51
90.00000000000003
  0
LINE
  5
F7
100
AcDbEntity
  8
0
  6
ByLayer
 62
  174
370
   -1
100
AcDbLine
 10
-0.7473720558371149
 20
-0.05000000000000449
 11
-0.2999999999999999
 21
-0.05000000000000077
  0
LINE
  5
F8
100
AcDbEntity
  8
0
  6
ByLayer
 62
  174
370
   -1
100
AcDbLine
 10
-2.225
 20
-0.9031088913245534
 11
-0.7473720558371149
 21
-0.05000000000000449
  0
ARC
  5
F9
100
AcDbEntity
  8
0
  6
ByLayer
 62
  174
370
   -1
100
AcDbCircle
 10
-2.40000000000001
 20
-0.6000000000000029
 40
0.3500000000000045
100
AcDbArc
 50
-89.99999999999828
 51
-59.99999999999798
  0
LINE
  5
FA
100
AcDbEntity
  8
0
  6
ByLayer
 62
  174
370
   -1
100
AcDbLine
 10
-2.68578643762691
 20
-0.9500000000000067
 11
-2.399999999999999
 21
-0.9500000000000065
  0
ARC
  5
FB
100
AcDbEntity
  8
0
  6
ByLayer
 62
  174
370
   -1
100
AcDbCircle
 10
-2.68578643762693
 20
0.09999999999999543
 40
1.05
100
AcDbArc
 50
-134.9999999999991
 51
-89.99999999999898
  0
LINE
  5
FC
100
AcDbEntity
  8
0
  6
ByLayer
 62
  174
370
   -1
100
AcDbLine
 10
-3.577817459304879
 20
-0.4928932188137491
 11
-3.428248557872799
 21
-0.642462120245892
  0
ARC
  5
FD
100
AcDbEntity
  8
0
  6
ByLayer
 62
  174
370
   -1
100
AcDbCircle
 10
-4.28492424049156
 20
-1.200000000000162
 40
0.9999999999999991
100
AcDbArc
 50
44.99999999998902
 51
90.00000000000003
  0
LINE
  5
FE
100
AcDbEntity
  8
0
  6
ByLayer
 62
  174
370
   -1
100
AcDbLine
 10
-35.7150757595085
 20
-0.2000000000001698
 11
-4.28492424049156
 21
-0.2000000000001605
  0
ARC
  5
FF
100
AcDbEntity
  8
0
  6
ByLayer
 62
  174
370
   -1
100
AcDbCircle
 10
-35.71507575950839
 20
-1.200000000000149
 40
0.9999999999999716
100
AcDbArc
 50
90.00000000000003
 51
135.0000000000111
  0
LINE
  5
100
100
AcDbEntity
  8
0
  6
ByLayer
 62
  174
370
   -1
100
AcDbLine
 10
-36.57175144212719
 20
-0.6424621202458951
 11
-36.4221825406951
 21
-0.4928932188137551
  0
ARC
  5
101
100
AcDbEntity
  8
0
  6
ByLayer
 62
  174
370
   -1
100
AcDbCircle
 10
-37.3142135623731
 20
0.0999999999999801
 40
1.04999999999999
100
AcDbArc
 50
-90.00000000000078
 51
-44.99999999999998
  0
LINE
  5
102
100
AcDbEntity
  8
0
  6
ByLayer
 62
  174
370
   -1
100
AcDbLine
 10
-37.6
 20
-0.9500000000000242
 11
-37.3142135623731
 21
-0.9500000000000099
  0
ARC
  5
103
100
AcDbEntity
  8
0
  6
ByLayer
 62
  174
370
   -1
100
AcDbCircle
 10
-37.59999999996829
 20
-0.6000000000012733
 40
0.3499999999987438
100
AcDbArc
 50
-120.0000000051915
 51
-90.00000000519117
  0
LINE
  5
104
100
AcDbEntity
  8
0
  6
ByLayer
 62
  174
370
   -1
100
AcDbLine
 10
-39.2526279441573
 20
-0.04999999998303295
 11
-37.7749999999951
 21
-0.9031088913088894
  0
LINE
  5
105
100
AcDbEntity
  8
0
  6
ByLayer
 62
  174
370
   -1
100
AcDbLine
 10
-39.6999999999944
 20
-0.04999999998263149
 11
-39.2526279441573
 21
-0.04999999998303295
  0
ARC
  5
106
100
AcDbEntity
  8
0
  6
ByLayer
 62
  174
370
   -1
100
AcDbCircle
 10
-39.6999999999946
 20
-0.2999999999826315
 40
0.25
100
AcDbArc
 50
89.99999999995002
 51
179.99999999995
  0
LINE
  5
107
100
AcDbEntity
  8
0
  6
ByLayer
 62
  174
370
   -1
100
AcDbLine
 10
-39.9499999999978
 20
-3.899999999982406
 11
-39.9499999999946
 21
-0.2999999999824077
  0
ARC
  5
108
100
AcDbEntity
  8
0
  6
ByLayer
 62
  174
370
   -1
100
AcDbCircle
 10
-39.6999999999978
 20
-3.899999999982608
 40
0.2500000000000071
100
AcDbArc
 50
179.999999999952
 51
-90.00000000004889
  0
LINE
  5
109
100
AcDbEntity
  8
0
  6
ByLayer
 62
  174
370
   -1
100
AcDbLine
 10
-39.25262794416079
 20
-4.149999999983027
 11
-39.699999999998
 21
-4.149999999982619
  0
LINE
  5
10A
100
AcDbEntity
  8
0
  6
ByLayer
 62
  174
370
   -1
100
AcDbLine
 10
-37.7749999999972
 20
-3.296891108659764
 11
-39.25262794416079
 21
-4.149999999983027
  0
ARC
  5
10B
100
AcDbEntity
  8
0
  6
ByLayer
 62
  174
370
   -1
100
AcDbCircle
 10
-37.6000000000279
 20
-3.59999999998697
 40
0.3499999999869416
100
AcDbArc
 50
89.99999999542807
 51
119.9999999954281
  0
LINE
  5
10C
100
AcDbEntity
  8
0
  6
ByLayer
 62
  174
370
   -1
100
AcDbLine
 10
-37.024264068712
 20
-3.249999999999964
 11
-37.6
 21
-3.250000000000028
  0
ARC
  5
10D
100
AcDbEntity
  8
0
  6
ByLayer
 62
  174
370
   -1
100
AcDbCircle
 10
-37.0242640687119
 20
-3.599999999999948
 40
0.3499999999999943
100
AcDbArc
 50
44.99999999999301
 51
90.00000000000608
  0
LINE
  5
10E
100
AcDbEntity
  8
0
  6
ByLayer
 62
  174
370
   -1
100
AcDbLine
 10
-33.8757359312886
 20
-6.253553390593337
 11
-36.77677669529659
 21
-3.352512626584691
  0
ARC
  5
10F
100
AcDbEntity
  8
0
  6
ByLayer
 62
  174
370
   -1
100
AcDbCircle
 10
-33.5221825406953
 20
-5.900000000000109
 40
0.5
100
AcDbArc
 50
-135.0000000000065
 51
-89.99999999999758
  0
LINE
  5
110
100
AcDbEntity
  8
0
  6
ByLayer
 62
  174
370
   -1
100
AcDbLine
 10
-6.477817459304707
 20
-6.4000000000001
 11
-33.5221825406953
 21
-6.400000000000109
  0
ARC
  5
111
100
AcDbEntity
  8
0
  6
ByLayer
 62
  174
370
   -1
100
AcDbCircle
 10
-6.477817459304728
 20
-5.900000000000101
 40
0.5000000000000036
100
AcDbArc
 50
-89.99999999999777
 51
-44.99999999999397
  0
LINE
  5
112
100
AcDbEntity
  8
0
  6
ByLayer
 62
  174
370
   -1
100
AcDbLine
 10
-13.7000000000029
 20
-4.599999999987274
 11
-13.7000000000029
 21
-1.999999999986223
  0
ARC
  5
113
100
AcDbEntity
  8
0
  6
ByLayer
 62
  174
370
   -1
100
AcDbCircle
 10
-12.7000000000029
 20
-4.599999999987275
 40
1
100
AcDbArc
 50
-180
 51
-89.99999999999999
  0
LINE
  5
114
100
AcDbEntity
  8
0
  6
ByLayer
 62
  174
370
   -1
100
AcDbLine
 10
-11.5942936631914
 20
-5.599999999987274
 11
-12.7000000000029
 21
-5.599999999987265
  0
ARC
  5
115
100
AcDbEntity
  8
0
  6
ByLayer
 62
  174
370
   -1
100
AcDbCircle
 10
-11.5942936631914
 20
-4.599999999987253
 40
1.000000000000023
100
AcDbArc
 50
-90.00000000000038
 51
-84.9999999999941
  0
LINE
  5
116
100
AcDbEntity
  8
0
  6
ByLayer
 62
  174
370
   -1
100
AcDbLine
 10
-7.705192834093086
 20
-5.263567603675122
 11
-11.5071379204436
 21
-5.596194698079006
  0
ARC
  5
117
100
AcDbEntity
  8
0
  6
ByLayer
 62
  174
370
   -1
100
AcDbCircle
 10
-7.879504319588269
 20
-3.271178207491662
 40
1.999999999999949
100
AcDbArc
 50
-85.00000000000368
 51
-45.00000000022001
  0
LINE
  5
118
100
AcDbEntity
  8
0
  6
ByLayer
 62
  174
370
   -1
100
AcDbLine
 10
-4.817285785124259
 20
-3.037386797786401
 11
-6.465290757220638
 21
-4.685391769870152
  0
ARC
  5
119
100
AcDbEntity
  8
0
  6
ByLayer
 62
  174
370
   -1
100
AcDbCircle
 10
-5.52439256630803
 20
-2.330280016597091
 40
0.9999999999999867
100
AcDbArc
 50
-45.00000000022397
 51
85.000000000366
  0
LINE
  5
11A
100
AcDbEntity
  8
0
  6
ByLayer
 62
  174
370
   -1
100
AcDbLine
 10
-9.21235468826254
 20
-1.003805301893953
 11
-5.437236823566739
 21
-1.334085318504802
  0
ARC
  5
11B
100
AcDbEntity
  8
0
  6
ByLayer
 62
  174
370
   -1
100
AcDbCircle
 10
-9.299510431004229
 20
-1.999999999986202
 40
0.9999999999999822
100
AcDbArc
 50
85.00000000034298
 51
89.99999999997705
  0
LINE
  5
11C
100
AcDbEntity
  8
0
  6
ByLayer
 62
  174
370
   -1
100
AcDbLine
 10
-12.7000000000029
 20
-0.9999999999862235
 11
-9.29951043100383
 21
-0.9999999999862244
  0
ARC
  5
11D
100
AcDbEntity
  8
0
  6
ByLayer
 62
  174
370
   -1
100
AcDbCircle
 10
-12.7000000000029
 20
-1.999999999986224
 40
1
100
AcDbArc
 50
90.00000000000003
 51
-180
  0
LINE
  5
11E
100
AcDbEntity
  8
0
  6
ByLayer
 62
  174
370
   -1
100
AcDbLine
 10
-25.3000000000031
 20
-4.599999999986814
 11
-25.3000000000031
 21
-1.999999999986226
  0
ARC
  5
11F
100
AcDbEntity
  8
0
  6
ByLayer
 62
  174
370
   -1
100
AcDbCircle
 10
-24.30000000000309
 20
-4.599999999986819
 40
0.9999999999999929
100
AcDbArc
 50
-180
 51
-89.99999999999999
  0
LINE
  5
120
100
AcDbEntity
  8
0
  6
ByLayer
 62
  174
370
   -1
100
AcDbLine
 10
-15.70000000000289
 20
-5.599999999987044
 11
-24.3000000000031
 21
-5.599999999986819
  0
ARC
  5
121
100
AcDbEntity
  8
0
  6
ByLayer
 62
  174
370
   -1
100
AcDbCircle
 10
-15.7000000000029
 20
-4.599999999987046
 40
0.9999999999999982
100
AcDbArc
 50
-89.99999999999989
 51
7.016477563892661e-15
  0
LINE
  5
122
100
AcDbEntity
  8
0
  6
ByLayer
 62
  174
370
   -1
100
AcDbLine
 10
-14.7000000000029
 20
-1.999999999986225
 11
-14.70000000000289
 21
-4.599999999987044
  0
ARC
  5
123
100
AcDbEntity
  8
0
  6
ByLayer
 62
  174
370
   -1
100
AcDbCircle
 10
-15.70000000000289
 20
-1.999999999986224
 40
1.000000000000004
100
AcDbArc
 50
7.016477563892661e-15
 51
90.00000000000003
  0
LINE
  5
124
100
AcDbEntity
  8
0
  6
ByLayer
 62
  174
370
   -1
100
AcDbLine
 10
-24.3000000000031
 20
-0.9999999999862315
 11
-15.7000000000029
 21
-0.999999999986227
  0
ARC
  5
125
100
AcDbEntity
  8
0
  6
ByLayer
 62
  174
370
   -1
100
AcDbCircle
 10
-24.3000000000031
 20
-1.999999999986228
 40
1
100
AcDbArc
 50
90.00000000000003
 51
-180
  0
LINE
  5
126
100
AcDbEntity
  8
0
  6
ByLayer
 62
  174
370
   -1
100
AcDbLine
 10
-27.30000000000309
 20
-5.599999999986588
 11
-28.4063318993844
 21
-5.599999999986586
  0
ARC
  5
127
100
AcDbEntity
  8
0
  6
ByLayer
 62
  174
370
   -1
100
AcDbCircle
 10
-27.30000000000309
 20
-4.599999999986592
 40
0.9999999999999964
100
AcDbArc
 50
-89.99999999999999
 51
7.016477563892661e-15
  0
LINE
  5
128
100
AcDbEntity
  8
0
  6
ByLayer
 62
  174
370
   -1
100
AcDbLine
 10
-26.3000000000031
 20
-1.99999999998623
 11
-26.3000000000031
 21
-4.599999999986585
  0
ARC
  5
129
100
AcDbEntity
  8
0
  6
ByLayer
 62
  174
370
   -1
100
AcDbCircle
 10
-27.3000000000031
 20
-1.99999999998623
 40
0.9999999999999929
100
AcDbArc
 50
7.016477563892661e-15
 51
90.00000000000003
  0
LINE
  5
12A
100
AcDbEntity
  8
0
  6
ByLayer
 62
  174
370
   -1
100
AcDbLine
 10
-30.7556935326095
 20
-0.9999999999862315
 11
-27.3000000000031
 21
-0.9999999999862297
  0
ARC
  5
12B
100
AcDbEntity
  8
0
  6
ByLayer
 62
  174
370
   -1
100
AcDbCircle
 10
-30.7556935326095
 20
-1.999999999986271
 40
1.000000000000039
100
AcDbArc
 50
90.00000000000003
 51
95.073828827827
  0
LINE
  5
12C
100
AcDbEntity
  8
0
  6
ByLayer
 62
  174
370
   -1
100
AcDbLine
 10
-34.56276317644101
 20
-1.334085318504819
 11
-30.8441328554296
 21
-1.00391843395907
  0
ARC
  5
12D
100
AcDbEntity
  8
0
  6
ByLayer
 62
  174
370
   -1
100
AcDbCircle
 10
-34.47560743369959
 20
-2.330280016597111
 40
1
100
AcDbArc
 50
94.99999999964002
 51
-134.9999999997799
  0
LINE
  5
12E
100
AcDbEntity
  8
0
  6
ByLayer
 62
  174
370
   -1
100
AcDbLine
 10
-33.5347092427871
 20
-4.685391769870073
 11
-35.1827142148834
 21
-3.037386797786382
  0
ARC
  5
12F
100
AcDbEntity
  8
0
  6
ByLayer
 62
  174
370
   -1
100
AcDbCircle
 10
-32.1204956804192
 20
-3.27117820749171
 40
2.000000000000021
100
AcDbArc
 50
-134.9999999997877
 51
-94.99999999999928
  0
LINE
  5
130
100
AcDbEntity
  8
0
  6
ByLayer
 62
  174
370
   -1
100
AcDbLine
 10
-28.4935018759308
 20
-5.59619345267981
 11
-32.2948071659145
 21
-5.263567603675229
  0
ARC
  5
131
100
AcDbEntity
  8
0
  6
ByLayer
 62
  174
370
   -1
100
AcDbCircle
 10
-28.406331899384
 20
-4.599999999986592
 40
0.9999999999999964
100
AcDbArc
 50
-95.00081865234309
 51
-90.00000000001849
  0
CIRCLE
  5
132
100
AcDbEntity
  8
0
  6
ByLayer
 62
  174
370
   -1
100
AcDbCircle
 10
9.190084132021953
 20
-10.2396613305914
 40
1.25
  0
LINE
  5
133
100
AcDbEntity
  8
0
  6
ByLayer
 62
  174
370
   -1
100
AcDbLine
 10
7.940084132021953
 20
-11.4896613305914
 11
10.4400841320219
 21
-8.989661330591417
  0
LINE
  5
134
100
AcDbEntity
  8
0
  6
ByLayer
 62
  174
370
   -1
100
AcDbLine
 10
7.940084132021953
 20
-8.989661330591417
 11
10.4400841320219
 21
-11.4896613305914
  0
LINE
  5
135
100
AcDbEntity
  8
0
  6
ByLayer
 62
  174
370
   -1
100
AcDbLine
 10
-6.150000000001793
 20
8.807708446630466
 11
-6.150000000001453
 21
13.0999920000128
  0
ARC
  5
136
100
AcDbEntity
  8
0
  6
ByLayer
 62
  174
370
   -1
100
AcDbCircle
 10
-4.150000000001792
 20
8.807708446630306
 40
1.999999999999996
100
AcDbArc
 50
179.999999999995
 51
-135.0000000000078
  0
LINE
  5
137
100
AcDbEntity
  8
0
  6
ByLayer
 62
  174
370
   -1
100
AcDbLine
 10
-3.223223304703412
 20
5.052504626585089
 11
-5.564213562375081
 21
7.393494884257407
  0
ARC
  5
138
100
AcDbEntity
  8
0
  6
ByLayer
 62
  174
370
   -1
100
AcDbCircle
 10
-2.975735931288083
 20
5.29999200000036
 40
0.3500000000000019
100
AcDbArc
 50
-135.0000000000083
 51
-89.99999999999478
  0
LINE
  5
139
100
AcDbEntity
  8
0
  6
ByLayer
 62
  174
370
   -1
100
AcDbLine
 10
-2.399999999999991
 20
4.949992000000409
 11
-2.975735931288052
 21
4.949992000000358
  0
ARC
  5
13A
100
AcDbEntity
  8
0
  6
ByLayer
 62
  174
370
   -1
100
AcDbCircle
 10
-2.399999999999952
 20
5.299992000000378
 40
0.3499999999999672
100
AcDbArc
 50
-90.00000000000598
 51
-60.00000000000599
  0
LINE
  5
13B
100
AcDbEntity
  8
0
  6
ByLayer
 62
  174
370
   -1
100
AcDbLine
 10
-0.7473720558371251
 20
5.849992000000409
 11
-2.225000000000001
 21
4.996883108675839
  0
LINE
  5
13C
100
AcDbEntity
  8
0
  6
ByLayer
 62
  174
370
   -1
100
AcDbLine
 10
-0.2999999999999869
 20
5.84999200000038
 11
-0.7473720558371251
 21
5.849992000000409
  0
ARC
  5
13D
100
AcDbEntity
  8
0
  6
ByLayer
 62
  174
370
   -1
100
AcDbCircle
 10
-0.2999999999999998
 20
5.59999200000038
 40
0.2499999999999996
100
AcDbArc
 50
7.016477563892661e-15
 51
89.99999999999702
  0
LINE
  5
13E
100
AcDbEntity
  8
0
  6
ByLayer
 62
  174
370
   -1
100
AcDbLine
 10
-0.04999999999999327
 20
1.9999920000004
 11
-0.04999999999999449
 21
5.59999200000038
  0
ARC
  5
13F
100
AcDbEntity
  8
0
  6
ByLayer
 62
  174
370
   -1
100
AcDbCircle
 10
-0.2999999999999925
 20
1.9999920000004
 40
0.2499999999999991
100
AcDbArc
 50
-89.99999999999919
 51
7.016477563892661e-15
  0
LINE
  5
140
100
AcDbEntity
  8
0
  6
ByLayer
 62
  174
370
   -1
100
AcDbLine
 10
-0.7473720558370935
 20
1.7499920000004
 11
-0.2999999999999887
 21
1.7499920000004
  0
LINE
  5
141
100
AcDbEntity
  8
0
  6
ByLayer
 62
  174
370
   -1
100
AcDbLine
 10
-2.287564434718171
 20
2.639222484551189
 11
-0.7473720558370935
 21
1.7499920000004
  0
ARC
  5
142
100
AcDbEntity
  8
0
  6
ByLayer
 62
  174
370
   -1
100
AcDbCircle
 10
-2.88756443471817
 20
1.59999200000987
 40
1.200000000000001
100
AcDbArc
 50
59.99999999999999
 51
89.99999999974398
  0
LINE
  5
143
100
AcDbEntity
  8
0
  6
ByLayer
 62
  174
370
   -1
100
AcDbLine
 10
-3.699999999997091
 20
2.799992000013509
 11
-2.887564434712802
 21
2.799992000009869
  0
ARC
  5
144
100
AcDbEntity
  8
0
  6
ByLayer
 62
  174
370
   -1
100
AcDbCircle
 10
-3.699999999997091
 20
2.499992000010589
 40
0.3000000000029086
100
AcDbArc
 50
90.00000000000003
 51
179.999999999999
  0
LINE
  5
145
100
AcDbEntity
  8
0
  6
ByLayer
 62
  174
370
   -1
100
AcDbLine
 10
-4.000000000000001
 20
2.199992000012049
 11
-4
 21
2.499992000010589
  0
ARC
  5
146
100
AcDbEntity
  8
0
  6
ByLayer
 62
  174
370
   -1
100
AcDbCircle
 10
-4.40000000000145
 20
2.199992000011679
 40
0.4000000000014561
100
AcDbArc
 50
-179.9999999999479
 51
5.201544662885532e-11
  0
LINE
  5
147
100
AcDbEntity
  8
0
  6
ByLayer
 62
  174
370
   -1
100
AcDbLine
 10
-4.80000000001382
 20
2.499992000010588
 11
-4.80000000000291
 21
2.199992000011318
  0
ARC
  5
148
100
AcDbEntity
  8
0
  6
ByLayer
 62
  174
370
   -1
100
AcDbCircle
 10
-5.10000000001309
 20
2.499992000010598
 40
0.2999999999992706
100
AcDbArc
 50
-1.966238161345419e-12
 51
90.00000000000003
  0
LINE
  5
149
100
AcDbEntity
  8
0
  6
ByLayer
 62
  174
370
   -1
100
AcDbLine
 10
-13.4999999999927
 20
2.799992000009855
 11
-5.10000000001309
 21
2.799992000009867
  0
ARC
  5
14A
100
AcDbEntity
  8
0
  6
ByLayer
 62
  174
370
   -1
100
AcDbCircle
 10
-13.4999999999909
 20
2.499992000012406
 40
0.299999999997457
100
AcDbArc
 50
90.00000000034798
 51
-179.9999999996528
  0
LINE
  5
14B
100
AcDbEntity
  8
0
  6
ByLayer
 62
  174
370
   -1
100
AcDbLine
 10
-13.7999999999884
 20
2.199992000011327
 11
-13.7999999999884
 21
2.499992000010597
  0
ARC
  5
14C
100
AcDbEntity
  8
0
  6
ByLayer
 62
  174
370
   -1
100
AcDbCircle
 10
-14.1999999999844
 20
2.199992000010957
 40
0.3999999999959982
100
AcDbArc
 50
-179.9999999999494
 51
5.303322412692364e-11
  0
LINE
  5
14D
100
AcDbEntity
  8
0
  6
ByLayer
 62
  174
370
   -1
100
AcDbLine
 10
-14.5999999999913
 20
2.499992000010584
 11
-14.5999999999803
 21
2.199992000010605
  0
ARC
  5
14E
100
AcDbEntity
  8
0
  6
ByLayer
 62
  174
370
   -1
100
AcDbCircle
 10
-14.8999999999887
 20
2.499992000012406
 40
0.2999999999974463
100
AcDbArc
 50
-3.469928100065077e-10
 51
89.99999999965205
  0
LINE
  5
14F
100
AcDbEntity
  8
0
  6
ByLayer
 62
  174
370
   -1
100
AcDbLine
 10
-25.0999999999913
 20
2.799992000009837
 11
-14.8999999999869
 21
2.799992000009856
  0
ARC
  5
150
100
AcDbEntity
  8
0
  6
ByLayer
 62
  174
370
   -1
100
AcDbCircle
 10
-25.0999999999894
 20
2.499992000012387
 40
0.299999999997457
100
AcDbArc
 50
90.00000000034696
 51
-179.9999999996562
  0
LINE
  5
151
100
AcDbEntity
  8
0
  6
ByLayer
 62
  174
370
   -1
100
AcDbLine
 10
-25.3999999999869
 20
2.199992000011331
 11
-25.3999999999869
 21
2.499992000010582
  0
ARC
  5
152
100
AcDbEntity
  8
0
  6
ByLayer
 62
  174
370
   -1
100
AcDbCircle
 10
-25.7999999999884
 20
2.199992000011301
 40
0.4000000000014552
100
AcDbArc
 50
179.999999999997
 51
4.001793157482069e-12
  0
LINE
  5
153
100
AcDbEntity
  8
0
  6
ByLayer
 62
  174
370
   -1
100
AcDbLine
 10
-26.1999999999898
 20
2.49999200001059
 11
-26.1999999999898
 21
2.19999200001133
  0
ARC
  5
154
100
AcDbEntity
  8
0
  6
ByLayer
 62
  174
370
   -1
100
AcDbCircle
 10
-26.4999999999909
 20
2.499992000008797
 40
0.3000000000010594
100
AcDbArc
 50
3.390287010841231e-10
 51
90.00000000034696
  0
LINE
  5
155
100
AcDbEntity
  8
0
  6
ByLayer
 62
  174
370
   -1
100
AcDbLine
 10
-34.8999999999651
 20
2.799992000009869
 11
-26.4999999999927
 21
2.799992000009862
  0
ARC
  5
156
100
AcDbEntity
  8
0
  6
ByLayer
 62
  174
370
   -1
100
AcDbCircle
 10
-34.89999999996509
 20
2.499992000010611
 40
0.2999999999992582
100
AcDbArc
 50
90.00000000000003
 51
179.999999999999
  0
LINE
  5
157
100
AcDbEntity
  8
0
  6
ByLayer
 62
  174
370
   -1
100
AcDbLine
 10
-35.1999999999753
 20
2.199992000011342
 11
-35.19999999996429
 21
2.499992000010621
  0
ARC
  5
158
100
AcDbEntity
  8
0
  6
ByLayer
 62
  174
370
   -1
100
AcDbCircle
 10
-35.5999999999767
 20
2.199992000011662
 40
0.4000000000014552
100
AcDbArc
 50
179.999999999945
 51
-4.796978107403372e-11
  0
LINE
  5
159
100
AcDbEntity
  8
0
  6
ByLayer
 62
  174
370
   -1
100
AcDbLine
 10
-35.9999999999782
 20
2.499992000010593
 11
-35.9999999999782
 21
2.19999200001206
  0
ARC
  5
15A
100
AcDbEntity
  8
0
  6
ByLayer
 62
  174
370
   -1
100
AcDbCircle
 10
-36.2999999999811
 20
2.499992000010604
 40
0.3000000000028891
100
AcDbArc
 50
-1.966238161345419e-12
 51
90.00000000000003
  0
LINE
  5
15B
100
AcDbEntity
  8
0
  6
ByLayer
 62
  174
370
   -1
100
AcDbLine
 10
-37.1124355652654
 20
2.799992000009894
 11
-36.2999999999811
 21
2.799992000013486
  0
ARC
  5
15C
100
AcDbEntity
  8
0
  6
ByLayer
 62
  174
370
   -1
100
AcDbCircle
 10
-37.11243556526
 20
1.599992000009827
 40
1.200000000000003
100
AcDbArc
 50
90.00000000025602
 51
120
  0
LINE
  5
15D
100
AcDbEntity
  8
0
  6
ByLayer
 62
  174
370
   -1
100
AcDbLine
 10
-39.2526279441411
 20
1.7499920000004
 11
-37.71243556525999
 21
2.639222484551169
  0
LINE
  5
15E
100
AcDbEntity
  8
0
  6
ByLayer
 62
  174
370
   -1
100
AcDbLine
 10
-39.6999999999782
 20
1.74999200000039
 11
-39.2526279441411
 21
1.7499920000004
  0
ARC
  5
15F
100
AcDbEntity
  8
0
  6
ByLayer
 62
  174
370
   -1
100
AcDbCircle
 10
-39.6999999999782
 20
1.999992000000404
 40
0.2500000000000213
100
AcDbArc
 50
-179.9999999999978
 51
-90.00000000000159
  0
LINE
  5
160
100
AcDbEntity
  8
0
  6
ByLayer
 62
  174
370
   -1
100
AcDbLine
 10
-39.9499999999782
 20
5.599992000000405
 11
-39.9499999999782
 21
1.999992000000393
  0
ARC
  5
161
100
AcDbEntity
  8
0
  6
ByLayer
 62
  174
370
   -1
100
AcDbCircle
 10
-39.6999999999782
 20
5.599992000000398
 40
0.2500000000000071
100
AcDbArc
 50
90.000000000002
 51
179.999999999996
  0
LINE
  5
162
100
AcDbEntity
  8
0
  6
ByLayer
 62
  174
370
   -1
100
AcDbLine
 10
-39.252627944141
 20
5.849992000000388
 11
-39.6999999999782
 21
5.849992000000405
  0
LINE
  5
163
100
AcDbEntity
  8
0
  6
ByLayer
 62
  174
370
   -1
100
AcDbLine
 10
-37.7749999999782
 20
4.996883108675817
 11
-39.252627944141
 21
5.849992000000388
  0
ARC
  5
164
100
AcDbEntity
  8
0
  6
ByLayer
 62
  174
370
   -1
100
AcDbCircle
 10
-37.5999999999782
 20
5.299992000000387
 40
0.3499999999999872
100
AcDbArc
 50
-119.9999999999929
 51
-89.99999999999538
  0
LINE
  5
165
100
AcDbEntity
  8
0
  6
ByLayer
 62
  174
370
   -1
100
AcDbLine
 10
-37.0242640686901
 20
4.949992000000361
 11
-37.5999999999782
 21
4.94999200000041
  0
ARC
  5
166
100
AcDbEntity
  8
0
  6
ByLayer
 62
  174
370
   -1
100
AcDbCircle
 10
-37.0242640686901
 20
5.299992000000367
 40
0.3499999999999872
100
AcDbArc
 50
-90.00000000000699
 51
-44.99999999998999
  0
LINE
  5
167
100
AcDbEntity
  8
0
  6
ByLayer
 62
  174
370
   -1
100
AcDbLine
 10
-34.4357864376031
 20
7.393494884257388
 11
-36.7767766952748
 21
5.05250462658514
  0
ARC
  5
168
100
AcDbEntity
  8
0
  6
ByLayer
 62
  174
370
   -1
100
AcDbCircle
 10
-35.8499999999764
 20
8.807708446630297
 40
1.999999999999993
100
AcDbArc
 50
-44.99999999999301
 51
4.001793157482069e-12
  0
LINE
  5
169
100
AcDbEntity
  8
0
  6
ByLayer
 62
  174
370
   -1
100
AcDbLine
 10
-33.8499999999767
 20
13.09999200001279
 11
-33.8499999999764
 21
8.807708446630457
  0
ARC
  5
16A
100
AcDbEntity
  8
0
  6
ByLayer
 62
  174
370
   -1
100
AcDbCircle
 10
-33.3499999999767
 20
13.0999920000128
 40
0.5000000000000071
100
AcDbArc
 50
90.00000000000104
 51
-179.9999999999982
  0
LINE
  5
16B
100
AcDbEntity
  8
0
  6
ByLayer
 62
  174
370
   -1
100
AcDbLine
 10
-6.650000000001453
 20
13.5999920000128
 11
-33.3499999999767
 21
13.59999200001279
  0
ARC
  5
16C
100
AcDbEntity
  8
0
  6
ByLayer
 62
  174
370
   -1
100
AcDbCircle
 10
-6.650000000001465
 20
13.0999920000128
 40
0.5000000000000089
100
AcDbArc
 50
9.993495381805099e-13
 51
89.999999999998
  0
LINE
  5
16D
100
AcDbEntity
  8
0
  6
ByLayer
 62
  174
370
   -1
100
AcDbLine
 10
-27.0697564737694
 20
12.59511415213939
 11
-31.7197564737595
 21
12.26995447663019
  0
ARC
  5
16E
100
AcDbEntity
  8
0
  6
ByLayer
 62
  174
370
   -1
100
AcDbCircle
 10
-27.0000000000312
 20
11.59755010187909
 40
1.000000000000007
100
AcDbArc
 50
2.017127036248835e-12
 51
93.99999999966298
  0
LINE
  5
16F
100
AcDbEntity
  8
0
  6
ByLayer
 62
  174
370
   -1
100
AcDbLine
 10
-26.0000000000311
 20
4.802740987910269
 11
-26.0000000000312
 21
11.5975501018792
  0
ARC
  5
170
100
AcDbEntity
  8
0
  6
ByLayer
 62
  174
370
   -1
100
AcDbCircle
 10
-27.0000000000311
 20
4.80274098791025
 40
1.000000000000014
100
AcDbArc
 50
-90.0430235498479
 51
9.993495381805099e-13
  0
LINE
  5
171
100
AcDbEntity
  8
0
  6
ByLayer
 62
  174
370
   -1
100
AcDbLine
 10
-27.3561995308263
 20
3.80299376910272
 11
-27.0007509025612
 21
3.802741269837622
  0
ARC
  5
172
100
AcDbEntity
  8
0
  6
ByLayer
 62
  174
370
   -1
100
AcDbCircle
 10
-27.356202599985
 20
4.802993769097993
 40
0.9999999999999751
100
AcDbArc
 50
-95.01578216825538
 51
-89.9998241501561
  0
LINE
  5
173
100
AcDbEntity
  8
0
  6
ByLayer
 62
  174
370
   -1
100
AcDbLine
 10
-33.70367472645511
 20
4.356243396741707
 11
-27.4436327420485
 21
3.806823115917179
  0
ARC
  5
174
100
AcDbEntity
  8
0
  6
ByLayer
 62
  174
370
   -1
100
AcDbCircle
 10
-33.6339501322593
 20
5.153199155215374
 40
0.8000000000000824
100
AcDbArc
 50
135.000000000501
 51
-94.99999999983308
  0
LINE
  5
175
100
AcDbEntity
  8
0
  6
ByLayer
 62
  174
370
   -1
100
AcDbLine
 10
-33.2357864376085
 20
6.68273369978148
 11
-34.1996355572135
 21
5.718884580159679
  0
ARC
  5
176
100
AcDbEntity
  8
0
  6
ByLayer
 62
  174
370
   -1
100
AcDbCircle
 10
-34.6499999999939
 20
8.096947262142249
 40
1.999999999999986
100
AcDbArc
 50
-44.99999999950096
 51
4.950031026630939e-10
  0
LINE
  5
177
100
AcDbEntity
  8
0
  6
ByLayer
 62
  174
370
   -1
100
AcDbLine
 10
-32.65000000002119
 20
11.27239042636139
 11
-32.6499999999939
 21
8.096947262159533
  0
ARC
  5
178
100
AcDbEntity
  8
0
  6
ByLayer
 62
  174
370
   -1
100
AcDbCircle
 10
-31.6500000000212
 20
11.27239042636999
 40
0.9999999999999858
100
AcDbArc
 50
93.99999999966401
 51
-179.9999999995061
  0
LINE
  5
179
100
AcDbEntity
  8
0
  6
ByLayer
 62
  174
370
   -1
100
AcDbLine
 10
-25.0000000000311
 20
11.59999199995989
 11
-25.0000000000311
 21
4.799991999971569
  0
ARC
  5
17A
100
AcDbEntity
  8
0
  6
ByLayer
 62
  174
370
   -1
100
AcDbCircle
 10
-24.0000000000311
 20
11.59999199995989
 40
0.9999999999999929
100
AcDbArc
 50
89.99999999999901
 51
179.999999999999
  0
LINE
  5
17B
100
AcDbEntity
  8
0
  6
ByLayer
 62
  174
370
   -1
100
AcDbLine
 10
-16.0000000000311
 20
12.5999919999599
 11
-24.0000000000311
 21
12.5999919999599
  0
ARC
  5
17C
100
AcDbEntity
  8
0
  6
ByLayer
 62
  174
370
   -1
100
AcDbCircle
 10
-16.0000000000311
 20
11.5999919999599
 40
0.9999999999999964
100
AcDbArc
 50
7.016477563892661e-15
 51
90.00000000000003
  0
LINE
  5
17D
100
AcDbEntity
  8
0
  6
ByLayer
 62
  174
370
   -1
100
AcDbLine
 10
-15.0000000000311
 20
4.799991999971546
 11
-15.0000000000311
 21
11.5999919999599
  0
ARC
  5
17E
100
AcDbEntity
  8
0
  6
ByLayer
 62
  174
370
   -1
100
AcDbCircle
 10
-16.0000000000311
 20
4.799991999971556
 40
1
100
AcDbArc
 50
-90.00000000000038
 51
7.016477563892661e-15
  0
LINE
  5
17F
100
AcDbEntity
  8
0
  6
ByLayer
 62
  174
370
   -1
100
AcDbLine
 10
-24.0000000000311
 20
3.799991999971532
 11
-16.0000000000311
 21
3.799991999971525
  0
ARC
  5
180
100
AcDbEntity
  8
0
  6
ByLayer
 62
  174
370
   -1
100
AcDbCircle
 10
-24.0000000000311
 20
4.799991999971528
 40
0.9999999999999964
100
AcDbArc
 50
179.999999999997
 51
-89.99999999999979
  0
LINE
  5
181
100
AcDbEntity
  8
0
  6
ByLayer
 62
  174
370
   -1
100
AcDbLine
 10
-8.280243526246494
 20
12.2699544766302
 11
-12.9302435262365
 21
12.5951141521394
  0
ARC
  5
182
100
AcDbEntity
  8
0
  6
ByLayer
 62
  174
370
   -1
100
AcDbCircle
 10
-8.349999999984764
 20
11.2723904263699
 40
1.000000000000005
100
AcDbArc
 50
-4.929675476669573e-10
 51
86.00000000033606
  0
LINE
  5
183
100
AcDbEntity
  8
0
  6
ByLayer
 62
  174
370
   -1
100
AcDbLine
 10
-7.350000000012092
 20
8.096947262159617
 11
-7.349999999984751
 21
11.2723904263613
  0
ARC
  5
184
100
AcDbEntity
  8
0
  6
ByLayer
 62
  174
370
   -1
100
AcDbCircle
 10
-5.350000000012093
 20
8.096947262142329
 40
2.000000000000004
100
AcDbArc
 50
179.999999999505
 51
-135.0000000004982
  0
LINE
  5
185
100
AcDbEntity
  8
0
  6
ByLayer
 62
  174
370
   -1
100
AcDbLine
 10
-5.800364442792471
 20
5.718884580159748
 11
-6.764213562397481
 21
6.682733699781527
  0
ARC
  5
186
100
AcDbEntity
  8
0
  6
ByLayer
 62
  174
370
   -1
100
AcDbCircle
 10
-6.366049867746631
 20
5.153199155215408
 40
0.8000000000000238
100
AcDbArc
 50
-85.00000000016658
 51
44.999999999503
  0
LINE
  5
187
100
AcDbEntity
  8
0
  6
ByLayer
 62
  174
370
   -1
100
AcDbLine
 10
-9.436415239969481
 20
4.081521122237788
 11
-6.296325273550821
 21
4.356243396741798
  0
LINE
  5
188
100
AcDbEntity
  8
0
  6
ByLayer
 62
  174
370
   -1
100
AcDbLine
 10
-12.5562334368373
 20
3.806847109186826
 11
-9.436415239969481
 21
4.081521122237788
  0
ARC
  5
189
100
AcDbEntity
  8
0
  6
ByLayer
 62
  174
370
   -1
100
AcDbCircle
 10
-12.6439358603474
 20
4.802993827753134
 40
0.9999999999999805
100
AcDbArc
 50
-90.00000000000259
 51
-84.96855709630978
  0
LINE
  5
18A
100
AcDbEntity
  8
0
  6
ByLayer
 62
  174
370
   -1
100
AcDbLine
 10
-12.6629100466028
 20
3.802993827753147
 11
-12.6439358603474
 21
3.802993827753138
  0
LINE
  5
18B
100
AcDbEntity
  8
0
  6
ByLayer
 62
  174
370
   -1
100
AcDbLine
 10
-12.9992490974447
 20
3.802741269837616
 11
-12.6629100466028
 21
3.802993827753147
  0
ARC
  5
18C
100
AcDbEntity
  8
0
  6
ByLayer
 62
  174
370
   -1
100
AcDbCircle
 10
-12.9999999999749
 20
4.802740987910264
 40
0.9999999999999911
100
AcDbArc
 50
-180
 51
-89.9569764501522
  0
LINE
  5
18D
100
AcDbEntity
  8
0
  6
ByLayer
 62
  174
370
   -1
100
AcDbLine
 10
-13.99999999997481
 20
11.5975501018792
 11
-13.9999999999749
 21
4.802740987910265
  0
ARC
  5
18E
100
AcDbEntity
  8
0
  6
ByLayer
 62
  174
370
   -1
100
AcDbCircle
 10
-12.99999999997481
 20
11.5975501018791
 40
0.9999999999999947
100
AcDbArc
 50
86.00000000033606
 51
179.999999999999
  0
LINE
  5
18F
100
AcDbEntity
  8
0
  6
ByLayer
 62
  174
370
   -1
100
AcDbLine
 10
6.899812019628
 20
4.799996000000313
 11
6.899812019628002
 21
-4.900003999999909
  0
LINE
  5
190
100
AcDbEntity
  8
0
  6
ByLayer
 62
  174
370
   -1
100
AcDbLine
 10
1.599812019627999
 20
4.7999960000003
 11
6.899812019628
 21
4.799996000000313
  0
LINE
  5
191
100
AcDbEntity
  8
0
  6
ByLayer
 62
  174
370
   -1
100
AcDbLine
 10
1.599812019628002
 20
-4.90000399999991
 11
1.599812019627999
 21
4.7999960000003
  0
LINE
  5
192
100
AcDbEntity
  8
0
  6
ByLayer
 62
  174
370
   -1
100
AcDbLine
 10
6.899812019628002
 20
-4.900003999999909
 11
1.599812019628002
 21
-4.90000399999991
  0
ARC
  5
193
100
AcDbEntity
  8
0
  6
ByLayer
 62
  174
370
   -1
100
AcDbCircle
 10
9.799071381739692
 20
-32.9000039998574
 40
1.29999999999999
100
AcDbArc
 50
-179.9999999999994
 51
-89.99999999999969
  0
LINE
  5
194
100
AcDbEntity
  8
0
  6
ByLayer
 62
  174
370
   -1
100
AcDbLine
 10
13.30001199996761
 20
-34.20000399999999
 11
9.799071381739701
 21
-34.2000039998574
  0
ARC
  5
195
100
AcDbEntity
  8
0
  6
ByLayer
 62
  174
370
   -1
100
AcDbCircle
 10
13.30001199998541
 20
-32.9000039999852
 40
1.300000000014766
100
AcDbArc
 50
-90.00000000078531
 51
-7.859856893608282e-10
  0
LINE
  5
196
100
AcDbEntity
  8
0
  6
ByLayer
 62
  174
370
   -1
100
AcDbLine
 10
14.5990713813875
 20
-1.200316928988095
 11
14.60001200000021
 21
-32.90000400000299
  0
ARC
  5
197
100
AcDbEntity
  8
0
  6
ByLayer
 62
  174
370
   -1
100
AcDbCircle
 10
12.9990713465511
 20
-1.200364405490285
 40
1.600000035540782
100
AcDbArc
 50
0.001700126964014042
 51
179.9759067317721
  0
LINE
  5
198
100
AcDbEntity
  8
0
  6
ByLayer
 62
  174
370
   -1
100
AcDbLine
 10
11.3990713828115
 20
-1.200315302930186
 11
11.3990714524711
 21
-1.199691594522157
  0
LINE
  5
199
100
AcDbEntity
  8
0
  6
ByLayer
 62
  174
370
   -1
100
AcDbLine
 10
11.3990713817394
 20
-3.800003999999797
 11
11.3990713828115
 21
-1.200315302930186
  0
LINE
  5
19A
100
AcDbEntity
  8
0
  6
ByLayer
 62
  174
370
   -1
100
AcDbLine
 10
9.10001200000019
 20
-3.800003999999886
 11
11.3990713817394
 21
-3.800003999999797
  0
LINE
  5
19B
100
AcDbEntity
  8
0
  6
ByLayer
 62
  174
370
   -1
100
AcDbLine
 10
9.100012000000186
 20
7.899996000000105
 11
9.10001200000019
 21
-3.800003999999886
  0
ARC
  5
19C
100
AcDbEntity
  8
0
  6
ByLayer
 62
  174
370
   -1
100
AcDbCircle
 10
7.600012000000098
 20
7.899996000000101
 40
1.5000000000001
100
AcDbArc
 50
7.016477563892661e-15
 51
-180
  0
ARC
  5
19D
100
AcDbEntity
  8
0
  6
ByLayer
 62
  174
370
   -1
100
AcDbCircle
 10
7.600012000000098
 20
7.899996000000101
 40
0.7000000000000961
100
AcDbArc
 50
7.016477563892661e-15
 51
-180
  0
LINE
  5
19E
100
AcDbEntity
  8
0
  6
ByLayer
 62
  174
370
   -1
100
AcDbLine
 10
6.900012000000098
 20
6.299996000000312
 11
6.900011999999987
 21
7.899996000000104
  0
LINE
  5
19F
100
AcDbEntity
  8
0
  6
ByLayer
 62
  174
370
   -1
100
AcDbLine
 10
1.599812019627997
 20
6.2999960000003
 11
6.900012000000098
 21
6.299996000000312
  0
LINE
  5
1A0
100
AcDbEntity
  8
0
  6
ByLayer
 62
  174
370
   -1
100
AcDbLine
 10
1.599812019628007
 20
8.09999600000031
 11
1.599812019627997
 21
6.2999960000003
  0
LINE
  5
1A1
100
AcDbEntity
  8
0
  6
ByLayer
 62
  174
370
   -1
100
AcDbLine
 10
-3.785810437626332
 20
8.100016000000558
 11
1.599812019628007
 21
8.09999600000031
  0
ARC
  5
1A2
100
AcDbEntity
  8
0
  6
ByLayer
 62
  174
370
   -1
100
AcDbCircle
 10
-3.785810437626343
 20
7.100016000000558
 40
0.9999999999999991
100
AcDbArc
 50
90.00000000000003
 51
-135.0000000000044
  0
LINE
  5
1A3
100
AcDbEntity
  8
0
  6
ByLayer
 62
  174
370
   -1
100
AcDbLine
 10
-3.187867965643972
 20
5.087859965644888
 11
-4.49291721881294
 21
6.392909218814069
  0
ARC
  5
1A4
100
AcDbEntity
  8
0
  6
ByLayer
 62
  174
370
   -1
100
AcDbCircle
 10
-2.975735931287901
 20
5.299992000000849
 40
0.3000000000000722
100
AcDbArc
 50
-135.0000000000153
 51
-89.99999999999848
  0
LINE
  5
1A5
100
AcDbEntity
  8
0
  6
ByLayer
 62
  174
370
   -1
100
AcDbLine
 10
-2.389230484540692
 20
4.999992000000918
 11
-2.975735931287891
 21
4.999992000000779
  0
ARC
  5
1A6
100
AcDbEntity
  8
0
  6
ByLayer
 62
  174
370
   -1
100
AcDbCircle
 10
-2.389230484540701
 20
5.299992000000768
 40
0.2999999999998488
100
AcDbArc
 50
-89.999999999998
 51
-59.99999999999999
  0
LINE
  5
1A7
100
AcDbEntity
  8
0
  6
ByLayer
 62
  174
370
   -1
100
AcDbLine
 10
-0.7499999999998939
 20
5.89999200000087
 11
-2.239230484540781
 21
5.040184378865569
  0
LINE
  5
1A8
100
AcDbEntity
  8
0
  6
ByLayer
 62
  174
370
   -1
100
AcDbLine
 10
-0.2999999999999519
 20
5.900004000000529
 11
-0.7499999999998939
 21
5.89999200000087
  0
ARC
  5
1A9
100
AcDbEntity
  8
0
  6
ByLayer
 62
  174
370
   -1
100
AcDbCircle
 10
-0.2999999999999452
 20
5.60000400000053
 40
0.2999999999999992
100
AcDbArc
 50
7.016477563892661e-15
 51
90.00000000000104
  0
LINE
  5
1AA
100
AcDbEntity
  8
0
  6
ByLayer
 62
  174
370
   -1
100
AcDbLine
 10
-6.661338147750939e-16
 20
1.99999200000047
 11
5.417888360170764e-14
 21
5.60000400000053
  0
ARC
  5
1AB
100
AcDbEntity
  8
0
  6
ByLayer
 62
  174
370
   -1
100
AcDbCircle
 10
-0.2999999999999985
 20
1.99999200000047
 40
0.299999999999997
100
AcDbArc
 50
-89.99999999999979
 51
7.016477563892661e-15
  0
LINE
  5
1AC
100
AcDbEntity
  8
0
  6
ByLayer
 62
  174
370
   -1
100
AcDbLine
 10
-0.7500000000000004
 20
1.699992000000569
 11
-0.2999999999999975
 21
1.69999200000047
  0
LINE
  5
1AD
100
AcDbEntity
  8
0
  6
ByLayer
 62
  174
370
   -1
100
AcDbLine
 10
-2.23926013107417
 20
2.55981673756955
 11
-0.7500000000000004
 21
1.699992000000569
  0
ARC
  5
1AE
100
AcDbEntity
  8
0
  6
ByLayer
 62
  174
370
   -1
100
AcDbCircle
 10
-2.389260131074141
 20
2.300009116434229
 40
0.2999999999999838
100
AcDbArc
 50
60.00000000000403
 51
89.99635313256306
  0
LINE
  5
1AF
100
AcDbEntity
  8
0
  6
ByLayer
 62
  174
370
   -1
100
AcDbLine
 10
-2.4973979999998
 20
2.60001600000043
 11
-2.38924103612091
 21
2.60000911582652
  0
LINE
  5
1B0
100
AcDbEntity
  8
0
  6
ByLayer
 62
  174
370
   -1
100
AcDbLine
 10
-2.497397999999809
 20
-0.9000240000000237
 11
-2.4973979999998
 21
2.60001600000043
  0
LINE
  5
1B1
100
AcDbEntity
  8
0
  6
ByLayer
 62
  174
370
   -1
100
AcDbLine
 10
-2.389241036120909
 20
-0.9000171158261178
 11
-2.497397999999809
 21
-0.9000240000000237
  0
ARC
  5
1B2
100
AcDbEntity
  8
0
  6
ByLayer
 62
  174
370
   -1
100
AcDbCircle
 10
-2.38926013107416
 20
-0.6000171164338242
 40
0.2999999999999901
100
AcDbArc
 50
-89.99635313256007
 51
-60.000000000001
  0
LINE
  5
1B3
100
AcDbEntity
  8
0
  6
ByLayer
 62
  174
370
   -1
100
AcDbLine
 10
-0.75
 20
-1.637578961322106e-13
 11
-2.23926013107417
 21
-0.8598247375691487
  0
LINE
  5
1B4
100
AcDbEntity
  8
0
  6
ByLayer
 62
  174
370
   -1
100
AcDbLine
 10
-0.299999999999997
 20
-6.400435736964027e-14
 11
-0.75
 21
-1.637578961322106e-13
  0
ARC
  5
1B5
100
AcDbEntity
  8
0
  6
ByLayer
 62
  174
370
   -1
100
AcDbCircle
 10
-0.2999999999999969
 20
-0.3000000000000611
 40
0.2999999999999971
100
AcDbArc
 50
7.016477563892661e-15
 51
90.00000000000003
  0
LINE
  5
1B6
100
AcDbEntity
  8
0
  6
ByLayer
 62
  174
370
   -1
100
AcDbLine
 10
5.706546346573305e-14
 20
-3.90001200000012
 11
1.110223024625157e-16
 21
-0.300000000000061
  0
ARC
  5
1B7
100
AcDbEntity
  8
0
  6
ByLayer
 62
  174
370
   -1
100
AcDbCircle
 10
-0.2999999999999434
 20
-3.90001200000013
 40
0.3000000000000019
100
AcDbArc
 50
-90.00000000000169
 51
7.016477563892661e-15
  0
LINE
  5
1B8
100
AcDbEntity
  8
0
  6
ByLayer
 62
  174
370
   -1
100
AcDbLine
 10
-0.7499999999999001
 20
-4.20000000000046
 11
-0.2999999999999527
 21
-4.20001200000013
  0
LINE
  5
1B9
100
AcDbEntity
  8
0
  6
ByLayer
 62
  174
370
   -1
100
AcDbLine
 10
-2.239230484540779
 20
-3.340192378865161
 11
-0.7499999999999001
 21
-4.20000000000046
  0
ARC
  5
1BA
100
AcDbEntity
  8
0
  6
ByLayer
 62
  174
370
   -1
100
AcDbCircle
 10
-2.38923048454071
 20
-3.600000000000381
 40
0.2999999999998604
100
AcDbArc
 50
60.00000000000102
 51
89.99999999999901
  0
LINE
  5
1BB
100
AcDbEntity
  8
0
  6
ByLayer
 62
  174
370
   -1
100
AcDbLine
 10
-2.975735931287889
 20
-3.300000000000371
 11
-2.389230484540699
 21
-3.300000000000511
  0
ARC
  5
1BC
100
AcDbEntity
  8
0
  6
ByLayer
 62
  174
370
   -1
100
AcDbCircle
 10
-2.975735931287889
 20
-3.600000000000451
 40
0.300000000000078
100
AcDbArc
 50
90.00000000000104
 51
135.000000000017
  0
LINE
  5
1BD
100
AcDbEntity
  8
0
  6
ByLayer
 62
  174
370
   -1
100
AcDbLine
 10
-4.492917218812938
 20
-4.692917218813661
 11
-3.187867965643969
 21
-3.387867965644491
  0
ARC
  5
1BE
100
AcDbEntity
  8
0
  6
ByLayer
 62
  174
370
   -1
100
AcDbCircle
 10
-3.785810437626339
 20
-5.400024000000162
 40
0.9999999999999991
100
AcDbArc
 50
135.000000000004
 51
-89.99999999999999
  0
LINE
  5
1BF
100
AcDbEntity
  8
0
  6
ByLayer
 62
  174
370
   -1
100
AcDbLine
 10
9.303012120346491
 20
-6.400003999857427
 11
-3.785810437626339
 21
-6.400024000000162
  0
ARC
  5
1C0
100
AcDbEntity
  8
0
  6
ByLayer
 62
  174
370
   -1
100
AcDbCircle
 10
9.303012120346491
 20
-6.600003999857337
 40
0.1999999999999034
100
AcDbArc
 50
9.993495381805099e-13
 51
90.00000000000003
  0
LINE
  5
1C1
100
AcDbEntity
  8
0
  6
ByLayer
 62
  174
370
   -1
100
AcDbLine
 10
9.503012120346504
 20
-7.700003999852465
 11
9.5030121203464
 21
-6.600003999857327
  0
ARC
  5
1C2
100
AcDbEntity
  8
0
  6
ByLayer
 62
  174
370
   -1
100
AcDbCircle
 10
9.703012120417803
 20
-7.700003999923657
 40
0.2000000000713058
100
AcDbArc
 50
179.999999979605
 51
-90.00000002039879
  0
LINE
  5
1C3
100
AcDbEntity
  8
0
  6
ByLayer
 62
  174
370
   -1
100
AcDbLine
 10
10.1030121203465
 20
-7.900003999852396
 11
9.703012120346603
 21
-7.900003999994956
  0
ARC
  5
1C4
100
AcDbEntity
  8
0
  6
ByLayer
 62
  174
370
   -1
100
AcDbCircle
 10
10.1030121203465
 20
-7.700003999852439
 40
0.1999999999999602
100
AcDbArc
 50
-90.00000000000917
 51
-1.000668039608519e-11
  0
LINE
  5
1C5
100
AcDbEntity
  8
0
  6
ByLayer
 62
  174
370
   -1
100
AcDbLine
 10
10.3030121203464
 20
-6.600003999854835
 11
10.3030121203465
 21
-7.700003999852466
  0
ARC
  5
1C6
100
AcDbEntity
  8
0
  6
ByLayer
 62
  174
370
   -1
100
AcDbCircle
 10
10.5030121203464
 20
-6.600003999854826
 40
0.1999999999999851
100
AcDbArc
 50
89.99999999997306
 51
-179.9999999999987
  0
LINE
  5
1C7
100
AcDbEntity
  8
0
  6
ByLayer
 62
  174
370
   -1
100
AcDbLine
 10
11.8065472935796
 20
-6.400003999855187
 11
10.5030121203465
 21
-6.400003999854846
  0
ARC
  5
1C8
100
AcDbEntity
  8
0
  6
ByLayer
 62
  174
370
   -1
100
AcDbCircle
 10
11.8065472935796
 20
-6.600003999854826
 40
0.1999999999996405
100
AcDbArc
 50
1.021755901351042
 51
89.99999999999901
  0
LINE
  5
1C9
100
AcDbEntity
  8
0
  6
ByLayer
 62
  174
370
   -1
100
AcDbLine
 10
12.29544079610491
 20
-22.7964375879652
 11
12.0065154928166
 21
-6.596437587965164
  0
ARC
  5
1CA
100
AcDbEntity
  8
0
  6
ByLayer
 62
  174
370
   -1
100
AcDbCircle
 10
12.09547259686751
 20
-22.80000399985479
 40
0.2000000000000455
100
AcDbArc
 50
-90.00000000000249
 51
1.021755901316997
  0
LINE
  5
1CB
100
AcDbEntity
  8
0
  6
ByLayer
 62
  174
370
   -1
100
AcDbLine
 10
10.80301212034651
 20
-23.0000039998548
 11
12.09547259686751
 21
-23.00000399985479
  0
ARC
  5
1CC
100
AcDbEntity
  8
0
  6
ByLayer
 62
  174
370
   -1
100
AcDbCircle
 10
10.8030121203465
 20
-22.8000039998548
 40
0.1999999999999922
100
AcDbArc
 50
179.999999999997
 51
-89.9999999999969
  0
LINE
  5
1CD
100
AcDbEntity
  8
0
  6
ByLayer
 62
  174
370
   -1
100
AcDbLine
 10
10.60301212034661
 20
-21.2002919998548
 11
10.60301212034651
 21
-22.80000399985479
  0
ARC
  5
1CE
100
AcDbEntity
  8
0
  6
ByLayer
 62
  174
370
   -1
100
AcDbCircle
 10
10.40301212034651
 20
-21.20029199985479
 40
0.2000000000000632
100
AcDbArc
 50
7.996569837400246e-12
 51
90.00000000000904
  0
LINE
  5
1CF
100
AcDbEntity
  8
0
  6
ByLayer
 62
  174
370
   -1
100
AcDbLine
 10
10.0030121203465
 20
-21.0002919998548
 11
10.40301212034651
 21
-21.0002919998548
  0
ARC
  5
1D0
100
AcDbEntity
  8
0
  6
ByLayer
 62
  174
370
   -1
100
AcDbCircle
 10
10.00301212034651
 20
-21.2002919998547
 40
0.1999999999999744
100
AcDbArc
 50
89.99999999999105
 51
-179.9999999999796
  0
LINE
  5
1D1
100
AcDbEntity
  8
0
  6
ByLayer
 62
  174
370
   -1
100
AcDbLine
 10
9.803012120346541
 20
-22.8000039998573
 11
9.803012120346505
 21
-21.2002919998548
  0
ARC
  5
1D2
100
AcDbEntity
  8
0
  6
ByLayer
 62
  174
370
   -1
100
AcDbCircle
 10
9.603012120346506
 20
-22.8000039998573
 40
0.200000000000049
100
AcDbArc
 50
-90.000000000002
 51
-1.966238161345419e-12
  0
LINE
  5
1D3
100
AcDbEntity
  8
0
  6
ByLayer
 62
  174
370
   -1
100
AcDbLine
 10
9.499071381740595
 20
-23.00000399985729
 11
9.603012120346499
 21
-23.0000039998573
  0
ARC
  5
1D4
100
AcDbEntity
  8
0
  6
ByLayer
 62
  174
370
   -1
100
AcDbCircle
 10
9.49907138173973
 20
-23.20000399985729
 40
0.2000000000000224
100
AcDbArc
 50
89.99999999974899
 51
-179.9999999999928
  0
LINE
  5
1D5
100
AcDbEntity
  8
0
  6
ByLayer
 62
  174
370
   -1
100
AcDbLine
 10
9.299071381739701
 20
-24.6171602873823
 11
9.299071381739695
 21
-23.2000039998574
  0
ARC
  5
1D6
100
AcDbEntity
  8
0
  6
ByLayer
 62
  174
370
   -1
100
AcDbCircle
 10
9.499071381739444
 20
-24.6171602873817
 40
0.1999999999997453
100
AcDbArc
 50
-179.9999999998311
 51
-135.0000446627926
  0
LINE
  5
1D7
100
AcDbEntity
  8
0
  6
ByLayer
 62
  174
370
   -1
100
AcDbLine
 10
9.940492719062608
 20
-25.3414252458542
 11
9.357649915262611
 21
-24.758581533379
  0
ARC
  5
1D8
100
AcDbEntity
  8
0
  6
ByLayer
 62
  174
370
   -1
100
AcDbCircle
 10
10.08238449484271
 20
-25.1988685744998
 40
0.2011359753542603
100
AcDbArc
 50
-134.8660718972954
 51
-89.86602723415058
  0
LINE
  5
1D9
100
AcDbEntity
  8
0
  6
ByLayer
 62
  174
370
   -1
100
AcDbLine
 10
10.10001200000091
 20
-25.4000040000001
 11
10.08285480380101
 21
-25.40000400000009
  0
ARC
  5
1DA
100
AcDbEntity
  8
0
  6
ByLayer
 62
  174
370
   -1
100
AcDbCircle
 10
10.09954169079861
 20
-25.2004743090592
 40
0.1995302452204371
100
AcDbArc
 50
-89.86494900919818
 51
0.1350509906199812
  0
LINE
  5
1DB
100
AcDbEntity
  8
0
  6
ByLayer
 62
  174
370
   -1
100
AcDbLine
 10
10.29907138173971
 20
-24.7000039998575
 11
10.29907138173951
 21
-25.2000039998575
  0
ARC
  5
1DC
100
AcDbEntity
  8
0
  6
ByLayer
 62
  174
370
   -1
100
AcDbCircle
 10
10.7990713817397
 20
-24.70000399985749
 40
0.4999999999999947
100
AcDbArc
 50
90.00000000000003
 51
-180
  0
LINE
  5
1DD
100
AcDbEntity
  8
0
  6
ByLayer
 62
  174
370
   -1
100
AcDbLine
 10
11.90001200000101
 20
-24.2000040000009
 11
10.79907138173971
 21
-24.2000039998575
  0
ARC
  5
1DE
100
AcDbEntity
  8
0
  6
ByLayer
 62
  174
370
   -1
100
AcDbCircle
 10
11.90001200000101
 20
-24.700004
 40
0.4999999999990994
100
AcDbArc
 50
7.016477563892661e-15
 51
90.00000000000003
  0
LINE
  5
1DF
100
AcDbEntity
  8
0
  6
ByLayer
 62
  174
370
   -1
100
AcDbLine
 10
12.40001200000101
 20
-31.700004
 11
12.40001200000011
 21
-24.70000399999999
  0
ARC
  5
1E0
100
AcDbEntity
  8
0
  6
ByLayer
 62
  174
370
   -1
100
AcDbCircle
 10
11.90001200000101
 20
-31.7000040000001
 40
0.4999999999999947
100
AcDbArc
 50
-89.99999999999939
 51
1.402690151345508e-11
  0
LINE
  5
1E1
100
AcDbEntity
  8
0
  6
ByLayer
 62
  174
370
   -1
100
AcDbLine
 10
10.79907138173971
 20
-32.20000399985749
 11
11.90001200000101
 21
-32.2000040000001
  0
ARC
  5
1E2
100
AcDbEntity
  8
0
  6
ByLayer
 62
  174
370
   -1
100
AcDbCircle
 10
10.79907138173971
 20
-31.7000039998575
 40
0.4999999999999947
100
AcDbArc
 50
-179.9999999999992
 51
-89.99999999999999
  0
LINE
  5
1E3
100
AcDbEntity
  8
0
  6
ByLayer
 62
  174
370
   -1
100
AcDbLine
 10
10.29907138173951
 20
-30.60000399985749
 11
10.29907138173971
 21
-31.7000039998575
  0
ARC
  5
1E4
100
AcDbEntity
  8
0
  6
ByLayer
 62
  174
370
   -1
100
AcDbCircle
 10
10.0990713817395
 20
-30.6000039998574
 40
0.1999999999999762
100
AcDbArc
 50
-2.295789905900463e-11
 51
89.99999999997804
  0
LINE
  5
1E5
100
AcDbEntity
  8
0
  6
ByLayer
 62
  174
370
   -1
100
AcDbLine
 10
10.08191409421451
 20
-30.4000039998574
 11
10.09907138173961
 21
-30.4000039998574
  0
ARC
  5
1E6
100
AcDbEntity
  8
0
  6
ByLayer
 62
  174
370
   -1
100
AcDbCircle
 10
10.08191409421401
 20
-30.60000399985759
 40
0.2000000000002533
100
AcDbArc
 50
89.99999999985705
 51
135.0000000000011
  0
LINE
  5
1E7
100
AcDbEntity
  8
0
  6
ByLayer
 62
  174
370
   -1
100
AcDbLine
 10
9.357650025502599
 20
-31.04142535609469
 11
9.940492737976497
 21
-30.4585826436202
  0
ARC
  5
1E8
100
AcDbEntity
  8
0
  6
ByLayer
 62
  174
370
   -1
100
AcDbCircle
 10
9.499071381739661
 20
-31.1828467123322
 40
0.1999999999999513
100
AcDbArc
 50
134.99999999991
 51
179.9999999999681
  0
LINE
  5
1E9
100
AcDbEntity
  8
0
  6
ByLayer
 62
  174
370
   -1
100
AcDbLine
 10
9.299071381739688
 20
-32.90000399985739
 11
9.299071381739699
 21
-31.18284671233209
  0
ARC
  5
1EA
100
AcDbEntity
  8
0
  6
ByLayer
 62
  174
370
   -1
100
AcDbCircle
 10
9.799071381739692
 20
-32.9000039998574
 40
0.4999999999999964
100
AcDbArc
 50
-179.9999999999992
 51
-89.99999999999957
  0
LINE
  5
1EB
100
AcDbEntity
  8
0
  6
ByLayer
 62
  174
370
   -1
100
AcDbLine
 10
13.30001200000021
 20
-33.400004
 11
9.799071381739697
 21
-33.40000399985739
  0
ARC
  5
1EC
100
AcDbEntity
  8
0
  6
ByLayer
 62
  174
370
   -1
100
AcDbCircle
 10
13.30001200000021
 20
-32.900004
 40
0.5000000000000036
100
AcDbArc
 50
-90.00000000000038
 51
7.016477563892661e-15
  0
LINE
  5
1ED
100
AcDbEntity
  8
0
  6
ByLayer
 62
  174
370
   -1
100
AcDbLine
 10
13.7990713817397
 20
-1.200340667238386
 11
13.80001200000021
 21
-32.900004
  0
ARC
  5
1EE
100
AcDbEntity
  8
0
  6
ByLayer
 62
  174
370
   -1
100
AcDbCircle
 10
12.9990713465511
 20
-1.200364405491795
 40
0.8000000355407746
100
AcDbArc
 50
0.001700127091999563
 51
179.975906731712
  0
LINE
  5
1EF
100
AcDbEntity
  8
0
  6
ByLayer
 62
  174
370
   -1
100
AcDbLine
 10
12.1990713817394
 20
-1.200340667238376
 11
12.1990713817407
 21
-1.200027999999405
  0
LINE
  5
1F0
100
AcDbEntity
  8
0
  6
ByLayer
 62
  174
370
   -1
100
AcDbLine
 10
12.1990713817394
 20
-4.100003999999779
 11
12.1990713817394
 21
-1.200340667238376
  0
ARC
  5
1F1
100
AcDbEntity
  8
0
  6
ByLayer
 62
  174
370
   -1
100
AcDbCircle
 10
11.6990713817394
 20
-4.100003999999785
 40
0.5000000000000018
100
AcDbArc
 50
-90.00000000000018
 51
7.016477563892661e-15
  0
LINE
  5
1F2
100
AcDbEntity
  8
0
  6
ByLayer
 62
  174
370
   -1
100
AcDbLine
 10
8.800012000000192
 20
-4.600003999999898
 11
11.6990713817394
 21
-4.600003999999785
  0
ARC
  5
1F3
100
AcDbEntity
  8
0
  6
ByLayer
 62
  174
370
   -1
100
AcDbCircle
 10
8.800012000000192
 20
-4.100003999999896
 40
0.5
100
AcDbArc
 50
-180
 51
-89.99999999999999
  0
LINE
  5
1F4
100
AcDbEntity
  8
0
  6
ByLayer
 62
  174
370
   -1
100
AcDbLine
 10
8.300012000000187
 20
7.899996000000102
 11
8.300012000000192
 21
-4.100003999999897
  0
ENDSEC
  0
SECTION
  2
OBJECTS
  0
DICTIONARY
  5
C
330
0
100
AcDbDictionary
281
    1
  3
ACAD_GROUP
350
D
  0
DICTIONARY
  5
D
330
C
100
AcDbDictionary
281
    1
  0
PLOTSETTINGS
  5
1F5
100
AcDbPlotSettings
  6
1x1
 40
0
 41
0
 42
0
 43
0
  0
ENDSEC
  0
EOF
