999
dxfrw 0.6.3
  0
SECTION
  2
HEADER
  9
$ACADVER
  1
AC1021
  9
$DWGCODEPAGE
  3
ANSI_1252
  9
$INSBASE
 10
0
 20
0
 30
0
  9
$EXTMIN
 10
-171.13
 20
118.17
 30
0
  9
$EXTMAX
 10
-86.12999999999994
 20
195.17
 30
0
  9
$LIMMIN
 10
118.17
 20
86.13
  9
$LIMMAX
 10
203.795
 20
178.63
  9
$ORTHOMODE
 70
    0
  9
$REGENMODE
 70
    1
  9
$FILLMODE
 70
    1
  9
$QTEXTMODE
 70
    0
  9
$MIRRTEXT
 70
    1
  9
$LTSCALE
 40
1
  9
$ATTMODE
 70
    1
  9
$TEXTSIZE
 40
0.2
  9
$TRACEWID
 40
0.05
  9
$TEXTSTYLE
  7
Standard
  9
$CLAYER
  8
0
  9
$CELTYPE
  6
CONTINUOUS
  9
$CECOLOR
 62
  256
  9
$CELTSCALE
 40
1
  9
$DISPSILH
 70
    0
  9
$DIMSCALE
 40
1
  9
$DIMASZ
 40
0.18
  9
$DIMEXO
 40
0.0625
  9
$DIMDLI
 40
0.38
  9
$DIMRND
 40
0
  9
$DIMDLE
 40
0
  9
$DIMEXE
 40
0.18
  9
$DIMTP
 40
0
  9
$DIMTM
 40
0
  9
$DIMTXT
 40
0.18
  9
$DIMCEN
 40
0.09
  9
$DIMTSZ
 40
0
  9
$DIMTOL
 70
    0
  9
$DIMLIM
 70
    0
  9
$DIMTIH
 70
    1
  9
$DIMTOH
 70
    1
  9
$DIMSE1
 70
    0
  9
$DIMSE2
 70
    0
  9
$DIMTAD
 70
    0
  9
$DIMZIN
 70
    0
  9
$DIMBLK
  1

  9
$DIMASO
 70
    1
  9
$DIMSHO
 70
    1
  9
$DIMPOST
  1

  9
$DIMAPOST
  1

  9
$DIMALT
 70
    0
  9
$DIMALTD
 70
    2
  9
$DIMALTF
 40
1
  9
$DIMLFAC
 40
1
  9
$DIMTOFL
 70
    0
  9
$DIMTVP
 40
0
  9
$DIMTIX
 70
    0
  9
$DIMSOXD
 70
    0
  9
$DIMSAH
 70
    0
  9
$DIMBLK1
  1

  9
$DIMBLK2
  1

  9
$DIMSTYLE
  2
Standard
  9
$DIMCLRD
 70
    0
  9
$DIMCLRE
 70
    0
  9
$DIMCLRT
 70
    0
  9
$DIMTFAC
 40
1
  9
$DIMGAP
 40
0.09
  9
$DIMJUST
 70
    0
  9
$DIMSD1
 70
    0
  9
$DIMSD2
 70
    0
  9
$DIMTOLJ
 70
    0
  9
$DIMTZIN
 70
    8
  9
$DIMALTZ
 70
    0
  9
$DIMALTTZ
 70
    0
  9
$DIMUPT
 70
    0
  9
$DIMDEC
 70
    4
  9
$DIMTDEC
 70
    2
  9
$DIMALTU
 70
    2
  9
$DIMALTTD
 70
    3
  9
$DIMTXSTY
  7
STANDARD
  9
$DIMAUNIT
 70
    0
  9
$DIMADEC
 70
    0
  9
$DIMALTRND
 40
0
  9
$DIMAZIN
 70
    0
  9
$DIMDSEP
 70
   44
  9
$DIMATFIT
 70
    3
  9
$DIMFRAC
 70
    0
  9
$DIMLDRBLK
  1
STANDARD
  9
$DIMLUNIT
 70
    2
  9
$DIMLWD
 70
   -2
  9
$DIMLWE
 70
   -2
  9
$DIMTMOVE
 70
    0
  9
$DIMFXL
 40
1
  9
$DIMFXLON
 70
    0
  9
$DIMJOGANG
 40
0.7854
  9
$DIMTFILL
 70
    0
  9
$DIMTFILLCLR
 70
    0
  9
$DIMARCSYM
 70
    0
  9
$DIMLTYPE
  6

  9
$DIMLTEX1
  6

  9
$DIMLTEX2
  6

  9
$LUNITS
 70
    2
  9
$LUPREC
 70
    4
  9
$SKETCHINC
 40
0.1
  9
$FILLETRAD
 40
0
  9
$AUNITS
 70
    0
  9
$AUPREC
 70
    0
  9
$MENU
  1
.
  9
$ELEVATION
 40
0
  9
$PELEVATION
 40
0
  9
$THICKNESS
 40
0
  9
$LIMCHECK
 70
    0
  9
$CHAMFERA
 40
0.5
  9
$CHAMFERB
 40
0.5
  9
$CHAMFERC
 40
0
  9
$CHAMFERD
 40
0
  9
$SKPOLY
 70
    0
  9
$USRTIMER
 70
    1
  9
$ANGBASE
 50
0
  9
$ANGDIR
 70
    1
  9
$PDMODE
 70
    0
  9
$PDSIZE
 40
0
  9
$PLINEWID
 40
0
  9
$SPLFRAME
 70
    0
  9
$SPLINETYPE
 70
    6
  9
$SPLINESEGS
 70
    8
  9
$HANDSEED
  5
20000
  9
$SURFTAB1
 70
    6
  9
$SURFTAB2
 70
    6
  9
$SURFTYPE
 70
    6
  9
$SURFU
 70
    6
  9
$SURFV
 70
    6
  9
$UCSBASE
  2

  9
$UCSNAME
  2

  9
$UCSORG
 10
0
 20
0
 30
0
  9
$UCSXDIR
 10
1
 20
0
 30
0
  9
$UCSYDIR
 10
0
 20
1
 30
0
  9
$UCSORTHOREF
  2

  9
$UCSORTHOVIEW
 70
    0
  9
$UCSORGTOP
 10
0
 20
0
 30
0
  9
$UCSORGBOTTOM
 10
0
 20
0
 30
0
  9
$UCSORGLEFT
 10
0
 20
0
 30
0
  9
$UCSORGRIGHT
 10
0
 20
0
 30
0
  9
$UCSORGFRONT
 10
0
 20
0
 30
0
  9
$UCSORGBACK
 10
0
 20
0
 30
0
  9
$PUCSBASE
  2

  9
$PUCSNAME
  2

  9
$PUCSORG
 10
0
 20
0
 30
0
  9
$PUCSXDIR
 10
1
 20
0
 30
0
  9
$PUCSYDIR
 10
0
 20
1
 30
0
  9
$PUCSORTHOREF
  2

  9
$PUCSORTHOVIEW
 70
    0
  9
$PUCSORGTOP
 10
0
 20
0
 30
0
  9
$PUCSORGBOTTOM
 10
0
 20
0
 30
0
  9
$PUCSORGLEFT
 10
0
 20
0
 30
0
  9
$PUCSORGRIGHT
 10
0
 20
0
 30
0
  9
$PUCSORGFRONT
 10
0
 20
0
 30
0
  9
$PUCSORGBACK
 10
0
 20
0
 30
0
  9
$USERI1
 70
    0
  9
$USERI2
 70
    0
  9
$USERI3
 70
    0
  9
$USERI4
 70
    0
  9
$USERI5
 70
    0
  9
$USERR1
 40
0
  9
$USERR2
 40
0
  9
$USERR3
 40
0
  9
$USERR4
 40
0
  9
$USERR5
 40
0
  9
$WORLDVIEW
 70
    1
  9
$SHADEDGE
 70
    3
  9
$SHADEDIF
 70
   70
  9
$TILEMODE
 70
    1
  9
$MAXACTVP
 70
   48
  9
$PINSBASE
 10
0
 20
0
 30
0
  9
$PLIMCHECK
 70
    0
  9
$PEXTMIN
 10
1e+20
 20
1e+20
 30
1e+20
  9
$PEXTMAX
 10
-1e+20
 20
-1e+20
 30
-1e+20
  9
$SNAPSTYLE
 70
    0
  9
$PLIMMIN
 10
0
 20
0
  9
$PLIMMAX
 10
0
 20
0
  9
$UNITMODE
 70
    0
  9
$VISRETAIN
 70
    1
  9
$PLINEGEN
 70
    1
  9
$PSLTSCALE
 70
    1
  9
$TREEDEPTH
 70
 3020
  9
$CMLSTYLE
  2
Standard
  9
$CMLJUST
 70
    0
  9
$CMLSCALE
 40
20
  9
$PROXYGRAPHICS
 70
    1
  9
$MEASUREMENT
 70
    1
  9
$CELWEIGHT
370
   -1
  9
$ENDCAPS
280
    0
  9
$JOINSTYLE
280
    0
  9
$LWDISPLAY
290
    0
  9
$INSUNITS
 70
    4
  9
$HYPERLINKBASE
  1

  9
$STYLESHEET
  1

  9
$XEDIT
290
    1
  9
$CEPSNTYPE
380
    0
  9
$PSTYLEMODE
290
    1
  9
$EXTNAMES
290
    1
  9
$PSVPSCALE
 40
1
  9
$OLESTARTUP
290
    0
  9
$SORTENTS
280
  127
  9
$INDEXCTL
280
    0
  9
$HIDETEXT
280
    1
  9
$XCLIPFRAME
290
    0
  9
$HALOGAP
280
    0
  9
$OBSCOLOR
 70
  257
  9
$OBSLTYPE
280
    0
  9
$INTERSECTIONDISPLAY
280
    0
  9
$INTERSECTIONCOLOR
 70
  257
  9
$DIMASSOC
280
    1
  9
$PROJECTNAME
  1

  9
$CAMERADISPLAY
290
    0
  9
$LENSLENGTH
 40
50
  9
$CAMERAHEIGHT
 40
0
  9
$STEPSPERSEC
 40
2
  9
$STEPSIZE
 40
50
  9
$3DDWFPREC
 40
2
  9
$PSOLWIDTH
 40
5
  9
$PSOLHEIGHT
 40
80
  9
$LOFTANG1
 40
1.570796326794897
  9
$LOFTANG2
 40
1.570796326794897
  9
$LOFTMAG1
 40
0
  9
$LOFTMAG2
 40
0
  9
$LOFTPARAM
 70
    7
  9
$LOFTNORMALS
280
    1
  9
$LATITUDE
 40
1
  9
$LONGITUDE
 40
1
  9
$NORTHDIRECTION
 40
0
  9
$TIMEZONE
 70
-8000
  9
$LIGHTGLYPHDISPLAY
280
    1
  9
$TILEMODELIGHTSYNCH
280
    1
  9
$SOLIDHIST
280
    1
  9
$SHOWHIST
280
    1
  9
$DWFFRAME
280
    2
  9
$DGNFRAME
280
    0
  9
$REALWORLDSCALE
290
    1
  9
$INTERFERECOLOR
 62
    1
  9
$CSHADOW
280
    0
  9
$SHADOWPLANELOCATION
 40
0
  0
ENDSEC
  0
SECTION
  2
CLASSES
  0
ENDSEC
  0
SECTION
  2
TABLES
  0
TABLE
  2
VPORT
  5
8
330
0
100
AcDbSymbolTable
 70
    1
  0
VPORT
  5
31
330
2
100
AcDbSymbolTableRecord
100
AcDbViewportTableRecord
  2
*ACTIVE
 70
    0
 10
0
 20
0
 11
1
 21
1
 12
125.5122837919673
 22
158.8341290464719
 13
0
 23
0
 14
10
 24
10
 15
10
 25
10
 16
0
 26
0
 36
1
 17
0
 27
0
 37
0
 40
368.3174628797908
 41
1.90832328106152
 42
50
 43
0
 44
0
 50
0
 51
0
 71
    0
 72
  100
 73
    1
 74
    3
 75
    0
 76
    1
 77
    0
 78
    0
281
    0
 65
    1
110
0
120
0
130
0
111
1
121
0
131
0
112
0
122
1
132
0
 79
    0
146
0
348
10020
 60
    7
 61
    5
292
1
282
    1
141
0
142
0
 63
  250
421
3358443
  0
ENDTAB
  0
TABLE
  2
LTYPE
  5
5
330
0
100
AcDbSymbolTable
 70
    4
  0
LTYPE
  5
14
330
5
100
AcDbSymbolTableRecord
100
AcDbLinetypeTableRecord
  2
ByBlock
 70
    0
  3

 72
   65
 73
    0
 40
0
  0
LTYPE
  5
15
330
5
100
AcDbSymbolTableRecord
100
AcDbLinetypeTableRecord
  2
ByLayer
 70
    0
  3

 72
   65
 73
    0
 40
0
  0
LTYPE
  5
16
330
5
100
AcDbSymbolTableRecord
100
AcDbLinetypeTableRecord
  2
Continuous
 70
    0
  3
Solid line
 72
   65
 73
    0
 40
0
  0
LTYPE
  5
32
330
5
100
AcDbSymbolTableRecord
100
AcDbLinetypeTableRecord
  2
DOT
 70
    0
  3
Dot . . . . . . . . . . . . . . . . . . . . . .
 72
   65
 73
    2
 40
6.35
 49
0
 74
    0
 49
-6.35
 74
    0
  0
LTYPE
  5
33
330
5
100
AcDbSymbolTableRecord
100
AcDbLinetypeTableRecord
  2
DOTTINY
 70
    0
  3
Dot (.15x) .....................................
 72
   65
 73
    2
 40
0.9525
 49
0
 74
    0
 49
-0.9525
 74
    0
  0
LTYPE
  5
34
330
5
100
AcDbSymbolTableRecord
100
AcDbLinetypeTableRecord
  2
DOT2
 70
    0
  3
Dot (.5x) .....................................
 72
   65
 73
    2
 40
3.175
 49
0
 74
    0
 49
-3.175
 74
    0
  0
LTYPE
  5
35
330
5
100
AcDbSymbolTableRecord
100
AcDbLinetypeTableRecord
  2
DOTX2
 70
    0
  3
Dot (2x) .  .  .  .  .  .  .  .  .  .  .  .  .
 72
   65
 73
    2
 40
12.7
 49
0
 74
    0
 49
-12.7
 74
    0
  0
LTYPE
  5
36
330
5
100
AcDbSymbolTableRecord
100
AcDbLinetypeTableRecord
  2
DASHED
 70
    0
  3
Dashed _ _ _ _ _ _ _ _ _ _ _ _ _ _ _ _ _
 72
   65
 73
    2
 40
19.05
 49
12.7
 74
    0
 49
-6.35
 74
    0
  0
LTYPE
  5
37
330
5
100
AcDbSymbolTableRecord
100
AcDbLinetypeTableRecord
  2
DASHEDTINY
 70
    0
  3
Dashed (.15x) _ _ _ _ _ _ _ _ _ _ _ _ _ _ _ _ _
 72
   65
 73
    2
 40
2.8575
 49
1.905
 74
    0
 49
-0.9525
 74
    0
  0
LTYPE
  5
38
330
5
100
AcDbSymbolTableRecord
100
AcDbLinetypeTableRecord
  2
DASHED2
 70
    0
  3
Dashed (.5x) _ _ _ _ _ _ _ _ _ _ _ _ _ _ _ _ _
 72
   65
 73
    2
 40
9.524999999999999
 49
6.35
 74
    0
 49
-3.175
 74
    0
  0
LTYPE
  5
39
330
5
100
AcDbSymbolTableRecord
100
AcDbLinetypeTableRecord
  2
DASHEDX2
 70
    0
  3
Dashed (2x) ____  ____  ____  ____  ____  ___
 72
   65
 73
    2
 40
38.09999999999999
 49
25.4
 74
    0
 49
-12.7
 74
    0
  0
LTYPE
  5
3A
330
5
100
AcDbSymbolTableRecord
100
AcDbLinetypeTableRecord
  2
DASHDOT
 70
    0
  3
Dash dot __ . __ . __ . __ . __ . __ . __ . __
 72
   65
 73
    4
 40
25.4
 49
12.7
 74
    0
 49
-6.35
 74
    0
 49
0
 74
    0
 49
-6.35
 74
    0
  0
LTYPE
  5
3B
330
5
100
AcDbSymbolTableRecord
100
AcDbLinetypeTableRecord
  2
DASHDOTTINY
 70
    0
  3
Dash dot (.15x) _._._._._._._._._._._._._._._.
 72
   65
 73
    4
 40
3.81
 49
1.905
 74
    0
 49
-0.9525
 74
    0
 49
0
 74
    0
 49
-0.9525
 74
    0
  0
LTYPE
  5
3C
330
5
100
AcDbSymbolTableRecord
100
AcDbLinetypeTableRecord
  2
DASHDOT2
 70
    0
  3
Dash dot (.5x) _._._._._._._._._._._._._._._.
 72
   65
 73
    4
 40
12.7
 49
6.35
 74
    0
 49
-3.175
 74
    0
 49
0
 74
    0
 49
-3.175
 74
    0
  0
LTYPE
  5
3D
330
5
100
AcDbSymbolTableRecord
100
AcDbLinetypeTableRecord
  2
DASHDOTX2
 70
    0
  3
Dash dot (2x) ____  .  ____  .  ____  .  ___
 72
   65
 73
    4
 40
50.8
 49
25.4
 74
    0
 49
-12.7
 74
    0
 49
0
 74
    0
 49
-12.7
 74
    0
  0
LTYPE
  5
3E
330
5
100
AcDbSymbolTableRecord
100
AcDbLinetypeTableRecord
  2
DIVIDE
 70
    0
  3
Divide ____ . . ____ . . ____ . . ____ . . ____
 72
   65
 73
    6
 40
31.75
 49
12.7
 74
    0
 49
-6.35
 74
    0
 49
0
 74
    0
 49
-6.35
 74
    0
 49
0
 74
    0
 49
-6.35
 74
    0
  0
LTYPE
  5
3F
330
5
100
AcDbSymbolTableRecord
100
AcDbLinetypeTableRecord
  2
DIVIDETINY
 70
    0
  3
Divide (.15x) __..__..__..__..__..__..__..__.._
 72
   65
 73
    6
 40
4.7625
 49
1.905
 74
    0
 49
-0.9525
 74
    0
 49
0
 74
    0
 49
-0.9525
 74
    0
 49
0
 74
    0
 49
-0.9525
 74
    0
  0
LTYPE
  5
40
330
5
100
AcDbSymbolTableRecord
100
AcDbLinetypeTableRecord
  2
DIVIDE2
 70
    0
  3
Divide (.5x) __..__..__..__..__..__..__..__.._
 72
   65
 73
    6
 40
15.875
 49
6.35
 74
    0
 49
-3.175
 74
    0
 49
0
 74
    0
 49
-3.175
 74
    0
 49
0
 74
    0
 49
-3.175
 74
    0
  0
LTYPE
  5
41
330
5
100
AcDbSymbolTableRecord
100
AcDbLinetypeTableRecord
  2
DIVIDEX2
 70
    0
  3
Divide (2x) ________  .  .  ________  .  .  _
 72
   65
 73
    6
 40
63.5
 49
25.4
 74
    0
 49
-12.7
 74
    0
 49
0
 74
    0
 49
-12.7
 74
    0
 49
0
 74
    0
 49
-12.7
 74
    0
  0
LTYPE
  5
42
330
5
100
AcDbSymbolTableRecord
100
AcDbLinetypeTableRecord
  2
BORDER
 70
    0
  3
Border __ __ . __ __ . __ __ . __ __ . __ __ .
 72
   65
 73
    6
 40
44.45
 49
12.7
 74
    0
 49
-6.35
 74
    0
 49
12.7
 74
    0
 49
-6.35
 74
    0
 49
0
 74
    0
 49
-6.35
 74
    0
  0
LTYPE
  5
43
330
5
100
AcDbSymbolTableRecord
100
AcDbLinetypeTableRecord
  2
BORDERTINY
 70
    0
  3
Border (.15x) __.__.__.__.__.__.__.__.__.__.__.
 72
   65
 73
    6
 40
6.6675
 49
1.905
 74
    0
 49
-0.9525
 74
    0
 49
1.905
 74
    0
 49
-0.9525
 74
    0
 49
0
 74
    0
 49
-0.9525
 74
    0
  0
LTYPE
  5
44
330
5
100
AcDbSymbolTableRecord
100
AcDbLinetypeTableRecord
  2
BORDER2
 70
    0
  3
Border (.5x) __.__.__.__.__.__.__.__.__.__.__.
 72
   65
 73
    6
 40
22.225
 49
6.35
 74
    0
 49
-3.175
 74
    0
 49
6.35
 74
    0
 49
-3.175
 74
    0
 49
0
 74
    0
 49
-3.175
 74
    0
  0
LTYPE
  5
45
330
5
100
AcDbSymbolTableRecord
100
AcDbLinetypeTableRecord
  2
BORDERX2
 70
    0
  3
Border (2x) ____  ____  .  ____  ____  .  ___
 72
   65
 73
    6
 40
88.89999999999999
 49
25.4
 74
    0
 49
-12.7
 74
    0
 49
25.4
 74
    0
 49
-12.7
 74
    0
 49
0
 74
    0
 49
-12.7
 74
    0
  0
LTYPE
  5
46
330
5
100
AcDbSymbolTableRecord
100
AcDbLinetypeTableRecord
  2
CENTER
 70
    0
  3
Center ____ _ ____ _ ____ _ ____ _ ____ _ ____
 72
   65
 73
    4
 40
50.8
 49
31.75
 74
    0
 49
-6.35
 74
    0
 49
6.35
 74
    0
 49
-6.35
 74
    0
  0
LTYPE
  5
47
330
5
100
AcDbSymbolTableRecord
100
AcDbLinetypeTableRecord
  2
CENTERTINY
 70
    0
  3
Center (.15x) ___ _ ___ _ ___ _ ___ _ ___ _ ___
 72
   65
 73
    4
 40
7.62
 49
4.7625
 74
    0
 49
-0.9525
 74
    0
 49
0.9525
 74
    0
 49
-0.9525
 74
    0
  0
LTYPE
  5
48
330
5
100
AcDbSymbolTableRecord
100
AcDbLinetypeTableRecord
  2
CENTER2
 70
    0
  3
Center (.5x) ___ _ ___ _ ___ _ ___ _ ___ _ ___
 72
   65
 73
    4
 40
28.575
 49
19.05
 74
    0
 49
-3.175
 74
    0
 49
3.175
 74
    0
 49
-3.175
 74
    0
  0
LTYPE
  5
49
330
5
100
AcDbSymbolTableRecord
100
AcDbLinetypeTableRecord
  2
CENTERX2
 70
    0
  3
Center (2x) ________  __  ________  __  _____
 72
   65
 73
    4
 40
101.6
 49
63.5
 74
    0
 49
-12.7
 74
    0
 49
12.7
 74
    0
 49
-12.7
 74
    0
  0
ENDTAB
  0
TABLE
  2
LAYER
  5
2
330
0
100
AcDbSymbolTable
 70
    1
  0
LAYER
  5
10
330
2
100
AcDbSymbolTableRecord
100
AcDbLayerTableRecord
  2
0
 70
    0
 62
    7
  6
CONTINUOUS
370
   -3
390
F
  0
LAYER
  5
4A
330
2
100
AcDbSymbolTableRecord
100
AcDbLayerTableRecord
  2
DEFPOINTS
 70
    0
 62
    7
  6
CONTINUOUS
370
   -3
390
F
  0
LAYER
  5
4B
330
2
100
AcDbSymbolTableRecord
100
AcDbLayerTableRecord
  2
Profile
 70
    0
 62
    7
  6
CONTINUOUS
370
   -3
390
F
  0
ENDTAB
  0
TABLE
  2
STYLE
  5
3
330
0
100
AcDbSymbolTable
 70
    3
  0
STYLE
  5
4C
330
2
100
AcDbSymbolTableRecord
100
AcDbTextStyleTableRecord
  2
Standard
 70
    0
 40
0
 41
1
 50
0
 71
    0
 42
1
  3
txt
  4

  0
ENDTAB
  0
TABLE
  2
VIEW
  5
6
330
0
100
AcDbSymbolTable
 70
    0
  0
ENDTAB
  0
TABLE
  2
UCS
  5
7
330
0
100
AcDbSymbolTable
 70
    0
  0
ENDTAB
  0
TABLE
  2
APPID
  5
9
330
0
100
AcDbSymbolTable
 70
    1
  0
APPID
  5
12
330
9
100
AcDbSymbolTableRecord
100
AcDbRegAppTableRecord
  2
ACAD
 70
    0
  0
APPID
  5
4D
330
9
100
AcDbSymbolTableRecord
100
AcDbRegAppTableRecord
  2
LibreCad
 70
    0
  0
ENDTAB
  0
TABLE
  2
DIMSTYLE
  5
A
330
0
100
AcDbSymbolTable
 70
    1
100
AcDbDimStyleTable
 71
    1
  0
DIMSTYLE
105
4E
330
A
100
AcDbSymbolTableRecord
100
AcDbDimStyleTableRecord
  2
Standard
 70
    0
 40
1
 41
0.18
 42
0.0625
 43
0.38
 44
0.18
 45
0
 46
0
 47
0
 48
0
 49
1
140
0.18
141
0.09
142
0
143
25.4
144
1
145
0
146
1
147
0.09
148
0
 71
    0
 72
    0
 73
    1
 74
    1
 75
    0
 76
    0
 77
    0
 78
    0
 79
    0
170
    0
171
    2
172
    0
173
    0
174
    0
175
    0
176
    0
177
    0
178
    0
179
    0
271
    4
272
    4
273
    2
274
    2
275
    0
276
    0
277
    2
278
    0
279
    0
280
    0
281
    0
282
    0
283
    1
284
    0
285
    0
286
    0
288
    0
289
    3
340
standard
341

371
   -2
372
   -2
  0
ENDTAB
  0
TABLE
  2
BLOCK_RECORD
  5
1
330
0
100
AcDbSymbolTable
 70
    2
  0
BLOCK_RECORD
  5
1F
330
1
100
AcDbSymbolTableRecord
100
AcDbBlockTableRecord
  2
*Model_Space
 70
    0
280
    1
281
    0
  0
BLOCK_RECORD
  5
1E
330
1
100
AcDbSymbolTableRecord
100
AcDbBlockTableRecord
  2
*Paper_Space
 70
    0
280
    1
281
    0
  0
ENDTAB
  0
ENDSEC
  0
SECTION
  2
BLOCKS
  0
BLOCK
  5
20
330
1F
100
AcDbEntity
  8
0
100
AcDbBlockBegin
  2
*Model_Space
 70
    0
 10
0
 20
0
 30
0
  3
*Model_Space
  1

  0
ENDBLK
  5
21
330
1F
100
AcDbEntity
  8
0
100
AcDbBlockEnd
  0
BLOCK
  5
1C
330
1B
100
AcDbEntity
  8
0
100
AcDbBlockBegin
  2
*Paper_Space
 70
    0
 10
0
 20
0
 30
0
  3
*Paper_Space
  1

  0
ENDBLK
  5
1D
330
1F
100
AcDbEntity
  8
0
100
AcDbBlockEnd
  0
ENDSEC
  0
SECTION
  2
ENTITIES
  0
LINE
  5
4F
100
AcDbEntity
  8
Profile
  6
CONTINUOUS
 62
  174
370
   -1
100
AcDbLine
 10
-154.11
 20
165.12
 11
-151.21
 21
168.02
  0
ARC
  5
50
100
AcDbEntity
  8
Profile
  6
CONTINUOUS
 62
  174
370
   -1
100
AcDbCircle
 10
-154.35
 20
165.37
 40
0.3499999999999943
100
AcDbArc
 50
-89.97666076989502
 51
-44.99947385212595
  0
LINE
  5
51
100
AcDbEntity
  8
Profile
  6
CONTINUOUS
 62
  174
370
   -1
100
AcDbLine
 10
-154.93
 20
165.02
 11
-154.35
 21
165.0200000000001
  0
ARC
  5
52
100
AcDbEntity
  8
Profile
  6
CONTINUOUS
 62
  174
370
   -1
100
AcDbCircle
 10
-154.9299999999999
 20
165.37
 40
0.3449999999999989
100
AcDbArc
 50
-119.541282998646
 51
-89.97666076989502
  0
LINE
  5
53
100
AcDbEntity
  8
Profile
  6
CONTINUOUS
 62
  174
370
   -1
100
AcDbLine
 10
-156.58
 20
165.92
 11
-155.1
 21
165.07
  0
LINE
  5
54
100
AcDbEntity
  8
Profile
  6
CONTINUOUS
 62
  174
370
   -1
100
AcDbLine
 10
-157.03
 20
165.92
 11
-156.58
 21
165.92
  0
ARC
  5
55
100
AcDbEntity
  8
Profile
  6
CONTINUOUS
 62
  174
370
   -1
100
AcDbCircle
 10
-157.03
 20
165.67
 40
0.2499999999999716
100
AcDbArc
 50
90.00000000000001
 51
-179.9883303849477
  0
LINE
  5
56
100
AcDbEntity
  8
Profile
  6
CONTINUOUS
 62
  174
370
   -1
100
AcDbLine
 10
-157.28
 20
162.07
 11
-157.28
 21
165.67
  0
ARC
  5
57
100
AcDbEntity
  8
Profile
  6
CONTINUOUS
 62
  174
370
   -1
100
AcDbCircle
 10
-157.03
 20
162.07
 40
0.2500000000000284
100
AcDbArc
 50
-179.9883303849477
 51
-89.97666076989502
  0
LINE
  5
58
100
AcDbEntity
  8
Profile
  6
CONTINUOUS
 62
  174
370
   -1
100
AcDbLine
 10
-157.03
 20
161.82
 11
-156.58
 21
161.82
  0
LINE
  5
59
100
AcDbEntity
  8
Profile
  6
CONTINUOUS
 62
  174
370
   -1
100
AcDbLine
 10
-156.58
 20
161.82
 11
-155.1
 21
162.67
  0
ARC
  5
5A
100
AcDbEntity
  8
Profile
  6
CONTINUOUS
 62
  174
370
   -1
100
AcDbCircle
 10
-154.93
 20
162.37
 40
0.3499999999999943
100
AcDbArc
 50
90.00000000000001
 51
119.5646222287505
  0
LINE
  5
5B
100
AcDbEntity
  8
Profile
  6
CONTINUOUS
 62
  174
370
   -1
100
AcDbLine
 10
-154.9299999999999
 20
162.72
 11
-154.64
 21
162.72
  0
ARC
  5
5C
100
AcDbEntity
  8
Profile
  6
CONTINUOUS
 62
  174
370
   -1
100
AcDbCircle
 10
-154.64
 20
161.67
 40
1.046999999999969
100
AcDbArc
 50
45.01219576292658
 51
90.00000000000001
  0
LINE
  5
5D
100
AcDbEntity
  8
Profile
  6
CONTINUOUS
 62
  174
370
   -1
100
AcDbLine
 10
-153.9
 20
162.4100000000001
 11
-153.7499999999999
 21
162.26
  0
ARC
  5
5E
100
AcDbEntity
  8
Profile
  6
CONTINUOUS
 62
  174
370
   -1
100
AcDbCircle
 10
-153.05
 20
162.97
 40
1.003999999999962
100
AcDbArc
 50
-135.011143467178
 51
-89.97666076989502
  0
LINE
  5
5F
100
AcDbEntity
  8
Profile
  6
CONTINUOUS
 62
  174
370
   -1
100
AcDbLine
 10
-153.05
 20
161.97
 11
-121.62
 21
161.97
  0
ARC
  5
60
100
AcDbEntity
  8
Profile
  6
CONTINUOUS
 62
  174
370
   -1
100
AcDbCircle
 10
-121.61
 20
162.97
 40
1.000000000000014
100
AcDbArc
 50
-89.97666076989502
 51
-44.99947385212595
  0
LINE
  5
61
100
AcDbEntity
  8
Profile
  6
CONTINUOUS
 62
  174
370
   -1
100
AcDbLine
 10
-120.91
 20
162.26
 11
-120.76
 21
162.41
  0
ARC
  5
62
100
AcDbEntity
  8
Profile
  6
CONTINUOUS
 62
  174
370
   -1
100
AcDbCircle
 10
-120.02
 20
161.67
 40
1.05000000000004
100
AcDbArc
 50
90.00000000000001
 51
134.9771869177696
  0
LINE
  5
63
100
AcDbEntity
  8
Profile
  6
CONTINUOUS
 62
  174
370
   -1
100
AcDbLine
 10
-120.02
 20
162.72
 11
-119.73
 21
162.7200000000001
  0
ARC
  5
64
100
AcDbEntity
  8
Profile
  6
CONTINUOUS
 62
  174
370
   -1
100
AcDbCircle
 10
-119.73
 20
162.37
 40
0.3450000000000273
100
AcDbArc
 50
60.48205623145881
 51
90.00000000000001
  0
LINE
  5
65
100
AcDbEntity
  8
Profile
  6
CONTINUOUS
 62
  174
370
   -1
100
AcDbLine
 10
-119.56
 20
162.67
 11
-118.08
 21
161.82
  0
LINE
  5
66
100
AcDbEntity
  8
Profile
  6
CONTINUOUS
 62
  174
370
   -1
100
AcDbLine
 10
-118.08
 20
161.82
 11
-117.63
 21
161.8200000000001
  0
ARC
  5
67
100
AcDbEntity
  8
Profile
  6
CONTINUOUS
 62
  174
370
   -1
100
AcDbCircle
 10
-117.63
 20
162.07
 40
0.2500000000000426
100
AcDbArc
 50
-89.97666076989502
 51
-0.02228693435591161
  0
LINE
  5
68
100
AcDbEntity
  8
Profile
  6
CONTINUOUS
 62
  174
370
   -1
100
AcDbLine
 10
-117.38
 20
162.0700000000001
 11
-117.3799999999999
 21
165.67
  0
ARC
  5
69
100
AcDbEntity
  8
Profile
  6
CONTINUOUS
 62
  174
370
   -1
100
AcDbCircle
 10
-117.63
 20
165.67
 40
0.25
100
AcDbArc
 50
-0.02228693435608972
 51
90.00000000000001
  0
LINE
  5
6A
100
AcDbEntity
  8
Profile
  6
CONTINUOUS
 62
  174
370
   -1
100
AcDbLine
 10
-118.08
 20
165.92
 11
-117.6299999999999
 21
165.92
  0
LINE
  5
6B
100
AcDbEntity
  8
Profile
  6
CONTINUOUS
 62
  174
370
   -1
100
AcDbLine
 10
-119.56
 20
165.07
 11
-118.08
 21
165.92
  0
ARC
  5
6C
100
AcDbEntity
  8
Profile
  6
CONTINUOUS
 62
  174
370
   -1
100
AcDbCircle
 10
-119.73
 20
165.37
 40
0.3499999999999801
100
AcDbArc
 50
-89.97666076989502
 51
-60.46933432065803
  0
LINE
  5
6D
100
AcDbEntity
  8
Profile
  6
CONTINUOUS
 62
  174
370
   -1
100
AcDbLine
 10
-120.31
 20
165.02
 11
-119.73
 21
165.02
  0
ARC
  5
6E
100
AcDbEntity
  8
Profile
  6
CONTINUOUS
 62
  174
370
   -1
100
AcDbCircle
 10
-120.31
 20
165.37
 40
0.353999999999985
100
AcDbArc
 50
-135.011143467178
 51
-89.97666076989502
  0
LINE
  5
6F
100
AcDbEntity
  8
Profile
  6
CONTINUOUS
 62
  174
370
   -1
100
AcDbLine
 10
-123.45
 20
168.02
 11
-120.55
 21
165.12
  0
ARC
  5
70
100
AcDbEntity
  8
Profile
  6
CONTINUOUS
 62
  174
370
   -1
100
AcDbCircle
 10
-123.81
 20
167.67
 40
0.4950000000000045
100
AcDbArc
 50
45.01219576292658
 51
90.00000000000001
  0
LINE
  5
71
100
AcDbEntity
  8
Profile
  6
CONTINUOUS
 62
  174
370
   -1
100
AcDbLine
 10
-150.85
 20
168.17
 11
-123.8099999999999
 21
168.17
  0
ARC
  5
72
100
AcDbEntity
  8
Profile
  6
CONTINUOUS
 62
  174
370
   -1
100
AcDbCircle
 10
-150.85
 20
167.67
 40
0.5
100
AcDbArc
 50
90.00000000000001
 51
134.9771869177696
  0
LINE
  5
73
100
AcDbEntity
  8
Profile
  6
CONTINUOUS
 62
  174
370
   -1
100
AcDbLine
 10
-143.63
 20
163.77
 11
-143.63
 21
166.3700000000001
  0
ARC
  5
74
100
AcDbEntity
  8
Profile
  6
CONTINUOUS
 62
  174
370
   -1
100
AcDbCircle
 10
-144.63
 20
166.3700000000001
 40
0.9999999999999716
100
AcDbArc
 50
-0.02228693435608972
 51
90.00000000000001
  0
LINE
  5
75
100
AcDbEntity
  8
Profile
  6
CONTINUOUS
 62
  174
370
   -1
100
AcDbLine
 10
-149.97
 20
167.37
 11
-144.63
 21
167.37
  0
ARC
  5
76
100
AcDbEntity
  8
Profile
  6
CONTINUOUS
 62
  174
370
   -1
100
AcDbCircle
 10
-149.97
 20
165.37
 40
2.000000000000028
100
AcDbArc
 50
90.00000000000001
 51
134.9771869177696
  0
LINE
  5
77
100
AcDbEntity
  8
Profile
  6
CONTINUOUS
 62
  174
370
   -1
100
AcDbLine
 10
-153.35
 20
164.82
 11
-151.38
 21
166.79
  0
ARC
  5
78
100
AcDbEntity
  8
Profile
  6
CONTINUOUS
 62
  174
370
   -1
100
AcDbCircle
 10
-152.5
 20
163.97
 40
1.201999999999998
100
AcDbArc
 50
134.9771869177696
 51
-89.97666076989502
  0
LINE
  5
79
100
AcDbEntity
  8
Profile
  6
CONTINUOUS
 62
  174
370
   -1
100
AcDbLine
 10
-152.5
 20
162.77
 11
-144.63
 21
162.77
  0
ARC
  5
7A
100
AcDbEntity
  8
Profile
  6
CONTINUOUS
 62
  174
370
   -1
100
AcDbCircle
 10
-144.63
 20
163.77
 40
1
100
AcDbArc
 50
-89.97666076989502
 51
-0.02228693435591161
  0
LINE
  5
7B
100
AcDbEntity
  8
Profile
  6
CONTINUOUS
 62
  174
370
   -1
100
AcDbLine
 10
-142.63
 20
163.77
 11
-142.63
 21
166.37
  0
ARC
  5
7C
100
AcDbEntity
  8
Profile
  6
CONTINUOUS
 62
  174
370
   -1
100
AcDbCircle
 10
-141.63
 20
163.77
 40
1
100
AcDbArc
 50
-179.9883303849477
 51
-89.97666076989502
  0
LINE
  5
7D
100
AcDbEntity
  8
Profile
  6
CONTINUOUS
 62
  174
370
   -1
100
AcDbLine
 10
-141.63
 20
162.77
 11
-133.03
 21
162.77
  0
ARC
  5
7E
100
AcDbEntity
  8
Profile
  6
CONTINUOUS
 62
  174
370
   -1
100
AcDbCircle
 10
-133.03
 20
163.77
 40
0.9999999999999716
100
AcDbArc
 50
-89.97666076989502
 51
-0.02228693435591161
  0
LINE
  5
7F
100
AcDbEntity
  8
Profile
  6
CONTINUOUS
 62
  174
370
   -1
100
AcDbLine
 10
-132.03
 20
163.77
 11
-132.03
 21
166.37
  0
ARC
  5
80
100
AcDbEntity
  8
Profile
  6
CONTINUOUS
 62
  174
370
   -1
100
AcDbCircle
 10
-133.03
 20
166.37
 40
1
100
AcDbArc
 50
-0.02228693435608972
 51
90.00000000000001
  0
LINE
  5
81
100
AcDbEntity
  8
Profile
  6
CONTINUOUS
 62
  174
370
   -1
100
AcDbLine
 10
-141.63
 20
167.37
 11
-133.03
 21
167.37
  0
ARC
  5
82
100
AcDbEntity
  8
Profile
  6
CONTINUOUS
 62
  174
370
   -1
100
AcDbCircle
 10
-141.6299999999999
 20
166.37
 40
1
100
AcDbArc
 50
90.00000000000001
 51
-179.9883303849477
  0
LINE
  5
83
100
AcDbEntity
  8
Profile
  6
CONTINUOUS
 62
  174
370
   -1
100
AcDbLine
 10
-130.0299999999999
 20
162.77
 11
-122.1599999999999
 21
162.77
  0
ARC
  5
84
100
AcDbEntity
  8
Profile
  6
CONTINUOUS
 62
  174
370
   -1
100
AcDbCircle
 10
-122.1599999999999
 20
163.97
 40
1.199999999999974
100
AcDbArc
 50
-89.97666076989502
 51
45.01219576292699
  0
LINE
  5
85
100
AcDbEntity
  8
Profile
  6
CONTINUOUS
 62
  174
370
   -1
100
AcDbLine
 10
-123.28
 20
166.78
 11
-121.3099999999999
 21
164.81
  0
ARC
  5
86
100
AcDbEntity
  8
Profile
  6
CONTINUOUS
 62
  174
370
   -1
100
AcDbCircle
 10
-124.69
 20
165.37
 40
1.994
100
AcDbArc
 50
45.01219576292658
 51
90.00000000000001
  0
LINE
  5
87
100
AcDbEntity
  8
Profile
  6
CONTINUOUS
 62
  174
370
   -1
100
AcDbLine
 10
-130.03
 20
167.37
 11
-124.69
 21
167.37
  0
ARC
  5
88
100
AcDbEntity
  8
Profile
  6
CONTINUOUS
 62
  174
370
   -1
100
AcDbCircle
 10
-130.03
 20
166.37
 40
1
100
AcDbArc
 50
90.00000000000001
 51
-179.9883303849477
  0
LINE
  5
89
100
AcDbEntity
  8
Profile
  6
CONTINUOUS
 62
  174
370
   -1
100
AcDbLine
 10
-131.03
 20
163.77
 11
-131.03
 21
166.37
  0
ARC
  5
8A
100
AcDbEntity
  8
Profile
  6
CONTINUOUS
 62
  174
370
   -1
100
AcDbCircle
 10
-130.0299999999999
 20
163.77
 40
1
100
AcDbArc
 50
-179.9883303849477
 51
-89.97666076989502
  0
LINE
  5
8B
100
AcDbEntity
  8
Profile
  6
CONTINUOUS
 62
  174
370
   -1
100
AcDbLine
 10
-151.1799999999999
 20
138.67
 11
-151.18
 21
142.96
  0
ARC
  5
8C
100
AcDbEntity
  8
Profile
  6
CONTINUOUS
 62
  174
370
   -1
100
AcDbCircle
 10
-153.18
 20
142.96
 40
2.000000000000057
100
AcDbArc
 50
-0.02228693435591161
 51
45.01219576292699
  0
LINE
  5
8D
100
AcDbEntity
  8
Profile
  6
CONTINUOUS
 62
  174
370
   -1
100
AcDbLine
 10
-154.11
 20
146.72
 11
-151.77
 21
144.38
  0
ARC
  5
8E
100
AcDbEntity
  8
Profile
  6
CONTINUOUS
 62
  174
370
   -1
100
AcDbCircle
 10
-154.3499999999999
 20
146.47
 40
0.3540000000000703
100
AcDbArc
 50
45.01219576292658
 51
90.00000000000001
  0
LINE
  5
8F
100
AcDbEntity
  8
Profile
  6
CONTINUOUS
 62
  174
370
   -1
100
AcDbLine
 10
-154.9299999999999
 20
146.82
 11
-154.35
 21
146.82
  0
ARC
  5
90
100
AcDbEntity
  8
Profile
  6
CONTINUOUS
 62
  174
370
   -1
100
AcDbCircle
 10
-154.93
 20
146.47
 40
0.3499999999999943
100
AcDbArc
 50
90.00000000000001
 51
119.5646222287505
  0
LINE
  5
91
100
AcDbEntity
  8
Profile
  6
CONTINUOUS
 62
  174
370
   -1
100
AcDbLine
 10
-156.58
 20
145.92
 11
-155.1
 21
146.77
  0
LINE
  5
92
100
AcDbEntity
  8
Profile
  6
CONTINUOUS
 62
  174
370
   -1
100
AcDbLine
 10
-157.03
 20
145.92
 11
-156.58
 21
145.92
  0
ARC
  5
93
100
AcDbEntity
  8
Profile
  6
CONTINUOUS
 62
  174
370
   -1
100
AcDbCircle
 10
-157.03
 20
146.17
 40
0.2499999999999716
100
AcDbArc
 50
-179.9883303849477
 51
-89.97666076989502
  0
LINE
  5
94
100
AcDbEntity
  8
Profile
  6
CONTINUOUS
 62
  174
370
   -1
100
AcDbLine
 10
-157.28
 20
146.17
 11
-157.2799999999999
 21
149.77
  0
ARC
  5
95
100
AcDbEntity
  8
Profile
  6
CONTINUOUS
 62
  174
370
   -1
100
AcDbCircle
 10
-157.03
 20
149.77
 40
0.2499999999999716
100
AcDbArc
 50
90.00000000000001
 51
-179.9883303849477
  0
LINE
  5
96
100
AcDbEntity
  8
Profile
  6
CONTINUOUS
 62
  174
370
   -1
100
AcDbLine
 10
-157.03
 20
150.0200000000001
 11
-156.58
 21
150.0200000000001
  0
LINE
  5
97
100
AcDbEntity
  8
Profile
  6
CONTINUOUS
 62
  174
370
   -1
100
AcDbLine
 10
-156.58
 20
150.0200000000001
 11
-155.04
 21
149.13
  0
ARC
  5
98
100
AcDbEntity
  8
Profile
  6
CONTINUOUS
 62
  174
370
   -1
100
AcDbCircle
 10
-154.4399999999999
 20
150.17
 40
1.200999999999993
100
AcDbArc
 50
-119.99964923475
 51
-89.97666076989502
  0
LINE
  5
99
100
AcDbEntity
  8
Profile
  6
CONTINUOUS
 62
  174
370
   -1
100
AcDbLine
 10
-154.44
 20
148.97
 11
-153.63
 21
148.97
  0
ARC
  5
9A
100
AcDbEntity
  8
Profile
  6
CONTINUOUS
 62
  174
370
   -1
100
AcDbCircle
 10
-153.6299999999999
 20
149.27
 40
0.3000000000000966
100
AcDbArc
 50
-89.97666076989502
 51
-0.02228693435591161
  0
LINE
  5
9B
100
AcDbEntity
  8
Profile
  6
CONTINUOUS
 62
  174
370
   -1
100
AcDbLine
 10
-153.33
 20
149.27
 11
-153.33
 21
149.57
  0
ARC
  5
9C
100
AcDbEntity
  8
Profile
  6
CONTINUOUS
 62
  174
370
   -1
100
AcDbCircle
 10
-152.93
 20
149.57
 40
0.4000000000000057
100
AcDbArc
 50
-0.02228693435608972
 51
-179.9883303849477
  0
LINE
  5
9D
100
AcDbEntity
  8
Profile
  6
CONTINUOUS
 62
  174
370
   -1
100
AcDbLine
 10
-152.53
 20
149.27
 11
-152.53
 21
149.57
  0
ARC
  5
9E
100
AcDbEntity
  8
Profile
  6
CONTINUOUS
 62
  174
370
   -1
100
AcDbCircle
 10
-152.23
 20
149.27
 40
0.2999999999999829
100
AcDbArc
 50
-179.9883303849477
 51
-89.97666076989502
  0
LINE
  5
9F
100
AcDbEntity
  8
Profile
  6
CONTINUOUS
 62
  174
370
   -1
100
AcDbLine
 10
-152.23
 20
148.97
 11
-143.83
 21
148.97
  0
ARC
  5
A0
100
AcDbEntity
  8
Profile
  6
CONTINUOUS
 62
  174
370
   -1
100
AcDbCircle
 10
-143.83
 20
149.27
 40
0.3000000000000398
100
AcDbArc
 50
-89.97666076989502
 51
-0.02228693435591161
  0
LINE
  5
A1
100
AcDbEntity
  8
Profile
  6
CONTINUOUS
 62
  174
370
   -1
100
AcDbLine
 10
-143.5299999999999
 20
149.27
 11
-143.53
 21
149.57
  0
ARC
  5
A2
100
AcDbEntity
  8
Profile
  6
CONTINUOUS
 62
  174
370
   -1
100
AcDbCircle
 10
-143.13
 20
149.57
 40
0.3999999999999488
100
AcDbArc
 50
-0.02228693435608972
 51
-179.9883303849477
  0
LINE
  5
A3
100
AcDbEntity
  8
Profile
  6
CONTINUOUS
 62
  174
370
   -1
100
AcDbLine
 10
-142.73
 20
149.27
 11
-142.73
 21
149.57
  0
ARC
  5
A4
100
AcDbEntity
  8
Profile
  6
CONTINUOUS
 62
  174
370
   -1
100
AcDbCircle
 10
-142.43
 20
149.27
 40
0.2999999999999829
100
AcDbArc
 50
-179.9883303849477
 51
-89.97666076989502
  0
LINE
  5
A5
100
AcDbEntity
  8
Profile
  6
CONTINUOUS
 62
  174
370
   -1
100
AcDbLine
 10
-142.43
 20
148.97
 11
-132.23
 21
148.97
  0
ARC
  5
A6
100
AcDbEntity
  8
Profile
  6
CONTINUOUS
 62
  174
370
   -1
100
AcDbCircle
 10
-132.23
 20
149.27
 40
0.2999999999999545
100
AcDbArc
 50
-89.97666076989502
 51
-0.02228693435591161
  0
LINE
  5
A7
100
AcDbEntity
  8
Profile
  6
CONTINUOUS
 62
  174
370
   -1
100
AcDbLine
 10
-131.93
 20
149.27
 11
-131.9299999999999
 21
149.57
  0
ARC
  5
A8
100
AcDbEntity
  8
Profile
  6
CONTINUOUS
 62
  174
370
   -1
100
AcDbCircle
 10
-131.53
 20
149.57
 40
0.4000000000000057
100
AcDbArc
 50
-0.02228693435608972
 51
-179.9883303849477
  0
LINE
  5
A9
100
AcDbEntity
  8
Profile
  6
CONTINUOUS
 62
  174
370
   -1
100
AcDbLine
 10
-131.13
 20
149.27
 11
-131.13
 21
149.57
  0
ARC
  5
AA
100
AcDbEntity
  8
Profile
  6
CONTINUOUS
 62
  174
370
   -1
100
AcDbCircle
 10
-130.83
 20
149.27
 40
0.2999999999999545
100
AcDbArc
 50
-179.9883303849477
 51
-89.97666076989502
  0
LINE
  5
AB
100
AcDbEntity
  8
Profile
  6
CONTINUOUS
 62
  174
370
   -1
100
AcDbLine
 10
-130.83
 20
148.97
 11
-122.43
 21
148.97
  0
ARC
  5
AC
100
AcDbEntity
  8
Profile
  6
CONTINUOUS
 62
  174
370
   -1
100
AcDbCircle
 10
-122.43
 20
149.27
 40
0.3000000000000398
100
AcDbArc
 50
-89.97666076989502
 51
-0.02228693435591161
  0
LINE
  5
AD
100
AcDbEntity
  8
Profile
  6
CONTINUOUS
 62
  174
370
   -1
100
AcDbLine
 10
-122.13
 20
149.27
 11
-122.13
 21
149.57
  0
ARC
  5
AE
100
AcDbEntity
  8
Profile
  6
CONTINUOUS
 62
  174
370
   -1
100
AcDbCircle
 10
-121.73
 20
149.57
 40
0.3999999999999631
100
AcDbArc
 50
-0.02228693435608972
 51
-179.9883303849477
  0
LINE
  5
AF
100
AcDbEntity
  8
Profile
  6
CONTINUOUS
 62
  174
370
   -1
100
AcDbLine
 10
-121.33
 20
149.27
 11
-121.33
 21
149.57
  0
ARC
  5
B0
100
AcDbEntity
  8
Profile
  6
CONTINUOUS
 62
  174
370
   -1
100
AcDbCircle
 10
-121.0299999999999
 20
149.27
 40
0.3000000000000398
100
AcDbArc
 50
-179.9883303849477
 51
-89.97666076989502
  0
LINE
  5
B1
100
AcDbEntity
  8
Profile
  6
CONTINUOUS
 62
  174
370
   -1
100
AcDbLine
 10
-121.03
 20
148.9700000000001
 11
-120.22
 21
148.97
  0
ARC
  5
B2
100
AcDbEntity
  8
Profile
  6
CONTINUOUS
 62
  174
370
   -1
100
AcDbCircle
 10
-120.22
 20
150.17
 40
1.20000000000006
100
AcDbArc
 50
-89.97666076989502
 51
-60.01096808455304
  0
LINE
  5
B3
100
AcDbEntity
  8
Profile
  6
CONTINUOUS
 62
  174
370
   -1
100
AcDbLine
 10
-119.6199999999999
 20
149.13
 11
-118.08
 21
150.02
  0
LINE
  5
B4
100
AcDbEntity
  8
Profile
  6
CONTINUOUS
 62
  174
370
   -1
100
AcDbLine
 10
-118.08
 20
150.02
 11
-117.63
 21
150.02
  0
ARC
  5
B5
100
AcDbEntity
  8
Profile
  6
CONTINUOUS
 62
  174
370
   -1
100
AcDbCircle
 10
-117.63
 20
149.77
 40
0.25
100
AcDbArc
 50
-0.02228693435608972
 51
90.00000000000001
  0
LINE
  5
B6
100
AcDbEntity
  8
Profile
  6
CONTINUOUS
 62
  174
370
   -1
100
AcDbLine
 10
-117.38
 20
146.17
 11
-117.3799999999999
 21
149.77
  0
ARC
  5
B7
100
AcDbEntity
  8
Profile
  6
CONTINUOUS
 62
  174
370
   -1
100
AcDbCircle
 10
-117.63
 20
146.17
 40
0.2499999999999574
100
AcDbArc
 50
-89.97666076989502
 51
-0.02228693435591161
  0
LINE
  5
B8
100
AcDbEntity
  8
Profile
  6
CONTINUOUS
 62
  174
370
   -1
100
AcDbLine
 10
-118.08
 20
145.92
 11
-117.63
 21
145.92
  0
LINE
  5
B9
100
AcDbEntity
  8
Profile
  6
CONTINUOUS
 62
  174
370
   -1
100
AcDbLine
 10
-119.56
 20
146.77
 11
-118.08
 21
145.92
  0
ARC
  5
BA
100
AcDbEntity
  8
Profile
  6
CONTINUOUS
 62
  174
370
   -1
100
AcDbCircle
 10
-119.7299999999999
 20
146.47
 40
0.3449999999999847
100
AcDbArc
 50
60.48205623145881
 51
90.00000000000001
  0
LINE
  5
BB
100
AcDbEntity
  8
Profile
  6
CONTINUOUS
 62
  174
370
   -1
100
AcDbLine
 10
-120.31
 20
146.8200000000001
 11
-119.73
 21
146.82
  0
ARC
  5
BC
100
AcDbEntity
  8
Profile
  6
CONTINUOUS
 62
  174
370
   -1
100
AcDbCircle
 10
-120.31
 20
146.47
 40
0.3500000000000227
100
AcDbArc
 50
90.00000000000001
 51
134.9771869177696
  0
LINE
  5
BD
100
AcDbEntity
  8
Profile
  6
CONTINUOUS
 62
  174
370
   -1
100
AcDbLine
 10
-122.8899999999999
 20
144.38
 11
-120.5499999999999
 21
146.72
  0
ARC
  5
BE
100
AcDbEntity
  8
Profile
  6
CONTINUOUS
 62
  174
370
   -1
100
AcDbCircle
 10
-121.48
 20
142.96
 40
1.994
100
AcDbArc
 50
134.9771869177696
 51
-179.9883303849477
  0
LINE
  5
BF
100
AcDbEntity
  8
Profile
  6
CONTINUOUS
 62
  174
370
   -1
100
AcDbLine
 10
-123.48
 20
138.67
 11
-123.4799999999999
 21
142.96
  0
ARC
  5
C0
100
AcDbEntity
  8
Profile
  6
CONTINUOUS
 62
  174
370
   -1
100
AcDbCircle
 10
-123.98
 20
138.67
 40
0.5
100
AcDbArc
 50
-89.97666076989502
 51
-0.02228693435591161
  0
LINE
  5
C1
100
AcDbEntity
  8
Profile
  6
CONTINUOUS
 62
  174
370
   -1
100
AcDbLine
 10
-150.68
 20
138.17
 11
-123.98
 21
138.17
  0
ARC
  5
C2
100
AcDbEntity
  8
Profile
  6
CONTINUOUS
 62
  174
370
   -1
100
AcDbCircle
 10
-150.68
 20
138.67
 40
0.5
100
AcDbArc
 50
-179.9883303849477
 51
-89.97666076989502
  0
LINE
  5
C3
100
AcDbEntity
  8
Profile
  6
CONTINUOUS
 62
  174
370
   -1
100
AcDbLine
 10
-141.63
 20
139.17
 11
-133.03
 21
139.17
  0
ARC
  5
C4
100
AcDbEntity
  8
Profile
  6
CONTINUOUS
 62
  174
370
   -1
100
AcDbCircle
 10
-141.63
 20
140.17
 40
1
100
AcDbArc
 50
-179.9883303849477
 51
-89.97666076989502
  0
LINE
  5
C5
100
AcDbEntity
  8
Profile
  6
CONTINUOUS
 62
  174
370
   -1
100
AcDbLine
 10
-142.63
 20
140.17
 11
-142.63
 21
146.97
  0
ARC
  5
C6
100
AcDbEntity
  8
Profile
  6
CONTINUOUS
 62
  174
370
   -1
100
AcDbCircle
 10
-141.63
 20
146.97
 40
1
100
AcDbArc
 50
90.00000000000001
 51
-179.9883303849477
  0
LINE
  5
C7
100
AcDbEntity
  8
Profile
  6
CONTINUOUS
 62
  174
370
   -1
100
AcDbLine
 10
-141.63
 20
147.97
 11
-133.03
 21
147.9700000000001
  0
ARC
  5
C8
100
AcDbEntity
  8
Profile
  6
CONTINUOUS
 62
  174
370
   -1
100
AcDbCircle
 10
-133.03
 20
146.9700000000001
 40
1
100
AcDbArc
 50
-0.02228693435608972
 51
90.00000000000001
  0
LINE
  5
C9
100
AcDbEntity
  8
Profile
  6
CONTINUOUS
 62
  174
370
   -1
100
AcDbLine
 10
-132.03
 20
140.17
 11
-132.03
 21
146.97
  0
ARC
  5
CA
100
AcDbEntity
  8
Profile
  6
CONTINUOUS
 62
  174
370
   -1
100
AcDbCircle
 10
-133.03
 20
140.17
 40
1
100
AcDbArc
 50
-89.97666076989502
 51
-0.02228693435591161
  0
LINE
  5
CB
100
AcDbEntity
  8
Profile
  6
CONTINUOUS
 62
  174
370
   -1
100
AcDbLine
 10
-149.18
 20
139.17
 11
-144.63
 21
139.17
  0
ARC
  5
CC
100
AcDbEntity
  8
Profile
  6
CONTINUOUS
 62
  174
370
   -1
100
AcDbCircle
 10
-149.18
 20
140.17
 40
0.9999999999999716
100
AcDbArc
 50
-179.9883303849477
 51
-89.97666076989502
  0
LINE
  5
CD
100
AcDbEntity
  8
Profile
  6
CONTINUOUS
 62
  174
370
   -1
100
AcDbLine
 10
-150.1799999999999
 20
140.17
 11
-150.18
 21
143.3099999999999
  0
ARC
  5
CE
100
AcDbEntity
  8
Profile
  6
CONTINUOUS
 62
  174
370
   -1
100
AcDbCircle
 10
-152.18
 20
143.31
 40
2.000000000000028
100
AcDbArc
 50
-0.02228693435591161
 51
45.01219576292699
  0
LINE
  5
CF
100
AcDbEntity
  8
Profile
  6
CONTINUOUS
 62
  174
370
   -1
100
AcDbLine
 10
-152.82
 20
146.78
 11
-150.77
 21
144.73
  0
ARC
  5
D0
100
AcDbEntity
  8
Profile
  6
CONTINUOUS
 62
  174
370
   -1
100
AcDbCircle
 10
-152.32
 20
147.27
 40
0.6999999999999318
100
AcDbArc
 50
90.00000000000001
 51
-135.011143467178
  0
LINE
  5
D1
100
AcDbEntity
  8
Profile
  6
CONTINUOUS
 62
  174
370
   -1
100
AcDbLine
 10
-152.32
 20
147.97
 11
-144.63
 21
147.97
  0
ARC
  5
D2
100
AcDbEntity
  8
Profile
  6
CONTINUOUS
 62
  174
370
   -1
100
AcDbCircle
 10
-144.63
 20
146.97
 40
1
100
AcDbArc
 50
-0.02228693435608972
 51
90.00000000000001
  0
LINE
  5
D3
100
AcDbEntity
  8
Profile
  6
CONTINUOUS
 62
  174
370
   -1
100
AcDbLine
 10
-143.63
 20
140.17
 11
-143.63
 21
146.97
  0
ARC
  5
D4
100
AcDbEntity
  8
Profile
  6
CONTINUOUS
 62
  174
370
   -1
100
AcDbCircle
 10
-144.63
 20
140.17
 40
1
100
AcDbArc
 50
-89.97666076989502
 51
-0.02228693435591161
  0
LINE
  5
D5
100
AcDbEntity
  8
Profile
  6
CONTINUOUS
 62
  174
370
   -1
100
AcDbLine
 10
-130.0299999999999
 20
147.97
 11
-122.34
 21
147.97
  0
ARC
  5
D6
100
AcDbEntity
  8
Profile
  6
CONTINUOUS
 62
  174
370
   -1
100
AcDbCircle
 10
-122.3399999999999
 20
147.27
 40
0.6930000000000405
100
AcDbArc
 50
-44.99947385212595
 51
90.00000000000001
  0
LINE
  5
D7
100
AcDbEntity
  8
Profile
  6
CONTINUOUS
 62
  174
370
   -1
100
AcDbLine
 10
-123.89
 20
144.72
 11
-121.8399999999999
 21
146.77
  0
ARC
  5
D8
100
AcDbEntity
  8
Profile
  6
CONTINUOUS
 62
  174
370
   -1
100
AcDbCircle
 10
-122.48
 20
143.31
 40
1.993999999999986
100
AcDbArc
 50
134.9771869177696
 51
-179.9883303849477
  0
LINE
  5
D9
100
AcDbEntity
  8
Profile
  6
CONTINUOUS
 62
  174
370
   -1
100
AcDbLine
 10
-124.4799999999999
 20
140.17
 11
-124.48
 21
143.31
  0
ARC
  5
DA
100
AcDbEntity
  8
Profile
  6
CONTINUOUS
 62
  174
370
   -1
100
AcDbCircle
 10
-125.48
 20
140.17
 40
0.9999999999999289
100
AcDbArc
 50
-89.97666076989502
 51
-0.02228693435591161
  0
LINE
  5
DB
100
AcDbEntity
  8
Profile
  6
CONTINUOUS
 62
  174
370
   -1
100
AcDbLine
 10
-130.0299999999999
 20
139.17
 11
-125.4799999999999
 21
139.17
  0
ARC
  5
DC
100
AcDbEntity
  8
Profile
  6
CONTINUOUS
 62
  174
370
   -1
100
AcDbCircle
 10
-130.0299999999999
 20
140.17
 40
0.9999999999999147
100
AcDbArc
 50
-179.9883303849477
 51
-89.97666076989502
  0
LINE
  5
DD
100
AcDbEntity
  8
Profile
  6
CONTINUOUS
 62
  174
370
   -1
100
AcDbLine
 10
-131.03
 20
140.17
 11
-131.0299999999999
 21
146.97
  0
ARC
  5
DE
100
AcDbEntity
  8
Profile
  6
CONTINUOUS
 62
  174
370
   -1
100
AcDbCircle
 10
-130.0299999999999
 20
146.97
 40
1
100
AcDbArc
 50
90.00000000000001
 51
-179.9883303849477
  0
LINE
  5
DF
100
AcDbEntity
  8
Profile
  6
CONTINUOUS
 62
  174
370
   -1
100
AcDbLine
 10
-117.33
 20
143.67
 11
-121.65
 21
143.67
  0
LINE
  5
E0
100
AcDbEntity
  8
Profile
  6
CONTINUOUS
 62
  174
370
   -1
100
AcDbLine
 10
-117.33
 20
140.17
 11
-117.33
 21
143.67
  0
LINE
  5
E1
100
AcDbEntity
  8
Profile
  6
CONTINUOUS
 62
  174
370
   -1
100
AcDbLine
 10
-117.33
 20
140.17
 11
-117.63
 21
140.17
  0
LINE
  5
E2
100
AcDbEntity
  8
Profile
  6
CONTINUOUS
 62
  174
370
   -1
100
AcDbLine
 10
-117.63
 20
135.67
 11
-117.63
 21
140.17
  0
LINE
  5
E3
100
AcDbEntity
  8
Profile
  6
CONTINUOUS
 62
  174
370
   -1
100
AcDbLine
 10
-113.63
 20
135.67
 11
-117.63
 21
135.67
  0
LINE
  5
E4
100
AcDbEntity
  8
Profile
  6
CONTINUOUS
 62
  174
370
   -1
100
AcDbLine
 10
-113.63
 20
135.67
 11
-113.63
 21
137.17
  0
LINE
  5
E5
100
AcDbEntity
  8
Profile
  6
CONTINUOUS
 62
  174
370
   -1
100
AcDbLine
 10
-113.63
 20
137.17
 11
-116.13
 21
137.17
  0
LINE
  5
E6
100
AcDbEntity
  8
Profile
  6
CONTINUOUS
 62
  174
370
   -1
100
AcDbLine
 10
-116.13
 20
137.17
 11
-116.13
 21
140.17
  0
LINE
  5
E7
100
AcDbEntity
  8
Profile
  6
CONTINUOUS
 62
  174
370
   -1
100
AcDbLine
 10
-106.43
 20
140.17
 11
-116.13
 21
140.17
  0
LINE
  5
E8
100
AcDbEntity
  8
Profile
  6
CONTINUOUS
 62
  174
370
   -1
100
AcDbLine
 10
-106.43
 20
140.17
 11
-106.13
 21
140.4700000000001
  0
LINE
  5
E9
100
AcDbEntity
  8
Profile
  6
CONTINUOUS
 62
  174
370
   -1
100
AcDbLine
 10
-105.83
 20
140.17
 11
-106.13
 21
140.4700000000001
  0
LINE
  5
EA
100
AcDbEntity
  8
Profile
  6
CONTINUOUS
 62
  174
370
   -1
100
AcDbLine
 10
-96.12999999999998
 20
140.17
 11
-105.83
 21
140.17
  0
LINE
  5
EB
100
AcDbEntity
  8
Profile
  6
CONTINUOUS
 62
  174
370
   -1
100
AcDbLine
 10
-96.12999999999997
 20
137.17
 11
-96.12999999999998
 21
140.17
  0
LINE
  5
EC
100
AcDbEntity
  8
Profile
  6
CONTINUOUS
 62
  174
370
   -1
100
AcDbLine
 10
-96.12999999999997
 20
137.17
 11
-98.63
 21
137.17
  0
LINE
  5
ED
100
AcDbEntity
  8
Profile
  6
CONTINUOUS
 62
  174
370
   -1
100
AcDbLine
 10
-98.62999999999998
 20
135.67
 11
-98.63
 21
137.17
  0
LINE
  5
EE
100
AcDbEntity
  8
Profile
  6
CONTINUOUS
 62
  174
370
   -1
100
AcDbLine
 10
-94.12999999999997
 20
135.67
 11
-98.62999999999998
 21
135.67
  0
LINE
  5
EF
100
AcDbEntity
  8
Profile
  6
CONTINUOUS
 62
  174
370
   -1
100
AcDbLine
 10
-94.12999999999997
 20
135.67
 11
-94.12999999999997
 21
137.17
  0
LINE
  5
F0
100
AcDbEntity
  8
Profile
  6
CONTINUOUS
 62
  174
370
   -1
100
AcDbLine
 10
-94.12999999999997
 20
137.17
 11
-94.62999999999997
 21
137.17
  0
LINE
  5
F1
100
AcDbEntity
  8
Profile
  6
CONTINUOUS
 62
  174
370
   -1
100
AcDbLine
 10
-94.62999999999997
 20
137.17
 11
-94.62999999999998
 21
139.17
  0
LINE
  5
F2
100
AcDbEntity
  8
Profile
  6
CONTINUOUS
 62
  174
370
   -1
100
AcDbLine
 10
-94.12999999999998
 20
139.17
 11
-94.62999999999998
 21
139.17
  0
LINE
  5
F3
100
AcDbEntity
  8
Profile
  6
CONTINUOUS
 62
  174
370
   -1
100
AcDbLine
 10
-94.12999999999998
 20
139.17
 11
-94.13
 21
140.17
  0
LINE
  5
F4
100
AcDbEntity
  8
Profile
  6
CONTINUOUS
 62
  174
370
   -1
100
AcDbLine
 10
-87.62999999999995
 20
124.77
 11
-89.12999999999997
 21
124.77
  0
LINE
  5
F5
100
AcDbEntity
  8
Profile
  6
CONTINUOUS
 62
  174
370
   -1
100
AcDbLine
 10
-89.12999999999997
 20
124.77
 11
-89.52999999999997
 21
125.17
  0
LINE
  5
F6
100
AcDbEntity
  8
Profile
  6
CONTINUOUS
 62
  174
370
   -1
100
AcDbLine
 10
-89.52999999999997
 20
125.17
 11
-91.12999999999998
 21
125.17
  0
LINE
  5
F7
100
AcDbEntity
  8
Profile
  6
CONTINUOUS
 62
  174
370
   -1
100
AcDbLine
 10
-91.12999999999998
 20
122.97
 11
-91.12999999999998
 21
125.17
  0
LINE
  5
F8
100
AcDbEntity
  8
Profile
  6
CONTINUOUS
 62
  174
370
   -1
100
AcDbLine
 10
-91.12999999999998
 20
122.97
 11
-89.92999999999998
 21
122.97
  0
LINE
  5
F9
100
AcDbEntity
  8
Profile
  6
CONTINUOUS
 62
  174
370
   -1
100
AcDbLine
 10
-89.92999999999998
 20
122.97
 11
-89.93000000000001
 21
123.68
  0
LINE
  5
FA
100
AcDbEntity
  8
Profile
  6
CONTINUOUS
 62
  174
370
   -1
100
AcDbLine
 10
-89.93000000000001
 20
123.68
 11
-89.65999999999997
 21
123.87
  0
LINE
  5
FB
100
AcDbEntity
  8
Profile
  6
CONTINUOUS
 62
  174
370
   -1
100
AcDbLine
 10
-87.52999999999997
 20
123.1
 11
-89.65999999999997
 21
123.88
  0
LINE
  5
FC
100
AcDbEntity
  8
Profile
  6
CONTINUOUS
 62
  174
370
   -1
100
AcDbLine
 10
-87.52999999999997
 20
119.37
 11
-87.52999999999997
 21
123.1
  0
LINE
  5
FD
100
AcDbEntity
  8
Profile
  6
CONTINUOUS
 62
  174
370
   -1
100
AcDbLine
 10
-87.52999999999997
 20
119.37
 11
-89.92999999999999
 21
119.37
  0
LINE
  5
FE
100
AcDbEntity
  8
Profile
  6
CONTINUOUS
 62
  174
370
   -1
100
AcDbLine
 10
-89.92999999999999
 20
119.37
 11
-89.92999999999998
 21
120.37
  0
LINE
  5
FF
100
AcDbEntity
  8
Profile
  6
CONTINUOUS
 62
  174
370
   -1
100
AcDbLine
 10
-89.92999999999998
 20
120.37
 11
-91.13
 21
120.37
  0
LINE
  5
100
100
AcDbEntity
  8
Profile
  6
CONTINUOUS
 62
  174
370
   -1
100
AcDbLine
 10
-91.12999999999998
 20
118.17
 11
-91.13
 21
120.37
  0
LINE
  5
101
100
AcDbEntity
  8
Profile
  6
CONTINUOUS
 62
  174
370
   -1
100
AcDbLine
 10
-87.62999999999998
 20
118.17
 11
-91.12999999999998
 21
118.17
  0
LINE
  5
102
100
AcDbEntity
  8
Profile
  6
CONTINUOUS
 62
  174
370
   -1
100
AcDbLine
 10
-87.62999999999998
 20
118.17
 11
-86.87999999999998
 21
118.37
  0
LINE
  5
103
100
AcDbEntity
  8
Profile
  6
CONTINUOUS
 62
  174
370
   -1
100
AcDbLine
 10
-86.87999999999998
 20
118.37
 11
-86.33
 21
118.92
  0
LINE
  5
104
100
AcDbEntity
  8
Profile
  6
CONTINUOUS
 62
  174
370
   -1
100
AcDbLine
 10
-86.33
 20
118.92
 11
-86.12999999999998
 21
119.67
  0
LINE
  5
105
100
AcDbEntity
  8
Profile
  6
CONTINUOUS
 62
  174
370
   -1
100
AcDbLine
 10
-106.73
 20
168.17
 11
-121.65
 21
168.17
  0
LINE
  5
106
100
AcDbEntity
  8
Profile
  6
CONTINUOUS
 62
  174
370
   -1
100
AcDbLine
 10
-106.73
 20
168.17
 11
-106.73
 21
173.16
  0
LINE
  5
107
100
AcDbEntity
  8
Profile
  6
CONTINUOUS
 62
  174
370
   -1
100
AcDbLine
 10
-104.58
 20
173.16
 11
-106.73
 21
173.16
  0
LINE
  5
108
100
AcDbEntity
  8
Profile
  6
CONTINUOUS
 62
  174
370
   -1
100
AcDbLine
 10
-103.63
 20
171.52
 11
-104.58
 21
173.16
  0
LINE
  5
109
100
AcDbEntity
  8
Profile
  6
CONTINUOUS
 62
  174
370
   -1
100
AcDbLine
 10
-103.63
 20
171.17
 11
-103.63
 21
171.52
  0
LINE
  5
10A
100
AcDbEntity
  8
Profile
  6
CONTINUOUS
 62
  174
370
   -1
100
AcDbLine
 10
-103.63
 20
171.17
 11
-105.33
 21
171.17
  0
LINE
  5
10B
100
AcDbEntity
  8
Profile
  6
CONTINUOUS
 62
  174
370
   -1
100
AcDbLine
 10
-105.33
 20
168.17
 11
-105.33
 21
171.17
  0
LINE
  5
10C
100
AcDbEntity
  8
Profile
  6
CONTINUOUS
 62
  174
370
   -1
100
AcDbLine
 10
-96.77999999999997
 20
168.17
 11
-105.33
 21
168.17
  0
LINE
  5
10D
100
AcDbEntity
  8
Profile
  6
CONTINUOUS
 62
  174
370
   -1
100
AcDbLine
 10
-96.47999999999996
 20
167.87
 11
-96.77999999999997
 21
168.17
  0
LINE
  5
10E
100
AcDbEntity
  8
Profile
  6
CONTINUOUS
 62
  174
370
   -1
100
AcDbLine
 10
-96.47999999999996
 20
167.87
 11
-96.17999999999998
 21
168.17
  0
LINE
  5
10F
100
AcDbEntity
  8
Profile
  6
CONTINUOUS
 62
  174
370
   -1
100
AcDbLine
 10
-87.62999999999995
 20
168.17
 11
-96.17999999999998
 21
168.17
  0
LINE
  5
110
100
AcDbEntity
  8
Profile
  6
CONTINUOUS
 62
  174
370
   -1
100
AcDbLine
 10
-87.62999999999995
 20
168.17
 11
-87.62999999999997
 21
171.17
  0
LINE
  5
111
100
AcDbEntity
  8
Profile
  6
CONTINUOUS
 62
  174
370
   -1
100
AcDbLine
 10
-87.62999999999997
 20
171.17
 11
-87.78999999999998
 21
171.56
  0
LINE
  5
112
100
AcDbEntity
  8
Profile
  6
CONTINUOUS
 62
  174
370
   -1
100
AcDbLine
 10
-87.78999999999998
 20
171.56
 11
-88.17999999999998
 21
171.72
  0
LINE
  5
113
100
AcDbEntity
  8
Profile
  6
CONTINUOUS
 62
  174
370
   -1
100
AcDbLine
 10
-88.56999999999994
 20
171.56
 11
-88.17999999999998
 21
171.72
  0
LINE
  5
114
100
AcDbEntity
  8
Profile
  6
CONTINUOUS
 62
  174
370
   -1
100
AcDbLine
 10
-88.72999999999999
 20
171.17
 11
-88.56999999999994
 21
171.56
  0
LINE
  5
115
100
AcDbEntity
  8
Profile
  6
CONTINUOUS
 62
  174
370
   -1
100
AcDbLine
 10
-88.72999999999999
 20
171.17
 11
-89.62999999999997
 21
171.17
  0
LINE
  5
116
100
AcDbEntity
  8
Profile
  6
CONTINUOUS
 62
  174
370
   -1
100
AcDbLine
 10
-89.62999999999997
 20
171.17
 11
-89.62999999999997
 21
171.57
  0
LINE
  5
117
100
AcDbEntity
  8
Profile
  6
CONTINUOUS
 62
  174
370
   -1
100
AcDbLine
 10
-89.62999999999997
 20
171.57
 11
-88.70999999999997
 21
173.16
  0
LINE
  5
118
100
AcDbEntity
  8
Profile
  6
CONTINUOUS
 62
  174
370
   -1
100
AcDbLine
 10
-87.82999999999996
 20
165.17
 11
-87.82999999999998
 21
166.42
  0
LINE
  5
119
100
AcDbEntity
  8
Profile
  6
CONTINUOUS
 62
  174
370
   -1
100
AcDbLine
 10
-87.62999999999997
 20
165.17
 11
-87.82999999999996
 21
165.17
  0
LINE
  5
11A
100
AcDbEntity
  8
Profile
  6
CONTINUOUS
 62
  174
370
   -1
100
AcDbLine
 10
-86.12999999999998
 20
119.67
 11
-86.12999999999994
 21
173.16
  0
LINE
  5
11B
100
AcDbEntity
  8
Profile
  6
CONTINUOUS
 62
  174
370
   -1
100
AcDbLine
 10
-86.12999999999994
 20
173.16
 11
-88.69999999999995
 21
173.16
  0
LINE
  5
11C
100
AcDbEntity
  8
Profile
  6
CONTINUOUS
 62
  174
370
   -1
100
AcDbLine
 10
-88.29999999999995
 20
139.88
 11
-89.00999999999996
 21
140.17
  0
LINE
  5
11D
100
AcDbEntity
  8
Profile
  6
CONTINUOUS
 62
  174
370
   -1
100
AcDbLine
 10
-94.13
 20
140.17
 11
-88.99999999999997
 21
140.17
  0
LINE
  5
11E
100
AcDbEntity
  8
Profile
  6
CONTINUOUS
 62
  174
370
   -1
100
AcDbLine
 10
-87.62999999999995
 20
124.77
 11
-87.88999999999999
 21
138.93
  0
LINE
  5
11F
100
AcDbEntity
  8
Profile
  6
CONTINUOUS
 62
  174
370
   -1
100
AcDbLine
 10
-87.88999999999999
 20
138.93
 11
-88.29999999999995
 21
139.88
  0
LINE
  5
120
100
AcDbEntity
  8
Profile
  6
CONTINUOUS
 62
  174
370
   -1
100
AcDbLine
 10
-87.62999999999997
 20
165.17
 11
-87.62999999999997
 21
143.17
  0
LINE
  5
121
100
AcDbEntity
  8
Profile
  6
CONTINUOUS
 62
  174
370
   -1
100
AcDbLine
 10
-87.62999999999997
 20
143.17
 11
-87.82999999999998
 21
143.17
  0
LINE
  5
122
100
AcDbEntity
  8
Profile
  6
CONTINUOUS
 62
  174
370
   -1
100
AcDbLine
 10
-87.82999999999998
 20
143.17
 11
-87.82999999999997
 21
141.92
  0
LINE
  5
123
100
AcDbEntity
  8
Profile
  6
CONTINUOUS
 62
  174
370
   -1
100
AcDbLine
 10
-87.82999999999997
 20
141.92
 11
-115.7299999999999
 21
141.9199999999999
  0
LINE
  5
124
100
AcDbEntity
  8
Profile
  6
CONTINUOUS
 62
  174
370
   -1
100
AcDbLine
 10
-115.7299999999999
 20
141.9199999999999
 11
-115.73
 21
166.42
  0
LINE
  5
125
100
AcDbEntity
  8
Profile
  6
CONTINUOUS
 62
  174
370
   -1
100
AcDbLine
 10
-115.73
 20
166.42
 11
-87.82999999999998
 21
166.42
  0
LINE
  5
126
100
AcDbEntity
  8
Profile
  6
CONTINUOUS
 62
  174
370
   -1
100
AcDbLine
 10
-122.08
 20
167.99
 11
-121.66
 21
168.17
  0
LINE
  5
127
100
AcDbEntity
  8
Profile
  6
CONTINUOUS
 62
  174
370
   -1
100
AcDbLine
 10
-122.2499999999999
 20
167.57
 11
-122.07
 21
167.99
  0
LINE
  5
128
100
AcDbEntity
  8
Profile
  6
CONTINUOUS
 62
  174
370
   -1
100
AcDbLine
 10
-119.83
 20
160.93
 11
-119.83
 21
162.67
  0
LINE
  5
129
100
AcDbEntity
  8
Profile
  6
CONTINUOUS
 62
  174
370
   -1
100
AcDbLine
 10
-117.33
 20
159.03
 11
-119.83
 21
160.9399999999999
  0
LINE
  5
12A
100
AcDbEntity
  8
Profile
  6
CONTINUOUS
 62
  174
370
   -1
100
AcDbLine
 10
-117.33
 20
152.81
 11
-117.33
 21
159.03
  0
LINE
  5
12B
100
AcDbEntity
  8
Profile
  6
CONTINUOUS
 62
  174
370
   -1
100
AcDbLine
 10
-119.83
 20
150.91
 11
-117.33
 21
152.82
  0
LINE
  5
12C
100
AcDbEntity
  8
Profile
  6
CONTINUOUS
 62
  174
370
   -1
100
AcDbLine
 10
-119.83
 20
149.17
 11
-119.83
 21
150.91
  0
LINE
  5
12D
100
AcDbEntity
  8
Profile
  6
CONTINUOUS
 62
  174
370
   -1
100
AcDbLine
 10
-122.08
 20
143.85
 11
-122.26
 21
144.27
  0
LINE
  5
12E
100
AcDbEntity
  8
Profile
  6
CONTINUOUS
 62
  174
370
   -1
100
AcDbLine
 10
-121.65
 20
143.67
 11
-122.07
 21
143.85
  0
LINE
  5
12F
100
AcDbEntity
  8
Profile
  6
CONTINUOUS
 62
  174
370
   -1
100
AcDbLine
 10
-171.13
 20
152.97
 11
-171.1299999999999
 21
195.17
  0
LINE
  5
130
100
AcDbEntity
  8
Profile
  6
CONTINUOUS
 62
  174
370
   -1
100
AcDbLine
 10
-170.8999999999999
 20
152.4
 11
-171.13
 21
152.97
  0
LINE
  5
131
100
AcDbEntity
  8
Profile
  6
CONTINUOUS
 62
  174
370
   -1
100
AcDbLine
 10
-170.33
 20
152.17
 11
-170.8999999999999
 21
152.4
  0
LINE
  5
132
100
AcDbEntity
  8
Profile
  6
CONTINUOUS
 62
  174
370
   -1
100
AcDbLine
 10
-170.33
 20
152.17
 11
-169.76
 21
152.4
  0
LINE
  5
133
100
AcDbEntity
  8
Profile
  6
CONTINUOUS
 62
  174
370
   -1
100
AcDbLine
 10
-169.76
 20
152.4
 11
-169.5299999999999
 21
152.97
  0
LINE
  5
134
100
AcDbEntity
  8
Profile
  6
CONTINUOUS
 62
  174
370
   -1
100
AcDbLine
 10
-169.5299999999999
 20
152.97
 11
-169.5299999999999
 21
155.47
  0
LINE
  5
135
100
AcDbEntity
  8
Profile
  6
CONTINUOUS
 62
  174
370
   -1
100
AcDbLine
 10
-165.63
 20
155.47
 11
-169.5299999999999
 21
155.47
  0
LINE
  5
136
100
AcDbEntity
  8
Profile
  6
CONTINUOUS
 62
  174
370
   -1
100
AcDbLine
 10
-165.63
 20
143.8700000000001
 11
-165.63
 21
155.47
  0
LINE
  5
137
100
AcDbEntity
  8
Profile
  6
CONTINUOUS
 62
  174
370
   -1
100
AcDbLine
 10
-165.43
 20
143.3800000000001
 11
-165.6399999999999
 21
143.88
  0
LINE
  5
138
100
AcDbEntity
  8
Profile
  6
CONTINUOUS
 62
  174
370
   -1
100
AcDbLine
 10
-164.93
 20
143.17
 11
-165.42
 21
143.38
  0
LINE
  5
139
100
AcDbEntity
  8
Profile
  6
CONTINUOUS
 62
  174
370
   -1
100
AcDbLine
 10
-164.93
 20
143.17
 11
-164.44
 21
143.3800000000001
  0
LINE
  5
13A
100
AcDbEntity
  8
Profile
  6
CONTINUOUS
 62
  174
370
   -1
100
AcDbLine
 10
-164.44
 20
143.3800000000001
 11
-164.23
 21
143.87
  0
LINE
  5
13B
100
AcDbEntity
  8
Profile
  6
CONTINUOUS
 62
  174
370
   -1
100
AcDbLine
 10
-164.23
 20
143.87
 11
-164.2299999999999
 21
145.47
  0
LINE
  5
13C
100
AcDbEntity
  8
Profile
  6
CONTINUOUS
 62
  174
370
   -1
100
AcDbLine
 10
-158.93
 20
145.47
 11
-164.2299999999999
 21
145.47
  0
LINE
  5
13D
100
AcDbEntity
  8
Profile
  6
CONTINUOUS
 62
  174
370
   -1
100
AcDbLine
 10
-158.93
 20
143.67
 11
-158.93
 21
145.47
  0
LINE
  5
13E
100
AcDbEntity
  8
Profile
  6
CONTINUOUS
 62
  174
370
   -1
100
AcDbLine
 10
-153.01
 20
143.67
 11
-158.93
 21
143.67
  0
LINE
  5
13F
100
AcDbEntity
  8
Profile
  6
CONTINUOUS
 62
  174
370
   -1
100
AcDbLine
 10
-153.01
 20
143.67
 11
-152.58
 21
143.85
  0
LINE
  5
140
100
AcDbEntity
  8
Profile
  6
CONTINUOUS
 62
  174
370
   -1
100
AcDbLine
 10
-152.58
 20
143.85
 11
-152.4
 21
144.2700000000001
  0
LINE
  5
141
100
AcDbEntity
  8
Profile
  6
CONTINUOUS
 62
  174
370
   -1
100
AcDbLine
 10
-154.83
 20
150.91
 11
-157.33
 21
152.82
  0
LINE
  5
142
100
AcDbEntity
  8
Profile
  6
CONTINUOUS
 62
  174
370
   -1
100
AcDbLine
 10
-157.33
 20
152.81
 11
-157.33
 21
159.03
  0
LINE
  5
143
100
AcDbEntity
  8
Profile
  6
CONTINUOUS
 62
  174
370
   -1
100
AcDbLine
 10
-157.33
 20
159.03
 11
-154.83
 21
160.94
  0
LINE
  5
144
100
AcDbEntity
  8
Profile
  6
CONTINUOUS
 62
  174
370
   -1
100
AcDbLine
 10
-154.83
 20
160.93
 11
-154.83
 21
162.67
  0
LINE
  5
145
100
AcDbEntity
  8
Profile
  6
CONTINUOUS
 62
  174
370
   -1
100
AcDbLine
 10
-152.41
 20
167.57
 11
-152.59
 21
167.99
  0
LINE
  5
146
100
AcDbEntity
  8
Profile
  6
CONTINUOUS
 62
  174
370
   -1
100
AcDbLine
 10
-152.58
 20
167.99
 11
-153
 21
168.17
  0
LINE
  5
147
100
AcDbEntity
  8
Profile
  6
CONTINUOUS
 62
  174
370
   -1
100
AcDbLine
 10
-153.01
 20
168.17
 11
-166.8399999999999
 21
168.17
  0
LINE
  5
148
100
AcDbEntity
  8
Profile
  6
CONTINUOUS
 62
  174
370
   -1
100
AcDbLine
 10
-166.83
 20
168.17
 11
-166.83
 21
169.67
  0
LINE
  5
149
100
AcDbEntity
  8
Profile
  6
CONTINUOUS
 62
  174
370
   -1
100
AcDbLine
 10
-166.83
 20
169.67
 11
-167.6299999999999
 21
169.67
  0
LINE
  5
14A
100
AcDbEntity
  8
Profile
  6
CONTINUOUS
 62
  174
370
   -1
100
AcDbLine
 10
-167.63
 20
168.17
 11
-167.6299999999999
 21
169.67
  0
LINE
  5
14B
100
AcDbEntity
  8
Profile
  6
CONTINUOUS
 62
  174
370
   -1
100
AcDbLine
 10
-167.63
 20
168.17
 11
-169.33
 21
168.17
  0
LINE
  5
14C
100
AcDbEntity
  8
Profile
  6
CONTINUOUS
 62
  174
370
   -1
100
AcDbLine
 10
-169.33
 20
168.17
 11
-169.63
 21
184.77
  0
LINE
  5
14D
100
AcDbEntity
  8
Profile
  6
CONTINUOUS
 62
  174
370
   -1
100
AcDbLine
 10
-167.93
 20
184.77
 11
-169.63
 21
184.77
  0
LINE
  5
14E
100
AcDbEntity
  8
Profile
  6
CONTINUOUS
 62
  174
370
   -1
100
AcDbLine
 10
-167.9299999999999
 20
182.77
 11
-167.93
 21
184.77
  0
LINE
  5
14F
100
AcDbEntity
  8
Profile
  6
CONTINUOUS
 62
  174
370
   -1
100
AcDbLine
 10
-167.13
 20
182.77
 11
-167.9299999999999
 21
182.77
  0
LINE
  5
150
100
AcDbEntity
  8
Profile
  6
CONTINUOUS
 62
  174
370
   -1
100
AcDbLine
 10
-167.13
 20
182.77
 11
-167.13
 21
184.7700000000001
  0
LINE
  5
151
100
AcDbEntity
  8
Profile
  6
CONTINUOUS
 62
  174
370
   -1
100
AcDbLine
 10
-166.63
 20
184.7700000000001
 11
-167.13
 21
184.7700000000001
  0
LINE
  5
152
100
AcDbEntity
  8
Profile
  6
CONTINUOUS
 62
  174
370
   -1
100
AcDbLine
 10
-166.63
 20
184.7700000000001
 11
-166.63
 21
186.47
  0
LINE
  5
153
100
AcDbEntity
  8
Profile
  6
CONTINUOUS
 62
  174
370
   -1
100
AcDbLine
 10
-166.63
 20
186.47
 11
-167.27
 21
187.1100000000001
  0
LINE
  5
154
100
AcDbEntity
  8
Profile
  6
CONTINUOUS
 62
  174
370
   -1
100
AcDbLine
 10
-167.63
 20
186.9700000000001
 11
-167.27
 21
187.1100000000001
  0
LINE
  5
155
100
AcDbEntity
  8
Profile
  6
CONTINUOUS
 62
  174
370
   -1
100
AcDbLine
 10
-167.63
 20
185.9700000000001
 11
-167.63
 21
186.9700000000001
  0
LINE
  5
156
100
AcDbEntity
  8
Profile
  6
CONTINUOUS
 62
  174
370
   -1
100
AcDbLine
 10
-167.63
 20
185.9700000000001
 11
-169.73
 21
185.97
  0
LINE
  5
157
100
AcDbEntity
  8
Profile
  6
CONTINUOUS
 62
  174
370
   -1
100
AcDbLine
 10
-169.73
 20
185.97
 11
-169.7299999999999
 21
193.97
  0
LINE
  5
158
100
AcDbEntity
  8
Profile
  6
CONTINUOUS
 62
  174
370
   -1
100
AcDbLine
 10
-167.63
 20
193.97
 11
-169.7299999999999
 21
193.97
  0
LINE
  5
159
100
AcDbEntity
  8
Profile
  6
CONTINUOUS
 62
  174
370
   -1
100
AcDbLine
 10
-167.63
 20
192.3700000000001
 11
-167.63
 21
193.97
  0
LINE
  5
15A
100
AcDbEntity
  8
Profile
  6
CONTINUOUS
 62
  174
370
   -1
100
AcDbLine
 10
-167.27
 20
192.23
 11
-167.63
 21
192.3700000000001
  0
LINE
  5
15B
100
AcDbEntity
  8
Profile
  6
CONTINUOUS
 62
  174
370
   -1
100
AcDbLine
 10
-167.27
 20
192.23
 11
-166.63
 21
192.87
  0
LINE
  5
15C
100
AcDbEntity
  8
Profile
  6
CONTINUOUS
 62
  174
370
   -1
100
AcDbLine
 10
-166.63
 20
192.87
 11
-166.63
 21
195.17
  0
LINE
  5
15D
100
AcDbEntity
  8
Profile
  6
CONTINUOUS
 62
  174
370
   -1
100
AcDbLine
 10
-166.63
 20
195.17
 11
-171.1299999999999
 21
195.17
  0
LINE
  5
15E
100
AcDbEntity
  8
Profile
  6
CONTINUOUS
 62
  174
370
   -1
100
AcDbLine
 10
-169.53
 20
156.97
 11
-169.53
 21
166.67
  0
LINE
  5
15F
100
AcDbEntity
  8
Profile
  6
CONTINUOUS
 62
  174
370
   -1
100
AcDbLine
 10
-164.23
 20
156.97
 11
-169.53
 21
156.97
  0
LINE
  5
160
100
AcDbEntity
  8
Profile
  6
CONTINUOUS
 62
  174
370
   -1
100
AcDbLine
 10
-164.23
 20
146.97
 11
-164.23
 21
156.97
  0
LINE
  5
161
100
AcDbEntity
  8
Profile
  6
CONTINUOUS
 62
  174
370
   -1
100
AcDbLine
 10
-158.93
 20
146.97
 11
-164.23
 21
146.97
  0
LINE
  5
162
100
AcDbEntity
  8
Profile
  6
CONTINUOUS
 62
  174
370
   -1
100
AcDbLine
 10
-158.93
 20
146.97
 11
-158.9299999999999
 21
166.67
  0
LINE
  5
163
100
AcDbEntity
  8
Profile
  6
CONTINUOUS
 62
  174
370
   -1
100
AcDbLine
 10
-158.9299999999999
 20
166.67
 11
-164.2299999999999
 21
166.67
  0
LINE
  5
164
100
AcDbEntity
  8
Profile
  6
CONTINUOUS
 62
  174
370
   -1
100
AcDbLine
 10
-164.23
 20
165.17
 11
-164.2299999999999
 21
166.67
  0
LINE
  5
165
100
AcDbEntity
  8
Profile
  6
CONTINUOUS
 62
  174
370
   -1
100
AcDbLine
 10
-164.23
 20
165.17
 11
-165.2299999999999
 21
165.17
  0
LINE
  5
166
100
AcDbEntity
  8
Profile
  6
CONTINUOUS
 62
  174
370
   -1
100
AcDbLine
 10
-165.2299999999999
 20
165.17
 11
-165.2299999999999
 21
166.67
  0
LINE
  5
167
100
AcDbEntity
  8
Profile
  6
CONTINUOUS
 62
  174
370
   -1
100
AcDbLine
 10
-165.2299999999999
 20
166.67
 11
-169.53
 21
166.67
  0
LINE
  5
168
100
AcDbEntity
  8
Profile
  6
CONTINUOUS
 62
  174
370
   -1
100
AcDbLine
 10
-152.41
 20
144.27
 11
-152.8899999999999
 21
145.43
  0
LINE
  5
169
100
AcDbEntity
  8
Profile
  6
CONTINUOUS
 62
  174
370
   -1
100
AcDbLine
 10
-152.8899999999999
 20
145.43
 11
-154.22
 21
146.76
  0
LINE
  5
16A
100
AcDbEntity
  8
Profile
  6
CONTINUOUS
 62
  174
370
   -1
100
AcDbLine
 10
-154.22
 20
146.76
 11
-155.01
 21
146.76
  0
LINE
  5
16B
100
AcDbEntity
  8
Profile
  6
CONTINUOUS
 62
  174
370
   -1
100
AcDbLine
 10
-155.02
 20
146.76
 11
-156.58
 21
145.86
  0
LINE
  5
16C
100
AcDbEntity
  8
Profile
  6
CONTINUOUS
 62
  174
370
   -1
100
AcDbLine
 10
-156.57
 20
145.86
 11
-157.32
 21
145.86
  0
LINE
  5
16D
100
AcDbEntity
  8
Profile
  6
CONTINUOUS
 62
  174
370
   -1
100
AcDbLine
 10
-157.32
 20
145.86
 11
-157.32
 21
150.0600000000001
  0
LINE
  5
16E
100
AcDbEntity
  8
Profile
  6
CONTINUOUS
 62
  174
370
   -1
100
AcDbLine
 10
-157.32
 20
150.0600000000001
 11
-156.57
 21
150.0600000000001
  0
LINE
  5
16F
100
AcDbEntity
  8
Profile
  6
CONTINUOUS
 62
  174
370
   -1
100
AcDbLine
 10
-156.57
 20
150.0600000000001
 11
-155.01
 21
149.16
  0
LINE
  5
170
100
AcDbEntity
  8
Profile
  6
CONTINUOUS
 62
  174
370
   -1
100
AcDbLine
 10
-155.02
 20
149.17
 11
-154.83
 21
149.17
  0
LINE
  5
171
100
AcDbEntity
  8
Profile
  6
CONTINUOUS
 62
  174
370
   -1
100
AcDbLine
 10
-154.83
 20
149.16
 11
-154.83
 21
150.91
  0
LINE
  5
172
100
AcDbEntity
  8
Profile
  6
CONTINUOUS
 62
  174
370
   -1
100
AcDbLine
 10
-152.41
 20
167.57
 11
-152.8999999999999
 21
166.39
  0
LINE
  5
173
100
AcDbEntity
  8
Profile
  6
CONTINUOUS
 62
  174
370
   -1
100
AcDbLine
 10
-152.8999999999999
 20
166.39
 11
-154.2299999999999
 21
165.06
  0
LINE
  5
174
100
AcDbEntity
  8
Profile
  6
CONTINUOUS
 62
  174
370
   -1
100
AcDbLine
 10
-154.2299999999999
 20
165.06
 11
-155.02
 21
165.06
  0
LINE
  5
175
100
AcDbEntity
  8
Profile
  6
CONTINUOUS
 62
  174
370
   -1
100
AcDbLine
 10
-155.02
 20
165.06
 11
-156.58
 21
165.96
  0
LINE
  5
176
100
AcDbEntity
  8
Profile
  6
CONTINUOUS
 62
  174
370
   -1
100
AcDbLine
 10
-156.58
 20
165.97
 11
-157.33
 21
165.97
  0
LINE
  5
177
100
AcDbEntity
  8
Profile
  6
CONTINUOUS
 62
  174
370
   -1
100
AcDbLine
 10
-157.32
 20
165.97
 11
-157.32
 21
161.77
  0
LINE
  5
178
100
AcDbEntity
  8
Profile
  6
CONTINUOUS
 62
  174
370
   -1
100
AcDbLine
 10
-157.32
 20
161.76
 11
-156.57
 21
161.76
  0
LINE
  5
179
100
AcDbEntity
  8
Profile
  6
CONTINUOUS
 62
  174
370
   -1
100
AcDbLine
 10
-156.57
 20
161.76
 11
-155.01
 21
162.66
  0
LINE
  5
17A
100
AcDbEntity
  8
Profile
  6
CONTINUOUS
 62
  174
370
   -1
100
AcDbLine
 10
-155.02
 20
162.67
 11
-154.83
 21
162.67
  0
LINE
  5
17B
100
AcDbEntity
  8
Profile
  6
CONTINUOUS
 62
  174
370
   -1
100
AcDbLine
 10
-119.82
 20
162.67
 11
-119.63
 21
162.67
  0
LINE
  5
17C
100
AcDbEntity
  8
Profile
  6
CONTINUOUS
 62
  174
370
   -1
100
AcDbLine
 10
-119.63
 20
162.67
 11
-118.07
 21
161.77
  0
LINE
  5
17D
100
AcDbEntity
  8
Profile
  6
CONTINUOUS
 62
  174
370
   -1
100
AcDbLine
 10
-118.0699999999999
 20
161.76
 11
-117.32
 21
161.76
  0
LINE
  5
17E
100
AcDbEntity
  8
Profile
  6
CONTINUOUS
 62
  174
370
   -1
100
AcDbLine
 10
-117.32
 20
161.76
 11
-117.32
 21
165.96
  0
LINE
  5
17F
100
AcDbEntity
  8
Profile
  6
CONTINUOUS
 62
  174
370
   -1
100
AcDbLine
 10
-117.32
 20
165.97
 11
-118.0699999999999
 21
165.97
  0
LINE
  5
180
100
AcDbEntity
  8
Profile
  6
CONTINUOUS
 62
  174
370
   -1
100
AcDbLine
 10
-118.08
 20
165.9600000000001
 11
-119.64
 21
165.0600000000001
  0
LINE
  5
181
100
AcDbEntity
  8
Profile
  6
CONTINUOUS
 62
  174
370
   -1
100
AcDbLine
 10
-119.63
 20
165.0600000000001
 11
-120.42
 21
165.06
  0
LINE
  5
182
100
AcDbEntity
  8
Profile
  6
CONTINUOUS
 62
  174
370
   -1
100
AcDbLine
 10
-120.42
 20
165.06
 11
-121.77
 21
166.4
  0
LINE
  5
183
100
AcDbEntity
  8
Profile
  6
CONTINUOUS
 62
  174
370
   -1
100
AcDbLine
 10
-121.77
 20
166.41
 11
-122.2499999999999
 21
167.57
  0
LINE
  5
184
100
AcDbEntity
  8
Profile
  6
CONTINUOUS
 62
  174
370
   -1
100
AcDbLine
 10
-122.25
 20
144.27
 11
-121.78
 21
145.41
  0
LINE
  5
185
100
AcDbEntity
  8
Profile
  6
CONTINUOUS
 62
  174
370
   -1
100
AcDbLine
 10
-121.78
 20
145.41
 11
-120.43
 21
146.76
  0
LINE
  5
186
100
AcDbEntity
  8
Profile
  6
CONTINUOUS
 62
  174
370
   -1
100
AcDbLine
 10
-120.42
 20
146.7700000000001
 11
-119.63
 21
146.77
  0
LINE
  5
187
100
AcDbEntity
  8
Profile
  6
CONTINUOUS
 62
  174
370
   -1
100
AcDbLine
 10
-119.63
 20
146.77
 11
-118.0699999999999
 21
145.87
  0
LINE
  5
188
100
AcDbEntity
  8
Profile
  6
CONTINUOUS
 62
  174
370
   -1
100
AcDbLine
 10
-118.0699999999999
 20
145.87
 11
-117.32
 21
145.87
  0
LINE
  5
189
100
AcDbEntity
  8
Profile
  6
CONTINUOUS
 62
  174
370
   -1
100
AcDbLine
 10
-117.32
 20
145.86
 11
-117.32
 21
150.0600000000001
  0
LINE
  5
18A
100
AcDbEntity
  8
Profile
  6
CONTINUOUS
 62
  174
370
   -1
100
AcDbLine
 10
-117.32
 20
150.07
 11
-118.07
 21
150.07
  0
LINE
  5
18B
100
AcDbEntity
  8
Profile
  6
CONTINUOUS
 62
  174
370
   -1
100
AcDbLine
 10
-118.07
 20
150.07
 11
-119.63
 21
149.17
  0
LINE
  5
18C
100
AcDbEntity
  8
Profile
  6
CONTINUOUS
 62
  174
370
   -1
100
AcDbLine
 10
-119.63
 20
149.17
 11
-119.82
 21
149.17
  0
ENDSEC
  0
SECTION
  2
OBJECTS
  0
DICTIONARY
  5
C
330
0
100
AcDbDictionary
281
    1
  3
ACAD_GROUP
350
D
  0
DICTIONARY
  5
D
330
C
100
AcDbDictionary
281
    1
  0
PLOTSETTINGS
  5
18D
100
AcDbPlotSettings
  6
1x1
 40
0
 41
0
 42
0
 43
0
  0
ENDSEC
  0
EOF
