999
dxfrw 0.6.3
  0
SECTION
  2
HEADER
  9
$ACADVER
  1
AC1021
  9
$DWGCODEPAGE
  3
ANSI_1254
  9
$INSBASE
 10
0
 20
0
 30
0
  9
$EXTMIN
 10
0.01133631691037557
 20
-1.116329251260595e-13
 30
0
  9
$EXTMAX
 10
64.51171431691048
 20
88.99982000000008
 30
0
  9
$LIMMIN
 10
-70.500382
 20
-0.00018
  9
$LIMMAX
 10
0
 20
88.99981999999999
  9
$ORTHOMODE
 70
    0
  9
$REGENMODE
 70
    1
  9
$FILLMODE
 70
    1
  9
$QTEXTMODE
 70
    0
  9
$MIRRTEXT
 70
    0
  9
$LTSCALE
 40
1
  9
$ATTMODE
 70
    1
  9
$TEXTSIZE
 40
0.2
  9
$TRACEWID
 40
0.05
  9
$TEXTSTYLE
  7
STANDARD
  9
$CLAYER
  8
0
  9
$CELTYPE
  6
ByBlock
  9
$CECOLOR
 62
  256
  9
$CELTSCALE
 40
1
  9
$DISPSILH
 70
    0
  9
$DIMSCALE
 40
1
  9
$DIMASZ
 40
0.18
  9
$DIMEXO
 40
0.0625
  9
$DIMDLI
 40
0.38
  9
$DIMRND
 40
0
  9
$DIMDLE
 40
0
  9
$DIMEXE
 40
0.18
  9
$DIMTP
 40
0
  9
$DIMTM
 40
0
  9
$DIMTXT
 40
0.18
  9
$DIMCEN
 40
0.09
  9
$DIMTSZ
 40
0
  9
$DIMTOL
 70
    0
  9
$DIMLIM
 70
    0
  9
$DIMTIH
 70
    1
  9
$DIMTOH
 70
    1
  9
$DIMSE1
 70
    0
  9
$DIMSE2
 70
    0
  9
$DIMTAD
 70
    0
  9
$DIMZIN
 70
    0
  9
$DIMBLK
  1

  9
$DIMASO
 70
    1
  9
$DIMSHO
 70
    1
  9
$DIMPOST
  1

  9
$DIMAPOST
  1

  9
$DIMALT
 70
    0
  9
$DIMALTD
 70
    2
  9
$DIMALTF
 40
25.4
  9
$DIMLFAC
 40
1
  9
$DIMTOFL
 70
    0
  9
$DIMTVP
 40
0
  9
$DIMTIX
 70
    0
  9
$DIMSOXD
 70
    0
  9
$DIMSAH
 70
    0
  9
$DIMBLK1
  1

  9
$DIMBLK2
  1

  9
$DIMSTYLE
  2
ORGADATA
  9
$DIMCLRD
 70
    0
  9
$DIMCLRE
 70
    0
  9
$DIMCLRT
 70
    0
  9
$DIMTFAC
 40
1
  9
$DIMGAP
 40
0.09
  9
$DIMJUST
 70
    0
  9
$DIMSD1
 70
    0
  9
$DIMSD2
 70
    0
  9
$DIMTOLJ
 70
    1
  9
$DIMTZIN
 70
    0
  9
$DIMALTZ
 70
    0
  9
$DIMALTTZ
 70
    0
  9
$DIMUPT
 70
    0
  9
$DIMDEC
 70
    4
  9
$DIMTDEC
 70
    4
  9
$DIMALTU
 70
    2
  9
$DIMALTTD
 70
    2
  9
$DIMTXSTY
  7
STANDARD
  9
$DIMAUNIT
 70
    0
  9
$DIMADEC
 70
    0
  9
$DIMALTRND
 40
0
  9
$DIMAZIN
 70
    0
  9
$DIMDSEP
 70
   46
  9
$DIMATFIT
 70
    3
  9
$DIMFRAC
 70
    0
  9
$DIMLDRBLK
  1

  9
$DIMLUNIT
 70
    2
  9
$DIMLWD
 70
   -2
  9
$DIMLWE
 70
   -2
  9
$DIMTMOVE
 70
    2
  9
$DIMFXL
 40
1
  9
$DIMFXLON
 70
    0
  9
$DIMJOGANG
 40
0.7853981633974483
  9
$DIMTFILL
 70
    0
  9
$DIMTFILLCLR
 70
    0
  9
$DIMARCSYM
 70
    0
  9
$DIMLTYPE
  6

  9
$DIMLTEX1
  6

  9
$DIMLTEX2
  6

  9
$LUNITS
 70
    2
  9
$LUPREC
 70
    4
  9
$SKETCHINC
 40
0.1
  9
$FILLETRAD
 40
0.5
  9
$AUNITS
 70
    0
  9
$AUPREC
 70
    0
  9
$MENU
  1
.
  9
$ELEVATION
 40
0
  9
$PELEVATION
 40
0
  9
$THICKNESS
 40
0
  9
$LIMCHECK
 70
    0
  9
$CHAMFERA
 40
0
  9
$CHAMFERB
 40
0
  9
$CHAMFERC
 40
0
  9
$CHAMFERD
 40
0
  9
$SKPOLY
 70
    0
  9
$USRTIMER
 70
    1
  9
$ANGBASE
 50
0
  9
$ANGDIR
 70
    0
  9
$PDMODE
 70
    0
  9
$PDSIZE
 40
0
  9
$PLINEWID
 40
0
  9
$SPLFRAME
 70
    0
  9
$SPLINETYPE
 70
    6
  9
$SPLINESEGS
 70
    8
  9
$HANDSEED
  5
20000
  9
$SURFTAB1
 70
    6
  9
$SURFTAB2
 70
    6
  9
$SURFTYPE
 70
    6
  9
$SURFU
 70
    6
  9
$SURFV
 70
    6
  9
$UCSBASE
  2

  9
$UCSNAME
  2

  9
$UCSORG
 10
0
 20
0
 30
0
  9
$UCSXDIR
 10
1
 20
0
 30
0
  9
$UCSYDIR
 10
0
 20
1
 30
0
  9
$UCSORTHOREF
  2

  9
$UCSORTHOVIEW
 70
    0
  9
$UCSORGTOP
 10
0
 20
0
 30
0
  9
$UCSORGBOTTOM
 10
0
 20
0
 30
0
  9
$UCSORGLEFT
 10
0
 20
0
 30
0
  9
$UCSORGRIGHT
 10
0
 20
0
 30
0
  9
$UCSORGFRONT
 10
0
 20
0
 30
0
  9
$UCSORGBACK
 10
0
 20
0
 30
0
  9
$PUCSBASE
  2

  9
$PUCSNAME
  2

  9
$PUCSORG
 10
0
 20
0
 30
0
  9
$PUCSXDIR
 10
1
 20
0
 30
0
  9
$PUCSYDIR
 10
0
 20
1
 30
0
  9
$PUCSORTHOREF
  2

  9
$PUCSORTHOVIEW
 70
    0
  9
$PUCSORGTOP
 10
0
 20
0
 30
0
  9
$PUCSORGBOTTOM
 10
0
 20
0
 30
0
  9
$PUCSORGLEFT
 10
0
 20
0
 30
0
  9
$PUCSORGRIGHT
 10
0
 20
0
 30
0
  9
$PUCSORGFRONT
 10
0
 20
0
 30
0
  9
$PUCSORGBACK
 10
0
 20
0
 30
0
  9
$USERI1
 70
    0
  9
$USERI2
 70
    0
  9
$USERI3
 70
    0
  9
$USERI4
 70
    0
  9
$USERI5
 70
    0
  9
$USERR1
 40
0
  9
$USERR2
 40
0
  9
$USERR3
 40
0
  9
$USERR4
 40
0
  9
$USERR5
 40
0
  9
$WORLDVIEW
 70
    0
  9
$SHADEDGE
 70
    3
  9
$SHADEDIF
 70
   70
  9
$TILEMODE
 70
    1
  9
$MAXACTVP
 70
   64
  9
$PINSBASE
 10
0
 20
0
 30
0
  9
$PLIMCHECK
 70
    0
  9
$PEXTMIN
 10
1e+20
 20
1e+20
 30
1e+20
  9
$PEXTMAX
 10
-1e+20
 20
-1e+20
 30
-1e+20
  9
$GRIDMODE
 70
    1
  9
$SNAPSTYLE
 70
    0
  9
$PLIMMIN
 10
0
 20
0
  9
$PLIMMAX
 10
12
 20
9
  9
$UNITMODE
 70
    0
  9
$VISRETAIN
 70
    1
  9
$PLINEGEN
 70
    0
  9
$PSLTSCALE
 70
    1
  9
$TREEDEPTH
 70
 3020
  9
$CMLSTYLE
  2
Standard
  9
$CMLJUST
 70
    0
  9
$CMLSCALE
 40
1
  9
$PROXYGRAPHICS
 70
    1
  9
$MEASUREMENT
 70
    1
  9
$CELWEIGHT
370
   -1
  9
$ENDCAPS
280
    0
  9
$JOINSTYLE
280
    0
  9
$LWDISPLAY
290
    0
  9
$INSUNITS
 70
    0
  9
$HYPERLINKBASE
  1

  9
$STYLESHEET
  1

  9
$XEDIT
290
    1
  9
$CEPSNTYPE
380
    0
  9
$PSTYLEMODE
290
    1
  9
$EXTNAMES
290
    1
  9
$PSVPSCALE
 40
0
  9
$OLESTARTUP
290
    0
  9
$SORTENTS
280
  127
  9
$INDEXCTL
280
    0
  9
$HIDETEXT
280
    1
  9
$XCLIPFRAME
290
    0
  9
$HALOGAP
280
    0
  9
$OBSCOLOR
 70
  257
  9
$OBSLTYPE
280
    0
  9
$INTERSECTIONDISPLAY
280
    0
  9
$INTERSECTIONCOLOR
 70
  257
  9
$DIMASSOC
280
    2
  9
$PROJECTNAME
  1

  9
$CAMERADISPLAY
290
    0
  9
$LENSLENGTH
 40
50
  9
$CAMERAHEIGHT
 40
0
  9
$STEPSPERSEC
 40
2
  9
$STEPSIZE
 40
6
  9
$3DDWFPREC
 40
2
  9
$PSOLWIDTH
 40
0.25
  9
$PSOLHEIGHT
 40
4
  9
$LOFTANG1
 40
1.570796326794896
  9
$LOFTANG2
 40
1.570796326794896
  9
$LOFTMAG1
 40
0
  9
$LOFTMAG2
 40
0
  9
$LOFTPARAM
 70
    7
  9
$LOFTNORMALS
280
    1
  9
$LATITUDE
 40
37.795
  9
$LONGITUDE
 40
-122.394
  9
$NORTHDIRECTION
 40
0
  9
$TIMEZONE
 70
-8000
  9
$LIGHTGLYPHDISPLAY
280
    1
  9
$TILEMODELIGHTSYNCH
280
    1
  9
$SOLIDHIST
280
    0
  9
$SHOWHIST
280
    1
  9
$DWFFRAME
280
    2
  9
$DGNFRAME
280
    0
  9
$REALWORLDSCALE
290
    1
  9
$INTERFERECOLOR
 62
    1
  9
$CSHADOW
280
    0
  9
$SHADOWPLANELOCATION
 40
0
  0
ENDSEC
  0
SECTION
  2
CLASSES
  0
ENDSEC
  0
SECTION
  2
TABLES
  0
TABLE
  2
VPORT
  5
8
330
0
100
AcDbSymbolTable
 70
    1
  0
VPORT
  5
31
330
2
100
AcDbSymbolTableRecord
100
AcDbViewportTableRecord
  2
*ACTIVE
 70
    0
 10
0
 20
0
 11
1
 21
1
 12
60.29685090365704
 22
43.99667127792615
 13
0
 23
0
 14
10
 24
10
 15
10
 25
10
 16
0
 26
0
 36
1
 17
0
 27
0
 37
0
 40
113.548708918227
 41
1.924574209245742
 42
50
 43
0
 44
0
 50
0
 51
0
 71
    0
 72
  100
 73
    1
 74
    3
 75
    0
 76
    1
 77
    0
 78
    0
281
    0
 65
    1
110
0
120
0
130
0
111
1
121
0
131
0
112
0
122
1
132
0
 79
    0
146
0
348
10020
 60
    7
 61
    5
292
1
282
    1
141
0
142
0
 63
  250
421
3358443
  0
ENDTAB
  0
TABLE
  2
LTYPE
  5
5
330
0
100
AcDbSymbolTable
 70
    4
  0
LTYPE
  5
14
330
5
100
AcDbSymbolTableRecord
100
AcDbLinetypeTableRecord
  2
ByBlock
 70
    0
  3

 72
   65
 73
    0
 40
0
  0
LTYPE
  5
15
330
5
100
AcDbSymbolTableRecord
100
AcDbLinetypeTableRecord
  2
ByLayer
 70
    0
  3

 72
   65
 73
    0
 40
0
  0
LTYPE
  5
16
330
5
100
AcDbSymbolTableRecord
100
AcDbLinetypeTableRecord
  2
Continuous
 70
    0
  3
Solid line
 72
   65
 73
    0
 40
0
  0
LTYPE
  5
32
330
5
100
AcDbSymbolTableRecord
100
AcDbLinetypeTableRecord
  2
DOT
 70
    0
  3
Dot . . . . . . . . . . . . . . . . . . . . . .
 72
   65
 73
    2
 40
6.35
 49
0
 74
    0
 49
-6.35
 74
    0
  0
LTYPE
  5
33
330
5
100
AcDbSymbolTableRecord
100
AcDbLinetypeTableRecord
  2
DOTTINY
 70
    0
  3
Dot (.15x) .....................................
 72
   65
 73
    2
 40
0.9525
 49
0
 74
    0
 49
-0.9525
 74
    0
  0
LTYPE
  5
34
330
5
100
AcDbSymbolTableRecord
100
AcDbLinetypeTableRecord
  2
DOT2
 70
    0
  3
Dot (.5x) .....................................
 72
   65
 73
    2
 40
3.175
 49
0
 74
    0
 49
-3.175
 74
    0
  0
LTYPE
  5
35
330
5
100
AcDbSymbolTableRecord
100
AcDbLinetypeTableRecord
  2
DOTX2
 70
    0
  3
Dot (2x) .  .  .  .  .  .  .  .  .  .  .  .  .
 72
   65
 73
    2
 40
12.7
 49
0
 74
    0
 49
-12.7
 74
    0
  0
LTYPE
  5
36
330
5
100
AcDbSymbolTableRecord
100
AcDbLinetypeTableRecord
  2
DASHED
 70
    0
  3
Dashed _ _ _ _ _ _ _ _ _ _ _ _ _ _ _ _ _
 72
   65
 73
    2
 40
19.05
 49
12.7
 74
    0
 49
-6.35
 74
    0
  0
LTYPE
  5
37
330
5
100
AcDbSymbolTableRecord
100
AcDbLinetypeTableRecord
  2
DASHEDTINY
 70
    0
  3
Dashed (.15x) _ _ _ _ _ _ _ _ _ _ _ _ _ _ _ _ _
 72
   65
 73
    2
 40
2.8575
 49
1.905
 74
    0
 49
-0.9525
 74
    0
  0
LTYPE
  5
38
330
5
100
AcDbSymbolTableRecord
100
AcDbLinetypeTableRecord
  2
DASHED2
 70
    0
  3
Dashed (.5x) _ _ _ _ _ _ _ _ _ _ _ _ _ _ _ _ _
 72
   65
 73
    2
 40
9.524999999999999
 49
6.35
 74
    0
 49
-3.175
 74
    0
  0
LTYPE
  5
39
330
5
100
AcDbSymbolTableRecord
100
AcDbLinetypeTableRecord
  2
DASHEDX2
 70
    0
  3
Dashed (2x) ____  ____  ____  ____  ____  ___
 72
   65
 73
    2
 40
38.09999999999999
 49
25.4
 74
    0
 49
-12.7
 74
    0
  0
LTYPE
  5
3A
330
5
100
AcDbSymbolTableRecord
100
AcDbLinetypeTableRecord
  2
DASHDOT
 70
    0
  3
Dash dot __ . __ . __ . __ . __ . __ . __ . __
 72
   65
 73
    4
 40
25.4
 49
12.7
 74
    0
 49
-6.35
 74
    0
 49
0
 74
    0
 49
-6.35
 74
    0
  0
LTYPE
  5
3B
330
5
100
AcDbSymbolTableRecord
100
AcDbLinetypeTableRecord
  2
DASHDOTTINY
 70
    0
  3
Dash dot (.15x) _._._._._._._._._._._._._._._.
 72
   65
 73
    4
 40
3.81
 49
1.905
 74
    0
 49
-0.9525
 74
    0
 49
0
 74
    0
 49
-0.9525
 74
    0
  0
LTYPE
  5
3C
330
5
100
AcDbSymbolTableRecord
100
AcDbLinetypeTableRecord
  2
DASHDOT2
 70
    0
  3
Dash dot (.5x) _._._._._._._._._._._._._._._.
 72
   65
 73
    4
 40
12.7
 49
6.35
 74
    0
 49
-3.175
 74
    0
 49
0
 74
    0
 49
-3.175
 74
    0
  0
LTYPE
  5
3D
330
5
100
AcDbSymbolTableRecord
100
AcDbLinetypeTableRecord
  2
DASHDOTX2
 70
    0
  3
Dash dot (2x) ____  .  ____  .  ____  .  ___
 72
   65
 73
    4
 40
50.8
 49
25.4
 74
    0
 49
-12.7
 74
    0
 49
0
 74
    0
 49
-12.7
 74
    0
  0
LTYPE
  5
3E
330
5
100
AcDbSymbolTableRecord
100
AcDbLinetypeTableRecord
  2
DIVIDE
 70
    0
  3
Divide ____ . . ____ . . ____ . . ____ . . ____
 72
   65
 73
    6
 40
31.75
 49
12.7
 74
    0
 49
-6.35
 74
    0
 49
0
 74
    0
 49
-6.35
 74
    0
 49
0
 74
    0
 49
-6.35
 74
    0
  0
LTYPE
  5
3F
330
5
100
AcDbSymbolTableRecord
100
AcDbLinetypeTableRecord
  2
DIVIDETINY
 70
    0
  3
Divide (.15x) __..__..__..__..__..__..__..__.._
 72
   65
 73
    6
 40
4.7625
 49
1.905
 74
    0
 49
-0.9525
 74
    0
 49
0
 74
    0
 49
-0.9525
 74
    0
 49
0
 74
    0
 49
-0.9525
 74
    0
  0
LTYPE
  5
40
330
5
100
AcDbSymbolTableRecord
100
AcDbLinetypeTableRecord
  2
DIVIDE2
 70
    0
  3
Divide (.5x) __..__..__..__..__..__..__..__.._
 72
   65
 73
    6
 40
15.875
 49
6.35
 74
    0
 49
-3.175
 74
    0
 49
0
 74
    0
 49
-3.175
 74
    0
 49
0
 74
    0
 49
-3.175
 74
    0
  0
LTYPE
  5
41
330
5
100
AcDbSymbolTableRecord
100
AcDbLinetypeTableRecord
  2
DIVIDEX2
 70
    0
  3
Divide (2x) ________  .  .  ________  .  .  _
 72
   65
 73
    6
 40
63.5
 49
25.4
 74
    0
 49
-12.7
 74
    0
 49
0
 74
    0
 49
-12.7
 74
    0
 49
0
 74
    0
 49
-12.7
 74
    0
  0
LTYPE
  5
42
330
5
100
AcDbSymbolTableRecord
100
AcDbLinetypeTableRecord
  2
BORDER
 70
    0
  3
Border __ __ . __ __ . __ __ . __ __ . __ __ .
 72
   65
 73
    6
 40
44.45
 49
12.7
 74
    0
 49
-6.35
 74
    0
 49
12.7
 74
    0
 49
-6.35
 74
    0
 49
0
 74
    0
 49
-6.35
 74
    0
  0
LTYPE
  5
43
330
5
100
AcDbSymbolTableRecord
100
AcDbLinetypeTableRecord
  2
BORDERTINY
 70
    0
  3
Border (.15x) __.__.__.__.__.__.__.__.__.__.__.
 72
   65
 73
    6
 40
6.6675
 49
1.905
 74
    0
 49
-0.9525
 74
    0
 49
1.905
 74
    0
 49
-0.9525
 74
    0
 49
0
 74
    0
 49
-0.9525
 74
    0
  0
LTYPE
  5
44
330
5
100
AcDbSymbolTableRecord
100
AcDbLinetypeTableRecord
  2
BORDER2
 70
    0
  3
Border (.5x) __.__.__.__.__.__.__.__.__.__.__.
 72
   65
 73
    6
 40
22.225
 49
6.35
 74
    0
 49
-3.175
 74
    0
 49
6.35
 74
    0
 49
-3.175
 74
    0
 49
0
 74
    0
 49
-3.175
 74
    0
  0
LTYPE
  5
45
330
5
100
AcDbSymbolTableRecord
100
AcDbLinetypeTableRecord
  2
BORDERX2
 70
    0
  3
Border (2x) ____  ____  .  ____  ____  .  ___
 72
   65
 73
    6
 40
88.89999999999999
 49
25.4
 74
    0
 49
-12.7
 74
    0
 49
25.4
 74
    0
 49
-12.7
 74
    0
 49
0
 74
    0
 49
-12.7
 74
    0
  0
LTYPE
  5
46
330
5
100
AcDbSymbolTableRecord
100
AcDbLinetypeTableRecord
  2
CENTER
 70
    0
  3
Center ____ _ ____ _ ____ _ ____ _ ____ _ ____
 72
   65
 73
    4
 40
50.8
 49
31.75
 74
    0
 49
-6.35
 74
    0
 49
6.35
 74
    0
 49
-6.35
 74
    0
  0
LTYPE
  5
47
330
5
100
AcDbSymbolTableRecord
100
AcDbLinetypeTableRecord
  2
CENTERTINY
 70
    0
  3
Center (.15x) ___ _ ___ _ ___ _ ___ _ ___ _ ___
 72
   65
 73
    4
 40
7.62
 49
4.7625
 74
    0
 49
-0.9525
 74
    0
 49
0.9525
 74
    0
 49
-0.9525
 74
    0
  0
LTYPE
  5
48
330
5
100
AcDbSymbolTableRecord
100
AcDbLinetypeTableRecord
  2
CENTER2
 70
    0
  3
Center (.5x) ___ _ ___ _ ___ _ ___ _ ___ _ ___
 72
   65
 73
    4
 40
28.575
 49
19.05
 74
    0
 49
-3.175
 74
    0
 49
3.175
 74
    0
 49
-3.175
 74
    0
  0
LTYPE
  5
49
330
5
100
AcDbSymbolTableRecord
100
AcDbLinetypeTableRecord
  2
CENTERX2
 70
    0
  3
Center (2x) ________  __  ________  __  _____
 72
   65
 73
    4
 40
101.6
 49
63.5
 74
    0
 49
-12.7
 74
    0
 49
12.7
 74
    0
 49
-12.7
 74
    0
  0
ENDTAB
  0
TABLE
  2
LAYER
  5
2
330
0
100
AcDbSymbolTable
 70
    1
  0
LAYER
  5
10
330
2
100
AcDbSymbolTableRecord
100
AcDbLayerTableRecord
  2
0
 70
    0
 62
    7
  6
CONTINUOUS
370
   -3
390
F
  0
ENDTAB
  0
TABLE
  2
STYLE
  5
3
330
0
100
AcDbSymbolTable
 70
    3
  0
STYLE
  5
4A
330
2
100
AcDbSymbolTableRecord
100
AcDbTextStyleTableRecord
  2
ORGADATA
 70
    0
 40
0
 41
1
 50
0
 71
    0
 42
1
  3
ORGADATA
  4

  0
STYLE
  5
4B
330
2
100
AcDbSymbolTableRecord
100
AcDbTextStyleTableRecord
  2
Standard
 70
    0
 40
0
 41
1
 50
0
 71
    0
 42
1
  3
txt
  4

  0
ENDTAB
  0
TABLE
  2
VIEW
  5
6
330
0
100
AcDbSymbolTable
 70
    0
  0
ENDTAB
  0
TABLE
  2
UCS
  5
7
330
0
100
AcDbSymbolTable
 70
    0
  0
ENDTAB
  0
TABLE
  2
APPID
  5
9
330
0
100
AcDbSymbolTable
 70
    1
  0
APPID
  5
12
330
9
100
AcDbSymbolTableRecord
100
AcDbRegAppTableRecord
  2
ACAD
 70
    0
  0
APPID
  5
4C
330
9
100
AcDbSymbolTableRecord
100
AcDbRegAppTableRecord
  2
LibreCad
 70
    0
  0
ENDTAB
  0
TABLE
  2
DIMSTYLE
  5
A
330
0
100
AcDbSymbolTable
 70
    1
100
AcDbDimStyleTable
 71
    1
  0
DIMSTYLE
105
4D
330
A
100
AcDbSymbolTableRecord
100
AcDbDimStyleTableRecord
  2
Standard
 70
    0
 40
1
 41
0.18
 42
0.0625
 43
0.38
 44
0.18
 45
0
 46
0
 47
0
 48
0
 49
1
140
0.18
141
0.09
142
0
143
25.4
144
1
145
0
146
1
147
0.09
148
0
 71
    0
 72
    0
 73
    1
 74
    1
 75
    0
 76
    0
 77
    0
 78
    0
 79
    0
170
    0
171
    2
172
    0
173
    0
174
    0
175
    0
176
    0
177
    0
178
    0
179
    0
271
    4
272
    4
273
    2
274
    2
275
    0
276
    0
277
    2
278
   46
279
    0
280
    0
281
    0
282
    0
283
    1
284
    0
285
    0
286
    0
288
    0
289
    3
340
STANDARD
341

371
   -2
372
   -2
  0
ENDTAB
  0
TABLE
  2
BLOCK_RECORD
  5
1
330
0
100
AcDbSymbolTable
 70
    2
  0
BLOCK_RECORD
  5
1F
330
1
100
AcDbSymbolTableRecord
100
AcDbBlockTableRecord
  2
*Model_Space
 70
    0
280
    1
281
    0
  0
BLOCK_RECORD
  5
1E
330
1
100
AcDbSymbolTableRecord
100
AcDbBlockTableRecord
  2
*Paper_Space
 70
    0
280
    1
281
    0
  0
ENDTAB
  0
ENDSEC
  0
SECTION
  2
BLOCKS
  0
BLOCK
  5
20
330
1F
100
AcDbEntity
  8
0
100
AcDbBlockBegin
  2
*Model_Space
 70
    0
 10
0
 20
0
 30
0
  3
*Model_Space
  1

  0
ENDBLK
  5
21
330
1F
100
AcDbEntity
  8
0
100
AcDbBlockEnd
  0
BLOCK
  5
1C
330
1B
100
AcDbEntity
  8
0
100
AcDbBlockBegin
  2
*Paper_Space
 70
    0
 10
0
 20
0
 30
0
  3
*Paper_Space
  1

  0
ENDBLK
  5
1D
330
1F
100
AcDbEntity
  8
0
100
AcDbBlockEnd
  0
ENDSEC
  0
SECTION
  2
ENTITIES
  0
LINE
  5
4E
100
AcDbEntity
  8
0
  6
CONTINUOUS
 62
    2
370
   -1
100
AcDbLine
 10
12.02496731691048
 20
60.47246499999999
 11
12.02873331691048
 21
60.470291
  0
LINE
  5
4F
100
AcDbEntity
  8
0
  6
CONTINUOUS
 62
    2
370
   -1
100
AcDbLine
 10
12.02873331691048
 20
28.529365
 11
12.02494731691048
 21
28.527179
  0
LWPOLYLINE
  5
50
100
AcDbEntity
  8
0
  6
CONTINUOUS
 62
    0
370
   -1
100
AcDbPolyline
 90
   34
 70
    1
 43
0
 10
63.01171431691049
 20
28.39982
 10
63.01171431691049
 20
43.599832
 10
60.01171431691048
 20
43.599832
 10
60.01171431691048
 20
44.499826
 10
60.01171431691048
 20
45.39982
 10
63.01171431691049
 20
45.39982
 10
63.01171431691049
 20
60.599832
 10
43.97473331691048
 20
60.599832
 10
43.02215131691048
 20
62.24979600000001
 42
-0.6283409999999998
 10
43.53350431691048
 20
62.999796
 10
43.61187331691048
 20
65.599833
 10
40.41167731691048
 20
65.599833
 10
40.41167731691048
 20
62.999796
 42
0.3460770000000002
 10
41.00142831691048
 20
62.24979499999999
 10
40.13533831691048
 20
60.749791
 42
-0.7338039999999932
 10
39.01177531691049
 20
60.99979600000001
 10
39.01177531691049
 20
65.59983200000001
 10
34.00982231691049
 20
65.59983200000001
 10
34.00982231691049
 20
45.399836
 10
37.00982231691049
 20
45.39982
 10
37.00982231691049
 20
44.499826
 10
37.00982231691049
 20
43.599832
 10
34.00982231691049
 20
43.599816
 10
34.00982231691049
 20
23.39982
 10
39.01177531691049
 20
23.39982
 10
39.01177531691049
 20
27.999856
 42
-0.7338040000000047
 10
40.13533831691048
 20
28.24986
 10
41.00142831691048
 20
26.749856
 42
0.3460770000000011
 10
40.41167731691048
 20
25.999856
 10
40.41167731691048
 20
23.399819
 10
43.61187331691048
 20
23.399819
 10
43.53350431691048
 20
25.999856
 42
-0.6283409999999969
 10
43.02215131691048
 20
26.749856
 10
43.97473331691048
 20
28.39982
  0
LWPOLYLINE
  5
51
100
AcDbEntity
  8
0
  6
CONTINUOUS
 62
    0
370
   -1
100
AcDbPolyline
 90
   80
 70
    1
 43
0
 10
64.51171431691048
 20
66.99985700000001
 10
64.51171431691048
 20
44.499857
 10
64.51171431691048
 20
21.999795
 10
61.41363131691048
 20
21.999795
 10
61.01171431691049
 20
23.499795
 10
61.01171431691049
 20
23.999795
 10
63.01171431691049
 20
23.999795
 10
63.01171431691049
 20
26.999795
 10
45.01177531691048
 20
26.999795
 10
45.01177531691048
 20
23.999795
 10
47.00985231691048
 20
23.999795
 10
47.00985231691048
 20
23.499795
 10
46.60787531691048
 20
21.999795
 10
42.31170231691048
 20
21.999795
 10
42.01177531691048
 20
22.299722
 10
41.71172631691049
 20
21.999795
 10
31.01736031691049
 20
21.999795
 42
-0.3808199999999993
 10
30.45980431691049
 20
22.496484
 10
30.45980431691049
 20
23.396508
 10
31.75982231691049
 20
23.396508
 42
0.414213999999998
 10
32.25982231691049
 20
23.896508
 10
32.25982231691049
 20
25.999795
 10
30.70608131691049
 20
26.123269
 10
30.66115931691049
 20
25.99981
 10
28.17959131691048
 20
25.999826
 42
-0.6067840000000021
 10
27.92641731691049
 20
26.486123
 10
29.64525931691048
 20
28.421365
 10
30.19816731691049
 20
28.679172
 42
-0.5764679999999947
 10
30.49363831691048
 20
28.472852
 10
30.46947831691048
 20
28.197122
 10
31.75567231691049
 20
27.296502
 10
32.17733331691049
 20
27.296502
 42
0.8685449999999949
 10
32.25982231691049
 20
27.879861
 10
32.25982231691049
 20
31.893747
 42
0.4108179999999972
 10
31.96056731691049
 20
32.196496
 10
31.65984631691048
 20
32.196496
 10
30.06493631691049
 20
31.225763
 42
-0.6077620000000029
 10
29.75985231691048
 20
31.410912
 10
29.75982231691049
 20
32.936456
 10
30.24654631691048
 20
33.794679
 10
32.25982231691049
 20
35.020105
 10
32.25982231691049
 20
44.49980299999999
 10
32.25982231691049
 20
53.97954699999999
 10
30.24654631691048
 20
55.204972
 10
29.75982231691049
 20
56.06319599999999
 10
29.75985231691048
 20
57.588739
 42
-0.607761999999996
 10
30.06493631691049
 20
57.773889
 10
31.65984631691048
 20
56.803156
 10
31.96056731691049
 20
56.803156
 42
0.4108179999999939
 10
32.25982231691049
 20
57.105905
 10
32.25982231691049
 20
61.119791
 42
0.8685449999999947
 10
32.17733331691049
 20
61.70315
 10
31.75567231691049
 20
61.70315
 10
30.46947831691048
 20
60.80252999999999
 10
30.49363831691048
 20
60.526799
 42
-0.5764680000000055
 10
30.19816731691049
 20
60.320479
 10
29.64525931691048
 20
60.578287
 10
27.92641731691049
 20
62.513529
 42
-0.6067839999999958
 10
28.17959131691048
 20
62.99982599999999
 10
30.66115931691049
 20
62.999842
 10
30.70608131691049
 20
62.876383
 10
32.25982231691049
 20
62.999857
 10
32.25982231691049
 20
65.103144
 42
0.414213999999996
 10
31.75982231691049
 20
65.603144
 10
30.45980431691049
 20
65.603144
 10
30.45980431691049
 20
66.503168
 42
-0.3808199999999994
 10
31.01736031691049
 20
66.99985700000001
 10
41.71172631691049
 20
66.99985700000001
 10
42.01177531691048
 20
66.69992999999999
 10
42.31170231691048
 20
66.99985700000001
 10
46.60787531691048
 20
66.99985700000001
 10
47.00985231691048
 20
65.49985700000001
 10
47.00985231691048
 20
64.99985700000001
 10
45.01177531691048
 20
64.99985700000001
 10
45.01177531691048
 20
61.999857
 10
63.01171431691049
 20
61.999857
 10
63.01171431691049
 20
64.99985700000001
 10
61.01171431691049
 20
64.99985700000001
 10
61.01171431691049
 20
65.49985700000001
 10
61.41363131691048
 20
66.99985700000001
  0
LWPOLYLINE
  5
52
100
AcDbEntity
  8
0
  6
CONTINUOUS
 62
    4
370
   -1
100
AcDbPolyline
 90
   45
 70
    1
 43
0
 10
26.70079031691049
 20
26.004336
 10
15.83201531691048
 20
26.004336
 10
14.09484731691048
 20
28.48527
 42
0.2446979999999996
 10
13.19378031691048
 20
28.954336
 10
13.05954831691048
 20
28.954336
 42
0.1316520000000002
 10
12.50954831691048
 20
28.806964
 10
12.31943131691048
 20
28.6972
 42
0.453505110337119
 10
12.01826946614395
 20
28.55925670712167
 10
10.88007431691049
 20
27.866186
 42
-0.5907390000000033
 10
10.26640431691048
 20
28.204336
 10
10.36518531691048
 20
29.333408
 42
-0.6000370000000069
 10
10.60872931691048
 20
29.437135
 42
0.6301069999999999
 10
11.58519131691048
 20
29.904336
 42
0.6301069999999988
 10
10.60872931691048
 20
30.371536
 42
-0.6000369999999937
 10
10.36518531691048
 20
30.475263
 10
10.26640431691048
 20
31.604335
 42
-0.5907389999999988
 10
10.88007431691049
 20
31.942485
 10
12.41672831691049
 20
31.055297
 42
0.1316519999999999
 10
13.16672731691048
 20
30.854335
 10
13.71434731691048
 20
30.854335
 42
-0.244698
 10
15.35265131691048
 20
30.001488
 10
16.52250831691048
 20
28.330759
 42
0.2446979999999998
 10
17.34166031691048
 20
27.904336
 10
24.86640231691049
 20
27.904336
 10
25.19114531691049
 20
27.904336
 42
0.2446980000000001
 10
26.01029731691049
 20
28.330759
 10
27.18015531691049
 20
30.001488
 42
-0.2446980000000002
 10
28.81845831691049
 20
30.854335
 10
29.36607831691048
 20
30.854335
 42
0.1316519999999997
 10
30.11607831691048
 20
31.055297
 10
31.65273131691048
 20
31.942485
 42
-0.6194337750989402
 10
32.24701785500159
 20
31.604335
 10
32.16762031691049
 20
30.475263
 42
-0.6000369999999903
 10
31.92407631691049
 20
30.371536
 42
0.6301070000000004
 10
30.94761431691049
 20
29.904336
 42
0.6301070000000014
 10
31.9240763169105
 20
29.43713499999999
 42
-0.6000370000000003
 10
32.16762031691049
 20
29.333408
 10
32.24670262388694
 20
28.204336
 42
-0.6199178911415925
 10
31.65273131691048
 20
27.866186
 10
30.50398231691049
 20
28.529417
 42
0.540905000000003
 10
30.21333331691049
 20
28.697223
 10
30.02325731691049
 20
28.806964
 42
0.1316520000000004
 10
29.47325731691048
 20
28.954336
 10
29.33902531691049
 20
28.954336
 42
0.2446979999999999
 10
28.43795831691048
 20
28.48527
  0
LWPOLYLINE
  5
53
100
AcDbEntity
  8
0
  6
CONTINUOUS
 62
    0
370
   -1
100
AcDbPolyline
 90
   20
 70
    1
 43
0
 10
1.511113316910481
 20
41.399952
 10
1.511216316910484
 20
28.399953
 10
8.509827316910481
 20
28.40001
 10
8.509724316910486
 20
41.39999999999999
 10
7.009731316910482
 20
41.400001
 10
7.009729316910487
 20
42.40001099999999
 10
8.509759316910483
 20
42.400013
 10
8.509725316910483
 20
46.59973899999999
 10
7.009716316910484
 20
46.59975099999999
 10
7.009724316910485
 20
47.599751
 10
8.509725316910483
 20
47.599739
 10
8.509710316910486
 20
60.599742
 10
1.511338316910482
 20
60.599799
 10
1.511232316910486
 20
47.5998
 10
3.011240316910487
 20
47.59978799999999
 10
3.011232316910486
 20
46.5998
 10
1.511232316910486
 20
46.5998
 10
1.511232316910486
 20
42.39996399999999
 10
3.011232316910486
 20
42.39996399999999
 10
3.011232316910486
 20
41.399952
  0
LWPOLYLINE
  5
54
100
AcDbEntity
  8
0
  6
CONTINUOUS
 62
    0
370
   -1
100
AcDbPolyline
 90
  136
 70
    1
 43
0
 10
0.0113363169104872
 20
0.4
 10
0.0113363169104872
 20
88.59981999999999
 42
-0.4142139999999898
 10
0.4113363169104787
 20
88.99981999999997
 10
3.614788316910484
 20
88.99981999999999
 10
3.897630316910486
 20
88.88266299999999
 10
4.014780316910481
 20
88.59981999999999
 10
4.014780316910481
 20
87.20205599999998
 10
3.898411316910483
 20
86.91779999999999
 10
3.614788316910484
 20
86.799859
 10
3.214763316910485
 20
86.799835
 10
3.214763316910485
 20
87.699834
 10
1.614790316910486
 20
87.699834
 10
1.331166316910483
 20
87.58189400000001
 10
1.214765316910487
 20
87.29763699999999
 10
1.214765316910487
 20
83.302036
 10
1.331166316910483
 20
83.01778
 10
1.614790316910486
 20
82.89981400000001
 10
3.214763316910485
 20
82.89981400000001
 10
3.214763316910485
 20
83.799813
 10
3.614788316910484
 20
83.799813
 10
3.898411316910483
 20
83.681873
 10
4.014781316910486
 20
83.39760099999999
 10
4.014780316910481
 20
82.19986400000001
 10
3.897630316910486
 20
81.91702199999999
 10
3.614788316910484
 20
81.799864
 10
1.511336316910487
 20
81.79984
 10
1.511338316910482
 20
61.999399
 10
8.509829316910483
 20
61.999399
 10
8.509808316910487
 20
63.999878
 10
8.509830316910488
 20
66.99985700000001
 10
11.50230031691048
 20
66.99985700000001
 10
11.76311231691048
 20
66.959997
 10
11.97647631691048
 20
66.779616
 10
12.05984431691048
 20
66.50318
 10
12.05984431691048
 20
65.603156
 10
10.75982731691048
 20
65.603156
 10
10.36965931691048
 20
65.49642799999999
 10
10.25982831691048
 20
65.103157
 10
10.25982831691048
 20
62.999407
 10
11.81376931691048
 20
62.875915
 10
11.85869131691049
 20
62.999389
 10
14.37513931691048
 20
62.999327
 42
-0.6054269999999974
 10
14.59401431691048
 20
62.513858
 10
12.87455831691049
 20
60.577821
 10
12.29560931691048
 20
60.307901
 42
-0.4134549999999987
 10
12.03701431691049
 20
60.423317
 42
-0.05968599999999986
 10
12.02873331691048
 20
60.470291
 42
-0.03187999999999976
 10
12.02714731691048
 20
60.49534
 10
12.05034131691048
 20
60.802064
 10
10.76408831691049
 20
61.70269799999999
 10
10.37744731691048
 20
61.70269799999999
 42
0.8684469999999987
 10
10.25982831691048
 20
61.119368
 10
10.25982831691048
 20
56.999873
 10
10.34267031691048
 20
56.799873
 10
10.85982831691048
 20
56.799873
 10
12.36288431691049
 20
57.665177
 10
12.40181331691048
 20
57.821944
 10
12.54579531691048
 20
57.898965
 10
12.62365431691048
 20
57.869841
 10
12.73067031691048
 20
57.77318000000001
 10
12.75982731691048
 20
57.693288
 10
12.75982731691048
 20
56.146586
 10
12.69994731691048
 20
55.80574
 10
12.52139431691049
 20
55.4985
 10
12.25875231691049
 20
55.279941
 10
10.76090331691048
 20
54.417635
 10
10.49716531691048
 20
54.197786
 10
10.33467331691048
 20
53.967165
 10
10.25982831691048
 20
53.570989
 10
10.25982831691048
 20
35.428763
 10
10.33467331691048
 20
35.032587
 10
10.49716531691048
 20
34.801967
 10
10.76090331691048
 20
34.582118
 10
12.25875231691049
 20
33.719812
 10
12.52139431691049
 20
33.501253
 10
12.62554231691048
 20
33.353704
 10
12.69994731691048
 20
33.194012
 10
12.75982731691048
 20
32.853166
 10
12.75982731691048
 20
31.306464
 10
12.73067031691048
 20
31.226573
 10
12.67716231691048
 20
31.178242
 10
12.58472431691048
 20
31.115349
 10
12.40181331691048
 20
31.177808
 10
12.36288431691049
 20
31.334575
 10
10.85982831691048
 20
32.19988
 10
10.45982831691048
 20
32.19988
 10
10.25982831691048
 20
32.11703700000001
 10
10.25982831691048
 20
27.880451
 42
0.8684469999999972
 10
10.37744731691048
 20
27.297121
 10
10.76408831691049
 20
27.297121
 10
12.05034131691048
 20
28.197755
 10
12.02368831691049
 20
28.501845
 42
-0.03165999999999985
 10
12.02494731691048
 20
28.527179
 42
-0.06070200000000039
 10
12.03305131691049
 20
28.575902
 42
-0.4124969999999976
 10
12.29437231691048
 20
28.696112
 10
12.87455831691049
 20
28.421998
 10
14.59401431691048
 20
26.485962
 42
-0.6054269999999979
 10
14.37513931691048
 20
26.000492
 10
11.85869131691049
 20
26.000431
 10
11.81376931691048
 20
26.123904
 10
10.25982831691048
 20
26.000412
 10
10.25982831691048
 20
23.896611
 10
10.40627431691048
 20
23.543058
 10
10.75982731691048
 20
23.396612
 10
12.05984431691048
 20
23.396612
 10
12.05984431691048
 20
22.496588
 10
11.89243131691048
 20
22.123244
 10
11.50230031691048
 20
21.999896
 10
8.509831316910486
 20
21.999896
 10
8.509831316910486
 20
24.999874
 10
8.509831316910486
 20
26.99993
 10
1.511318316910482
 20
26.99993
 10
1.511336316910487
 20
7.200003999999999
 10
3.614788316910484
 20
7.200003999999999
 10
3.897630316910486
 20
7.082883999999999
 10
4.014787316910485
 20
6.800041
 10
4.014781316910486
 20
5.602180999999999
 10
3.898411316910483
 20
5.31791
 10
3.614788316910484
 20
5.200006
 10
3.214763316910485
 20
5.200006
 10
3.214763316910485
 20
6.099967999999999
 10
1.614790316910486
 20
6.099967999999999
 10
1.331166316910483
 20
5.982065
 10
1.214790316910487
 20
5.700004999999999
 10
1.214796316910486
 20
1.702221999999999
 10
1.331166316910483
 20
1.417950999999999
 10
1.614790316910486
 20
1.300046999999999
 10
3.214763316910485
 20
1.300046999999999
 10
3.214763316910485
 20
2.200009
 10
3.614788316910484
 20
2.200009
 10
3.898411316910483
 20
2.082106
 10
4.014780316910481
 20
1.797787999999999
 10
4.014780316910481
 20
0.4000230000000001
 10
3.897630316910486
 20
0.117181
 10
3.614788316910484
 20
0
 10
0.4113363169104787
 20
0
 42
-0.4142140000000001
  0
LWPOLYLINE
  5
55
100
AcDbEntity
  8
0
  6
CONTINUOUS
 62
    4
370
   -1
100
AcDbPolyline
 90
   45
 70
    1
 43
0
 10
24.86640231691049
 20
61.09532
 10
17.34166031691048
 20
61.09532
 42
0.2446980000000002
 10
16.52250831691048
 20
60.66889599999999
 10
15.35265131691048
 20
58.998167
 42
-0.2446980000000003
 10
13.71434731691048
 20
58.14531999999999
 10
13.16672731691048
 20
58.14531999999999
 42
0.131652
 10
12.41672831691049
 20
57.944358
 10
10.88007431691049
 20
57.057171
 42
-0.5907390000000019
 10
10.26640431691048
 20
57.39532
 10
10.36518531691048
 20
58.524392
 42
-0.6000370000000017
 10
10.60872931691048
 20
58.628119
 42
0.630107000000002
 10
11.58519131691048
 20
59.09532
 42
0.6301069999999989
 10
10.60872931691048
 20
59.562521
 42
-0.6000369999999889
 10
10.36518531691048
 20
59.666248
 10
10.26640431691048
 20
60.79532
 42
-0.5907390000000063
 10
10.88007431691049
 20
61.13346899999999
 10
12.02873331691048
 20
60.470291
 42
0.5410729999999904
 10
12.31943131691048
 20
60.302456
 10
12.50954831691048
 20
60.192692
 42
0.1316519999999999
 10
13.05954831691048
 20
60.04532
 10
13.19378031691048
 20
60.04532
 42
0.2446979999999991
 10
14.09484731691048
 20
60.514386
 10
15.83201531691048
 20
62.99532
 10
26.70079031691049
 20
62.99532
 10
28.43795831691048
 20
60.514386
 42
0.2446979999999987
 10
29.33902531691049
 20
60.04532
 10
29.47325731691048
 20
60.04532
 42
0.1316520000000004
 10
30.02325731691049
 20
60.192692
 10
30.21333331691049
 20
60.30243200000001
 42
0.5409050000000027
 10
30.50398231691049
 20
60.470239
 10
31.65273131691048
 20
61.13346899999999
 42
-0.61530189918934
 10
32.24972358873359
 20
60.79532
 10
32.16762031691049
 20
59.666248
 42
-0.6000370000000111
 10
31.92407631691049
 20
59.562521
 42
0.6301069999999928
 10
30.94761431691049
 20
59.09532
 42
0.6301069999999969
 10
31.92407631691049
 20
58.628119
 42
-0.6000370000000016
 10
32.16762031691049
 20
58.524392
 10
32.25235051468783
 20
57.39532
 42
-0.6113302859323912
 10
31.65273131691048
 20
57.057171
 10
30.11607831691048
 20
57.944358
 42
0.1316519999999999
 10
29.36607831691048
 20
58.14531999999999
 10
28.81845831691049
 20
58.14532
 42
-0.2446979999999995
 10
27.18015531691049
 20
58.998167
 10
26.01029731691049
 20
60.66889599999999
 42
0.2446979999999993
 10
25.19114531691049
 20
61.09532
  0
ENDSEC
  0
SECTION
  2
OBJECTS
  0
DICTIONARY
  5
C
330
0
100
AcDbDictionary
281
    1
  3
ACAD_GROUP
350
D
  0
DICTIONARY
  5
D
330
C
100
AcDbDictionary
281
    1
  0
PLOTSETTINGS
  5
56
100
AcDbPlotSettings
  6
1x1
 40
0
 41
0
 42
0
 43
0
  0
ENDSEC
  0
EOF
