999
dxfrw 0.6.3
  0
SECTION
  2
HEADER
  9
$ACADVER
  1
AC1021
  9
$DWGCODEPAGE
  3
ANSI_1254
  9
$INSBASE
 10
0
 20
0
 30
0
  9
$EXTMIN
 10
10000000000
 20
10000000000
 30
0
  9
$EXTMAX
 10
-10000000000
 20
-10000000000
 30
0
  9
$LIMMIN
 10
399.600006
 20
474.700012
  9
$LIMMAX
 10
461.388184
 20
553.200012
  9
$ORTHOMODE
 70
    0
  9
$REGENMODE
 70
    1
  9
$FILLMODE
 70
    1
  9
$QTEXTMODE
 70
    0
  9
$MIRRTEXT
 70
    0
  9
$LTSCALE
 40
1
  9
$ATTMODE
 70
    1
  9
$TEXTSIZE
 40
0.2
  9
$TRACEWID
 40
0.05
  9
$TEXTSTYLE
  7
STANDARD
  9
$CLAYER
  8
0
  9
$CELTYPE
  6
ByBlock
  9
$CECOLOR
 62
  256
  9
$CELTSCALE
 40
1
  9
$DISPSILH
 70
    0
  9
$DIMSCALE
 40
1
  9
$DIMASZ
 40
0.18
  9
$DIMEXO
 40
0.0625
  9
$DIMDLI
 40
0.38
  9
$DIMRND
 40
0
  9
$DIMDLE
 40
0
  9
$DIMEXE
 40
0.18
  9
$DIMTP
 40
0
  9
$DIMTM
 40
0
  9
$DIMTXT
 40
0.18
  9
$DIMCEN
 40
0.09
  9
$DIMTSZ
 40
0
  9
$DIMTOL
 70
    0
  9
$DIMLIM
 70
    0
  9
$DIMTIH
 70
    1
  9
$DIMTOH
 70
    1
  9
$DIMSE1
 70
    0
  9
$DIMSE2
 70
    0
  9
$DIMTAD
 70
    0
  9
$DIMZIN
 70
    0
  9
$DIMBLK
  1

  9
$DIMASO
 70
    1
  9
$DIMSHO
 70
    1
  9
$DIMPOST
  1

  9
$DIMAPOST
  1

  9
$DIMALT
 70
    0
  9
$DIMALTD
 70
    2
  9
$DIMALTF
 40
25.4
  9
$DIMLFAC
 40
1
  9
$DIMTOFL
 70
    0
  9
$DIMTVP
 40
0
  9
$DIMTIX
 70
    0
  9
$DIMSOXD
 70
    0
  9
$DIMSAH
 70
    0
  9
$DIMBLK1
  1

  9
$DIMBLK2
  1

  9
$DIMSTYLE
  2
ORGADATA
  9
$DIMCLRD
 70
    0
  9
$DIMCLRE
 70
    0
  9
$DIMCLRT
 70
    0
  9
$DIMTFAC
 40
1
  9
$DIMGAP
 40
0.09
  9
$DIMJUST
 70
    0
  9
$DIMSD1
 70
    0
  9
$DIMSD2
 70
    0
  9
$DIMTOLJ
 70
    1
  9
$DIMTZIN
 70
    0
  9
$DIMALTZ
 70
    0
  9
$DIMALTTZ
 70
    0
  9
$DIMUPT
 70
    0
  9
$DIMDEC
 70
    4
  9
$DIMTDEC
 70
    4
  9
$DIMALTU
 70
    2
  9
$DIMALTTD
 70
    2
  9
$DIMTXSTY
  7
STANDARD
  9
$DIMAUNIT
 70
    0
  9
$DIMADEC
 70
    0
  9
$DIMALTRND
 40
0
  9
$DIMAZIN
 70
    0
  9
$DIMDSEP
 70
   46
  9
$DIMATFIT
 70
    3
  9
$DIMFRAC
 70
    0
  9
$DIMLDRBLK
  1

  9
$DIMLUNIT
 70
    2
  9
$DIMLWD
 70
   -2
  9
$DIMLWE
 70
   -2
  9
$DIMTMOVE
 70
    2
  9
$DIMFXL
 40
1
  9
$DIMFXLON
 70
    0
  9
$DIMJOGANG
 40
0.7853981633974483
  9
$DIMTFILL
 70
    0
  9
$DIMTFILLCLR
 70
    0
  9
$DIMARCSYM
 70
    0
  9
$DIMLTYPE
  6

  9
$DIMLTEX1
  6

  9
$DIMLTEX2
  6

  9
$LUNITS
 70
    2
  9
$LUPREC
 70
    4
  9
$SKETCHINC
 40
0.1
  9
$FILLETRAD
 40
0.5
  9
$AUNITS
 70
    0
  9
$AUPREC
 70
    0
  9
$MENU
  1
.
  9
$ELEVATION
 40
0
  9
$PELEVATION
 40
0
  9
$THICKNESS
 40
0
  9
$LIMCHECK
 70
    0
  9
$CHAMFERA
 40
0
  9
$CHAMFERB
 40
0
  9
$CHAMFERC
 40
0
  9
$CHAMFERD
 40
0
  9
$SKPOLY
 70
    0
  9
$USRTIMER
 70
    1
  9
$ANGBASE
 50
0
  9
$ANGDIR
 70
    0
  9
$PDMODE
 70
    0
  9
$PDSIZE
 40
0
  9
$PLINEWID
 40
0
  9
$SPLFRAME
 70
    0
  9
$SPLINETYPE
 70
    6
  9
$SPLINESEGS
 70
    8
  9
$HANDSEED
  5
20000
  9
$SURFTAB1
 70
    6
  9
$SURFTAB2
 70
    6
  9
$SURFTYPE
 70
    6
  9
$SURFU
 70
    6
  9
$SURFV
 70
    6
  9
$UCSBASE
  2

  9
$UCSNAME
  2

  9
$UCSORG
 10
0
 20
0
 30
0
  9
$UCSXDIR
 10
1
 20
0
 30
0
  9
$UCSYDIR
 10
0
 20
1
 30
0
  9
$UCSORTHOREF
  2

  9
$UCSORTHOVIEW
 70
    0
  9
$UCSORGTOP
 10
0
 20
0
 30
0
  9
$UCSORGBOTTOM
 10
0
 20
0
 30
0
  9
$UCSORGLEFT
 10
0
 20
0
 30
0
  9
$UCSORGRIGHT
 10
0
 20
0
 30
0
  9
$UCSORGFRONT
 10
0
 20
0
 30
0
  9
$UCSORGBACK
 10
0
 20
0
 30
0
  9
$PUCSBASE
  2

  9
$PUCSNAME
  2

  9
$PUCSORG
 10
0
 20
0
 30
0
  9
$PUCSXDIR
 10
1
 20
0
 30
0
  9
$PUCSYDIR
 10
0
 20
1
 30
0
  9
$PUCSORTHOREF
  2

  9
$PUCSORTHOVIEW
 70
    0
  9
$PUCSORGTOP
 10
0
 20
0
 30
0
  9
$PUCSORGBOTTOM
 10
0
 20
0
 30
0
  9
$PUCSORGLEFT
 10
0
 20
0
 30
0
  9
$PUCSORGRIGHT
 10
0
 20
0
 30
0
  9
$PUCSORGFRONT
 10
0
 20
0
 30
0
  9
$PUCSORGBACK
 10
0
 20
0
 30
0
  9
$USERI1
 70
    0
  9
$USERI2
 70
    0
  9
$USERI3
 70
    0
  9
$USERI4
 70
    0
  9
$USERI5
 70
    0
  9
$USERR1
 40
0
  9
$USERR2
 40
0
  9
$USERR3
 40
0
  9
$USERR4
 40
0
  9
$USERR5
 40
0
  9
$WORLDVIEW
 70
    0
  9
$SHADEDGE
 70
    3
  9
$SHADEDIF
 70
   70
  9
$TILEMODE
 70
    1
  9
$MAXACTVP
 70
   64
  9
$PINSBASE
 10
0
 20
0
 30
0
  9
$PLIMCHECK
 70
    0
  9
$PEXTMIN
 10
1e+20
 20
1e+20
 30
1e+20
  9
$PEXTMAX
 10
-1e+20
 20
-1e+20
 30
-1e+20
  9
$GRIDMODE
 70
    0
  9
$SNAPSTYLE
 70
    0
  9
$PLIMMIN
 10
0
 20
0
  9
$PLIMMAX
 10
12
 20
9
  9
$UNITMODE
 70
    0
  9
$VISRETAIN
 70
    1
  9
$PLINEGEN
 70
    0
  9
$PSLTSCALE
 70
    1
  9
$TREEDEPTH
 70
 3020
  9
$CMLSTYLE
  2
Standard
  9
$CMLJUST
 70
    0
  9
$CMLSCALE
 40
1
  9
$PROXYGRAPHICS
 70
    1
  9
$MEASUREMENT
 70
    1
  9
$CELWEIGHT
370
   -1
  9
$ENDCAPS
280
    0
  9
$JOINSTYLE
280
    0
  9
$LWDISPLAY
290
    0
  9
$INSUNITS
 70
    0
  9
$HYPERLINKBASE
  1

  9
$STYLESHEET
  1

  9
$XEDIT
290
    1
  9
$CEPSNTYPE
380
    0
  9
$PSTYLEMODE
290
    1
  9
$EXTNAMES
290
    1
  9
$PSVPSCALE
 40
0
  9
$OLESTARTUP
290
    0
  9
$SORTENTS
280
  127
  9
$INDEXCTL
280
    0
  9
$HIDETEXT
280
    1
  9
$XCLIPFRAME
290
    0
  9
$HALOGAP
280
    0
  9
$OBSCOLOR
 70
  257
  9
$OBSLTYPE
280
    0
  9
$INTERSECTIONDISPLAY
280
    0
  9
$INTERSECTIONCOLOR
 70
  257
  9
$DIMASSOC
280
    2
  9
$PROJECTNAME
  1

  9
$CAMERADISPLAY
290
    0
  9
$LENSLENGTH
 40
50
  9
$CAMERAHEIGHT
 40
0
  9
$STEPSPERSEC
 40
2
  9
$STEPSIZE
 40
6
  9
$3DDWFPREC
 40
2
  9
$PSOLWIDTH
 40
0.25
  9
$PSOLHEIGHT
 40
4
  9
$LOFTANG1
 40
1.570796326794896
  9
$LOFTANG2
 40
1.570796326794896
  9
$LOFTMAG1
 40
0
  9
$LOFTMAG2
 40
0
  9
$LOFTPARAM
 70
    7
  9
$LOFTNORMALS
280
    1
  9
$LATITUDE
 40
37.795
  9
$LONGITUDE
 40
-122.394
  9
$NORTHDIRECTION
 40
0
  9
$TIMEZONE
 70
-8000
  9
$LIGHTGLYPHDISPLAY
280
    1
  9
$TILEMODELIGHTSYNCH
280
    1
  9
$SOLIDHIST
280
    0
  9
$SHOWHIST
280
    1
  9
$DWFFRAME
280
    2
  9
$DGNFRAME
280
    0
  9
$REALWORLDSCALE
290
    1
  9
$INTERFERECOLOR
 62
    1
  9
$CSHADOW
280
    0
  9
$SHADOWPLANELOCATION
 40
0
  0
ENDSEC
  0
SECTION
  2
CLASSES
  0
ENDSEC
  0
SECTION
  2
TABLES
  0
TABLE
  2
VPORT
  5
8
330
0
100
AcDbSymbolTable
 70
    1
  0
VPORT
  5
31
330
2
100
AcDbSymbolTableRecord
100
AcDbViewportTableRecord
  2
*ACTIVE
 70
    0
 10
0
 20
0
 11
1
 21
1
 12
107.8307648673185
 22
75.11512018670004
 13
0
 23
0
 14
10
 24
10
 15
10
 25
10
 16
0
 26
0
 36
1
 17
0
 27
0
 37
0
 40
215.1380794197472
 41
1.924574209245742
 42
50
 43
0
 44
0
 50
0
 51
0
 71
    0
 72
  100
 73
    1
 74
    3
 75
    0
 76
    0
 77
    0
 78
    0
281
    0
 65
    1
110
0
120
0
130
0
111
1
121
0
131
0
112
0
122
1
132
0
 79
    0
146
0
348
10020
 60
    7
 61
    5
292
1
282
    1
141
0
142
0
 63
  250
421
3358443
  0
ENDTAB
  0
TABLE
  2
LTYPE
  5
5
330
0
100
AcDbSymbolTable
 70
    4
  0
LTYPE
  5
14
330
5
100
AcDbSymbolTableRecord
100
AcDbLinetypeTableRecord
  2
ByBlock
 70
    0
  3

 72
   65
 73
    0
 40
0
  0
LTYPE
  5
15
330
5
100
AcDbSymbolTableRecord
100
AcDbLinetypeTableRecord
  2
ByLayer
 70
    0
  3

 72
   65
 73
    0
 40
0
  0
LTYPE
  5
16
330
5
100
AcDbSymbolTableRecord
100
AcDbLinetypeTableRecord
  2
Continuous
 70
    0
  3
Solid line
 72
   65
 73
    0
 40
0
  0
LTYPE
  5
32
330
5
100
AcDbSymbolTableRecord
100
AcDbLinetypeTableRecord
  2
DOT
 70
    0
  3
Dot . . . . . . . . . . . . . . . . . . . . . .
 72
   65
 73
    2
 40
6.35
 49
0
 74
    0
 49
-6.35
 74
    0
  0
LTYPE
  5
33
330
5
100
AcDbSymbolTableRecord
100
AcDbLinetypeTableRecord
  2
DOTTINY
 70
    0
  3
Dot (.15x) .....................................
 72
   65
 73
    2
 40
0.9525
 49
0
 74
    0
 49
-0.9525
 74
    0
  0
LTYPE
  5
34
330
5
100
AcDbSymbolTableRecord
100
AcDbLinetypeTableRecord
  2
DOT2
 70
    0
  3
Dot (.5x) .....................................
 72
   65
 73
    2
 40
3.175
 49
0
 74
    0
 49
-3.175
 74
    0
  0
LTYPE
  5
35
330
5
100
AcDbSymbolTableRecord
100
AcDbLinetypeTableRecord
  2
DOTX2
 70
    0
  3
Dot (2x) .  .  .  .  .  .  .  .  .  .  .  .  .
 72
   65
 73
    2
 40
12.7
 49
0
 74
    0
 49
-12.7
 74
    0
  0
LTYPE
  5
36
330
5
100
AcDbSymbolTableRecord
100
AcDbLinetypeTableRecord
  2
DASHED
 70
    0
  3
Dashed _ _ _ _ _ _ _ _ _ _ _ _ _ _ _ _ _
 72
   65
 73
    2
 40
19.05
 49
12.7
 74
    0
 49
-6.35
 74
    0
  0
LTYPE
  5
37
330
5
100
AcDbSymbolTableRecord
100
AcDbLinetypeTableRecord
  2
DASHEDTINY
 70
    0
  3
Dashed (.15x) _ _ _ _ _ _ _ _ _ _ _ _ _ _ _ _ _
 72
   65
 73
    2
 40
2.8575
 49
1.905
 74
    0
 49
-0.9525
 74
    0
  0
LTYPE
  5
38
330
5
100
AcDbSymbolTableRecord
100
AcDbLinetypeTableRecord
  2
DASHED2
 70
    0
  3
Dashed (.5x) _ _ _ _ _ _ _ _ _ _ _ _ _ _ _ _ _
 72
   65
 73
    2
 40
9.524999999999999
 49
6.35
 74
    0
 49
-3.175
 74
    0
  0
LTYPE
  5
39
330
5
100
AcDbSymbolTableRecord
100
AcDbLinetypeTableRecord
  2
DASHEDX2
 70
    0
  3
Dashed (2x) ____  ____  ____  ____  ____  ___
 72
   65
 73
    2
 40
38.09999999999999
 49
25.4
 74
    0
 49
-12.7
 74
    0
  0
LTYPE
  5
3A
330
5
100
AcDbSymbolTableRecord
100
AcDbLinetypeTableRecord
  2
DASHDOT
 70
    0
  3
Dash dot __ . __ . __ . __ . __ . __ . __ . __
 72
   65
 73
    4
 40
25.4
 49
12.7
 74
    0
 49
-6.35
 74
    0
 49
0
 74
    0
 49
-6.35
 74
    0
  0
LTYPE
  5
3B
330
5
100
AcDbSymbolTableRecord
100
AcDbLinetypeTableRecord
  2
DASHDOTTINY
 70
    0
  3
Dash dot (.15x) _._._._._._._._._._._._._._._.
 72
   65
 73
    4
 40
3.81
 49
1.905
 74
    0
 49
-0.9525
 74
    0
 49
0
 74
    0
 49
-0.9525
 74
    0
  0
LTYPE
  5
3C
330
5
100
AcDbSymbolTableRecord
100
AcDbLinetypeTableRecord
  2
DASHDOT2
 70
    0
  3
Dash dot (.5x) _._._._._._._._._._._._._._._.
 72
   65
 73
    4
 40
12.7
 49
6.35
 74
    0
 49
-3.175
 74
    0
 49
0
 74
    0
 49
-3.175
 74
    0
  0
LTYPE
  5
3D
330
5
100
AcDbSymbolTableRecord
100
AcDbLinetypeTableRecord
  2
DASHDOTX2
 70
    0
  3
Dash dot (2x) ____  .  ____  .  ____  .  ___
 72
   65
 73
    4
 40
50.8
 49
25.4
 74
    0
 49
-12.7
 74
    0
 49
0
 74
    0
 49
-12.7
 74
    0
  0
LTYPE
  5
3E
330
5
100
AcDbSymbolTableRecord
100
AcDbLinetypeTableRecord
  2
DIVIDE
 70
    0
  3
Divide ____ . . ____ . . ____ . . ____ . . ____
 72
   65
 73
    6
 40
31.75
 49
12.7
 74
    0
 49
-6.35
 74
    0
 49
0
 74
    0
 49
-6.35
 74
    0
 49
0
 74
    0
 49
-6.35
 74
    0
  0
LTYPE
  5
3F
330
5
100
AcDbSymbolTableRecord
100
AcDbLinetypeTableRecord
  2
DIVIDETINY
 70
    0
  3
Divide (.15x) __..__..__..__..__..__..__..__.._
 72
   65
 73
    6
 40
4.7625
 49
1.905
 74
    0
 49
-0.9525
 74
    0
 49
0
 74
    0
 49
-0.9525
 74
    0
 49
0
 74
    0
 49
-0.9525
 74
    0
  0
LTYPE
  5
40
330
5
100
AcDbSymbolTableRecord
100
AcDbLinetypeTableRecord
  2
DIVIDE2
 70
    0
  3
Divide (.5x) __..__..__..__..__..__..__..__.._
 72
   65
 73
    6
 40
15.875
 49
6.35
 74
    0
 49
-3.175
 74
    0
 49
0
 74
    0
 49
-3.175
 74
    0
 49
0
 74
    0
 49
-3.175
 74
    0
  0
LTYPE
  5
41
330
5
100
AcDbSymbolTableRecord
100
AcDbLinetypeTableRecord
  2
DIVIDEX2
 70
    0
  3
Divide (2x) ________  .  .  ________  .  .  _
 72
   65
 73
    6
 40
63.5
 49
25.4
 74
    0
 49
-12.7
 74
    0
 49
0
 74
    0
 49
-12.7
 74
    0
 49
0
 74
    0
 49
-12.7
 74
    0
  0
LTYPE
  5
42
330
5
100
AcDbSymbolTableRecord
100
AcDbLinetypeTableRecord
  2
BORDER
 70
    0
  3
Border __ __ . __ __ . __ __ . __ __ . __ __ .
 72
   65
 73
    6
 40
44.45
 49
12.7
 74
    0
 49
-6.35
 74
    0
 49
12.7
 74
    0
 49
-6.35
 74
    0
 49
0
 74
    0
 49
-6.35
 74
    0
  0
LTYPE
  5
43
330
5
100
AcDbSymbolTableRecord
100
AcDbLinetypeTableRecord
  2
BORDERTINY
 70
    0
  3
Border (.15x) __.__.__.__.__.__.__.__.__.__.__.
 72
   65
 73
    6
 40
6.6675
 49
1.905
 74
    0
 49
-0.9525
 74
    0
 49
1.905
 74
    0
 49
-0.9525
 74
    0
 49
0
 74
    0
 49
-0.9525
 74
    0
  0
LTYPE
  5
44
330
5
100
AcDbSymbolTableRecord
100
AcDbLinetypeTableRecord
  2
BORDER2
 70
    0
  3
Border (.5x) __.__.__.__.__.__.__.__.__.__.__.
 72
   65
 73
    6
 40
22.225
 49
6.35
 74
    0
 49
-3.175
 74
    0
 49
6.35
 74
    0
 49
-3.175
 74
    0
 49
0
 74
    0
 49
-3.175
 74
    0
  0
LTYPE
  5
45
330
5
100
AcDbSymbolTableRecord
100
AcDbLinetypeTableRecord
  2
BORDERX2
 70
    0
  3
Border (2x) ____  ____  .  ____  ____  .  ___
 72
   65
 73
    6
 40
88.89999999999999
 49
25.4
 74
    0
 49
-12.7
 74
    0
 49
25.4
 74
    0
 49
-12.7
 74
    0
 49
0
 74
    0
 49
-12.7
 74
    0
  0
LTYPE
  5
46
330
5
100
AcDbSymbolTableRecord
100
AcDbLinetypeTableRecord
  2
CENTER
 70
    0
  3
Center ____ _ ____ _ ____ _ ____ _ ____ _ ____
 72
   65
 73
    4
 40
50.8
 49
31.75
 74
    0
 49
-6.35
 74
    0
 49
6.35
 74
    0
 49
-6.35
 74
    0
  0
LTYPE
  5
47
330
5
100
AcDbSymbolTableRecord
100
AcDbLinetypeTableRecord
  2
CENTERTINY
 70
    0
  3
Center (.15x) ___ _ ___ _ ___ _ ___ _ ___ _ ___
 72
   65
 73
    4
 40
7.62
 49
4.7625
 74
    0
 49
-0.9525
 74
    0
 49
0.9525
 74
    0
 49
-0.9525
 74
    0
  0
LTYPE
  5
48
330
5
100
AcDbSymbolTableRecord
100
AcDbLinetypeTableRecord
  2
CENTER2
 70
    0
  3
Center (.5x) ___ _ ___ _ ___ _ ___ _ ___ _ ___
 72
   65
 73
    4
 40
28.575
 49
19.05
 74
    0
 49
-3.175
 74
    0
 49
3.175
 74
    0
 49
-3.175
 74
    0
  0
LTYPE
  5
49
330
5
100
AcDbSymbolTableRecord
100
AcDbLinetypeTableRecord
  2
CENTERX2
 70
    0
  3
Center (2x) ________  __  ________  __  _____
 72
   65
 73
    4
 40
101.6
 49
63.5
 74
    0
 49
-12.7
 74
    0
 49
12.7
 74
    0
 49
-12.7
 74
    0
  0
ENDTAB
  0
TABLE
  2
LAYER
  5
2
330
0
100
AcDbSymbolTable
 70
    1
  0
LAYER
  5
10
330
2
100
AcDbSymbolTableRecord
100
AcDbLayerTableRecord
  2
0
 70
    0
 62
    7
  6
CONTINUOUS
370
   -3
390
F
  0
ENDTAB
  0
TABLE
  2
STYLE
  5
3
330
0
100
AcDbSymbolTable
 70
    3
  0
STYLE
  5
4A
330
2
100
AcDbSymbolTableRecord
100
AcDbTextStyleTableRecord
  2
Standard
 70
    0
 40
0
 41
1
 50
0
 71
    0
 42
1
  3
txt
  4

  0
ENDTAB
  0
TABLE
  2
VIEW
  5
6
330
0
100
AcDbSymbolTable
 70
    0
  0
ENDTAB
  0
TABLE
  2
UCS
  5
7
330
0
100
AcDbSymbolTable
 70
    0
  0
ENDTAB
  0
TABLE
  2
APPID
  5
9
330
0
100
AcDbSymbolTable
 70
    1
  0
APPID
  5
12
330
9
100
AcDbSymbolTableRecord
100
AcDbRegAppTableRecord
  2
ACAD
 70
    0
  0
APPID
  5
4B
330
9
100
AcDbSymbolTableRecord
100
AcDbRegAppTableRecord
  2
LibreCad
 70
    0
  0
ENDTAB
  0
TABLE
  2
DIMSTYLE
  5
A
330
0
100
AcDbSymbolTable
 70
    1
100
AcDbDimStyleTable
 71
    1
  0
DIMSTYLE
105
4C
330
A
100
AcDbSymbolTableRecord
100
AcDbDimStyleTableRecord
  2
Standard
 70
    0
 40
1
 41
0.18
 42
0.0625
 43
0.38
 44
0.18
 45
0
 46
0
 47
0
 48
0
 49
1
140
0.18
141
0.09
142
0
143
25.4
144
1
145
0
146
1
147
0.09
148
0
 71
    0
 72
    0
 73
    1
 74
    1
 75
    0
 76
    0
 77
    0
 78
    0
 79
    0
170
    0
171
    2
172
    0
173
    0
174
    0
175
    0
176
    0
177
    0
178
    0
179
    0
271
    4
272
    4
273
    2
274
    2
275
    0
276
    0
277
    2
278
   46
279
    0
280
    0
281
    0
282
    0
283
    1
284
    0
285
    0
286
    0
288
    0
289
    3
340
STANDARD
341

371
   -2
372
   -2
  0
ENDTAB
  0
TABLE
  2
BLOCK_RECORD
  5
1
330
0
100
AcDbSymbolTable
 70
    2
  0
BLOCK_RECORD
  5
1F
330
1
100
AcDbSymbolTableRecord
100
AcDbBlockTableRecord
  2
*Model_Space
 70
    0
280
    1
281
    0
  0
BLOCK_RECORD
  5
1E
330
1
100
AcDbSymbolTableRecord
100
AcDbBlockTableRecord
  2
*Paper_Space
 70
    0
280
    1
281
    0
  0
BLOCK_RECORD
  5
4D
330
1
100
AcDbSymbolTableRecord
100
AcDbBlockTableRecord
  2
ALUMIL-S67032
 70
    0
280
    1
281
    0
  0
ENDTAB
  0
ENDSEC
  0
SECTION
  2
BLOCKS
  0
BLOCK
  5
20
330
1F
100
AcDbEntity
  8
0
100
AcDbBlockBegin
  2
*Model_Space
 70
    0
 10
0
 20
0
 30
0
  3
*Model_Space
  1

  0
ENDBLK
  5
21
330
1F
100
AcDbEntity
  8
0
100
AcDbBlockEnd
  0
BLOCK
  5
1C
330
1B
100
AcDbEntity
  8
0
100
AcDbBlockBegin
  2
*Paper_Space
 70
    0
 10
0
 20
0
 30
0
  3
*Paper_Space
  1

  0
ENDBLK
  5
1D
330
1F
100
AcDbEntity
  8
0
100
AcDbBlockEnd
  0
BLOCK
  5
4E
330
4D
100
AcDbEntity
  8
0
100
AcDbBlockBegin
  2
ALUMIL-S67032
 70
    0
 10
423.9399999999999
 20
-123.13
  3
ALUMIL-S67032
  1

  0
LWPOLYLINE
  5
50
100
AcDbEntity
  8
0
  6
CONTINUOUS
 62
   40
370
   -1
100
AcDbPolyline
 90
   24
 70
    1
 43
0
 10
430.3376179999999
 20
-91.38127999999998
 42
0.1971159999999807
 10
430.4864699999999
 20
-91.032205
 42
-0.1958879999999995
 10
431.5019659999999
 20
-88.63507300000001
 42
0.6689699999999992
 10
430.7964089999999
 20
-86.926421
 10
430.386157
 20
-86.926421
 42
-0.4142139999999657
 10
430.0861570000001
 20
-86.62642099999999
 10
430.0861570000001
 20
-85.926421
 42
-0.4142139999999656
 10
430.386157
 20
-85.62642099999999
 10
432.0861569999999
 20
-85.62642099999999
 10
432.0861569999999
 20
-52.626421
 10
430.185054
 20
-52.626421
 42
-0.4142140000000044
 10
429.685054
 20
-52.126421
 10
429.685054
 20
-46.73
 42
0.4142139999999876
 10
429.1850539999999
 20
-46.23
 10
426.8399999999999
 20
-46.23
 42
0.4142140000000045
 10
426.3399999999999
 20
-46.73
 10
426.3399999999999
 20
-63.33
 42
-0.4142140000000043
 10
425.8399999999999
 20
-63.83
 10
425.5399999999999
 20
-63.83
 10
425.5399999999999
 20
-73.767928
 10
425.8399999999999
 20
-73.767928
 42
-0.4142140000000043
 10
426.3399999999999
 20
-74.267928
 10
426.3399999999999
 20
-91.525291
 10
429.986518
 20
-91.525289
 42
0.1971160000000056
  0
LWPOLYLINE
  5
51
100
AcDbEntity
  8
0
  6
CONTINUOUS
 62
   40
370
   -1
100
AcDbPolyline
 90
   85
 70
    1
 43
0
 10
424.7399999999999
 20
-91.525291
 10
424.7399999999999
 20
-75.36792800000001
 10
424.1399999999999
 20
-75.36792800000001
 42
-0.4142140000000002
 10
423.9399999999999
 20
-75.167928
 10
423.9399999999999
 20
-62.43
 42
-0.4142140000000003
 10
424.1399999999999
 20
-62.22999999999999
 10
424.7399999999999
 20
-62.22999999999999
 10
424.7399999999999
 20
-46.23
 10
424.1399999999999
 20
-46.23
 42
-0.4142140000000731
 10
423.9399999999998
 20
-46.03
 10
423.9399999999999
 20
-45.13
 42
-0.4142139999999587
 10
424.2399999999999
 20
-44.82999999999999
 10
432.3862
 20
-44.82999999999999
 10
432.866449
 20
-45.398999
 42
0.3595080000000097
 10
433.2314019999999
 20
-45.28604199999999
 42
-0.2637250000000207
 10
433.494576
 20
-45.150801
 10
434.9946909999999
 20
-45.21236300000001
 42
-0.5486190000000423
 10
435.248855
 20
-45.64993800000001
 10
434.157917
 20
-47.75907299999999
 42
-0.1763269999999949
 10
434.006983
 20
-47.89810799999999
 10
433.532233
 20
-48.09621299999998
 42
-0.5773500000000522
 10
433.256857
 20
-47.88605199999999
 10
433.2792469999999
 20
-47.71246699999998
 42
0.2679489999999498
 10
433.202227
 20
-47.52789200000002
 10
431.37055
 20
-46.13
 10
431.1861999999999
 20
-46.13
 42
0.7207589999999704
 10
431.0661999999999
 20
-46.48999999999999
 42
-0.2360680000000051
 10
431.1861999999999
 20
-46.73
 10
431.1861999999999
 20
-50.73
 42
0.4142140000000073
 10
431.4861999999999
 20
-51.02999999999999
 10
431.7021559999999
 20
-51.03
 42
0.1374280000000027
 10
431.858012
 20
-50.98633800000001
 10
433.381155
 20
-50.06025199999997
 42
-0.5849299999999279
 10
433.685059
 20
-50.231139
 10
433.6859719999999
 20
-87.63900700000002
 42
-0.2419259999999994
 10
436.588326
 20
-88.87347799999999
 42
-0.4650240000000236
 10
436.453952
 20
-89.62626600000002
 10
436.0132469999999
 20
-89.88070699999997
 42
-0.355219999999991
 10
435.390368
 20
-89.78080199999999
 42
2.620404999999996
 10
435.390368
 20
-92.379048
 42
-0.3552200000000008
 10
436.0132469999999
 20
-92.279143
 10
436.453952
 20
-92.53358400000002
 42
-0.4650239999999758
 10
436.588326
 20
-93.286372
 42
-0.1192369999999999
 10
435.2865519999999
 20
-94.25465199999999
 42
-0.1192370000000003
 10
433.68614
 20
-94.52085500000001
 10
433.6861569999999
 20
-95.23268899999999
 42
-0.5855319999999967
 10
433.381955
 20
-95.40340399999999
 10
431.787298
 20
-94.430021
 10
431.487298
 20
-94.43002099999998
 42
0.4142139999999656
 10
431.1872980000001
 20
-94.73002099999999
 10
431.187298
 20
-98.73002099999999
 42
-0.2360679999999961
 10
431.0672979999999
 20
-98.97002099999999
 42
0.7207590000000756
 10
431.187298
 20
-99.33002100000002
 10
431.371648
 20
-99.33002100000002
 10
433.203325
 20
-97.93212900000002
 42
0.267949000000045
 10
433.2803450000001
 20
-97.74755399999999
 10
433.2579549999999
 20
-97.57396900000001
 42
-0.577350000000064
 10
433.533331
 20
-97.36380800000002
 10
434.0080809999999
 20
-97.561913
 42
-0.1763269999999957
 10
434.159015
 20
-97.70094800000001
 10
435.249953
 20
-99.81008300000002
 42
-0.548618999999966
 10
434.9957889999999
 20
-100.247658
 10
433.4956739999999
 20
-100.30922
 42
-0.2637249999999929
 10
433.2324999999999
 20
-100.173979
 42
0.3595079999999984
 10
432.867547
 20
-100.061022
 10
432.3872979999999
 20
-100.630021
 10
431.487298
 20
-100.630021
 10
429.886076
 20
-100.630021
 42
0.4142140000000045
 10
429.386076
 20
-101.130021
 10
429.386076
 20
-102.930021
 42
0.4142140000000044
 10
429.886076
 20
-103.430021
 10
430.686076
 20
-103.430021
 42
-0.4142140000000043
 10
431.186076
 20
-103.930021
 10
431.186076
 20
-104.63
 42
-0.4142140000000043
 10
430.686076
 20
-105.13
 10
428.4860759999999
 20
-105.13
 42
-0.4142140000000044
 10
427.986076
 20
-104.63
 10
427.986076
 20
-99.630021
 42
-0.3563939999999987
 10
428.386076
 20
-99.14012300000003
 42
0.3563940000000069
 10
428.786076
 20
-98.65022500000002
 10
428.786076
 20
-93.62529000000001
 42
0.4142140000000043
 10
428.286076
 20
-93.12529000000001
 10
423.9399999999999
 20
-93.125292
 10
423.9399999999999
 20
-91.725291
 42
-0.4142139999999795
 10
424.1399999999999
 20
-91.52529100000001
  0
LWPOLYLINE
  5
52
100
AcDbEntity
  8
0
  6
CONTINUOUS
 62
   40
370
   -1
100
AcDbPolyline
 90
   30
 70
    1
 43
0
 10
484.128186
 20
-51.03
 10
484.128186
 20
-46.73
 42
0.4142140000000043
 10
483.628186
 20
-46.23
 10
452.8281859999999
 20
-46.23
 10
452.8281859999999
 20
-51.03
 10
454.374343
 20
-51.03
 42
-0.4142140000000043
 10
454.874343
 20
-51.53
 10
454.874343
 20
-52.03
 42
-0.4142140000000043
 10
454.374343
 20
-52.53
 10
452.8281859999999
 20
-52.53
 10
452.8281859999999
 20
-99.030021
 10
454.328186
 20
-99.030021
 42
-0.4142140000000043
 10
454.828186
 20
-99.530021
 10
454.828186
 20
-103.53
 10
478.428186
 20
-103.53
 10
478.428186
 20
-96.03000000000002
 42
-0.4142140000000128
 10
478.928186
 20
-95.53
 10
482.828186
 20
-95.53
 42
0.4142140000000043
 10
483.328186
 20
-95.03
 10
483.328186
 20
-79.43000000000001
 42
-0.4142140000000045
 10
483.828186
 20
-78.93000000000001
 10
484.128186
 20
-78.93000000000001
 10
484.128186
 20
-69.13
 10
483.828186
 20
-69.13
 42
-0.4142140000000044
 10
483.328186
 20
-68.63
 10
483.328186
 20
-52.53
 10
478.882029
 20
-52.53
 42
-0.4142140000000044
 10
478.382029
 20
-52.03
 10
478.382029
 20
-51.53
 42
-0.4142140000000045
 10
478.882029
 20
-51.03
  0
LWPOLYLINE
  5
53
100
AcDbEntity
  8
0
  6
CONTINUOUS
 62
   40
370
   -1
100
AcDbPolyline
 90
  106
 70
    1
 43
0
 10
485.7281859999999
 20
-80.32999999999998
 42
-0.4142140000000001
 10
485.5281859999999
 20
-80.53
 10
484.9281859999999
 20
-80.53
 10
484.9281859999999
 20
-95.53
 10
485.5281859999999
 20
-95.53
 42
-0.4142140000000001
 10
485.7281859999999
 20
-95.73
 10
485.7281859999999
 20
-122.63
 42
-0.4142140000000043
 10
485.2281859999999
 20
-123.13
 10
484.628186
 20
-123.13
 42
-0.1989120000000054
 10
484.2746329999999
 20
-122.983553
 42
-0.1989120000000078
 10
484.128186
 20
-122.63
 10
484.128186
 20
-97.63
 42
0.4142140000000043
 10
483.628186
 20
-97.13
 10
480.628186
 20
-97.13
 42
0.4142140000000045
 10
480.128186
 20
-97.63
 10
480.128186
 20
-99.48355300000001
 10
480.4281859999999
 20
-99.783553
 10
480.128186
 20
-100.083553
 10
480.4281859999999
 20
-100.383553
 10
480.128186
 20
-100.683553
 10
480.4281859999999
 20
-100.983553
 10
480.128186
 20
-101.283553
 10
480.4281859999999
 20
-101.583553
 10
480.128186
 20
-101.883553
 10
480.4281859999999
 20
-102.183553
 10
480.128186
 20
-102.483553
 10
480.4281859999999
 20
-102.783553
 10
480.128186
 20
-103.083553
 10
480.128186
 20
-104.63
 42
-0.4142140000000043
 10
479.628186
 20
-105.13
 10
473.17704
 20
-105.13
 10
472.9770399999999
 20
-104.93
 10
472.7770399999999
 20
-105.13
 10
465.17704
 20
-105.13
 10
464.97704
 20
-104.93
 10
464.7770399999999
 20
-105.13
 10
457.17704
 20
-105.13
 10
456.97704
 20
-104.93
 10
456.7770399999999
 20
-105.13
 10
451.928101
 20
-105.13
 42
-0.4142140000000044
 10
451.428101
 20
-104.63
 10
451.428101
 20
-103.930021
 42
-0.4142140000000045
 10
451.928101
 20
-103.430021
 10
452.728186
 20
-103.430021
 42
0.4142140000000043
 10
453.228186
 20
-102.930021
 10
453.228186
 20
-101.130021
 42
0.4142140000000043
 10
452.728186
 20
-100.630021
 10
450.028186
 20
-100.630021
 10
449.5479369999999
 20
-100.061022
 42
0.3595079999999888
 10
449.182985
 20
-100.173979
 42
-0.2637250000000148
 10
448.91981
 20
-100.30922
 10
447.4196949999999
 20
-100.247658
 42
-0.5486189999999647
 10
447.165531
 20
-99.81008300000002
 10
448.256469
 20
-97.70094800000001
 42
-0.1763269999999917
 10
448.407404
 20
-97.561913
 10
448.882153
 20
-97.36380800000001
 42
-0.5773499999999512
 10
449.15753
 20
-97.57396900000001
 10
449.135139
 20
-97.74755399999999
 42
0.267948999999975
 10
449.2121589999999
 20
-97.932129
 10
451.043836
 20
-99.33002100000002
 10
451.2281859999999
 20
-99.330021
 42
0.720759000000054
 10
451.3481859999999
 20
-98.97002099999999
 42
-0.2360679999999885
 10
451.2281859999999
 20
-98.73002099999999
 10
451.2281859999999
 20
-94.73002099999999
 42
0.4142139999999934
 10
450.9281859999999
 20
-94.43002099999998
 10
450.628186
 20
-94.430021
 10
449.032388
 20
-95.40409999999997
 42
-0.5855240000000268
 10
448.728186
 20
-95.23338999999999
 10
448.7281859999999
 20
-93.807807
 42
-0.2614130000000122
 10
449.2071769999999
 20
-92.95425599999996
 10
450.749196
 20
-92.01300299999998
 42
0.2502009999999984
 10
451.2281859999999
 20
-91.19841499999998
 10
451.2281859999999
 20
-91.16672499999999
 10
451.2281859999999
 20
-53.84561
 42
0.2614129999999948
 10
450.988691
 20
-53.418834
 10
449.1651899999999
 20
-52.30576500000002
 42
-0.2614130000000101
 10
448.6861999999999
 20
-51.452214
 10
448.6862
 20
-50.026631
 42
-0.585524000000036
 10
448.9904019999999
 20
-49.85592100000002
 10
450.5862
 20
-50.83
 10
450.8861999999999
 20
-50.83
 42
0.4142139999999795
 10
451.1861999999999
 20
-50.53
 10
451.1861999999999
 20
-46.53
 42
-0.2360679999999875
 10
451.3061999999999
 20
-46.29000000000002
 42
0.7207590000000699
 10
451.1861999999999
 20
-45.92999999999999
 10
451.00185
 20
-45.92999999999999
 10
449.1701729999999
 20
-47.327892
 42
0.2679489999999969
 10
449.093153
 20
-47.512467
 10
449.115543
 20
-47.68605199999999
 42
-0.5773499999999716
 10
448.840167
 20
-47.89621300000001
 10
448.365417
 20
-47.69810799999999
 42
-0.1763269999999973
 10
448.214483
 20
-47.55907299999999
 10
447.123545
 20
-45.449938
 42
-0.5486190000000134
 10
447.3777089999999
 20
-45.012363
 10
448.877824
 20
-44.950801
 42
-0.2637250000000046
 10
449.140998
 20
-45.08604199999999
 42
0.3595079999999988
 10
449.5059509999999
 20
-45.19899899999999
 10
449.9862
 20
-44.63
 10
485.2281859999999
 20
-44.63
 42
-0.4142140000000043
 10
485.7281859999999
 20
-45.13
 10
485.7281859999999
 20
-52.33
 42
-0.4142140000000001
 10
485.5281859999999
 20
-52.53
 10
484.828186
 20
-52.53
 10
484.828186
 20
-67.53
 10
485.5281859999999
 20
-67.53
 42
-0.4142140000000001
 10
485.7281859999999
 20
-67.73
  0
LWPOLYLINE
  5
54
100
AcDbEntity
  8
0
  6
CONTINUOUS
 62
    4
370
   -1
100
AcDbPolyline
 90
   40
 70
    1
 43
0
 10
446.4333639999999
 20
-100.630021
 10
436.0230089999999
 20
-100.630021
 42
-0.2962130000000133
 10
435.748945
 20
-100.452042
 10
434.616264
 20
-97.90800000000002
 42
0.2962129999999885
 10
434.342201
 20
-97.73002099999999
 10
434.22293
 20
-97.73002099999999
 42
0.1316550000000006
 10
433.62292
 20
-97.89079599999998
 10
432.065751
 20
-98.78982800000001
 42
-0.1316519999999992
 10
431.915751
 20
-98.830021
 10
431.628186
 20
-98.830021
 42
-0.4142139999999794
 10
431.2281859999999
 20
-98.430021
 10
431.2281859999999
 20
-95.030021
 42
-0.4142139999999795
 10
431.628186
 20
-94.630021
 10
431.915751
 20
-94.63002099999999
 42
-0.1316520000000025
 10
432.065751
 20
-94.670213
 10
433.62293
 20
-95.56925099999998
 42
0.1316519999999994
 10
434.22293
 20
-95.73002099999999
 10
435.533833
 20
-95.73002099999999
 42
-0.2956150000000264
 10
435.8076270000001
 20
-95.90739699999999
 10
437.073747
 20
-98.73439399999998
 42
0.2956149999999923
 10
437.530071
 20
-99.030021
 10
444.926576
 20
-99.03002100000002
 42
0.2962130000000038
 10
445.383349
 20
-98.733389
 10
446.641293
 20
-95.908
 42
-0.2962129999999826
 10
446.9153569999999
 20
-95.73002099999999
 10
448.2334419999999
 20
-95.73002099999998
 42
0.1316519999999976
 10
448.833442
 20
-95.56925099999997
 10
450.390622
 20
-94.670213
 42
-0.1316520000000025
 10
450.540622
 20
-94.63002099999999
 10
450.828186
 20
-94.630021
 42
-0.4142140000000001
 10
451.2281859999999
 20
-95.030021
 10
451.2281859999999
 20
-98.430021
 42
-0.4142140000000001
 10
450.828186
 20
-98.830021
 10
450.540622
 20
-98.830021
 42
-0.1316519999999992
 10
450.390622
 20
-98.78982800000001
 10
448.833442
 20
-97.89079000000001
 42
0.1316519999999985
 10
448.2334419999999
 20
-97.73002100000001
 10
448.114172
 20
-97.73002099999998
 42
0.2962130000000269
 10
447.8401079999999
 20
-97.90799999999999
 10
446.707428
 20
-100.452042
 42
-0.2962130000000009
  0
LWPOLYLINE
  5
55
100
AcDbEntity
  8
0
  6
CONTINUOUS
 62
    4
370
   -1
100
AcDbPolyline
 90
   40
 70
    1
 43
0
 10
435.9810219999999
 20
-44.82999999999999
 10
446.3913779999999
 20
-44.82999999999999
 42
-0.2962130000000047
 10
446.665441
 20
-45.007979
 10
447.798122
 20
-47.55202100000001
 42
0.2962130000000074
 10
448.072185
 20
-47.72999999999999
 10
448.1914559999999
 20
-47.72999999999999
 42
0.1316520000000001
 10
448.791456
 20
-47.56922999999999
 10
450.348636
 20
-46.67019200000001
 42
-0.1316519999999964
 10
450.498636
 20
-46.63
 10
450.7862
 20
-46.63
 42
-0.4142140000000001
 10
451.1861999999999
 20
-47.03
 10
451.1861999999999
 20
-50.43
 42
-0.4142139999999949
 10
450.7862
 20
-50.83
 10
450.498636
 20
-50.83000000000001
 42
-0.1316519999999994
 10
450.348636
 20
-50.78980799999999
 10
448.791456
 20
-49.89076999999999
 42
0.1316520000000007
 10
448.1914559999999
 20
-49.72999999999999
 10
446.87337
 20
-49.72999999999999
 42
-0.2962130000000074
 10
446.599307
 20
-49.55202100000002
 10
445.341362
 20
-46.726632
 42
0.2962129999999957
 10
444.88459
 20
-46.43
 10
437.488085
 20
-46.42999999999999
 42
0.2956149999999939
 10
437.0317599999999
 20
-46.72562700000001
 10
435.765641
 20
-49.55262399999999
 42
-0.2956149999999902
 10
435.491847
 20
-49.73
 10
434.180944
 20
-49.72999999999999
 42
0.131652
 10
433.580944
 20
-49.89077
 10
432.023764
 20
-50.78980799999998
 42
-0.131651999999996
 10
431.873764
 20
-50.83000000000001
 10
431.5862
 20
-50.83
 42
-0.4142140000000158
 10
431.1861999999999
 20
-50.43
 10
431.1861999999999
 20
-47.03
 42
-0.4142140000000211
 10
431.5862
 20
-46.63
 10
431.873764
 20
-46.63
 42
-0.131651999999993
 10
432.023764
 20
-46.67019200000002
 10
433.580944
 20
-47.56922999999998
 42
0.1316519999999994
 10
434.180944
 20
-47.72999999999999
 10
434.300215
 20
-47.72999999999999
 42
0.2962130000000074
 10
434.574278
 20
-47.55202100000001
 10
435.706959
 20
-45.00797899999998
 42
-0.2962130000000172
  0
ENDBLK
  5
4F
330
4D
100
AcDbEntity
  8
0
100
AcDbBlockEnd
  0
ENDSEC
  0
SECTION
  2
ENTITIES
  0
INSERT
  5
56
100
AcDbEntity
  8
0
  6
ByBlock
 62
  256
370
   -1
100
AcDbBlockReference
  2
ALUMIL-S67032
 10
-24.27183482961294
 20
1.464267955039588
 30
0
 41
1
 42
1
 43
0
 50
0
 70
    1
 71
    1
 44
0
 45
0
  0
ENDSEC
  0
SECTION
  2
OBJECTS
  0
DICTIONARY
  5
C
330
0
100
AcDbDictionary
281
    1
  3
ACAD_GROUP
350
D
  0
DICTIONARY
  5
D
330
C
100
AcDbDictionary
281
    1
  0
PLOTSETTINGS
  5
57
100
AcDbPlotSettings
  6
1x1
 40
0
 41
0
 42
0
 43
0
  0
ENDSEC
  0
EOF
