999
dxfrw 0.6.3
  0
SECTION
  2
HEADER
  9
$ACADVER
  1
AC1021
  9
$DWGCODEPAGE
  3
ANSI_1254
  9
$INSBASE
 10
0
 20
0
 30
0
  9
$EXTMIN
 10
10000000000
 20
10000000000
 30
0
  9
$EXTMAX
 10
-10000000000
 20
-10000000000
 30
0
  9
$LIMMIN
 10
685.5
 20
-185.5
  9
$LIMMAX
 10
750.2999879999999
 20
-101.800018
  9
$ORTHOMODE
 70
    0
  9
$REGENMODE
 70
    1
  9
$FILLMODE
 70
    1
  9
$QTEXTMODE
 70
    0
  9
$MIRRTEXT
 70
    0
  9
$LTSCALE
 40
1
  9
$ATTMODE
 70
    1
  9
$TEXTSIZE
 40
0.2
  9
$TRACEWID
 40
0.05
  9
$TEXTSTYLE
  7
STANDARD
  9
$CLAYER
  8
0
  9
$CELTYPE
  6
ByBlock
  9
$CECOLOR
 62
  256
  9
$CELTSCALE
 40
1
  9
$DISPSILH
 70
    0
  9
$DIMSCALE
 40
1
  9
$DIMASZ
 40
0.18
  9
$DIMEXO
 40
0.0625
  9
$DIMDLI
 40
0.38
  9
$DIMRND
 40
0
  9
$DIMDLE
 40
0
  9
$DIMEXE
 40
0.18
  9
$DIMTP
 40
0
  9
$DIMTM
 40
0
  9
$DIMTXT
 40
0.18
  9
$DIMCEN
 40
0.09
  9
$DIMTSZ
 40
0
  9
$DIMTOL
 70
    0
  9
$DIMLIM
 70
    0
  9
$DIMTIH
 70
    1
  9
$DIMTOH
 70
    1
  9
$DIMSE1
 70
    0
  9
$DIMSE2
 70
    0
  9
$DIMTAD
 70
    0
  9
$DIMZIN
 70
    0
  9
$DIMBLK
  1

  9
$DIMASO
 70
    1
  9
$DIMSHO
 70
    1
  9
$DIMPOST
  1

  9
$DIMAPOST
  1

  9
$DIMALT
 70
    0
  9
$DIMALTD
 70
    2
  9
$DIMALTF
 40
25.4
  9
$DIMLFAC
 40
1
  9
$DIMTOFL
 70
    0
  9
$DIMTVP
 40
0
  9
$DIMTIX
 70
    0
  9
$DIMSOXD
 70
    0
  9
$DIMSAH
 70
    0
  9
$DIMBLK1
  1

  9
$DIMBLK2
  1

  9
$DIMSTYLE
  2
ORGADATA
  9
$DIMCLRD
 70
    0
  9
$DIMCLRE
 70
    0
  9
$DIMCLRT
 70
    0
  9
$DIMTFAC
 40
1
  9
$DIMGAP
 40
0.09
  9
$DIMJUST
 70
    0
  9
$DIMSD1
 70
    0
  9
$DIMSD2
 70
    0
  9
$DIMTOLJ
 70
    1
  9
$DIMTZIN
 70
    0
  9
$DIMALTZ
 70
    0
  9
$DIMALTTZ
 70
    0
  9
$DIMUPT
 70
    0
  9
$DIMDEC
 70
    4
  9
$DIMTDEC
 70
    4
  9
$DIMALTU
 70
    2
  9
$DIMALTTD
 70
    2
  9
$DIMTXSTY
  7
STANDARD
  9
$DIMAUNIT
 70
    0
  9
$DIMADEC
 70
    0
  9
$DIMALTRND
 40
0
  9
$DIMAZIN
 70
    0
  9
$DIMDSEP
 70
   46
  9
$DIMATFIT
 70
    3
  9
$DIMFRAC
 70
    0
  9
$DIMLDRBLK
  1

  9
$DIMLUNIT
 70
    2
  9
$DIMLWD
 70
   -2
  9
$DIMLWE
 70
   -2
  9
$DIMTMOVE
 70
    2
  9
$DIMFXL
 40
1
  9
$DIMFXLON
 70
    0
  9
$DIMJOGANG
 40
0.7853981633974483
  9
$DIMTFILL
 70
    0
  9
$DIMTFILLCLR
 70
    0
  9
$DIMARCSYM
 70
    0
  9
$DIMLTYPE
  6

  9
$DIMLTEX1
  6

  9
$DIMLTEX2
  6

  9
$LUNITS
 70
    2
  9
$LUPREC
 70
    4
  9
$SKETCHINC
 40
0.1
  9
$FILLETRAD
 40
0.5
  9
$AUNITS
 70
    0
  9
$AUPREC
 70
    0
  9
$MENU
  1
.
  9
$ELEVATION
 40
0
  9
$PELEVATION
 40
0
  9
$THICKNESS
 40
0
  9
$LIMCHECK
 70
    0
  9
$CHAMFERA
 40
0
  9
$CHAMFERB
 40
0
  9
$CHAMFERC
 40
0
  9
$CHAMFERD
 40
0
  9
$SKPOLY
 70
    0
  9
$USRTIMER
 70
    1
  9
$ANGBASE
 50
0
  9
$ANGDIR
 70
    0
  9
$PDMODE
 70
    0
  9
$PDSIZE
 40
0
  9
$PLINEWID
 40
0
  9
$SPLFRAME
 70
    0
  9
$SPLINETYPE
 70
    6
  9
$SPLINESEGS
 70
    8
  9
$HANDSEED
  5
20000
  9
$SURFTAB1
 70
    6
  9
$SURFTAB2
 70
    6
  9
$SURFTYPE
 70
    6
  9
$SURFU
 70
    6
  9
$SURFV
 70
    6
  9
$UCSBASE
  2

  9
$UCSNAME
  2

  9
$UCSORG
 10
0
 20
0
 30
0
  9
$UCSXDIR
 10
1
 20
0
 30
0
  9
$UCSYDIR
 10
0
 20
1
 30
0
  9
$UCSORTHOREF
  2

  9
$UCSORTHOVIEW
 70
    0
  9
$UCSORGTOP
 10
0
 20
0
 30
0
  9
$UCSORGBOTTOM
 10
0
 20
0
 30
0
  9
$UCSORGLEFT
 10
0
 20
0
 30
0
  9
$UCSORGRIGHT
 10
0
 20
0
 30
0
  9
$UCSORGFRONT
 10
0
 20
0
 30
0
  9
$UCSORGBACK
 10
0
 20
0
 30
0
  9
$PUCSBASE
  2

  9
$PUCSNAME
  2

  9
$PUCSORG
 10
0
 20
0
 30
0
  9
$PUCSXDIR
 10
1
 20
0
 30
0
  9
$PUCSYDIR
 10
0
 20
1
 30
0
  9
$PUCSORTHOREF
  2

  9
$PUCSORTHOVIEW
 70
    0
  9
$PUCSORGTOP
 10
0
 20
0
 30
0
  9
$PUCSORGBOTTOM
 10
0
 20
0
 30
0
  9
$PUCSORGLEFT
 10
0
 20
0
 30
0
  9
$PUCSORGRIGHT
 10
0
 20
0
 30
0
  9
$PUCSORGFRONT
 10
0
 20
0
 30
0
  9
$PUCSORGBACK
 10
0
 20
0
 30
0
  9
$USERI1
 70
    0
  9
$USERI2
 70
    0
  9
$USERI3
 70
    0
  9
$USERI4
 70
    0
  9
$USERI5
 70
    0
  9
$USERR1
 40
0
  9
$USERR2
 40
0
  9
$USERR3
 40
0
  9
$USERR4
 40
0
  9
$USERR5
 40
0
  9
$WORLDVIEW
 70
    0
  9
$SHADEDGE
 70
    3
  9
$SHADEDIF
 70
   70
  9
$TILEMODE
 70
    1
  9
$MAXACTVP
 70
   64
  9
$PINSBASE
 10
0
 20
0
 30
0
  9
$PLIMCHECK
 70
    0
  9
$PEXTMIN
 10
1e+20
 20
1e+20
 30
1e+20
  9
$PEXTMAX
 10
-1e+20
 20
-1e+20
 30
-1e+20
  9
$GRIDMODE
 70
    0
  9
$SNAPSTYLE
 70
    0
  9
$PLIMMIN
 10
0
 20
0
  9
$PLIMMAX
 10
12
 20
9
  9
$UNITMODE
 70
    0
  9
$VISRETAIN
 70
    1
  9
$PLINEGEN
 70
    0
  9
$PSLTSCALE
 70
    1
  9
$TREEDEPTH
 70
 3020
  9
$CMLSTYLE
  2
Standard
  9
$CMLJUST
 70
    0
  9
$CMLSCALE
 40
1
  9
$PROXYGRAPHICS
 70
    1
  9
$MEASUREMENT
 70
    1
  9
$CELWEIGHT
370
   -1
  9
$ENDCAPS
280
    0
  9
$JOINSTYLE
280
    0
  9
$LWDISPLAY
290
    0
  9
$INSUNITS
 70
    0
  9
$HYPERLINKBASE
  1

  9
$STYLESHEET
  1

  9
$XEDIT
290
    1
  9
$CEPSNTYPE
380
    0
  9
$PSTYLEMODE
290
    1
  9
$EXTNAMES
290
    1
  9
$PSVPSCALE
 40
0
  9
$OLESTARTUP
290
    0
  9
$SORTENTS
280
  127
  9
$INDEXCTL
280
    0
  9
$HIDETEXT
280
    1
  9
$XCLIPFRAME
290
    0
  9
$HALOGAP
280
    0
  9
$OBSCOLOR
 70
  257
  9
$OBSLTYPE
280
    0
  9
$INTERSECTIONDISPLAY
280
    0
  9
$INTERSECTIONCOLOR
 70
  257
  9
$DIMASSOC
280
    2
  9
$PROJECTNAME
  1

  9
$CAMERADISPLAY
290
    0
  9
$LENSLENGTH
 40
50
  9
$CAMERAHEIGHT
 40
0
  9
$STEPSPERSEC
 40
2
  9
$STEPSIZE
 40
6
  9
$3DDWFPREC
 40
2
  9
$PSOLWIDTH
 40
0.25
  9
$PSOLHEIGHT
 40
4
  9
$LOFTANG1
 40
1.570796326794896
  9
$LOFTANG2
 40
1.570796326794896
  9
$LOFTMAG1
 40
0
  9
$LOFTMAG2
 40
0
  9
$LOFTPARAM
 70
    7
  9
$LOFTNORMALS
280
    1
  9
$LATITUDE
 40
37.795
  9
$LONGITUDE
 40
-122.394
  9
$NORTHDIRECTION
 40
0
  9
$TIMEZONE
 70
-8000
  9
$LIGHTGLYPHDISPLAY
280
    1
  9
$TILEMODELIGHTSYNCH
280
    1
  9
$SOLIDHIST
280
    0
  9
$SHOWHIST
280
    1
  9
$DWFFRAME
280
    2
  9
$DGNFRAME
280
    0
  9
$REALWORLDSCALE
290
    1
  9
$INTERFERECOLOR
 62
    1
  9
$CSHADOW
280
    0
  9
$SHADOWPLANELOCATION
 40
0
  0
ENDSEC
  0
SECTION
  2
CLASSES
  0
ENDSEC
  0
SECTION
  2
TABLES
  0
TABLE
  2
VPORT
  5
8
330
0
100
AcDbSymbolTable
 70
    1
  0
VPORT
  5
31
330
2
100
AcDbSymbolTableRecord
100
AcDbViewportTableRecord
  2
*ACTIVE
 70
    0
 10
0
 20
0
 11
1
 21
1
 12
91.313024038755
 22
57.86171820277545
 13
0
 23
0
 14
10
 24
10
 15
10
 25
10
 16
0
 26
0
 36
1
 17
0
 27
0
 37
0
 40
165.1469873704216
 41
1.924574209245742
 42
50
 43
0
 44
0
 50
0
 51
0
 71
    0
 72
  100
 73
    1
 74
    3
 75
    0
 76
    0
 77
    0
 78
    0
281
    0
 65
    1
110
0
120
0
130
0
111
1
121
0
131
0
112
0
122
1
132
0
 79
    0
146
0
348
10020
 60
    7
 61
    5
292
1
282
    1
141
0
142
0
 63
  250
421
3358443
  0
ENDTAB
  0
TABLE
  2
LTYPE
  5
5
330
0
100
AcDbSymbolTable
 70
    4
  0
LTYPE
  5
14
330
5
100
AcDbSymbolTableRecord
100
AcDbLinetypeTableRecord
  2
ByBlock
 70
    0
  3

 72
   65
 73
    0
 40
0
  0
LTYPE
  5
15
330
5
100
AcDbSymbolTableRecord
100
AcDbLinetypeTableRecord
  2
ByLayer
 70
    0
  3

 72
   65
 73
    0
 40
0
  0
LTYPE
  5
16
330
5
100
AcDbSymbolTableRecord
100
AcDbLinetypeTableRecord
  2
Continuous
 70
    0
  3
Solid line
 72
   65
 73
    0
 40
0
  0
LTYPE
  5
32
330
5
100
AcDbSymbolTableRecord
100
AcDbLinetypeTableRecord
  2
DOT
 70
    0
  3
Dot . . . . . . . . . . . . . . . . . . . . . .
 72
   65
 73
    2
 40
6.35
 49
0
 74
    0
 49
-6.35
 74
    0
  0
LTYPE
  5
33
330
5
100
AcDbSymbolTableRecord
100
AcDbLinetypeTableRecord
  2
DOTTINY
 70
    0
  3
Dot (.15x) .....................................
 72
   65
 73
    2
 40
0.9525
 49
0
 74
    0
 49
-0.9525
 74
    0
  0
LTYPE
  5
34
330
5
100
AcDbSymbolTableRecord
100
AcDbLinetypeTableRecord
  2
DOT2
 70
    0
  3
Dot (.5x) .....................................
 72
   65
 73
    2
 40
3.175
 49
0
 74
    0
 49
-3.175
 74
    0
  0
LTYPE
  5
35
330
5
100
AcDbSymbolTableRecord
100
AcDbLinetypeTableRecord
  2
DOTX2
 70
    0
  3
Dot (2x) .  .  .  .  .  .  .  .  .  .  .  .  .
 72
   65
 73
    2
 40
12.7
 49
0
 74
    0
 49
-12.7
 74
    0
  0
LTYPE
  5
36
330
5
100
AcDbSymbolTableRecord
100
AcDbLinetypeTableRecord
  2
DASHED
 70
    0
  3
Dashed _ _ _ _ _ _ _ _ _ _ _ _ _ _ _ _ _
 72
   65
 73
    2
 40
19.05
 49
12.7
 74
    0
 49
-6.35
 74
    0
  0
LTYPE
  5
37
330
5
100
AcDbSymbolTableRecord
100
AcDbLinetypeTableRecord
  2
DASHEDTINY
 70
    0
  3
Dashed (.15x) _ _ _ _ _ _ _ _ _ _ _ _ _ _ _ _ _
 72
   65
 73
    2
 40
2.8575
 49
1.905
 74
    0
 49
-0.9525
 74
    0
  0
LTYPE
  5
38
330
5
100
AcDbSymbolTableRecord
100
AcDbLinetypeTableRecord
  2
DASHED2
 70
    0
  3
Dashed (.5x) _ _ _ _ _ _ _ _ _ _ _ _ _ _ _ _ _
 72
   65
 73
    2
 40
9.524999999999999
 49
6.35
 74
    0
 49
-3.175
 74
    0
  0
LTYPE
  5
39
330
5
100
AcDbSymbolTableRecord
100
AcDbLinetypeTableRecord
  2
DASHEDX2
 70
    0
  3
Dashed (2x) ____  ____  ____  ____  ____  ___
 72
   65
 73
    2
 40
38.09999999999999
 49
25.4
 74
    0
 49
-12.7
 74
    0
  0
LTYPE
  5
3A
330
5
100
AcDbSymbolTableRecord
100
AcDbLinetypeTableRecord
  2
DASHDOT
 70
    0
  3
Dash dot __ . __ . __ . __ . __ . __ . __ . __
 72
   65
 73
    4
 40
25.4
 49
12.7
 74
    0
 49
-6.35
 74
    0
 49
0
 74
    0
 49
-6.35
 74
    0
  0
LTYPE
  5
3B
330
5
100
AcDbSymbolTableRecord
100
AcDbLinetypeTableRecord
  2
DASHDOTTINY
 70
    0
  3
Dash dot (.15x) _._._._._._._._._._._._._._._.
 72
   65
 73
    4
 40
3.81
 49
1.905
 74
    0
 49
-0.9525
 74
    0
 49
0
 74
    0
 49
-0.9525
 74
    0
  0
LTYPE
  5
3C
330
5
100
AcDbSymbolTableRecord
100
AcDbLinetypeTableRecord
  2
DASHDOT2
 70
    0
  3
Dash dot (.5x) _._._._._._._._._._._._._._._.
 72
   65
 73
    4
 40
12.7
 49
6.35
 74
    0
 49
-3.175
 74
    0
 49
0
 74
    0
 49
-3.175
 74
    0
  0
LTYPE
  5
3D
330
5
100
AcDbSymbolTableRecord
100
AcDbLinetypeTableRecord
  2
DASHDOTX2
 70
    0
  3
Dash dot (2x) ____  .  ____  .  ____  .  ___
 72
   65
 73
    4
 40
50.8
 49
25.4
 74
    0
 49
-12.7
 74
    0
 49
0
 74
    0
 49
-12.7
 74
    0
  0
LTYPE
  5
3E
330
5
100
AcDbSymbolTableRecord
100
AcDbLinetypeTableRecord
  2
DIVIDE
 70
    0
  3
Divide ____ . . ____ . . ____ . . ____ . . ____
 72
   65
 73
    6
 40
31.75
 49
12.7
 74
    0
 49
-6.35
 74
    0
 49
0
 74
    0
 49
-6.35
 74
    0
 49
0
 74
    0
 49
-6.35
 74
    0
  0
LTYPE
  5
3F
330
5
100
AcDbSymbolTableRecord
100
AcDbLinetypeTableRecord
  2
DIVIDETINY
 70
    0
  3
Divide (.15x) __..__..__..__..__..__..__..__.._
 72
   65
 73
    6
 40
4.7625
 49
1.905
 74
    0
 49
-0.9525
 74
    0
 49
0
 74
    0
 49
-0.9525
 74
    0
 49
0
 74
    0
 49
-0.9525
 74
    0
  0
LTYPE
  5
40
330
5
100
AcDbSymbolTableRecord
100
AcDbLinetypeTableRecord
  2
DIVIDE2
 70
    0
  3
Divide (.5x) __..__..__..__..__..__..__..__.._
 72
   65
 73
    6
 40
15.875
 49
6.35
 74
    0
 49
-3.175
 74
    0
 49
0
 74
    0
 49
-3.175
 74
    0
 49
0
 74
    0
 49
-3.175
 74
    0
  0
LTYPE
  5
41
330
5
100
AcDbSymbolTableRecord
100
AcDbLinetypeTableRecord
  2
DIVIDEX2
 70
    0
  3
Divide (2x) ________  .  .  ________  .  .  _
 72
   65
 73
    6
 40
63.5
 49
25.4
 74
    0
 49
-12.7
 74
    0
 49
0
 74
    0
 49
-12.7
 74
    0
 49
0
 74
    0
 49
-12.7
 74
    0
  0
LTYPE
  5
42
330
5
100
AcDbSymbolTableRecord
100
AcDbLinetypeTableRecord
  2
BORDER
 70
    0
  3
Border __ __ . __ __ . __ __ . __ __ . __ __ .
 72
   65
 73
    6
 40
44.45
 49
12.7
 74
    0
 49
-6.35
 74
    0
 49
12.7
 74
    0
 49
-6.35
 74
    0
 49
0
 74
    0
 49
-6.35
 74
    0
  0
LTYPE
  5
43
330
5
100
AcDbSymbolTableRecord
100
AcDbLinetypeTableRecord
  2
BORDERTINY
 70
    0
  3
Border (.15x) __.__.__.__.__.__.__.__.__.__.__.
 72
   65
 73
    6
 40
6.6675
 49
1.905
 74
    0
 49
-0.9525
 74
    0
 49
1.905
 74
    0
 49
-0.9525
 74
    0
 49
0
 74
    0
 49
-0.9525
 74
    0
  0
LTYPE
  5
44
330
5
100
AcDbSymbolTableRecord
100
AcDbLinetypeTableRecord
  2
BORDER2
 70
    0
  3
Border (.5x) __.__.__.__.__.__.__.__.__.__.__.
 72
   65
 73
    6
 40
22.225
 49
6.35
 74
    0
 49
-3.175
 74
    0
 49
6.35
 74
    0
 49
-3.175
 74
    0
 49
0
 74
    0
 49
-3.175
 74
    0
  0
LTYPE
  5
45
330
5
100
AcDbSymbolTableRecord
100
AcDbLinetypeTableRecord
  2
BORDERX2
 70
    0
  3
Border (2x) ____  ____  .  ____  ____  .  ___
 72
   65
 73
    6
 40
88.89999999999999
 49
25.4
 74
    0
 49
-12.7
 74
    0
 49
25.4
 74
    0
 49
-12.7
 74
    0
 49
0
 74
    0
 49
-12.7
 74
    0
  0
LTYPE
  5
46
330
5
100
AcDbSymbolTableRecord
100
AcDbLinetypeTableRecord
  2
CENTER
 70
    0
  3
Center ____ _ ____ _ ____ _ ____ _ ____ _ ____
 72
   65
 73
    4
 40
50.8
 49
31.75
 74
    0
 49
-6.35
 74
    0
 49
6.35
 74
    0
 49
-6.35
 74
    0
  0
LTYPE
  5
47
330
5
100
AcDbSymbolTableRecord
100
AcDbLinetypeTableRecord
  2
CENTERTINY
 70
    0
  3
Center (.15x) ___ _ ___ _ ___ _ ___ _ ___ _ ___
 72
   65
 73
    4
 40
7.62
 49
4.7625
 74
    0
 49
-0.9525
 74
    0
 49
0.9525
 74
    0
 49
-0.9525
 74
    0
  0
LTYPE
  5
48
330
5
100
AcDbSymbolTableRecord
100
AcDbLinetypeTableRecord
  2
CENTER2
 70
    0
  3
Center (.5x) ___ _ ___ _ ___ _ ___ _ ___ _ ___
 72
   65
 73
    4
 40
28.575
 49
19.05
 74
    0
 49
-3.175
 74
    0
 49
3.175
 74
    0
 49
-3.175
 74
    0
  0
LTYPE
  5
49
330
5
100
AcDbSymbolTableRecord
100
AcDbLinetypeTableRecord
  2
CENTERX2
 70
    0
  3
Center (2x) ________  __  ________  __  _____
 72
   65
 73
    4
 40
101.6
 49
63.5
 74
    0
 49
-12.7
 74
    0
 49
12.7
 74
    0
 49
-12.7
 74
    0
  0
ENDTAB
  0
TABLE
  2
LAYER
  5
2
330
0
100
AcDbSymbolTable
 70
    1
  0
LAYER
  5
10
330
2
100
AcDbSymbolTableRecord
100
AcDbLayerTableRecord
  2
0
 70
    0
 62
    7
  6
CONTINUOUS
370
   -3
390
F
  0
ENDTAB
  0
TABLE
  2
STYLE
  5
3
330
0
100
AcDbSymbolTable
 70
    3
  0
STYLE
  5
4A
330
2
100
AcDbSymbolTableRecord
100
AcDbTextStyleTableRecord
  2
Standard
 70
    0
 40
0
 41
1
 50
0
 71
    0
 42
1
  3
txt
  4

  0
ENDTAB
  0
TABLE
  2
VIEW
  5
6
330
0
100
AcDbSymbolTable
 70
    0
  0
ENDTAB
  0
TABLE
  2
UCS
  5
7
330
0
100
AcDbSymbolTable
 70
    0
  0
ENDTAB
  0
TABLE
  2
APPID
  5
9
330
0
100
AcDbSymbolTable
 70
    1
  0
APPID
  5
12
330
9
100
AcDbSymbolTableRecord
100
AcDbRegAppTableRecord
  2
ACAD
 70
    0
  0
APPID
  5
4B
330
9
100
AcDbSymbolTableRecord
100
AcDbRegAppTableRecord
  2
LibreCad
 70
    0
  0
ENDTAB
  0
TABLE
  2
DIMSTYLE
  5
A
330
0
100
AcDbSymbolTable
 70
    1
100
AcDbDimStyleTable
 71
    1
  0
DIMSTYLE
105
4C
330
A
100
AcDbSymbolTableRecord
100
AcDbDimStyleTableRecord
  2
Standard
 70
    0
 40
1
 41
0.18
 42
0.0625
 43
0.38
 44
0.18
 45
0
 46
0
 47
0
 48
0
 49
1
140
0.18
141
0.09
142
0
143
25.4
144
1
145
0
146
1
147
0.09
148
0
 71
    0
 72
    0
 73
    1
 74
    1
 75
    0
 76
    0
 77
    0
 78
    0
 79
    0
170
    0
171
    2
172
    0
173
    0
174
    0
175
    0
176
    0
177
    0
178
    0
179
    0
271
    4
272
    4
273
    2
274
    2
275
    0
276
    0
277
    2
278
   46
279
    0
280
    0
281
    0
282
    0
283
    1
284
    0
285
    0
286
    0
288
    0
289
    3
340
STANDARD
341

371
   -2
372
   -2
  0
ENDTAB
  0
TABLE
  2
BLOCK_RECORD
  5
1
330
0
100
AcDbSymbolTable
 70
    2
  0
BLOCK_RECORD
  5
1F
330
1
100
AcDbSymbolTableRecord
100
AcDbBlockTableRecord
  2
*Model_Space
 70
    0
280
    1
281
    0
  0
BLOCK_RECORD
  5
1E
330
1
100
AcDbSymbolTableRecord
100
AcDbBlockTableRecord
  2
*Paper_Space
 70
    0
280
    1
281
    0
  0
BLOCK_RECORD
  5
4D
330
1
100
AcDbSymbolTableRecord
100
AcDbBlockTableRecord
  2
ALUMIL-S67034
 70
    0
280
    1
281
    0
  0
ENDTAB
  0
ENDSEC
  0
SECTION
  2
BLOCKS
  0
BLOCK
  5
20
330
1F
100
AcDbEntity
  8
0
100
AcDbBlockBegin
  2
*Model_Space
 70
    0
 10
0
 20
0
 30
0
  3
*Model_Space
  1

  0
ENDBLK
  5
21
330
1F
100
AcDbEntity
  8
0
100
AcDbBlockEnd
  0
BLOCK
  5
1C
330
1B
100
AcDbEntity
  8
0
100
AcDbBlockBegin
  2
*Paper_Space
 70
    0
 10
0
 20
0
 30
0
  3
*Paper_Space
  1

  0
ENDBLK
  5
1D
330
1F
100
AcDbEntity
  8
0
100
AcDbBlockEnd
  0
BLOCK
  5
4E
330
4D
100
AcDbEntity
  8
0
100
AcDbBlockBegin
  2
ALUMIL-S67034
 70
    0
 10
2356.06
 20
-1079.55
  3
ALUMIL-S67034
  1

  0
LWPOLYLINE
  5
50
100
AcDbEntity
  8
0
  6
CONTINUOUS
 62
   40
370
   -1
100
AcDbPolyline
 90
   31
 70
    1
 43
0
 10
2363.213553
 20
-1052.096447
 42
-0.1989120000000297
 10
2363.36
 20
-1052.45
 10
2363.36
 20
-1059.95
 10
2386.96
 20
-1059.95
 10
2386.96
 20
-1055.950021
 42
-0.4142140000000794
 10
2387.46
 20
-1055.450021
 10
2388.96
 20
-1055.450021
 10
2388.96
 20
-1008.95
 10
2387.413843
 20
-1008.95
 42
-0.4142140000000127
 10
2386.913843
 20
-1008.45
 10
2386.913843
 20
-1007.95
 42
-0.4142140000000128
 10
2387.413843
 20
-1007.45
 10
2388.96
 20
-1007.45
 10
2388.96
 20
-1002.65
 10
2358.16
 20
-1002.65
 42
0.4142140000000128
 10
2357.66
 20
-1003.15
 10
2357.66
 20
-1007.45
 10
2362.906157
 20
-1007.45
 42
-0.4142140000000126
 10
2363.406157
 20
-1007.95
 10
2363.406157
 20
-1008.45
 42
-0.4142140000000126
 10
2362.906157
 20
-1008.95
 10
2358.46
 20
-1008.95
 10
2358.46
 20
-1025.05
 42
-0.4142140000000792
 10
2357.96
 20
-1025.55
 10
2357.66
 20
-1025.55
 10
2357.66
 20
-1035.35
 10
2357.96
 20
-1035.35
 42
-0.4142140000000792
 10
2358.46
 20
-1035.85
 10
2358.46
 20
-1051.45
 42
0.4142140000000794
 10
2358.96
 20
-1051.95
 10
2362.86
 20
-1051.95
 42
-0.1989120000000296
  0
LWPOLYLINE
  5
51
100
AcDbEntity
  8
0
  6
CONTINUOUS
 62
   40
370
   -1
100
AcDbPolyline
 90
  105
 70
    1
 43
0
 10
2356.06
 20
-1036.75
 10
2356.059999999999
 20
-1024.15
 42
-0.414214000000146
 10
2356.26
 20
-1023.95
 10
2356.96
 20
-1023.95
 10
2356.96
 20
-1008.95
 10
2356.26
 20
-1008.95
 42
-0.4142140000004789
 10
2356.059999999999
 20
-1008.75
 10
2356.06
 20
-1001.55
 42
-0.4142140000000128
 10
2356.56
 20
-1001.05
 10
2391.801986
 20
-1001.05
 10
2392.282235
 20
-1001.618999
 42
0.3595079999998519
 10
2392.647187999999
 20
-1001.506042
 42
-0.263725000000004
 10
2392.910362
 20
-1001.370801
 10
2394.410477
 20
-1001.432363
 42
-0.5486190000002978
 10
2394.664641
 20
-1001.869938
 10
2393.573704
 20
-1003.979073
 42
-0.1763269999999109
 10
2393.422769
 20
-1004.118108
 10
2392.94802
 20
-1004.316213
 42
-0.5773500000001115
 10
2392.672643
 20
-1004.106052
 10
2392.695034
 20
-1003.932467
 42
0.2679490000000901
 10
2392.618013
 20
-1003.747892
 10
2390.786336
 20
-1002.35
 10
2390.601986
 20
-1002.35
 42
0.720758999999131
 10
2390.481986
 20
-1002.71
 42
-0.2360680000000887
 10
2390.601986
 20
-1002.95
 10
2390.601986
 20
-1006.95
 42
0.414213999999813
 10
2390.901986
 20
-1007.25
 10
2391.201986
 20
-1007.25
 10
2392.797784
 20
-1006.275921
 42
-0.5855239999997215
 10
2393.101986
 20
-1006.446631
 10
2393.101986
 20
-1007.872214
 42
-0.2614129999999331
 10
2392.622996
 20
-1008.725765
 10
2390.799495
 20
-1009.838834
 42
0.2614129999998854
 10
2390.56
 20
-1010.26561
 10
2390.56
 20
-1047.586725
 10
2390.56
 20
-1047.618415
 42
0.2502009999999453
 10
2391.03899
 20
-1048.433003
 10
2392.58101
 20
-1049.374256
 42
-0.2614129999999028
 10
2393.059999999999
 20
-1050.227807
 10
2393.059999999999
 20
-1051.65339
 42
-0.5855239999998413
 10
2392.755798
 20
-1051.8241
 10
2391.16
 20
-1050.850021
 10
2390.86
 20
-1050.850021
 42
0.4142140000000351
 10
2390.56
 20
-1051.150021
 10
2390.56
 20
-1055.150021
 42
-0.2360680000001089
 10
2390.44
 20
-1055.390021
 42
0.7207589999998218
 10
2390.56
 20
-1055.750021
 10
2390.74435
 20
-1055.750021
 10
2392.576027
 20
-1054.352129
 42
0.2679490000001539
 10
2392.653047
 20
-1054.167554
 10
2392.630657
 20
-1053.993969
 42
-0.5773499999994606
 10
2392.906033
 20
-1053.783808
 10
2393.380783
 20
-1053.981913
 42
-0.1763269999999973
 10
2393.531717
 20
-1054.120948
 10
2394.622655000001
 20
-1056.230083
 42
-0.5486190000001985
 10
2394.368491
 20
-1056.667658
 10
2392.868376
 20
-1056.72922
 42
-0.2637249999998968
 10
2392.605202
 20
-1056.593979
 42
0.3595079999998573
 10
2392.240249
 20
-1056.481022
 10
2391.76
 20
-1057.050021
 10
2389.06
 20
-1057.050021
 42
0.4142140000000794
 10
2388.56
 20
-1057.550021
 10
2388.56
 20
-1059.350021
 42
0.4142140000000794
 10
2389.06
 20
-1059.850021
 10
2389.860085
 20
-1059.850021
 42
-0.4142140000000792
 10
2390.360085
 20
-1060.350021
 10
2390.360085
 20
-1061.05
 42
-0.4142140000000792
 10
2389.860085
 20
-1061.55
 10
2385.011146
 20
-1061.55
 10
2384.811146
 20
-1061.35
 10
2384.611146000001
 20
-1061.55
 10
2377.011146
 20
-1061.55
 10
2376.811146
 20
-1061.35
 10
2376.611146
 20
-1061.55
 10
2369.011146
 20
-1061.55
 10
2368.811146
 20
-1061.35
 10
2368.611146
 20
-1061.55
 10
2362.16
 20
-1061.55
 42
-0.4142140000000794
 10
2361.66
 20
-1061.05
 10
2361.66
 20
-1059.503553
 10
2361.36
 20
-1059.203553
 10
2361.66
 20
-1058.903553
 10
2361.36
 20
-1058.603553
 10
2361.66
 20
-1058.303553
 10
2361.36
 20
-1058.003553
 10
2361.66
 20
-1057.703553
 10
2361.36
 20
-1057.403553
 10
2361.66
 20
-1057.103553
 10
2361.36
 20
-1056.803553
 10
2361.66
 20
-1056.503553
 10
2361.36
 20
-1056.203553
 10
2361.66
 20
-1055.903553
 10
2361.66
 20
-1054.05
 42
0.4142140000000792
 10
2361.16
 20
-1053.55
 10
2358.16
 20
-1053.55
 42
0.4142140000000794
 10
2357.66
 20
-1054.05
 10
2357.66
 20
-1079.05
 42
-0.4142140000000792
 10
2357.16
 20
-1079.55
 10
2356.56
 20
-1079.55
 42
-0.4142140000000794
 10
2356.06
 20
-1079.05
 10
2356.059999999999
 20
-1052.15
 42
-0.414214000000146
 10
2356.26
 20
-1051.95
 10
2356.86
 20
-1051.95
 10
2356.86
 20
-1036.95
 10
2356.26
 20
-1036.95
 42
-0.4142140000001459
  0
LWPOLYLINE
  5
52
100
AcDbEntity
  8
0
  6
CONTINUOUS
 62
   40
370
   -1
100
AcDbPolyline
 90
   20
 70
    1
 43
0
 10
2412.16
 20
-1043.150021
 10
2412.46
 20
-1043.150021
 10
2412.46
 20
-1046.150021
 10
2419.06
 20
-1046.150021
 10
2419.06
 20
-1002.750021
 10
2412.46
 20
-1002.750021
 10
2412.46
 20
-1004.450021
 42
-0.414214000000035
 10
2412.16
 20
-1004.750021
 10
2411.760000000001
 20
-1004.750021
 42
-0.4142140000000348
 10
2411.46
 20
-1004.450021
 10
2411.46
 20
-1002.950021
 42
0.4142140000000126
 10
2410.96
 20
-1002.450021
 10
2402.66
 20
-1002.450021
 42
0.4142140000000128
 10
2402.16
 20
-1002.950021
 10
2402.16
 20
-1010.365818
 42
0.1704839999999763
 10
2402.37957
 20
-1010.991061
 10
2412.24043
 20
-1023.299427
 42
-0.1704839999999763
 10
2412.46
 20
-1023.92467
 10
2412.46
 20
-1026.650021
 10
2412.16
 20
-1026.650021
  0
LWPOLYLINE
  5
53
100
AcDbEntity
  8
0
  6
CONTINUOUS
 62
   40
370
   -1
100
AcDbPolyline
 90
   91
 70
    1
 43
0
 10
2420.86
 20
-996.150021
 10
2420.86
 20
-1048.850021
 42
-0.4142140000000792
 10
2420.36
 20
-1049.350021
 10
2419.56
 20
-1049.350021
 42
-0.414214000000257
 10
2419.26
 20
-1049.050021
 10
2419.26
 20
-1048.050021
 42
0.414214000000035
 10
2418.96
 20
-1047.750021
 10
2412.66
 20
-1047.750021
 42
0.414213999999813
 10
2412.36
 20
-1048.050021
 10
2412.36
 20
-1054.050021
 42
0.414213999999813
 10
2412.66
 20
-1054.350021
 10
2413.56
 20
-1054.350021
 42
-0.414214000000035
 10
2413.86
 20
-1054.650021
 10
2413.86
 20
-1060.850021
 42
-0.4142140000000792
 10
2413.36
 20
-1061.350021
 10
2411.06
 20
-1061.350021
 42
-0.4142140000000794
 10
2410.56
 20
-1060.850021
 10
2410.56
 20
-1060.250021
 42
-0.4142140000000794
 10
2411.06
 20
-1059.750021
 10
2411.86
 20
-1059.750021
 42
0.4142140000000792
 10
2412.36
 20
-1059.250021
 10
2412.36
 20
-1057.550021
 42
0.4142140000000792
 10
2411.86
 20
-1057.050021
 10
2409.36
 20
-1057.050021
 10
2408.879751
 20
-1056.481022
 42
0.3595079999997731
 10
2408.514798000001
 20
-1056.593979
 42
-0.2637249999998575
 10
2408.251624
 20
-1056.72922
 10
2406.751509
 20
-1056.667658
 42
-0.5486190000001984
 10
2406.497345
 20
-1056.230083
 10
2407.588283
 20
-1054.120948
 42
-0.1763269999999973
 10
2407.739217
 20
-1053.981913
 10
2408.213967
 20
-1053.783808
 42
-0.5773500000002569
 10
2408.489343000001
 20
-1053.993969
 10
2408.466953
 20
-1054.167554
 42
0.267949000000154
 10
2408.543973
 20
-1054.352129
 10
2410.37565
 20
-1055.750021
 10
2410.56
 20
-1055.750021
 42
0.7207589999998218
 10
2410.68
 20
-1055.390021
 42
-0.2360680000001086
 10
2410.56
 20
-1055.150021
 10
2410.56
 20
-1051.150021
 42
0.4142139999998131
 10
2410.26
 20
-1050.850021
 10
2409.96
 20
-1050.850021
 10
2408.364202
 20
-1051.8241
 42
-0.5855240000004928
 10
2408.06
 20
-1051.65339
 10
2408.06
 20
-1050.227807
 42
-0.2614129999999028
 10
2408.53899
 20
-1049.374256
 10
2410.08101
 20
-1048.433003
 42
0.2614129999999518
 10
2410.559999999999
 20
-1047.579453
 10
2410.559999999999
 20
-1024.112088
 42
0.170483999999939
 10
2410.34043
 20
-1023.486846
 10
2398.27957
 20
-1008.432431
 42
-0.1704839999999763
 10
2398.06
 20
-1007.807188
 10
2398.059999999999
 20
-1006.650471
 42
-0.5849380000005988
 10
2398.363904
 20
-1006.479579
 10
2399.96
 20
-1007.450021
 10
2400.26
 20
-1007.450021
 42
0.4142139999998131
 10
2400.56
 20
-1007.150021
 10
2400.56
 20
-1003.150021
 42
-0.2360680000001487
 10
2400.68
 20
-1002.910021
 42
0.7207589999998215
 10
2400.56
 20
-1002.550021
 10
2400.37565
 20
-1002.550021
 10
2398.543973
 20
-1003.947913
 42
0.2679489999997415
 10
2398.466953
 20
-1004.132487
 10
2398.489343000001
 20
-1004.306073
 42
-0.5773500000003301
 10
2398.213967
 20
-1004.516234
 10
2397.739217
 20
-1004.318129
 42
-0.1763270000000348
 10
2397.588283
 20
-1004.179094
 10
2396.497345
 20
-1002.069959
 42
-0.5486190000004022
 10
2396.751509
 20
-1001.632384
 10
2398.251624
 20
-1001.570822
 42
-0.2637250000000352
 10
2398.514798000001
 20
-1001.706063
 42
0.3595079999998521
 10
2398.879751
 20
-1001.81902
 10
2399.36
 20
-1001.250021
 10
2399.852893
 20
-1001.250021
 42
0.6681789999994775
 10
2400.206447
 20
-1000.396467
 10
2399.806447
 20
-999.9964669999999
 42
-0.1989119999999359
 10
2399.66
 20
-999.642914
 10
2399.66
 20
-996.150021
 42
-0.4142140000000351
 10
2399.96
 20
-995.850021
 10
2401.260000000001
 20
-995.850021
 10
2403.26
 20
-997.2500209999999
 10
2403.26
 20
-997.8500209999999
 10
2401.260000000001
 20
-997.8500209999999
 10
2401.260000000001
 20
-999.8500209999999
 10
2402.26
 20
-1000.850021
 10
2419.26
 20
-1000.850021
 10
2419.26
 20
-997.8500209999999
 10
2417.260000000001
 20
-997.8500209999999
 10
2417.260000000001
 20
-997.2500209999999
 10
2418.66
 20
-995.850021
 10
2420.56
 20
-995.850021
 42
-0.414214000000035
  0
LWPOLYLINE
  5
54
100
AcDbEntity
  8
0
  6
CONTINUOUS
 62
    4
370
   -1
100
AcDbPolyline
 90
   40
 70
    1
 43
0
 10
2405.765178
 20
-1057.050021
 10
2395.354822
 20
-1057.050021
 42
-0.2962130000001986
 10
2395.080759
 20
-1056.872042
 10
2393.948078
 20
-1054.328
 42
0.2962130000001986
 10
2393.674015
 20
-1054.150021
 10
2393.554744
 20
-1054.150021
 42
0.1316520000000004
 10
2392.954744
 20
-1054.31079
 10
2391.397564
 20
-1055.209828
 42
-0.131651999999933
 10
2391.247564
 20
-1055.250021
 10
2390.96
 20
-1055.250021
 42
-0.4142139999999794
 10
2390.56
 20
-1054.850021
 10
2390.56
 20
-1051.450021
 42
-0.4142139999999795
 10
2390.96
 20
-1051.050021
 10
2391.247564
 20
-1051.050021
 42
-0.1316519999999931
 10
2391.397564
 20
-1051.090213
 10
2392.954744
 20
-1051.989251
 42
0.1316519999999985
 10
2393.554744
 20
-1052.150021
 10
2394.865647
 20
-1052.150021
 42
-0.29561500000002
 10
2395.139441
 20
-1052.327397
 10
2396.40556
 20
-1055.154394
 42
0.2956149999999997
 10
2396.861885
 20
-1055.450021
 10
2404.25839
 20
-1055.450021
 42
0.2962129999999555
 10
2404.715162
 20
-1055.153389
 10
2405.973107
 20
-1052.328
 42
-0.2962129999999896
 10
2406.24717
 20
-1052.150021
 10
2407.565256
 20
-1052.150021
 42
0.1316519999999854
 10
2408.165256
 20
-1051.989251
 10
2409.722436
 20
-1051.090213
 42
-0.1316519999999861
 10
2409.872436000001
 20
-1051.050021
 10
2410.16
 20
-1051.050021
 42
-0.4142139999999793
 10
2410.56
 20
-1051.450021
 10
2410.56
 20
-1054.850021
 42
-0.4142139999999793
 10
2410.16
 20
-1055.250021
 10
2409.872436000001
 20
-1055.250021
 42
-0.1316519999999262
 10
2409.722436
 20
-1055.209828
 10
2408.165256
 20
-1054.31079
 42
0.1316519999999875
 10
2407.565256
 20
-1054.150021
 10
2407.445985
 20
-1054.150021
 42
0.2962130000001986
 10
2407.171922
 20
-1054.328
 10
2406.039241
 20
-1056.872042
 42
-0.2962130000001985
  0
LWPOLYLINE
  5
55
100
AcDbEntity
  8
0
  6
CONTINUOUS
 62
    4
370
   -1
100
AcDbPolyline
 90
   38
 70
    1
 43
0
 10
2395.269568
 20
-1002.35
 10
2395.934404
 20
-1002.35
 42
-0.2586179999999448
 10
2396.358428
 20
-1002.58504
 10
2397.156341
 20
-1003.861968
 42
0.2586180000000317
 10
2397.49556
 20
-1004.05
 10
2397.541217
 20
-1004.05
 42
0.1316519999999845
 10
2397.941217
 20
-1003.94282
 10
2399.764422
 20
-1002.890192
 42
-0.131651999999993
 10
2399.914422
 20
-1002.85
 10
2400.201986
 20
-1002.85
 42
-0.4142139999998961
 10
2400.601986
 20
-1003.25
 10
2400.601986
 20
-1006.65
 42
-0.4142139999998128
 10
2400.201986
 20
-1007.05
 10
2399.914422
 20
-1007.05
 42
-0.1316519999999931
 10
2399.764422
 20
-1007.009808
 10
2397.941217
 20
-1005.95718
 42
0.1316519999999845
 10
2397.541217
 20
-1005.85
 10
2397.412922
 20
-1005.85
 42
-0.2586179999999564
 10
2396.395265
 20
-1005.285903
 10
2396.02601
 20
-1004.694973
 42
0.5543089999999542
 10
2395.177962
 20
-1004.694973
 10
2394.808708
 20
-1005.285903
 42
-0.2586180000000046
 10
2393.79105
 20
-1005.85
 10
2393.662756
 20
-1005.85
 42
0.1316520000000038
 10
2393.262756
 20
-1005.95718
 10
2391.439551
 20
-1007.009808
 42
-0.1316519999999895
 10
2391.289551
 20
-1007.05
 10
2391.001986
 20
-1007.05
 42
-0.414213999999813
 10
2390.601986
 20
-1006.65
 10
2390.601986
 20
-1003.25
 42
-0.4142139999998963
 10
2391.001986
 20
-1002.85
 10
2391.289551
 20
-1002.85
 42
-0.1316519999999896
 10
2391.439551
 20
-1002.890192
 10
2393.262756
 20
-1003.94282
 42
0.131652000000004
 10
2393.662756
 20
-1004.05
 10
2393.708412
 20
-1004.05
 42
0.2586179999999885
 10
2394.047632
 20
-1003.861968
 10
2394.845544
 20
-1002.58504
 42
-0.2586180000000331
  0
ENDBLK
  5
4F
330
4D
100
AcDbEntity
  8
0
100
AcDbBlockEnd
  0
ENDSEC
  0
SECTION
  2
ENTITIES
  0
INSERT
  5
56
100
AcDbEntity
  8
0
  6
ByLayer
 62
    0
370
   -1
100
AcDbBlockReference
  2
ALUMIL-S67034
 10
-0.7938402864160709
 20
0.0136262426510712
 30
0
 41
1
 42
1
 43
0
 50
0
 70
    1
 71
    1
 44
0
 45
0
  0
ENDSEC
  0
SECTION
  2
OBJECTS
  0
DICTIONARY
  5
C
330
0
100
AcDbDictionary
281
    1
  3
ACAD_GROUP
350
D
  0
DICTIONARY
  5
D
330
C
100
AcDbDictionary
281
    1
  0
PLOTSETTINGS
  5
57
100
AcDbPlotSettings
  6
1x1
 40
0
 41
0
 42
0
 43
0
  0
ENDSEC
  0
EOF
