999
dxfrw 0.6.3
  0
SECTION
  2
HEADER
  9
$ACADVER
  1
AC1021
  9
$DWGCODEPAGE
  3
ANSI_1254
  9
$INSBASE
 10
0
 20
0
 30
0
  9
$EXTMIN
 10
10000000000
 20
10000000000
 30
0
  9
$EXTMAX
 10
-10000000000
 20
-10000000000
 30
0
  9
$LIMMIN
 10
380.299988
 20
475.8999939999999
  9
$LIMMAX
 10
447.2999879999999
 20
584.900024
  9
$ORTHOMODE
 70
    0
  9
$REGENMODE
 70
    1
  9
$FILLMODE
 70
    1
  9
$QTEXTMODE
 70
    0
  9
$MIRRTEXT
 70
    0
  9
$LTSCALE
 40
1
  9
$ATTMODE
 70
    1
  9
$TEXTSIZE
 40
0.2
  9
$TRACEWID
 40
0.05
  9
$TEXTSTYLE
  7
STANDARD
  9
$CLAYER
  8
0
  9
$CELTYPE
  6
ByBlock
  9
$CECOLOR
 62
  256
  9
$CELTSCALE
 40
1
  9
$DISPSILH
 70
    0
  9
$DIMSCALE
 40
1
  9
$DIMASZ
 40
0.18
  9
$DIMEXO
 40
0.0625
  9
$DIMDLI
 40
0.38
  9
$DIMRND
 40
0
  9
$DIMDLE
 40
0
  9
$DIMEXE
 40
0.18
  9
$DIMTP
 40
0
  9
$DIMTM
 40
0
  9
$DIMTXT
 40
0.18
  9
$DIMCEN
 40
0.09
  9
$DIMTSZ
 40
0
  9
$DIMTOL
 70
    0
  9
$DIMLIM
 70
    0
  9
$DIMTIH
 70
    1
  9
$DIMTOH
 70
    1
  9
$DIMSE1
 70
    0
  9
$DIMSE2
 70
    0
  9
$DIMTAD
 70
    0
  9
$DIMZIN
 70
    0
  9
$DIMBLK
  1

  9
$DIMASO
 70
    1
  9
$DIMSHO
 70
    1
  9
$DIMPOST
  1

  9
$DIMAPOST
  1

  9
$DIMALT
 70
    0
  9
$DIMALTD
 70
    2
  9
$DIMALTF
 40
25.4
  9
$DIMLFAC
 40
1
  9
$DIMTOFL
 70
    0
  9
$DIMTVP
 40
0
  9
$DIMTIX
 70
    0
  9
$DIMSOXD
 70
    0
  9
$DIMSAH
 70
    0
  9
$DIMBLK1
  1

  9
$DIMBLK2
  1

  9
$DIMSTYLE
  2
ORGADATA
  9
$DIMCLRD
 70
    0
  9
$DIMCLRE
 70
    0
  9
$DIMCLRT
 70
    0
  9
$DIMTFAC
 40
1
  9
$DIMGAP
 40
0.09
  9
$DIMJUST
 70
    0
  9
$DIMSD1
 70
    0
  9
$DIMSD2
 70
    0
  9
$DIMTOLJ
 70
    1
  9
$DIMTZIN
 70
    0
  9
$DIMALTZ
 70
    0
  9
$DIMALTTZ
 70
    0
  9
$DIMUPT
 70
    0
  9
$DIMDEC
 70
    4
  9
$DIMTDEC
 70
    4
  9
$DIMALTU
 70
    2
  9
$DIMALTTD
 70
    2
  9
$DIMTXSTY
  7
STANDARD
  9
$DIMAUNIT
 70
    0
  9
$DIMADEC
 70
    0
  9
$DIMALTRND
 40
0
  9
$DIMAZIN
 70
    0
  9
$DIMDSEP
 70
   46
  9
$DIMATFIT
 70
    3
  9
$DIMFRAC
 70
    0
  9
$DIMLDRBLK
  1

  9
$DIMLUNIT
 70
    2
  9
$DIMLWD
 70
   -2
  9
$DIMLWE
 70
   -2
  9
$DIMTMOVE
 70
    2
  9
$DIMFXL
 40
1
  9
$DIMFXLON
 70
    0
  9
$DIMJOGANG
 40
0.7853981633974483
  9
$DIMTFILL
 70
    0
  9
$DIMTFILLCLR
 70
    0
  9
$DIMARCSYM
 70
    0
  9
$DIMLTYPE
  6

  9
$DIMLTEX1
  6

  9
$DIMLTEX2
  6

  9
$LUNITS
 70
    2
  9
$LUPREC
 70
    4
  9
$SKETCHINC
 40
0.1
  9
$FILLETRAD
 40
0.5
  9
$AUNITS
 70
    0
  9
$AUPREC
 70
    0
  9
$MENU
  1
.
  9
$ELEVATION
 40
0
  9
$PELEVATION
 40
0
  9
$THICKNESS
 40
0
  9
$LIMCHECK
 70
    0
  9
$CHAMFERA
 40
0
  9
$CHAMFERB
 40
0
  9
$CHAMFERC
 40
0
  9
$CHAMFERD
 40
0
  9
$SKPOLY
 70
    0
  9
$USRTIMER
 70
    1
  9
$ANGBASE
 50
0
  9
$ANGDIR
 70
    0
  9
$PDMODE
 70
    0
  9
$PDSIZE
 40
0
  9
$PLINEWID
 40
0
  9
$SPLFRAME
 70
    0
  9
$SPLINETYPE
 70
    6
  9
$SPLINESEGS
 70
    8
  9
$HANDSEED
  5
20000
  9
$SURFTAB1
 70
    6
  9
$SURFTAB2
 70
    6
  9
$SURFTYPE
 70
    6
  9
$SURFU
 70
    6
  9
$SURFV
 70
    6
  9
$UCSBASE
  2

  9
$UCSNAME
  2

  9
$UCSORG
 10
0
 20
0
 30
0
  9
$UCSXDIR
 10
1
 20
0
 30
0
  9
$UCSYDIR
 10
0
 20
1
 30
0
  9
$UCSORTHOREF
  2

  9
$UCSORTHOVIEW
 70
    0
  9
$UCSORGTOP
 10
0
 20
0
 30
0
  9
$UCSORGBOTTOM
 10
0
 20
0
 30
0
  9
$UCSORGLEFT
 10
0
 20
0
 30
0
  9
$UCSORGRIGHT
 10
0
 20
0
 30
0
  9
$UCSORGFRONT
 10
0
 20
0
 30
0
  9
$UCSORGBACK
 10
0
 20
0
 30
0
  9
$PUCSBASE
  2

  9
$PUCSNAME
  2

  9
$PUCSORG
 10
0
 20
0
 30
0
  9
$PUCSXDIR
 10
1
 20
0
 30
0
  9
$PUCSYDIR
 10
0
 20
1
 30
0
  9
$PUCSORTHOREF
  2

  9
$PUCSORTHOVIEW
 70
    0
  9
$PUCSORGTOP
 10
0
 20
0
 30
0
  9
$PUCSORGBOTTOM
 10
0
 20
0
 30
0
  9
$PUCSORGLEFT
 10
0
 20
0
 30
0
  9
$PUCSORGRIGHT
 10
0
 20
0
 30
0
  9
$PUCSORGFRONT
 10
0
 20
0
 30
0
  9
$PUCSORGBACK
 10
0
 20
0
 30
0
  9
$USERI1
 70
    0
  9
$USERI2
 70
    0
  9
$USERI3
 70
    0
  9
$USERI4
 70
    0
  9
$USERI5
 70
    0
  9
$USERR1
 40
0
  9
$USERR2
 40
0
  9
$USERR3
 40
0
  9
$USERR4
 40
0
  9
$USERR5
 40
0
  9
$WORLDVIEW
 70
    0
  9
$SHADEDGE
 70
    3
  9
$SHADEDIF
 70
   70
  9
$TILEMODE
 70
    1
  9
$MAXACTVP
 70
   64
  9
$PINSBASE
 10
0
 20
0
 30
0
  9
$PLIMCHECK
 70
    0
  9
$PEXTMIN
 10
1e+20
 20
1e+20
 30
1e+20
  9
$PEXTMAX
 10
-1e+20
 20
-1e+20
 30
-1e+20
  9
$GRIDMODE
 70
    0
  9
$SNAPSTYLE
 70
    0
  9
$PLIMMIN
 10
0
 20
0
  9
$PLIMMAX
 10
12
 20
9
  9
$UNITMODE
 70
    0
  9
$VISRETAIN
 70
    1
  9
$PLINEGEN
 70
    0
  9
$PSLTSCALE
 70
    1
  9
$TREEDEPTH
 70
 3020
  9
$CMLSTYLE
  2
Standard
  9
$CMLJUST
 70
    0
  9
$CMLSCALE
 40
1
  9
$PROXYGRAPHICS
 70
    1
  9
$MEASUREMENT
 70
    1
  9
$CELWEIGHT
370
   -1
  9
$ENDCAPS
280
    0
  9
$JOINSTYLE
280
    0
  9
$LWDISPLAY
290
    0
  9
$INSUNITS
 70
    0
  9
$HYPERLINKBASE
  1

  9
$STYLESHEET
  1

  9
$XEDIT
290
    1
  9
$CEPSNTYPE
380
    0
  9
$PSTYLEMODE
290
    1
  9
$EXTNAMES
290
    1
  9
$PSVPSCALE
 40
0
  9
$OLESTARTUP
290
    0
  9
$SORTENTS
280
  127
  9
$INDEXCTL
280
    0
  9
$HIDETEXT
280
    1
  9
$XCLIPFRAME
290
    0
  9
$HALOGAP
280
    0
  9
$OBSCOLOR
 70
  257
  9
$OBSLTYPE
280
    0
  9
$INTERSECTIONDISPLAY
280
    0
  9
$INTERSECTIONCOLOR
 70
  257
  9
$DIMASSOC
280
    2
  9
$PROJECTNAME
  1

  9
$CAMERADISPLAY
290
    0
  9
$LENSLENGTH
 40
50
  9
$CAMERAHEIGHT
 40
0
  9
$STEPSPERSEC
 40
2
  9
$STEPSIZE
 40
6
  9
$3DDWFPREC
 40
2
  9
$PSOLWIDTH
 40
0.25
  9
$PSOLHEIGHT
 40
4
  9
$LOFTANG1
 40
1.570796326794896
  9
$LOFTANG2
 40
1.570796326794896
  9
$LOFTMAG1
 40
0
  9
$LOFTMAG2
 40
0
  9
$LOFTPARAM
 70
    7
  9
$LOFTNORMALS
280
    1
  9
$LATITUDE
 40
37.795
  9
$LONGITUDE
 40
-122.394
  9
$NORTHDIRECTION
 40
0
  9
$TIMEZONE
 70
-8000
  9
$LIGHTGLYPHDISPLAY
280
    1
  9
$TILEMODELIGHTSYNCH
280
    1
  9
$SOLIDHIST
280
    0
  9
$SHOWHIST
280
    1
  9
$DWFFRAME
280
    2
  9
$DGNFRAME
280
    0
  9
$REALWORLDSCALE
290
    1
  9
$INTERFERECOLOR
 62
    1
  9
$CSHADOW
280
    0
  9
$SHADOWPLANELOCATION
 40
0
  0
ENDSEC
  0
SECTION
  2
CLASSES
  0
ENDSEC
  0
SECTION
  2
TABLES
  0
TABLE
  2
VPORT
  5
8
330
0
100
AcDbSymbolTable
 70
    1
  0
VPORT
  5
31
330
2
100
AcDbSymbolTableRecord
100
AcDbViewportTableRecord
  2
*ACTIVE
 70
    0
 10
0
 20
0
 11
1
 21
1
 12
295.7827890777491
 22
166.7079335761867
 13
0
 23
0
 14
10
 24
10
 15
10
 25
10
 16
0
 26
0
 36
1
 17
0
 27
0
 37
0
 40
542.7085996024772
 41
1.924574209245742
 42
50
 43
0
 44
0
 50
0
 51
0
 71
    0
 72
  100
 73
    1
 74
    3
 75
    0
 76
    0
 77
    0
 78
    0
281
    0
 65
    1
110
0
120
0
130
0
111
1
121
0
131
0
112
0
122
1
132
0
 79
    0
146
0
348
10020
 60
    7
 61
    5
292
1
282
    1
141
0
142
0
 63
  250
421
3358443
  0
ENDTAB
  0
TABLE
  2
LTYPE
  5
5
330
0
100
AcDbSymbolTable
 70
    4
  0
LTYPE
  5
14
330
5
100
AcDbSymbolTableRecord
100
AcDbLinetypeTableRecord
  2
ByBlock
 70
    0
  3

 72
   65
 73
    0
 40
0
  0
LTYPE
  5
15
330
5
100
AcDbSymbolTableRecord
100
AcDbLinetypeTableRecord
  2
ByLayer
 70
    0
  3

 72
   65
 73
    0
 40
0
  0
LTYPE
  5
16
330
5
100
AcDbSymbolTableRecord
100
AcDbLinetypeTableRecord
  2
Continuous
 70
    0
  3
Solid line
 72
   65
 73
    0
 40
0
  0
LTYPE
  5
32
330
5
100
AcDbSymbolTableRecord
100
AcDbLinetypeTableRecord
  2
DOT
 70
    0
  3
Dot . . . . . . . . . . . . . . . . . . . . . .
 72
   65
 73
    2
 40
6.35
 49
0
 74
    0
 49
-6.35
 74
    0
  0
LTYPE
  5
33
330
5
100
AcDbSymbolTableRecord
100
AcDbLinetypeTableRecord
  2
DOTTINY
 70
    0
  3
Dot (.15x) .....................................
 72
   65
 73
    2
 40
0.9525
 49
0
 74
    0
 49
-0.9525
 74
    0
  0
LTYPE
  5
34
330
5
100
AcDbSymbolTableRecord
100
AcDbLinetypeTableRecord
  2
DOT2
 70
    0
  3
Dot (.5x) .....................................
 72
   65
 73
    2
 40
3.175
 49
0
 74
    0
 49
-3.175
 74
    0
  0
LTYPE
  5
35
330
5
100
AcDbSymbolTableRecord
100
AcDbLinetypeTableRecord
  2
DOTX2
 70
    0
  3
Dot (2x) .  .  .  .  .  .  .  .  .  .  .  .  .
 72
   65
 73
    2
 40
12.7
 49
0
 74
    0
 49
-12.7
 74
    0
  0
LTYPE
  5
36
330
5
100
AcDbSymbolTableRecord
100
AcDbLinetypeTableRecord
  2
DASHED
 70
    0
  3
Dashed _ _ _ _ _ _ _ _ _ _ _ _ _ _ _ _ _
 72
   65
 73
    2
 40
19.05
 49
12.7
 74
    0
 49
-6.35
 74
    0
  0
LTYPE
  5
37
330
5
100
AcDbSymbolTableRecord
100
AcDbLinetypeTableRecord
  2
DASHEDTINY
 70
    0
  3
Dashed (.15x) _ _ _ _ _ _ _ _ _ _ _ _ _ _ _ _ _
 72
   65
 73
    2
 40
2.8575
 49
1.905
 74
    0
 49
-0.9525
 74
    0
  0
LTYPE
  5
38
330
5
100
AcDbSymbolTableRecord
100
AcDbLinetypeTableRecord
  2
DASHED2
 70
    0
  3
Dashed (.5x) _ _ _ _ _ _ _ _ _ _ _ _ _ _ _ _ _
 72
   65
 73
    2
 40
9.524999999999999
 49
6.35
 74
    0
 49
-3.175
 74
    0
  0
LTYPE
  5
39
330
5
100
AcDbSymbolTableRecord
100
AcDbLinetypeTableRecord
  2
DASHEDX2
 70
    0
  3
Dashed (2x) ____  ____  ____  ____  ____  ___
 72
   65
 73
    2
 40
38.09999999999999
 49
25.4
 74
    0
 49
-12.7
 74
    0
  0
LTYPE
  5
3A
330
5
100
AcDbSymbolTableRecord
100
AcDbLinetypeTableRecord
  2
DASHDOT
 70
    0
  3
Dash dot __ . __ . __ . __ . __ . __ . __ . __
 72
   65
 73
    4
 40
25.4
 49
12.7
 74
    0
 49
-6.35
 74
    0
 49
0
 74
    0
 49
-6.35
 74
    0
  0
LTYPE
  5
3B
330
5
100
AcDbSymbolTableRecord
100
AcDbLinetypeTableRecord
  2
DASHDOTTINY
 70
    0
  3
Dash dot (.15x) _._._._._._._._._._._._._._._.
 72
   65
 73
    4
 40
3.81
 49
1.905
 74
    0
 49
-0.9525
 74
    0
 49
0
 74
    0
 49
-0.9525
 74
    0
  0
LTYPE
  5
3C
330
5
100
AcDbSymbolTableRecord
100
AcDbLinetypeTableRecord
  2
DASHDOT2
 70
    0
  3
Dash dot (.5x) _._._._._._._._._._._._._._._.
 72
   65
 73
    4
 40
12.7
 49
6.35
 74
    0
 49
-3.175
 74
    0
 49
0
 74
    0
 49
-3.175
 74
    0
  0
LTYPE
  5
3D
330
5
100
AcDbSymbolTableRecord
100
AcDbLinetypeTableRecord
  2
DASHDOTX2
 70
    0
  3
Dash dot (2x) ____  .  ____  .  ____  .  ___
 72
   65
 73
    4
 40
50.8
 49
25.4
 74
    0
 49
-12.7
 74
    0
 49
0
 74
    0
 49
-12.7
 74
    0
  0
LTYPE
  5
3E
330
5
100
AcDbSymbolTableRecord
100
AcDbLinetypeTableRecord
  2
DIVIDE
 70
    0
  3
Divide ____ . . ____ . . ____ . . ____ . . ____
 72
   65
 73
    6
 40
31.75
 49
12.7
 74
    0
 49
-6.35
 74
    0
 49
0
 74
    0
 49
-6.35
 74
    0
 49
0
 74
    0
 49
-6.35
 74
    0
  0
LTYPE
  5
3F
330
5
100
AcDbSymbolTableRecord
100
AcDbLinetypeTableRecord
  2
DIVIDETINY
 70
    0
  3
Divide (.15x) __..__..__..__..__..__..__..__.._
 72
   65
 73
    6
 40
4.7625
 49
1.905
 74
    0
 49
-0.9525
 74
    0
 49
0
 74
    0
 49
-0.9525
 74
    0
 49
0
 74
    0
 49
-0.9525
 74
    0
  0
LTYPE
  5
40
330
5
100
AcDbSymbolTableRecord
100
AcDbLinetypeTableRecord
  2
DIVIDE2
 70
    0
  3
Divide (.5x) __..__..__..__..__..__..__..__.._
 72
   65
 73
    6
 40
15.875
 49
6.35
 74
    0
 49
-3.175
 74
    0
 49
0
 74
    0
 49
-3.175
 74
    0
 49
0
 74
    0
 49
-3.175
 74
    0
  0
LTYPE
  5
41
330
5
100
AcDbSymbolTableRecord
100
AcDbLinetypeTableRecord
  2
DIVIDEX2
 70
    0
  3
Divide (2x) ________  .  .  ________  .  .  _
 72
   65
 73
    6
 40
63.5
 49
25.4
 74
    0
 49
-12.7
 74
    0
 49
0
 74
    0
 49
-12.7
 74
    0
 49
0
 74
    0
 49
-12.7
 74
    0
  0
LTYPE
  5
42
330
5
100
AcDbSymbolTableRecord
100
AcDbLinetypeTableRecord
  2
BORDER
 70
    0
  3
Border __ __ . __ __ . __ __ . __ __ . __ __ .
 72
   65
 73
    6
 40
44.45
 49
12.7
 74
    0
 49
-6.35
 74
    0
 49
12.7
 74
    0
 49
-6.35
 74
    0
 49
0
 74
    0
 49
-6.35
 74
    0
  0
LTYPE
  5
43
330
5
100
AcDbSymbolTableRecord
100
AcDbLinetypeTableRecord
  2
BORDERTINY
 70
    0
  3
Border (.15x) __.__.__.__.__.__.__.__.__.__.__.
 72
   65
 73
    6
 40
6.6675
 49
1.905
 74
    0
 49
-0.9525
 74
    0
 49
1.905
 74
    0
 49
-0.9525
 74
    0
 49
0
 74
    0
 49
-0.9525
 74
    0
  0
LTYPE
  5
44
330
5
100
AcDbSymbolTableRecord
100
AcDbLinetypeTableRecord
  2
BORDER2
 70
    0
  3
Border (.5x) __.__.__.__.__.__.__.__.__.__.__.
 72
   65
 73
    6
 40
22.225
 49
6.35
 74
    0
 49
-3.175
 74
    0
 49
6.35
 74
    0
 49
-3.175
 74
    0
 49
0
 74
    0
 49
-3.175
 74
    0
  0
LTYPE
  5
45
330
5
100
AcDbSymbolTableRecord
100
AcDbLinetypeTableRecord
  2
BORDERX2
 70
    0
  3
Border (2x) ____  ____  .  ____  ____  .  ___
 72
   65
 73
    6
 40
88.89999999999999
 49
25.4
 74
    0
 49
-12.7
 74
    0
 49
25.4
 74
    0
 49
-12.7
 74
    0
 49
0
 74
    0
 49
-12.7
 74
    0
  0
LTYPE
  5
46
330
5
100
AcDbSymbolTableRecord
100
AcDbLinetypeTableRecord
  2
CENTER
 70
    0
  3
Center ____ _ ____ _ ____ _ ____ _ ____ _ ____
 72
   65
 73
    4
 40
50.8
 49
31.75
 74
    0
 49
-6.35
 74
    0
 49
6.35
 74
    0
 49
-6.35
 74
    0
  0
LTYPE
  5
47
330
5
100
AcDbSymbolTableRecord
100
AcDbLinetypeTableRecord
  2
CENTERTINY
 70
    0
  3
Center (.15x) ___ _ ___ _ ___ _ ___ _ ___ _ ___
 72
   65
 73
    4
 40
7.62
 49
4.7625
 74
    0
 49
-0.9525
 74
    0
 49
0.9525
 74
    0
 49
-0.9525
 74
    0
  0
LTYPE
  5
48
330
5
100
AcDbSymbolTableRecord
100
AcDbLinetypeTableRecord
  2
CENTER2
 70
    0
  3
Center (.5x) ___ _ ___ _ ___ _ ___ _ ___ _ ___
 72
   65
 73
    4
 40
28.575
 49
19.05
 74
    0
 49
-3.175
 74
    0
 49
3.175
 74
    0
 49
-3.175
 74
    0
  0
LTYPE
  5
49
330
5
100
AcDbSymbolTableRecord
100
AcDbLinetypeTableRecord
  2
CENTERX2
 70
    0
  3
Center (2x) ________  __  ________  __  _____
 72
   65
 73
    4
 40
101.6
 49
63.5
 74
    0
 49
-12.7
 74
    0
 49
12.7
 74
    0
 49
-12.7
 74
    0
  0
ENDTAB
  0
TABLE
  2
LAYER
  5
2
330
0
100
AcDbSymbolTable
 70
    1
  0
LAYER
  5
10
330
2
100
AcDbSymbolTableRecord
100
AcDbLayerTableRecord
  2
0
 70
    0
 62
    7
  6
CONTINUOUS
370
   -3
390
F
  0
ENDTAB
  0
TABLE
  2
STYLE
  5
3
330
0
100
AcDbSymbolTable
 70
    3
  0
STYLE
  5
4A
330
2
100
AcDbSymbolTableRecord
100
AcDbTextStyleTableRecord
  2
Standard
 70
    0
 40
0
 41
1
 50
0
 71
    0
 42
1
  3
txt
  4

  0
ENDTAB
  0
TABLE
  2
VIEW
  5
6
330
0
100
AcDbSymbolTable
 70
    0
  0
ENDTAB
  0
TABLE
  2
UCS
  5
7
330
0
100
AcDbSymbolTable
 70
    0
  0
ENDTAB
  0
TABLE
  2
APPID
  5
9
330
0
100
AcDbSymbolTable
 70
    1
  0
APPID
  5
12
330
9
100
AcDbSymbolTableRecord
100
AcDbRegAppTableRecord
  2
ACAD
 70
    0
  0
APPID
  5
4B
330
9
100
AcDbSymbolTableRecord
100
AcDbRegAppTableRecord
  2
LibreCad
 70
    0
  0
ENDTAB
  0
TABLE
  2
DIMSTYLE
  5
A
330
0
100
AcDbSymbolTable
 70
    1
100
AcDbDimStyleTable
 71
    1
  0
DIMSTYLE
105
4C
330
A
100
AcDbSymbolTableRecord
100
AcDbDimStyleTableRecord
  2
Standard
 70
    0
 40
1
 41
0.18
 42
0.0625
 43
0.38
 44
0.18
 45
0
 46
0
 47
0
 48
0
 49
1
140
0.18
141
0.09
142
0
143
25.4
144
1
145
0
146
1
147
0.09
148
0
 71
    0
 72
    0
 73
    1
 74
    1
 75
    0
 76
    0
 77
    0
 78
    0
 79
    0
170
    0
171
    2
172
    0
173
    0
174
    0
175
    0
176
    0
177
    0
178
    0
179
    0
271
    4
272
    4
273
    2
274
    2
275
    0
276
    0
277
    2
278
   46
279
    0
280
    0
281
    0
282
    0
283
    1
284
    0
285
    0
286
    0
288
    0
289
    3
340
STANDARD
341

371
   -2
372
   -2
  0
ENDTAB
  0
TABLE
  2
BLOCK_RECORD
  5
1
330
0
100
AcDbSymbolTable
 70
    2
  0
BLOCK_RECORD
  5
1F
330
1
100
AcDbSymbolTableRecord
100
AcDbBlockTableRecord
  2
*Model_Space
 70
    0
280
    1
281
    0
  0
BLOCK_RECORD
  5
1E
330
1
100
AcDbSymbolTableRecord
100
AcDbBlockTableRecord
  2
*Paper_Space
 70
    0
280
    1
281
    0
  0
BLOCK_RECORD
  5
4D
330
1
100
AcDbSymbolTableRecord
100
AcDbBlockTableRecord
  2
ALUMIL-S67582
 70
    0
280
    1
281
    0
  0
ENDTAB
  0
ENDSEC
  0
SECTION
  2
BLOCKS
  0
BLOCK
  5
20
330
1F
100
AcDbEntity
  8
0
100
AcDbBlockBegin
  2
*Model_Space
 70
    0
 10
0
 20
0
 30
0
  3
*Model_Space
  1

  0
ENDBLK
  5
21
330
1F
100
AcDbEntity
  8
0
100
AcDbBlockEnd
  0
BLOCK
  5
1C
330
1B
100
AcDbEntity
  8
0
100
AcDbBlockBegin
  2
*Paper_Space
 70
    0
 10
0
 20
0
 30
0
  3
*Paper_Space
  1

  0
ENDBLK
  5
1D
330
1F
100
AcDbEntity
  8
0
100
AcDbBlockEnd
  0
BLOCK
  5
4E
330
4D
100
AcDbEntity
  8
0
100
AcDbBlockBegin
  2
ALUMIL-S67582
 70
    0
 10
494.3299999999999
 20
57.11999999999999
  3
ALUMIL-S67582
  1

  0
LWPOLYLINE
  5
50
100
AcDbEntity
  8
0
  6
CONTINUOUS
 62
   40
370
   -1
100
AcDbPolyline
 90
   12
 70
    1
 43
0
 10
559.5299999999999
 20
134.52
 10
528.23
 20
134.52
 10
528.23
 20
128.02
 42
-0.4142139999999793
 10
527.73
 20
127.52
 10
526.9299999999999
 20
127.52
 42
0.4142139999999712
 10
526.4299999999999
 20
127.02
 10
526.4299999999999
 20
82.42
 42
0.4142139999999711
 10
526.9299999999999
 20
81.92
 10
527.73
 20
81.92
 42
-0.414213999999971
 10
528.23
 20
81.42000000000002
 10
528.23
 20
77.22
 10
559.5299999999999
 20
77.22
  0
LWPOLYLINE
  5
51
100
AcDbEntity
  8
0
  6
CONTINUOUS
 62
   40
370
   -1
100
AcDbPolyline
 90
  120
 70
    1
 43
0
 10
561.33
 20
140.82
 10
561.33
 20
57.42
 42
-0.414214000000042
 10
561.0299999999999
 20
57.11999999999999
 10
557.83
 20
57.11999999999999
 42
-0.4142139999999753
 10
557.33
 20
57.62
 10
557.33
 20
58.62
 42
-0.414213999999967
 10
557.83
 20
59.11999999999998
 10
558.33
 20
59.11999999999999
 10
558.3299999999999
 20
58.32
 42
0.4663080000001488
 10
558.5647300000001
 20
58.12303800000002
 10
559.782094
 20
58.33769300000001
 42
0.3639699999999692
 10
560.0299999999999
 20
58.633135
 10
560.0299999999999
 20
62.606865
 42
0.3639699999999748
 10
559.782094
 20
62.902307
 10
558.5647300000001
 20
63.11696199999998
 42
0.4663080000001488
 10
558.3299999999999
 20
62.92
 10
558.33
 20
62.11999999999999
 10
557.83
 20
62.11999999999999
 42
-0.4142139999999753
 10
557.33
 20
62.62
 10
557.33
 20
63.62
 10
557.33
 20
65.62
 42
-0.4142139999999712
 10
557.83
 20
66.12
 10
558.03
 20
66.12
 42
-0.4142140000001044
 10
558.3300000000002
 20
65.81999999999999
 10
558.33
 20
64.62
 10
559.73
 20
64.62
 10
559.73
 20
75.62
 10
558.33
 20
75.62
 10
558.3300000000002
 20
74.42
 42
-0.4142140000000906
 10
558.03
 20
74.12
 10
557.83
 20
74.12
 42
-0.4142139999999711
 10
557.33
 20
74.62
 10
557.33
 20
75.62
 10
546.53
 20
75.62
 10
546.33
 20
75.81999999999999
 10
546.13
 20
75.62
 10
538.5299999999999
 20
75.62
 10
538.33
 20
75.81999999999999
 10
538.13
 20
75.62
 10
530.5299999999999
 20
75.62
 10
530.33
 20
75.81999999999999
 10
530.13
 20
75.62
 10
525.1299999999999
 20
75.62
 42
-0.4142139999999711
 10
524.6299999999999
 20
76.12
 10
524.6299999999999
 20
76.72
 42
-0.4142139999999712
 10
525.1299999999999
 20
77.22
 10
525.9299999999999
 20
77.22
 42
0.414213999999971
 10
526.4299999999999
 20
77.72
 10
526.4299999999999
 20
79.42
 42
0.414213999999971
 10
525.9299999999999
 20
79.92
 10
524.6299999999999
 20
79.92
 10
523.4299999999999
 20
79.92
 10
522.9497509999999
 20
80.48899900000002
 42
0.3595079999999894
 10
522.584798
 20
80.37604199999996
 42
-0.2637250000000219
 10
522.321624
 20
80.240801
 10
520.821509
 20
80.30236300000001
 42
-0.54861899999991
 10
520.567345
 20
80.73993799999998
 10
521.658283
 20
82.84907300000002
 42
-0.1763270000000122
 10
521.809217
 20
82.98810800000001
 10
522.2839669999998
 20
83.186213
 42
-0.5773500000000192
 10
522.5593429999999
 20
82.976052
 10
522.5369529999999
 20
82.80246700000001
 42
0.2679490000001286
 10
522.6139729999999
 20
82.61789199999996
 10
524.44565
 20
81.21999999999998
 10
524.6299999999999
 20
81.21999999999997
 42
0.7207589999998812
 10
524.75
 20
81.57999999999996
 42
-0.2360680000000087
 10
524.6299999999999
 20
81.81999999999999
 10
524.63
 20
85.81999999999998
 42
0.4142140000001182
 10
524.33
 20
86.12000000000002
 10
524.0299999999999
 20
86.12
 10
522.434202
 20
85.14592099999999
 42
-0.5855239999999567
 10
522.13
 20
85.31663100000002
 10
522.13
 20
86.742214
 42
-0.2614130000000121
 10
522.6089899999999
 20
87.59576500000001
 10
524.15101
 20
88.53701699999999
 42
0.2614130000000045
 10
524.6299999999999
 20
89.39056800000002
 10
524.6299999999998
 20
127.779752
 42
0.213421999999969
 10
524.463333
 20
128.15243
 42
-0.2134220000000009
 10
524.1299999999999
 20
128.897786
 10
524.13
 20
130.323369
 42
-0.5855239999998487
 10
524.434202
 20
130.494079
 10
526.0299999999999
 20
129.52
 10
526.33
 20
129.52
 42
0.4142140000000071
 10
526.63
 20
129.82
 10
526.6300000000001
 20
133.82
 42
-0.2360679999999487
 10
526.75
 20
134.06
 42
0.7207590000000699
 10
526.63
 20
134.42
 10
526.44565
 20
134.42
 10
524.613973
 20
133.022108
 42
0.2679490000000651
 10
524.536953
 20
132.837533
 10
524.559343
 20
132.663948
 42
-0.5773499999998972
 10
524.2839669999998
 20
132.453787
 10
523.8092169999999
 20
132.651892
 42
-0.1763270000000293
 10
523.6582829999999
 20
132.790927
 10
522.567345
 20
134.900062
 42
-0.5486190000000195
 10
522.8215089999999
 20
135.337637
 10
524.321624
 20
135.399199
 42
-0.2637249999999973
 10
524.5847979999999
 20
135.263958
 42
0.3595079999999896
 10
524.949751
 20
135.151001
 10
525.4299999999999
 20
135.72
 10
526.63
 20
135.72
 42
-0.4142139999999795
 10
527.13
 20
136.22
 10
538.73
 20
136.22
 42
0.4142140000000043
 10
539.73
 20
137.22
 10
539.73
 20
138.62
 42
0.4142139999999793
 10
539.23
 20
139.12
 10
537.628683
 20
139.12
 42
-1.657435000000074
 10
536.6799999999999
 20
140.92
 10
543.23
 20
140.92
 42
-0.4142139999999793
 10
543.73
 20
140.42
 10
543.73
 20
139.12
 10
542.03
 20
139.12
 42
0.414214000000035
 10
541.73
 20
138.82
 10
541.73
 20
136.12
 10
559.73
 20
136.12
 10
559.73
 20
139.12
 10
557.73
 20
139.12
 10
557.73
 20
139.72
 10
559.13
 20
141.12
 10
561.0299999999999
 20
141.12
 42
-0.414214000000035
  0
LWPOLYLINE
  5
52
100
AcDbEntity
  8
0
  6
CONTINUOUS
 62
   40
370
   -1
100
AcDbPolyline
 90
   10
 70
    1
 43
0
 10
504.683575
 20
134.073544
 42
0.198912
 10
504.330043
 20
134.22
 10
496.13
 20
134.22
 10
496.13
 20
90.81999999999998
 10
502.73
 20
90.81999999999998
 10
502.73
 20
126.212014
 42
-0.2614130000000121
 10
503.2089899999999
 20
127.065565
 10
504.590505
 20
127.908845
 42
0.2614130000000247
 10
504.83
 20
128.335621
 10
504.83
 20
133.72
 42
0.1989119999999929
  0
LWPOLYLINE
  5
53
100
AcDbEntity
  8
0
  6
CONTINUOUS
 62
   40
370
   -1
100
AcDbPolyline
 90
  110
 70
    1
 43
0
 10
494.3299999999999
 20
88.12
 10
494.3299999999999
 20
165.820001
 42
-0.4142139999999795
 10
494.6299999999999
 20
166.120001
 10
497.8299999999999
 20
166.120001
 42
-0.4142140000000126
 10
498.3299999999999
 20
165.620001
 10
498.3299999999999
 20
164.620001
 42
-0.4142140000000126
 10
497.8299999999999
 20
164.120001
 10
497.33
 20
164.120001
 10
497.3299999999999
 20
164.920001
 42
0.4663079999999118
 10
497.09527
 20
165.116962
 10
495.877906
 20
164.902308
 42
0.363970000000018
 10
495.6299999999999
 20
164.606866
 10
495.6299999999999
 20
160.633136
 42
0.3639700000000307
 10
495.877906
 20
160.337693
 10
497.09527
 20
160.123039
 42
0.4663079999999096
 10
497.3299999999999
 20
160.320001
 10
497.33
 20
161.120001
 10
497.8299999999999
 20
161.120001
 42
-0.4142140000000126
 10
498.3299999999999
 20
160.620001
 10
498.3299999999999
 20
158.120001
 42
-0.4142140000000126
 10
497.8299999999999
 20
157.620001
 42
-0.4142139999999518
 10
497.53
 20
157.920001
 10
497.5299999999999
 20
159.120001
 10
495.83
 20
159.120001
 10
495.83
 20
136.32
 10
497.5299999999999
 20
136.32
 10
497.53
 20
137.52
 42
-0.4142139999999518
 10
497.8299999999999
 20
137.82
 10
498.0299999999999
 20
137.82
 42
-0.4142140000000126
 10
498.5299999999999
 20
137.32
 10
498.5299999999999
 20
136.12
 10
504.53
 20
136.12
 42
0.4142139999999517
 10
504.8299999999999
 20
136.42
 10
504.83
 20
140.82
 42
-0.4142139999999518
 10
505.13
 20
141.12
 10
506.0299999999999
 20
141.12
 42
-0.4142140000000071
 10
506.3299999999999
 20
140.82
 10
506.3299999999999
 20
136.02
 42
0.4142139999999794
 10
506.63
 20
135.72
 10
507.8299999999999
 20
135.72
 10
508.3102489999999
 20
135.151001
 42
0.3595080000000097
 10
508.675202
 20
135.263958
 42
-0.2637250000000152
 10
508.938376
 20
135.399199
 10
510.438491
 20
135.337637
 42
-0.5486190000000812
 10
510.6926549999999
 20
134.900062
 10
509.601717
 20
132.790927
 42
-0.1763270000000066
 10
509.450783
 20
132.651892
 10
508.9760329999999
 20
132.453787
 42
-0.5773499999999987
 10
508.7006569999999
 20
132.663948
 10
508.723047
 20
132.837533
 42
0.2679490000000328
 10
508.6460269999999
 20
133.022108
 10
506.8143499999999
 20
134.42
 10
506.63
 20
134.42
 42
0.7207590000000702
 10
506.51
 20
134.06
 42
-0.2360679999999889
 10
506.63
 20
133.82
 10
506.63
 20
129.82
 42
0.4142139999999794
 10
506.93
 20
129.52
 10
507.23
 20
129.52
 10
508.825798
 20
130.494079
 42
-0.5855239999999939
 10
509.13
 20
130.323369
 10
509.13
 20
128.897786
 42
-0.2614130000000069
 10
508.6510099999999
 20
128.044235
 10
505.0089899999999
 20
125.821137
 42
0.2614130000000029
 10
504.53
 20
124.967586
 10
504.53
 20
89.451609
 42
0.2614130000000049
 10
505.0089899999999
 20
88.59805799999998
 10
506.65101
 20
87.595765
 42
-0.2614130000000064
 10
507.1299999999999
 20
86.742214
 10
507.1299999999999
 20
85.31663100000002
 42
-0.5855239999999842
 10
506.825798
 20
85.145921
 10
505.23
 20
86.12
 10
504.93
 20
86.12000000000002
 42
0.414214000000035
 10
504.63
 20
85.81999999999998
 10
504.63
 20
81.81999999999999
 42
-0.2360679999999886
 10
504.5099999999999
 20
81.58000000000001
 42
0.7207590000000756
 10
504.63
 20
81.21999999999998
 10
504.81435
 20
81.21999999999998
 10
506.646027
 20
82.61789200000001
 42
0.2679489999999557
 10
506.723047
 20
82.80246699999999
 10
506.700657
 20
82.976052
 42
-0.5773499999999642
 10
506.976033
 20
83.18621300000001
 10
507.4507829999999
 20
82.98810799999998
 42
-0.1763269999999895
 10
507.601717
 20
82.84907299999999
 10
508.6926550000001
 20
80.73993800000001
 42
-0.5486190000000425
 10
508.4384909999999
 20
80.30236300000001
 10
506.938376
 20
80.24080100000002
 42
-0.2637250000000047
 10
506.675202
 20
80.376042
 42
0.3595080000000019
 10
506.310249
 20
80.48899899999999
 10
505.83
 20
79.92
 10
503.3299999999999
 20
79.92
 42
0.4142140000000045
 10
502.8299999999999
 20
79.42
 10
502.8299999999999
 20
77.72
 42
0.4142140000000044
 10
503.3299999999999
 20
77.22
 10
504.1299999999999
 20
77.22
 42
-0.4142140000000043
 10
504.63
 20
76.72
 10
504.63
 20
76.12
 42
-0.4142140000000043
 10
504.1299999999999
 20
75.62
 10
501.8299999999999
 20
75.62
 42
-0.4142140000000211
 10
501.3299999999999
 20
76.12
 10
501.33
 20
82.31999999999999
 42
-0.4142139999999656
 10
501.63
 20
82.62
 10
502.5299999999999
 20
82.62
 42
0.4142140000000071
 10
502.8299999999999
 20
82.91999999999999
 10
502.8299999999999
 20
88.92000000000002
 42
0.4142140000000071
 10
502.5299999999999
 20
89.22
 10
496.2299999999999
 20
89.22
 42
0.4142139999999518
 10
495.9299999999999
 20
88.92000000000002
 10
495.9299999999998
 20
87.91999999999999
 42
-0.4142139999999517
 10
495.6299999999999
 20
87.62
 10
494.8299999999999
 20
87.62
 42
-0.4142140000000044
  0
LWPOLYLINE
  5
54
100
AcDbEntity
  8
0
  6
CONTINUOUS
 62
    4
370
   -1
100
AcDbPolyline
 90
   40
 70
    1
 43
0
 10
521.835178
 20
135.72
 10
511.424822
 20
135.72
 42
0.2962129999999886
 10
511.150759
 20
135.542021
 10
510.018078
 20
132.997979
 42
-0.2962129999999905
 10
509.7440149999999
 20
132.82
 10
509.6247439999999
 20
132.82
 42
-0.1316519999999994
 10
509.0247439999999
 20
132.98077
 10
507.4675639999999
 20
133.879808
 42
0.1316520000000033
 10
507.317564
 20
133.92
 10
507.0299999999999
 20
133.92
 42
0.4142140000000003
 10
506.63
 20
133.52
 10
506.6299999999999
 20
130.12
 42
0.4142140000000002
 10
507.0299999999999
 20
129.72
 10
507.317564
 20
129.72
 42
0.1316520000000033
 10
507.4675639999999
 20
129.760192
 10
509.0247439999999
 20
130.65923
 42
-0.1316520000000009
 10
509.6247439999999
 20
130.82
 10
510.935647
 20
130.82
 42
0.2956150000000078
 10
511.209441
 20
130.997376
 10
512.47556
 20
133.824373
 42
-0.2956149999999849
 10
512.9318849999999
 20
134.12
 10
520.32839
 20
134.12
 42
-0.2962129999999922
 10
520.785162
 20
133.823368
 10
522.043107
 20
130.997979
 42
0.2962130000000234
 10
522.31717
 20
130.82
 10
523.635256
 20
130.82
 42
-0.1316519999999976
 10
524.235256
 20
130.65923
 10
525.792436
 20
129.760192
 42
0.1316520000000024
 10
525.942436
 20
129.72
 10
526.23
 20
129.72
 42
0.4142139999999793
 10
526.63
 20
130.12
 10
526.6300000000001
 20
133.52
 42
0.4142140000000625
 10
526.23
 20
133.92
 10
525.942436
 20
133.92
 42
0.1316520000000024
 10
525.792436
 20
133.879808
 10
524.235256
 20
132.98077
 42
-0.1316519999999976
 10
523.635256
 20
132.82
 10
523.515985
 20
132.82
 42
-0.2962129999999912
 10
523.241922
 20
132.997979
 10
522.1092409999999
 20
135.542021
 42
0.2962130000000198
  0
LWPOLYLINE
  5
55
100
AcDbEntity
  8
0
  6
CONTINUOUS
 62
    4
370
   -1
100
AcDbPolyline
 90
   40
 70
    1
 43
0
 10
518.32839
 20
81.52
 10
510.931885
 20
81.52
 42
-0.2956149999999976
 10
510.4755599999999
 20
81.81562700000001
 10
509.209441
 20
84.642624
 42
0.295614999999996
 10
508.935647
 20
84.82000000000001
 10
507.624744
 20
84.81999999999999
 42
-0.1316520000000008
 10
507.024744
 20
84.98076999999999
 10
505.467564
 20
85.87980799999998
 42
0.1316519999999964
 10
505.317564
 20
85.92
 10
505.03
 20
85.92
 42
0.4142140000000003
 10
504.63
 20
85.52
 10
504.63
 20
82.12
 42
0.4142140000000002
 10
505.03
 20
81.72
 10
505.317564
 20
81.71999999999998
 42
0.1316520000000026
 10
505.467564
 20
81.760192
 10
507.024744
 20
82.65922999999998
 42
-0.1316519999999992
 10
507.624744
 20
82.81999999999999
 10
507.744015
 20
82.81999999999999
 42
-0.2962130000000073
 10
508.018078
 20
82.64202100000001
 10
509.1507589999999
 20
80.09797900000001
 42
0.2962129999999769
 10
509.4248219999999
 20
79.92
 10
519.835178
 20
79.92
 42
0.2962130000000031
 10
520.109241
 20
80.097979
 10
521.241922
 20
82.642021
 42
-0.2962130000000028
 10
521.515985
 20
82.81999999999999
 10
521.635256
 20
82.81999999999999
 42
-0.1316519999999976
 10
522.235256
 20
82.65922999999997
 10
523.792436
 20
81.76019199999998
 42
0.1316520000000085
 10
523.942436
 20
81.71999999999998
 10
524.23
 20
81.72
 42
0.4142139999999585
 10
524.6299999999999
 20
82.12
 10
524.6299999999999
 20
85.52
 42
0.4142139999999585
 10
524.23
 20
85.92
 10
523.942436
 20
85.92
 42
0.1316520000000024
 10
523.792436
 20
85.87980800000001
 10
522.235256
 20
84.98077000000002
 42
-0.131651999999999
 10
521.635256
 20
84.81999999999999
 10
520.31717
 20
84.81999999999999
 42
0.2962130000000066
 10
520.0431069999998
 20
84.64202099999999
 10
518.7851619999998
 20
81.81663200000003
 42
-0.2962129999999726
  0
ENDBLK
  5
4F
330
4D
100
AcDbEntity
  8
0
100
AcDbBlockEnd
  0
ENDSEC
  0
SECTION
  2
ENTITIES
  0
INSERT
  5
56
100
AcDbEntity
  8
0
  6
ByLayer
 62
    0
370
   -1
100
AcDbBlockReference
  2
ALUMIL-S67582
 10
-1.802615825700456
 20
-0.5130843365514011
 30
0
 41
1
 42
1
 43
0
 50
0
 70
    1
 71
    1
 44
0
 45
0
  0
ENDSEC
  0
SECTION
  2
OBJECTS
  0
DICTIONARY
  5
C
330
0
100
AcDbDictionary
281
    1
  3
ACAD_GROUP
350
D
  0
DICTIONARY
  5
D
330
C
100
AcDbDictionary
281
    1
  0
PLOTSETTINGS
  5
57
100
AcDbPlotSettings
  6
1x1
 40
0
 41
0
 42
0
 43
0
  0
ENDSEC
  0
EOF
