999
dxfrw 0.6.3
  0
SECTION
  2
HEADER
  9
$ACADVER
  1
AC1021
  9
$DWGCODEPAGE
  3
ANSI_1254
  9
$INSBASE
 10
0
 20
0
 30
0
  9
$EXTMIN
 10
10000000000
 20
10000000000
 30
0
  9
$EXTMAX
 10
-10000000000
 20
-10000000000
 30
0
  9
$LIMMIN
 10
684.0999759999999
 20
-164
  9
$LIMMAX
 10
751.0999759999999
 20
-55
  9
$ORTHOMODE
 70
    0
  9
$REGENMODE
 70
    1
  9
$FILLMODE
 70
    1
  9
$QTEXTMODE
 70
    0
  9
$MIRRTEXT
 70
    0
  9
$LTSCALE
 40
1
  9
$ATTMODE
 70
    1
  9
$TEXTSIZE
 40
0.2
  9
$TRACEWID
 40
0.05
  9
$TEXTSTYLE
  7
STANDARD
  9
$CLAYER
  8
0
  9
$CELTYPE
  6
ByBlock
  9
$CECOLOR
 62
  256
  9
$CELTSCALE
 40
1
  9
$DISPSILH
 70
    0
  9
$DIMSCALE
 40
1
  9
$DIMASZ
 40
0.18
  9
$DIMEXO
 40
0.0625
  9
$DIMDLI
 40
0.38
  9
$DIMRND
 40
0
  9
$DIMDLE
 40
0
  9
$DIMEXE
 40
0.18
  9
$DIMTP
 40
0
  9
$DIMTM
 40
0
  9
$DIMTXT
 40
0.18
  9
$DIMCEN
 40
0.09
  9
$DIMTSZ
 40
0
  9
$DIMTOL
 70
    0
  9
$DIMLIM
 70
    0
  9
$DIMTIH
 70
    1
  9
$DIMTOH
 70
    1
  9
$DIMSE1
 70
    0
  9
$DIMSE2
 70
    0
  9
$DIMTAD
 70
    0
  9
$DIMZIN
 70
    0
  9
$DIMBLK
  1

  9
$DIMASO
 70
    1
  9
$DIMSHO
 70
    1
  9
$DIMPOST
  1

  9
$DIMAPOST
  1

  9
$DIMALT
 70
    0
  9
$DIMALTD
 70
    2
  9
$DIMALTF
 40
25.4
  9
$DIMLFAC
 40
1
  9
$DIMTOFL
 70
    0
  9
$DIMTVP
 40
0
  9
$DIMTIX
 70
    0
  9
$DIMSOXD
 70
    0
  9
$DIMSAH
 70
    0
  9
$DIMBLK1
  1

  9
$DIMBLK2
  1

  9
$DIMSTYLE
  2
ORGADATA
  9
$DIMCLRD
 70
    0
  9
$DIMCLRE
 70
    0
  9
$DIMCLRT
 70
    0
  9
$DIMTFAC
 40
1
  9
$DIMGAP
 40
0.09
  9
$DIMJUST
 70
    0
  9
$DIMSD1
 70
    0
  9
$DIMSD2
 70
    0
  9
$DIMTOLJ
 70
    1
  9
$DIMTZIN
 70
    0
  9
$DIMALTZ
 70
    0
  9
$DIMALTTZ
 70
    0
  9
$DIMUPT
 70
    0
  9
$DIMDEC
 70
    4
  9
$DIMTDEC
 70
    4
  9
$DIMALTU
 70
    2
  9
$DIMALTTD
 70
    2
  9
$DIMTXSTY
  7
STANDARD
  9
$DIMAUNIT
 70
    0
  9
$DIMADEC
 70
    0
  9
$DIMALTRND
 40
0
  9
$DIMAZIN
 70
    0
  9
$DIMDSEP
 70
   46
  9
$DIMATFIT
 70
    3
  9
$DIMFRAC
 70
    0
  9
$DIMLDRBLK
  1

  9
$DIMLUNIT
 70
    2
  9
$DIMLWD
 70
   -2
  9
$DIMLWE
 70
   -2
  9
$DIMTMOVE
 70
    2
  9
$DIMFXL
 40
1
  9
$DIMFXLON
 70
    0
  9
$DIMJOGANG
 40
0.7853981633974483
  9
$DIMTFILL
 70
    0
  9
$DIMTFILLCLR
 70
    0
  9
$DIMARCSYM
 70
    0
  9
$DIMLTYPE
  6

  9
$DIMLTEX1
  6

  9
$DIMLTEX2
  6

  9
$LUNITS
 70
    2
  9
$LUPREC
 70
    4
  9
$SKETCHINC
 40
0.1
  9
$FILLETRAD
 40
0.5
  9
$AUNITS
 70
    0
  9
$AUPREC
 70
    0
  9
$MENU
  1
.
  9
$ELEVATION
 40
0
  9
$PELEVATION
 40
0
  9
$THICKNESS
 40
0
  9
$LIMCHECK
 70
    0
  9
$CHAMFERA
 40
0
  9
$CHAMFERB
 40
0
  9
$CHAMFERC
 40
0
  9
$CHAMFERD
 40
0
  9
$SKPOLY
 70
    0
  9
$USRTIMER
 70
    1
  9
$ANGBASE
 50
0
  9
$ANGDIR
 70
    0
  9
$PDMODE
 70
    0
  9
$PDSIZE
 40
0
  9
$PLINEWID
 40
0
  9
$SPLFRAME
 70
    0
  9
$SPLINETYPE
 70
    6
  9
$SPLINESEGS
 70
    8
  9
$HANDSEED
  5
20000
  9
$SURFTAB1
 70
    6
  9
$SURFTAB2
 70
    6
  9
$SURFTYPE
 70
    6
  9
$SURFU
 70
    6
  9
$SURFV
 70
    6
  9
$UCSBASE
  2

  9
$UCSNAME
  2

  9
$UCSORG
 10
0
 20
0
 30
0
  9
$UCSXDIR
 10
1
 20
0
 30
0
  9
$UCSYDIR
 10
0
 20
1
 30
0
  9
$UCSORTHOREF
  2

  9
$UCSORTHOVIEW
 70
    0
  9
$UCSORGTOP
 10
0
 20
0
 30
0
  9
$UCSORGBOTTOM
 10
0
 20
0
 30
0
  9
$UCSORGLEFT
 10
0
 20
0
 30
0
  9
$UCSORGRIGHT
 10
0
 20
0
 30
0
  9
$UCSORGFRONT
 10
0
 20
0
 30
0
  9
$UCSORGBACK
 10
0
 20
0
 30
0
  9
$PUCSBASE
  2

  9
$PUCSNAME
  2

  9
$PUCSORG
 10
0
 20
0
 30
0
  9
$PUCSXDIR
 10
1
 20
0
 30
0
  9
$PUCSYDIR
 10
0
 20
1
 30
0
  9
$PUCSORTHOREF
  2

  9
$PUCSORTHOVIEW
 70
    0
  9
$PUCSORGTOP
 10
0
 20
0
 30
0
  9
$PUCSORGBOTTOM
 10
0
 20
0
 30
0
  9
$PUCSORGLEFT
 10
0
 20
0
 30
0
  9
$PUCSORGRIGHT
 10
0
 20
0
 30
0
  9
$PUCSORGFRONT
 10
0
 20
0
 30
0
  9
$PUCSORGBACK
 10
0
 20
0
 30
0
  9
$USERI1
 70
    0
  9
$USERI2
 70
    0
  9
$USERI3
 70
    0
  9
$USERI4
 70
    0
  9
$USERI5
 70
    0
  9
$USERR1
 40
0
  9
$USERR2
 40
0
  9
$USERR3
 40
0
  9
$USERR4
 40
0
  9
$USERR5
 40
0
  9
$WORLDVIEW
 70
    0
  9
$SHADEDGE
 70
    3
  9
$SHADEDIF
 70
   70
  9
$TILEMODE
 70
    1
  9
$MAXACTVP
 70
   64
  9
$PINSBASE
 10
0
 20
0
 30
0
  9
$PLIMCHECK
 70
    0
  9
$PEXTMIN
 10
1e+20
 20
1e+20
 30
1e+20
  9
$PEXTMAX
 10
-1e+20
 20
-1e+20
 30
-1e+20
  9
$GRIDMODE
 70
    0
  9
$SNAPSTYLE
 70
    0
  9
$PLIMMIN
 10
0
 20
0
  9
$PLIMMAX
 10
12
 20
9
  9
$UNITMODE
 70
    0
  9
$VISRETAIN
 70
    1
  9
$PLINEGEN
 70
    0
  9
$PSLTSCALE
 70
    1
  9
$TREEDEPTH
 70
 3020
  9
$CMLSTYLE
  2
Standard
  9
$CMLJUST
 70
    0
  9
$CMLSCALE
 40
1
  9
$PROXYGRAPHICS
 70
    1
  9
$MEASUREMENT
 70
    1
  9
$CELWEIGHT
370
   -1
  9
$ENDCAPS
280
    0
  9
$JOINSTYLE
280
    0
  9
$LWDISPLAY
290
    0
  9
$INSUNITS
 70
    0
  9
$HYPERLINKBASE
  1

  9
$STYLESHEET
  1

  9
$XEDIT
290
    1
  9
$CEPSNTYPE
380
    0
  9
$PSTYLEMODE
290
    1
  9
$EXTNAMES
290
    1
  9
$PSVPSCALE
 40
0
  9
$OLESTARTUP
290
    0
  9
$SORTENTS
280
  127
  9
$INDEXCTL
280
    0
  9
$HIDETEXT
280
    1
  9
$XCLIPFRAME
290
    0
  9
$HALOGAP
280
    0
  9
$OBSCOLOR
 70
  257
  9
$OBSLTYPE
280
    0
  9
$INTERSECTIONDISPLAY
280
    0
  9
$INTERSECTIONCOLOR
 70
  257
  9
$DIMASSOC
280
    2
  9
$PROJECTNAME
  1

  9
$CAMERADISPLAY
290
    0
  9
$LENSLENGTH
 40
50
  9
$CAMERAHEIGHT
 40
0
  9
$STEPSPERSEC
 40
2
  9
$STEPSIZE
 40
6
  9
$3DDWFPREC
 40
2
  9
$PSOLWIDTH
 40
0.25
  9
$PSOLHEIGHT
 40
4
  9
$LOFTANG1
 40
1.570796326794896
  9
$LOFTANG2
 40
1.570796326794896
  9
$LOFTMAG1
 40
0
  9
$LOFTMAG2
 40
0
  9
$LOFTPARAM
 70
    7
  9
$LOFTNORMALS
280
    1
  9
$LATITUDE
 40
37.795
  9
$LONGITUDE
 40
-122.394
  9
$NORTHDIRECTION
 40
0
  9
$TIMEZONE
 70
-8000
  9
$LIGHTGLYPHDISPLAY
280
    1
  9
$TILEMODELIGHTSYNCH
280
    1
  9
$SOLIDHIST
280
    0
  9
$SHOWHIST
280
    1
  9
$DWFFRAME
280
    2
  9
$DGNFRAME
280
    0
  9
$REALWORLDSCALE
290
    1
  9
$INTERFERECOLOR
 62
    1
  9
$CSHADOW
280
    0
  9
$SHADOWPLANELOCATION
 40
0
  0
ENDSEC
  0
SECTION
  2
CLASSES
  0
ENDSEC
  0
SECTION
  2
TABLES
  0
TABLE
  2
VPORT
  5
8
330
0
100
AcDbSymbolTable
 70
    1
  0
VPORT
  5
31
330
2
100
AcDbSymbolTableRecord
100
AcDbViewportTableRecord
  2
*ACTIVE
 70
    0
 10
0
 20
0
 11
1
 21
1
 12
390.3257114163648
 22
162.6844794209137
 13
0
 23
0
 14
10
 24
10
 15
10
 25
10
 16
0
 26
0
 36
1
 17
0
 27
0
 37
0
 40
962.0621732661225
 41
1.924574209245742
 42
50
 43
0
 44
0
 50
0
 51
0
 71
    0
 72
  100
 73
    1
 74
    3
 75
    0
 76
    0
 77
    0
 78
    0
281
    0
 65
    1
110
0
120
0
130
0
111
1
121
0
131
0
112
0
122
1
132
0
 79
    0
146
0
348
10020
 60
    7
 61
    5
292
1
282
    1
141
0
142
0
 63
  250
421
3358443
  0
ENDTAB
  0
TABLE
  2
LTYPE
  5
5
330
0
100
AcDbSymbolTable
 70
    4
  0
LTYPE
  5
14
330
5
100
AcDbSymbolTableRecord
100
AcDbLinetypeTableRecord
  2
ByBlock
 70
    0
  3

 72
   65
 73
    0
 40
0
  0
LTYPE
  5
15
330
5
100
AcDbSymbolTableRecord
100
AcDbLinetypeTableRecord
  2
ByLayer
 70
    0
  3

 72
   65
 73
    0
 40
0
  0
LTYPE
  5
16
330
5
100
AcDbSymbolTableRecord
100
AcDbLinetypeTableRecord
  2
Continuous
 70
    0
  3
Solid line
 72
   65
 73
    0
 40
0
  0
LTYPE
  5
32
330
5
100
AcDbSymbolTableRecord
100
AcDbLinetypeTableRecord
  2
DOT
 70
    0
  3
Dot . . . . . . . . . . . . . . . . . . . . . .
 72
   65
 73
    2
 40
6.35
 49
0
 74
    0
 49
-6.35
 74
    0
  0
LTYPE
  5
33
330
5
100
AcDbSymbolTableRecord
100
AcDbLinetypeTableRecord
  2
DOTTINY
 70
    0
  3
Dot (.15x) .....................................
 72
   65
 73
    2
 40
0.9525
 49
0
 74
    0
 49
-0.9525
 74
    0
  0
LTYPE
  5
34
330
5
100
AcDbSymbolTableRecord
100
AcDbLinetypeTableRecord
  2
DOT2
 70
    0
  3
Dot (.5x) .....................................
 72
   65
 73
    2
 40
3.175
 49
0
 74
    0
 49
-3.175
 74
    0
  0
LTYPE
  5
35
330
5
100
AcDbSymbolTableRecord
100
AcDbLinetypeTableRecord
  2
DOTX2
 70
    0
  3
Dot (2x) .  .  .  .  .  .  .  .  .  .  .  .  .
 72
   65
 73
    2
 40
12.7
 49
0
 74
    0
 49
-12.7
 74
    0
  0
LTYPE
  5
36
330
5
100
AcDbSymbolTableRecord
100
AcDbLinetypeTableRecord
  2
DASHED
 70
    0
  3
Dashed _ _ _ _ _ _ _ _ _ _ _ _ _ _ _ _ _
 72
   65
 73
    2
 40
19.05
 49
12.7
 74
    0
 49
-6.35
 74
    0
  0
LTYPE
  5
37
330
5
100
AcDbSymbolTableRecord
100
AcDbLinetypeTableRecord
  2
DASHEDTINY
 70
    0
  3
Dashed (.15x) _ _ _ _ _ _ _ _ _ _ _ _ _ _ _ _ _
 72
   65
 73
    2
 40
2.8575
 49
1.905
 74
    0
 49
-0.9525
 74
    0
  0
LTYPE
  5
38
330
5
100
AcDbSymbolTableRecord
100
AcDbLinetypeTableRecord
  2
DASHED2
 70
    0
  3
Dashed (.5x) _ _ _ _ _ _ _ _ _ _ _ _ _ _ _ _ _
 72
   65
 73
    2
 40
9.524999999999999
 49
6.35
 74
    0
 49
-3.175
 74
    0
  0
LTYPE
  5
39
330
5
100
AcDbSymbolTableRecord
100
AcDbLinetypeTableRecord
  2
DASHEDX2
 70
    0
  3
Dashed (2x) ____  ____  ____  ____  ____  ___
 72
   65
 73
    2
 40
38.09999999999999
 49
25.4
 74
    0
 49
-12.7
 74
    0
  0
LTYPE
  5
3A
330
5
100
AcDbSymbolTableRecord
100
AcDbLinetypeTableRecord
  2
DASHDOT
 70
    0
  3
Dash dot __ . __ . __ . __ . __ . __ . __ . __
 72
   65
 73
    4
 40
25.4
 49
12.7
 74
    0
 49
-6.35
 74
    0
 49
0
 74
    0
 49
-6.35
 74
    0
  0
LTYPE
  5
3B
330
5
100
AcDbSymbolTableRecord
100
AcDbLinetypeTableRecord
  2
DASHDOTTINY
 70
    0
  3
Dash dot (.15x) _._._._._._._._._._._._._._._.
 72
   65
 73
    4
 40
3.81
 49
1.905
 74
    0
 49
-0.9525
 74
    0
 49
0
 74
    0
 49
-0.9525
 74
    0
  0
LTYPE
  5
3C
330
5
100
AcDbSymbolTableRecord
100
AcDbLinetypeTableRecord
  2
DASHDOT2
 70
    0
  3
Dash dot (.5x) _._._._._._._._._._._._._._._.
 72
   65
 73
    4
 40
12.7
 49
6.35
 74
    0
 49
-3.175
 74
    0
 49
0
 74
    0
 49
-3.175
 74
    0
  0
LTYPE
  5
3D
330
5
100
AcDbSymbolTableRecord
100
AcDbLinetypeTableRecord
  2
DASHDOTX2
 70
    0
  3
Dash dot (2x) ____  .  ____  .  ____  .  ___
 72
   65
 73
    4
 40
50.8
 49
25.4
 74
    0
 49
-12.7
 74
    0
 49
0
 74
    0
 49
-12.7
 74
    0
  0
LTYPE
  5
3E
330
5
100
AcDbSymbolTableRecord
100
AcDbLinetypeTableRecord
  2
DIVIDE
 70
    0
  3
Divide ____ . . ____ . . ____ . . ____ . . ____
 72
   65
 73
    6
 40
31.75
 49
12.7
 74
    0
 49
-6.35
 74
    0
 49
0
 74
    0
 49
-6.35
 74
    0
 49
0
 74
    0
 49
-6.35
 74
    0
  0
LTYPE
  5
3F
330
5
100
AcDbSymbolTableRecord
100
AcDbLinetypeTableRecord
  2
DIVIDETINY
 70
    0
  3
Divide (.15x) __..__..__..__..__..__..__..__.._
 72
   65
 73
    6
 40
4.7625
 49
1.905
 74
    0
 49
-0.9525
 74
    0
 49
0
 74
    0
 49
-0.9525
 74
    0
 49
0
 74
    0
 49
-0.9525
 74
    0
  0
LTYPE
  5
40
330
5
100
AcDbSymbolTableRecord
100
AcDbLinetypeTableRecord
  2
DIVIDE2
 70
    0
  3
Divide (.5x) __..__..__..__..__..__..__..__.._
 72
   65
 73
    6
 40
15.875
 49
6.35
 74
    0
 49
-3.175
 74
    0
 49
0
 74
    0
 49
-3.175
 74
    0
 49
0
 74
    0
 49
-3.175
 74
    0
  0
LTYPE
  5
41
330
5
100
AcDbSymbolTableRecord
100
AcDbLinetypeTableRecord
  2
DIVIDEX2
 70
    0
  3
Divide (2x) ________  .  .  ________  .  .  _
 72
   65
 73
    6
 40
63.5
 49
25.4
 74
    0
 49
-12.7
 74
    0
 49
0
 74
    0
 49
-12.7
 74
    0
 49
0
 74
    0
 49
-12.7
 74
    0
  0
LTYPE
  5
42
330
5
100
AcDbSymbolTableRecord
100
AcDbLinetypeTableRecord
  2
BORDER
 70
    0
  3
Border __ __ . __ __ . __ __ . __ __ . __ __ .
 72
   65
 73
    6
 40
44.45
 49
12.7
 74
    0
 49
-6.35
 74
    0
 49
12.7
 74
    0
 49
-6.35
 74
    0
 49
0
 74
    0
 49
-6.35
 74
    0
  0
LTYPE
  5
43
330
5
100
AcDbSymbolTableRecord
100
AcDbLinetypeTableRecord
  2
BORDERTINY
 70
    0
  3
Border (.15x) __.__.__.__.__.__.__.__.__.__.__.
 72
   65
 73
    6
 40
6.6675
 49
1.905
 74
    0
 49
-0.9525
 74
    0
 49
1.905
 74
    0
 49
-0.9525
 74
    0
 49
0
 74
    0
 49
-0.9525
 74
    0
  0
LTYPE
  5
44
330
5
100
AcDbSymbolTableRecord
100
AcDbLinetypeTableRecord
  2
BORDER2
 70
    0
  3
Border (.5x) __.__.__.__.__.__.__.__.__.__.__.
 72
   65
 73
    6
 40
22.225
 49
6.35
 74
    0
 49
-3.175
 74
    0
 49
6.35
 74
    0
 49
-3.175
 74
    0
 49
0
 74
    0
 49
-3.175
 74
    0
  0
LTYPE
  5
45
330
5
100
AcDbSymbolTableRecord
100
AcDbLinetypeTableRecord
  2
BORDERX2
 70
    0
  3
Border (2x) ____  ____  .  ____  ____  .  ___
 72
   65
 73
    6
 40
88.89999999999999
 49
25.4
 74
    0
 49
-12.7
 74
    0
 49
25.4
 74
    0
 49
-12.7
 74
    0
 49
0
 74
    0
 49
-12.7
 74
    0
  0
LTYPE
  5
46
330
5
100
AcDbSymbolTableRecord
100
AcDbLinetypeTableRecord
  2
CENTER
 70
    0
  3
Center ____ _ ____ _ ____ _ ____ _ ____ _ ____
 72
   65
 73
    4
 40
50.8
 49
31.75
 74
    0
 49
-6.35
 74
    0
 49
6.35
 74
    0
 49
-6.35
 74
    0
  0
LTYPE
  5
47
330
5
100
AcDbSymbolTableRecord
100
AcDbLinetypeTableRecord
  2
CENTERTINY
 70
    0
  3
Center (.15x) ___ _ ___ _ ___ _ ___ _ ___ _ ___
 72
   65
 73
    4
 40
7.62
 49
4.7625
 74
    0
 49
-0.9525
 74
    0
 49
0.9525
 74
    0
 49
-0.9525
 74
    0
  0
LTYPE
  5
48
330
5
100
AcDbSymbolTableRecord
100
AcDbLinetypeTableRecord
  2
CENTER2
 70
    0
  3
Center (.5x) ___ _ ___ _ ___ _ ___ _ ___ _ ___
 72
   65
 73
    4
 40
28.575
 49
19.05
 74
    0
 49
-3.175
 74
    0
 49
3.175
 74
    0
 49
-3.175
 74
    0
  0
LTYPE
  5
49
330
5
100
AcDbSymbolTableRecord
100
AcDbLinetypeTableRecord
  2
CENTERX2
 70
    0
  3
Center (2x) ________  __  ________  __  _____
 72
   65
 73
    4
 40
101.6
 49
63.5
 74
    0
 49
-12.7
 74
    0
 49
12.7
 74
    0
 49
-12.7
 74
    0
  0
ENDTAB
  0
TABLE
  2
LAYER
  5
2
330
0
100
AcDbSymbolTable
 70
    1
  0
LAYER
  5
10
330
2
100
AcDbSymbolTableRecord
100
AcDbLayerTableRecord
  2
0
 70
    0
 62
    7
  6
CONTINUOUS
370
   -3
390
F
  0
ENDTAB
  0
TABLE
  2
STYLE
  5
3
330
0
100
AcDbSymbolTable
 70
    3
  0
STYLE
  5
4A
330
2
100
AcDbSymbolTableRecord
100
AcDbTextStyleTableRecord
  2
Standard
 70
    0
 40
0
 41
1
 50
0
 71
    0
 42
1
  3
txt
  4

  0
ENDTAB
  0
TABLE
  2
VIEW
  5
6
330
0
100
AcDbSymbolTable
 70
    0
  0
ENDTAB
  0
TABLE
  2
UCS
  5
7
330
0
100
AcDbSymbolTable
 70
    0
  0
ENDTAB
  0
TABLE
  2
APPID
  5
9
330
0
100
AcDbSymbolTable
 70
    1
  0
APPID
  5
12
330
9
100
AcDbSymbolTableRecord
100
AcDbRegAppTableRecord
  2
ACAD
 70
    0
  0
APPID
  5
4B
330
9
100
AcDbSymbolTableRecord
100
AcDbRegAppTableRecord
  2
LibreCad
 70
    0
  0
ENDTAB
  0
TABLE
  2
DIMSTYLE
  5
A
330
0
100
AcDbSymbolTable
 70
    1
100
AcDbDimStyleTable
 71
    1
  0
DIMSTYLE
105
4C
330
A
100
AcDbSymbolTableRecord
100
AcDbDimStyleTableRecord
  2
Standard
 70
    0
 40
1
 41
0.18
 42
0.0625
 43
0.38
 44
0.18
 45
0
 46
0
 47
0
 48
0
 49
1
140
0.18
141
0.09
142
0
143
25.4
144
1
145
0
146
1
147
0.09
148
0
 71
    0
 72
    0
 73
    1
 74
    1
 75
    0
 76
    0
 77
    0
 78
    0
 79
    0
170
    0
171
    2
172
    0
173
    0
174
    0
175
    0
176
    0
177
    0
178
    0
179
    0
271
    4
272
    4
273
    2
274
    2
275
    0
276
    0
277
    2
278
   46
279
    0
280
    0
281
    0
282
    0
283
    1
284
    0
285
    0
286
    0
288
    0
289
    3
340
STANDARD
341

371
   -2
372
   -2
  0
ENDTAB
  0
TABLE
  2
BLOCK_RECORD
  5
1
330
0
100
AcDbSymbolTable
 70
    2
  0
BLOCK_RECORD
  5
1F
330
1
100
AcDbSymbolTableRecord
100
AcDbBlockTableRecord
  2
*Model_Space
 70
    0
280
    1
281
    0
  0
BLOCK_RECORD
  5
1E
330
1
100
AcDbSymbolTableRecord
100
AcDbBlockTableRecord
  2
*Paper_Space
 70
    0
280
    1
281
    0
  0
BLOCK_RECORD
  5
4D
330
1
100
AcDbSymbolTableRecord
100
AcDbBlockTableRecord
  2
ALUMIL-S67584
 70
    0
280
    1
281
    0
  0
ENDTAB
  0
ENDSEC
  0
SECTION
  2
BLOCKS
  0
BLOCK
  5
20
330
1F
100
AcDbEntity
  8
0
100
AcDbBlockBegin
  2
*Model_Space
 70
    0
 10
0
 20
0
 30
0
  3
*Model_Space
  1

  0
ENDBLK
  5
21
330
1F
100
AcDbEntity
  8
0
100
AcDbBlockEnd
  0
BLOCK
  5
1C
330
1B
100
AcDbEntity
  8
0
100
AcDbBlockBegin
  2
*Paper_Space
 70
    0
 10
0
 20
0
 30
0
  3
*Paper_Space
  1

  0
ENDBLK
  5
1D
330
1F
100
AcDbEntity
  8
0
100
AcDbBlockEnd
  0
BLOCK
  5
4E
330
4D
100
AcDbEntity
  8
0
100
AcDbBlockBegin
  2
ALUMIL-S67584
 70
    0
 10
995.1327369999999
 20
-1060.464099
  3
ALUMIL-S67584
  1

  0
LWPOLYLINE
  5
50
100
AcDbEntity
  8
0
  6
CONTINUOUS
 62
   40
370
   -1
100
AcDbPolyline
 90
   20
 70
    1
 43
0
 10
1060.332737
 20
-1026.764099
 10
1060.332737
 20
-983.3640990000001
 10
1053.732737
 20
-983.3640990000001
 10
1053.732737
 20
-985.0640990000001
 42
-0.4142140000001461
 10
1053.432737
 20
-985.364099
 10
1053.032737
 20
-985.364099
 42
-0.4142140000001461
 10
1052.732737
 20
-985.0640990000001
 10
1052.732737
 20
-983.5640989999999
 42
0.4142140000000126
 10
1052.232737
 20
-983.0640990000001
 10
1043.932737
 20
-983.0640990000001
 42
0.4142140000000128
 10
1043.432737
 20
-983.5640989999999
 10
1043.432737
 20
-990.9798960000001
 42
0.1704839999999764
 10
1043.652307
 20
-991.605138
 10
1053.513167
 20
-1003.913505
 42
-0.1704840000000066
 10
1053.732737
 20
-1004.538747
 10
1053.732737
 20
-1007.264099
 10
1053.432737
 20
-1007.264099
 10
1053.432737
 20
-1023.764099
 10
1053.732737
 20
-1023.764099
 10
1053.732737
 20
-1026.764099
  0
LWPOLYLINE
  5
51
100
AcDbEntity
  8
0
  6
CONTINUOUS
 62
   40
370
   -1
100
AcDbPolyline
 90
   91
 70
    1
 43
0
 10
1062.132737
 20
-976.764099
 10
1062.132737
 20
-1029.464099
 42
-0.4142140000000792
 10
1061.632737
 20
-1029.964099
 10
1060.832737
 20
-1029.964099
 42
-0.4142140000000348
 10
1060.532737
 20
-1029.664099
 10
1060.532737
 20
-1028.664099
 42
0.4142139999998131
 10
1060.232737
 20
-1028.364099
 10
1053.932737
 20
-1028.364099
 42
0.414213999999813
 10
1053.632737
 20
-1028.664099
 10
1053.632737
 20
-1034.664099
 42
0.4142140000000351
 10
1053.932737
 20
-1034.964099
 10
1054.832737
 20
-1034.964099
 42
-0.414214000000035
 10
1055.132737
 20
-1035.264099
 10
1055.132737
 20
-1041.464099
 42
-0.4142140000000792
 10
1054.632737
 20
-1041.964099
 10
1052.332737
 20
-1041.964099
 42
-0.4142209999999172
 10
1051.832737
 20
-1041.464086
 10
1051.832737
 20
-1040.864099
 42
-0.4142150000000273
 10
1052.33274
 20
-1040.364099
 10
1053.132737
 20
-1040.364099
 42
0.4142210000000504
 10
1053.632737
 20
-1039.864086
 10
1053.632737
 20
-1038.164099
 42
0.4142140000000792
 10
1053.132737
 20
-1037.664099
 10
1050.632737
 20
-1037.664099
 10
1050.152488
 20
-1037.0951
 42
0.35950799999974
 10
1049.787535
 20
-1037.208057
 42
-0.2637250000000012
 10
1049.524361
 20
-1037.343297
 10
1048.024246
 20
-1037.281735
 42
-0.5486189999998287
 10
1047.770082
 20
-1036.84416
 10
1048.86102
 20
-1034.735026
 42
-0.1763370000000862
 10
1049.011965
 20
-1034.595986
 10
1049.486704
 20
-1034.397885
 42
-0.5773680000002984
 10
1049.762079
 20
-1034.608057
 10
1049.73969
 20
-1034.781632
 42
0.2679489999998804
 10
1049.81671
 20
-1034.966207
 10
1051.648387
 20
-1036.364099
 10
1051.832737
 20
-1036.364099
 42
0.7207590000002537
 10
1051.952737
 20
-1036.004099
 42
-0.2360679999998687
 10
1051.832737
 20
-1035.764099
 10
1051.832737
 20
-1031.764099
 42
0.4142140000002572
 10
1051.532737
 20
-1031.464099
 10
1051.232737
 20
-1031.464099
 10
1049.636939
 20
-1032.438178
 42
-0.5855240000004928
 10
1049.332737
 20
-1032.267468
 10
1049.332737
 20
-1030.841884
 42
-0.2614129999999744
 10
1049.811727
 20
-1029.988334
 10
1051.353747
 20
-1029.047081
 42
0.2614130000000128
 10
1051.832737
 20
-1028.19353
 10
1051.832737
 20
-1004.726166
 42
0.1704840000000248
 10
1051.613167
 20
-1004.100923
 10
1039.552307
 20
-989.0465080000001
 42
-0.1704840000000358
 10
1039.332737
 20
-988.4212659999999
 10
1039.332737
 20
-987.264549
 42
-0.5849379999999829
 10
1039.636641
 20
-987.0936569999999
 10
1041.232737
 20
-988.0640990000001
 10
1041.532737
 20
-988.0640990000001
 42
0.414214000000035
 10
1041.832737
 20
-987.7640989999999
 10
1041.832737
 20
-983.764099
 42
-0.2360679999999087
 10
1041.952737
 20
-983.5240990000001
 42
0.720759000000383
 10
1041.832737
 20
-983.164099
 10
1041.648387
 20
-983.164099
 10
1039.81671
 20
-984.56199
 42
0.2679489999999392
 10
1039.73969
 20
-984.746565
 10
1039.762081
 20
-984.920151
 42
-0.5773499999998022
 10
1039.486704
 20
-985.130312
 10
1039.011954
 20
-984.9322060000001
 42
-0.1763270000000417
 10
1038.86102
 20
-984.7931710000001
 10
1037.770082
 20
-982.6840369999999
 42
-0.548618999999933
 10
1038.024246
 20
-982.246462
 10
1039.524361
 20
-982.1849000000001
 42
-0.2637250000000022
 10
1039.787535
 20
-982.3201410000001
 42
0.3595080000000554
 10
1040.152488
 20
-982.4330970000001
 10
1040.632737
 20
-981.864099
 10
1041.12563
 20
-981.864099
 42
0.6681790000002616
 10
1041.479184
 20
-981.0105449999999
 10
1041.079184
 20
-980.610545
 42
-0.1989119999999634
 10
1040.932737
 20
-980.2569919999999
 10
1040.932737
 20
-976.764099
 42
-0.414213999999924
 10
1041.232737
 20
-976.464099
 10
1042.532737
 20
-976.464099
 10
1044.532737
 20
-977.8640989999999
 10
1044.532737
 20
-978.4640989999999
 10
1042.532737
 20
-978.4640989999999
 10
1042.532737
 20
-980.4640990000001
 10
1043.532737
 20
-981.464099
 10
1060.532737
 20
-981.464099
 10
1060.532737
 20
-978.4640989999999
 10
1058.532737
 20
-978.4640989999999
 10
1058.532737
 20
-977.8640989999999
 10
1059.932737
 20
-976.464099
 10
1061.832737
 20
-976.464099
 42
-0.4142139999999241
  0
LWPOLYLINE
  5
52
100
AcDbEntity
  8
0
  6
CONTINUOUS
 62
   40
370
   -1
100
AcDbPolyline
 90
   12
 70
    1
 43
0
 10
996.932737
 20
-982.9640989999999
 10
996.932737
 20
-1040.364099
 10
1028.232737
 20
-1040.364099
 10
1028.232737
 20
-1036.164099
 42
-0.4142140000000794
 10
1028.732737
 20
-1035.664099
 10
1029.532737
 20
-1035.664099
 42
0.4142140000000792
 10
1030.032737
 20
-1035.164099
 10
1030.032737
 20
-1030.091676
 42
0.2614130000000354
 10
1029.553747
 20
-1029.238125
 10
1028.711727
 20
-1028.724154
 42
-0.2614130000000063
 10
1028.232737
 20
-1027.870603
 10
1028.232737
 20
-982.9640989999999
  0
LWPOLYLINE
  5
53
100
AcDbEntity
  8
0
  6
CONTINUOUS
 62
   40
370
   -1
100
AcDbPolyline
 90
  138
 70
    1
 43
0
 10
995.1327369999999
 20
-1060.164099
 10
995.1327369999999
 20
-951.7640979999999
 42
-0.4142140000000351
 10
995.4327369999999
 20
-951.4640980000001
 10
998.6327369999999
 20
-951.4640980000001
 42
-0.414213999999946
 10
999.132737
 20
-951.964098
 10
999.132737
 20
-952.9640979999999
 42
-0.414213999999946
 10
998.6327369999999
 20
-953.464098
 10
998.132737
 20
-953.464098
 10
998.1327370000001
 20
-952.6640979999999
 42
0.4663080000002161
 10
997.898007
 20
-952.4671359999999
 10
996.680643
 20
-952.6817910000001
 42
0.3639699999999554
 10
996.4327369999999
 20
-952.977233
 10
996.4327369999999
 20
-956.950963
 42
0.3639700000000441
 10
996.680643
 20
-957.246405
 10
997.898007
 20
-957.461059
 42
0.4663080000001166
 10
998.1327370000001
 20
-957.264098
 10
998.132737
 20
-956.464098
 10
998.6327369999999
 20
-956.464098
 42
-0.414213999999946
 10
999.1327369999999
 20
-956.964098
 10
999.132737
 20
-959.4640980000001
 42
-0.4142140000000126
 10
998.6327369999999
 20
-959.9640980000001
 42
-0.4142140000000348
 10
998.332737
 20
-959.664098
 10
998.332737
 20
-958.4640980000001
 10
996.632737
 20
-958.4640980000001
 10
996.632737
 20
-981.264099
 10
998.332737
 20
-981.264099
 10
998.332737
 20
-980.064109
 42
-0.4142239999999747
 10
998.6327369999999
 20
-979.7640989999999
 10
998.832724
 20
-979.764099
 42
-0.4142209999999837
 10
999.332737
 20
-980.264099
 10
999.332737
 20
-981.464099
 10
1005.332737
 20
-981.464099
 42
0.414214000000035
 10
1005.632737
 20
-981.1640989999999
 10
1005.632737
 20
-976.764099
 42
-0.414214000000035
 10
1005.932737
 20
-976.464099
 10
1006.832737
 20
-976.464099
 42
-0.414214000000035
 10
1007.132737
 20
-976.764099
 10
1007.132737
 20
-981.3640989999999
 10
1029.332737
 20
-981.3640989999999
 42
-0.414213999999946
 10
1029.832737
 20
-981.864099
 10
1031.032737
 20
-981.864099
 10
1031.512986
 20
-982.4330970000001
 42
0.3595080000000556
 10
1031.877939
 20
-982.3201410000001
 42
-0.2637250000000023
 10
1032.141113
 20
-982.1849000000001
 10
1033.641228
 20
-982.246462
 42
-0.5486189999999334
 10
1033.895392
 20
-982.6840369999999
 10
1032.804454
 20
-984.793171
 42
-0.1763269999999509
 10
1032.65352
 20
-984.932206
 10
1032.17877
 20
-985.130312
 42
-0.5773700000004807
 10
1031.903395
 20
-984.9201389999999
 10
1031.925783
 20
-984.746576
 42
0.2679639999998795
 10
1031.848764
 20
-984.5619900000002
 10
1030.017087
 20
-983.164099
 10
1029.832752
 20
-983.164099
 42
0.7207870000003254
 10
1029.712737
 20
-983.524099
 42
-0.2360679999999886
 10
1029.832737
 20
-983.764099
 10
1029.832737
 20
-987.7640879999999
 42
0.4142340000001475
 10
1030.132748
 20
-988.0640990000001
 10
1030.432737
 20
-988.0640990000001
 10
1032.028535
 20
-987.090019
 42
-0.5855240000001112
 10
1032.332737
 20
-987.2607289999999
 10
1032.332737
 20
-988.686313
 42
-0.2614129999999877
 10
1031.853747
 20
-989.539863
 10
1030.311727
 20
-990.4811160000002
 42
0.2614130000000121
 10
1029.832737
 20
-991.3346669999999
 10
1029.832737
 20
-1026.972725
 42
0.2614130000000357
 10
1030.311727
 20
-1027.826276
 10
1033.853747
 20
-1029.988334
 42
-0.2614129999999518
 10
1034.332737
 20
-1030.841884
 10
1034.332737
 20
-1032.267468
 42
-0.5855240000004928
 10
1034.028535
 20
-1032.438178
 10
1032.432737
 20
-1031.464099
 10
1032.132737
 20
-1031.464099
 42
0.4142140000002569
 10
1031.832737
 20
-1031.764099
 10
1031.832737
 20
-1035.764084
 42
-0.2360679999999889
 10
1031.712749
 20
-1036.00409
 42
0.7208139999993949
 10
1031.832751
 20
-1036.364099
 10
1032.017087
 20
-1036.364099
 10
1033.848764
 20
-1034.966207
 42
0.2679490000001618
 10
1033.925784
 20
-1034.781632
 10
1033.903394
 20
-1034.608046
 42
-0.5773500000000047
 10
1034.17877
 20
-1034.397885
 10
1034.653509
 20
-1034.595986
 42
-0.1763400000000335
 10
1034.804456
 20
-1034.735029
 10
1035.895392
 20
-1036.84416
 42
-0.5486189999998288
 10
1035.641228
 20
-1037.281735
 10
1034.141113
 20
-1037.343297
 42
-0.2637250000000676
 10
1033.877939
 20
-1037.208057
 42
0.35950799999974
 10
1033.512986
 20
-1037.0951
 10
1033.032737
 20
-1037.664099
 10
1030.532737
 20
-1037.664099
 42
0.4142140000000794
 10
1030.032737
 20
-1038.164099
 10
1030.032737
 20
-1039.864099
 42
0.4142140000000794
 10
1030.532737
 20
-1040.364099
 10
1031.332737
 20
-1040.364099
 42
-0.4142140000000792
 10
1031.832737
 20
-1040.864099
 10
1031.832737
 20
-1041.464099
 42
-0.4142140000000792
 10
1031.332737
 20
-1041.964099
 10
1026.332737
 20
-1041.964099
 10
1026.132737
 20
-1041.764099
 10
1025.932737
 20
-1041.964099
 10
1018.332737
 20
-1041.964099
 10
1018.132737
 20
-1041.764099
 10
1017.932737
 20
-1041.964099
 10
1010.332737
 20
-1041.964099
 10
1010.132737
 20
-1041.764099
 10
1009.932737
 20
-1041.964099
 10
999.132737
 20
-1041.964099
 10
999.1327369999999
 20
-1042.964099
 42
-0.4142139999998794
 10
998.6327369999999
 20
-1043.464099
 10
998.432737
 20
-1043.464099
 42
-0.4142140000001459
 10
998.132737
 20
-1043.164099
 10
998.132737
 20
-1041.964099
 10
996.7327370000002
 20
-1041.964099
 10
996.7327370000002
 20
-1052.964099
 10
998.132737
 20
-1052.964099
 10
998.132737
 20
-1051.76412
 42
-0.4142350000001385
 10
998.432737
 20
-1051.464099
 10
998.6327089999999
 20
-1051.464099
 42
-0.4142299999999919
 10
999.132737
 20
-1051.964099
 10
999.132737
 20
-1053.964099
 10
999.132737
 20
-1054.964087
 42
-0.414227000000002
 10
998.632726
 20
-1055.464099
 10
998.132737
 20
-1055.464099
 10
998.1327370000001
 20
-1054.664099
 42
0.4663080000000128
 10
997.898007
 20
-1054.467137
 10
996.680643
 20
-1054.681791
 42
0.3639700000000124
 10
996.4327369999999
 20
-1054.977234
 10
996.4327369999999
 20
-1058.950963
 42
0.3639700000000123
 10
996.680643
 20
-1059.246406
 10
997.898007
 20
-1059.46106
 42
0.4663079999999161
 10
998.132737
 20
-1059.264099
 10
998.132737
 20
-1058.464099
 10
998.6327369999999
 20
-1058.464099
 42
-0.4142139999998794
 10
999.1327369999999
 20
-1058.964099
 10
999.1327369999999
 20
-1059.964099
 42
-0.4142139999998794
 10
998.6327369999999
 20
-1060.464099
 10
995.4327369999999
 20
-1060.464099
 42
-0.4142140000001459
  0
LWPOLYLINE
  5
54
100
AcDbEntity
  8
0
  6
CONTINUOUS
 62
    4
370
   -1
100
AcDbPolyline
 90
   40
 70
    1
 43
0
 10
1034.714619
 20
-981.9640989999999
 10
1036.950855
 20
-981.9640989999999
 42
-0.3057310000000349
 10
1037.321729
 20
-982.2142559999999
 10
1038.316526
 20
-984.676467
 42
0.3057439999999532
 10
1038.594687
 20
-984.8640989999999
 10
1038.771938
 20
-984.8640989999999
 42
0.1316590000000011
 10
1039.371968
 20
-984.7033290000001
 10
1041.079129
 20
-983.717699
 42
-0.1316660000000288
 10
1041.279147
 20
-983.6640989999997
 10
1041.432716
 20
-983.6640989999999
 42
-0.4142290000000664
 10
1041.832737
 20
-984.0640990000001
 10
1041.832737
 20
-987.4640990000001
 42
-0.4142139999998961
 10
1041.432737
 20
-987.864099
 10
1041.279147
 20
-987.864099
 42
-0.131652000000004
 10
1041.079147
 20
-987.810509
 10
1039.371968
 20
-986.824868
 42
0.1316519999999939
 10
1038.771968
 20
-986.664099
 10
1037.899708
 20
-986.664099
 42
-0.3057310000000193
 10
1036.787087
 20
-985.913626
 10
1036.156043
 20
-984.3517359999998
 42
0.3057500000000793
 10
1035.87788
 20
-984.164099
 10
1035.787615
 20
-984.164099
 42
0.3057500000000423
 10
1035.509439
 20
-984.351717
 10
1034.878392
 20
-985.9136119999999
 42
-0.3057379999999932
 10
1033.765751
 20
-986.664099
 10
1032.893507
 20
-986.664099
 42
0.131651999999994
 10
1032.293507
 20
-986.824868
 10
1030.586327
 20
-987.810509
 42
-0.131652000000004
 10
1030.386327
 20
-987.864099
 10
1030.232737
 20
-987.864099
 42
-0.4142139999999794
 10
1029.832737
 20
-987.4640990000001
 10
1029.832737
 20
-984.0640990000001
 42
-0.4142139999999795
 10
1030.232737
 20
-983.6640989999999
 10
1030.386327
 20
-983.6640989999999
 42
-0.1316520000000102
 10
1030.586327
 20
-983.717688
 10
1032.293507
 20
-984.7033289999999
 42
0.1316519999999863
 10
1032.893507
 20
-984.8640989999998
 10
1033.070787
 20
-984.8640989999999
 42
0.3057310000000092
 10
1033.348942
 20
-984.6764809999999
 10
1034.343746
 20
-982.2142559999999
 42
-0.3057310000000246
  0
LWPOLYLINE
  5
55
100
AcDbEntity
  8
0
  6
CONTINUOUS
 62
    4
370
   -1
100
AcDbPolyline
 90
   40
 70
    1
 43
0
 10
1047.037915
 20
-1037.664099
 10
1036.627559
 20
-1037.664099
 42
-0.2962129999999719
 10
1036.353496
 20
-1037.48612
 10
1035.220815
 20
-1034.942078
 42
0.2962130000000763
 10
1034.946752
 20
-1034.764099
 10
1034.827481
 20
-1034.764099
 42
0.131659999999982
 10
1034.227449
 20
-1034.924887
 10
1032.670301
 20
-1035.823906
 42
-0.1316519999999588
 10
1032.520301
 20
-1035.864099
 10
1032.232737
 20
-1035.864099
 42
-0.4142140000001459
 10
1031.832737
 20
-1035.464099
 10
1031.832737
 20
-1032.064099
 42
-0.414214000000146
 10
1032.232737
 20
-1031.664099
 10
1032.520301
 20
-1031.664099
 42
-0.1316519999999672
 10
1032.670301
 20
-1031.704291
 10
1034.227481
 20
-1032.603329
 42
0.1316549999999856
 10
1034.827494
 20
-1032.764099
 10
1036.138384
 20
-1032.764099
 42
-0.2956150000001042
 10
1036.412178
 20
-1032.941475
 10
1037.678297
 20
-1035.768471
 42
0.2956149999999864
 10
1038.134622
 20
-1036.064099
 10
1045.531127
 20
-1036.064099
 42
0.2962129999999555
 10
1045.987899
 20
-1035.767467
 10
1047.245844
 20
-1032.942078
 42
-0.2962130000000941
 10
1047.519907
 20
-1032.764099
 10
1048.837993
 20
-1032.764099
 42
0.1316519999999917
 10
1049.437993
 20
-1032.603329
 10
1050.995173
 20
-1031.704291
 42
-0.1316519999999672
 10
1051.145173
 20
-1031.664099
 10
1051.432737
 20
-1031.664099
 42
-0.4142139999999793
 10
1051.832737
 20
-1032.064099
 10
1051.832737
 20
-1035.464099
 42
-0.4142139999999793
 10
1051.432737
 20
-1035.864099
 10
1051.145173
 20
-1035.864099
 42
-0.131651999999959
 10
1050.995173
 20
-1035.823906
 10
1049.437993
 20
-1034.924868
 42
0.1316519999999939
 10
1048.837993
 20
-1034.764099
 10
1048.718723
 20
-1034.764099
 42
0.2962130000001353
 10
1048.444659
 20
-1034.942078
 10
1047.311978
 20
-1037.48612
 42
-0.2962130000000762
  0
ENDBLK
  5
4F
330
4D
100
AcDbEntity
  8
0
100
AcDbBlockEnd
  0
ENDSEC
  0
SECTION
  2
ENTITIES
  0
INSERT
  5
56
100
AcDbEntity
  8
0
  6
ByLayer
 62
    0
370
   -1
100
AcDbBlockReference
  2
ALUMIL-S67584
 10
-0.8381001937171959
 20
0.1141943633456321
 30
0
 41
1
 42
1
 43
0
 50
0
 70
    1
 71
    1
 44
0
 45
0
  0
ENDSEC
  0
SECTION
  2
OBJECTS
  0
DICTIONARY
  5
C
330
0
100
AcDbDictionary
281
    1
  3
ACAD_GROUP
350
D
  0
DICTIONARY
  5
D
330
C
100
AcDbDictionary
281
    1
  0
PLOTSETTINGS
  5
57
100
AcDbPlotSettings
  6
1x1
 40
0
 41
0
 42
0
 43
0
  0
ENDSEC
  0
EOF
