  0
SECTION
  2
HEADER
  9
$ACADVER
  1
AC1024
  9
$ACADMAINTVER
 70
226
  9
$DWGCODEPAGE
  3
ansi_1254
  9
$TITLE
  1

  9
$SUBJECT
  1

  9
$AUTHOR
  1

  9
$KEYWORDS
  1

  9
$COMMENTS
  1

  9
$LASTSAVEDBY
  1
root
  9
$REVISIONNUMBER
  1

  9
$INSBASE
 10
0
 20
0
 30
0
  9
$EXTMIN
 10
-35.161899999999996
 20
-26.647600000000018
 30
0
  9
$EXTMAX
 10
24.838300000000025
 20
28.352400000000006
 30
0
  9
$LIMMIN
 10
0
 20
0
  9
$LIMMAX
 10
12
 20
9
  9
$SNAPMODE
 70
0
  9
$SNAPUNIT
 10
1
 20
1
  9
$SNAPBASE
 10
0
 20
0
  9
$SNAPANG
 50
0
  9
$SNAPSTYLE
 70
0
  9
$SNAPISOPAIR
 70
0
  9
$ORTHOMODE
 70
0
  9
$REGENMODE
 70
1
  9
$FILLMODE
 70
1
  9
$QTEXTMODE
 70
0
  9
$MIRRTEXT
 70
1
  9
$LTSCALE
 40
1
  9
$OSMODE
 70
0
  9
$ATTMODE
 70
1
  9
$TEXTSIZE
 40
0.2
  9
$TRACEWID
 40
0.05
  9
$TEXTSTYLE
  7
Standard
  9
$CLAYER
  8
0
  9
$CELTYPE
  6
ByLayer
  9
$CECOLOR
 62
256
  9
$CELTSCALE
 40
1
  9
$DISPSILH
 70
0
  9
$DIMSCALE
 40
1
  9
$DIMASZ
 40
0.18
  9
$DIMEXO
 40
0.0625
  9
$DIMDLI
 40
0.38
  9
$DIMRND
 40
0
  9
$DIMDLE
 40
0
  9
$DIMEXE
 40
0.18
  9
$DIMTP
 40
0
  9
$DIMTM
 40
0
  9
$DIMTXT
 40
0.18
  9
$DIMCEN
 40
0.09
  9
$DIMTSZ
 40
0
  9
$DIMTOL
 70
0
  9
$DIMLIM
 70
0
  9
$DIMTIH
 70
1
  9
$DIMTOH
 70
1
  9
$DIMSE1
 70
0
  9
$DIMSE2
 70
0
  9
$DIMTAD
 70
0
  9
$DIMZIN
 70
0
  9
$DIMBLK
  1

  9
$DIMASO
 70
1
  9
$DIMSHO
 70
1
  9
$DIMPOST
  1

  9
$DIMAPOST
  1

  9
$DIMALT
 70
0
  9
$DIMALTD
 70
2
  9
$DIMALTF
 40
25.4
  9
$DIMLFAC
 40
1
  9
$DIMTOFL
 70
0
  9
$DIMTVP
 40
0
  9
$DIMTIX
 70
0
  9
$DIMSOXD
 70
0
  9
$DIMSAH
 70
0
  9
$DIMBLK1
  1

  9
$DIMBLK2
  1

  9
$DIMSTYLE
  2
Standard
  9
$DIMCLRD
 70
0
  9
$DIMCLRE
 70
0
  9
$DIMCLRT
 70
0
  9
$DIMTFAC
 40
1
  9
$DIMGAP
 40
0.09
  9
$DIMJUST
 70
0
  9
$DIMSD1
 70
0
  9
$DIMSD2
 70
0
  9
$DIMTOLJ
 70
1
  9
$DIMTZIN
 70
0
  9
$DIMALTZ
 70
0
  9
$DIMALTTZ
 70
0
  9
$DIMUPT
 70
0
  9
$DIMDEC
 70
4
  9
$DIMTDEC
 70
4
  9
$DIMALTU
 70
2
  9
$DIMALTTD
 70
2
  9
$DIMTXSTY
  7
Standard
  9
$DIMAUNIT
 70
0
  9
$DIMADEC
 70
0
  9
$DIMALTRND
 40
0
  9
$DIMAZIN
 70
0
  9
$DIMDSEP
 70
46
  9
$DIMATFIT
 70
3
  9
$DIMFRAC
 70
0
  9
$DIMLDRBLK
  1

  9
$DIMLUNIT
 70
2
  9
$DIMLWD
 70
-2
  9
$DIMLWE
 70
-2
  9
$DIMFXL
 40
1
  9
$DIMFXLON
 70
0
  9
$DIMJOGANG
 40
0.78539816339744828
  9
$DIMTFILL
 70
0
  9
$DIMTFILLCLR
 70
0
  9
$DIMARCSYM
 70
0
  9
$LUNITS
 70
2
  9
$LUPREC
 70
4
  9
$SKETCHINC
 40
0.1
  9
$FILLETRAD
 40
0.5
  9
$AUNITS
 70
0
  9
$AUPREC
 70
0
  9
$MENU
  1
.
  9
$ELEVATION
 40
0
  9
$PELEVATION
 40
0
  9
$THICKNESS
 40
0
  9
$LIMCHECK
 70
0
  9
$CHAMFERA
 40
0
  9
$CHAMFERB
 40
0
  9
$CHAMFERC
 40
0
  9
$CHAMFERD
 40
0
  9
$SKPOLY
 70
0
  9
$TDCREATE
 40
2459222.1838078704
  9
$TDUCREATE
 40
2459222.0588194327
  9
$TDUPDATE
 40
2460663.4971875
  9
$TDUUPDATE
 40
2460663.3721875
  9
$TDINDWG
 40
0.00068287037037037036
  9
$TDUSRTIMER
 40
0.00068287037037037036
  9
$USRTIMER
 70
1
  9
$ANGBASE
 50
0
  9
$ANGDIR
 70
0
  9
$PDMODE
 70
0
  9
$PDSIZE
 40
0
  9
$PLINEWID
 40
0
  9
$SPLFRAME
 70
0
  9
$SPLINETYPE
 70
6
  9
$SPLINESEGS
 70
8
  9
$HANDSEED
  5
117
  9
$SURFTAB1
 70
6
  9
$SURFTAB2
 70
6
  9
$SURFTYPE
 70
6
  9
$SURFU
 70
6
  9
$SURFV
 70
6
  9
$UCSORG
 10
0
 20
0
 30
0
  9
$UCSXDIR
 10
1
 20
0
 30
0
  9
$UCSYDIR
 10
0
 20
1
 30
0
  9
$UCSORTHOREF
  2

  9
$UCSORTHOVIEW
 70
0
  9
$UCSORGTOP
 10
0
 20
0
 30
0
  9
$UCSORGBOTTOM
 10
0
 20
0
 30
0
  9
$UCSORGLEFT
 10
0
 20
0
 30
0
  9
$UCSORGRIGHT
 10
0
 20
0
 30
0
  9
$UCSORGFRONT
 10
0
 20
0
 30
0
  9
$UCSORGBACK
 10
0
 20
0
 30
0
  9
$PUCSORG
 10
0
 20
0
 30
0
  9
$PUCSXDIR
 10
1
 20
0
 30
0
  9
$PUCSYDIR
 10
0
 20
1
 30
0
  9
$PUCSORTHOREF
  2

  9
$PUCSORTHOVIEW
 70
0
  9
$PUCSORGTOP
 10
0
 20
0
 30
0
  9
$PUCSORGBOTTOM
 10
0
 20
0
 30
0
  9
$PUCSORGLEFT
 10
0
 20
0
 30
0
  9
$PUCSORGRIGHT
 10
0
 20
0
 30
0
  9
$PUCSORGFRONT
 10
0
 20
0
 30
0
  9
$PUCSORGBACK
 10
0
 20
0
 30
0
  9
$USERI1
 70
0
  9
$USERI2
 70
0
  9
$USERI3
 70
0
  9
$USERI4
 70
0
  9
$USERI5
 70
0
  9
$USERR1
 40
0
  9
$USERR2
 40
0
  9
$USERR3
 40
0
  9
$USERR4
 40
0
  9
$USERR5
 40
0
  9
$WORLDVIEW
 70
1
  9
$SHADEDGE
 70
3
  9
$SHADEDIF
 70
70
  9
$TILEMODE
 70
1
  9
$MAXACTVP
 70
64
  9
$PINSBASE
 10
0
 20
0
 30
0
  9
$PLIMCHECK
 70
0
  9
$PEXTMIN
 10
1E+20
 20
1E+20
 30
1E+20
  9
$PEXTMAX
 10
-1E+20
 20
-1E+20
 30
-1E+20
  9
$PLIMMAX
 10
12
 20
9
  9
$PLIMMIN
 10
0
 20
0
  9
$UNITMODE
 70
0
  9
$VISRETAIN
 70
1
  9
$PLINEGEN
 70
0
  9
$PSLTSCALE
 70
1
  9
$TREEDEPTH
 70
3020
  9
$CMLSTYLE
  2
STANDARD
  9
$CMLJUST
 70
0
  9
$CMLSCALE
 40
1
  9
$PROXYGRAPHICS
 70
1
  9
$MEASUREMENT
 70
0
  9
$CELWEIGHT
370
-1
  9
$ENDCAPS
280
0
  9
$JOINSTYLE
280
0
  9
$LWDISPLAY
290
0
  9
$INSUNITS
 70
4
  9
$HYPERLINKBASE
  1

  9
$XEDIT
290
1
  9
$CEPSNTYPE
380
0
  9
$PSTYLEMODE
290
1
  9
$FINGERPRINTGUID
  2
{C13FB932-1753-4CB0-9ECE-FF52007F132F}
  9
$VERSIONGUID
  2
{26F77FE2-ED1A-7B44-80E8-8B7301E71A13}
  9
$EXTNAMES
290
1
  9
$PSVPSCALE
 40
0
  9
$CSHADOW
280
0
  9
$SHADOWPLANELOCATION
 40
0
  9
$SORTENTS
280
127
  9
$INDEXCTL
280
0
  9
$XCLIPFRAME
280
2
  9
$HALOGAP
280
0
  9
$OBSCOLOR
 70
0
  9
$OBSLTYPE
280
0
  9
$INTERSECTIONDISPLAY
280
0
  9
$INTERSECTIONCOLOR
 70
0
  9
$DIMASSOC
280
2
  9
$PROJECTNAME
  1

  9
$INTERFERECOLOR
 62
256
  9
$DIMLTYPE
  6

  9
$DIMLTEX1
  6

  9
$DIMLTEX2
  6

  9
$DIMTXTDIRECTION
 70
     0
  9
$STYLESHEET
  1

  9
$OLESTARTUP
290
     0
  9
$HIDETEXT
280
     1
  9
$CAMERADISPLAY
290
     0
  9
$LENSLENGTH
 40
50.0
  9
$CAMERAHEIGHT
 40
0.0
  9
$STEPSPERSEC
 40
2.0
  9
$STEPSIZE
 40
6.0
  9
$3DDWFPREC
 40
2.0
  9
$PSOLWIDTH
 40
0.25
  9
$PSOLHEIGHT
 40
4.0
  9
$LOFTANG1
 40
1.570796326794897
  9
$LOFTANG2
 40
1.570796326794897
  9
$LOFTMAG1
 40
0.0
  9
$LOFTMAG2
 40
0.0
  9
$LOFTPARAM
 70
     7
  9
$LOFTNORMALS
280
     1
  9
$LATITUDE
 40
37.795
  9
$LONGITUDE
 40
-122.394
  9
$NORTHDIRECTION
 40
0.0
  9
$TIMEZONE
 70
 -8000
  9
$LIGHTGLYPHDISPLAY
280
     1
  9
$TILEMODELIGHTSYNCH
280
     1
  9
$CMATERIAL
347
44
  9
$SOLIDHIST
280
     0
  9
$SHOWHIST
280
     1
  9
$DWFFRAME
280
     2
  9
$DGNFRAME
280
     2
  9
$REALWORLDSCALE
290
     1
  0
ENDSEC
  0
SECTION
  2
CLASSES
  0
CLASS
  1
ACDBDICTIONARYWDFLT
  2
AcDbDictionaryWithDefault
  3
ObjectDBX Classes
 90
0
 91
1
280
0
281
0
  0
CLASS
  1
VISUALSTYLE
  2
AcDbVisualStyle
  3
ObjectDBX Classes
 90
4095
 91
1
280
0
281
0
  0
CLASS
  1
MATERIAL
  2
AcDbMaterial
  3
ObjectDBX Classes
 90
1153
 91
1
280
0
281
0
  0
CLASS
  1
SCALE
  2
AcDbScale
  3
ObjectDBX Classes
 90
1153
 91
1
280
0
281
0
  0
CLASS
  1
TABLESTYLE
  2
AcDbTableStyle
  3
ObjectDBX Classes
 90
4095
 91
1
280
0
281
0
  0
CLASS
  1
MLEADERSTYLE
  2
AcDbMLeaderStyle
  3
ACDB_MLEADERSTYLE_CLASS
 90
4095
 91
1
280
0
281
0
  0
CLASS
  1
SUN
  2
AcDbSun
  3
SCENEOE
 90
1153
 91
1
280
0
281
0
  0
CLASS
  1
DICTIONARYVAR
  2
AcDbDictionaryVar
  3
ObjectDBX Classes
 90
0
 91
1
280
0
281
0
  0
CLASS
  1
CELLSTYLEMAP
  2
AcDbCellStyleMap
  3
ObjectDBX Classes
 90
1152
 91
1
280
0
281
0
  0
CLASS
  1
ACDBSECTIONVIEWSTYLE
  2
AcDbSectionViewStyle
  3
ObjectDBX Classes
 90
1025
 91
1
280
0
281
0
  0
CLASS
  1
ACDBDETAILVIEWSTYLE
  2
AcDbDetailViewStyle
  3
ObjectDBX Classes
 90
1025
 91
1
280
0
281
0
  0
CLASS
  1
RAPIDRTRENDERSETTINGS
  2
AcDbRapidRTRenderSettings
  3
ObjectDBX Classes
 90
1024
 91
1
280
0
281
0
  0
CLASS
  1
MENTALRAYRENDERSETTINGS
  2
AcDbMentalRayRenderSettings
  3
SCENEOE
 90
1024
 91
1
280
0
281
0
  0
CLASS
  1
ACIDBLOCKREFERENCE
  2
AcIdBlockReference
  3
AcIdViewObj|Product: Inventor Drawing Enabler|Company: Autodesk|Website: www.autodesk.com
 90
1
 91
1
280
0
281
1
  0
CLASS
  1
RASTERVARIABLES
  2
AcDbRasterVariables
  3
ISM
 90
0
 91
1
280
0
281
0
  0
CLASS
  1
IMAGEDEF
  2
AcDbRasterImageDef
  3
ISM
 90
0
 91
1
280
0
281
0
  0
CLASS
  1
IMAGEDEF_REACTOR
  2
AcDbRasterImageDefReactor
  3
ISM
 90
1
 91
1
280
0
281
0
  0
CLASS
  1
IMAGE
  2
AcDbRasterImage
  3
ISM
 90
127
 91
1
280
0
281
1
  0
CLASS
  1
ACAD_EVALUATION_GRAPH
  2
AcDbEvalGraph
  3
ObjectDBX Classes
 90
1153
 91
1
280
0
281
0
  0
CLASS
  1
BLOCKPOINTPARAMETER
  2
AcDbBlockPointParameter
  3
ObjectDBX Classes
 90
1153
 91
1
280
0
281
0
  0
CLASS
  1
BLOCKBASEPOINTPARAMETER
  2
AcDbBlockBasepointParameter
  3
ObjectDBX Classes
 90
1153
 91
1
280
0
281
0
  0
CLASS
  1
BLOCKLOOKUPPARAMETER
  2
AcDbBlockLookupParameter
  3
ObjectDBX Classes
 90
1153
 91
1
280
0
281
0
  0
CLASS
  1
BLOCKVISIBILITYPARAMETER
  2
AcDbBlockVisibilityParameter
  3
ObjectDBX Classes
 90
1153
 91
1
280
0
281
0
  0
CLASS
  1
BLOCKPROPERTIESTABLE
  2
AcDbBlockPropertiesTable
  3
ObjectDBX Classes
 90
1153
 91
1
280
0
281
0
  0
CLASS
  1
BLOCKPOLARPARAMETER
  2
AcDbBlockPolarParameter
  3
ObjectDBX Classes
 90
1153
 91
1
280
0
281
0
  0
CLASS
  1
BLOCKROTATIONPARAMETER
  2
AcDbBlockRotationParameter
  3
ObjectDBX Classes
 90
1153
 91
1
280
0
281
0
  0
CLASS
  1
BLOCKLINEARPARAMETER
  2
AcDbBlockLinearParameter
  3
ObjectDBX Classes
 90
1153
 91
1
280
0
281
0
  0
CLASS
  1
BLOCKXYPARAMETER
  2
AcDbBlockXYParameter
  3
ObjectDBX Classes
 90
1153
 91
1
280
0
281
0
  0
CLASS
  1
BLOCKFLIPPARAMETER
  2
AcDbBlockFlipParameter
  3
ObjectDBX Classes
 90
1153
 91
1
280
0
281
0
  0
CLASS
  1
BLOCKALIGNMENTPARAMETER
  2
AcDbBlockAlignmentParameter
  3
ObjectDBX Classes
 90
1153
 91
1
280
0
281
0
  0
CLASS
  1
BLOCKROTATEACTION
  2
AcDbBlockRotateAction
  3
ObjectDBX Classes
 90
1153
 91
1
280
0
281
0
  0
CLASS
  1
BLOCKSCALEACTION
  2
AcDbBlockScaleAction
  3
ObjectDBX Classes
 90
1153
 91
1
280
0
281
0
  0
CLASS
  1
BLOCKARRAYACTION
  2
AcDbBlockArrayAction
  3
ObjectDBX Classes
 90
1153
 91
1
280
0
281
0
  0
CLASS
  1
BLOCKFLIPACTION
  2
AcDbBlockFlipAction
  3
ObjectDBX Classes
 90
1153
 91
1
280
0
281
0
  0
CLASS
  1
BLOCKLOOKUPACTION
  2
AcDbBlockLookupAction
  3
ObjectDBX Classes
 90
1153
 91
1
280
0
281
0
  0
CLASS
  1
BLOCKMOVEACTION
  2
AcDbBlockMoveAction
  3
ObjectDBX Classes
 90
1153
 91
1
280
0
281
0
  0
CLASS
  1
BLOCKPOLARSTRETCHACTION
  2
AcDbBlockPolarStretchAction
  3
ObjectDBX Classes
 90
1153
 91
1
280
0
281
0
  0
CLASS
  1
BLOCKSTRETCHACTION
  2
AcDbBlockStretchAction
  3
ObjectDBX Classes
 90
1153
 91
1
280
0
281
0
  0
CLASS
  1
BLOCKALIGNMENTGRIP
  2
AcDbBlockAlignmentGrip
  3
ObjectDBX Classes
 90
1153
 91
1
280
0
281
0
  0
CLASS
  1
BLOCKFLIPGRIP
  2
AcDbBlockFlipGrip
  3
ObjectDBX Classes
 90
1153
 91
1
280
0
281
0
  0
CLASS
  1
ACDB_BLOCKREPRESENTATION_DATA
  2
AcDbBlockRepresentationData
  3
ObjectDBX Classes
 90
1153
 91
1
280
0
281
0
  0
CLASS
  1
ACDB_DYNAMICBLOCKPURGEPREVENTER_VERSION
  2
AcDbDynamicBlockPurgePreventer
  3
ObjectDBX Classes
 90
1153
 91
1
280
0
281
0
  0
CLASS
  1
BLOCKLINEARGRIP
  2
AcDbBlockLinearGrip
  3
ObjectDBX Classes
 90
1153
 91
1
280
0
281
0
  0
CLASS
  1
BLOCKLOOKUPGRIP
  2
AcDbBlockLookupGrip
  3
ObjectDBX Classes
 90
1153
 91
1
280
0
281
0
  0
CLASS
  1
BLOCKPOLARGRIP
  2
AcDbBlockPolarGrip
  3
ObjectDBX Classes
 90
1153
 91
1
280
0
281
0
  0
CLASS
  1
BLOCKPROPERTIESTABLEGRIP
  2
AcDbBlockPropertiesTableGrip
  3
ObjectDBX Classes
 90
1153
 91
1
280
0
281
0
  0
CLASS
  1
BLOCKROTATIONGRIP
  2
AcDbBlockRotationGrip
  3
ObjectDBX Classes
 90
1153
 91
1
280
0
281
0
  0
CLASS
  1
BLOCKVISIBILITYGRIP
  2
AcDbBlockVisibilityGrip
  3
ObjectDBX Classes
 90
1153
 91
1
280
0
281
0
  0
CLASS
  1
BLOCKXYGRIP
  2
AcDbBlockXYGrip
  3
ObjectDBX Classes
 90
1153
 91
1
280
0
281
0
  0
CLASS
  1
BLOCKGRIPLOCATIONCOMPONENT
  2
AcDbBlockGripExpr
  3
ObjectDBX Classes
 90
1153
 91
1
280
0
281
0
  0
CLASS
  1
ACDB_DYNAMICBLOCKPROXYNODE
  2
AcDbDynamicBlockProxyNode
  3
ObjectDBX Classes
 90
1153
 91
1
280
0
281
0
  0
ENDSEC
  0
SECTION
  2
TABLES
  0
TABLE
  2
VPORT
  5
8
330
0
100
AcDbSymbolTable
 70
1
  0
VPORT
  5
29
330
8
100
AcDbSymbolTableRecord
100
AcDbViewportTableRecord
  2
*Active
 70
0
 10
0
 20
0
 11
1
 21
1
 12
-14.49572743510103
 22
-0.81890211318410866
 13
0
 23
0
 14
0.5
 24
0.5
 15
0.5
 25
0.5
 16
0
 26
0
 36
1
 17
0
 27
0
 37
0
 40
150.58232173544479
 41
2.3148371531966219
 42
50
 43
0
 44
0
 50
0
 51
0
 71
0
 72
100
 73
1
 74
0
 75
0
 76
0
 77
0
 78
0
281
0
 65
1
110
0
120
0
130
0
111
1
121
0
131
0
112
0
122
1
132
0
 79
0
146
0
 60
3
 61
5
292
1
282
1
141
0
142
0
 63
250
421
3355443
1001
ACAD_NAV_VCDISPLAY
1070
3
  0
ENDTAB
  0
TABLE
  2
LTYPE
  5
5
100
AcDbSymbolTable
 70
3
  0
LTYPE
  5
14
330
5
100
AcDbSymbolTableRecord
100
AcDbLinetypeTableRecord
  2
ByBlock
  3

 70
0
 72
65
 73
0
 40
0
  0
LTYPE
  5
15
330
5
100
AcDbSymbolTableRecord
100
AcDbLinetypeTableRecord
  2
ByLayer
  3

 70
0
 72
65
 73
0
 40
0
  0
LTYPE
  5
16
330
5
100
AcDbSymbolTableRecord
100
AcDbLinetypeTableRecord
  2
Continuous
  3
Solid line
 70
0
 72
65
 73
0
 40
0
  0
ENDTAB
  0
TABLE
  2
LAYER
  5
2
100
AcDbSymbolTable
 70
3
  0
LAYER
  5
10
102
{ACAD_XDICTIONARY
360
CE
102
}
330
2
100
AcDbSymbolTableRecord
100
AcDbLayerTableRecord
 70
0
  2
0
 62
7
  6
Continuous
370
-3
390
F
  0
LAYER
  5
6F
102
{ACAD_XDICTIONARY
360
D0
102
}
330
2
100
AcDbSymbolTableRecord
100
AcDbLayerTableRecord
 70
0
  2
Layer 1
 62
7
  6
Continuous
370
-3
390
F
  0
LAYER
  5
110
330
2
100
AcDbSymbolTableRecord
100
AcDbLayerTableRecord
 70
64
  2
DEFPOINTS
 62
7
  6
Continuous
290
0
370
-3
390
F
  0
ENDTAB
  0
TABLE
  2
STYLE
  5
3
100
AcDbSymbolTable
 70
1
  0
STYLE
  5
11
330
3
100
AcDbSymbolTableRecord
100
AcDbTextStyleTableRecord
  2
Standard
 70
0
 40
0
 41
1
 50
0
 71
0
 42
0.2
  3
txt
  0
ENDTAB
  0
TABLE
  2
VIEW
  5
6
100
AcDbSymbolTable
 70
0
  0
ENDTAB
  0
TABLE
  2
UCS
  5
7
100
AcDbSymbolTable
 70
0
  0
ENDTAB
  0
TABLE
  2
APPID
  5
9
330
0
100
AcDbSymbolTable
 70
4
  0
APPID
  5
12
330
0
100
AcDbSymbolTableRecord
100
AcDbRegAppTableRecord
  2
ACAD
 70
0
  0
APPID
  5
6E
330
0
100
AcDbSymbolTableRecord
100
AcDbRegAppTableRecord
  2
ODA
 70
0
  0
APPID
  5
B6
330
0
100
AcDbSymbolTableRecord
100
AcDbRegAppTableRecord
  2
ACAD_MLEADERVER
 70
0
  0
APPID
  5
D6
330
0
100
AcDbSymbolTableRecord
100
AcDbRegAppTableRecord
  2
ACAD_NAV_VCDISPLAY
 70
0
  0
ENDTAB
  0
TABLE
  2
DIMSTYLE
  5
A
330
0
100
AcDbSymbolTable
 70
1
100
AcDbDimStyleTable
 71
0
  0
DIMSTYLE
105
27
330
A
100
AcDbSymbolTableRecord
100
AcDbDimStyleTableRecord
  2
Standard
 70
0
  3

  4

 40
1
 41
0.18
 42
0.0625
 43
0.38
 44
0.18
 45
0
 46
0
 47
0
 48
0
140
0.18
141
0.09
142
0
143
1
144
1
145
0
146
1
147
0.09
148
0
 71
0
 72
0
 73
1
 74
1
 75
0
 76
0
 77
0
 78
0
 79
0
170
0
171
2
172
0
173
0
174
0
175
0
179
0
271
4
272
4
273
2
274
0
275
0
276
0
277
2
278
46
279
0
280
0
281
0
282
0
283
1
284
0
285
0
286
0
288
0
289
0
340
11
371
-2
372
-2
  0
ENDTAB
  0
TABLE
  2
BLOCK_RECORD
  5
1
330
0
100
AcDbSymbolTable
 70
3
  0
BLOCK_RECORD
  5
1F
330
1
100
AcDbSymbolTableRecord
100
AcDbBlockTableRecord
  2
*Model_Space
340
22
 70
0
280
1
281
0
  0
BLOCK_RECORD
  5
1B
330
1
100
AcDbSymbolTableRecord
100
AcDbBlockTableRecord
  2
*Paper_Space
340
1E
 70
0
280
1
281
0
  0
BLOCK_RECORD
  5
23
330
1
100
AcDbSymbolTableRecord
100
AcDbBlockTableRecord
  2
*Paper_Space0
340
26
 70
0
280
1
281
0
  0
ENDTAB
  0
ENDSEC
  0
SECTION
  2
BLOCKS
  0
BLOCK
  5
20
330
1F
100
AcDbEntity
  8
0
100
AcDbBlockBegin
  2
*Model_Space
 70
0
 10
0
 20
0
 30
0
  3
*Model_Space
  0
ENDBLK
  5
21
330
1F
100
AcDbEntity
  8
0
100
AcDbBlockEnd
  0
BLOCK
  5
1C
330
1B
100
AcDbEntity
  8
0
 67
1
100
AcDbBlockBegin
  2
*Paper_Space
 70
0
 10
0
 20
0
 30
0
  3
*Paper_Space
  0
ENDBLK
  5
1D
330
1B
100
AcDbEntity
  8
0
100
AcDbBlockEnd
  0
BLOCK
  5
24
330
23
100
AcDbEntity
  8
0
 67
1
100
AcDbBlockBegin
  2
*Paper_Space0
 70
0
 10
0
 20
0
 30
0
  3
*Paper_Space0
  0
ENDBLK
  5
25
330
23
100
AcDbEntity
  8
0
100
AcDbBlockEnd
  0
ENDSEC
  0
SECTION
  2
ENTITIES
  0
SPLINE
  5
70
330
1F
100
AcDbEntity
  8
Layer 1
 62
174
370
20
100
AcDbSpline
 70
8
 71
3
 72
160
 73
156
 42
1E-09
 43
1E-10
 40
0
 40
0
 40
0
 40
0
 40
0.025
 40
0.025
 40
0.025
 40
0.02500001
 40
0.05
 40
0.05
 40
0.05
 40
0.05000001
 40
0.075
 40
0.075
 40
0.075
 40
0.07500001
 40
0.1
 40
0.1
 40
0.1
 40
0.10000001
 40
0.125
 40
0.125
 40
0.125
 40
0.12500001
 40
0.15
 40
0.15
 40
0.15
 40
0.15000001
 40
0.175
 40
0.175
 40
0.175
 40
0.17500001
 40
0.2
 40
0.2
 40
0.2
 40
0.20000001
 40
0.225
 40
0.225
 40
0.225
 40
0.22500001
 40
0.25
 40
0.25
 40
0.25
 40
0.25000001
 40
0.275
 40
0.275
 40
0.275
 40
0.27500001
 40
0.3
 40
0.3
 40
0.3
 40
0.30000001
 40
0.325
 40
0.325
 40
0.325
 40
0.32500001
 40
0.35
 40
0.35
 40
0.35
 40
0.35000001
 40
0.375
 40
0.375
 40
0.375
 40
0.37500001
 40
0.4
 40
0.4
 40
0.4
 40
0.40000001000000007
 40
0.425
 40
0.425
 40
0.425
 40
0.42500001
 40
0.45
 40
0.45
 40
0.45
 40
0.45000001000000012
 40
0.475
 40
0.475
 40
0.475
 40
0.47500001
 40
0.5
 40
0.5
 40
0.5
 40
0.50000001
 40
0.525
 40
0.525
 40
0.525
 40
0.52500001000000018
 40
0.55
 40
0.55
 40
0.55
 40
0.55000001000000021
 40
0.575
 40
0.575
 40
0.575
 40
0.57500001000000012
 40
0.6
 40
0.6
 40
0.6
 40
0.60000001000000014
 40
0.625
 40
0.625
 40
0.625
 40
0.62500001
 40
0.65
 40
0.65
 40
0.65
 40
0.65000001000000018
 40
0.675
 40
0.675
 40
0.675
 40
0.67500001000000021
 40
0.7
 40
0.7
 40
0.7
 40
0.70000001000000012
 40
0.725
 40
0.725
 40
0.725
 40
0.72500001000000014
 40
0.75
 40
0.75
 40
0.75
 40
0.75000001
 40
0.775
 40
0.775
 40
0.775
 40
0.77500001000000018
 40
0.8
 40
0.8
 40
0.8
 40
0.80000001000000009
 40
0.825
 40
0.825
 40
0.825
 40
0.82500000999999989
 40
0.85
 40
0.85
 40
0.85
 40
0.85000001000000014
 40
0.875
 40
0.875
 40
0.875
 40
0.87500001
 40
0.9
 40
0.9
 40
0.9
 40
0.90000001000000007
 40
0.925
 40
0.925
 40
0.925
 40
0.92500001000000009
 40
0.95
 40
0.95
 40
0.95
 40
0.95000000999999989
 40
1
 40
1
 40
1
 40
1
 10
23.312100000000012
 20
-23.37339999999999
 30
0
 10
23.312100000000012
 20
-23.37339999999999
 30
0
 10
23.312100000000008
 20
-24.925999999999984
 30
0
 10
23.312100000000008
 20
-24.925999999999984
 30
0
 10
23.312100000000008
 20
-24.925999999999984
 30
0
 10
23.312100000000008
 20
-24.925999999999984
 30
0
 10
23.312100000000008
 20
-24.925999999999984
 30
0
 10
23.312000000000012
 20
-24.925999999999984
 30
0
 10
23.312000000000012
 20
-24.925999999999984
 30
0
 10
23.312000000000012
 20
-24.925999999999984
 30
0
 10
21.566700000000012
 20
-24.925999999999984
 30
0
 10
21.566700000000012
 20
-24.925999999999984
 30
0
 10
21.566700000000012
 20
-24.925999999999984
 30
0
 10
21.566700000000012
 20
-24.925999999999984
 30
0
 10
21.566700000000012
 20
-24.925999999999984
 30
0
 10
21.566700000000012
 20
-24.925999999999984
 30
0
 10
21.566700000000012
 20
-24.925999999999984
 30
0
 10
21.566700000000012
 20
-24.925999999999984
 30
0
 10
21.566700000000012
 20
-24.347899999999985
 30
0
 10
21.566700000000012
 20
-24.347899999999985
 30
0
 10
21.566700000000012
 20
-24.347899999999985
 30
0
 10
21.566700000000012
 20
-24.347899999999985
 30
0
 10
21.566700000000012
 20
-24.347899999999985
 30
0
 10
21.566600000000012
 20
-24.347899999999989
 30
0
 10
21.566600000000012
 20
-24.347899999999989
 30
0
 10
21.566600000000012
 20
-24.347899999999989
 30
0
 10
19.837800000000012
 20
-24.347899999999989
 30
0
 10
19.837800000000012
 20
-24.347899999999989
 30
0
 10
19.837800000000012
 20
-24.347899999999989
 30
0
 10
19.837800000000012
 20
-24.347899999999989
 30
0
 10
19.837800000000012
 20
-24.347899999999989
 30
0
 10
19.837800000000012
 20
-24.347899999999989
 30
0
 10
19.837800000000012
 20
-24.347899999999989
 30
0
 10
19.837800000000012
 20
-24.347899999999989
 30
0
 10
19.837800000000009
 20
-10.251599999999987
 30
0
 10
19.837800000000009
 20
-10.251599999999987
 30
0
 10
19.837800000000009
 20
-10.251599999999987
 30
0
 10
19.837800000000009
 20
-10.251599999999987
 30
0
 10
19.837800000000009
 20
-10.251599999999987
 30
0
 10
19.837900000000005
 20
-10.251599999999993
 30
0
 10
19.837900000000005
 20
-10.251599999999993
 30
0
 10
19.837900000000005
 20
-10.251599999999993
 30
0
 10
21.194400000000005
 20
-10.251599999999993
 30
0
 10
21.194400000000005
 20
-10.251599999999993
 30
0
 10
21.194400000000005
 20
-10.251599999999993
 30
0
 10
21.194400000000005
 20
-10.251599999999993
 30
0
 10
21.194400000000005
 20
-10.251599999999993
 30
0
 10
21.194400000000005
 20
-10.251599999999993
 30
0
 10
21.194400000000005
 20
-10.251599999999993
 30
0
 10
21.194400000000005
 20
-10.251599999999993
 30
0
 10
21.707300000000007
 20
-9.7395999999999923
 30
0
 10
21.707300000000007
 20
-9.7395999999999923
 30
0
 10
21.707300000000007
 20
-9.7395999999999923
 30
0
 10
21.707300000000007
 20
-9.7395999999999923
 30
0
 10
21.707300000000007
 20
-9.7395999999999923
 30
0
 10
21.707300000000007
 20
-9.7395999999999923
 30
0
 10
21.707300000000007
 20
-9.7395999999999923
 30
0
 10
21.707300000000007
 20
-9.7395999999999923
 30
0
 10
23.312000000000012
 20
-9.7395999999999852
 30
0
 10
23.312000000000012
 20
-9.7395999999999852
 30
0
 10
23.312000000000012
 20
-9.7395999999999852
 30
0
 10
23.312000000000012
 20
-9.7395999999999852
 30
0
 10
23.312000000000012
 20
-9.7395999999999852
 30
0
 10
23.312000000000012
 20
-9.7395999999999852
 30
0
 10
23.312000000000012
 20
-9.7395999999999852
 30
0
 10
23.312000000000012
 20
-9.7395999999999852
 30
0
 10
23.312000000000012
 20
-11.110399999999988
 30
0
 10
23.312000000000012
 20
-11.110399999999988
 30
0
 10
23.312000000000012
 20
-11.110399999999988
 30
0
 10
23.312000000000012
 20
-11.110399999999988
 30
0
 10
23.312000000000012
 20
-11.110399999999988
 30
0
 10
23.3119
 20
-11.110399999999991
 30
0
 10
23.3119
 20
-11.110399999999991
 30
0
 10
23.3119
 20
-11.110399999999991
 30
0
 10
22.8736
 20
-11.548099999999991
 30
0
 10
22.8736
 20
-11.548099999999991
 30
0
 10
22.8736
 20
-11.548099999999991
 30
0
 10
22.8736
 20
-11.548099999999991
 30
0
 10
22.8736
 20
-11.548099999999991
 30
0
 10
22.8736
 20
-11.548099999999991
 30
0
 10
22.8736
 20
-11.548099999999991
 30
0
 10
22.897600000000011
 20
-11.968999999999991
 30
0
 10
23.107100000000006
 20
-12.167199999999987
 30
0
 10
23.502300000000012
 20
-12.142599999999991
 30
0
 10
23.502300000000012
 20
-12.142599999999991
 30
0
 10
23.502300000000012
 20
-12.142599999999991
 30
0
 10
23.502300000000012
 20
-12.142599999999991
 30
0
 10
23.502300000000012
 20
-12.142599999999991
 30
0
 10
23.502300000000012
 20
-12.142599999999991
 30
0
 10
24.281400000000005
 20
-11.949499999999983
 30
0
 10
24.695000000000004
 20
-11.532499999999992
 30
0
 10
24.742900000000006
 20
-10.891299999999983
 30
0
 10
24.742900000000006
 20
-10.891299999999983
 30
0
 10
24.742900000000006
 20
-10.891299999999983
 30
0
 10
24.742900000000006
 20
-10.891299999999983
 30
0
 10
24.742900000000006
 20
-10.891299999999983
 30
0
 10
24.742900000000006
 20
-10.891299999999983
 30
0
 10
24.742900000000006
 20
-10.891299999999983
 30
0
 10
24.7429
 20
-8.2405999999999846
 30
0
 10
24.7429
 20
-8.2405999999999846
 30
0
 10
24.7429
 20
-8.2405999999999846
 30
0
 10
24.7429
 20
-8.2405999999999846
 30
0
 10
24.7429
 20
-8.2405999999999846
 30
0
 10
24.742800000000006
 20
-8.2405999999999917
 30
0
 10
24.742800000000006
 20
-8.2405999999999917
 30
0
 10
24.742800000000006
 20
-8.2405999999999917
 30
0
 10
19.9492
 20
-8.2406
 30
0
 10
19.9492
 20
-8.2406
 30
0
 10
19.9492
 20
-8.2406
 30
0
 10
19.9492
 20
-8.2406
 30
0
 10
19.9492
 20
-8.2406
 30
0
 10
19.9491
 20
-8.2405999999999935
 30
0
 10
19.9491
 20
-8.2405999999999935
 30
0
 10
19.9491
 20
-8.2405999999999935
 30
0
 10
19.1387
 20
-6.8389999999999942
 30
0
 10
19.1387
 20
-6.8389999999999942
 30
0
 10
19.1387
 20
-6.8389999999999942
 30
0
 10
19.1387
 20
-6.8389999999999942
 30
0
 10
19.1387
 20
-6.8389999999999942
 30
0
 10
19.1387
 20
-6.8389999999999942
 30
0
 10
19.1387
 20
-6.8389999999999942
 30
0
 10
19.1387
 20
-6.8389999999999942
 30
0
 10
19.499200000000002
 20
-6.2154999999999907
 30
0
 10
19.499200000000002
 20
-6.2154999999999907
 30
0
 10
19.499200000000002
 20
-6.2154999999999907
 30
0
 10
19.499200000000002
 20
-6.2154999999999907
 30
0
 10
19.499200000000002
 20
-6.2154999999999907
 30
0
 10
19.499200000000002
 20
-6.2154999999999907
 30
0
 10
19.499200000000002
 20
-6.2154999999999907
 30
0
 10
19.499200000000002
 20
-6.2154999999999907
 30
0
 10
19.499200000000002
 20
-4.2887999999999922
 30
0
 10
19.499200000000002
 20
-4.2887999999999922
 30
0
 10
19.499200000000002
 20
-4.2887999999999922
 30
0
 10
19.499200000000002
 20
-4.2887999999999922
 30
0
 10
19.499200000000002
 20
-4.2887999999999922
 30
0
 10
19.4991
 20
-4.2887999999999877
 30
0
 10
19.4991
 20
-4.2887999999999877
 30
0
 10
19.4991
 20
-4.2887999999999877
 30
0
 10
16.772
 20
-5.8606999999999889
 30
0
 10
16.772
 20
-5.8606999999999889
 30
0
 10
16.772
 20
-5.8606999999999889
 30
0
 10
16.772
 20
-5.8606999999999889
 30
0
 10
16.772
 20
-5.8606999999999889
 30
0
 10
16.772
 20
-5.8606999999999889
 30
0
 10
16.772
 20
-5.8606999999999889
 30
0
 10
16.772
 20
-5.8606999999999889
 30
0
 10
16.772
 20
3.8207000000000066
 30
0
 10
16.772
 20
3.8207000000000066
 30
0
 10
16.772
 20
3.8207000000000066
 30
0
 10
16.772
 20
3.8207000000000066
 30
0
 10
16.772
 20
3.8207000000000066
 30
0
 10
16.772
 20
3.8207000000000066
 30
0
 10
16.772
 20
3.8207000000000066
 30
0
 10
16.772
 20
3.8207000000000066
 30
0
 10
19.245999999999995
 20
2.6645000000000127
 30
0
 10
19.245999999999995
 20
2.6645000000000127
 30
0
  0
SPLINE
  5
71
330
1F
100
AcDbEntity
  8
Layer 1
 62
174
370
20
100
AcDbSpline
 70
8
 71
3
 72
48
 73
44
 42
1E-09
 43
1E-10
 40
0
 40
0
 40
0
 40
0
 40
0.0833333333333333
 40
0.0833333333333333
 40
0.0833333333333333
 40
0.0833333433333333
 40
0.16666666666666671
 40
0.16666666666666671
 40
0.16666666666666671
 40
0.16666667666666671
 40
0.25
 40
0.25
 40
0.25
 40
0.25000001
 40
0.33333333333333331
 40
0.33333333333333331
 40
0.33333333333333331
 40
0.33333334333333331
 40
0.41666666666666669
 40
0.41666666666666669
 40
0.41666666666666669
 40
0.41666667666666679
 40
0.5
 40
0.5
 40
0.5
 40
0.50000001
 40
0.58333333333333337
 40
0.58333333333333337
 40
0.58333333333333337
 40
0.58333334333333353
 40
0.66666666666666663
 40
0.66666666666666663
 40
0.66666666666666663
 40
0.66666667666666679
 40
0.75
 40
0.75
 40
0.75
 40
0.75000001
 40
0.83333333333333326
 40
0.83333333333333326
 40
0.83333333333333326
 40
0.83333334333333331
 40
1
 40
1
 40
1
 40
1
 10
19.246499999999997
 20
2.4910000000000068
 30
0
 10
19.246499999999997
 20
2.4910000000000068
 30
0
 10
19.6907
 20
3.259200000000007
 30
0
 10
19.6907
 20
3.259200000000007
 30
0
 10
19.6907
 20
3.259200000000007
 30
0
 10
19.6907
 20
3.259200000000007
 30
0
 10
19.6907
 20
3.259200000000007
 30
0
 10
19.6907
 20
3.259200000000007
 30
0
 10
19.6907
 20
3.259200000000007
 30
0
 10
19.6907
 20
3.259200000000007
 30
0
 10
19.690699999999996
 20
6.3888000000000069
 30
0
 10
19.690699999999996
 20
6.3888000000000069
 30
0
 10
19.690699999999996
 20
6.3888000000000069
 30
0
 10
19.690699999999996
 20
6.3888000000000069
 30
0
 10
19.690699999999996
 20
6.3888000000000069
 30
0
 10
19.690699999999996
 20
6.3888000000000069
 30
0
 10
19.690699999999996
 20
6.3888000000000069
 30
0
 10
19.690699999999996
 20
6.3888000000000069
 30
0
 10
21.810699999999994
 20
6.3888000000000078
 30
0
 10
21.810699999999994
 20
6.3888000000000078
 30
0
 10
21.810699999999994
 20
6.3888000000000078
 30
0
 10
21.810699999999994
 20
6.3888000000000078
 30
0
 10
21.810699999999994
 20
6.3888000000000078
 30
0
 10
21.810699999999994
 20
6.3888000000000078
 30
0
 10
21.810699999999994
 20
6.3888000000000078
 30
0
 10
21.810699999999994
 20
6.3888000000000078
 30
0
 10
21.810699999999997
 20
5.1996000000000109
 30
0
 10
21.810699999999997
 20
5.1996000000000109
 30
0
 10
21.810699999999997
 20
5.1996000000000109
 30
0
 10
21.810699999999997
 20
5.1996000000000109
 30
0
 10
21.810699999999997
 20
5.1996000000000109
 30
0
 10
21.810699999999997
 20
5.1996000000000109
 30
0
 10
21.810699999999997
 20
5.1996000000000109
 30
0
 10
21.8708
 20
5.0554000000000059
 30
0
 10
21.998999999999995
 20
4.96740000000001
 30
0
 10
22.195499999999992
 20
4.9355000000000082
 30
0
 10
22.195499999999992
 20
4.9355000000000082
 30
0
 10
22.195499999999992
 20
4.9355000000000082
 30
0
 10
22.195499999999992
 20
4.9355000000000082
 30
0
 10
22.195499999999992
 20
4.9355000000000082
 30
0
 10
22.195499999999992
 20
4.9355000000000082
 30
0
 10
22.803599999999996
 20
5.4205000000000094
 30
0
 10
23.1385
 20
5.8830000000000151
 30
0
 10
23.200499999999998
 20
6.322800000000008
 30
0
  0
SPLINE
  5
72
330
1F
100
AcDbEntity
  8
Layer 1
 62
174
370
20
100
AcDbSpline
 70
8
 71
3
 72
24
 73
20
 42
1E-09
 43
1E-10
 40
0
 40
0
 40
0
 40
0
 40
0.16666666666666671
 40
0.16666666666666671
 40
0.16666666666666671
 40
0.16666667666666671
 40
0.33333333333333331
 40
0.33333333333333331
 40
0.33333333333333331
 40
0.33333334333333331
 40
0.5
 40
0.5
 40
0.5
 40
0.50000001
 40
0.66666666666666663
 40
0.66666666666666663
 40
0.66666666666666663
 40
0.66666667666666679
 40
1
 40
1
 40
1
 40
1
 10
23.200499999999998
 20
6.322800000000008
 30
0
 10
23.200499999999998
 20
6.322800000000008
 30
0
 10
24.1598
 20
6.3228000000000009
 30
0
 10
24.1598
 20
6.3228000000000009
 30
0
 10
24.1598
 20
6.3228000000000009
 30
0
 10
24.1598
 20
6.3228000000000009
 30
0
 10
24.1598
 20
6.3228000000000009
 30
0
 10
24.1598
 20
6.3228000000000009
 30
0
 10
24.1598
 20
6.3228000000000009
 30
0
 10
24.1598
 20
6.3228000000000009
 30
0
 10
24.802799999999998
 20
6.9648000000000074
 30
0
 10
24.802799999999998
 20
6.9648000000000074
 30
0
 10
24.802799999999998
 20
6.9648000000000074
 30
0
 10
24.802799999999998
 20
6.9648000000000074
 30
0
 10
24.802799999999998
 20
6.9648000000000074
 30
0
 10
24.802799999999998
 20
6.9648000000000074
 30
0
 10
24.802799999999998
 20
6.9648000000000074
 30
0
 10
24.802799999999998
 20
6.9648000000000074
 30
0
 10
24.802799999999998
 20
9.3079000000000072
 30
0
 10
24.802799999999998
 20
9.3079000000000072
 30
0
  0
SPLINE
  5
73
330
1F
100
AcDbEntity
  8
Layer 1
 62
174
370
20
100
AcDbSpline
 70
8
 71
3
 72
24
 73
20
 42
1E-09
 43
1E-10
 40
0
 40
0
 40
0
 40
0
 40
0.16666666666666671
 40
0.16666666666666671
 40
0.16666666666666671
 40
0.16666667666666671
 40
0.33333333333333331
 40
0.33333333333333331
 40
0.33333333333333331
 40
0.33333334333333331
 40
0.5
 40
0.5
 40
0.5
 40
0.50000001
 40
0.66666666666666663
 40
0.66666666666666663
 40
0.66666666666666663
 40
0.66666667666666679
 40
1
 40
1
 40
1
 40
1
 10
24.802799999999994
 20
9.3080000000000069
 30
0
 10
24.623799999999996
 20
9.8275000000000112
 30
0
 10
24.266
 20
10.144000000000013
 30
0
 10
23.729599999999998
 20
10.257600000000014
 30
0
 10
23.729599999999998
 20
10.257600000000014
 30
0
 10
23.729599999999998
 20
10.257600000000014
 30
0
 10
23.729499999999991
 20
10.257600000000013
 30
0
 10
23.729499999999991
 20
10.257600000000013
 30
0
 10
23.729499999999991
 20
10.257600000000013
 30
0
 10
23.11999999999999
 20
10.421800000000008
 30
0
 10
22.8017
 20
10.2835
 30
0
 10
22.774299999999997
 20
9.8426000000000116
 30
0
 10
22.774299999999997
 20
9.8426000000000116
 30
0
 10
22.774299999999997
 20
9.8426000000000116
 30
0
 10
22.774299999999997
 20
9.8426000000000116
 30
0
 10
22.774299999999997
 20
9.8426000000000116
 30
0
 10
22.774299999999997
 20
9.8426000000000116
 30
0
 10
22.831199999999988
 20
9.5602000000000125
 30
0
 10
23.008299999999988
 20
9.3564000000000078
 30
0
 10
23.3055
 20
9.2315000000000129
 30
0
  0
SPLINE
  5
74
330
1F
100
AcDbEntity
  8
Layer 1
 62
174
370
20
100
AcDbSpline
 70
8
 71
3
 72
80
 73
76
 42
1E-09
 43
1E-10
 40
0
 40
0
 40
0
 40
0
 40
0.05
 40
0.05
 40
0.05
 40
0.05000001
 40
0.1
 40
0.1
 40
0.1
 40
0.10000001
 40
0.15
 40
0.15
 40
0.15
 40
0.15000001
 40
0.2
 40
0.2
 40
0.2
 40
0.20000001
 40
0.25
 40
0.25
 40
0.25
 40
0.25000001
 40
0.3
 40
0.3
 40
0.3
 40
0.30000001
 40
0.35
 40
0.35
 40
0.35
 40
0.35000001
 40
0.4
 40
0.4
 40
0.4
 40
0.40000001000000007
 40
0.45
 40
0.45
 40
0.45
 40
0.45000001000000012
 40
0.5
 40
0.5
 40
0.5
 40
0.50000001
 40
0.55
 40
0.55
 40
0.55
 40
0.55000001000000021
 40
0.6
 40
0.6
 40
0.6
 40
0.60000001000000014
 40
0.65
 40
0.65
 40
0.65
 40
0.65000001000000018
 40
0.7
 40
0.7
 40
0.7
 40
0.70000001000000012
 40
0.75
 40
0.75
 40
0.75
 40
0.75000001
 40
0.8
 40
0.8
 40
0.8
 40
0.80000001000000009
 40
0.85
 40
0.85
 40
0.85
 40
0.85000001000000014
 40
0.9
 40
0.9
 40
0.9
 40
0.90000001000000007
 40
1
 40
1
 40
1
 40
1
 10
23.25569999999999
 20
25.557500000000008
 30
0
 10
22.682199999999995
 20
24.80870000000002
 30
0
 10
22.682199999999995
 20
24.80870000000002
 30
0
 10
23.25569999999999
 20
25.557500000000008
 30
0
 10
23.25569999999999
 20
25.557500000000008
 30
0
 10
23.25569999999999
 20
25.557500000000008
 30
0
 10
23.25569999999999
 20
25.557500000000008
 30
0
 10
23.25569999999999
 20
25.557500000000008
 30
0
 10
23.25569999999999
 20
25.557500000000008
 30
0
 10
23.25569999999999
 20
25.557500000000008
 30
0
 10
23.255699999999987
 20
26.920000000000016
 30
0
 10
23.255699999999987
 20
26.920000000000016
 30
0
 10
23.255699999999987
 20
26.920000000000016
 30
0
 10
23.255699999999987
 20
26.920000000000016
 30
0
 10
23.255699999999987
 20
26.920000000000016
 30
0
 10
23.255599999999976
 20
26.920000000000016
 30
0
 10
23.255599999999976
 20
26.920000000000016
 30
0
 10
23.255599999999976
 20
26.920000000000016
 30
0
 10
21.824699999999982
 20
26.920000000000019
 30
0
 10
21.824699999999982
 20
26.920000000000019
 30
0
 10
21.824699999999982
 20
26.920000000000019
 30
0
 10
21.824699999999982
 20
26.920000000000019
 30
0
 10
21.824699999999982
 20
26.920000000000019
 30
0
 10
21.824699999999982
 20
26.920000000000019
 30
0
 10
21.824699999999982
 20
26.920000000000019
 30
0
 10
21.824599999999986
 20
26.920000000000009
 30
0
 10
21.303499999999989
 20
26.399800000000006
 30
0
 10
21.303499999999989
 20
26.399800000000006
 30
0
 10
21.303499999999989
 20
26.399800000000006
 30
0
 10
21.303499999999989
 20
26.399800000000006
 30
0
 10
21.303499999999989
 20
26.399800000000006
 30
0
 10
21.303399999999989
 20
26.39980000000001
 30
0
 10
21.303399999999989
 20
26.39980000000001
 30
0
 10
21.303399999999989
 20
26.39980000000001
 30
0
 10
19.798199999999984
 20
26.3998
 30
0
 10
19.798199999999984
 20
26.3998
 30
0
 10
19.798199999999984
 20
26.3998
 30
0
 10
19.798199999999984
 20
26.3998
 30
0
 10
19.798199999999984
 20
26.3998
 30
0
 10
19.798199999999984
 20
26.3998
 30
0
 10
19.798199999999984
 20
26.3998
 30
0
 10
19.798199999999984
 20
26.3998
 30
0
 10
19.798199999999994
 20
8.4513000000000069
 30
0
 10
19.798199999999994
 20
8.4513000000000069
 30
0
 10
19.798199999999994
 20
8.4513000000000069
 30
0
 10
19.798199999999994
 20
8.4513000000000069
 30
0
 10
19.798199999999994
 20
8.4513000000000069
 30
0
 10
19.798199999999994
 20
8.4513000000000069
 30
0
 10
19.798199999999994
 20
8.4513000000000069
 30
0
 10
19.798199999999994
 20
8.4513000000000069
 30
0
 10
21.233399999999989
 20
8.4513000000000069
 30
0
 10
21.233399999999989
 20
8.4513000000000069
 30
0
 10
21.233399999999989
 20
8.4513000000000069
 30
0
 10
21.233399999999989
 20
8.4513000000000069
 30
0
 10
21.233399999999989
 20
8.4513000000000069
 30
0
 10
21.233399999999989
 20
8.4513000000000069
 30
0
 10
21.233399999999989
 20
8.4513000000000069
 30
0
 10
21.233399999999989
 20
8.4513000000000069
 30
0
 10
21.866199999999992
 20
7.8195000000000059
 30
0
 10
21.866199999999992
 20
7.8195000000000059
 30
0
 10
21.866199999999992
 20
7.8195000000000059
 30
0
 10
21.866199999999992
 20
7.8195000000000059
 30
0
 10
21.866199999999992
 20
7.8195000000000059
 30
0
 10
21.866199999999992
 20
7.8195000000000059
 30
0
 10
21.866199999999992
 20
7.8195000000000059
 30
0
 10
21.866199999999992
 20
7.8195000000000059
 30
0
 10
23.3055
 20
7.8195000000000112
 30
0
 10
23.3055
 20
7.8195000000000112
 30
0
 10
23.3055
 20
7.8195000000000112
 30
0
 10
23.3055
 20
7.8195000000000112
 30
0
 10
23.3055
 20
7.8195000000000112
 30
0
 10
23.3055
 20
7.8195000000000112
 30
0
 10
23.3055
 20
7.8195000000000112
 30
0
 10
23.3055
 20
7.8195000000000112
 30
0
 10
23.3055
 20
9.2315000000000129
 30
0
 10
23.3055
 20
9.2315000000000129
 30
0
  0
SPLINE
  5
75
330
1F
100
AcDbEntity
  8
Layer 1
 62
174
370
20
100
AcDbSpline
 70
8
 71
3
 72
16
 73
12
 42
1E-09
 43
1E-10
 40
0
 40
0
 40
0
 40
0
 40
0.25
 40
0.25
 40
0.25
 40
0.25000001
 40
0.5
 40
0.5
 40
0.5
 40
0.50000001
 40
1
 40
1
 40
1
 40
1
 10
22.828799999999994
 20
25.00020000000001
 30
0
 10
22.729199999999985
 20
24.675200000000007
 30
0
 10
22.91149999999999
 20
24.474200000000007
 30
0
 10
23.375699999999984
 20
24.397200000000012
 30
0
 10
23.375699999999984
 20
24.397200000000012
 30
0
 10
23.375699999999984
 20
24.397200000000012
 30
0
 10
23.375699999999984
 20
24.397200000000012
 30
0
 10
23.375699999999984
 20
24.397200000000012
 30
0
 10
23.375699999999984
 20
24.397200000000012
 30
0
 10
24.168599999999987
 20
24.57630000000001
 30
0
 10
24.630499999999991
 20
24.978200000000012
 30
0
 10
24.761299999999984
 20
25.602900000000009
 30
0
  0
SPLINE
  5
76
330
1F
100
AcDbEntity
  8
Layer 1
 62
174
370
20
100
AcDbSpline
 70
8
 71
3
 72
24
 73
20
 42
1E-09
 43
1E-10
 40
0
 40
0
 40
0
 40
0
 40
0.16666666666666671
 40
0.16666666666666671
 40
0.16666666666666671
 40
0.16666667666666671
 40
0.33333333333333331
 40
0.33333333333333331
 40
0.33333333333333331
 40
0.33333334333333331
 40
0.5
 40
0.5
 40
0.5
 40
0.50000001
 40
0.66666666666666663
 40
0.66666666666666663
 40
0.66666666666666663
 40
0.66666667666666679
 40
1
 40
1
 40
1
 40
1
 10
24.761299999999984
 20
25.602900000000009
 30
0
 10
24.761299999999984
 20
25.602900000000009
 30
0
 10
24.761299999999984
 20
28.352400000000006
 30
0
 10
24.761299999999984
 20
28.352400000000006
 30
0
 10
24.761299999999984
 20
28.352400000000006
 30
0
 10
24.761299999999984
 20
28.352400000000006
 30
0
 10
24.761299999999984
 20
28.352400000000006
 30
0
 10
24.761199999999988
 20
28.352400000000006
 30
0
 10
24.761199999999988
 20
28.352400000000006
 30
0
 10
24.761199999999988
 20
28.352400000000006
 30
0
 10
-14.873600000000009
 20
28.352399999999989
 30
0
 10
-14.873600000000009
 20
28.352399999999989
 30
0
 10
-14.873600000000009
 20
28.352399999999989
 30
0
 10
-14.873600000000009
 20
28.352399999999989
 30
0
 10
-14.873700000000014
 20
28.352399999999992
 30
0
 10
-14.873700000000014
 20
28.352399999999992
 30
0
 10
-14.873700000000014
 20
28.352399999999992
 30
0
 10
-15.101900000000011
 20
28.136499999999991
 30
0
 10
-15.237000000000009
 20
27.819899999999986
 30
0
 10
-15.279
 20
27.4027
 30
0
  0
SPLINE
  5
77
330
1F
100
AcDbEntity
  8
Layer 1
 62
174
370
20
100
AcDbSpline
 70
8
 71
3
 72
144
 73
140
 42
1E-09
 43
1E-10
 40
0
 40
0
 40
0
 40
0
 40
0.0277777777777778
 40
0.0277777777777778
 40
0.0277777777777778
 40
0.0277777877777778
 40
0.0555555555555556
 40
0.0555555555555556
 40
0.0555555555555556
 40
0.0555555655555556
 40
0.0833333333333333
 40
0.0833333333333333
 40
0.0833333333333333
 40
0.0833333433333333
 40
0.11111111111111111
 40
0.11111111111111111
 40
0.11111111111111111
 40
0.1111111211111111
 40
0.1388888888888889
 40
0.1388888888888889
 40
0.1388888888888889
 40
0.13888889888888889
 40
0.16666666666666671
 40
0.16666666666666671
 40
0.16666666666666671
 40
0.16666667666666671
 40
0.19444444444444439
 40
0.19444444444444439
 40
0.19444444444444439
 40
0.19444445444444439
 40
0.22222222222222221
 40
0.22222222222222221
 40
0.22222222222222221
 40
0.22222223222222221
 40
0.25
 40
0.25
 40
0.25
 40
0.25000001
 40
0.27777777777777779
 40
0.27777777777777779
 40
0.27777777777777779
 40
0.27777778777777778
 40
0.30555555555555558
 40
0.30555555555555558
 40
0.30555555555555558
 40
0.30555556555555557
 40
0.33333333333333331
 40
0.33333333333333331
 40
0.33333333333333331
 40
0.33333334333333331
 40
0.3611111111111111
 40
0.3611111111111111
 40
0.3611111111111111
 40
0.3611111211111111
 40
0.3888888888888889
 40
0.3888888888888889
 40
0.3888888888888889
 40
0.38888889888888889
 40
0.41666666666666669
 40
0.41666666666666669
 40
0.41666666666666669
 40
0.41666667666666679
 40
0.44444444444444448
 40
0.44444444444444448
 40
0.44444444444444448
 40
0.44444445444444441
 40
0.47222222222222232
 40
0.47222222222222232
 40
0.47222222222222232
 40
0.4722222322222222
 40
0.5
 40
0.5
 40
0.5
 40
0.50000001
 40
0.52777777777777779
 40
0.52777777777777779
 40
0.52777777777777779
 40
0.52777778777777784
 40
0.55555555555555558
 40
0.55555555555555558
 40
0.55555555555555558
 40
0.55555556555555574
 40
0.58333333333333337
 40
0.58333333333333337
 40
0.58333333333333337
 40
0.58333334333333353
 40
0.61111111111111116
 40
0.61111111111111116
 40
0.61111111111111116
 40
0.61111112111111121
 40
0.638888888888889
 40
0.638888888888889
 40
0.638888888888889
 40
0.63888889888888889
 40
0.66666666666666663
 40
0.66666666666666663
 40
0.66666666666666663
 40
0.66666667666666679
 40
0.69444444444444453
 40
0.69444444444444453
 40
0.69444444444444453
 40
0.69444445444444447
 40
0.72222222222222232
 40
0.72222222222222232
 40
0.72222222222222232
 40
0.72222223222222226
 40
0.75
 40
0.75
 40
0.75
 40
0.75000001
 40
0.77777777777777779
 40
0.77777777777777779
 40
0.77777777777777779
 40
0.77777778777777784
 40
0.80555555555555547
 40
0.80555555555555547
 40
0.80555555555555547
 40
0.80555556555555563
 40
0.83333333333333326
 40
0.83333333333333326
 40
0.83333333333333326
 40
0.83333334333333331
 40
0.861111111111111
 40
0.861111111111111
 40
0.861111111111111
 40
0.8611111211111111
 40
0.888888888888889
 40
0.888888888888889
 40
0.888888888888889
 40
0.88888889888888878
 40
0.91666666666666663
 40
0.91666666666666663
 40
0.91666666666666663
 40
0.91666667666666668
 40
0.94444444444444442
 40
0.94444444444444442
 40
0.94444444444444442
 40
0.94444445444444436
 40
1
 40
1
 40
1
 40
1
 10
-15.279
 20
27.4027
 30
0
 10
-15.279
 20
27.4027
 30
0
 10
-15.279000000000005
 20
25.651999999999994
 30
0
 10
-15.279000000000005
 20
25.651999999999994
 30
0
 10
-15.279000000000005
 20
25.651999999999994
 30
0
 10
-15.279000000000005
 20
25.651999999999994
 30
0
 10
-15.279000000000005
 20
25.651999999999994
 30
0
 10
-15.279000000000005
 20
25.651999999999994
 30
0
 10
-15.279000000000005
 20
25.651999999999994
 30
0
 10
-15.166900000000013
 20
24.969799999999989
 30
0
 10
-14.764500000000012
 20
24.543199999999995
 30
0
 10
-14.071400000000011
 20
24.371999999999989
 30
0
 10
-14.071400000000011
 20
24.371999999999989
 30
0
 10
-14.071400000000011
 20
24.371999999999989
 30
0
 10
-14.071300000000017
 20
24.371999999999996
 30
0
 10
-14.071300000000017
 20
24.371999999999996
 30
0
 10
-14.071300000000017
 20
24.371999999999996
 30
0
 10
-13.789800000000003
 20
24.346699999999991
 30
0
 10
-13.596900000000012
 20
24.398999999999997
 30
0
 10
-13.492400000000011
 20
24.528899999999989
 30
0
 10
-13.492400000000011
 20
24.528899999999989
 30
0
 10
-13.492400000000011
 20
24.528899999999989
 30
0
 10
-13.492300000000013
 20
24.528899999999993
 30
0
 10
-13.492300000000013
 20
24.528899999999993
 30
0
 10
-13.492300000000013
 20
24.528899999999993
 30
0
 10
-13.337400000000015
 20
24.839999999999996
 30
0
 10
-13.309900000000015
 20
25.0905
 30
0
 10
-13.409600000000012
 20
25.28039999999999
 30
0
 10
-13.409600000000012
 20
25.28039999999999
 30
0
 10
-13.409600000000012
 20
25.28039999999999
 30
0
 10
-13.409600000000012
 20
25.28039999999999
 30
0
 10
-13.409700000000013
 20
25.280399999999986
 30
0
 10
-13.409700000000013
 20
25.280399999999986
 30
0
 10
-13.409700000000013
 20
25.280399999999986
 30
0
 10
-13.839800000000011
 20
25.28039999999999
 30
0
 10
-13.839800000000011
 20
25.28039999999999
 30
0
 10
-13.839800000000011
 20
25.28039999999999
 30
0
 10
-13.839800000000011
 20
25.28039999999999
 30
0
 10
-13.839700000000015
 20
25.28039999999999
 30
0
 10
-13.839700000000015
 20
25.28039999999999
 30
0
 10
-13.839700000000015
 20
25.28039999999999
 30
0
 10
-13.839700000000015
 20
25.28039999999999
 30
0
 10
-13.839800000000009
 20
26.894799999999989
 30
0
 10
-13.839800000000009
 20
26.894799999999989
 30
0
 10
-13.839800000000009
 20
26.894799999999989
 30
0
 10
-13.839800000000009
 20
26.894799999999989
 30
0
 10
-13.839700000000008
 20
26.894799999999989
 30
0
 10
-13.839700000000008
 20
26.894799999999989
 30
0
 10
-13.839700000000008
 20
26.894799999999989
 30
0
 10
-13.839700000000008
 20
26.894799999999989
 30
0
 10
-11.949600000000011
 20
26.894799999999996
 30
0
 10
-11.949600000000011
 20
26.894799999999996
 30
0
 10
-11.949600000000011
 20
26.894799999999996
 30
0
 10
-11.949600000000011
 20
26.894799999999996
 30
0
 10
-11.949600000000011
 20
26.894799999999996
 30
0
 10
-11.949600000000011
 20
26.894799999999996
 30
0
 10
-11.949600000000011
 20
26.894799999999996
 30
0
 10
-11.949600000000011
 20
26.894799999999996
 30
0
 10
-11.949600000000011
 20
26.395299999999995
 30
0
 10
-11.949600000000011
 20
26.395299999999995
 30
0
 10
-11.949600000000011
 20
26.395299999999995
 30
0
 10
-11.949600000000011
 20
26.395299999999995
 30
0
 10
-11.949600000000011
 20
26.395299999999995
 30
0
 10
-11.949600000000011
 20
26.395299999999995
 30
0
 10
-11.949600000000011
 20
26.395299999999995
 30
0
 10
-11.949600000000011
 20
26.395299999999995
 30
0
 10
-10.229200000000015
 20
26.395299999999995
 30
0
 10
-10.229200000000015
 20
26.395299999999995
 30
0
 10
-10.229200000000015
 20
26.395299999999995
 30
0
 10
-10.229200000000015
 20
26.395299999999995
 30
0
 10
-10.229200000000015
 20
26.395299999999995
 30
0
 10
-10.229200000000015
 20
26.395299999999995
 30
0
 10
-10.229200000000015
 20
26.395299999999995
 30
0
 10
-10.229200000000015
 20
26.395299999999995
 30
0
 10
-10.229200000000006
 20
8.3967999999999972
 30
0
 10
-10.229200000000006
 20
8.3967999999999972
 30
0
 10
-10.229200000000006
 20
8.3967999999999972
 30
0
 10
-10.229200000000006
 20
8.3967999999999972
 30
0
 10
-10.229200000000006
 20
8.3967999999999972
 30
0
 10
-10.229200000000006
 20
8.3967999999999972
 30
0
 10
-10.229200000000006
 20
8.3967999999999972
 30
0
 10
-10.229200000000006
 20
8.3967999999999972
 30
0
 10
-11.858600000000005
 20
8.3967999999999954
 30
0
 10
-11.858600000000005
 20
8.3967999999999954
 30
0
 10
-11.858600000000005
 20
8.3967999999999954
 30
0
 10
-11.858600000000005
 20
8.3967999999999954
 30
0
 10
-11.858600000000005
 20
8.3967999999999954
 30
0
 10
-11.858600000000005
 20
8.3967999999999954
 30
0
 10
-11.858600000000005
 20
8.3967999999999954
 30
0
 10
-11.858600000000005
 20
8.3967999999999954
 30
0
 10
-12.224800000000004
 20
7.7634999999999934
 30
0
 10
-12.224800000000004
 20
7.7634999999999934
 30
0
 10
-12.224800000000004
 20
7.7634999999999934
 30
0
 10
-12.224800000000004
 20
7.7634999999999934
 30
0
 10
-12.224800000000004
 20
7.7634999999999934
 30
0
 10
-12.224800000000004
 20
7.7634999999999934
 30
0
 10
-12.224800000000004
 20
7.7634999999999934
 30
0
 10
-12.224800000000004
 20
7.7634999999999934
 30
0
 10
-13.628900000000003
 20
7.7634999999999934
 30
0
 10
-13.628900000000003
 20
7.7634999999999934
 30
0
 10
-13.628900000000003
 20
7.7634999999999934
 30
0
 10
-13.628900000000003
 20
7.7634999999999934
 30
0
 10
-13.628900000000003
 20
7.7634999999999934
 30
0
 10
-13.628900000000003
 20
7.7634999999999934
 30
0
 10
-13.628900000000003
 20
7.7634999999999934
 30
0
 10
-13.628900000000003
 20
7.7634999999999934
 30
0
 10
-13.628900000000005
 20
9.2474999999999934
 30
0
 10
-13.628900000000005
 20
9.2474999999999934
 30
0
 10
-13.628900000000005
 20
9.2474999999999934
 30
0
 10
-13.628900000000005
 20
9.2474999999999934
 30
0
 10
-13.628800000000005
 20
9.2474999999999969
 30
0
 10
-13.628800000000005
 20
9.2474999999999969
 30
0
 10
-13.628800000000005
 20
9.2474999999999969
 30
0
 10
-13.382400000000006
 20
9.3486999999999938
 30
0
 10
-13.217100000000004
 20
9.4698999999999955
 30
0
 10
-13.132400000000004
 20
9.6107999999999922
 30
0
 10
-13.132400000000004
 20
9.6107999999999922
 30
0
 10
-13.132400000000004
 20
9.6107999999999922
 30
0
 10
-13.132400000000004
 20
9.6107999999999922
 30
0
 10
-13.132400000000004
 20
9.6107999999999922
 30
0
 10
-13.132400000000004
 20
9.6107999999999922
 30
0
 10
-13.037900000000006
 20
10.057299999999994
 30
0
 10
-13.200600000000005
 20
10.302199999999994
 30
0
 10
-13.620600000000001
 20
10.34579999999999
 30
0
 10
-13.620600000000001
 20
10.34579999999999
 30
0
 10
-13.620600000000001
 20
10.34579999999999
 30
0
 10
-13.620600000000001
 20
10.34579999999999
 30
0
 10
-13.620600000000001
 20
10.34579999999999
 30
0
 10
-13.620600000000001
 20
10.34579999999999
 30
0
 10
-13.838900000000004
 20
10.356199999999994
 30
0
 10
-14.053900000000002
 20
10.323199999999993
 30
0
 10
-14.265700000000003
 20
10.246699999999994
 30
0
 10
-14.265700000000003
 20
10.246699999999994
 30
0
 10
-14.265700000000003
 20
10.246699999999994
 30
0
 10
-14.265700000000003
 20
10.246699999999994
 30
0
 10
-14.265700000000003
 20
10.246699999999994
 30
0
 10
-14.265700000000003
 20
10.246699999999994
 30
0
 10
-14.689300000000003
 20
10.014799999999992
 30
0
 10
-14.975900000000003
 20
9.6431999999999949
 30
0
 10
-15.126000000000001
 20
9.131799999999993
 30
0
  0
SPLINE
  5
78
330
1F
100
AcDbEntity
  8
Layer 1
 62
174
370
20
100
AcDbSpline
 70
8
 71
3
 72
32
 73
28
 42
1E-09
 43
1E-10
 40
0
 40
0
 40
0
 40
0
 40
0.125
 40
0.125
 40
0.125
 40
0.12500001
 40
0.25
 40
0.25
 40
0.25
 40
0.25000001
 40
0.375
 40
0.375
 40
0.375
 40
0.37500001
 40
0.5
 40
0.5
 40
0.5
 40
0.50000001
 40
0.625
 40
0.625
 40
0.625
 40
0.62500001
 40
0.75
 40
0.75
 40
0.75
 40
0.75000001
 40
1
 40
1
 40
1
 40
1
 10
-15.126000000000001
 20
9.131799999999993
 30
0
 10
-15.126000000000001
 20
9.131799999999993
 30
0
 10
-15.126000000000001
 20
6.985099999999993
 30
0
 10
-15.126000000000001
 20
6.985099999999993
 30
0
 10
-15.126000000000001
 20
6.985099999999993
 30
0
 10
-15.126000000000001
 20
6.985099999999993
 30
0
 10
-15.126000000000001
 20
6.985099999999993
 30
0
 10
-15.126000000000001
 20
6.985099999999993
 30
0
 10
-15.126000000000001
 20
6.985099999999993
 30
0
 10
-15.125900000000005
 20
6.985099999999993
 30
0
 10
-14.617000000000004
 20
6.4768999999999917
 30
0
 10
-14.617000000000004
 20
6.4768999999999917
 30
0
 10
-14.617000000000004
 20
6.4768999999999917
 30
0
 10
-14.617000000000004
 20
6.4768999999999917
 30
0
 10
-14.617000000000004
 20
6.4768999999999917
 30
0
 10
-14.617000000000004
 20
6.4768999999999917
 30
0
 10
-14.617000000000004
 20
6.4768999999999917
 30
0
 10
-14.6169
 20
6.476899999999989
 30
0
 10
-13.545300000000001
 20
6.4768999999999917
 30
0
 10
-13.545300000000001
 20
6.4768999999999917
 30
0
 10
-13.545300000000001
 20
6.4768999999999917
 30
0
 10
-13.545300000000001
 20
6.4768999999999917
 30
0
 10
-13.545300000000001
 20
6.4768999999999917
 30
0
 10
-13.545300000000001
 20
6.4768999999999917
 30
0
 10
-13.545300000000001
 20
6.4768999999999917
 30
0
 10
-13.545200000000003
 20
6.4768999999999934
 30
0
 10
-12.635400000000004
 20
5.2838999999999938
 30
0
 10
-12.635400000000004
 20
5.2838999999999938
 30
0
  0
SPLINE
  5
79
330
1F
100
AcDbEntity
  8
Layer 1
 62
174
370
20
100
AcDbSpline
 70
8
 71
3
 72
184
 73
180
 42
1E-09
 43
1E-10
 40
0
 40
0
 40
0
 40
0
 40
0.0217391304347826
 40
0.0217391304347826
 40
0.0217391304347826
 40
0.0217391404347826
 40
0.0434782608695652
 40
0.0434782608695652
 40
0.0434782608695652
 40
0.0434782708695652
 40
0.0652173913043478
 40
0.0652173913043478
 40
0.0652173913043478
 40
0.0652174013043478
 40
0.0869565217391304
 40
0.0869565217391304
 40
0.0869565217391304
 40
0.0869565317391304
 40
0.108695652173913
 40
0.108695652173913
 40
0.108695652173913
 40
0.108695662173913
 40
0.13043478260869559
 40
0.13043478260869559
 40
0.13043478260869559
 40
0.13043479260869559
 40
0.1521739130434783
 40
0.1521739130434783
 40
0.1521739130434783
 40
0.15217392304347829
 40
0.17391304347826089
 40
0.17391304347826089
 40
0.17391304347826089
 40
0.17391305347826089
 40
0.19565217391304349
 40
0.19565217391304349
 40
0.19565217391304349
 40
0.19565218391304351
 40
0.21739130434782611
 40
0.21739130434782611
 40
0.21739130434782611
 40
0.2173913143478261
 40
0.2391304347826087
 40
0.2391304347826087
 40
0.2391304347826087
 40
0.2391304447826087
 40
0.2608695652173913
 40
0.2608695652173913
 40
0.2608695652173913
 40
0.26086957521739129
 40
0.28260869565217389
 40
0.28260869565217389
 40
0.28260869565217389
 40
0.28260870565217389
 40
0.30434782608695649
 40
0.30434782608695649
 40
0.30434782608695649
 40
0.30434783608695648
 40
0.32608695652173908
 40
0.32608695652173908
 40
0.32608695652173908
 40
0.32608696652173907
 40
0.34782608695652167
 40
0.34782608695652167
 40
0.34782608695652167
 40
0.34782609695652172
 40
0.36956521739130432
 40
0.36956521739130432
 40
0.36956521739130432
 40
0.36956522739130432
 40
0.391304347826087
 40
0.391304347826087
 40
0.391304347826087
 40
0.391304357826087
 40
0.41304347826086968
 40
0.41304347826086968
 40
0.41304347826086968
 40
0.41304348826086967
 40
0.43478260869565227
 40
0.43478260869565227
 40
0.43478260869565227
 40
0.43478261869565221
 40
0.45652173913043481
 40
0.45652173913043481
 40
0.45652173913043481
 40
0.45652174913043481
 40
0.47826086956521741
 40
0.47826086956521741
 40
0.47826086956521741
 40
0.47826087956521751
 40
0.5
 40
0.5
 40
0.5
 40
0.50000001
 40
0.52173913043478271
 40
0.52173913043478271
 40
0.52173913043478271
 40
0.52173914043478264
 40
0.5434782608695653
 40
0.5434782608695653
 40
0.5434782608695653
 40
0.54347827086956535
 40
0.56521739130434778
 40
0.56521739130434778
 40
0.56521739130434778
 40
0.56521740130434783
 40
0.58695652173913049
 40
0.58695652173913049
 40
0.58695652173913049
 40
0.58695653173913065
 40
0.60869565217391308
 40
0.60869565217391308
 40
0.60869565217391308
 40
0.60869566217391313
 40
0.63043478260869568
 40
0.63043478260869568
 40
0.63043478260869568
 40
0.63043479260869584
 40
0.65217391304347838
 40
0.65217391304347838
 40
0.65217391304347838
 40
0.65217392304347843
 40
0.67391304347826086
 40
0.67391304347826086
 40
0.67391304347826086
 40
0.67391305347826092
 40
0.69565217391304346
 40
0.69565217391304346
 40
0.69565217391304346
 40
0.69565218391304351
 40
0.717391304347826
 40
0.717391304347826
 40
0.717391304347826
 40
0.7173913143478261
 40
0.73913043478260865
 40
0.73913043478260865
 40
0.73913043478260865
 40
0.73913044478260881
 40
0.76086956521739135
 40
0.76086956521739135
 40
0.76086956521739135
 40
0.76086957521739151
 40
0.78260869565217406
 40
0.78260869565217406
 40
0.78260869565217406
 40
0.78260870565217422
 40
0.80434782608695665
 40
0.80434782608695665
 40
0.80434782608695665
 40
0.80434783608695648
 40
0.826086956521739
 40
0.826086956521739
 40
0.826086956521739
 40
0.82608696652173907
 40
0.84782608695652162
 40
0.84782608695652162
 40
0.84782608695652162
 40
0.84782609695652178
 40
0.86956521739130432
 40
0.86956521739130432
 40
0.86956521739130432
 40
0.86956522739130437
 40
0.89130434782608692
 40
0.89130434782608692
 40
0.89130434782608692
 40
0.891304357826087
 40
0.91304347826086951
 40
0.91304347826086951
 40
0.91304347826086951
 40
0.91304348826086956
 40
0.93478260869565211
 40
0.93478260869565211
 40
0.93478260869565211
 40
0.93478261869565216
 40
0.9565217391304347
 40
0.9565217391304347
 40
0.9565217391304347
 40
0.95652174913043475
 40
1
 40
1
 40
1
 40
1
 10
-12.6354
 20
5.2839999999999936
 30
0
 10
-12.6354
 20
5.2839999999999936
 30
0
 10
-11.2456
 20
5.28399999999999
 30
0
 10
-11.2456
 20
5.28399999999999
 30
0
 10
-11.2456
 20
5.28399999999999
 30
0
 10
-11.2456
 20
5.28399999999999
 30
0
 10
-11.2456
 20
5.28399999999999
 30
0
 10
-11.2457
 20
5.2839999999999954
 30
0
 10
-11.2457
 20
5.2839999999999954
 30
0
 10
-11.2457
 20
5.2839999999999954
 30
0
 10
-12.3417
 20
6.3781999999999908
 30
0
 10
-12.3417
 20
6.3781999999999908
 30
0
 10
-12.3417
 20
6.3781999999999908
 30
0
 10
-12.3417
 20
6.3781999999999908
 30
0
 10
-12.3417
 20
6.3781999999999908
 30
0
 10
-12.341600000000003
 20
6.3781999999999934
 30
0
 10
-12.341600000000003
 20
6.3781999999999934
 30
0
 10
-12.341600000000003
 20
6.3781999999999934
 30
0
 10
-10.029900000000001
 20
6.3781999999999961
 30
0
 10
-10.029900000000001
 20
6.3781999999999961
 30
0
 10
-10.029900000000001
 20
6.3781999999999961
 30
0
 10
-10.029900000000001
 20
6.3781999999999961
 30
0
 10
-10.029900000000001
 20
6.3781999999999961
 30
0
 10
-10.029800000000002
 20
6.3781999999999934
 30
0
 10
-10.029800000000002
 20
6.3781999999999934
 30
0
 10
-10.029800000000002
 20
6.3781999999999934
 30
0
 10
-9.6580000000000013
 20
4.992999999999995
 30
0
 10
-9.6580000000000013
 20
4.992999999999995
 30
0
 10
-9.6580000000000013
 20
4.992999999999995
 30
0
 10
-9.6580000000000013
 20
4.992999999999995
 30
0
 10
-9.6580000000000013
 20
4.992999999999995
 30
0
 10
-9.6580000000000013
 20
4.992999999999995
 30
0
 10
-9.6580000000000013
 20
4.992999999999995
 30
0
 10
-9.6580000000000013
 20
4.992999999999995
 30
0
 10
-10.0699
 20
4.2807999999999931
 30
0
 10
-10.0699
 20
4.2807999999999931
 30
0
 10
-10.0699
 20
4.2807999999999931
 30
0
 10
-10.0699
 20
4.2807999999999931
 30
0
 10
-10.0699
 20
4.2807999999999931
 30
0
 10
-10.0699
 20
4.2807999999999931
 30
0
 10
-10.0699
 20
4.2807999999999931
 30
0
 10
-10.0699
 20
4.2807999999999931
 30
0
 10
-10.0699
 20
2.4591999999999938
 30
0
 10
-10.0699
 20
2.4591999999999938
 30
0
 10
-10.0699
 20
2.4591999999999938
 30
0
 10
-10.0699
 20
2.4591999999999938
 30
0
 10
-10.0699
 20
2.4591999999999938
 30
0
 10
-10.0699
 20
2.4591999999999938
 30
0
 10
-10.0699
 20
2.4591999999999938
 30
0
 10
-10.0699
 20
2.4591999999999938
 30
0
 10
-7.0926000000000009
 20
4.0695999999999968
 30
0
 10
-7.0926000000000009
 20
4.0695999999999968
 30
0
 10
-7.0926000000000009
 20
4.0695999999999968
 30
0
 10
-7.0926000000000009
 20
4.0695999999999968
 30
0
 10
-7.0926000000000009
 20
4.0695999999999968
 30
0
 10
-7.0926000000000009
 20
4.0695999999999968
 30
0
 10
-7.0926000000000009
 20
4.0695999999999968
 30
0
 10
-7.0926000000000009
 20
4.0695999999999968
 30
0
 10
-7.0925999999999974
 20
-5.6996000000000029
 30
0
 10
-7.0925999999999974
 20
-5.6996000000000029
 30
0
 10
-7.0925999999999974
 20
-5.6996000000000029
 30
0
 10
-7.0925999999999974
 20
-5.6996000000000029
 30
0
 10
-7.0925999999999974
 20
-5.6996000000000029
 30
0
 10
-7.0925999999999974
 20
-5.6996000000000029
 30
0
 10
-7.0925999999999974
 20
-5.6996000000000029
 30
0
 10
-7.0925999999999974
 20
-5.6996000000000029
 30
0
 10
-8.8817999999999966
 20
-4.6684000000000028
 30
0
 10
-8.8817999999999966
 20
-4.6684000000000028
 30
0
 10
-8.8817999999999966
 20
-4.6684000000000028
 30
0
 10
-8.8817999999999966
 20
-4.6684000000000028
 30
0
 10
-8.8817999999999966
 20
-4.6684000000000028
 30
0
 10
-8.8817999999999966
 20
-4.6684000000000028
 30
0
 10
-8.8817999999999966
 20
-4.6684000000000028
 30
0
 10
-9.0888999999999971
 20
-4.5600000000000014
 30
0
 10
-9.2918999999999983
 20
-4.5568000000000026
 30
0
 10
-9.4908999999999963
 20
-4.6590000000000025
 30
0
 10
-9.4908999999999963
 20
-4.6590000000000025
 30
0
 10
-9.4908999999999963
 20
-4.6590000000000025
 30
0
 10
-9.4909999999999961
 20
-4.6590000000000025
 30
0
 10
-9.4909999999999961
 20
-4.6590000000000025
 30
0
 10
-9.4909999999999961
 20
-4.6590000000000025
 30
0
 10
-9.7149999999999963
 20
-4.6868000000000025
 30
0
 10
-9.8389999999999986
 20
-4.8603000000000005
 30
0
 10
-9.8630999999999958
 20
-5.1792000000000016
 30
0
 10
-9.8630999999999958
 20
-5.1792000000000016
 30
0
 10
-9.8630999999999958
 20
-5.1792000000000016
 30
0
 10
-9.8630999999999958
 20
-5.1792000000000016
 30
0
 10
-9.8630999999999958
 20
-5.1792000000000016
 30
0
 10
-9.8630999999999958
 20
-5.1792000000000016
 30
0
 10
-9.8630999999999958
 20
-5.1792000000000016
 30
0
 10
-9.863099999999994
 20
-6.4097000000000044
 30
0
 10
-9.863099999999994
 20
-6.4097000000000044
 30
0
 10
-9.863099999999994
 20
-6.4097000000000044
 30
0
 10
-9.863099999999994
 20
-6.4097000000000044
 30
0
 10
-9.863099999999994
 20
-6.4097000000000044
 30
0
 10
-9.863099999999994
 20
-6.4097000000000044
 30
0
 10
-9.863099999999994
 20
-6.4097000000000044
 30
0
 10
-9.863099999999994
 20
-6.4097000000000044
 30
0
 10
-9.5074999999999967
 20
-6.7648000000000064
 30
0
 10
-9.5074999999999967
 20
-6.7648000000000064
 30
0
 10
-9.5074999999999967
 20
-6.7648000000000064
 30
0
 10
-9.5074999999999967
 20
-6.7648000000000064
 30
0
 10
-9.5074999999999967
 20
-6.7648000000000064
 30
0
 10
-9.5075999999999947
 20
-6.7648000000000046
 30
0
 10
-9.5075999999999947
 20
-6.7648000000000046
 30
0
 10
-9.5075999999999947
 20
-6.7648000000000046
 30
0
 10
-10.108499999999994
 20
-9.0040000000000049
 30
0
 10
-10.108499999999994
 20
-9.0040000000000049
 30
0
 10
-10.108499999999994
 20
-9.0040000000000049
 30
0
 10
-10.108499999999994
 20
-9.0040000000000049
 30
0
 10
-10.108499999999994
 20
-9.0040000000000049
 30
0
 10
-10.108499999999994
 20
-9.0040000000000049
 30
0
 10
-10.108499999999994
 20
-9.0040000000000049
 30
0
 10
-10.108499999999994
 20
-9.0040000000000049
 30
0
 10
-10.108499999999994
 20
-10.324000000000005
 30
0
 10
-10.108499999999994
 20
-10.324000000000005
 30
0
 10
-10.108499999999994
 20
-10.324000000000005
 30
0
 10
-10.108499999999994
 20
-10.324000000000005
 30
0
 10
-10.108499999999994
 20
-10.324000000000005
 30
0
 10
-10.108599999999992
 20
-10.324000000000003
 30
0
 10
-10.108599999999992
 20
-10.324000000000003
 30
0
 10
-10.108599999999992
 20
-10.324000000000003
 30
0
 10
-12.187599999999993
 20
-10.324000000000003
 30
0
 10
-12.187599999999993
 20
-10.324000000000003
 30
0
 10
-12.187599999999993
 20
-10.324000000000003
 30
0
 10
-12.187599999999993
 20
-10.324000000000003
 30
0
 10
-12.187599999999993
 20
-10.324000000000003
 30
0
 10
-12.187599999999993
 20
-10.324000000000003
 30
0
 10
-12.187599999999993
 20
-10.324000000000003
 30
0
 10
-12.187599999999993
 20
-10.324000000000003
 30
0
 10
-12.187599999999994
 20
-8.787900000000004
 30
0
 10
-12.187599999999994
 20
-8.787900000000004
 30
0
 10
-12.187599999999994
 20
-8.787900000000004
 30
0
 10
-12.187599999999994
 20
-8.787900000000004
 30
0
 10
-12.187599999999994
 20
-8.787900000000004
 30
0
 10
-12.187599999999994
 20
-8.787900000000004
 30
0
 10
-12.187599999999994
 20
-8.787900000000004
 30
0
 10
-12.265299999999995
 20
-8.6067000000000036
 30
0
 10
-12.383699999999994
 20
-8.5021000000000075
 30
0
 10
-12.543299999999999
 20
-8.4742000000000015
 30
0
 10
-12.543299999999999
 20
-8.4742000000000015
 30
0
 10
-12.543299999999999
 20
-8.4742000000000015
 30
0
 10
-12.543299999999999
 20
-8.4742000000000015
 30
0
 10
-12.543299999999999
 20
-8.4742000000000015
 30
0
 10
-12.543299999999999
 20
-8.4742000000000015
 30
0
 10
-12.943199999999996
 20
-8.5773000000000028
 30
0
 10
-13.224399999999996
 20
-8.9213000000000076
 30
0
 10
-13.387099999999995
 20
-9.5064000000000028
 30
0
 10
-13.387099999999995
 20
-9.5064000000000028
 30
0
 10
-13.387099999999995
 20
-9.5064000000000028
 30
0
 10
-13.387099999999995
 20
-9.5064000000000028
 30
0
 10
-13.387099999999995
 20
-9.5064000000000028
 30
0
 10
-13.387099999999995
 20
-9.5064000000000028
 30
0
 10
-13.387099999999995
 20
-9.5064000000000028
 30
0
 10
-13.387099999999995
 20
-10.480900000000002
 30
0
 10
-13.387099999999995
 20
-10.480900000000002
 30
0
 10
-13.387099999999995
 20
-10.480900000000002
 30
0
 10
-13.387099999999995
 20
-10.480900000000002
 30
0
 10
-13.386999999999995
 20
-10.480900000000005
 30
0
 10
-13.386999999999995
 20
-10.480900000000005
 30
0
 10
-13.386999999999995
 20
-10.480900000000005
 30
0
 10
-13.187699999999994
 20
-11.050400000000003
 30
0
 10
-12.903599999999992
 20
-11.402700000000003
 30
0
 10
-12.534999999999995
 20
-11.537900000000004
 30
0
 10
-12.534999999999995
 20
-11.537900000000004
 30
0
 10
-12.534999999999995
 20
-11.537900000000004
 30
0
 10
-12.534999999999995
 20
-11.537900000000004
 30
0
 10
-12.534999999999995
 20
-11.537900000000004
 30
0
 10
-12.534999999999995
 20
-11.537900000000004
 30
0
 10
-12.534999999999995
 20
-11.537900000000004
 30
0
 10
-10.599299999999994
 20
-11.537900000000008
 30
0
 10
-10.599299999999994
 20
-11.537900000000008
 30
0
 10
-10.599299999999994
 20
-11.537900000000008
 30
0
 10
-10.599299999999994
 20
-11.537900000000008
 30
0
 10
-10.599299999999994
 20
-11.537900000000008
 30
0
 10
-10.599299999999994
 20
-11.537900000000008
 30
0
 10
-10.599299999999994
 20
-11.537900000000008
 30
0
 10
-10.599299999999994
 20
-11.537900000000008
 30
0
 10
-10.599299999999987
 20
-24.701100000000004
 30
0
 10
-10.599299999999987
 20
-24.701100000000004
 30
0
  0
SPLINE
  5
7A
330
1F
100
AcDbEntity
  8
Layer 1
 62
174
370
20
100
AcDbSpline
 70
8
 71
3
 72
176
 73
172
 42
1E-09
 43
1E-10
 40
0
 40
0
 40
0
 40
0
 40
0.0227272727272727
 40
0.0227272727272727
 40
0.0227272727272727
 40
0.0227272827272727
 40
0.0454545454545455
 40
0.0454545454545455
 40
0.0454545454545455
 40
0.0454545554545455
 40
0.0681818181818182
 40
0.0681818181818182
 40
0.0681818181818182
 40
0.0681818281818182
 40
0.0909090909090909
 40
0.0909090909090909
 40
0.0909090909090909
 40
0.0909091009090909
 40
0.11363636363636361
 40
0.11363636363636361
 40
0.11363636363636361
 40
0.1136363736363636
 40
0.13636363636363641
 40
0.13636363636363641
 40
0.13636363636363641
 40
0.1363636463636364
 40
0.15909090909090909
 40
0.15909090909090909
 40
0.15909090909090909
 40
0.15909091909090911
 40
0.1818181818181818
 40
0.1818181818181818
 40
0.1818181818181818
 40
0.18181819181818179
 40
0.20454545454545461
 40
0.20454545454545461
 40
0.20454545454545461
 40
0.20454546454545461
 40
0.22727272727272729
 40
0.22727272727272729
 40
0.22727272727272729
 40
0.22727273727272729
 40
0.25
 40
0.25
 40
0.25
 40
0.25000001
 40
0.27272727272727271
 40
0.27272727272727271
 40
0.27272727272727271
 40
0.2727272827272727
 40
0.29545454545454553
 40
0.29545454545454553
 40
0.29545454545454553
 40
0.29545455545454552
 40
0.31818181818181818
 40
0.31818181818181818
 40
0.31818181818181818
 40
0.31818182818181823
 40
0.34090909090909088
 40
0.34090909090909088
 40
0.34090909090909088
 40
0.34090910090909088
 40
0.36363636363636359
 40
0.36363636363636359
 40
0.36363636363636359
 40
0.36363637363636359
 40
0.38636363636363641
 40
0.38636363636363641
 40
0.38636363636363641
 40
0.3863636463636364
 40
0.40909090909090912
 40
0.40909090909090912
 40
0.40909090909090912
 40
0.40909091909090911
 40
0.43181818181818188
 40
0.43181818181818188
 40
0.43181818181818188
 40
0.43181819181818182
 40
0.45454545454545447
 40
0.45454545454545447
 40
0.45454545454545447
 40
0.45454546454545453
 40
0.4772727272727274
 40
0.4772727272727274
 40
0.4772727272727274
 40
0.47727273727272729
 40
0.5
 40
0.5
 40
0.5
 40
0.50000001
 40
0.52272727272727271
 40
0.52272727272727271
 40
0.52272727272727271
 40
0.52272728272727276
 40
0.54545454545454553
 40
0.54545454545454553
 40
0.54545454545454553
 40
0.54545455545454546
 40
0.56818181818181834
 40
0.56818181818181834
 40
0.56818181818181834
 40
0.56818182818181828
 40
0.590909090909091
 40
0.590909090909091
 40
0.590909090909091
 40
0.590909100909091
 40
0.61363636363636365
 40
0.61363636363636365
 40
0.61363636363636365
 40
0.6136363736363637
 40
0.63636363636363635
 40
0.63636363636363635
 40
0.63636363636363635
 40
0.63636364636363651
 40
0.65909090909090906
 40
0.65909090909090906
 40
0.65909090909090906
 40
0.65909091909090911
 40
0.68181818181818177
 40
0.68181818181818177
 40
0.68181818181818177
 40
0.68181819181818182
 40
0.70454545454545459
 40
0.70454545454545459
 40
0.70454545454545459
 40
0.70454546454545475
 40
0.7272727272727274
 40
0.7272727272727274
 40
0.7272727272727274
 40
0.72727273727272745
 40
0.75
 40
0.75
 40
0.75
 40
0.75000001
 40
0.77272727272727271
 40
0.77272727272727271
 40
0.77272727272727271
 40
0.77272728272727276
 40
0.79545454545454553
 40
0.79545454545454553
 40
0.79545454545454553
 40
0.79545455545454546
 40
0.81818181818181812
 40
0.81818181818181812
 40
0.81818181818181812
 40
0.81818182818181817
 40
0.840909090909091
 40
0.840909090909091
 40
0.840909090909091
 40
0.84090910090909088
 40
0.86363636363636365
 40
0.86363636363636365
 40
0.86363636363636365
 40
0.8636363736363637
 40
0.88636363636363635
 40
0.88636363636363635
 40
0.88636363636363635
 40
0.8863636463636364
 40
0.90909090909090906
 40
0.90909090909090906
 40
0.90909090909090906
 40
0.90909091909090922
 40
0.93181818181818177
 40
0.93181818181818177
 40
0.93181818181818177
 40
0.93181819181818171
 40
0.95454545454545459
 40
0.95454545454545459
 40
0.95454545454545459
 40
0.95454546454545464
 40
1
 40
1
 40
1
 40
1
 10
-10.582799999999992
 20
-24.698900000000002
 30
0
 10
-10.582799999999992
 20
-24.698900000000002
 30
0
 10
-24.594399999999993
 20
-24.698900000000013
 30
0
 10
-24.594399999999993
 20
-24.698900000000013
 30
0
 10
-24.594399999999993
 20
-24.698900000000013
 30
0
 10
-24.594399999999993
 20
-24.698900000000013
 30
0
 10
-24.594399999999993
 20
-24.698900000000013
 30
0
 10
-24.594399999999993
 20
-24.698900000000013
 30
0
 10
-24.594399999999993
 20
-24.698900000000013
 30
0
 10
-24.594399999999993
 20
-24.698900000000013
 30
0
 10
-24.59439999999999
 20
-22.568100000000015
 30
0
 10
-24.59439999999999
 20
-22.568100000000015
 30
0
 10
-24.59439999999999
 20
-22.568100000000015
 30
0
 10
-24.59439999999999
 20
-22.568100000000015
 30
0
 10
-24.59439999999999
 20
-22.568100000000015
 30
0
 10
-24.59439999999999
 20
-22.568100000000015
 30
0
 10
-24.59439999999999
 20
-22.568100000000015
 30
0
 10
-24.59439999999999
 20
-22.568100000000015
 30
0
 10
-23.237799999999982
 20
-22.568100000000008
 30
0
 10
-23.237799999999982
 20
-22.568100000000008
 30
0
 10
-23.237799999999982
 20
-22.568100000000008
 30
0
 10
-23.237799999999982
 20
-22.568100000000008
 30
0
 10
-23.237799999999982
 20
-22.568100000000008
 30
0
 10
-23.237799999999982
 20
-22.568100000000008
 30
0
 10
-23.237799999999982
 20
-22.568100000000008
 30
0
 10
-23.237799999999982
 20
-22.568100000000008
 30
0
 10
-23.237799999999989
 20
-21.577200000000012
 30
0
 10
-23.237799999999989
 20
-21.577200000000012
 30
0
 10
-23.237799999999989
 20
-21.577200000000012
 30
0
 10
-23.237799999999989
 20
-21.577200000000012
 30
0
 10
-23.237799999999989
 20
-21.577200000000012
 30
0
 10
-23.237899999999986
 20
-21.577200000000012
 30
0
 10
-23.237899999999986
 20
-21.577200000000012
 30
0
 10
-23.237899999999986
 20
-21.577200000000012
 30
0
 10
-27.52269999999999
 20
-21.577200000000012
 30
0
 10
-27.52269999999999
 20
-21.577200000000012
 30
0
 10
-27.52269999999999
 20
-21.577200000000012
 30
0
 10
-27.52269999999999
 20
-21.577200000000012
 30
0
 10
-27.52269999999999
 20
-21.577200000000012
 30
0
 10
-27.52269999999999
 20
-21.577200000000012
 30
0
 10
-27.52269999999999
 20
-21.577200000000012
 30
0
 10
-27.52269999999999
 20
-21.577200000000012
 30
0
 10
-27.522699999999986
 20
-22.667200000000012
 30
0
 10
-27.522699999999986
 20
-22.667200000000012
 30
0
 10
-27.522699999999986
 20
-22.667200000000012
 30
0
 10
-27.522699999999986
 20
-22.667200000000012
 30
0
 10
-27.522699999999986
 20
-22.667200000000012
 30
0
 10
-27.522699999999986
 20
-22.667200000000012
 30
0
 10
-27.522699999999986
 20
-22.667200000000012
 30
0
 10
-27.522699999999986
 20
-22.667200000000012
 30
0
 10
-25.984199999999987
 20
-22.667200000000012
 30
0
 10
-25.984199999999987
 20
-22.667200000000012
 30
0
 10
-25.984199999999987
 20
-22.667200000000012
 30
0
 10
-25.984199999999987
 20
-22.667200000000012
 30
0
 10
-25.984199999999987
 20
-22.667200000000012
 30
0
 10
-25.984199999999987
 20
-22.667200000000012
 30
0
 10
-25.984199999999987
 20
-22.667200000000012
 30
0
 10
-25.984199999999987
 20
-22.667200000000012
 30
0
 10
-25.984099999999994
 20
-24.847400000000015
 30
0
 10
-25.984099999999994
 20
-24.847400000000015
 30
0
 10
-25.984099999999994
 20
-24.847400000000015
 30
0
 10
-25.984099999999994
 20
-24.847400000000015
 30
0
 10
-25.984099999999994
 20
-24.847400000000015
 30
0
 10
-25.984199999999991
 20
-24.847400000000015
 30
0
 10
-25.984199999999991
 20
-24.847400000000015
 30
0
 10
-25.984199999999991
 20
-24.847400000000015
 30
0
 10
-33.627299999999991
 20
-24.847400000000015
 30
0
 10
-33.627299999999991
 20
-24.847400000000015
 30
0
 10
-33.627299999999991
 20
-24.847400000000015
 30
0
 10
-33.627299999999991
 20
-24.847400000000015
 30
0
 10
-33.627299999999991
 20
-24.847400000000015
 30
0
 10
-33.627299999999991
 20
-24.847400000000015
 30
0
 10
-33.627299999999991
 20
-24.847400000000015
 30
0
 10
-33.627299999999991
 20
-24.847400000000015
 30
0
 10
-33.627299999999984
 20
-22.601200000000009
 30
0
 10
-33.627299999999984
 20
-22.601200000000009
 30
0
 10
-33.627299999999984
 20
-22.601200000000009
 30
0
 10
-33.627299999999984
 20
-22.601200000000009
 30
0
 10
-33.627299999999984
 20
-22.601200000000009
 30
0
 10
-33.627299999999984
 20
-22.601200000000009
 30
0
 10
-33.627299999999984
 20
-22.601200000000009
 30
0
 10
-33.627299999999984
 20
-22.601200000000009
 30
0
 10
-32.039099999999976
 20
-22.60120000000002
 30
0
 10
-32.039099999999976
 20
-22.60120000000002
 30
0
 10
-32.039099999999976
 20
-22.60120000000002
 30
0
 10
-32.039099999999976
 20
-22.60120000000002
 30
0
 10
-32.039199999999994
 20
-22.601200000000013
 30
0
 10
-32.039199999999994
 20
-22.601200000000013
 30
0
 10
-32.039199999999994
 20
-22.601200000000013
 30
0
 10
-32.039199999999994
 20
-22.601200000000013
 30
0
 10
-32.039099999999983
 20
-22.30380000000001
 30
0
 10
-32.039099999999983
 20
-22.30380000000001
 30
0
 10
-32.039099999999983
 20
-22.30380000000001
 30
0
 10
-32.039099999999983
 20
-22.30380000000001
 30
0
 10
-32.039099999999983
 20
-22.30380000000001
 30
0
 10
-32.03919999999998
 20
-22.30380000000001
 30
0
 10
-32.03919999999998
 20
-22.30380000000001
 30
0
 10
-32.03919999999998
 20
-22.30380000000001
 30
0
 10
-32.725699999999989
 20
-21.618500000000012
 30
0
 10
-32.725699999999989
 20
-21.618500000000012
 30
0
 10
-32.725699999999989
 20
-21.618500000000012
 30
0
 10
-32.725699999999989
 20
-21.618500000000012
 30
0
 10
-32.725699999999989
 20
-21.618500000000012
 30
0
 10
-32.725799999999985
 20
-21.618500000000019
 30
0
 10
-32.725799999999985
 20
-21.618500000000019
 30
0
 10
-32.725799999999985
 20
-21.618500000000019
 30
0
 10
-34.752299999999991
 20
-21.618500000000019
 30
0
 10
-34.752299999999991
 20
-21.618500000000019
 30
0
 10
-34.752299999999991
 20
-21.618500000000019
 30
0
 10
-34.752299999999991
 20
-21.618500000000019
 30
0
 10
-34.752299999999991
 20
-21.618500000000019
 30
0
 10
-34.752399999999987
 20
-21.618500000000015
 30
0
 10
-34.752399999999987
 20
-21.618500000000015
 30
0
 10
-34.752399999999987
 20
-21.618500000000015
 30
0
 10
-35.161899999999989
 20
-22.027300000000011
 30
0
 10
-35.161899999999989
 20
-22.027300000000011
 30
0
 10
-35.161899999999989
 20
-22.027300000000011
 30
0
 10
-35.161899999999989
 20
-22.027300000000011
 30
0
 10
-35.161899999999989
 20
-22.027300000000011
 30
0
 10
-35.161899999999989
 20
-22.027300000000011
 30
0
 10
-35.161899999999989
 20
-22.027300000000011
 30
0
 10
-35.161899999999989
 20
-22.027300000000011
 30
0
 10
-35.161899999999989
 20
-26.647600000000011
 30
0
 10
-35.161899999999989
 20
-26.647600000000011
 30
0
 10
-35.161899999999989
 20
-26.647600000000011
 30
0
 10
-35.161899999999989
 20
-26.647600000000011
 30
0
 10
-35.161899999999989
 20
-26.647600000000011
 30
0
 10
-35.161799999999985
 20
-26.647600000000018
 30
0
 10
-35.161799999999985
 20
-26.647600000000018
 30
0
 10
-35.161799999999985
 20
-26.647600000000018
 30
0
 10
24.838300000000014
 20
-26.64759999999999
 30
0
 10
24.838300000000014
 20
-26.64759999999999
 30
0
 10
24.838300000000014
 20
-26.64759999999999
 30
0
 10
24.838300000000014
 20
-26.64759999999999
 30
0
 10
24.838300000000014
 20
-26.64759999999999
 30
0
 10
24.838300000000014
 20
-26.64759999999999
 30
0
 10
24.838300000000014
 20
-26.64759999999999
 30
0
 10
24.838300000000014
 20
-26.64759999999999
 30
0
 10
24.838300000000011
 20
-23.575699999999994
 30
0
 10
24.838300000000011
 20
-23.575699999999994
 30
0
 10
24.838300000000011
 20
-23.575699999999994
 30
0
 10
24.838300000000011
 20
-23.575699999999994
 30
0
 10
24.838200000000008
 20
-23.575699999999987
 30
0
 10
24.838200000000008
 20
-23.575699999999987
 30
0
 10
24.838200000000008
 20
-23.575699999999987
 30
0
 10
24.550000000000008
 20
-23.029299999999985
 30
0
 10
24.241400000000009
 20
-22.743099999999984
 30
0
 10
23.911900000000006
 20
-22.716699999999989
 30
0
 10
23.911900000000006
 20
-22.716699999999989
 30
0
 10
23.911900000000006
 20
-22.716699999999989
 30
0
 10
23.911800000000007
 20
-22.716699999999992
 30
0
 10
23.911800000000007
 20
-22.716699999999992
 30
0
 10
23.911800000000007
 20
-22.716699999999992
 30
0
 10
23.588500000000007
 20
-22.632999999999988
 30
0
 10
23.290800000000004
 20
-22.649499999999986
 30
0
 10
23.018500000000007
 20
-22.76639999999999
 30
0
 10
23.018500000000007
 20
-22.76639999999999
 30
0
 10
23.018500000000007
 20
-22.76639999999999
 30
0
 10
23.018400000000014
 20
-22.766399999999994
 30
0
 10
23.018400000000014
 20
-22.766399999999994
 30
0
 10
23.018400000000014
 20
-22.766399999999994
 30
0
 10
22.676800000000011
 20
-23.000699999999988
 30
0
 10
22.665800000000019
 20
-23.209799999999994
 30
0
 10
22.985400000000006
 20
-23.393999999999988
 30
0
 10
22.985400000000006
 20
-23.393999999999988
 30
0
 10
22.985400000000006
 20
-23.393999999999988
 30
0
 10
22.985400000000006
 20
-23.393999999999988
 30
0
 10
22.985400000000006
 20
-23.393999999999988
 30
0
 10
22.985400000000006
 20
-23.393999999999988
 30
0
 10
22.985400000000006
 20
-23.393999999999988
 30
0
 10
23.312100000000015
 20
-23.393999999999995
 30
0
 10
23.312100000000015
 20
-23.393999999999995
 30
0
  0
SPLINE
  5
7B
330
1F
100
AcDbEntity
  8
Layer 1
 62
174
370
20
100
AcDbSpline
 70
11
 71
3
 72
32
 73
28
 42
1E-09
 43
1E-10
 40
0
 40
0
 40
0
 40
0
 40
0.125
 40
0.125
 40
0.125
 40
0.12500001
 40
0.25
 40
0.25
 40
0.25
 40
0.25000001
 40
0.375
 40
0.375
 40
0.375
 40
0.37500001
 40
0.5
 40
0.5
 40
0.5
 40
0.50000001
 40
0.625
 40
0.625
 40
0.625
 40
0.62500001
 40
0.75
 40
0.75
 40
0.75
 40
0.75000001
 40
1
 40
1
 40
1
 40
1
 10
-8.3216999999999945
 20
-10.290700000000005
 30
0
 10
-8.3216999999999945
 20
-10.290700000000005
 30
0
 10
17.949700000000011
 20
-10.356799999999989
 30
0
 10
17.949700000000011
 20
-10.356799999999989
 30
0
 10
17.949700000000011
 20
-10.356799999999989
 30
0
 10
17.949700000000011
 20
-10.356799999999989
 30
0
 10
17.949700000000011
 20
-10.356799999999989
 30
0
 10
17.949600000000004
 20
-10.356799999999989
 30
0
 10
17.949600000000004
 20
-10.356799999999989
 30
0
 10
17.949700000000011
 20
-10.356799999999989
 30
0
 10
17.949700000000014
 20
-23.470399999999991
 30
0
 10
17.949700000000014
 20
-23.470399999999991
 30
0
 10
17.949700000000014
 20
-23.470399999999991
 30
0
 10
17.949700000000014
 20
-23.470399999999991
 30
0
 10
17.949700000000014
 20
-23.470399999999991
 30
0
 10
17.949600000000011
 20
-23.470399999999994
 30
0
 10
17.949600000000011
 20
-23.470399999999994
 30
0
 10
17.949600000000011
 20
-23.470399999999994
 30
0
 10
-8.3216999999999857
 20
-23.470400000000005
 30
0
 10
-8.3216999999999857
 20
-23.470400000000005
 30
0
 10
-8.3216999999999857
 20
-23.470400000000005
 30
0
 10
-8.3216999999999857
 20
-23.470400000000005
 30
0
 10
-8.3216999999999857
 20
-23.470400000000005
 30
0
 10
-8.3216999999999857
 20
-23.470400000000005
 30
0
 10
-8.3216999999999857
 20
-23.470400000000005
 30
0
 10
-8.3216999999999857
 20
-23.470400000000005
 30
0
 10
-8.3216999999999945
 20
-10.290700000000005
 30
0
 10
-8.3216999999999945
 20
-10.290700000000005
 30
0
  0
SPLINE
  5
7C
330
1F
100
AcDbEntity
  8
Layer 1
 62
174
370
20
100
AcDbSpline
 70
11
 71
3
 72
32
 73
28
 42
1E-09
 43
1E-10
 40
0
 40
0
 40
0
 40
0
 40
0.125
 40
0.125
 40
0.125
 40
0.12500001
 40
0.25
 40
0.25
 40
0.25
 40
0.25000001
 40
0.375
 40
0.375
 40
0.375
 40
0.37500001
 40
0.5
 40
0.5
 40
0.5
 40
0.50000001
 40
0.625
 40
0.625
 40
0.625
 40
0.62500001
 40
0.75
 40
0.75
 40
0.75
 40
0.75000001
 40
1
 40
1
 40
1
 40
1
 10
17.916599999999981
 20
26.4404
 30
0
 10
17.916599999999981
 20
26.4404
 30
0
 10
17.9827
 20
8.6034000000000042
 30
0
 10
17.9827
 20
8.6034000000000042
 30
0
 10
17.9827
 20
8.6034000000000042
 30
0
 10
17.9827
 20
8.6034000000000042
 30
0
 10
17.9827
 20
8.6034000000000042
 30
0
 10
17.982599999999998
 20
8.60340000000001
 30
0
 10
17.982599999999998
 20
8.60340000000001
 30
0
 10
17.982599999999998
 20
8.60340000000001
 30
0
 10
-8.156400000000005
 20
8.6033999999999953
 30
0
 10
-8.156400000000005
 20
8.6033999999999953
 30
0
 10
-8.156400000000005
 20
8.6033999999999953
 30
0
 10
-8.156400000000005
 20
8.6033999999999953
 30
0
 10
-8.156400000000005
 20
8.6033999999999953
 30
0
 10
-8.156400000000005
 20
8.6033999999999953
 30
0
 10
-8.156400000000005
 20
8.6033999999999953
 30
0
 10
-8.156400000000005
 20
8.6033999999999953
 30
0
 10
-8.1564000000000139
 20
26.440399999999997
 30
0
 10
-8.1564000000000139
 20
26.440399999999997
 30
0
 10
-8.1564000000000139
 20
26.440399999999997
 30
0
 10
-8.1564000000000139
 20
26.440399999999997
 30
0
 10
-8.1564000000000139
 20
26.440399999999997
 30
0
 10
-8.1563000000000123
 20
26.440400000000004
 30
0
 10
-8.1563000000000123
 20
26.440400000000004
 30
0
 10
-8.1563000000000123
 20
26.440400000000004
 30
0
 10
17.916599999999981
 20
26.4404
 30
0
 10
17.916599999999981
 20
26.4404
 30
0
  0
SPLINE
  5
7D
330
1F
100
AcDbEntity
  8
Layer 1
 62
174
370
20
100
AcDbSpline
 70
8
 71
3
 72
56
 73
52
 42
1E-09
 43
1E-10
 40
0
 40
0
 40
0
 40
0
 40
0.0714285714285714
 40
0.0714285714285714
 40
0.0714285714285714
 40
0.0714285814285714
 40
0.14285714285714279
 40
0.14285714285714279
 40
0.14285714285714279
 40
0.14285715285714279
 40
0.2142857142857143
 40
0.2142857142857143
 40
0.2142857142857143
 40
0.2142857242857143
 40
0.2857142857142857
 40
0.2857142857142857
 40
0.2857142857142857
 40
0.28571429571428569
 40
0.35714285714285721
 40
0.35714285714285721
 40
0.35714285714285721
 40
0.3571428671428572
 40
0.42857142857142849
 40
0.42857142857142849
 40
0.42857142857142849
 40
0.42857143857142849
 40
0.5
 40
0.5
 40
0.5
 40
0.50000001
 40
0.5714285714285714
 40
0.5714285714285714
 40
0.5714285714285714
 40
0.57142858142857145
 40
0.6428571428571429
 40
0.6428571428571429
 40
0.6428571428571429
 40
0.642857152857143
 40
0.71428571428571441
 40
0.71428571428571441
 40
0.71428571428571441
 40
0.71428572428571435
 40
0.7857142857142857
 40
0.7857142857142857
 40
0.7857142857142857
 40
0.78571429571428575
 40
0.8571428571428571
 40
0.8571428571428571
 40
0.8571428571428571
 40
0.857142867142857
 40
1
 40
1
 40
1
 40
1
 10
14.905799999999992
 20
3.9788000000000059
 30
0
 10
14.905799999999992
 20
3.9788000000000059
 30
0
 10
14.9058
 20
-5.4682999999999939
 30
0
 10
14.9058
 20
-5.4682999999999939
 30
0
 10
14.9058
 20
-5.4682999999999939
 30
0
 10
14.9058
 20
-5.4682999999999939
 30
0
 10
14.9058
 20
-5.4682999999999939
 30
0
 10
14.9057
 20
-5.4682999999999931
 30
0
 10
14.9057
 20
-5.4682999999999931
 30
0
 10
14.9057
 20
-5.4682999999999931
 30
0
 10
13.714499999999998
 20
-5.4682999999999931
 30
0
 10
13.714499999999998
 20
-5.4682999999999931
 30
0
 10
13.714499999999998
 20
-5.4682999999999931
 30
0
 10
13.714499999999998
 20
-5.4682999999999931
 30
0
 10
13.714499999999998
 20
-5.4682999999999931
 30
0
 10
13.714499999999998
 20
-5.4682999999999931
 30
0
 10
13.714499999999998
 20
-5.4682999999999931
 30
0
 10
13.714499999999998
 20
-5.4682999999999931
 30
0
 10
13.714499999999998
 20
-5.864699999999992
 30
0
 10
13.714499999999998
 20
-5.864699999999992
 30
0
 10
13.714499999999998
 20
-5.864699999999992
 30
0
 10
13.714499999999998
 20
-5.864699999999992
 30
0
 10
13.714499999999998
 20
-5.864699999999992
 30
0
 10
13.714499999999998
 20
-5.864699999999992
 30
0
 10
13.714499999999998
 20
-5.864699999999992
 30
0
 10
13.714499999999998
 20
-5.864699999999992
 30
0
 10
12.490400000000001
 20
-5.8646999999999956
 30
0
 10
12.490400000000001
 20
-5.8646999999999956
 30
0
 10
12.490400000000001
 20
-5.8646999999999956
 30
0
 10
12.490400000000001
 20
-5.8646999999999956
 30
0
 10
12.490400000000001
 20
-5.8646999999999956
 30
0
 10
12.4903
 20
-5.8646999999999938
 30
0
 10
12.4903
 20
-5.8646999999999938
 30
0
 10
12.4903
 20
-5.8646999999999938
 30
0
 10
10.998500000000005
 20
-8.4444999999999943
 30
0
 10
10.998500000000005
 20
-8.4444999999999943
 30
0
 10
10.998500000000005
 20
-8.4444999999999943
 30
0
 10
10.998500000000005
 20
-8.4444999999999943
 30
0
 10
10.998500000000005
 20
-8.4444999999999943
 30
0
 10
10.998400000000004
 20
-8.4444999999999926
 30
0
 10
10.998400000000004
 20
-8.4444999999999926
 30
0
 10
10.998400000000004
 20
-8.4444999999999926
 30
0
 10
-1.108599999999996
 20
-8.4445
 30
0
 10
-1.108599999999996
 20
-8.4445
 30
0
 10
-1.108599999999996
 20
-8.4445
 30
0
 10
-1.108599999999996
 20
-8.4445
 30
0
 10
-1.108599999999996
 20
-8.4445
 30
0
 10
-1.1086999999999971
 20
-8.4445
 30
0
 10
-1.1086999999999971
 20
-8.4445
 30
0
 10
-1.1086999999999971
 20
-8.4445
 30
0
 10
-2.829099999999996
 20
-6.1289
 30
0
 10
-2.829099999999996
 20
-6.1289
 30
0
  0
SPLINE
  5
7E
330
1F
100
AcDbEntity
  8
Layer 1
 62
174
370
20
100
AcDbSpline
 70
8
 71
3
 72
40
 73
36
 42
1E-09
 43
1E-10
 40
0
 40
0
 40
0
 40
0
 40
0.1
 40
0.1
 40
0.1
 40
0.10000001
 40
0.2
 40
0.2
 40
0.2
 40
0.20000001
 40
0.3
 40
0.3
 40
0.3
 40
0.30000001
 40
0.4
 40
0.4
 40
0.4
 40
0.40000001000000007
 40
0.5
 40
0.5
 40
0.5
 40
0.50000001
 40
0.6
 40
0.6
 40
0.6
 40
0.60000001000000014
 40
0.7
 40
0.7
 40
0.7
 40
0.70000001000000012
 40
0.8
 40
0.8
 40
0.8
 40
0.80000001000000009
 40
1
 40
1
 40
1
 40
1
 10
-2.829099999999996
 20
-6.1289
 30
0
 10
-2.829099999999996
 20
-6.1289
 30
0
 10
-3.6893999999999973
 20
-6.0959000000000021
 30
0
 10
-3.6893999999999973
 20
-6.0959000000000021
 30
0
 10
-3.6893999999999973
 20
-6.0959000000000021
 30
0
 10
-3.6893999999999973
 20
-6.0959000000000021
 30
0
 10
-3.6893999999999973
 20
-6.0959000000000021
 30
0
 10
-3.6893999999999973
 20
-6.0959000000000021
 30
0
 10
-3.6893999999999973
 20
-6.0959000000000021
 30
0
 10
-3.6894999999999953
 20
-6.095900000000003
 30
0
 10
-4.9135999999999953
 20
-5.3692000000000011
 30
0
 10
-4.9135999999999953
 20
-5.3692000000000011
 30
0
 10
-4.9135999999999953
 20
-5.3692000000000011
 30
0
 10
-4.9135999999999953
 20
-5.3692000000000011
 30
0
 10
-4.9135999999999953
 20
-5.3692000000000011
 30
0
 10
-4.9135999999999953
 20
-5.3692000000000011
 30
0
 10
-4.9135999999999953
 20
-5.3692000000000011
 30
0
 10
-4.9135999999999953
 20
-5.3692000000000011
 30
0
 10
-4.9136000000000024
 20
3.8465999999999978
 30
0
 10
-4.9136000000000024
 20
3.8465999999999978
 30
0
 10
-4.9136000000000024
 20
3.8465999999999978
 30
0
 10
-4.9136000000000024
 20
3.8465999999999978
 30
0
 10
-4.9136000000000024
 20
3.8465999999999978
 30
0
 10
-4.9136000000000024
 20
3.8465999999999978
 30
0
 10
-4.9136000000000024
 20
3.8465999999999978
 30
0
 10
-4.9136000000000024
 20
3.8465999999999978
 30
0
 10
-2.9615000000000018
 20
3.8465999999999987
 30
0
 10
-2.9615000000000018
 20
3.8465999999999987
 30
0
 10
-2.9615000000000018
 20
3.8465999999999987
 30
0
 10
-2.9615000000000018
 20
3.8465999999999987
 30
0
 10
-2.9615000000000018
 20
3.8465999999999987
 30
0
 10
-2.9615000000000018
 20
3.8465999999999987
 30
0
 10
-2.9615000000000018
 20
3.8465999999999987
 30
0
 10
-2.9615000000000018
 20
3.8465999999999987
 30
0
 10
-1.2409000000000026
 20
6.3901
 30
0
 10
-1.2409000000000026
 20
6.3901
 30
0
  0
SPLINE
  5
7F
330
1F
100
AcDbEntity
  8
Layer 1
 62
174
370
20
100
AcDbSpline
 70
8
 71
3
 72
16
 73
12
 42
1E-09
 43
1E-10
 40
0
 40
0
 40
0
 40
0
 40
0.25
 40
0.25
 40
0.25
 40
0.25000001
 40
0.5
 40
0.5
 40
0.5
 40
0.50000001
 40
1
 40
1
 40
1
 40
1
 10
-1.428100000000001
 20
6.4978999999999978
 30
0
 10
-1.428100000000001
 20
6.4978999999999978
 30
0
 10
10.571299999999996
 20
6.4979000000000049
 30
0
 10
10.571299999999996
 20
6.4979000000000049
 30
0
 10
10.571299999999996
 20
6.4979000000000049
 30
0
 10
10.571299999999996
 20
6.4979000000000049
 30
0
 10
10.571299999999996
 20
6.4979000000000049
 30
0
 10
10.571299999999996
 20
6.4979000000000049
 30
0
 10
10.571299999999996
 20
6.4979000000000049
 30
0
 10
10.571299999999996
 20
6.4979000000000049
 30
0
 10
12.589699999999997
 20
3.8466000000000058
 30
0
 10
12.589699999999997
 20
3.8466000000000058
 30
0
  0
SPLINE
  5
80
330
1F
100
AcDbEntity
  8
Layer 1
 62
174
370
20
100
AcDbSpline
 70
24
 71
3
 72
8
 73
4
 42
1E-09
 43
1E-10
 40
0
 40
0
 40
0
 40
0
 40
1
 40
1
 40
1
 40
1
 10
12.589699999999997
 20
3.8466000000000058
 30
0
 10
12.589699999999997
 20
3.8466000000000058
 30
0
 10
14.905799999999998
 20
3.8466000000000102
 30
0
 10
14.905799999999998
 20
3.8466000000000102
 30
0
  0
ENDSEC
  0
SECTION
  2
OBJECTS
  0
DICTIONARY
  5
C
330
0
100
AcDbDictionary
280
0
281
1
  3
ACAD_CIP_PREVIOUS_PRODUCT_INFO
350
C5
  3
ACAD_COLOR
350
C0
  3
ACAD_DETAILVIEWSTYLE
350
BC
  3
ACAD_GROUP
350
D
  3
ACAD_LAYOUT
350
1A
  3
ACAD_MATERIAL
350
43
  3
ACAD_MLEADERSTYLE
350
6B
  3
ACAD_MLINESTYLE
350
17
  3
ACAD_PLOTSETTINGS
350
19
  3
ACAD_PLOTSTYLENAME
350
E
  3
ACAD_SCALELIST
350
47
  3
ACAD_SECTIONVIEWSTYLE
350
BD
  3
ACAD_TABLESTYLE
350
69
  3
ACAD_VISUALSTYLE
350
2A
  3
ACDB_RECOMPOSE_DATA
350
D8
  3
AcDbVariableDictionary
350
81
  3
ACAD_FIELDLIST
350
114
  3
ACAD_IMAGE_DICT
350
115
  0
DICTIONARY
  5
CE
330
10
100
AcDbDictionary
280
1
281
1
  3
ADSK_XREC_LAYER_RECONCILED
360
CF
  0
DICTIONARY
  5
D0
330
6F
100
AcDbDictionary
280
1
281
1
  3
ADSK_XREC_LAYER_RECONCILED
360
D1
  0
DICTIONARY
  5
B4
330
6A
100
AcDbDictionary
280
1
281
1
  3
ACAD_ROUNDTRIP_2008_TABLESTYLE_CELLSTYLEMAP
360
D7
  0
XRECORD
  5
C5
102
{ACAD_REACTORS
330
C
102
}
330
C
100
AcDbXrecord
280
1
300
ACD
300
2021
300

  0
DICTIONARY
  5
C0
102
{ACAD_REACTORS
330
C
102
}
330
C
100
AcDbDictionary
280
0
281
1
  0
DICTIONARY
  5
BC
102
{ACAD_REACTORS
330
C
102
}
330
C
100
AcDbDictionary
280
0
281
1
  0
DICTIONARY
  5
D
102
{ACAD_REACTORS
330
C
102
}
330
C
100
AcDbDictionary
280
0
281
1
  0
DICTIONARY
  5
1A
102
{ACAD_REACTORS
330
C
102
}
330
C
100
AcDbDictionary
280
0
281
1
  3
Layout1
350
1E
  3
Layout2
350
26
  3
Model
350
22
  0
DICTIONARY
  5
43
102
{ACAD_REACTORS
330
C
102
}
330
C
100
AcDbDictionary
280
0
281
1
  0
DICTIONARY
  5
6B
102
{ACAD_REACTORS
330
C
102
}
330
C
100
AcDbDictionary
280
0
281
1
  0
DICTIONARY
  5
17
102
{ACAD_REACTORS
330
C
102
}
330
C
100
AcDbDictionary
280
0
281
1
  3
STANDARD
350
18
  0
DICTIONARY
  5
19
102
{ACAD_REACTORS
330
C
102
}
330
C
100
AcDbDictionary
280
0
281
1
  0
ACDBDICTIONARYWDFLT
  5
E
102
{ACAD_REACTORS
330
C
102
}
330
C
100
AcDbDictionary
280
0
281
1
  3
Normal
350
F
100
AcDbDictionaryWithDefault
340
F
  0
ACDBPLACEHOLDER
  5
F
102
{ACAD_REACTORS
330
E
102
}
330
E
  0
DICTIONARY
  5
47
102
{ACAD_REACTORS
330
C
102
}
330
C
100
AcDbDictionary
280
0
281
1
  3
A0
350
48
  3
A1
350
49
  3
A2
350
4A
  3
A3
350
4B
  3
A4
350
4C
  3
A5
350
4D
  3
A6
350
4E
  3
A7
350
4F
  3
A8
350
50
  3
A9
350
51
  3
B0
350
52
  3
B1
350
53
  3
B2
350
54
  3
B3
350
55
  3
B4
350
56
  3
B5
350
57
  3
B6
350
58
  3
B7
350
59
  3
B8
350
5A
  3
B9
350
5B
  3
C0
350
5C
  3
C1
350
5D
  3
C2
350
5E
  3
C3
350
5F
  3
C4
350
60
  3
C5
350
61
  3
C6
350
62
  3
C7
350
63
  3
C8
350
64
  3
C9
350
65
  3
D0
350
66
  3
D1
350
67
  3
D2
350
68
  0
DICTIONARY
  5
BD
102
{ACAD_REACTORS
330
C
102
}
330
C
100
AcDbDictionary
280
0
281
1
  0
DICTIONARY
  5
69
102
{ACAD_REACTORS
330
C
102
}
330
C
100
AcDbDictionary
280
0
281
1
  3
Standard
350
6A
  0
DICTIONARY
  5
2A
102
{ACAD_REACTORS
330
C
102
}
330
C
100
AcDbDictionary
280
0
281
1
  0
XRECORD
  5
D8
102
{ACAD_REACTORS
330
C
102
}
330
C
100
AcDbXrecord
280
1
 90
1
330
6A
  0
DICTIONARY
  5
81
102
{ACAD_REACTORS
330
C
102
}
330
C
100
AcDbDictionary
280
0
281
1
  3
CANNOSCALE
350
82
  3
CMLEADERSTYLE
350
BB
  3
CTABLESTYLE
350
BA
  3
CVIEWDETAILSTYLE
350
D2
  3
CVIEWSECTIONSTYLE
350
D3
  3
LAYEREVAL
350
D4
  3
LAYERNOTIFY
350
D5
  3
ANNOALLVISIBLE
350
111
  3
ANNOTATIVEDWG
350
112
  3
DIMASSOC
350
113
  0
FIELDLIST
  5
114
102
{ACAD_REACTORS
330
C
102
}
330
C
100
AcDbIdSet
100
AcDbFieldList
  0
DICTIONARY
  5
115
102
{ACAD_REACTORS
330
C
102
}
330
C
100
AcDbDictionary
280
0
281
1
  0
XRECORD
  5
CF
102
{ACAD_REACTORS
330
CE
102
}
330
CE
100
AcDbXrecord
280
1
290
1
  0
XRECORD
  5
D1
102
{ACAD_REACTORS
330
D0
102
}
330
D0
100
AcDbXrecord
280
1
290
1
  0
CELLSTYLEMAP
  5
D7
102
{ACAD_REACTORS
330
B4
102
}
330
B4
100
AcDbCellStyleMap
 90
3
300
CELLSTYLE
  1
TABLEFORMAT_BEGIN
 90
5
170
1
 91
0
 92
32768
 62
257
 93
1
300
CONTENTFORMAT
  1
CONTENTFORMAT_BEGIN
 90
0
 91
0
 92
4
 93
0
300

 40
0
140
1
 94
5
 62
18
340
11
144
0.25
309
CONTENTFORMAT_END
171
1
301
MARGIN
  1
CELLMARGIN_BEGIN
 40
0.06
 40
0.06
 40
0.06
 40
0.06
 40
0.18
 40
0.18
309
CELLMARGIN_END
 94
6
 95
1
302
GRIDFORMAT
  1
GRIDFORMAT_BEGIN
 90
0
 91
1
 62
0
 92
-2
340
14
 93
0
 40
0.045
309
GRIDFORMAT_END
 95
2
302
GRIDFORMAT
  1
GRIDFORMAT_BEGIN
 90
0
 91
1
 62
0
 92
-2
340
14
 93
0
 40
0.045
309
GRIDFORMAT_END
 95
4
302
GRIDFORMAT
  1
GRIDFORMAT_BEGIN
 90
0
 91
1
 62
0
 92
-2
340
14
 93
0
 40
0.045
309
GRIDFORMAT_END
 95
8
302
GRIDFORMAT
  1
GRIDFORMAT_BEGIN
 90
0
 91
1
 62
0
 92
-2
340
14
 93
0
 40
0.045
309
GRIDFORMAT_END
 95
16
302
GRIDFORMAT
  1
GRIDFORMAT_BEGIN
 90
0
 91
1
 62
0
 92
-2
340
14
 93
0
 40
0.045
309
GRIDFORMAT_END
 95
32
302
GRIDFORMAT
  1
GRIDFORMAT_BEGIN
 90
0
 91
1
 62
0
 92
-2
340
14
 93
0
 40
0.045
309
GRIDFORMAT_END
309
TABLEFORMAT_END
  1
CELLSTYLE_BEGIN
 90
1
 91
1
300
_TITLE
309
CELLSTYLE_END
300
CELLSTYLE
  1
TABLEFORMAT_BEGIN
 90
5
170
1
 91
0
 92
0
 62
257
 93
1
300
CONTENTFORMAT
  1
CONTENTFORMAT_BEGIN
 90
0
 91
0
 92
4
 93
0
300

 40
0
140
1
 94
5
 62
18
340
11
144
0.18
309
CONTENTFORMAT_END
171
1
301
MARGIN
  1
CELLMARGIN_BEGIN
 40
0.06
 40
0.06
 40
0.06
 40
0.06
 40
0.18
 40
0.18
309
CELLMARGIN_END
 94
6
 95
1
302
GRIDFORMAT
  1
GRIDFORMAT_BEGIN
 90
0
 91
1
 62
0
 92
-2
340
14
 93
0
 40
0.045
309
GRIDFORMAT_END
 95
2
302
GRIDFORMAT
  1
GRIDFORMAT_BEGIN
 90
0
 91
1
 62
0
 92
-2
340
14
 93
0
 40
0.045
309
GRIDFORMAT_END
 95
4
302
GRIDFORMAT
  1
GRIDFORMAT_BEGIN
 90
0
 91
1
 62
0
 92
-2
340
14
 93
0
 40
0.045
309
GRIDFORMAT_END
 95
8
302
GRIDFORMAT
  1
GRIDFORMAT_BEGIN
 90
0
 91
1
 62
0
 92
-2
340
14
 93
0
 40
0.045
309
GRIDFORMAT_END
 95
16
302
GRIDFORMAT
  1
GRIDFORMAT_BEGIN
 90
0
 91
1
 62
0
 92
-2
340
14
 93
0
 40
0.045
309
GRIDFORMAT_END
 95
32
302
GRIDFORMAT
  1
GRIDFORMAT_BEGIN
 90
0
 91
1
 62
0
 92
-2
340
14
 93
0
 40
0.045
309
GRIDFORMAT_END
309
TABLEFORMAT_END
  1
CELLSTYLE_BEGIN
 90
2
 91
1
300
_HEADER
309
CELLSTYLE_END
300
CELLSTYLE
  1
TABLEFORMAT_BEGIN
 90
5
170
1
 91
0
 92
0
 62
257
 93
1
300
CONTENTFORMAT
  1
CONTENTFORMAT_BEGIN
 90
0
 91
0
 92
4
 93
0
300

 40
0
140
1
 94
2
 62
18
340
11
144
0.18
309
CONTENTFORMAT_END
171
1
301
MARGIN
  1
CELLMARGIN_BEGIN
 40
0.06
 40
0.06
 40
0.06
 40
0.06
 40
0.18
 40
0.18
309
CELLMARGIN_END
 94
6
 95
1
302
GRIDFORMAT
  1
GRIDFORMAT_BEGIN
 90
0
 91
1
 62
0
 92
-2
340
14
 93
0
 40
0.045
309
GRIDFORMAT_END
 95
2
302
GRIDFORMAT
  1
GRIDFORMAT_BEGIN
 90
0
 91
1
 62
0
 92
-2
340
14
 93
0
 40
0.045
309
GRIDFORMAT_END
 95
4
302
GRIDFORMAT
  1
GRIDFORMAT_BEGIN
 90
0
 91
1
 62
0
 92
-2
340
14
 93
0
 40
0.045
309
GRIDFORMAT_END
 95
8
302
GRIDFORMAT
  1
GRIDFORMAT_BEGIN
 90
0
 91
1
 62
0
 92
-2
340
14
 93
0
 40
0.045
309
GRIDFORMAT_END
 95
16
302
GRIDFORMAT
  1
GRIDFORMAT_BEGIN
 90
0
 91
1
 62
0
 92
-2
340
14
 93
0
 40
0.045
309
GRIDFORMAT_END
 95
32
302
GRIDFORMAT
  1
GRIDFORMAT_BEGIN
 90
0
 91
1
 62
0
 92
-2
340
14
 93
0
 40
0.045
309
GRIDFORMAT_END
309
TABLEFORMAT_END
  1
CELLSTYLE_BEGIN
 90
3
 91
2
300
_DATA
309
CELLSTYLE_END
  0
LAYOUT
  5
1E
102
{ACAD_REACTORS
330
1A
102
}
330
1A
100
AcDbPlotSettings
  1

  2
none_device
  4

  6

 40
0
 41
0
 42
0
 43
0
 44
0
 45
0
 46
0
 47
0
 48
0
 49
0
140
0
141
0
142
1
143
1
 70
688
 72
0
 73
0
 74
5
  7

 75
16
 76
0
 77
2
 78
300
147
1
148
0
149
0
100
AcDbLayout
  1
Layout1
 70
1
 71
1
 10
0
 20
0
 11
12
 21
9
 12
0
 22
0
 32
0
 14
1E+20
 24
1E+20
 34
1E+20
 15
-1E+20
 25
-1E+20
 35
-1E+20
146
0
 13
0
 23
0
 33
0
 16
1
 26
0
 36
0
 17
0
 27
1
 37
0
 76
0
330
1B
  0
LAYOUT
  5
26
102
{ACAD_REACTORS
330
1A
102
}
330
1A
100
AcDbPlotSettings
  1

  2
none_device
  4

  6

 40
0
 41
0
 42
0
 43
0
 44
0
 45
0
 46
0
 47
0
 48
0
 49
0
140
0
141
0
142
1
143
1
 70
688
 72
0
 73
0
 74
5
  7

 75
16
 76
0
 77
2
 78
300
147
1
148
0
149
0
100
AcDbLayout
  1
Layout2
 70
1
 71
2
 10
0
 20
0
 11
0
 21
0
 12
0
 22
0
 32
0
 14
0
 24
0
 34
0
 15
0
 25
0
 35
0
146
0
 13
0
 23
0
 33
0
 16
1
 26
0
 36
0
 17
0
 27
1
 37
0
 76
0
330
23
  0
LAYOUT
  5
22
102
{ACAD_REACTORS
330
1A
102
}
330
1A
100
AcDbPlotSettings
  1

  2
none_device
  4
Letter_(8.50_x_11.00_Inches)
  6

 40
6.3499999999999988
 41
6.3499999999999988
 42
6.350005079999999
 43
6.350005079999999
 44
215.9
 45
279.4
 46
0
 47
0
 48
0
 49
0
140
0
141
0
142
1
143
1
 70
1712
 72
0
 73
0
 74
0
  7

 75
0
 76
0
 77
2
 78
300
147
1
148
0
149
0
100
AcDbLayout
  1
Model
 70
1
 71
0
 10
0
 20
0
 11
12
 21
9
 12
0
 22
0
 32
0
 14
-26.7476
 24
-24.9383
 34
0
 15
28.4524
 25
35.2619
 35
0
146
0
 13
0
 23
0
 33
0
 16
1
 26
0
 36
0
 17
0
 27
1
 37
0
 76
0
330
1F
331
29
  0
MLINESTYLE
  5
18
102
{ACAD_REACTORS
330
17
102
}
330
17
100
AcDbMlineStyle
  2
STANDARD
 70
0
  3

 51
90
 52
90
 71
2
 49
0.5
  6
ByLayer
 49
-0.5
  6
ByLayer
  0
SCALE
  5
48
102
{ACAD_REACTORS
330
47
102
}
330
47
100
AcDbScale
 70
0
300
1:1
140
1
141
1
290
1
  0
SCALE
  5
49
102
{ACAD_REACTORS
330
47
102
}
330
47
100
AcDbScale
 70
0
300
1:2
140
1
141
2
290
0
  0
SCALE
  5
4A
102
{ACAD_REACTORS
330
47
102
}
330
47
100
AcDbScale
 70
0
300
1:4
140
1
141
4
290
0
  0
SCALE
  5
4B
102
{ACAD_REACTORS
330
47
102
}
330
47
100
AcDbScale
 70
0
300
1:5
140
1
141
5
290
0
  0
SCALE
  5
4C
102
{ACAD_REACTORS
330
47
102
}
330
47
100
AcDbScale
 70
0
300
1:8
140
1
141
8
290
0
  0
SCALE
  5
4D
102
{ACAD_REACTORS
330
47
102
}
330
47
100
AcDbScale
 70
0
300
1:10
140
1
141
10
290
0
  0
SCALE
  5
4E
102
{ACAD_REACTORS
330
47
102
}
330
47
100
AcDbScale
 70
0
300
1:16
140
1
141
16
290
0
  0
SCALE
  5
4F
102
{ACAD_REACTORS
330
47
102
}
330
47
100
AcDbScale
 70
0
300
1:20
140
1
141
20
290
0
  0
SCALE
  5
50
102
{ACAD_REACTORS
330
47
102
}
330
47
100
AcDbScale
 70
0
300
1:30
140
1
141
30
290
0
  0
SCALE
  5
51
102
{ACAD_REACTORS
330
47
102
}
330
47
100
AcDbScale
 70
0
300
1:40
140
1
141
40
290
0
  0
SCALE
  5
52
102
{ACAD_REACTORS
330
47
102
}
330
47
100
AcDbScale
 70
0
300
1:50
140
1
141
50
290
0
  0
SCALE
  5
53
102
{ACAD_REACTORS
330
47
102
}
330
47
100
AcDbScale
 70
0
300
1:100
140
1
141
100
290
0
  0
SCALE
  5
54
102
{ACAD_REACTORS
330
47
102
}
330
47
100
AcDbScale
 70
0
300
2:1
140
2
141
1
290
0
  0
SCALE
  5
55
102
{ACAD_REACTORS
330
47
102
}
330
47
100
AcDbScale
 70
0
300
4:1
140
4
141
1
290
0
  0
SCALE
  5
56
102
{ACAD_REACTORS
330
47
102
}
330
47
100
AcDbScale
 70
0
300
8:1
140
8
141
1
290
0
  0
SCALE
  5
57
102
{ACAD_REACTORS
330
47
102
}
330
47
100
AcDbScale
 70
0
300
10:1
140
10
141
1
290
0
  0
SCALE
  5
58
102
{ACAD_REACTORS
330
47
102
}
330
47
100
AcDbScale
 70
0
300
100:1
140
100
141
1
290
0
  0
SCALE
  5
59
102
{ACAD_REACTORS
330
47
102
}
330
47
100
AcDbScale
 70
0
300
1/128" = 1'-0"
140
0.0078125
141
12
290
0
  0
SCALE
  5
5A
102
{ACAD_REACTORS
330
47
102
}
330
47
100
AcDbScale
 70
0
300
1/64" = 1'-0"
140
0.015625
141
12
290
0
  0
SCALE
  5
5B
102
{ACAD_REACTORS
330
47
102
}
330
47
100
AcDbScale
 70
0
300
1/32" = 1'-0"
140
0.03125
141
12
290
0
  0
SCALE
  5
5C
102
{ACAD_REACTORS
330
47
102
}
330
47
100
AcDbScale
 70
0
300
1/16" = 1'-0"
140
0.0625
141
12
290
0
  0
SCALE
  5
5D
102
{ACAD_REACTORS
330
47
102
}
330
47
100
AcDbScale
 70
0
300
3/32" = 1'-0"
140
0.09375
141
12
290
0
  0
SCALE
  5
5E
102
{ACAD_REACTORS
330
47
102
}
330
47
100
AcDbScale
 70
0
300
1/8" = 1'-0"
140
0.125
141
12
290
0
  0
SCALE
  5
5F
102
{ACAD_REACTORS
330
47
102
}
330
47
100
AcDbScale
 70
0
300
3/16" = 1'-0"
140
0.1875
141
12
290
0
  0
SCALE
  5
60
102
{ACAD_REACTORS
330
47
102
}
330
47
100
AcDbScale
 70
0
300
1/4" = 1'-0"
140
0.25
141
12
290
0
  0
SCALE
  5
61
102
{ACAD_REACTORS
330
47
102
}
330
47
100
AcDbScale
 70
0
300
3/8" = 1'-0"
140
0.375
141
12
290
0
  0
SCALE
  5
62
102
{ACAD_REACTORS
330
47
102
}
330
47
100
AcDbScale
 70
0
300
1/2" = 1'-0"
140
0.5
141
12
290
0
  0
SCALE
  5
63
102
{ACAD_REACTORS
330
47
102
}
330
47
100
AcDbScale
 70
0
300
3/4" = 1'-0"
140
0.75
141
12
290
0
  0
SCALE
  5
64
102
{ACAD_REACTORS
330
47
102
}
330
47
100
AcDbScale
 70
0
300
1" = 1'-0"
140
1
141
12
290
0
  0
SCALE
  5
65
102
{ACAD_REACTORS
330
47
102
}
330
47
100
AcDbScale
 70
0
300
1-1/2" = 1'-0"
140
1.5
141
12
290
0
  0
SCALE
  5
66
102
{ACAD_REACTORS
330
47
102
}
330
47
100
AcDbScale
 70
0
300
3" = 1'-0"
140
3
141
12
290
0
  0
SCALE
  5
67
102
{ACAD_REACTORS
330
47
102
}
330
47
100
AcDbScale
 70
0
300
6" = 1'-0"
140
6
141
12
290
0
  0
SCALE
  5
68
102
{ACAD_REACTORS
330
47
102
}
330
47
100
AcDbScale
 70
0
300
1'-0" = 1'-0"
140
12
141
12
290
0
  0
TABLESTYLE
  5
6A
102
{ACAD_XDICTIONARY
360
B4
102
}
102
{ACAD_REACTORS
330
69
102
}
330
69
100
AcDbTableStyle
  3
Standard
 70
0
 71
0
 40
0.06
 41
0.06
280
0
281
0
  7
Standard
140
0.18
170
2
 62
18
283
0
 90
4
 91
0
274
-2
284
1
 64
0
275
-2
285
1
 65
0
276
-2
286
1
 66
0
277
-2
287
1
 67
0
278
-2
288
1
 68
0
279
-2
289
1
 69
0
  7
Standard
140
0.25
170
5
 62
18
283
0
 90
4
 91
0
274
-2
284
1
 64
0
275
-2
285
1
 65
0
276
-2
286
1
 66
0
277
-2
287
1
 67
0
278
-2
288
1
 68
0
279
-2
289
1
 69
0
  7
Standard
140
0.18
170
5
 62
18
283
0
 90
4
 91
0
274
-2
284
1
 64
0
275
-2
285
1
 65
0
276
-2
286
1
 66
0
277
-2
287
1
 67
0
278
-2
288
1
 68
0
279
-2
289
1
 69
0
  0
DICTIONARYVAR
  5
82
102
{ACAD_REACTORS
330
81
102
}
330
81
100
DictionaryVariables
280
0
  1
1:1
  0
DICTIONARYVAR
  5
BB
102
{ACAD_REACTORS
330
81
102
}
330
81
100
DictionaryVariables
280
0
  1
STANDARD
  0
DICTIONARYVAR
  5
BA
102
{ACAD_REACTORS
330
81
102
}
330
81
100
DictionaryVariables
280
0
  1
STANDARD
  0
DICTIONARYVAR
  5
D2
102
{ACAD_REACTORS
330
81
102
}
330
81
100
DictionaryVariables
280
0
  1
Imperial24
  0
DICTIONARYVAR
  5
D3
102
{ACAD_REACTORS
330
81
102
}
330
81
100
DictionaryVariables
280
0
  1
Imperial24
  0
DICTIONARYVAR
  5
D4
102
{ACAD_REACTORS
330
81
102
}
330
81
100
DictionaryVariables
280
0
  1
1
  0
DICTIONARYVAR
  5
D5
102
{ACAD_REACTORS
330
81
102
}
330
81
100
DictionaryVariables
280
0
  1
15
  0
DICTIONARYVAR
  5
111
102
{ACAD_REACTORS
330
81
102
}
330
81
100
DictionaryVariables
280
0
  1
1
  0
DICTIONARYVAR
  5
112
102
{ACAD_REACTORS
330
81
102
}
330
81
100
DictionaryVariables
280
0
  1
0
  0
DICTIONARYVAR
  5
113
102
{ACAD_REACTORS
330
81
102
}
330
81
100
DictionaryVariables
280
0
  1
2
  0
ENDSEC
999
Created By CadLib version 4.0.36.84
999
CadLib website: www.woutware.com
  0
EOF
